G04 #@! TF.FileFunction,Copper,L2,Bot,Signal*
%FSLAX46Y46*%
G04 Gerber Fmt 4.6, Leading zero omitted, Abs format (unit mm)*
G04 Created by KiCad (PCBNEW 4.0.7-e2-6376~58~ubuntu14.04.1) date Wed May 23 17:18:52 2018*
%MOMM*%
%LPD*%
G01*
G04 APERTURE LIST*
%ADD10C,0.100000*%
%ADD11C,1.000000*%
%ADD12R,0.800000X0.500000*%
%ADD13R,0.900000X0.300000*%
%ADD14R,1.200000X0.300000*%
%ADD15R,0.300000X0.900000*%
%ADD16R,0.300000X1.200000*%
%ADD17R,1.000000X1.200000*%
%ADD18R,1.200000X1.000000*%
%ADD19R,0.600000X1.200000*%
%ADD20R,0.500000X0.800000*%
%ADD21R,1.250000X1.800000*%
%ADD22R,0.300000X0.800000*%
%ADD23C,0.600000*%
%ADD24C,0.200000*%
%ADD25C,0.500000*%
%ADD26C,0.300000*%
G04 APERTURE END LIST*
D10*
D11*
X179800000Y-94500000D03*
D10*
G36*
X204367068Y-103276687D02*
X205569150Y-104478769D01*
X205144886Y-104903033D01*
X203942804Y-103700951D01*
X204367068Y-103276687D01*
X204367068Y-103276687D01*
G37*
G36*
X203483184Y-104160571D02*
X204685266Y-105362653D01*
X204261002Y-105786917D01*
X203058920Y-104584835D01*
X203483184Y-104160571D01*
X203483184Y-104160571D01*
G37*
G36*
X205250951Y-102392804D02*
X206453033Y-103594886D01*
X206028769Y-104019150D01*
X204826687Y-102817068D01*
X205250951Y-102392804D01*
X205250951Y-102392804D01*
G37*
G36*
X206134835Y-101508920D02*
X207336917Y-102711002D01*
X206912653Y-103135266D01*
X205710571Y-101933184D01*
X206134835Y-101508920D01*
X206134835Y-101508920D01*
G37*
G36*
X204066547Y-107183452D02*
X205975736Y-109092641D01*
X205268629Y-109799748D01*
X203359440Y-107890559D01*
X204066547Y-107183452D01*
X204066547Y-107183452D01*
G37*
G36*
X209440559Y-101809440D02*
X211349748Y-103718629D01*
X210642641Y-104425736D01*
X208733452Y-102516547D01*
X209440559Y-101809440D01*
X209440559Y-101809440D01*
G37*
D12*
X204100000Y-100750000D03*
X205300000Y-100750000D03*
D11*
X201500000Y-94500000D03*
D13*
X202400000Y-99250000D03*
D14*
X202250000Y-99750000D03*
X202250000Y-100250000D03*
X202250000Y-100750000D03*
X202250000Y-101250000D03*
X202250000Y-101750000D03*
D13*
X202400000Y-102250000D03*
D15*
X201500000Y-103150000D03*
D16*
X201000000Y-103000000D03*
X200500000Y-103000000D03*
X200000000Y-103000000D03*
X199500000Y-103000000D03*
X199000000Y-103000000D03*
D15*
X198500000Y-103150000D03*
D13*
X197600000Y-102250000D03*
D14*
X197750000Y-101750000D03*
X197750000Y-101250000D03*
X197750000Y-100750000D03*
X197750000Y-100250000D03*
X197750000Y-99750000D03*
D13*
X197600000Y-99250000D03*
D15*
X198500000Y-98350000D03*
D16*
X199000000Y-98500000D03*
X199500000Y-98500000D03*
X200000000Y-98500000D03*
X200500000Y-98500000D03*
X201000000Y-98500000D03*
D15*
X201500000Y-98350000D03*
D10*
G36*
X202400000Y-99400000D02*
X201600000Y-99400000D01*
X201900000Y-99100000D01*
X202100000Y-99100000D01*
X202400000Y-99400000D01*
X202400000Y-99400000D01*
G37*
G36*
X201350000Y-99150000D02*
X201350000Y-98350000D01*
X201650000Y-98650000D01*
X201650000Y-98850000D01*
X201350000Y-99150000D01*
X201350000Y-99150000D01*
G37*
G36*
X198650000Y-102350000D02*
X198650000Y-103150000D01*
X198350000Y-102850000D01*
X198350000Y-102650000D01*
X198650000Y-102350000D01*
X198650000Y-102350000D01*
G37*
G36*
X197600000Y-102100000D02*
X198400000Y-102100000D01*
X198100000Y-102400000D01*
X197900000Y-102400000D01*
X197600000Y-102100000D01*
X197600000Y-102100000D01*
G37*
G36*
X201600000Y-102100000D02*
X202400000Y-102100000D01*
X202100000Y-102400000D01*
X201900000Y-102400000D01*
X201600000Y-102100000D01*
X201600000Y-102100000D01*
G37*
G36*
X201350000Y-103150000D02*
X201350000Y-102350000D01*
X201650000Y-102650000D01*
X201650000Y-102850000D01*
X201350000Y-103150000D01*
X201350000Y-103150000D01*
G37*
G36*
X198400000Y-99400000D02*
X197600000Y-99400000D01*
X197900000Y-99100000D01*
X198100000Y-99100000D01*
X198400000Y-99400000D01*
X198400000Y-99400000D01*
G37*
G36*
X198650000Y-98350000D02*
X198650000Y-99150000D01*
X198350000Y-98850000D01*
X198350000Y-98650000D01*
X198650000Y-98350000D01*
X198650000Y-98350000D01*
G37*
D12*
X173200000Y-94300000D03*
X174400000Y-94300000D03*
X173200000Y-97600000D03*
X174400000Y-97600000D03*
D17*
X172800000Y-96000000D03*
X174800000Y-96000000D03*
D18*
X191250000Y-95500000D03*
X191250000Y-97500000D03*
D19*
X193500000Y-95350000D03*
X192550000Y-95350000D03*
X194450000Y-95350000D03*
X194450000Y-97650000D03*
X192550000Y-97650000D03*
D18*
X195750000Y-97500000D03*
X195750000Y-95500000D03*
D10*
G36*
X203030330Y-95716117D02*
X203383883Y-96069670D01*
X202818198Y-96635355D01*
X202464645Y-96281802D01*
X203030330Y-95716117D01*
X203030330Y-95716117D01*
G37*
G36*
X202181802Y-96564645D02*
X202535355Y-96918198D01*
X201969670Y-97483883D01*
X201616117Y-97130330D01*
X202181802Y-96564645D01*
X202181802Y-96564645D01*
G37*
G36*
X204083883Y-98630330D02*
X203730330Y-98983883D01*
X203164645Y-98418198D01*
X203518198Y-98064645D01*
X204083883Y-98630330D01*
X204083883Y-98630330D01*
G37*
G36*
X203235355Y-97781802D02*
X202881802Y-98135355D01*
X202316117Y-97569670D01*
X202669670Y-97216117D01*
X203235355Y-97781802D01*
X203235355Y-97781802D01*
G37*
G36*
X203383883Y-105530330D02*
X203030330Y-105883883D01*
X202464645Y-105318198D01*
X202818198Y-104964645D01*
X203383883Y-105530330D01*
X203383883Y-105530330D01*
G37*
G36*
X202535355Y-104681802D02*
X202181802Y-105035355D01*
X201616117Y-104469670D01*
X201969670Y-104116117D01*
X202535355Y-104681802D01*
X202535355Y-104681802D01*
G37*
D20*
X196280000Y-100150000D03*
X196280000Y-101350000D03*
D21*
X177200000Y-94750000D03*
X177200000Y-97350000D03*
D10*
G36*
X204826687Y-98782932D02*
X206028769Y-97580850D01*
X206453033Y-98005114D01*
X205250951Y-99207196D01*
X204826687Y-98782932D01*
X204826687Y-98782932D01*
G37*
G36*
X205710571Y-99666816D02*
X206912653Y-98464734D01*
X207336917Y-98888998D01*
X206134835Y-100091080D01*
X205710571Y-99666816D01*
X205710571Y-99666816D01*
G37*
G36*
X203942804Y-97899049D02*
X205144886Y-96696967D01*
X205569150Y-97121231D01*
X204367068Y-98323313D01*
X203942804Y-97899049D01*
X203942804Y-97899049D01*
G37*
G36*
X203058920Y-97015165D02*
X204261002Y-95813083D01*
X204685266Y-96237347D01*
X203483184Y-97439429D01*
X203058920Y-97015165D01*
X203058920Y-97015165D01*
G37*
G36*
X208733452Y-99083453D02*
X210642641Y-97174264D01*
X211349748Y-97881371D01*
X209440559Y-99790560D01*
X208733452Y-99083453D01*
X208733452Y-99083453D01*
G37*
G36*
X203359440Y-93709441D02*
X205268629Y-91800252D01*
X205975736Y-92507359D01*
X204066547Y-94416548D01*
X203359440Y-93709441D01*
X203359440Y-93709441D01*
G37*
G36*
X184883797Y-95995352D02*
X184472530Y-97644855D01*
X183890353Y-97499702D01*
X184301620Y-95850199D01*
X184883797Y-95995352D01*
X184883797Y-95995352D01*
G37*
G36*
X183670927Y-95692949D02*
X183259660Y-97342452D01*
X182677483Y-97197299D01*
X183088750Y-95547796D01*
X183670927Y-95692949D01*
X183670927Y-95692949D01*
G37*
G36*
X186096667Y-96297754D02*
X185685400Y-97947257D01*
X185103223Y-97802104D01*
X185514490Y-96152601D01*
X186096667Y-96297754D01*
X186096667Y-96297754D01*
G37*
G36*
X187309536Y-96600157D02*
X186898269Y-98249660D01*
X186316092Y-98104507D01*
X186727359Y-96455004D01*
X187309536Y-96600157D01*
X187309536Y-96600157D01*
G37*
G36*
X180094624Y-97429342D02*
X179441435Y-100049140D01*
X178471140Y-99807218D01*
X179124329Y-97187420D01*
X180094624Y-97429342D01*
X180094624Y-97429342D01*
G37*
G36*
X188827286Y-99606639D02*
X188174097Y-102226437D01*
X187203802Y-101984515D01*
X187856991Y-99364717D01*
X188827286Y-99606639D01*
X188827286Y-99606639D01*
G37*
G36*
X181875881Y-95245394D02*
X182458058Y-95390547D01*
X182046791Y-97040050D01*
X181464614Y-96894897D01*
X181875881Y-95245394D01*
X181875881Y-95245394D01*
G37*
D22*
X194830000Y-101750000D03*
X194180000Y-101750000D03*
X193530000Y-101750000D03*
X193530000Y-99750000D03*
X194830000Y-99750000D03*
D23*
X198750000Y-94350000D03*
X199000000Y-101250000D03*
X197200000Y-95900000D03*
X168400000Y-96700000D03*
X189266089Y-95050010D03*
X191200000Y-100700000D03*
X207100000Y-100800000D03*
X192300000Y-99100000D03*
X166700000Y-95899998D03*
X191986918Y-101362932D03*
X185200000Y-98700000D03*
X203600000Y-101400000D03*
X197600000Y-104800000D03*
X196249998Y-102250000D03*
X183700000Y-100000000D03*
X168400000Y-95300000D03*
X205480000Y-95850000D03*
X192680000Y-92650000D03*
X208000000Y-102700000D03*
X208000000Y-98900000D03*
X197950000Y-103100000D03*
X194179998Y-100150000D03*
X196649988Y-99219987D03*
X204000000Y-95100000D03*
X204800000Y-106000000D03*
D24*
X196849999Y-101149999D02*
X196849999Y-100269999D01*
X196849999Y-100269999D02*
X196730000Y-100150000D01*
X196730000Y-100150000D02*
X196280000Y-100150000D01*
D25*
X196280000Y-100150000D02*
X195230000Y-100150000D01*
X195230000Y-100150000D02*
X194830000Y-99750000D01*
X194480000Y-98750000D02*
X194880000Y-98750000D01*
X194880000Y-98750000D02*
X195500000Y-98750000D01*
X194830000Y-99750000D02*
X194830000Y-98800000D01*
X194830000Y-98800000D02*
X194880000Y-98750000D01*
X193650000Y-98750000D02*
X194480000Y-98750000D01*
X194380000Y-91859420D02*
X186240580Y-91859420D01*
X194380000Y-91859420D02*
X196259420Y-91859420D01*
X196259420Y-91859420D02*
X198750000Y-94350000D01*
D24*
X202250000Y-101250000D02*
X199100000Y-101250000D01*
X199000000Y-101250000D02*
X197750000Y-101250000D01*
X199100000Y-101250000D02*
X199000000Y-101250000D01*
D25*
X185700000Y-92400000D02*
X179125000Y-92400000D01*
X186240580Y-91859420D02*
X185700000Y-92400000D01*
X179125000Y-92400000D02*
X178000000Y-93525000D01*
X178000000Y-93525000D02*
X177100000Y-94425000D01*
X177100000Y-94425000D02*
X177100000Y-94700000D01*
X195500000Y-98750000D02*
X195750000Y-98500000D01*
X192550000Y-97650000D02*
X193650000Y-98750000D01*
D24*
X196849999Y-101149999D02*
X196950000Y-101250000D01*
X173200000Y-97600000D02*
X169300000Y-97600000D01*
X169300000Y-97600000D02*
X169100000Y-97400000D01*
D25*
X197200000Y-95900000D02*
X197200000Y-96050000D01*
X197200000Y-96050000D02*
X195750000Y-97500000D01*
D24*
X171800000Y-94600000D02*
X173050012Y-93349988D01*
X173050012Y-93349988D02*
X176024988Y-93349988D01*
X176024988Y-93349988D02*
X177100000Y-94425000D01*
X168200000Y-94600000D02*
X171800000Y-94600000D01*
X168400000Y-96700000D02*
X167700000Y-96000000D01*
X195750000Y-97500000D02*
X195850000Y-97500000D01*
X167700000Y-96000000D02*
X167700000Y-95100000D01*
X167700000Y-95100000D02*
X168200000Y-94600000D01*
X168400000Y-96700000D02*
X169100000Y-97400000D01*
D25*
X195750000Y-98500000D02*
X195750000Y-97500000D01*
D24*
X196950000Y-101250000D02*
X197750000Y-101250000D01*
D25*
X196280000Y-101350000D02*
X195790002Y-101350000D01*
X195790002Y-101350000D02*
X195340001Y-100899999D01*
X195340001Y-100899999D02*
X194319999Y-100899999D01*
X194180000Y-101039998D02*
X194180000Y-101750000D01*
X194319999Y-100899999D02*
X194180000Y-101039998D01*
D24*
X197750000Y-101750000D02*
X196680000Y-101750000D01*
X196680000Y-101750000D02*
X196280000Y-101350000D01*
D25*
X191680000Y-98930000D02*
X191250000Y-98500000D01*
X192300000Y-99100000D02*
X191850000Y-99100000D01*
X191850000Y-99100000D02*
X191680000Y-98930000D01*
X189115136Y-95050010D02*
X189266089Y-95050010D01*
X186812814Y-97352332D02*
X189115136Y-95050010D01*
X191250000Y-98500000D02*
X191250000Y-97500000D01*
X191250000Y-98050000D02*
X191250000Y-97500000D01*
D24*
X191986918Y-102096920D02*
X192239998Y-102350000D01*
X194980000Y-102950000D02*
X192839999Y-102950001D01*
X192839999Y-102950001D02*
X192239998Y-102350000D01*
X196530001Y-104500001D02*
X194980000Y-102950000D01*
X197600000Y-104800000D02*
X197300001Y-104500001D01*
X197300001Y-104500001D02*
X196530001Y-104500001D01*
X191986918Y-101362932D02*
X191986918Y-102096920D01*
X191986918Y-102096920D02*
X191986918Y-101787196D01*
X191986918Y-101787196D02*
X191986918Y-101362932D01*
X185599945Y-97049929D02*
X185599945Y-98300055D01*
X185599945Y-98300055D02*
X185200000Y-98700000D01*
X203600000Y-101400000D02*
X204100000Y-100900000D01*
X204100000Y-100750000D02*
X204100000Y-100900000D01*
X204100000Y-100750000D02*
X202250000Y-100750000D01*
X195680000Y-102250000D02*
X196249998Y-102250000D01*
X196249998Y-102250000D02*
X197650000Y-102250000D01*
X194830000Y-101750000D02*
X195180000Y-101750000D01*
X195180000Y-101750000D02*
X195680000Y-102250000D01*
X197650000Y-102250000D02*
X198000000Y-102250000D01*
X183700000Y-100000000D02*
X180415833Y-96715833D01*
X180415833Y-96715833D02*
X180400000Y-96715833D01*
X180400000Y-96715833D02*
X178050000Y-96050000D01*
X176174999Y-94884997D02*
X175040001Y-93749999D01*
X173300001Y-93749999D02*
X173200000Y-93850000D01*
X173200000Y-93850000D02*
X173200000Y-94300000D01*
X176384998Y-96050000D02*
X176174999Y-95840001D01*
X178050000Y-96050000D02*
X176384998Y-96050000D01*
X175040001Y-93749999D02*
X173300001Y-93749999D01*
X176174999Y-95840001D02*
X176174999Y-94884997D01*
X172800000Y-96000000D02*
X172800000Y-94700000D01*
X172800000Y-94700000D02*
X173200000Y-94300000D01*
X172800000Y-96000000D02*
X169100000Y-96000000D01*
X169100000Y-96000000D02*
X168400000Y-95300000D01*
X173200000Y-95600000D02*
X172800000Y-96000000D01*
D25*
X190150000Y-96500000D02*
X190380000Y-96270000D01*
X186085293Y-98914707D02*
X187735293Y-98914707D01*
X187735293Y-98914707D02*
X190380000Y-96270000D01*
X190380000Y-96270000D02*
X191150000Y-95500000D01*
X205927746Y-96783364D02*
X207580000Y-98435618D01*
X207580000Y-98435618D02*
X208000000Y-98855618D01*
X205480000Y-95850000D02*
X205480000Y-96335618D01*
X205480000Y-96335618D02*
X207580000Y-98435618D01*
X205480000Y-95850000D02*
X205480000Y-96786117D01*
X205480000Y-96786117D02*
X204755977Y-97510140D01*
X191880000Y-93450000D02*
X192680000Y-92650000D01*
X183980000Y-93450000D02*
X191880000Y-93450000D01*
X182443921Y-94986079D02*
X183980000Y-93450000D01*
X181961336Y-96142722D02*
X182443921Y-95660137D01*
X182443921Y-95660137D02*
X182443921Y-94986079D01*
X185500000Y-99500000D02*
X184342593Y-99500000D01*
X184342593Y-99500000D02*
X181961336Y-97118743D01*
X181961336Y-97118743D02*
X181961336Y-96142722D01*
X186085293Y-98914707D02*
X185500000Y-99500000D01*
X206811629Y-103932753D02*
X207044382Y-103700000D01*
X207044382Y-103700000D02*
X208000000Y-102744382D01*
X204761002Y-97455115D02*
X205432753Y-96783364D01*
X208000000Y-102744382D02*
X208000000Y-102700000D01*
X208000000Y-98855618D02*
X208000000Y-98900000D01*
X205432753Y-96783364D02*
X205927746Y-96783364D01*
X206811629Y-103932753D02*
X206316636Y-103932753D01*
X206316636Y-103932753D02*
X205644885Y-103261002D01*
D24*
X192550000Y-95350000D02*
X192550000Y-94859998D01*
X192550000Y-94859998D02*
X192959999Y-94449999D01*
X192959999Y-94449999D02*
X194349999Y-94449999D01*
X194349999Y-94449999D02*
X194450000Y-94550000D01*
X194450000Y-94550000D02*
X194450000Y-95350000D01*
D25*
X191250000Y-95500000D02*
X192400000Y-95500000D01*
X192400000Y-95500000D02*
X192550000Y-95350000D01*
X191150000Y-95500000D02*
X191250000Y-95500000D01*
D24*
X195180000Y-102550000D02*
X195730000Y-103100000D01*
X195730000Y-103100000D02*
X197950000Y-103100000D01*
X193730000Y-102550000D02*
X195180000Y-102550000D01*
X193530000Y-101750000D02*
X193530000Y-102350000D01*
X193530000Y-102350000D02*
X193730000Y-102550000D01*
X197950000Y-103100000D02*
X198450000Y-103100000D01*
X198450000Y-103100000D02*
X198500000Y-103150000D01*
X198450002Y-103100002D02*
X198500000Y-103150000D01*
X193530000Y-99750000D02*
X193779998Y-99750000D01*
X193779998Y-99750000D02*
X194179998Y-100150000D01*
X196649988Y-99449988D02*
X196649988Y-99219987D01*
X196950000Y-99750000D02*
X196649988Y-99449988D01*
X197750000Y-99750000D02*
X196950000Y-99750000D01*
X201500000Y-98350000D02*
X201500000Y-97600000D01*
X201500000Y-97600000D02*
X202075736Y-97024264D01*
X202075736Y-104575736D02*
X202075736Y-104122183D01*
X201500000Y-103546447D02*
X201500000Y-103150000D01*
X202075736Y-104122183D02*
X201500000Y-103546447D01*
X202924264Y-96175736D02*
X204000000Y-95100000D01*
X203703431Y-106203431D02*
X204596569Y-106203431D01*
X202924264Y-105424264D02*
X203703431Y-106203431D01*
X204596569Y-106203431D02*
X204800000Y-106000000D01*
X202924264Y-105424264D02*
X203024264Y-105424264D01*
X202250000Y-99750000D02*
X204233883Y-99750000D01*
X204233883Y-99750000D02*
X205644885Y-98338998D01*
X202250000Y-100250000D02*
X203409998Y-100250000D01*
X203409998Y-100250000D02*
X203509987Y-100150011D01*
X205857018Y-99894632D02*
X206528769Y-99222881D01*
X205601639Y-100150011D02*
X205857018Y-99894632D01*
X203509987Y-100150011D02*
X205601639Y-100150011D01*
X204761002Y-104144885D02*
X204089251Y-103473134D01*
X204089251Y-103473134D02*
X204089251Y-102799249D01*
X203050000Y-101750000D02*
X202900000Y-101750000D01*
X204089251Y-102799249D02*
X203040002Y-101750000D01*
X203040002Y-101750000D02*
X202900000Y-101750000D01*
X202900000Y-101750000D02*
X202250000Y-101750000D01*
X202400000Y-102250000D02*
X202400000Y-103551650D01*
X202400000Y-103551650D02*
X203877119Y-105028769D01*
X203125736Y-98524264D02*
X202400000Y-99250000D01*
X203624264Y-98524264D02*
X203125736Y-98524264D01*
X196384985Y-94046370D02*
X192680000Y-94046370D01*
X184387075Y-96747527D02*
X186684602Y-94450000D01*
X186684602Y-94450000D02*
X192276370Y-94450000D01*
X192276370Y-94450000D02*
X192680000Y-94046370D01*
X184400000Y-96400000D02*
X184387075Y-96747527D01*
X197600000Y-99250000D02*
X197875462Y-98974538D01*
X197875462Y-98974538D02*
X197875462Y-95536847D01*
X197875462Y-95536847D02*
X196384985Y-94046370D01*
X196561682Y-93646359D02*
X192480000Y-93646359D01*
X183174205Y-96445124D02*
X185569329Y-94050000D01*
X185569329Y-94050000D02*
X192076359Y-94050000D01*
X192076359Y-94050000D02*
X192480000Y-93646359D01*
X183300000Y-96000000D02*
X183174205Y-96445124D01*
X183300000Y-96200000D02*
X183174205Y-96445124D01*
X198500000Y-98750000D02*
X198500000Y-95584677D01*
X198500000Y-95584677D02*
X196561682Y-93646359D01*
D26*
G36*
X189250813Y-90527810D02*
X189822484Y-90532442D01*
X190395150Y-90541482D01*
X190969350Y-90554901D01*
X191545250Y-90572674D01*
X192123265Y-90594751D01*
X192703164Y-90621111D01*
X193286014Y-90651775D01*
X193871477Y-90686682D01*
X194460201Y-90725824D01*
X195052141Y-90769160D01*
X195647813Y-90816680D01*
X196247486Y-90868357D01*
X196851519Y-90924179D01*
X197459770Y-90984080D01*
X198073145Y-91048101D01*
X198691375Y-91116156D01*
X199314921Y-91188245D01*
X199944311Y-91264372D01*
X200579531Y-91344479D01*
X201220899Y-91428544D01*
X201868974Y-91516580D01*
X202523206Y-91608452D01*
X203185214Y-91704320D01*
X203854059Y-91803992D01*
X204530580Y-91907517D01*
X204647975Y-91925931D01*
X204163774Y-92410132D01*
X204163774Y-92533876D01*
X204667588Y-93037689D01*
X204681730Y-93023547D01*
X204752441Y-93094258D01*
X204738299Y-93108400D01*
X205242112Y-93612214D01*
X205365856Y-93612214D01*
X206034774Y-92943296D01*
X210205395Y-97116535D01*
X209537786Y-97784144D01*
X209537786Y-97907888D01*
X210041600Y-98411701D01*
X210055742Y-98397559D01*
X210126453Y-98468270D01*
X210112311Y-98482412D01*
X210616124Y-98986226D01*
X210739868Y-98986226D01*
X211133574Y-98592520D01*
X211133712Y-103007618D01*
X210739868Y-102613774D01*
X210616124Y-102613774D01*
X210112311Y-103117588D01*
X210126453Y-103131730D01*
X210055742Y-103202441D01*
X210041600Y-103188299D01*
X209537786Y-103692112D01*
X209537786Y-103815856D01*
X210199319Y-104477389D01*
X206026059Y-108647989D01*
X205365856Y-107987786D01*
X205242112Y-107987786D01*
X204738299Y-108491600D01*
X204752441Y-108505742D01*
X204681730Y-108576453D01*
X204667588Y-108562311D01*
X204653446Y-108576453D01*
X204582735Y-108505742D01*
X204596877Y-108491600D01*
X203492023Y-107386746D01*
X203368279Y-107386746D01*
X203087578Y-107667447D01*
X203049274Y-107724772D01*
X203022891Y-107788468D01*
X203009440Y-107856087D01*
X203009440Y-107925031D01*
X203022891Y-107992651D01*
X203049274Y-108056347D01*
X203087578Y-108113671D01*
X203136328Y-108162422D01*
X203613236Y-108639330D01*
X203439378Y-108549854D01*
X203439299Y-108549823D01*
X203437794Y-108549043D01*
X202777626Y-108212996D01*
X202777544Y-108212964D01*
X202775974Y-108212160D01*
X202122671Y-107883405D01*
X202122587Y-107883373D01*
X202120952Y-107882545D01*
X201474240Y-107560993D01*
X201474163Y-107560964D01*
X201472451Y-107560108D01*
X200832052Y-107245670D01*
X200831963Y-107245637D01*
X200830192Y-107244763D01*
X200721913Y-107192291D01*
X203562734Y-107192291D01*
X203562734Y-107316035D01*
X204667588Y-108420889D01*
X205171402Y-107917076D01*
X205171402Y-107793332D01*
X204338410Y-106960340D01*
X204289659Y-106911590D01*
X204232335Y-106873286D01*
X204168639Y-106846903D01*
X204101019Y-106833452D01*
X204032075Y-106833452D01*
X203964456Y-106846903D01*
X203900760Y-106873286D01*
X203843435Y-106911590D01*
X203562734Y-107192291D01*
X200721913Y-107192291D01*
X200195827Y-106937350D01*
X200195739Y-106937317D01*
X200193898Y-106936422D01*
X199565291Y-106635943D01*
X199565201Y-106635910D01*
X199563291Y-106634994D01*
X198940161Y-106341358D01*
X198940063Y-106341323D01*
X198938089Y-106340390D01*
X198320161Y-106053511D01*
X198320073Y-106053480D01*
X198318022Y-106052525D01*
X197705016Y-105772306D01*
X197704919Y-105772273D01*
X197702803Y-105771303D01*
X197094443Y-105497661D01*
X197094350Y-105497630D01*
X197092163Y-105496644D01*
X196488169Y-105229486D01*
X196488068Y-105229453D01*
X196485820Y-105228457D01*
X195885917Y-104967693D01*
X195885827Y-104967664D01*
X195883501Y-104966652D01*
X195287408Y-104712192D01*
X195287312Y-104712162D01*
X195284925Y-104711142D01*
X194692366Y-104462899D01*
X194692272Y-104462870D01*
X194689820Y-104461843D01*
X194100518Y-104219722D01*
X194100420Y-104219693D01*
X194097910Y-104218661D01*
X193511585Y-103982573D01*
X193511487Y-103982544D01*
X193508914Y-103981509D01*
X192925287Y-103751368D01*
X192925194Y-103751341D01*
X192922560Y-103750304D01*
X192341357Y-103526019D01*
X192341262Y-103525993D01*
X192338577Y-103524958D01*
X191759519Y-103306437D01*
X191759418Y-103306410D01*
X191756687Y-103305381D01*
X191179498Y-103092534D01*
X191179401Y-103092509D01*
X191176617Y-103091484D01*
X190601013Y-102884220D01*
X190600923Y-102884197D01*
X190598085Y-102883178D01*
X190023794Y-102681412D01*
X190023696Y-102681388D01*
X190020828Y-102680383D01*
X189447570Y-102484021D01*
X189447467Y-102483997D01*
X189444566Y-102483006D01*
X188872062Y-102291959D01*
X188871967Y-102291937D01*
X188869026Y-102290959D01*
X188544971Y-102185691D01*
X188807031Y-101134626D01*
X188743298Y-101028557D01*
X188051963Y-100856188D01*
X188047125Y-100875594D01*
X187950095Y-100851401D01*
X187954933Y-100831996D01*
X187662797Y-100759158D01*
X188076155Y-100759158D01*
X188767491Y-100931528D01*
X188873560Y-100867795D01*
X189158550Y-99724759D01*
X189175229Y-99657863D01*
X189178537Y-99588999D01*
X189168347Y-99520812D01*
X189145050Y-99455924D01*
X189109541Y-99396827D01*
X189063185Y-99345793D01*
X189007764Y-99304784D01*
X188945407Y-99275375D01*
X188560227Y-99179339D01*
X188454158Y-99243071D01*
X188076155Y-100759158D01*
X187662797Y-100759158D01*
X187263597Y-100659626D01*
X187157528Y-100723359D01*
X186919286Y-101678898D01*
X186571755Y-101575242D01*
X186571661Y-101575224D01*
X186568638Y-101574326D01*
X185995744Y-101408507D01*
X185995647Y-101408489D01*
X185992620Y-101407617D01*
X185418814Y-101246572D01*
X185418722Y-101246556D01*
X185415687Y-101245707D01*
X184840692Y-101089349D01*
X184840599Y-101089333D01*
X184837568Y-101088513D01*
X184261102Y-100936748D01*
X184261004Y-100936732D01*
X184257985Y-100935941D01*
X183679778Y-100788683D01*
X183679684Y-100788669D01*
X183676675Y-100787906D01*
X183096443Y-100645063D01*
X183096340Y-100645048D01*
X183093358Y-100644317D01*
X182510823Y-100505800D01*
X182510720Y-100505786D01*
X182507760Y-100505085D01*
X181922647Y-100370807D01*
X181922549Y-100370794D01*
X181919617Y-100370124D01*
X181331649Y-100239988D01*
X181331554Y-100239977D01*
X181328650Y-100239336D01*
X180737546Y-100113256D01*
X180737449Y-100113245D01*
X180734583Y-100112636D01*
X180140068Y-99990525D01*
X180139970Y-99990515D01*
X180137150Y-99989937D01*
X179831951Y-99929614D01*
X180074369Y-98957329D01*
X180010636Y-98851260D01*
X179319301Y-98678891D01*
X179314463Y-98698297D01*
X179217433Y-98674104D01*
X179222271Y-98654699D01*
X178530935Y-98482329D01*
X178424866Y-98546062D01*
X178158055Y-99616184D01*
X177710942Y-99537767D01*
X177710844Y-99537760D01*
X177708230Y-99537301D01*
X177092484Y-99433670D01*
X177092388Y-99433663D01*
X177089834Y-99433233D01*
X176469008Y-99333030D01*
X176468914Y-99333024D01*
X176466425Y-99332621D01*
X175840240Y-99235751D01*
X175840140Y-99235745D01*
X175837719Y-99235369D01*
X175205900Y-99141748D01*
X175205799Y-99141743D01*
X175203450Y-99141393D01*
X174565717Y-99050926D01*
X174565623Y-99050922D01*
X174563335Y-99050595D01*
X173919414Y-98963197D01*
X173919314Y-98963193D01*
X173917104Y-98962891D01*
X173266712Y-98878470D01*
X173266623Y-98878467D01*
X173264478Y-98878186D01*
X172607340Y-98796649D01*
X172607243Y-98796647D01*
X172605177Y-98796387D01*
X171941015Y-98717650D01*
X171940928Y-98717648D01*
X171938931Y-98717408D01*
X171267468Y-98641374D01*
X171267381Y-98641373D01*
X171265456Y-98641151D01*
X170586410Y-98567737D01*
X170586319Y-98567736D01*
X170584477Y-98567533D01*
X169897576Y-98496644D01*
X169897485Y-98496644D01*
X169895717Y-98496457D01*
X169200678Y-98428007D01*
X169200596Y-98428007D01*
X169198896Y-98427835D01*
X168495443Y-98361733D01*
X168495355Y-98361733D01*
X168493739Y-98361577D01*
X167781597Y-98297730D01*
X167781518Y-98297731D01*
X167779967Y-98297587D01*
X167058853Y-98235907D01*
X167058776Y-98235908D01*
X167057298Y-98235777D01*
X166326937Y-98176177D01*
X166326861Y-98176178D01*
X166325458Y-98176059D01*
X165593842Y-98119088D01*
X165523256Y-98110634D01*
X165469754Y-98099235D01*
X165423685Y-98084715D01*
X165384082Y-98067788D01*
X165349992Y-98048941D01*
X165320423Y-98028395D01*
X165294562Y-98006194D01*
X165271805Y-97982270D01*
X165251723Y-97956476D01*
X165234162Y-97928792D01*
X165219062Y-97899210D01*
X165206496Y-97867911D01*
X165196624Y-97835321D01*
X165189526Y-97801771D01*
X165185258Y-97767754D01*
X165183489Y-97725875D01*
X165183490Y-97516747D01*
X165183490Y-97081610D01*
X165183489Y-96864042D01*
X165183490Y-96646481D01*
X165183490Y-96211344D01*
X165183489Y-95993776D01*
X165183490Y-95776215D01*
X165183490Y-95341078D01*
X165183489Y-95123510D01*
X165183489Y-95100000D01*
X167250000Y-95100000D01*
X167250000Y-96000000D01*
X167254053Y-96041339D01*
X167257679Y-96082778D01*
X167258339Y-96085050D01*
X167258570Y-96087405D01*
X167270586Y-96127204D01*
X167282181Y-96167115D01*
X167283270Y-96169215D01*
X167283954Y-96171482D01*
X167303505Y-96208251D01*
X167322599Y-96245087D01*
X167324071Y-96246931D01*
X167325185Y-96249026D01*
X167351488Y-96281276D01*
X167377390Y-96313724D01*
X167380638Y-96317018D01*
X167380693Y-96317085D01*
X167380755Y-96317136D01*
X167381802Y-96318198D01*
X167750097Y-96686493D01*
X167749146Y-96754654D01*
X167772157Y-96880031D01*
X167819082Y-96998551D01*
X167888135Y-97105700D01*
X167976684Y-97197395D01*
X168081357Y-97270145D01*
X168198167Y-97321178D01*
X168322665Y-97348550D01*
X168414069Y-97350465D01*
X168981802Y-97918198D01*
X169013905Y-97944568D01*
X169045765Y-97971301D01*
X169047838Y-97972441D01*
X169049667Y-97973943D01*
X169086314Y-97993593D01*
X169122726Y-98013611D01*
X169124980Y-98014326D01*
X169127067Y-98015445D01*
X169166857Y-98027610D01*
X169206440Y-98040166D01*
X169208789Y-98040429D01*
X169211054Y-98041122D01*
X169252424Y-98045324D01*
X169293717Y-98049956D01*
X169298344Y-98049988D01*
X169298429Y-98049997D01*
X169298508Y-98049990D01*
X169300000Y-98050000D01*
X172514796Y-98050000D01*
X172536480Y-98082906D01*
X172611800Y-98147100D01*
X172702021Y-98187769D01*
X172800000Y-98201693D01*
X173600000Y-98201693D01*
X173655736Y-98197248D01*
X173750271Y-98167973D01*
X173798416Y-98136247D01*
X173834213Y-98160166D01*
X173897909Y-98186550D01*
X173965528Y-98200000D01*
X174262500Y-98200000D01*
X174350000Y-98112500D01*
X174350000Y-97650000D01*
X174450000Y-97650000D01*
X174450000Y-98112500D01*
X174537500Y-98200000D01*
X174834472Y-98200000D01*
X174902091Y-98186550D01*
X174965787Y-98160166D01*
X175023112Y-98121863D01*
X175071863Y-98073112D01*
X175110166Y-98015787D01*
X175136550Y-97952091D01*
X175150000Y-97884472D01*
X175150000Y-97737500D01*
X175062500Y-97650000D01*
X174450000Y-97650000D01*
X174350000Y-97650000D01*
X174330000Y-97650000D01*
X174330000Y-97550000D01*
X174350000Y-97550000D01*
X174350000Y-97087500D01*
X174450000Y-97087500D01*
X174450000Y-97550000D01*
X175062500Y-97550000D01*
X175125000Y-97487500D01*
X176225000Y-97487500D01*
X176225000Y-98284472D01*
X176238450Y-98352091D01*
X176264834Y-98415787D01*
X176303137Y-98473112D01*
X176351888Y-98521863D01*
X176409213Y-98560166D01*
X176472909Y-98586550D01*
X176540528Y-98600000D01*
X177062500Y-98600000D01*
X177150000Y-98512500D01*
X177150000Y-97400000D01*
X177250000Y-97400000D01*
X177250000Y-98512500D01*
X177337500Y-98600000D01*
X177859472Y-98600000D01*
X177927091Y-98586550D01*
X177990787Y-98560166D01*
X178048112Y-98521863D01*
X178096863Y-98473112D01*
X178135166Y-98415787D01*
X178161550Y-98352091D01*
X178175000Y-98284472D01*
X178175000Y-97487500D01*
X178087500Y-97400000D01*
X177250000Y-97400000D01*
X177150000Y-97400000D01*
X176312500Y-97400000D01*
X176225000Y-97487500D01*
X175125000Y-97487500D01*
X175150000Y-97462500D01*
X175150000Y-97315528D01*
X175136550Y-97247909D01*
X175110166Y-97184213D01*
X175071863Y-97126888D01*
X175023112Y-97078137D01*
X174965787Y-97039834D01*
X174902091Y-97013450D01*
X174834472Y-97000000D01*
X174537500Y-97000000D01*
X174450000Y-97087500D01*
X174350000Y-97087500D01*
X174262500Y-97000000D01*
X173965528Y-97000000D01*
X173897909Y-97013450D01*
X173834213Y-97039834D01*
X173799827Y-97062810D01*
X173788200Y-97052900D01*
X173697979Y-97012231D01*
X173600000Y-96998307D01*
X172800000Y-96998307D01*
X172744264Y-97002752D01*
X172649729Y-97032027D01*
X172567094Y-97086480D01*
X172512957Y-97150000D01*
X169486396Y-97150000D01*
X169048963Y-96712567D01*
X169050028Y-96636264D01*
X169025268Y-96511220D01*
X168994409Y-96436350D01*
X169006440Y-96440166D01*
X169008787Y-96440429D01*
X169011053Y-96441122D01*
X169052434Y-96445325D01*
X169093717Y-96449956D01*
X169098343Y-96449988D01*
X169098428Y-96449997D01*
X169098507Y-96449990D01*
X169100000Y-96450000D01*
X171948307Y-96450000D01*
X171948307Y-96600000D01*
X171952752Y-96655736D01*
X171982027Y-96750271D01*
X172036480Y-96832906D01*
X172111800Y-96897100D01*
X172202021Y-96937769D01*
X172300000Y-96951693D01*
X173300000Y-96951693D01*
X173355736Y-96947248D01*
X173450271Y-96917973D01*
X173532906Y-96863520D01*
X173597100Y-96788200D01*
X173637769Y-96697979D01*
X173651693Y-96600000D01*
X173651693Y-96137500D01*
X173950000Y-96137500D01*
X173950000Y-96634472D01*
X173963450Y-96702091D01*
X173989834Y-96765787D01*
X174028137Y-96823112D01*
X174076888Y-96871863D01*
X174134213Y-96910166D01*
X174197909Y-96936550D01*
X174265528Y-96950000D01*
X174662500Y-96950000D01*
X174750000Y-96862500D01*
X174750000Y-96050000D01*
X174850000Y-96050000D01*
X174850000Y-96862500D01*
X174937500Y-96950000D01*
X175334472Y-96950000D01*
X175402091Y-96936550D01*
X175465787Y-96910166D01*
X175523112Y-96871863D01*
X175571863Y-96823112D01*
X175610166Y-96765787D01*
X175636550Y-96702091D01*
X175650000Y-96634472D01*
X175650000Y-96137500D01*
X175562500Y-96050000D01*
X174850000Y-96050000D01*
X174750000Y-96050000D01*
X174037500Y-96050000D01*
X173950000Y-96137500D01*
X173651693Y-96137500D01*
X173651693Y-95400000D01*
X173648944Y-95365528D01*
X173950000Y-95365528D01*
X173950000Y-95862500D01*
X174037500Y-95950000D01*
X174750000Y-95950000D01*
X174750000Y-95137500D01*
X174850000Y-95137500D01*
X174850000Y-95950000D01*
X175562500Y-95950000D01*
X175650000Y-95862500D01*
X175650000Y-95365528D01*
X175636550Y-95297909D01*
X175610166Y-95234213D01*
X175571863Y-95176888D01*
X175523112Y-95128137D01*
X175465787Y-95089834D01*
X175402091Y-95063450D01*
X175334472Y-95050000D01*
X174937500Y-95050000D01*
X174850000Y-95137500D01*
X174750000Y-95137500D01*
X174662500Y-95050000D01*
X174265528Y-95050000D01*
X174197909Y-95063450D01*
X174134213Y-95089834D01*
X174076888Y-95128137D01*
X174028137Y-95176888D01*
X173989834Y-95234213D01*
X173963450Y-95297909D01*
X173950000Y-95365528D01*
X173648944Y-95365528D01*
X173647248Y-95344264D01*
X173617973Y-95249729D01*
X173563520Y-95167094D01*
X173488200Y-95102900D01*
X173397979Y-95062231D01*
X173300000Y-95048307D01*
X173250000Y-95048307D01*
X173250000Y-94901693D01*
X173600000Y-94901693D01*
X173655736Y-94897248D01*
X173750271Y-94867973D01*
X173798416Y-94836247D01*
X173834213Y-94860166D01*
X173897909Y-94886550D01*
X173965528Y-94900000D01*
X174262500Y-94900000D01*
X174350000Y-94812500D01*
X174350000Y-94350000D01*
X174330000Y-94350000D01*
X174330000Y-94250000D01*
X174350000Y-94250000D01*
X174350000Y-94230000D01*
X174450000Y-94230000D01*
X174450000Y-94250000D01*
X174470000Y-94250000D01*
X174470000Y-94350000D01*
X174450000Y-94350000D01*
X174450000Y-94812500D01*
X174537500Y-94900000D01*
X174834472Y-94900000D01*
X174902091Y-94886550D01*
X174965787Y-94860166D01*
X175023112Y-94821863D01*
X175071863Y-94773112D01*
X175110166Y-94715787D01*
X175136550Y-94652091D01*
X175150000Y-94584472D01*
X175150000Y-94496394D01*
X175724999Y-95071393D01*
X175724999Y-95840001D01*
X175729052Y-95881340D01*
X175732678Y-95922779D01*
X175733338Y-95925051D01*
X175733569Y-95927406D01*
X175745585Y-95967205D01*
X175757180Y-96007116D01*
X175758269Y-96009216D01*
X175758953Y-96011483D01*
X175778504Y-96048252D01*
X175797598Y-96085088D01*
X175799070Y-96086932D01*
X175800184Y-96089027D01*
X175826487Y-96121277D01*
X175852389Y-96153725D01*
X175855637Y-96157019D01*
X175855692Y-96157086D01*
X175855754Y-96157137D01*
X175856801Y-96158199D01*
X176066800Y-96368198D01*
X176098925Y-96394586D01*
X176130763Y-96421301D01*
X176132833Y-96422439D01*
X176134664Y-96423943D01*
X176171333Y-96443605D01*
X176207724Y-96463611D01*
X176209978Y-96464326D01*
X176212065Y-96465445D01*
X176225000Y-96469400D01*
X176225000Y-97212500D01*
X176312500Y-97300000D01*
X177150000Y-97300000D01*
X177150000Y-97280000D01*
X177250000Y-97280000D01*
X177250000Y-97300000D01*
X178087500Y-97300000D01*
X178175000Y-97212500D01*
X178175000Y-96553130D01*
X179259558Y-96860422D01*
X179175553Y-96839477D01*
X179106689Y-96836169D01*
X179038502Y-96846360D01*
X178973614Y-96869657D01*
X178914517Y-96905166D01*
X178863483Y-96951521D01*
X178822474Y-97006943D01*
X178793065Y-97069299D01*
X178776386Y-97136195D01*
X178491395Y-98279231D01*
X178555128Y-98385300D01*
X179246463Y-98557669D01*
X179251301Y-98538263D01*
X179348331Y-98562456D01*
X179343493Y-98581861D01*
X180034829Y-98754231D01*
X180140898Y-98690498D01*
X180425888Y-97547462D01*
X180442567Y-97480566D01*
X180445875Y-97411702D01*
X180440704Y-97377100D01*
X183050097Y-99986493D01*
X183049146Y-100054654D01*
X183072157Y-100180031D01*
X183119082Y-100298551D01*
X183188135Y-100405700D01*
X183276684Y-100497395D01*
X183381357Y-100570145D01*
X183498167Y-100621178D01*
X183622665Y-100648550D01*
X183750109Y-100651220D01*
X183875644Y-100629085D01*
X183994488Y-100582988D01*
X184102116Y-100514685D01*
X184194428Y-100426778D01*
X184267906Y-100322616D01*
X184319754Y-100206165D01*
X184343874Y-100100000D01*
X185500000Y-100100000D01*
X185555170Y-100094591D01*
X185610371Y-100089761D01*
X185613400Y-100088881D01*
X185616541Y-100088573D01*
X185669638Y-100072542D01*
X185722821Y-100057091D01*
X185725619Y-100055641D01*
X185728642Y-100054728D01*
X185777573Y-100028711D01*
X185826784Y-100003203D01*
X185829252Y-100001233D01*
X185832035Y-99999753D01*
X185874950Y-99964752D01*
X185918300Y-99930146D01*
X185922691Y-99925816D01*
X185922781Y-99925742D01*
X185922850Y-99925658D01*
X185924264Y-99924264D01*
X186333821Y-99514707D01*
X187458879Y-99514707D01*
X187224057Y-100456528D01*
X187287790Y-100562597D01*
X187979125Y-100734966D01*
X188357128Y-99218879D01*
X188328048Y-99170480D01*
X189861028Y-97637500D01*
X190300000Y-97637500D01*
X190300000Y-98034472D01*
X190313450Y-98102091D01*
X190339834Y-98165787D01*
X190378137Y-98223112D01*
X190426888Y-98271863D01*
X190484213Y-98310166D01*
X190547909Y-98336550D01*
X190615528Y-98350000D01*
X191112500Y-98350000D01*
X191200000Y-98262500D01*
X191200000Y-97550000D01*
X190387500Y-97550000D01*
X190300000Y-97637500D01*
X189861028Y-97637500D01*
X190300000Y-97198528D01*
X190300000Y-97362500D01*
X190387500Y-97450000D01*
X191200000Y-97450000D01*
X191200000Y-96737500D01*
X191112500Y-96650000D01*
X190848528Y-96650000D01*
X191146835Y-96351693D01*
X191850000Y-96351693D01*
X191905736Y-96347248D01*
X192000271Y-96317973D01*
X192082906Y-96263520D01*
X192087158Y-96258531D01*
X192152021Y-96287769D01*
X192250000Y-96301693D01*
X192850000Y-96301693D01*
X192905736Y-96297248D01*
X193000271Y-96267973D01*
X193023242Y-96252836D01*
X193034213Y-96260166D01*
X193097909Y-96286550D01*
X193165528Y-96300000D01*
X193362500Y-96300000D01*
X193450000Y-96212500D01*
X193450000Y-95400000D01*
X193430000Y-95400000D01*
X193430000Y-95300000D01*
X193450000Y-95300000D01*
X193450000Y-95280000D01*
X193550000Y-95280000D01*
X193550000Y-95300000D01*
X193570000Y-95300000D01*
X193570000Y-95400000D01*
X193550000Y-95400000D01*
X193550000Y-96212500D01*
X193637500Y-96300000D01*
X193834472Y-96300000D01*
X193902091Y-96286550D01*
X193965787Y-96260166D01*
X193975858Y-96253437D01*
X194052021Y-96287769D01*
X194150000Y-96301693D01*
X194750000Y-96301693D01*
X194805736Y-96297248D01*
X194900271Y-96267973D01*
X194913971Y-96258946D01*
X194926888Y-96271863D01*
X194984213Y-96310166D01*
X195047909Y-96336550D01*
X195115528Y-96350000D01*
X195612500Y-96350000D01*
X195700000Y-96262500D01*
X195700000Y-95550000D01*
X195680000Y-95550000D01*
X195680000Y-95450000D01*
X195700000Y-95450000D01*
X195700000Y-94737500D01*
X195612500Y-94650000D01*
X195115528Y-94650000D01*
X195085397Y-94655993D01*
X195067973Y-94599729D01*
X195013520Y-94517094D01*
X194989204Y-94496370D01*
X196198589Y-94496370D01*
X196352219Y-94650000D01*
X195887500Y-94650000D01*
X195800000Y-94737500D01*
X195800000Y-95450000D01*
X195820000Y-95450000D01*
X195820000Y-95550000D01*
X195800000Y-95550000D01*
X195800000Y-96262500D01*
X195887500Y-96350000D01*
X196051472Y-96350000D01*
X195753165Y-96648307D01*
X195150000Y-96648307D01*
X195094264Y-96652752D01*
X194999729Y-96682027D01*
X194917094Y-96736480D01*
X194912842Y-96741469D01*
X194847979Y-96712231D01*
X194750000Y-96698307D01*
X194150000Y-96698307D01*
X194094264Y-96702752D01*
X193999729Y-96732027D01*
X193917094Y-96786480D01*
X193852900Y-96861800D01*
X193812231Y-96952021D01*
X193798307Y-97050000D01*
X193798307Y-98049779D01*
X193201693Y-97453165D01*
X193201693Y-97050000D01*
X193197248Y-96994264D01*
X193167973Y-96899729D01*
X193113520Y-96817094D01*
X193038200Y-96752900D01*
X192947979Y-96712231D01*
X192850000Y-96698307D01*
X192250000Y-96698307D01*
X192194264Y-96702752D01*
X192099729Y-96732027D01*
X192086029Y-96741054D01*
X192073112Y-96728137D01*
X192015787Y-96689834D01*
X191952091Y-96663450D01*
X191884472Y-96650000D01*
X191387500Y-96650000D01*
X191300000Y-96737500D01*
X191300000Y-97450000D01*
X191320000Y-97450000D01*
X191320000Y-97550000D01*
X191300000Y-97550000D01*
X191300000Y-98262500D01*
X191387500Y-98350000D01*
X191884472Y-98350000D01*
X191914603Y-98344007D01*
X191932027Y-98400271D01*
X191986480Y-98482906D01*
X192061800Y-98547100D01*
X192152021Y-98587769D01*
X192250000Y-98601693D01*
X192653165Y-98601693D01*
X193142888Y-99091416D01*
X193082900Y-99161800D01*
X193042231Y-99252021D01*
X193028307Y-99350000D01*
X193028307Y-100150000D01*
X193032752Y-100205736D01*
X193062027Y-100300271D01*
X193116480Y-100382906D01*
X193191800Y-100447100D01*
X193282021Y-100487769D01*
X193380000Y-100501693D01*
X193633328Y-100501693D01*
X193668133Y-100555700D01*
X193756682Y-100647395D01*
X193861355Y-100720145D01*
X193978165Y-100771178D01*
X194102663Y-100798550D01*
X194230107Y-100801220D01*
X194355642Y-100779085D01*
X194474486Y-100732988D01*
X194582114Y-100664685D01*
X194674426Y-100576778D01*
X194727392Y-100501693D01*
X194733165Y-100501693D01*
X194805736Y-100574264D01*
X194848559Y-100609439D01*
X194891020Y-100645068D01*
X194893784Y-100646587D01*
X194896223Y-100648591D01*
X194945101Y-100674799D01*
X194993635Y-100701481D01*
X194996640Y-100702434D01*
X194999422Y-100703926D01*
X195052440Y-100720135D01*
X195105253Y-100736889D01*
X195108388Y-100737241D01*
X195111405Y-100738163D01*
X195166504Y-100743759D01*
X195221623Y-100749942D01*
X195227795Y-100749985D01*
X195227906Y-100749996D01*
X195228009Y-100749986D01*
X195230000Y-100750000D01*
X195742694Y-100750000D01*
X195719834Y-100784213D01*
X195693450Y-100847909D01*
X195680000Y-100915528D01*
X195680000Y-101212500D01*
X195767500Y-101300000D01*
X196230000Y-101300000D01*
X196230000Y-101280000D01*
X196330000Y-101280000D01*
X196330000Y-101300000D01*
X196350000Y-101300000D01*
X196350000Y-101400000D01*
X196330000Y-101400000D01*
X196330000Y-101420000D01*
X196230000Y-101420000D01*
X196230000Y-101400000D01*
X195767500Y-101400000D01*
X195680000Y-101487500D01*
X195680000Y-101613604D01*
X195498198Y-101431802D01*
X195466095Y-101405432D01*
X195434235Y-101378699D01*
X195432162Y-101377559D01*
X195430333Y-101376057D01*
X195393686Y-101356407D01*
X195357274Y-101336389D01*
X195355020Y-101335674D01*
X195352933Y-101334555D01*
X195329900Y-101327513D01*
X195327248Y-101294264D01*
X195297973Y-101199729D01*
X195243520Y-101117094D01*
X195168200Y-101052900D01*
X195077979Y-101012231D01*
X194980000Y-100998307D01*
X194680000Y-100998307D01*
X194624264Y-101002752D01*
X194529729Y-101032027D01*
X194506758Y-101047164D01*
X194495787Y-101039834D01*
X194432091Y-101013450D01*
X194364472Y-101000000D01*
X194317500Y-101000000D01*
X194230000Y-101087500D01*
X194230000Y-101700000D01*
X194250000Y-101700000D01*
X194250000Y-101800000D01*
X194230000Y-101800000D01*
X194230000Y-101820000D01*
X194130000Y-101820000D01*
X194130000Y-101800000D01*
X194110000Y-101800000D01*
X194110000Y-101700000D01*
X194130000Y-101700000D01*
X194130000Y-101087500D01*
X194042500Y-101000000D01*
X193995528Y-101000000D01*
X193927909Y-101013450D01*
X193864213Y-101039834D01*
X193854142Y-101046563D01*
X193777979Y-101012231D01*
X193680000Y-100998307D01*
X193380000Y-100998307D01*
X193324264Y-101002752D01*
X193229729Y-101032027D01*
X193147094Y-101086480D01*
X193082900Y-101161800D01*
X193042231Y-101252021D01*
X193028307Y-101350000D01*
X193028307Y-102150000D01*
X193032752Y-102205736D01*
X193062027Y-102300271D01*
X193080000Y-102327546D01*
X193080000Y-102350000D01*
X193084053Y-102391339D01*
X193087679Y-102432778D01*
X193088339Y-102435050D01*
X193088570Y-102437405D01*
X193100586Y-102477204D01*
X193107209Y-102500001D01*
X193026395Y-102500001D01*
X192436918Y-101910524D01*
X192436918Y-101832018D01*
X192481346Y-101789710D01*
X192554824Y-101685548D01*
X192606672Y-101569097D01*
X192634913Y-101444793D01*
X192636946Y-101299196D01*
X192612186Y-101174152D01*
X192563611Y-101056299D01*
X192493069Y-100950125D01*
X192403248Y-100859675D01*
X192297570Y-100788394D01*
X192180058Y-100738997D01*
X192055190Y-100713365D01*
X191927722Y-100712475D01*
X191802508Y-100736361D01*
X191684319Y-100784113D01*
X191577655Y-100853911D01*
X191486580Y-100943098D01*
X191414563Y-101048277D01*
X191364346Y-101165441D01*
X191337843Y-101290127D01*
X191336064Y-101417586D01*
X191359075Y-101542963D01*
X191406000Y-101661483D01*
X191475053Y-101768632D01*
X191536918Y-101832695D01*
X191536918Y-102096920D01*
X191540971Y-102138259D01*
X191544597Y-102179698D01*
X191545257Y-102181970D01*
X191545488Y-102184325D01*
X191557504Y-102224124D01*
X191569099Y-102264035D01*
X191570188Y-102266135D01*
X191570872Y-102268402D01*
X191590423Y-102305171D01*
X191609517Y-102342007D01*
X191610989Y-102343851D01*
X191612103Y-102345946D01*
X191638406Y-102378196D01*
X191664308Y-102410644D01*
X191667556Y-102413938D01*
X191667611Y-102414005D01*
X191667673Y-102414056D01*
X191668720Y-102415118D01*
X192521801Y-103268199D01*
X192553904Y-103294569D01*
X192585764Y-103321302D01*
X192587837Y-103322442D01*
X192589666Y-103323944D01*
X192626313Y-103343594D01*
X192662725Y-103363612D01*
X192664979Y-103364327D01*
X192667066Y-103365446D01*
X192706897Y-103377624D01*
X192746439Y-103390167D01*
X192748783Y-103390430D01*
X192751053Y-103391124D01*
X192792473Y-103395331D01*
X192833716Y-103399957D01*
X192838343Y-103399989D01*
X192838428Y-103399998D01*
X192838507Y-103399991D01*
X192839999Y-103400001D01*
X194793604Y-103400000D01*
X196211803Y-104818199D01*
X196243928Y-104844587D01*
X196275766Y-104871302D01*
X196277836Y-104872440D01*
X196279667Y-104873944D01*
X196316336Y-104893606D01*
X196352727Y-104913612D01*
X196354981Y-104914327D01*
X196357068Y-104915446D01*
X196396870Y-104927615D01*
X196436441Y-104940167D01*
X196438788Y-104940430D01*
X196441054Y-104941123D01*
X196482430Y-104945326D01*
X196523718Y-104949957D01*
X196528345Y-104949989D01*
X196528430Y-104949998D01*
X196528509Y-104949991D01*
X196530001Y-104950001D01*
X196966645Y-104950001D01*
X196972157Y-104980031D01*
X197019082Y-105098551D01*
X197088135Y-105205700D01*
X197176684Y-105297395D01*
X197281357Y-105370145D01*
X197398167Y-105421178D01*
X197522665Y-105448550D01*
X197650109Y-105451220D01*
X197775644Y-105429085D01*
X197894488Y-105382988D01*
X198002116Y-105314685D01*
X198094428Y-105226778D01*
X198167906Y-105122616D01*
X198219754Y-105006165D01*
X198247995Y-104881861D01*
X198250028Y-104736264D01*
X198225268Y-104611220D01*
X198176693Y-104493367D01*
X198106151Y-104387193D01*
X198016330Y-104296743D01*
X197910652Y-104225462D01*
X197793140Y-104176065D01*
X197668272Y-104150433D01*
X197579397Y-104149812D01*
X197554236Y-104128700D01*
X197552163Y-104127560D01*
X197550334Y-104126058D01*
X197513687Y-104106408D01*
X197477275Y-104086390D01*
X197475021Y-104085675D01*
X197472934Y-104084556D01*
X197433144Y-104072391D01*
X197393561Y-104059835D01*
X197391212Y-104059572D01*
X197388947Y-104058879D01*
X197347577Y-104054677D01*
X197306284Y-104050045D01*
X197301657Y-104050013D01*
X197301572Y-104050004D01*
X197301493Y-104050011D01*
X197300001Y-104050001D01*
X196716397Y-104050001D01*
X196216396Y-103550000D01*
X197480915Y-103550000D01*
X197526684Y-103597395D01*
X197631357Y-103670145D01*
X197748167Y-103721178D01*
X197872665Y-103748550D01*
X198000109Y-103751220D01*
X198030653Y-103745834D01*
X198032027Y-103750271D01*
X198086480Y-103832906D01*
X198161800Y-103897100D01*
X198252021Y-103937769D01*
X198350000Y-103951693D01*
X198650000Y-103951693D01*
X198705736Y-103947248D01*
X198745638Y-103934892D01*
X198752021Y-103937769D01*
X198850000Y-103951693D01*
X199150000Y-103951693D01*
X199205736Y-103947248D01*
X199245638Y-103934892D01*
X199252021Y-103937769D01*
X199350000Y-103951693D01*
X199650000Y-103951693D01*
X199705736Y-103947248D01*
X199745638Y-103934892D01*
X199752021Y-103937769D01*
X199850000Y-103951693D01*
X200150000Y-103951693D01*
X200205736Y-103947248D01*
X200245638Y-103934892D01*
X200252021Y-103937769D01*
X200350000Y-103951693D01*
X200650000Y-103951693D01*
X200705736Y-103947248D01*
X200745638Y-103934892D01*
X200752021Y-103937769D01*
X200850000Y-103951693D01*
X201150000Y-103951693D01*
X201205736Y-103947248D01*
X201245638Y-103934892D01*
X201252021Y-103937769D01*
X201255407Y-103938250D01*
X201452787Y-104135630D01*
X201367432Y-104220985D01*
X201331164Y-104263540D01*
X201285019Y-104351087D01*
X201265091Y-104448023D01*
X201272958Y-104546674D01*
X201307996Y-104639227D01*
X201367432Y-104718355D01*
X201933117Y-105284040D01*
X201975672Y-105320308D01*
X202063219Y-105366453D01*
X202120126Y-105378152D01*
X202121486Y-105395202D01*
X202156524Y-105487755D01*
X202215960Y-105566883D01*
X202781645Y-106132568D01*
X202824200Y-106168836D01*
X202911747Y-106214981D01*
X203008683Y-106234909D01*
X203091879Y-106228275D01*
X203385233Y-106521629D01*
X203417336Y-106547999D01*
X203449196Y-106574732D01*
X203451269Y-106575872D01*
X203453098Y-106577374D01*
X203489745Y-106597024D01*
X203526157Y-106617042D01*
X203528411Y-106617757D01*
X203530498Y-106618876D01*
X203570329Y-106631054D01*
X203609871Y-106643597D01*
X203612215Y-106643860D01*
X203614485Y-106644554D01*
X203655905Y-106648761D01*
X203697148Y-106653387D01*
X203701775Y-106653419D01*
X203701860Y-106653428D01*
X203701939Y-106653421D01*
X203703431Y-106653431D01*
X204596569Y-106653431D01*
X204637908Y-106649378D01*
X204679347Y-106645752D01*
X204681619Y-106645092D01*
X204683974Y-106644861D01*
X204693207Y-106642073D01*
X204722665Y-106648550D01*
X204850109Y-106651220D01*
X204975644Y-106629085D01*
X205094488Y-106582988D01*
X205202116Y-106514685D01*
X205294428Y-106426778D01*
X205367906Y-106322616D01*
X205419754Y-106206165D01*
X205447995Y-106081861D01*
X205450028Y-105936264D01*
X205425268Y-105811220D01*
X205376693Y-105693367D01*
X205306151Y-105587193D01*
X205216330Y-105496743D01*
X205110652Y-105425462D01*
X205034418Y-105393416D01*
X205036292Y-105384300D01*
X205028425Y-105285649D01*
X205004589Y-105222686D01*
X205026303Y-105234131D01*
X205123239Y-105254059D01*
X205221890Y-105246192D01*
X205314443Y-105211154D01*
X205393571Y-105151718D01*
X205817835Y-104727454D01*
X205854103Y-104684899D01*
X205900248Y-104597352D01*
X205920176Y-104500416D01*
X205912309Y-104401765D01*
X205896721Y-104360589D01*
X205935195Y-104392192D01*
X205977656Y-104427821D01*
X205980420Y-104429340D01*
X205982859Y-104431344D01*
X206031737Y-104457552D01*
X206080271Y-104484234D01*
X206083276Y-104485187D01*
X206086058Y-104486679D01*
X206139076Y-104502888D01*
X206191889Y-104519642D01*
X206195024Y-104519994D01*
X206198041Y-104520916D01*
X206253140Y-104526512D01*
X206308259Y-104532695D01*
X206314431Y-104532738D01*
X206314542Y-104532749D01*
X206314645Y-104532739D01*
X206316636Y-104532753D01*
X206811629Y-104532753D01*
X206866799Y-104527344D01*
X206922000Y-104522514D01*
X206925029Y-104521634D01*
X206928170Y-104521326D01*
X206981267Y-104505295D01*
X207034450Y-104489844D01*
X207037248Y-104488394D01*
X207040271Y-104487481D01*
X207089202Y-104461464D01*
X207138413Y-104435956D01*
X207140881Y-104433986D01*
X207143664Y-104432506D01*
X207186579Y-104397505D01*
X207229929Y-104362899D01*
X207234320Y-104358569D01*
X207234410Y-104358495D01*
X207234479Y-104358411D01*
X207235893Y-104357017D01*
X208336729Y-103256181D01*
X208402116Y-103214685D01*
X208494428Y-103126778D01*
X208567906Y-103022616D01*
X208619754Y-102906165D01*
X208621298Y-102899368D01*
X209343332Y-103621402D01*
X209467076Y-103621402D01*
X209970889Y-103117588D01*
X208866035Y-102012734D01*
X208742291Y-102012734D01*
X208487058Y-102267967D01*
X208416330Y-102196743D01*
X208310652Y-102125462D01*
X208193140Y-102076065D01*
X208068272Y-102050433D01*
X207940804Y-102049543D01*
X207815590Y-102073429D01*
X207697401Y-102121181D01*
X207590737Y-102190979D01*
X207499662Y-102280166D01*
X207459586Y-102338696D01*
X207080591Y-101959701D01*
X206956847Y-101959701D01*
X206594455Y-102322093D01*
X206608597Y-102336235D01*
X206537886Y-102406946D01*
X206523744Y-102392804D01*
X206509602Y-102406946D01*
X206438891Y-102336235D01*
X206453033Y-102322093D01*
X205701732Y-101570792D01*
X205577989Y-101570792D01*
X205438708Y-101710072D01*
X205400405Y-101767397D01*
X205374022Y-101831093D01*
X205360571Y-101898712D01*
X205360571Y-101967656D01*
X205374022Y-102035276D01*
X205389280Y-102072114D01*
X205369534Y-102061706D01*
X205272598Y-102041778D01*
X205173947Y-102049645D01*
X205081394Y-102084683D01*
X205002266Y-102144119D01*
X204578002Y-102568383D01*
X204541734Y-102610938D01*
X204515418Y-102660866D01*
X204507070Y-102632133D01*
X204505981Y-102630032D01*
X204505297Y-102627767D01*
X204485767Y-102591037D01*
X204466652Y-102554161D01*
X204465178Y-102552315D01*
X204464066Y-102550223D01*
X204437781Y-102517995D01*
X204411861Y-102485525D01*
X204408613Y-102482231D01*
X204408558Y-102482164D01*
X204408496Y-102482113D01*
X204407449Y-102481051D01*
X203903602Y-101977204D01*
X204002116Y-101914685D01*
X204094428Y-101826778D01*
X204167906Y-101722616D01*
X204219754Y-101606165D01*
X204247995Y-101481861D01*
X204249318Y-101387078D01*
X204284703Y-101351693D01*
X204500000Y-101351693D01*
X204555736Y-101347248D01*
X204650271Y-101317973D01*
X204698416Y-101286247D01*
X204734213Y-101310166D01*
X204797909Y-101336550D01*
X204865528Y-101350000D01*
X205162500Y-101350000D01*
X205250000Y-101262500D01*
X205250000Y-100800000D01*
X205350000Y-100800000D01*
X205350000Y-101262500D01*
X205437500Y-101350000D01*
X205734472Y-101350000D01*
X205802091Y-101336550D01*
X205819401Y-101329380D01*
X205772443Y-101376338D01*
X205772443Y-101500081D01*
X206523744Y-102251382D01*
X206886136Y-101888990D01*
X206886136Y-101818279D01*
X208936746Y-101818279D01*
X208936746Y-101942023D01*
X210041600Y-103046877D01*
X210545414Y-102543064D01*
X210545414Y-102419320D01*
X209712422Y-101586328D01*
X209663671Y-101537578D01*
X209606347Y-101499274D01*
X209542651Y-101472891D01*
X209475031Y-101459440D01*
X209406087Y-101459440D01*
X209338468Y-101472891D01*
X209274772Y-101499274D01*
X209217447Y-101537578D01*
X208936746Y-101818279D01*
X206886136Y-101818279D01*
X206886136Y-101765246D01*
X206357947Y-101237057D01*
X206300623Y-101198754D01*
X206236927Y-101172371D01*
X206169307Y-101158920D01*
X206100363Y-101158920D01*
X206032744Y-101172371D01*
X205995444Y-101187821D01*
X206010166Y-101165787D01*
X206036550Y-101102091D01*
X206050000Y-101034472D01*
X206050000Y-100887500D01*
X205962500Y-100800000D01*
X205350000Y-100800000D01*
X205250000Y-100800000D01*
X205230000Y-100800000D01*
X205230000Y-100700000D01*
X205250000Y-100700000D01*
X205250000Y-100680000D01*
X205350000Y-100680000D01*
X205350000Y-100700000D01*
X205962500Y-100700000D01*
X206050000Y-100612500D01*
X206050000Y-100465528D01*
X206042449Y-100427563D01*
X206113188Y-100442106D01*
X206211839Y-100434239D01*
X206304392Y-100399201D01*
X206383520Y-100339765D01*
X207065308Y-99657977D01*
X208936746Y-99657977D01*
X208936746Y-99781721D01*
X209217447Y-100062422D01*
X209274772Y-100100726D01*
X209338468Y-100127109D01*
X209406087Y-100140560D01*
X209475031Y-100140560D01*
X209542651Y-100127109D01*
X209606347Y-100100726D01*
X209663671Y-100062422D01*
X209712422Y-100013672D01*
X210545414Y-99180680D01*
X210545414Y-99056936D01*
X210041600Y-98553123D01*
X208936746Y-99657977D01*
X207065308Y-99657977D01*
X207460487Y-99262798D01*
X207488135Y-99305700D01*
X207576684Y-99397395D01*
X207681357Y-99470145D01*
X207798167Y-99521178D01*
X207922665Y-99548550D01*
X208050109Y-99551220D01*
X208175644Y-99529085D01*
X208294488Y-99482988D01*
X208402116Y-99414685D01*
X208487961Y-99332936D01*
X208742291Y-99587266D01*
X208866035Y-99587266D01*
X209970889Y-98482412D01*
X209467076Y-97978598D01*
X209343332Y-97978598D01*
X208621019Y-98700911D01*
X208576693Y-98593367D01*
X208506151Y-98487193D01*
X208416330Y-98396743D01*
X208334370Y-98341460D01*
X206084141Y-96091231D01*
X206099754Y-96056165D01*
X206127995Y-95931861D01*
X206130028Y-95786264D01*
X206105268Y-95661220D01*
X206056693Y-95543367D01*
X205986151Y-95437193D01*
X205896330Y-95346743D01*
X205790652Y-95275462D01*
X205673140Y-95226065D01*
X205548272Y-95200433D01*
X205420804Y-95199543D01*
X205295590Y-95223429D01*
X205177401Y-95271181D01*
X205070737Y-95340979D01*
X204979662Y-95430166D01*
X204907645Y-95535345D01*
X204857428Y-95652509D01*
X204830925Y-95777195D01*
X204829399Y-95886506D01*
X204817848Y-95874955D01*
X204694105Y-95874955D01*
X203942804Y-96626256D01*
X203956946Y-96640398D01*
X203886235Y-96711109D01*
X203872093Y-96696967D01*
X203220361Y-97348699D01*
X203173484Y-97348699D01*
X202846447Y-97675736D01*
X202860589Y-97689878D01*
X202789878Y-97760589D01*
X202775736Y-97746447D01*
X202448699Y-98073484D01*
X202448699Y-98197227D01*
X202632538Y-98381066D01*
X202265297Y-98748307D01*
X202001693Y-98748307D01*
X202001693Y-97900000D01*
X201997248Y-97844264D01*
X201993234Y-97831304D01*
X202046674Y-97827042D01*
X202069770Y-97818298D01*
X202254245Y-98002773D01*
X202377988Y-98002773D01*
X202705025Y-97675736D01*
X202690883Y-97661594D01*
X202761594Y-97590883D01*
X202775736Y-97605025D01*
X203003204Y-97377557D01*
X203050081Y-97377557D01*
X203801382Y-96626256D01*
X203787240Y-96612114D01*
X203857951Y-96541403D01*
X203872093Y-96555545D01*
X204623394Y-95804244D01*
X204623394Y-95680501D01*
X204484114Y-95541220D01*
X204481263Y-95539315D01*
X204494428Y-95526778D01*
X204567906Y-95422616D01*
X204619754Y-95306165D01*
X204647995Y-95181861D01*
X204650028Y-95036264D01*
X204625268Y-94911220D01*
X204576693Y-94793367D01*
X204506151Y-94687193D01*
X204416330Y-94596743D01*
X204395427Y-94582643D01*
X205171402Y-93806668D01*
X205171402Y-93682924D01*
X204667588Y-93179111D01*
X203562734Y-94283965D01*
X203562734Y-94407709D01*
X203684589Y-94529564D01*
X203590737Y-94590979D01*
X203499662Y-94680166D01*
X203427645Y-94785345D01*
X203377428Y-94902509D01*
X203350925Y-95027195D01*
X203349715Y-95113889D01*
X203090578Y-95373026D01*
X203051977Y-95365091D01*
X202953326Y-95372958D01*
X202885358Y-95398689D01*
X202941609Y-95318948D01*
X203073221Y-95023341D01*
X203144910Y-94707800D01*
X203150071Y-94338209D01*
X203087220Y-94020790D01*
X202963913Y-93721624D01*
X202932916Y-93674969D01*
X203009440Y-93674969D01*
X203009440Y-93743913D01*
X203022891Y-93811532D01*
X203049274Y-93875228D01*
X203087578Y-93932553D01*
X203368279Y-94213254D01*
X203492023Y-94213254D01*
X204596877Y-93108400D01*
X204093064Y-92604586D01*
X203969320Y-92604586D01*
X203136328Y-93437578D01*
X203087578Y-93486329D01*
X203049274Y-93543653D01*
X203022891Y-93607349D01*
X203009440Y-93674969D01*
X202932916Y-93674969D01*
X202784846Y-93452106D01*
X202556839Y-93222501D01*
X202288577Y-93041557D01*
X201990279Y-92916164D01*
X201673307Y-92851099D01*
X201349733Y-92848840D01*
X201031882Y-92909473D01*
X200731863Y-93030689D01*
X200461101Y-93207870D01*
X200229911Y-93434268D01*
X200047098Y-93701260D01*
X199919625Y-93998676D01*
X199852349Y-94315186D01*
X199847831Y-94638737D01*
X199906243Y-94957002D01*
X200025362Y-95257861D01*
X200200649Y-95529853D01*
X200425428Y-95762618D01*
X200691136Y-95947291D01*
X200987655Y-96076836D01*
X201303688Y-96146321D01*
X201627199Y-96153098D01*
X201945865Y-96096908D01*
X202247548Y-95979893D01*
X202306763Y-95942314D01*
X202215960Y-96033117D01*
X202179692Y-96075672D01*
X202133547Y-96163219D01*
X202121848Y-96220126D01*
X202104798Y-96221486D01*
X202012245Y-96256524D01*
X201933117Y-96315960D01*
X201367432Y-96881645D01*
X201331164Y-96924200D01*
X201285019Y-97011747D01*
X201265091Y-97108683D01*
X201271725Y-97191879D01*
X201181802Y-97281802D01*
X201155432Y-97313905D01*
X201128699Y-97345765D01*
X201127559Y-97347838D01*
X201126057Y-97349667D01*
X201106407Y-97386314D01*
X201086389Y-97422726D01*
X201085674Y-97424980D01*
X201084555Y-97427067D01*
X201072390Y-97466857D01*
X201059834Y-97506440D01*
X201059571Y-97508789D01*
X201058878Y-97511054D01*
X201055094Y-97548307D01*
X200850000Y-97548307D01*
X200794264Y-97552752D01*
X200754362Y-97565108D01*
X200747979Y-97562231D01*
X200650000Y-97548307D01*
X200350000Y-97548307D01*
X200294264Y-97552752D01*
X200254362Y-97565108D01*
X200247979Y-97562231D01*
X200150000Y-97548307D01*
X199850000Y-97548307D01*
X199794264Y-97552752D01*
X199754362Y-97565108D01*
X199747979Y-97562231D01*
X199650000Y-97548307D01*
X199350000Y-97548307D01*
X199294264Y-97552752D01*
X199254362Y-97565108D01*
X199247979Y-97562231D01*
X199150000Y-97548307D01*
X198950000Y-97548307D01*
X198950000Y-95584677D01*
X198945947Y-95543338D01*
X198942321Y-95501899D01*
X198941661Y-95499627D01*
X198941430Y-95497272D01*
X198929414Y-95457473D01*
X198917819Y-95417562D01*
X198916730Y-95415462D01*
X198916046Y-95413195D01*
X198896516Y-95376465D01*
X198877402Y-95339590D01*
X198875927Y-95337742D01*
X198874815Y-95335651D01*
X198848534Y-95303428D01*
X198822610Y-95270953D01*
X198819362Y-95267659D01*
X198819307Y-95267592D01*
X198819245Y-95267541D01*
X198818198Y-95266479D01*
X198503291Y-94951572D01*
X198548167Y-94971178D01*
X198672665Y-94998550D01*
X198800109Y-95001220D01*
X198925644Y-94979085D01*
X199044488Y-94932988D01*
X199152116Y-94864685D01*
X199244428Y-94776778D01*
X199317906Y-94672616D01*
X199369754Y-94556165D01*
X199397995Y-94431861D01*
X199400028Y-94286264D01*
X199375268Y-94161220D01*
X199326693Y-94043367D01*
X199256151Y-93937193D01*
X199166330Y-93846743D01*
X199060652Y-93775462D01*
X198997403Y-93748875D01*
X196683684Y-91435156D01*
X196640861Y-91399981D01*
X196598400Y-91364352D01*
X196595636Y-91362833D01*
X196593197Y-91360829D01*
X196544319Y-91334621D01*
X196495785Y-91307939D01*
X196492780Y-91306986D01*
X196489998Y-91305494D01*
X196436980Y-91289285D01*
X196384167Y-91272531D01*
X196381032Y-91272179D01*
X196378015Y-91271257D01*
X196322916Y-91265661D01*
X196267797Y-91259478D01*
X196261625Y-91259435D01*
X196261514Y-91259424D01*
X196261411Y-91259434D01*
X196259420Y-91259420D01*
X186240580Y-91259420D01*
X186185451Y-91264825D01*
X186130209Y-91269659D01*
X186127180Y-91270539D01*
X186124039Y-91270847D01*
X186070975Y-91286868D01*
X186017760Y-91302328D01*
X186014959Y-91303780D01*
X186011938Y-91304692D01*
X185963004Y-91330711D01*
X185913797Y-91356217D01*
X185911331Y-91358186D01*
X185908545Y-91359667D01*
X185865614Y-91394681D01*
X185822281Y-91429273D01*
X185817889Y-91433604D01*
X185817799Y-91433678D01*
X185817730Y-91433762D01*
X185816316Y-91435156D01*
X185451472Y-91800000D01*
X179125000Y-91800000D01*
X179069830Y-91805409D01*
X179014629Y-91810239D01*
X179011600Y-91811119D01*
X179008459Y-91811427D01*
X178955362Y-91827458D01*
X178902179Y-91842909D01*
X178899381Y-91844359D01*
X178896358Y-91845272D01*
X178847388Y-91871310D01*
X178798216Y-91896798D01*
X178795751Y-91898765D01*
X178792965Y-91900247D01*
X178750022Y-91935270D01*
X178706700Y-91969854D01*
X178702309Y-91974184D01*
X178702219Y-91974258D01*
X178702150Y-91974342D01*
X178700736Y-91975736D01*
X177178165Y-93498307D01*
X176809703Y-93498307D01*
X176343186Y-93031790D01*
X176311083Y-93005420D01*
X176279223Y-92978687D01*
X176277150Y-92977547D01*
X176275321Y-92976045D01*
X176238674Y-92956395D01*
X176202262Y-92936377D01*
X176200008Y-92935662D01*
X176197921Y-92934543D01*
X176158131Y-92922378D01*
X176118548Y-92909822D01*
X176116199Y-92909559D01*
X176113934Y-92908866D01*
X176072564Y-92904664D01*
X176031271Y-92900032D01*
X176026644Y-92900000D01*
X176026559Y-92899991D01*
X176026480Y-92899998D01*
X176024988Y-92899988D01*
X173050012Y-92899988D01*
X173008673Y-92904041D01*
X172967234Y-92907667D01*
X172964962Y-92908327D01*
X172962607Y-92908558D01*
X172922808Y-92920574D01*
X172882897Y-92932169D01*
X172880797Y-92933258D01*
X172878530Y-92933942D01*
X172841761Y-92953493D01*
X172804925Y-92972587D01*
X172803081Y-92974059D01*
X172800986Y-92975173D01*
X172768736Y-93001476D01*
X172736288Y-93027378D01*
X172732994Y-93030626D01*
X172732927Y-93030681D01*
X172732876Y-93030743D01*
X172731814Y-93031790D01*
X171613604Y-94150000D01*
X168200000Y-94150000D01*
X168158661Y-94154053D01*
X168117222Y-94157679D01*
X168114950Y-94158339D01*
X168112595Y-94158570D01*
X168072796Y-94170586D01*
X168032885Y-94182181D01*
X168030785Y-94183270D01*
X168028518Y-94183954D01*
X167991749Y-94203505D01*
X167954913Y-94222599D01*
X167953069Y-94224071D01*
X167950974Y-94225185D01*
X167918724Y-94251488D01*
X167886276Y-94277390D01*
X167882982Y-94280638D01*
X167882915Y-94280693D01*
X167882864Y-94280755D01*
X167881802Y-94281802D01*
X167381802Y-94781802D01*
X167355432Y-94813905D01*
X167328699Y-94845765D01*
X167327559Y-94847838D01*
X167326057Y-94849667D01*
X167306407Y-94886314D01*
X167286389Y-94922726D01*
X167285674Y-94924980D01*
X167284555Y-94927067D01*
X167272390Y-94966857D01*
X167259834Y-95006440D01*
X167259571Y-95008789D01*
X167258878Y-95011054D01*
X167254676Y-95052424D01*
X167250044Y-95093717D01*
X167250012Y-95098344D01*
X167250003Y-95098429D01*
X167250010Y-95098508D01*
X167250000Y-95100000D01*
X165183489Y-95100000D01*
X165183490Y-94905948D01*
X165183490Y-94688377D01*
X165183489Y-94470811D01*
X165183490Y-94261111D01*
X165184568Y-94233661D01*
X165187177Y-94210941D01*
X165191892Y-94186384D01*
X165198899Y-94160669D01*
X165208331Y-94134388D01*
X165220362Y-94107832D01*
X165235148Y-94081308D01*
X165252918Y-94055014D01*
X165274079Y-94028962D01*
X165299169Y-94003172D01*
X165328901Y-93977669D01*
X165364141Y-93952561D01*
X165405829Y-93928114D01*
X165454977Y-93904736D01*
X165512508Y-93883034D01*
X165586112Y-93861772D01*
X166316823Y-93681788D01*
X167044350Y-93505625D01*
X167763333Y-93334653D01*
X168472771Y-93169157D01*
X169174011Y-93008851D01*
X169866292Y-92853955D01*
X170550811Y-92704232D01*
X171227286Y-92559780D01*
X171896370Y-92420494D01*
X172557832Y-92286449D01*
X173212478Y-92157519D01*
X173860301Y-92033726D01*
X174501552Y-91915053D01*
X175136785Y-91801422D01*
X175766000Y-91692859D01*
X176389673Y-91589298D01*
X177007850Y-91490755D01*
X177620974Y-91397175D01*
X178229316Y-91308532D01*
X178833171Y-91224800D01*
X179432613Y-91145982D01*
X180028318Y-91071992D01*
X180620359Y-91002837D01*
X181208863Y-90938504D01*
X181794283Y-90878951D01*
X182376904Y-90824147D01*
X182957064Y-90774065D01*
X183534834Y-90728694D01*
X184110580Y-90687998D01*
X184684830Y-90651942D01*
X185257499Y-90620519D01*
X185829136Y-90593685D01*
X186399849Y-90571430D01*
X186970004Y-90553720D01*
X187540016Y-90540526D01*
X188109808Y-90531828D01*
X188680060Y-90527589D01*
X189250813Y-90527810D01*
X189250813Y-90527810D01*
G37*
X189250813Y-90527810D02*
X189822484Y-90532442D01*
X190395150Y-90541482D01*
X190969350Y-90554901D01*
X191545250Y-90572674D01*
X192123265Y-90594751D01*
X192703164Y-90621111D01*
X193286014Y-90651775D01*
X193871477Y-90686682D01*
X194460201Y-90725824D01*
X195052141Y-90769160D01*
X195647813Y-90816680D01*
X196247486Y-90868357D01*
X196851519Y-90924179D01*
X197459770Y-90984080D01*
X198073145Y-91048101D01*
X198691375Y-91116156D01*
X199314921Y-91188245D01*
X199944311Y-91264372D01*
X200579531Y-91344479D01*
X201220899Y-91428544D01*
X201868974Y-91516580D01*
X202523206Y-91608452D01*
X203185214Y-91704320D01*
X203854059Y-91803992D01*
X204530580Y-91907517D01*
X204647975Y-91925931D01*
X204163774Y-92410132D01*
X204163774Y-92533876D01*
X204667588Y-93037689D01*
X204681730Y-93023547D01*
X204752441Y-93094258D01*
X204738299Y-93108400D01*
X205242112Y-93612214D01*
X205365856Y-93612214D01*
X206034774Y-92943296D01*
X210205395Y-97116535D01*
X209537786Y-97784144D01*
X209537786Y-97907888D01*
X210041600Y-98411701D01*
X210055742Y-98397559D01*
X210126453Y-98468270D01*
X210112311Y-98482412D01*
X210616124Y-98986226D01*
X210739868Y-98986226D01*
X211133574Y-98592520D01*
X211133712Y-103007618D01*
X210739868Y-102613774D01*
X210616124Y-102613774D01*
X210112311Y-103117588D01*
X210126453Y-103131730D01*
X210055742Y-103202441D01*
X210041600Y-103188299D01*
X209537786Y-103692112D01*
X209537786Y-103815856D01*
X210199319Y-104477389D01*
X206026059Y-108647989D01*
X205365856Y-107987786D01*
X205242112Y-107987786D01*
X204738299Y-108491600D01*
X204752441Y-108505742D01*
X204681730Y-108576453D01*
X204667588Y-108562311D01*
X204653446Y-108576453D01*
X204582735Y-108505742D01*
X204596877Y-108491600D01*
X203492023Y-107386746D01*
X203368279Y-107386746D01*
X203087578Y-107667447D01*
X203049274Y-107724772D01*
X203022891Y-107788468D01*
X203009440Y-107856087D01*
X203009440Y-107925031D01*
X203022891Y-107992651D01*
X203049274Y-108056347D01*
X203087578Y-108113671D01*
X203136328Y-108162422D01*
X203613236Y-108639330D01*
X203439378Y-108549854D01*
X203439299Y-108549823D01*
X203437794Y-108549043D01*
X202777626Y-108212996D01*
X202777544Y-108212964D01*
X202775974Y-108212160D01*
X202122671Y-107883405D01*
X202122587Y-107883373D01*
X202120952Y-107882545D01*
X201474240Y-107560993D01*
X201474163Y-107560964D01*
X201472451Y-107560108D01*
X200832052Y-107245670D01*
X200831963Y-107245637D01*
X200830192Y-107244763D01*
X200721913Y-107192291D01*
X203562734Y-107192291D01*
X203562734Y-107316035D01*
X204667588Y-108420889D01*
X205171402Y-107917076D01*
X205171402Y-107793332D01*
X204338410Y-106960340D01*
X204289659Y-106911590D01*
X204232335Y-106873286D01*
X204168639Y-106846903D01*
X204101019Y-106833452D01*
X204032075Y-106833452D01*
X203964456Y-106846903D01*
X203900760Y-106873286D01*
X203843435Y-106911590D01*
X203562734Y-107192291D01*
X200721913Y-107192291D01*
X200195827Y-106937350D01*
X200195739Y-106937317D01*
X200193898Y-106936422D01*
X199565291Y-106635943D01*
X199565201Y-106635910D01*
X199563291Y-106634994D01*
X198940161Y-106341358D01*
X198940063Y-106341323D01*
X198938089Y-106340390D01*
X198320161Y-106053511D01*
X198320073Y-106053480D01*
X198318022Y-106052525D01*
X197705016Y-105772306D01*
X197704919Y-105772273D01*
X197702803Y-105771303D01*
X197094443Y-105497661D01*
X197094350Y-105497630D01*
X197092163Y-105496644D01*
X196488169Y-105229486D01*
X196488068Y-105229453D01*
X196485820Y-105228457D01*
X195885917Y-104967693D01*
X195885827Y-104967664D01*
X195883501Y-104966652D01*
X195287408Y-104712192D01*
X195287312Y-104712162D01*
X195284925Y-104711142D01*
X194692366Y-104462899D01*
X194692272Y-104462870D01*
X194689820Y-104461843D01*
X194100518Y-104219722D01*
X194100420Y-104219693D01*
X194097910Y-104218661D01*
X193511585Y-103982573D01*
X193511487Y-103982544D01*
X193508914Y-103981509D01*
X192925287Y-103751368D01*
X192925194Y-103751341D01*
X192922560Y-103750304D01*
X192341357Y-103526019D01*
X192341262Y-103525993D01*
X192338577Y-103524958D01*
X191759519Y-103306437D01*
X191759418Y-103306410D01*
X191756687Y-103305381D01*
X191179498Y-103092534D01*
X191179401Y-103092509D01*
X191176617Y-103091484D01*
X190601013Y-102884220D01*
X190600923Y-102884197D01*
X190598085Y-102883178D01*
X190023794Y-102681412D01*
X190023696Y-102681388D01*
X190020828Y-102680383D01*
X189447570Y-102484021D01*
X189447467Y-102483997D01*
X189444566Y-102483006D01*
X188872062Y-102291959D01*
X188871967Y-102291937D01*
X188869026Y-102290959D01*
X188544971Y-102185691D01*
X188807031Y-101134626D01*
X188743298Y-101028557D01*
X188051963Y-100856188D01*
X188047125Y-100875594D01*
X187950095Y-100851401D01*
X187954933Y-100831996D01*
X187662797Y-100759158D01*
X188076155Y-100759158D01*
X188767491Y-100931528D01*
X188873560Y-100867795D01*
X189158550Y-99724759D01*
X189175229Y-99657863D01*
X189178537Y-99588999D01*
X189168347Y-99520812D01*
X189145050Y-99455924D01*
X189109541Y-99396827D01*
X189063185Y-99345793D01*
X189007764Y-99304784D01*
X188945407Y-99275375D01*
X188560227Y-99179339D01*
X188454158Y-99243071D01*
X188076155Y-100759158D01*
X187662797Y-100759158D01*
X187263597Y-100659626D01*
X187157528Y-100723359D01*
X186919286Y-101678898D01*
X186571755Y-101575242D01*
X186571661Y-101575224D01*
X186568638Y-101574326D01*
X185995744Y-101408507D01*
X185995647Y-101408489D01*
X185992620Y-101407617D01*
X185418814Y-101246572D01*
X185418722Y-101246556D01*
X185415687Y-101245707D01*
X184840692Y-101089349D01*
X184840599Y-101089333D01*
X184837568Y-101088513D01*
X184261102Y-100936748D01*
X184261004Y-100936732D01*
X184257985Y-100935941D01*
X183679778Y-100788683D01*
X183679684Y-100788669D01*
X183676675Y-100787906D01*
X183096443Y-100645063D01*
X183096340Y-100645048D01*
X183093358Y-100644317D01*
X182510823Y-100505800D01*
X182510720Y-100505786D01*
X182507760Y-100505085D01*
X181922647Y-100370807D01*
X181922549Y-100370794D01*
X181919617Y-100370124D01*
X181331649Y-100239988D01*
X181331554Y-100239977D01*
X181328650Y-100239336D01*
X180737546Y-100113256D01*
X180737449Y-100113245D01*
X180734583Y-100112636D01*
X180140068Y-99990525D01*
X180139970Y-99990515D01*
X180137150Y-99989937D01*
X179831951Y-99929614D01*
X180074369Y-98957329D01*
X180010636Y-98851260D01*
X179319301Y-98678891D01*
X179314463Y-98698297D01*
X179217433Y-98674104D01*
X179222271Y-98654699D01*
X178530935Y-98482329D01*
X178424866Y-98546062D01*
X178158055Y-99616184D01*
X177710942Y-99537767D01*
X177710844Y-99537760D01*
X177708230Y-99537301D01*
X177092484Y-99433670D01*
X177092388Y-99433663D01*
X177089834Y-99433233D01*
X176469008Y-99333030D01*
X176468914Y-99333024D01*
X176466425Y-99332621D01*
X175840240Y-99235751D01*
X175840140Y-99235745D01*
X175837719Y-99235369D01*
X175205900Y-99141748D01*
X175205799Y-99141743D01*
X175203450Y-99141393D01*
X174565717Y-99050926D01*
X174565623Y-99050922D01*
X174563335Y-99050595D01*
X173919414Y-98963197D01*
X173919314Y-98963193D01*
X173917104Y-98962891D01*
X173266712Y-98878470D01*
X173266623Y-98878467D01*
X173264478Y-98878186D01*
X172607340Y-98796649D01*
X172607243Y-98796647D01*
X172605177Y-98796387D01*
X171941015Y-98717650D01*
X171940928Y-98717648D01*
X171938931Y-98717408D01*
X171267468Y-98641374D01*
X171267381Y-98641373D01*
X171265456Y-98641151D01*
X170586410Y-98567737D01*
X170586319Y-98567736D01*
X170584477Y-98567533D01*
X169897576Y-98496644D01*
X169897485Y-98496644D01*
X169895717Y-98496457D01*
X169200678Y-98428007D01*
X169200596Y-98428007D01*
X169198896Y-98427835D01*
X168495443Y-98361733D01*
X168495355Y-98361733D01*
X168493739Y-98361577D01*
X167781597Y-98297730D01*
X167781518Y-98297731D01*
X167779967Y-98297587D01*
X167058853Y-98235907D01*
X167058776Y-98235908D01*
X167057298Y-98235777D01*
X166326937Y-98176177D01*
X166326861Y-98176178D01*
X166325458Y-98176059D01*
X165593842Y-98119088D01*
X165523256Y-98110634D01*
X165469754Y-98099235D01*
X165423685Y-98084715D01*
X165384082Y-98067788D01*
X165349992Y-98048941D01*
X165320423Y-98028395D01*
X165294562Y-98006194D01*
X165271805Y-97982270D01*
X165251723Y-97956476D01*
X165234162Y-97928792D01*
X165219062Y-97899210D01*
X165206496Y-97867911D01*
X165196624Y-97835321D01*
X165189526Y-97801771D01*
X165185258Y-97767754D01*
X165183489Y-97725875D01*
X165183490Y-97516747D01*
X165183490Y-97081610D01*
X165183489Y-96864042D01*
X165183490Y-96646481D01*
X165183490Y-96211344D01*
X165183489Y-95993776D01*
X165183490Y-95776215D01*
X165183490Y-95341078D01*
X165183489Y-95123510D01*
X165183489Y-95100000D01*
X167250000Y-95100000D01*
X167250000Y-96000000D01*
X167254053Y-96041339D01*
X167257679Y-96082778D01*
X167258339Y-96085050D01*
X167258570Y-96087405D01*
X167270586Y-96127204D01*
X167282181Y-96167115D01*
X167283270Y-96169215D01*
X167283954Y-96171482D01*
X167303505Y-96208251D01*
X167322599Y-96245087D01*
X167324071Y-96246931D01*
X167325185Y-96249026D01*
X167351488Y-96281276D01*
X167377390Y-96313724D01*
X167380638Y-96317018D01*
X167380693Y-96317085D01*
X167380755Y-96317136D01*
X167381802Y-96318198D01*
X167750097Y-96686493D01*
X167749146Y-96754654D01*
X167772157Y-96880031D01*
X167819082Y-96998551D01*
X167888135Y-97105700D01*
X167976684Y-97197395D01*
X168081357Y-97270145D01*
X168198167Y-97321178D01*
X168322665Y-97348550D01*
X168414069Y-97350465D01*
X168981802Y-97918198D01*
X169013905Y-97944568D01*
X169045765Y-97971301D01*
X169047838Y-97972441D01*
X169049667Y-97973943D01*
X169086314Y-97993593D01*
X169122726Y-98013611D01*
X169124980Y-98014326D01*
X169127067Y-98015445D01*
X169166857Y-98027610D01*
X169206440Y-98040166D01*
X169208789Y-98040429D01*
X169211054Y-98041122D01*
X169252424Y-98045324D01*
X169293717Y-98049956D01*
X169298344Y-98049988D01*
X169298429Y-98049997D01*
X169298508Y-98049990D01*
X169300000Y-98050000D01*
X172514796Y-98050000D01*
X172536480Y-98082906D01*
X172611800Y-98147100D01*
X172702021Y-98187769D01*
X172800000Y-98201693D01*
X173600000Y-98201693D01*
X173655736Y-98197248D01*
X173750271Y-98167973D01*
X173798416Y-98136247D01*
X173834213Y-98160166D01*
X173897909Y-98186550D01*
X173965528Y-98200000D01*
X174262500Y-98200000D01*
X174350000Y-98112500D01*
X174350000Y-97650000D01*
X174450000Y-97650000D01*
X174450000Y-98112500D01*
X174537500Y-98200000D01*
X174834472Y-98200000D01*
X174902091Y-98186550D01*
X174965787Y-98160166D01*
X175023112Y-98121863D01*
X175071863Y-98073112D01*
X175110166Y-98015787D01*
X175136550Y-97952091D01*
X175150000Y-97884472D01*
X175150000Y-97737500D01*
X175062500Y-97650000D01*
X174450000Y-97650000D01*
X174350000Y-97650000D01*
X174330000Y-97650000D01*
X174330000Y-97550000D01*
X174350000Y-97550000D01*
X174350000Y-97087500D01*
X174450000Y-97087500D01*
X174450000Y-97550000D01*
X175062500Y-97550000D01*
X175125000Y-97487500D01*
X176225000Y-97487500D01*
X176225000Y-98284472D01*
X176238450Y-98352091D01*
X176264834Y-98415787D01*
X176303137Y-98473112D01*
X176351888Y-98521863D01*
X176409213Y-98560166D01*
X176472909Y-98586550D01*
X176540528Y-98600000D01*
X177062500Y-98600000D01*
X177150000Y-98512500D01*
X177150000Y-97400000D01*
X177250000Y-97400000D01*
X177250000Y-98512500D01*
X177337500Y-98600000D01*
X177859472Y-98600000D01*
X177927091Y-98586550D01*
X177990787Y-98560166D01*
X178048112Y-98521863D01*
X178096863Y-98473112D01*
X178135166Y-98415787D01*
X178161550Y-98352091D01*
X178175000Y-98284472D01*
X178175000Y-97487500D01*
X178087500Y-97400000D01*
X177250000Y-97400000D01*
X177150000Y-97400000D01*
X176312500Y-97400000D01*
X176225000Y-97487500D01*
X175125000Y-97487500D01*
X175150000Y-97462500D01*
X175150000Y-97315528D01*
X175136550Y-97247909D01*
X175110166Y-97184213D01*
X175071863Y-97126888D01*
X175023112Y-97078137D01*
X174965787Y-97039834D01*
X174902091Y-97013450D01*
X174834472Y-97000000D01*
X174537500Y-97000000D01*
X174450000Y-97087500D01*
X174350000Y-97087500D01*
X174262500Y-97000000D01*
X173965528Y-97000000D01*
X173897909Y-97013450D01*
X173834213Y-97039834D01*
X173799827Y-97062810D01*
X173788200Y-97052900D01*
X173697979Y-97012231D01*
X173600000Y-96998307D01*
X172800000Y-96998307D01*
X172744264Y-97002752D01*
X172649729Y-97032027D01*
X172567094Y-97086480D01*
X172512957Y-97150000D01*
X169486396Y-97150000D01*
X169048963Y-96712567D01*
X169050028Y-96636264D01*
X169025268Y-96511220D01*
X168994409Y-96436350D01*
X169006440Y-96440166D01*
X169008787Y-96440429D01*
X169011053Y-96441122D01*
X169052434Y-96445325D01*
X169093717Y-96449956D01*
X169098343Y-96449988D01*
X169098428Y-96449997D01*
X169098507Y-96449990D01*
X169100000Y-96450000D01*
X171948307Y-96450000D01*
X171948307Y-96600000D01*
X171952752Y-96655736D01*
X171982027Y-96750271D01*
X172036480Y-96832906D01*
X172111800Y-96897100D01*
X172202021Y-96937769D01*
X172300000Y-96951693D01*
X173300000Y-96951693D01*
X173355736Y-96947248D01*
X173450271Y-96917973D01*
X173532906Y-96863520D01*
X173597100Y-96788200D01*
X173637769Y-96697979D01*
X173651693Y-96600000D01*
X173651693Y-96137500D01*
X173950000Y-96137500D01*
X173950000Y-96634472D01*
X173963450Y-96702091D01*
X173989834Y-96765787D01*
X174028137Y-96823112D01*
X174076888Y-96871863D01*
X174134213Y-96910166D01*
X174197909Y-96936550D01*
X174265528Y-96950000D01*
X174662500Y-96950000D01*
X174750000Y-96862500D01*
X174750000Y-96050000D01*
X174850000Y-96050000D01*
X174850000Y-96862500D01*
X174937500Y-96950000D01*
X175334472Y-96950000D01*
X175402091Y-96936550D01*
X175465787Y-96910166D01*
X175523112Y-96871863D01*
X175571863Y-96823112D01*
X175610166Y-96765787D01*
X175636550Y-96702091D01*
X175650000Y-96634472D01*
X175650000Y-96137500D01*
X175562500Y-96050000D01*
X174850000Y-96050000D01*
X174750000Y-96050000D01*
X174037500Y-96050000D01*
X173950000Y-96137500D01*
X173651693Y-96137500D01*
X173651693Y-95400000D01*
X173648944Y-95365528D01*
X173950000Y-95365528D01*
X173950000Y-95862500D01*
X174037500Y-95950000D01*
X174750000Y-95950000D01*
X174750000Y-95137500D01*
X174850000Y-95137500D01*
X174850000Y-95950000D01*
X175562500Y-95950000D01*
X175650000Y-95862500D01*
X175650000Y-95365528D01*
X175636550Y-95297909D01*
X175610166Y-95234213D01*
X175571863Y-95176888D01*
X175523112Y-95128137D01*
X175465787Y-95089834D01*
X175402091Y-95063450D01*
X175334472Y-95050000D01*
X174937500Y-95050000D01*
X174850000Y-95137500D01*
X174750000Y-95137500D01*
X174662500Y-95050000D01*
X174265528Y-95050000D01*
X174197909Y-95063450D01*
X174134213Y-95089834D01*
X174076888Y-95128137D01*
X174028137Y-95176888D01*
X173989834Y-95234213D01*
X173963450Y-95297909D01*
X173950000Y-95365528D01*
X173648944Y-95365528D01*
X173647248Y-95344264D01*
X173617973Y-95249729D01*
X173563520Y-95167094D01*
X173488200Y-95102900D01*
X173397979Y-95062231D01*
X173300000Y-95048307D01*
X173250000Y-95048307D01*
X173250000Y-94901693D01*
X173600000Y-94901693D01*
X173655736Y-94897248D01*
X173750271Y-94867973D01*
X173798416Y-94836247D01*
X173834213Y-94860166D01*
X173897909Y-94886550D01*
X173965528Y-94900000D01*
X174262500Y-94900000D01*
X174350000Y-94812500D01*
X174350000Y-94350000D01*
X174330000Y-94350000D01*
X174330000Y-94250000D01*
X174350000Y-94250000D01*
X174350000Y-94230000D01*
X174450000Y-94230000D01*
X174450000Y-94250000D01*
X174470000Y-94250000D01*
X174470000Y-94350000D01*
X174450000Y-94350000D01*
X174450000Y-94812500D01*
X174537500Y-94900000D01*
X174834472Y-94900000D01*
X174902091Y-94886550D01*
X174965787Y-94860166D01*
X175023112Y-94821863D01*
X175071863Y-94773112D01*
X175110166Y-94715787D01*
X175136550Y-94652091D01*
X175150000Y-94584472D01*
X175150000Y-94496394D01*
X175724999Y-95071393D01*
X175724999Y-95840001D01*
X175729052Y-95881340D01*
X175732678Y-95922779D01*
X175733338Y-95925051D01*
X175733569Y-95927406D01*
X175745585Y-95967205D01*
X175757180Y-96007116D01*
X175758269Y-96009216D01*
X175758953Y-96011483D01*
X175778504Y-96048252D01*
X175797598Y-96085088D01*
X175799070Y-96086932D01*
X175800184Y-96089027D01*
X175826487Y-96121277D01*
X175852389Y-96153725D01*
X175855637Y-96157019D01*
X175855692Y-96157086D01*
X175855754Y-96157137D01*
X175856801Y-96158199D01*
X176066800Y-96368198D01*
X176098925Y-96394586D01*
X176130763Y-96421301D01*
X176132833Y-96422439D01*
X176134664Y-96423943D01*
X176171333Y-96443605D01*
X176207724Y-96463611D01*
X176209978Y-96464326D01*
X176212065Y-96465445D01*
X176225000Y-96469400D01*
X176225000Y-97212500D01*
X176312500Y-97300000D01*
X177150000Y-97300000D01*
X177150000Y-97280000D01*
X177250000Y-97280000D01*
X177250000Y-97300000D01*
X178087500Y-97300000D01*
X178175000Y-97212500D01*
X178175000Y-96553130D01*
X179259558Y-96860422D01*
X179175553Y-96839477D01*
X179106689Y-96836169D01*
X179038502Y-96846360D01*
X178973614Y-96869657D01*
X178914517Y-96905166D01*
X178863483Y-96951521D01*
X178822474Y-97006943D01*
X178793065Y-97069299D01*
X178776386Y-97136195D01*
X178491395Y-98279231D01*
X178555128Y-98385300D01*
X179246463Y-98557669D01*
X179251301Y-98538263D01*
X179348331Y-98562456D01*
X179343493Y-98581861D01*
X180034829Y-98754231D01*
X180140898Y-98690498D01*
X180425888Y-97547462D01*
X180442567Y-97480566D01*
X180445875Y-97411702D01*
X180440704Y-97377100D01*
X183050097Y-99986493D01*
X183049146Y-100054654D01*
X183072157Y-100180031D01*
X183119082Y-100298551D01*
X183188135Y-100405700D01*
X183276684Y-100497395D01*
X183381357Y-100570145D01*
X183498167Y-100621178D01*
X183622665Y-100648550D01*
X183750109Y-100651220D01*
X183875644Y-100629085D01*
X183994488Y-100582988D01*
X184102116Y-100514685D01*
X184194428Y-100426778D01*
X184267906Y-100322616D01*
X184319754Y-100206165D01*
X184343874Y-100100000D01*
X185500000Y-100100000D01*
X185555170Y-100094591D01*
X185610371Y-100089761D01*
X185613400Y-100088881D01*
X185616541Y-100088573D01*
X185669638Y-100072542D01*
X185722821Y-100057091D01*
X185725619Y-100055641D01*
X185728642Y-100054728D01*
X185777573Y-100028711D01*
X185826784Y-100003203D01*
X185829252Y-100001233D01*
X185832035Y-99999753D01*
X185874950Y-99964752D01*
X185918300Y-99930146D01*
X185922691Y-99925816D01*
X185922781Y-99925742D01*
X185922850Y-99925658D01*
X185924264Y-99924264D01*
X186333821Y-99514707D01*
X187458879Y-99514707D01*
X187224057Y-100456528D01*
X187287790Y-100562597D01*
X187979125Y-100734966D01*
X188357128Y-99218879D01*
X188328048Y-99170480D01*
X189861028Y-97637500D01*
X190300000Y-97637500D01*
X190300000Y-98034472D01*
X190313450Y-98102091D01*
X190339834Y-98165787D01*
X190378137Y-98223112D01*
X190426888Y-98271863D01*
X190484213Y-98310166D01*
X190547909Y-98336550D01*
X190615528Y-98350000D01*
X191112500Y-98350000D01*
X191200000Y-98262500D01*
X191200000Y-97550000D01*
X190387500Y-97550000D01*
X190300000Y-97637500D01*
X189861028Y-97637500D01*
X190300000Y-97198528D01*
X190300000Y-97362500D01*
X190387500Y-97450000D01*
X191200000Y-97450000D01*
X191200000Y-96737500D01*
X191112500Y-96650000D01*
X190848528Y-96650000D01*
X191146835Y-96351693D01*
X191850000Y-96351693D01*
X191905736Y-96347248D01*
X192000271Y-96317973D01*
X192082906Y-96263520D01*
X192087158Y-96258531D01*
X192152021Y-96287769D01*
X192250000Y-96301693D01*
X192850000Y-96301693D01*
X192905736Y-96297248D01*
X193000271Y-96267973D01*
X193023242Y-96252836D01*
X193034213Y-96260166D01*
X193097909Y-96286550D01*
X193165528Y-96300000D01*
X193362500Y-96300000D01*
X193450000Y-96212500D01*
X193450000Y-95400000D01*
X193430000Y-95400000D01*
X193430000Y-95300000D01*
X193450000Y-95300000D01*
X193450000Y-95280000D01*
X193550000Y-95280000D01*
X193550000Y-95300000D01*
X193570000Y-95300000D01*
X193570000Y-95400000D01*
X193550000Y-95400000D01*
X193550000Y-96212500D01*
X193637500Y-96300000D01*
X193834472Y-96300000D01*
X193902091Y-96286550D01*
X193965787Y-96260166D01*
X193975858Y-96253437D01*
X194052021Y-96287769D01*
X194150000Y-96301693D01*
X194750000Y-96301693D01*
X194805736Y-96297248D01*
X194900271Y-96267973D01*
X194913971Y-96258946D01*
X194926888Y-96271863D01*
X194984213Y-96310166D01*
X195047909Y-96336550D01*
X195115528Y-96350000D01*
X195612500Y-96350000D01*
X195700000Y-96262500D01*
X195700000Y-95550000D01*
X195680000Y-95550000D01*
X195680000Y-95450000D01*
X195700000Y-95450000D01*
X195700000Y-94737500D01*
X195612500Y-94650000D01*
X195115528Y-94650000D01*
X195085397Y-94655993D01*
X195067973Y-94599729D01*
X195013520Y-94517094D01*
X194989204Y-94496370D01*
X196198589Y-94496370D01*
X196352219Y-94650000D01*
X195887500Y-94650000D01*
X195800000Y-94737500D01*
X195800000Y-95450000D01*
X195820000Y-95450000D01*
X195820000Y-95550000D01*
X195800000Y-95550000D01*
X195800000Y-96262500D01*
X195887500Y-96350000D01*
X196051472Y-96350000D01*
X195753165Y-96648307D01*
X195150000Y-96648307D01*
X195094264Y-96652752D01*
X194999729Y-96682027D01*
X194917094Y-96736480D01*
X194912842Y-96741469D01*
X194847979Y-96712231D01*
X194750000Y-96698307D01*
X194150000Y-96698307D01*
X194094264Y-96702752D01*
X193999729Y-96732027D01*
X193917094Y-96786480D01*
X193852900Y-96861800D01*
X193812231Y-96952021D01*
X193798307Y-97050000D01*
X193798307Y-98049779D01*
X193201693Y-97453165D01*
X193201693Y-97050000D01*
X193197248Y-96994264D01*
X193167973Y-96899729D01*
X193113520Y-96817094D01*
X193038200Y-96752900D01*
X192947979Y-96712231D01*
X192850000Y-96698307D01*
X192250000Y-96698307D01*
X192194264Y-96702752D01*
X192099729Y-96732027D01*
X192086029Y-96741054D01*
X192073112Y-96728137D01*
X192015787Y-96689834D01*
X191952091Y-96663450D01*
X191884472Y-96650000D01*
X191387500Y-96650000D01*
X191300000Y-96737500D01*
X191300000Y-97450000D01*
X191320000Y-97450000D01*
X191320000Y-97550000D01*
X191300000Y-97550000D01*
X191300000Y-98262500D01*
X191387500Y-98350000D01*
X191884472Y-98350000D01*
X191914603Y-98344007D01*
X191932027Y-98400271D01*
X191986480Y-98482906D01*
X192061800Y-98547100D01*
X192152021Y-98587769D01*
X192250000Y-98601693D01*
X192653165Y-98601693D01*
X193142888Y-99091416D01*
X193082900Y-99161800D01*
X193042231Y-99252021D01*
X193028307Y-99350000D01*
X193028307Y-100150000D01*
X193032752Y-100205736D01*
X193062027Y-100300271D01*
X193116480Y-100382906D01*
X193191800Y-100447100D01*
X193282021Y-100487769D01*
X193380000Y-100501693D01*
X193633328Y-100501693D01*
X193668133Y-100555700D01*
X193756682Y-100647395D01*
X193861355Y-100720145D01*
X193978165Y-100771178D01*
X194102663Y-100798550D01*
X194230107Y-100801220D01*
X194355642Y-100779085D01*
X194474486Y-100732988D01*
X194582114Y-100664685D01*
X194674426Y-100576778D01*
X194727392Y-100501693D01*
X194733165Y-100501693D01*
X194805736Y-100574264D01*
X194848559Y-100609439D01*
X194891020Y-100645068D01*
X194893784Y-100646587D01*
X194896223Y-100648591D01*
X194945101Y-100674799D01*
X194993635Y-100701481D01*
X194996640Y-100702434D01*
X194999422Y-100703926D01*
X195052440Y-100720135D01*
X195105253Y-100736889D01*
X195108388Y-100737241D01*
X195111405Y-100738163D01*
X195166504Y-100743759D01*
X195221623Y-100749942D01*
X195227795Y-100749985D01*
X195227906Y-100749996D01*
X195228009Y-100749986D01*
X195230000Y-100750000D01*
X195742694Y-100750000D01*
X195719834Y-100784213D01*
X195693450Y-100847909D01*
X195680000Y-100915528D01*
X195680000Y-101212500D01*
X195767500Y-101300000D01*
X196230000Y-101300000D01*
X196230000Y-101280000D01*
X196330000Y-101280000D01*
X196330000Y-101300000D01*
X196350000Y-101300000D01*
X196350000Y-101400000D01*
X196330000Y-101400000D01*
X196330000Y-101420000D01*
X196230000Y-101420000D01*
X196230000Y-101400000D01*
X195767500Y-101400000D01*
X195680000Y-101487500D01*
X195680000Y-101613604D01*
X195498198Y-101431802D01*
X195466095Y-101405432D01*
X195434235Y-101378699D01*
X195432162Y-101377559D01*
X195430333Y-101376057D01*
X195393686Y-101356407D01*
X195357274Y-101336389D01*
X195355020Y-101335674D01*
X195352933Y-101334555D01*
X195329900Y-101327513D01*
X195327248Y-101294264D01*
X195297973Y-101199729D01*
X195243520Y-101117094D01*
X195168200Y-101052900D01*
X195077979Y-101012231D01*
X194980000Y-100998307D01*
X194680000Y-100998307D01*
X194624264Y-101002752D01*
X194529729Y-101032027D01*
X194506758Y-101047164D01*
X194495787Y-101039834D01*
X194432091Y-101013450D01*
X194364472Y-101000000D01*
X194317500Y-101000000D01*
X194230000Y-101087500D01*
X194230000Y-101700000D01*
X194250000Y-101700000D01*
X194250000Y-101800000D01*
X194230000Y-101800000D01*
X194230000Y-101820000D01*
X194130000Y-101820000D01*
X194130000Y-101800000D01*
X194110000Y-101800000D01*
X194110000Y-101700000D01*
X194130000Y-101700000D01*
X194130000Y-101087500D01*
X194042500Y-101000000D01*
X193995528Y-101000000D01*
X193927909Y-101013450D01*
X193864213Y-101039834D01*
X193854142Y-101046563D01*
X193777979Y-101012231D01*
X193680000Y-100998307D01*
X193380000Y-100998307D01*
X193324264Y-101002752D01*
X193229729Y-101032027D01*
X193147094Y-101086480D01*
X193082900Y-101161800D01*
X193042231Y-101252021D01*
X193028307Y-101350000D01*
X193028307Y-102150000D01*
X193032752Y-102205736D01*
X193062027Y-102300271D01*
X193080000Y-102327546D01*
X193080000Y-102350000D01*
X193084053Y-102391339D01*
X193087679Y-102432778D01*
X193088339Y-102435050D01*
X193088570Y-102437405D01*
X193100586Y-102477204D01*
X193107209Y-102500001D01*
X193026395Y-102500001D01*
X192436918Y-101910524D01*
X192436918Y-101832018D01*
X192481346Y-101789710D01*
X192554824Y-101685548D01*
X192606672Y-101569097D01*
X192634913Y-101444793D01*
X192636946Y-101299196D01*
X192612186Y-101174152D01*
X192563611Y-101056299D01*
X192493069Y-100950125D01*
X192403248Y-100859675D01*
X192297570Y-100788394D01*
X192180058Y-100738997D01*
X192055190Y-100713365D01*
X191927722Y-100712475D01*
X191802508Y-100736361D01*
X191684319Y-100784113D01*
X191577655Y-100853911D01*
X191486580Y-100943098D01*
X191414563Y-101048277D01*
X191364346Y-101165441D01*
X191337843Y-101290127D01*
X191336064Y-101417586D01*
X191359075Y-101542963D01*
X191406000Y-101661483D01*
X191475053Y-101768632D01*
X191536918Y-101832695D01*
X191536918Y-102096920D01*
X191540971Y-102138259D01*
X191544597Y-102179698D01*
X191545257Y-102181970D01*
X191545488Y-102184325D01*
X191557504Y-102224124D01*
X191569099Y-102264035D01*
X191570188Y-102266135D01*
X191570872Y-102268402D01*
X191590423Y-102305171D01*
X191609517Y-102342007D01*
X191610989Y-102343851D01*
X191612103Y-102345946D01*
X191638406Y-102378196D01*
X191664308Y-102410644D01*
X191667556Y-102413938D01*
X191667611Y-102414005D01*
X191667673Y-102414056D01*
X191668720Y-102415118D01*
X192521801Y-103268199D01*
X192553904Y-103294569D01*
X192585764Y-103321302D01*
X192587837Y-103322442D01*
X192589666Y-103323944D01*
X192626313Y-103343594D01*
X192662725Y-103363612D01*
X192664979Y-103364327D01*
X192667066Y-103365446D01*
X192706897Y-103377624D01*
X192746439Y-103390167D01*
X192748783Y-103390430D01*
X192751053Y-103391124D01*
X192792473Y-103395331D01*
X192833716Y-103399957D01*
X192838343Y-103399989D01*
X192838428Y-103399998D01*
X192838507Y-103399991D01*
X192839999Y-103400001D01*
X194793604Y-103400000D01*
X196211803Y-104818199D01*
X196243928Y-104844587D01*
X196275766Y-104871302D01*
X196277836Y-104872440D01*
X196279667Y-104873944D01*
X196316336Y-104893606D01*
X196352727Y-104913612D01*
X196354981Y-104914327D01*
X196357068Y-104915446D01*
X196396870Y-104927615D01*
X196436441Y-104940167D01*
X196438788Y-104940430D01*
X196441054Y-104941123D01*
X196482430Y-104945326D01*
X196523718Y-104949957D01*
X196528345Y-104949989D01*
X196528430Y-104949998D01*
X196528509Y-104949991D01*
X196530001Y-104950001D01*
X196966645Y-104950001D01*
X196972157Y-104980031D01*
X197019082Y-105098551D01*
X197088135Y-105205700D01*
X197176684Y-105297395D01*
X197281357Y-105370145D01*
X197398167Y-105421178D01*
X197522665Y-105448550D01*
X197650109Y-105451220D01*
X197775644Y-105429085D01*
X197894488Y-105382988D01*
X198002116Y-105314685D01*
X198094428Y-105226778D01*
X198167906Y-105122616D01*
X198219754Y-105006165D01*
X198247995Y-104881861D01*
X198250028Y-104736264D01*
X198225268Y-104611220D01*
X198176693Y-104493367D01*
X198106151Y-104387193D01*
X198016330Y-104296743D01*
X197910652Y-104225462D01*
X197793140Y-104176065D01*
X197668272Y-104150433D01*
X197579397Y-104149812D01*
X197554236Y-104128700D01*
X197552163Y-104127560D01*
X197550334Y-104126058D01*
X197513687Y-104106408D01*
X197477275Y-104086390D01*
X197475021Y-104085675D01*
X197472934Y-104084556D01*
X197433144Y-104072391D01*
X197393561Y-104059835D01*
X197391212Y-104059572D01*
X197388947Y-104058879D01*
X197347577Y-104054677D01*
X197306284Y-104050045D01*
X197301657Y-104050013D01*
X197301572Y-104050004D01*
X197301493Y-104050011D01*
X197300001Y-104050001D01*
X196716397Y-104050001D01*
X196216396Y-103550000D01*
X197480915Y-103550000D01*
X197526684Y-103597395D01*
X197631357Y-103670145D01*
X197748167Y-103721178D01*
X197872665Y-103748550D01*
X198000109Y-103751220D01*
X198030653Y-103745834D01*
X198032027Y-103750271D01*
X198086480Y-103832906D01*
X198161800Y-103897100D01*
X198252021Y-103937769D01*
X198350000Y-103951693D01*
X198650000Y-103951693D01*
X198705736Y-103947248D01*
X198745638Y-103934892D01*
X198752021Y-103937769D01*
X198850000Y-103951693D01*
X199150000Y-103951693D01*
X199205736Y-103947248D01*
X199245638Y-103934892D01*
X199252021Y-103937769D01*
X199350000Y-103951693D01*
X199650000Y-103951693D01*
X199705736Y-103947248D01*
X199745638Y-103934892D01*
X199752021Y-103937769D01*
X199850000Y-103951693D01*
X200150000Y-103951693D01*
X200205736Y-103947248D01*
X200245638Y-103934892D01*
X200252021Y-103937769D01*
X200350000Y-103951693D01*
X200650000Y-103951693D01*
X200705736Y-103947248D01*
X200745638Y-103934892D01*
X200752021Y-103937769D01*
X200850000Y-103951693D01*
X201150000Y-103951693D01*
X201205736Y-103947248D01*
X201245638Y-103934892D01*
X201252021Y-103937769D01*
X201255407Y-103938250D01*
X201452787Y-104135630D01*
X201367432Y-104220985D01*
X201331164Y-104263540D01*
X201285019Y-104351087D01*
X201265091Y-104448023D01*
X201272958Y-104546674D01*
X201307996Y-104639227D01*
X201367432Y-104718355D01*
X201933117Y-105284040D01*
X201975672Y-105320308D01*
X202063219Y-105366453D01*
X202120126Y-105378152D01*
X202121486Y-105395202D01*
X202156524Y-105487755D01*
X202215960Y-105566883D01*
X202781645Y-106132568D01*
X202824200Y-106168836D01*
X202911747Y-106214981D01*
X203008683Y-106234909D01*
X203091879Y-106228275D01*
X203385233Y-106521629D01*
X203417336Y-106547999D01*
X203449196Y-106574732D01*
X203451269Y-106575872D01*
X203453098Y-106577374D01*
X203489745Y-106597024D01*
X203526157Y-106617042D01*
X203528411Y-106617757D01*
X203530498Y-106618876D01*
X203570329Y-106631054D01*
X203609871Y-106643597D01*
X203612215Y-106643860D01*
X203614485Y-106644554D01*
X203655905Y-106648761D01*
X203697148Y-106653387D01*
X203701775Y-106653419D01*
X203701860Y-106653428D01*
X203701939Y-106653421D01*
X203703431Y-106653431D01*
X204596569Y-106653431D01*
X204637908Y-106649378D01*
X204679347Y-106645752D01*
X204681619Y-106645092D01*
X204683974Y-106644861D01*
X204693207Y-106642073D01*
X204722665Y-106648550D01*
X204850109Y-106651220D01*
X204975644Y-106629085D01*
X205094488Y-106582988D01*
X205202116Y-106514685D01*
X205294428Y-106426778D01*
X205367906Y-106322616D01*
X205419754Y-106206165D01*
X205447995Y-106081861D01*
X205450028Y-105936264D01*
X205425268Y-105811220D01*
X205376693Y-105693367D01*
X205306151Y-105587193D01*
X205216330Y-105496743D01*
X205110652Y-105425462D01*
X205034418Y-105393416D01*
X205036292Y-105384300D01*
X205028425Y-105285649D01*
X205004589Y-105222686D01*
X205026303Y-105234131D01*
X205123239Y-105254059D01*
X205221890Y-105246192D01*
X205314443Y-105211154D01*
X205393571Y-105151718D01*
X205817835Y-104727454D01*
X205854103Y-104684899D01*
X205900248Y-104597352D01*
X205920176Y-104500416D01*
X205912309Y-104401765D01*
X205896721Y-104360589D01*
X205935195Y-104392192D01*
X205977656Y-104427821D01*
X205980420Y-104429340D01*
X205982859Y-104431344D01*
X206031737Y-104457552D01*
X206080271Y-104484234D01*
X206083276Y-104485187D01*
X206086058Y-104486679D01*
X206139076Y-104502888D01*
X206191889Y-104519642D01*
X206195024Y-104519994D01*
X206198041Y-104520916D01*
X206253140Y-104526512D01*
X206308259Y-104532695D01*
X206314431Y-104532738D01*
X206314542Y-104532749D01*
X206314645Y-104532739D01*
X206316636Y-104532753D01*
X206811629Y-104532753D01*
X206866799Y-104527344D01*
X206922000Y-104522514D01*
X206925029Y-104521634D01*
X206928170Y-104521326D01*
X206981267Y-104505295D01*
X207034450Y-104489844D01*
X207037248Y-104488394D01*
X207040271Y-104487481D01*
X207089202Y-104461464D01*
X207138413Y-104435956D01*
X207140881Y-104433986D01*
X207143664Y-104432506D01*
X207186579Y-104397505D01*
X207229929Y-104362899D01*
X207234320Y-104358569D01*
X207234410Y-104358495D01*
X207234479Y-104358411D01*
X207235893Y-104357017D01*
X208336729Y-103256181D01*
X208402116Y-103214685D01*
X208494428Y-103126778D01*
X208567906Y-103022616D01*
X208619754Y-102906165D01*
X208621298Y-102899368D01*
X209343332Y-103621402D01*
X209467076Y-103621402D01*
X209970889Y-103117588D01*
X208866035Y-102012734D01*
X208742291Y-102012734D01*
X208487058Y-102267967D01*
X208416330Y-102196743D01*
X208310652Y-102125462D01*
X208193140Y-102076065D01*
X208068272Y-102050433D01*
X207940804Y-102049543D01*
X207815590Y-102073429D01*
X207697401Y-102121181D01*
X207590737Y-102190979D01*
X207499662Y-102280166D01*
X207459586Y-102338696D01*
X207080591Y-101959701D01*
X206956847Y-101959701D01*
X206594455Y-102322093D01*
X206608597Y-102336235D01*
X206537886Y-102406946D01*
X206523744Y-102392804D01*
X206509602Y-102406946D01*
X206438891Y-102336235D01*
X206453033Y-102322093D01*
X205701732Y-101570792D01*
X205577989Y-101570792D01*
X205438708Y-101710072D01*
X205400405Y-101767397D01*
X205374022Y-101831093D01*
X205360571Y-101898712D01*
X205360571Y-101967656D01*
X205374022Y-102035276D01*
X205389280Y-102072114D01*
X205369534Y-102061706D01*
X205272598Y-102041778D01*
X205173947Y-102049645D01*
X205081394Y-102084683D01*
X205002266Y-102144119D01*
X204578002Y-102568383D01*
X204541734Y-102610938D01*
X204515418Y-102660866D01*
X204507070Y-102632133D01*
X204505981Y-102630032D01*
X204505297Y-102627767D01*
X204485767Y-102591037D01*
X204466652Y-102554161D01*
X204465178Y-102552315D01*
X204464066Y-102550223D01*
X204437781Y-102517995D01*
X204411861Y-102485525D01*
X204408613Y-102482231D01*
X204408558Y-102482164D01*
X204408496Y-102482113D01*
X204407449Y-102481051D01*
X203903602Y-101977204D01*
X204002116Y-101914685D01*
X204094428Y-101826778D01*
X204167906Y-101722616D01*
X204219754Y-101606165D01*
X204247995Y-101481861D01*
X204249318Y-101387078D01*
X204284703Y-101351693D01*
X204500000Y-101351693D01*
X204555736Y-101347248D01*
X204650271Y-101317973D01*
X204698416Y-101286247D01*
X204734213Y-101310166D01*
X204797909Y-101336550D01*
X204865528Y-101350000D01*
X205162500Y-101350000D01*
X205250000Y-101262500D01*
X205250000Y-100800000D01*
X205350000Y-100800000D01*
X205350000Y-101262500D01*
X205437500Y-101350000D01*
X205734472Y-101350000D01*
X205802091Y-101336550D01*
X205819401Y-101329380D01*
X205772443Y-101376338D01*
X205772443Y-101500081D01*
X206523744Y-102251382D01*
X206886136Y-101888990D01*
X206886136Y-101818279D01*
X208936746Y-101818279D01*
X208936746Y-101942023D01*
X210041600Y-103046877D01*
X210545414Y-102543064D01*
X210545414Y-102419320D01*
X209712422Y-101586328D01*
X209663671Y-101537578D01*
X209606347Y-101499274D01*
X209542651Y-101472891D01*
X209475031Y-101459440D01*
X209406087Y-101459440D01*
X209338468Y-101472891D01*
X209274772Y-101499274D01*
X209217447Y-101537578D01*
X208936746Y-101818279D01*
X206886136Y-101818279D01*
X206886136Y-101765246D01*
X206357947Y-101237057D01*
X206300623Y-101198754D01*
X206236927Y-101172371D01*
X206169307Y-101158920D01*
X206100363Y-101158920D01*
X206032744Y-101172371D01*
X205995444Y-101187821D01*
X206010166Y-101165787D01*
X206036550Y-101102091D01*
X206050000Y-101034472D01*
X206050000Y-100887500D01*
X205962500Y-100800000D01*
X205350000Y-100800000D01*
X205250000Y-100800000D01*
X205230000Y-100800000D01*
X205230000Y-100700000D01*
X205250000Y-100700000D01*
X205250000Y-100680000D01*
X205350000Y-100680000D01*
X205350000Y-100700000D01*
X205962500Y-100700000D01*
X206050000Y-100612500D01*
X206050000Y-100465528D01*
X206042449Y-100427563D01*
X206113188Y-100442106D01*
X206211839Y-100434239D01*
X206304392Y-100399201D01*
X206383520Y-100339765D01*
X207065308Y-99657977D01*
X208936746Y-99657977D01*
X208936746Y-99781721D01*
X209217447Y-100062422D01*
X209274772Y-100100726D01*
X209338468Y-100127109D01*
X209406087Y-100140560D01*
X209475031Y-100140560D01*
X209542651Y-100127109D01*
X209606347Y-100100726D01*
X209663671Y-100062422D01*
X209712422Y-100013672D01*
X210545414Y-99180680D01*
X210545414Y-99056936D01*
X210041600Y-98553123D01*
X208936746Y-99657977D01*
X207065308Y-99657977D01*
X207460487Y-99262798D01*
X207488135Y-99305700D01*
X207576684Y-99397395D01*
X207681357Y-99470145D01*
X207798167Y-99521178D01*
X207922665Y-99548550D01*
X208050109Y-99551220D01*
X208175644Y-99529085D01*
X208294488Y-99482988D01*
X208402116Y-99414685D01*
X208487961Y-99332936D01*
X208742291Y-99587266D01*
X208866035Y-99587266D01*
X209970889Y-98482412D01*
X209467076Y-97978598D01*
X209343332Y-97978598D01*
X208621019Y-98700911D01*
X208576693Y-98593367D01*
X208506151Y-98487193D01*
X208416330Y-98396743D01*
X208334370Y-98341460D01*
X206084141Y-96091231D01*
X206099754Y-96056165D01*
X206127995Y-95931861D01*
X206130028Y-95786264D01*
X206105268Y-95661220D01*
X206056693Y-95543367D01*
X205986151Y-95437193D01*
X205896330Y-95346743D01*
X205790652Y-95275462D01*
X205673140Y-95226065D01*
X205548272Y-95200433D01*
X205420804Y-95199543D01*
X205295590Y-95223429D01*
X205177401Y-95271181D01*
X205070737Y-95340979D01*
X204979662Y-95430166D01*
X204907645Y-95535345D01*
X204857428Y-95652509D01*
X204830925Y-95777195D01*
X204829399Y-95886506D01*
X204817848Y-95874955D01*
X204694105Y-95874955D01*
X203942804Y-96626256D01*
X203956946Y-96640398D01*
X203886235Y-96711109D01*
X203872093Y-96696967D01*
X203220361Y-97348699D01*
X203173484Y-97348699D01*
X202846447Y-97675736D01*
X202860589Y-97689878D01*
X202789878Y-97760589D01*
X202775736Y-97746447D01*
X202448699Y-98073484D01*
X202448699Y-98197227D01*
X202632538Y-98381066D01*
X202265297Y-98748307D01*
X202001693Y-98748307D01*
X202001693Y-97900000D01*
X201997248Y-97844264D01*
X201993234Y-97831304D01*
X202046674Y-97827042D01*
X202069770Y-97818298D01*
X202254245Y-98002773D01*
X202377988Y-98002773D01*
X202705025Y-97675736D01*
X202690883Y-97661594D01*
X202761594Y-97590883D01*
X202775736Y-97605025D01*
X203003204Y-97377557D01*
X203050081Y-97377557D01*
X203801382Y-96626256D01*
X203787240Y-96612114D01*
X203857951Y-96541403D01*
X203872093Y-96555545D01*
X204623394Y-95804244D01*
X204623394Y-95680501D01*
X204484114Y-95541220D01*
X204481263Y-95539315D01*
X204494428Y-95526778D01*
X204567906Y-95422616D01*
X204619754Y-95306165D01*
X204647995Y-95181861D01*
X204650028Y-95036264D01*
X204625268Y-94911220D01*
X204576693Y-94793367D01*
X204506151Y-94687193D01*
X204416330Y-94596743D01*
X204395427Y-94582643D01*
X205171402Y-93806668D01*
X205171402Y-93682924D01*
X204667588Y-93179111D01*
X203562734Y-94283965D01*
X203562734Y-94407709D01*
X203684589Y-94529564D01*
X203590737Y-94590979D01*
X203499662Y-94680166D01*
X203427645Y-94785345D01*
X203377428Y-94902509D01*
X203350925Y-95027195D01*
X203349715Y-95113889D01*
X203090578Y-95373026D01*
X203051977Y-95365091D01*
X202953326Y-95372958D01*
X202885358Y-95398689D01*
X202941609Y-95318948D01*
X203073221Y-95023341D01*
X203144910Y-94707800D01*
X203150071Y-94338209D01*
X203087220Y-94020790D01*
X202963913Y-93721624D01*
X202932916Y-93674969D01*
X203009440Y-93674969D01*
X203009440Y-93743913D01*
X203022891Y-93811532D01*
X203049274Y-93875228D01*
X203087578Y-93932553D01*
X203368279Y-94213254D01*
X203492023Y-94213254D01*
X204596877Y-93108400D01*
X204093064Y-92604586D01*
X203969320Y-92604586D01*
X203136328Y-93437578D01*
X203087578Y-93486329D01*
X203049274Y-93543653D01*
X203022891Y-93607349D01*
X203009440Y-93674969D01*
X202932916Y-93674969D01*
X202784846Y-93452106D01*
X202556839Y-93222501D01*
X202288577Y-93041557D01*
X201990279Y-92916164D01*
X201673307Y-92851099D01*
X201349733Y-92848840D01*
X201031882Y-92909473D01*
X200731863Y-93030689D01*
X200461101Y-93207870D01*
X200229911Y-93434268D01*
X200047098Y-93701260D01*
X199919625Y-93998676D01*
X199852349Y-94315186D01*
X199847831Y-94638737D01*
X199906243Y-94957002D01*
X200025362Y-95257861D01*
X200200649Y-95529853D01*
X200425428Y-95762618D01*
X200691136Y-95947291D01*
X200987655Y-96076836D01*
X201303688Y-96146321D01*
X201627199Y-96153098D01*
X201945865Y-96096908D01*
X202247548Y-95979893D01*
X202306763Y-95942314D01*
X202215960Y-96033117D01*
X202179692Y-96075672D01*
X202133547Y-96163219D01*
X202121848Y-96220126D01*
X202104798Y-96221486D01*
X202012245Y-96256524D01*
X201933117Y-96315960D01*
X201367432Y-96881645D01*
X201331164Y-96924200D01*
X201285019Y-97011747D01*
X201265091Y-97108683D01*
X201271725Y-97191879D01*
X201181802Y-97281802D01*
X201155432Y-97313905D01*
X201128699Y-97345765D01*
X201127559Y-97347838D01*
X201126057Y-97349667D01*
X201106407Y-97386314D01*
X201086389Y-97422726D01*
X201085674Y-97424980D01*
X201084555Y-97427067D01*
X201072390Y-97466857D01*
X201059834Y-97506440D01*
X201059571Y-97508789D01*
X201058878Y-97511054D01*
X201055094Y-97548307D01*
X200850000Y-97548307D01*
X200794264Y-97552752D01*
X200754362Y-97565108D01*
X200747979Y-97562231D01*
X200650000Y-97548307D01*
X200350000Y-97548307D01*
X200294264Y-97552752D01*
X200254362Y-97565108D01*
X200247979Y-97562231D01*
X200150000Y-97548307D01*
X199850000Y-97548307D01*
X199794264Y-97552752D01*
X199754362Y-97565108D01*
X199747979Y-97562231D01*
X199650000Y-97548307D01*
X199350000Y-97548307D01*
X199294264Y-97552752D01*
X199254362Y-97565108D01*
X199247979Y-97562231D01*
X199150000Y-97548307D01*
X198950000Y-97548307D01*
X198950000Y-95584677D01*
X198945947Y-95543338D01*
X198942321Y-95501899D01*
X198941661Y-95499627D01*
X198941430Y-95497272D01*
X198929414Y-95457473D01*
X198917819Y-95417562D01*
X198916730Y-95415462D01*
X198916046Y-95413195D01*
X198896516Y-95376465D01*
X198877402Y-95339590D01*
X198875927Y-95337742D01*
X198874815Y-95335651D01*
X198848534Y-95303428D01*
X198822610Y-95270953D01*
X198819362Y-95267659D01*
X198819307Y-95267592D01*
X198819245Y-95267541D01*
X198818198Y-95266479D01*
X198503291Y-94951572D01*
X198548167Y-94971178D01*
X198672665Y-94998550D01*
X198800109Y-95001220D01*
X198925644Y-94979085D01*
X199044488Y-94932988D01*
X199152116Y-94864685D01*
X199244428Y-94776778D01*
X199317906Y-94672616D01*
X199369754Y-94556165D01*
X199397995Y-94431861D01*
X199400028Y-94286264D01*
X199375268Y-94161220D01*
X199326693Y-94043367D01*
X199256151Y-93937193D01*
X199166330Y-93846743D01*
X199060652Y-93775462D01*
X198997403Y-93748875D01*
X196683684Y-91435156D01*
X196640861Y-91399981D01*
X196598400Y-91364352D01*
X196595636Y-91362833D01*
X196593197Y-91360829D01*
X196544319Y-91334621D01*
X196495785Y-91307939D01*
X196492780Y-91306986D01*
X196489998Y-91305494D01*
X196436980Y-91289285D01*
X196384167Y-91272531D01*
X196381032Y-91272179D01*
X196378015Y-91271257D01*
X196322916Y-91265661D01*
X196267797Y-91259478D01*
X196261625Y-91259435D01*
X196261514Y-91259424D01*
X196261411Y-91259434D01*
X196259420Y-91259420D01*
X186240580Y-91259420D01*
X186185451Y-91264825D01*
X186130209Y-91269659D01*
X186127180Y-91270539D01*
X186124039Y-91270847D01*
X186070975Y-91286868D01*
X186017760Y-91302328D01*
X186014959Y-91303780D01*
X186011938Y-91304692D01*
X185963004Y-91330711D01*
X185913797Y-91356217D01*
X185911331Y-91358186D01*
X185908545Y-91359667D01*
X185865614Y-91394681D01*
X185822281Y-91429273D01*
X185817889Y-91433604D01*
X185817799Y-91433678D01*
X185817730Y-91433762D01*
X185816316Y-91435156D01*
X185451472Y-91800000D01*
X179125000Y-91800000D01*
X179069830Y-91805409D01*
X179014629Y-91810239D01*
X179011600Y-91811119D01*
X179008459Y-91811427D01*
X178955362Y-91827458D01*
X178902179Y-91842909D01*
X178899381Y-91844359D01*
X178896358Y-91845272D01*
X178847388Y-91871310D01*
X178798216Y-91896798D01*
X178795751Y-91898765D01*
X178792965Y-91900247D01*
X178750022Y-91935270D01*
X178706700Y-91969854D01*
X178702309Y-91974184D01*
X178702219Y-91974258D01*
X178702150Y-91974342D01*
X178700736Y-91975736D01*
X177178165Y-93498307D01*
X176809703Y-93498307D01*
X176343186Y-93031790D01*
X176311083Y-93005420D01*
X176279223Y-92978687D01*
X176277150Y-92977547D01*
X176275321Y-92976045D01*
X176238674Y-92956395D01*
X176202262Y-92936377D01*
X176200008Y-92935662D01*
X176197921Y-92934543D01*
X176158131Y-92922378D01*
X176118548Y-92909822D01*
X176116199Y-92909559D01*
X176113934Y-92908866D01*
X176072564Y-92904664D01*
X176031271Y-92900032D01*
X176026644Y-92900000D01*
X176026559Y-92899991D01*
X176026480Y-92899998D01*
X176024988Y-92899988D01*
X173050012Y-92899988D01*
X173008673Y-92904041D01*
X172967234Y-92907667D01*
X172964962Y-92908327D01*
X172962607Y-92908558D01*
X172922808Y-92920574D01*
X172882897Y-92932169D01*
X172880797Y-92933258D01*
X172878530Y-92933942D01*
X172841761Y-92953493D01*
X172804925Y-92972587D01*
X172803081Y-92974059D01*
X172800986Y-92975173D01*
X172768736Y-93001476D01*
X172736288Y-93027378D01*
X172732994Y-93030626D01*
X172732927Y-93030681D01*
X172732876Y-93030743D01*
X172731814Y-93031790D01*
X171613604Y-94150000D01*
X168200000Y-94150000D01*
X168158661Y-94154053D01*
X168117222Y-94157679D01*
X168114950Y-94158339D01*
X168112595Y-94158570D01*
X168072796Y-94170586D01*
X168032885Y-94182181D01*
X168030785Y-94183270D01*
X168028518Y-94183954D01*
X167991749Y-94203505D01*
X167954913Y-94222599D01*
X167953069Y-94224071D01*
X167950974Y-94225185D01*
X167918724Y-94251488D01*
X167886276Y-94277390D01*
X167882982Y-94280638D01*
X167882915Y-94280693D01*
X167882864Y-94280755D01*
X167881802Y-94281802D01*
X167381802Y-94781802D01*
X167355432Y-94813905D01*
X167328699Y-94845765D01*
X167327559Y-94847838D01*
X167326057Y-94849667D01*
X167306407Y-94886314D01*
X167286389Y-94922726D01*
X167285674Y-94924980D01*
X167284555Y-94927067D01*
X167272390Y-94966857D01*
X167259834Y-95006440D01*
X167259571Y-95008789D01*
X167258878Y-95011054D01*
X167254676Y-95052424D01*
X167250044Y-95093717D01*
X167250012Y-95098344D01*
X167250003Y-95098429D01*
X167250010Y-95098508D01*
X167250000Y-95100000D01*
X165183489Y-95100000D01*
X165183490Y-94905948D01*
X165183490Y-94688377D01*
X165183489Y-94470811D01*
X165183490Y-94261111D01*
X165184568Y-94233661D01*
X165187177Y-94210941D01*
X165191892Y-94186384D01*
X165198899Y-94160669D01*
X165208331Y-94134388D01*
X165220362Y-94107832D01*
X165235148Y-94081308D01*
X165252918Y-94055014D01*
X165274079Y-94028962D01*
X165299169Y-94003172D01*
X165328901Y-93977669D01*
X165364141Y-93952561D01*
X165405829Y-93928114D01*
X165454977Y-93904736D01*
X165512508Y-93883034D01*
X165586112Y-93861772D01*
X166316823Y-93681788D01*
X167044350Y-93505625D01*
X167763333Y-93334653D01*
X168472771Y-93169157D01*
X169174011Y-93008851D01*
X169866292Y-92853955D01*
X170550811Y-92704232D01*
X171227286Y-92559780D01*
X171896370Y-92420494D01*
X172557832Y-92286449D01*
X173212478Y-92157519D01*
X173860301Y-92033726D01*
X174501552Y-91915053D01*
X175136785Y-91801422D01*
X175766000Y-91692859D01*
X176389673Y-91589298D01*
X177007850Y-91490755D01*
X177620974Y-91397175D01*
X178229316Y-91308532D01*
X178833171Y-91224800D01*
X179432613Y-91145982D01*
X180028318Y-91071992D01*
X180620359Y-91002837D01*
X181208863Y-90938504D01*
X181794283Y-90878951D01*
X182376904Y-90824147D01*
X182957064Y-90774065D01*
X183534834Y-90728694D01*
X184110580Y-90687998D01*
X184684830Y-90651942D01*
X185257499Y-90620519D01*
X185829136Y-90593685D01*
X186399849Y-90571430D01*
X186970004Y-90553720D01*
X187540016Y-90540526D01*
X188109808Y-90531828D01*
X188680060Y-90527589D01*
X189250813Y-90527810D01*
G36*
X190312231Y-94902021D02*
X190298307Y-95000000D01*
X190298307Y-95503165D01*
X187486765Y-98314707D01*
X187242766Y-98314707D01*
X187246212Y-98300885D01*
X187410242Y-97642997D01*
X187346509Y-97536928D01*
X186849233Y-97412943D01*
X186844395Y-97432349D01*
X186747365Y-97408156D01*
X186752203Y-97388751D01*
X186732797Y-97383913D01*
X186749751Y-97315913D01*
X186873425Y-97315913D01*
X187370701Y-97439898D01*
X187476770Y-97376166D01*
X187640800Y-96718278D01*
X187657479Y-96651382D01*
X187660787Y-96582518D01*
X187650597Y-96514331D01*
X187627300Y-96449442D01*
X187591791Y-96390345D01*
X187545435Y-96339312D01*
X187490014Y-96298302D01*
X187427657Y-96268893D01*
X187236536Y-96221241D01*
X187130467Y-96284974D01*
X186873425Y-97315913D01*
X186749751Y-97315913D01*
X186756990Y-97286883D01*
X186776395Y-97291721D01*
X187033437Y-96260782D01*
X186969705Y-96154713D01*
X186778584Y-96107061D01*
X186709719Y-96103753D01*
X186641532Y-96113944D01*
X186576644Y-96137241D01*
X186517547Y-96172750D01*
X186466514Y-96219106D01*
X186442797Y-96251158D01*
X186441548Y-96228872D01*
X186408704Y-96135517D01*
X186351152Y-96055009D01*
X186273450Y-95993721D01*
X186181749Y-95956508D01*
X185887784Y-95883214D01*
X186870998Y-94900000D01*
X190313142Y-94900000D01*
X190312231Y-94902021D01*
X190312231Y-94902021D01*
G37*
X190312231Y-94902021D02*
X190298307Y-95000000D01*
X190298307Y-95503165D01*
X187486765Y-98314707D01*
X187242766Y-98314707D01*
X187246212Y-98300885D01*
X187410242Y-97642997D01*
X187346509Y-97536928D01*
X186849233Y-97412943D01*
X186844395Y-97432349D01*
X186747365Y-97408156D01*
X186752203Y-97388751D01*
X186732797Y-97383913D01*
X186749751Y-97315913D01*
X186873425Y-97315913D01*
X187370701Y-97439898D01*
X187476770Y-97376166D01*
X187640800Y-96718278D01*
X187657479Y-96651382D01*
X187660787Y-96582518D01*
X187650597Y-96514331D01*
X187627300Y-96449442D01*
X187591791Y-96390345D01*
X187545435Y-96339312D01*
X187490014Y-96298302D01*
X187427657Y-96268893D01*
X187236536Y-96221241D01*
X187130467Y-96284974D01*
X186873425Y-97315913D01*
X186749751Y-97315913D01*
X186756990Y-97286883D01*
X186776395Y-97291721D01*
X187033437Y-96260782D01*
X186969705Y-96154713D01*
X186778584Y-96107061D01*
X186709719Y-96103753D01*
X186641532Y-96113944D01*
X186576644Y-96137241D01*
X186517547Y-96172750D01*
X186466514Y-96219106D01*
X186442797Y-96251158D01*
X186441548Y-96228872D01*
X186408704Y-96135517D01*
X186351152Y-96055009D01*
X186273450Y-95993721D01*
X186181749Y-95956508D01*
X185887784Y-95883214D01*
X186870998Y-94900000D01*
X190313142Y-94900000D01*
X190312231Y-94902021D01*
M02*
