G04 #@! TF.FileFunction,Other,Fab,Bot*
%FSLAX46Y46*%
G04 Gerber Fmt 4.6, Leading zero omitted, Abs format (unit mm)*
G04 Created by KiCad (PCBNEW 4.0.7-e2-6376~58~ubuntu14.04.1) date Mon Aug  6 18:39:45 2018*
%MOMM*%
%LPD*%
G01*
G04 APERTURE LIST*
%ADD10C,0.100000*%
%ADD11C,0.150000*%
G04 APERTURE END LIST*
D10*
X173000000Y-95600000D02*
X173000000Y-96400000D01*
X174600000Y-95600000D02*
X173000000Y-95600000D01*
X174600000Y-96400000D02*
X174600000Y-95600000D01*
X173000000Y-96400000D02*
X174600000Y-96400000D01*
X191650000Y-95700000D02*
X190850000Y-95700000D01*
X191650000Y-97300000D02*
X191650000Y-95700000D01*
X190850000Y-97300000D02*
X191650000Y-97300000D01*
X190850000Y-95700000D02*
X190850000Y-97300000D01*
X195350000Y-97300000D02*
X196150000Y-97300000D01*
X195350000Y-95700000D02*
X195350000Y-97300000D01*
X196150000Y-95700000D02*
X195350000Y-95700000D01*
X196150000Y-97300000D02*
X196150000Y-95700000D01*
X178000000Y-94450000D02*
X176400000Y-94450000D01*
X178000000Y-97650000D02*
X178000000Y-94450000D01*
X176400000Y-97650000D02*
X178000000Y-97650000D01*
X176400000Y-94450000D02*
X176400000Y-97650000D01*
D11*
X202676777Y-105530330D02*
X203030330Y-105176777D01*
X201969670Y-104823223D02*
X202676777Y-105530330D01*
X202323223Y-104469670D02*
X201969670Y-104823223D01*
X203030330Y-105176777D02*
X202323223Y-104469670D01*
X203376777Y-98630330D02*
X203730330Y-98276777D01*
X202669670Y-97923223D02*
X203376777Y-98630330D01*
X203023223Y-97569670D02*
X202669670Y-97923223D01*
X203730330Y-98276777D02*
X203023223Y-97569670D01*
X203030330Y-96423223D02*
X202676777Y-96069670D01*
X202323223Y-97130330D02*
X203030330Y-96423223D01*
X201969670Y-96776777D02*
X202323223Y-97130330D01*
X202676777Y-96069670D02*
X201969670Y-96776777D01*
X173300000Y-94050000D02*
X173300000Y-94550000D01*
X174300000Y-94050000D02*
X173300000Y-94050000D01*
X174300000Y-94550000D02*
X174300000Y-94050000D01*
X173300000Y-94550000D02*
X174300000Y-94550000D01*
X196530000Y-100250000D02*
X196030000Y-100250000D01*
X196530000Y-101250000D02*
X196530000Y-100250000D01*
X196030000Y-101250000D02*
X196530000Y-101250000D01*
X196030000Y-100250000D02*
X196030000Y-101250000D01*
X173300000Y-97350000D02*
X173300000Y-97850000D01*
X174300000Y-97350000D02*
X173300000Y-97350000D01*
X174300000Y-97850000D02*
X174300000Y-97350000D01*
X173300000Y-97850000D02*
X174300000Y-97850000D01*
X204200000Y-100500000D02*
X204200000Y-101000000D01*
X205200000Y-100500000D02*
X204200000Y-100500000D01*
X205200000Y-101000000D02*
X205200000Y-100500000D01*
X204200000Y-101000000D02*
X205200000Y-101000000D01*
X207097005Y-106186769D02*
X207804112Y-105479662D01*
X207534738Y-105210287D01*
X207433722Y-105176616D01*
X207366379Y-105176616D01*
X207265364Y-105210287D01*
X207164349Y-105311303D01*
X207130677Y-105412318D01*
X207130677Y-105479661D01*
X207164349Y-105580676D01*
X207433723Y-105850051D01*
X207063334Y-104873570D02*
X207063334Y-104806227D01*
X207029662Y-104705212D01*
X206861303Y-104536852D01*
X206760287Y-104503181D01*
X206692944Y-104503181D01*
X206591929Y-104536852D01*
X206524585Y-104604196D01*
X206457242Y-104738883D01*
X206457242Y-105547005D01*
X206019509Y-105109272D01*
X200761905Y-100202381D02*
X200761905Y-101011905D01*
X200714286Y-101107143D01*
X200666667Y-101154762D01*
X200571429Y-101202381D01*
X200380952Y-101202381D01*
X200285714Y-101154762D01*
X200238095Y-101107143D01*
X200190476Y-101011905D01*
X200190476Y-100202381D01*
X199761905Y-100297619D02*
X199714286Y-100250000D01*
X199619048Y-100202381D01*
X199380952Y-100202381D01*
X199285714Y-100250000D01*
X199238095Y-100297619D01*
X199190476Y-100392857D01*
X199190476Y-100488095D01*
X199238095Y-100630952D01*
X199809524Y-101202381D01*
X199190476Y-101202381D01*
X207736769Y-96052995D02*
X207029662Y-95345888D01*
X206760287Y-95615262D01*
X206726616Y-95716278D01*
X206726616Y-95783621D01*
X206760287Y-95884636D01*
X206861303Y-95985651D01*
X206962318Y-96019323D01*
X207029661Y-96019323D01*
X207130676Y-95985651D01*
X207400051Y-95716277D01*
X206659272Y-97130491D02*
X207063334Y-96726430D01*
X206861303Y-96928460D02*
X206154197Y-96221353D01*
X206322555Y-96255025D01*
X206457242Y-96255025D01*
X206558257Y-96221353D01*
X184375583Y-98663566D02*
X183405287Y-98421645D01*
X183313126Y-98791282D01*
X183336290Y-98895211D01*
X183370975Y-98952935D01*
X183451864Y-99022180D01*
X183590477Y-99056740D01*
X183694406Y-99033576D01*
X183752131Y-98998891D01*
X183821376Y-98918002D01*
X183913537Y-98548365D01*
X183186405Y-99299531D02*
X183036644Y-99900191D01*
X183486921Y-99668919D01*
X183452360Y-99807533D01*
X183475525Y-99911463D01*
X183510209Y-99969187D01*
X183591099Y-100038432D01*
X183822122Y-100096032D01*
X183926051Y-100072868D01*
X183983775Y-100038184D01*
X184053020Y-99957295D01*
X184122141Y-99680067D01*
X184098976Y-99576138D01*
X184064292Y-99518413D01*
X172146666Y-96407143D02*
X172194285Y-96454762D01*
X172337142Y-96502381D01*
X172432380Y-96502381D01*
X172575238Y-96454762D01*
X172670476Y-96359524D01*
X172718095Y-96264286D01*
X172765714Y-96073810D01*
X172765714Y-95930952D01*
X172718095Y-95740476D01*
X172670476Y-95645238D01*
X172575238Y-95550000D01*
X172432380Y-95502381D01*
X172337142Y-95502381D01*
X172194285Y-95550000D01*
X172146666Y-95597619D01*
X171813333Y-95502381D02*
X171194285Y-95502381D01*
X171527619Y-95883333D01*
X171384761Y-95883333D01*
X171289523Y-95930952D01*
X171241904Y-95978571D01*
X171194285Y-96073810D01*
X171194285Y-96311905D01*
X171241904Y-96407143D01*
X171289523Y-96454762D01*
X171384761Y-96502381D01*
X171670476Y-96502381D01*
X171765714Y-96454762D01*
X171813333Y-96407143D01*
X190357143Y-96333334D02*
X190404762Y-96285715D01*
X190452381Y-96142858D01*
X190452381Y-96047620D01*
X190404762Y-95904762D01*
X190309524Y-95809524D01*
X190214286Y-95761905D01*
X190023810Y-95714286D01*
X189880952Y-95714286D01*
X189690476Y-95761905D01*
X189595238Y-95809524D01*
X189500000Y-95904762D01*
X189452381Y-96047620D01*
X189452381Y-96142858D01*
X189500000Y-96285715D01*
X189547619Y-96333334D01*
X189785714Y-97190477D02*
X190452381Y-97190477D01*
X189404762Y-96952381D02*
X190119048Y-96714286D01*
X190119048Y-97333334D01*
X197357143Y-96333334D02*
X197404762Y-96285715D01*
X197452381Y-96142858D01*
X197452381Y-96047620D01*
X197404762Y-95904762D01*
X197309524Y-95809524D01*
X197214286Y-95761905D01*
X197023810Y-95714286D01*
X196880952Y-95714286D01*
X196690476Y-95761905D01*
X196595238Y-95809524D01*
X196500000Y-95904762D01*
X196452381Y-96047620D01*
X196452381Y-96142858D01*
X196500000Y-96285715D01*
X196547619Y-96333334D01*
X196452381Y-97238096D02*
X196452381Y-96761905D01*
X196928571Y-96714286D01*
X196880952Y-96761905D01*
X196833333Y-96857143D01*
X196833333Y-97095239D01*
X196880952Y-97190477D01*
X196928571Y-97238096D01*
X197023810Y-97285715D01*
X197261905Y-97285715D01*
X197357143Y-97238096D01*
X197404762Y-97190477D01*
X197452381Y-97095239D01*
X197452381Y-96857143D01*
X197404762Y-96761905D01*
X197357143Y-96714286D01*
X177537143Y-95883334D02*
X177584762Y-95835715D01*
X177632381Y-95692858D01*
X177632381Y-95597620D01*
X177584762Y-95454762D01*
X177489524Y-95359524D01*
X177394286Y-95311905D01*
X177203810Y-95264286D01*
X177060952Y-95264286D01*
X176870476Y-95311905D01*
X176775238Y-95359524D01*
X176680000Y-95454762D01*
X176632381Y-95597620D01*
X176632381Y-95692858D01*
X176680000Y-95835715D01*
X176727619Y-95883334D01*
X176632381Y-96216667D02*
X176632381Y-96883334D01*
X177632381Y-96454762D01*
X201577969Y-106187732D02*
X202150390Y-106086717D01*
X201982030Y-106591794D02*
X202689137Y-105884687D01*
X202419763Y-105615312D01*
X202318747Y-105581641D01*
X202251404Y-105581641D01*
X202150389Y-105615312D01*
X202049374Y-105716328D01*
X202015702Y-105817343D01*
X202015702Y-105884686D01*
X202049374Y-105985701D01*
X202318748Y-106255076D01*
X202049374Y-105244924D02*
X201611641Y-104807190D01*
X201577970Y-105312267D01*
X201476954Y-105211251D01*
X201375939Y-105177579D01*
X201308595Y-105177579D01*
X201207579Y-105211252D01*
X201039221Y-105379610D01*
X201005549Y-105480626D01*
X201005549Y-105547969D01*
X201039221Y-105648984D01*
X201241252Y-105851015D01*
X201342267Y-105884687D01*
X201409610Y-105884687D01*
X203677969Y-97887732D02*
X204250390Y-97786717D01*
X204082030Y-98291794D02*
X204789137Y-97584687D01*
X204519763Y-97315312D01*
X204418747Y-97281641D01*
X204351404Y-97281641D01*
X204250389Y-97315312D01*
X204149374Y-97416328D01*
X204115702Y-97517343D01*
X204115702Y-97584686D01*
X204149374Y-97685701D01*
X204418748Y-97955076D01*
X203543282Y-96810236D02*
X203071877Y-97281641D01*
X203981015Y-96709222D02*
X203644297Y-97382657D01*
X203206564Y-96944924D01*
X202217732Y-96152031D02*
X202116717Y-95579610D01*
X202621794Y-95747970D02*
X201914687Y-95040863D01*
X201645312Y-95310237D01*
X201611641Y-95411253D01*
X201611641Y-95478596D01*
X201645312Y-95579611D01*
X201746328Y-95680626D01*
X201847343Y-95714298D01*
X201914686Y-95714298D01*
X202015701Y-95680626D01*
X202285076Y-95411252D01*
X201308595Y-95781641D02*
X201241252Y-95781641D01*
X201140237Y-95815313D01*
X200971877Y-95983672D01*
X200938206Y-96084688D01*
X200938206Y-96152031D01*
X200971877Y-96253046D01*
X201039221Y-96320390D01*
X201173908Y-96387733D01*
X201982030Y-96387733D01*
X201544297Y-96825466D01*
X174046666Y-93802381D02*
X174380000Y-93326190D01*
X174618095Y-93802381D02*
X174618095Y-92802381D01*
X174237142Y-92802381D01*
X174141904Y-92850000D01*
X174094285Y-92897619D01*
X174046666Y-92992857D01*
X174046666Y-93135714D01*
X174094285Y-93230952D01*
X174141904Y-93278571D01*
X174237142Y-93326190D01*
X174618095Y-93326190D01*
X173094285Y-93802381D02*
X173665714Y-93802381D01*
X173380000Y-93802381D02*
X173380000Y-92802381D01*
X173475238Y-92945238D01*
X173570476Y-93040476D01*
X173665714Y-93088095D01*
X194261905Y-95952381D02*
X194261905Y-96761905D01*
X194214286Y-96857143D01*
X194166667Y-96904762D01*
X194071429Y-96952381D01*
X193880952Y-96952381D01*
X193785714Y-96904762D01*
X193738095Y-96857143D01*
X193690476Y-96761905D01*
X193690476Y-95952381D01*
X193309524Y-95952381D02*
X192690476Y-95952381D01*
X193023810Y-96333333D01*
X192880952Y-96333333D01*
X192785714Y-96380952D01*
X192738095Y-96428571D01*
X192690476Y-96523810D01*
X192690476Y-96761905D01*
X192738095Y-96857143D01*
X192785714Y-96904762D01*
X192880952Y-96952381D01*
X193166667Y-96952381D01*
X193261905Y-96904762D01*
X193309524Y-96857143D01*
X196637143Y-102183334D02*
X196684762Y-102135715D01*
X196732381Y-101992858D01*
X196732381Y-101897620D01*
X196684762Y-101754762D01*
X196589524Y-101659524D01*
X196494286Y-101611905D01*
X196303810Y-101564286D01*
X196160952Y-101564286D01*
X195970476Y-101611905D01*
X195875238Y-101659524D01*
X195780000Y-101754762D01*
X195732381Y-101897620D01*
X195732381Y-101992858D01*
X195780000Y-102135715D01*
X195827619Y-102183334D01*
X195732381Y-103040477D02*
X195732381Y-102850000D01*
X195780000Y-102754762D01*
X195827619Y-102707143D01*
X195970476Y-102611905D01*
X196160952Y-102564286D01*
X196541905Y-102564286D01*
X196637143Y-102611905D01*
X196684762Y-102659524D01*
X196732381Y-102754762D01*
X196732381Y-102945239D01*
X196684762Y-103040477D01*
X196637143Y-103088096D01*
X196541905Y-103135715D01*
X196303810Y-103135715D01*
X196208571Y-103088096D01*
X196160952Y-103040477D01*
X196113333Y-102945239D01*
X196113333Y-102754762D01*
X196160952Y-102659524D01*
X196208571Y-102611905D01*
X196303810Y-102564286D01*
X173966666Y-99007143D02*
X174014285Y-99054762D01*
X174157142Y-99102381D01*
X174252380Y-99102381D01*
X174395238Y-99054762D01*
X174490476Y-98959524D01*
X174538095Y-98864286D01*
X174585714Y-98673810D01*
X174585714Y-98530952D01*
X174538095Y-98340476D01*
X174490476Y-98245238D01*
X174395238Y-98150000D01*
X174252380Y-98102381D01*
X174157142Y-98102381D01*
X174014285Y-98150000D01*
X173966666Y-98197619D01*
X173014285Y-99102381D02*
X173585714Y-99102381D01*
X173300000Y-99102381D02*
X173300000Y-98102381D01*
X173395238Y-98245238D01*
X173490476Y-98340476D01*
X173585714Y-98388095D01*
X204946666Y-100207143D02*
X204994285Y-100254762D01*
X205137142Y-100302381D01*
X205232380Y-100302381D01*
X205375238Y-100254762D01*
X205470476Y-100159524D01*
X205518095Y-100064286D01*
X205565714Y-99873810D01*
X205565714Y-99730952D01*
X205518095Y-99540476D01*
X205470476Y-99445238D01*
X205375238Y-99350000D01*
X205232380Y-99302381D01*
X205137142Y-99302381D01*
X204994285Y-99350000D01*
X204946666Y-99397619D01*
X204565714Y-99397619D02*
X204518095Y-99350000D01*
X204422857Y-99302381D01*
X204184761Y-99302381D01*
X204089523Y-99350000D01*
X204041904Y-99397619D01*
X203994285Y-99492857D01*
X203994285Y-99588095D01*
X204041904Y-99730952D01*
X204613333Y-100302381D01*
X203994285Y-100302381D01*
X192941905Y-100202381D02*
X192941905Y-101011905D01*
X192894286Y-101107143D01*
X192846667Y-101154762D01*
X192751429Y-101202381D01*
X192560952Y-101202381D01*
X192465714Y-101154762D01*
X192418095Y-101107143D01*
X192370476Y-101011905D01*
X192370476Y-100202381D01*
X191465714Y-100535714D02*
X191465714Y-101202381D01*
X191703810Y-100154762D02*
X191941905Y-100869048D01*
X191322857Y-100869048D01*
M02*
