G04 #@! TF.FileFunction,Other,Fab,Bot*
%FSLAX46Y46*%
G04 Gerber Fmt 4.6, Leading zero omitted, Abs format (unit mm)*
G04 Created by KiCad (PCBNEW 4.0.5-e0-6337~49~ubuntu14.04.1) date Tue May 16 09:37:37 2017*
%MOMM*%
%LPD*%
G01*
G04 APERTURE LIST*
%ADD10C,0.100000*%
%ADD11C,0.150000*%
G04 APERTURE END LIST*
D10*
D11*
X185595860Y-99378000D02*
X185854679Y-98412074D01*
X185486707Y-98313476D01*
X185382389Y-98334823D01*
X185324068Y-98368495D01*
X185253422Y-98448163D01*
X185216448Y-98586152D01*
X185237795Y-98690470D01*
X185271467Y-98748791D01*
X185351135Y-98819436D01*
X185719108Y-98918034D01*
X184980746Y-98177904D02*
X184382792Y-98017683D01*
X184606170Y-98471927D01*
X184468180Y-98434953D01*
X184363862Y-98456300D01*
X184305541Y-98489972D01*
X184234895Y-98569641D01*
X184173272Y-98799623D01*
X184194619Y-98903940D01*
X184228290Y-98962261D01*
X184307958Y-99032907D01*
X184583938Y-99106856D01*
X184688256Y-99085509D01*
X184746577Y-99051837D01*
X209238095Y-97702381D02*
X209238095Y-96702381D01*
X208857142Y-96702381D01*
X208761904Y-96750000D01*
X208714285Y-96797619D01*
X208666666Y-96892857D01*
X208666666Y-97035714D01*
X208714285Y-97130952D01*
X208761904Y-97178571D01*
X208857142Y-97226190D01*
X209238095Y-97226190D01*
X207714285Y-97702381D02*
X208285714Y-97702381D01*
X208000000Y-97702381D02*
X208000000Y-96702381D01*
X208095238Y-96845238D01*
X208190476Y-96940476D01*
X208285714Y-96988095D01*
X209238095Y-105202381D02*
X209238095Y-104202381D01*
X208857142Y-104202381D01*
X208761904Y-104250000D01*
X208714285Y-104297619D01*
X208666666Y-104392857D01*
X208666666Y-104535714D01*
X208714285Y-104630952D01*
X208761904Y-104678571D01*
X208857142Y-104726190D01*
X209238095Y-104726190D01*
X208285714Y-104297619D02*
X208238095Y-104250000D01*
X208142857Y-104202381D01*
X207904761Y-104202381D01*
X207809523Y-104250000D01*
X207761904Y-104297619D01*
X207714285Y-104392857D01*
X207714285Y-104488095D01*
X207761904Y-104630952D01*
X208333333Y-105202381D01*
X207714285Y-105202381D01*
X200761905Y-99202381D02*
X200761905Y-100011905D01*
X200714286Y-100107143D01*
X200666667Y-100154762D01*
X200571429Y-100202381D01*
X200380952Y-100202381D01*
X200285714Y-100154762D01*
X200238095Y-100107143D01*
X200190476Y-100011905D01*
X200190476Y-99202381D01*
X199761905Y-99297619D02*
X199714286Y-99250000D01*
X199619048Y-99202381D01*
X199380952Y-99202381D01*
X199285714Y-99250000D01*
X199238095Y-99297619D01*
X199190476Y-99392857D01*
X199190476Y-99488095D01*
X199238095Y-99630952D01*
X199809524Y-100202381D01*
X199190476Y-100202381D01*
X173966666Y-93702381D02*
X174300000Y-93226190D01*
X174538095Y-93702381D02*
X174538095Y-92702381D01*
X174157142Y-92702381D01*
X174061904Y-92750000D01*
X174014285Y-92797619D01*
X173966666Y-92892857D01*
X173966666Y-93035714D01*
X174014285Y-93130952D01*
X174061904Y-93178571D01*
X174157142Y-93226190D01*
X174538095Y-93226190D01*
X173014285Y-93702381D02*
X173585714Y-93702381D01*
X173300000Y-93702381D02*
X173300000Y-92702381D01*
X173395238Y-92845238D01*
X173490476Y-92940476D01*
X173585714Y-92988095D01*
X173916666Y-99107143D02*
X173964285Y-99154762D01*
X174107142Y-99202381D01*
X174202380Y-99202381D01*
X174345238Y-99154762D01*
X174440476Y-99059524D01*
X174488095Y-98964286D01*
X174535714Y-98773810D01*
X174535714Y-98630952D01*
X174488095Y-98440476D01*
X174440476Y-98345238D01*
X174345238Y-98250000D01*
X174202380Y-98202381D01*
X174107142Y-98202381D01*
X173964285Y-98250000D01*
X173916666Y-98297619D01*
X172964285Y-99202381D02*
X173535714Y-99202381D01*
X173250000Y-99202381D02*
X173250000Y-98202381D01*
X173345238Y-98345238D01*
X173440476Y-98440476D01*
X173535714Y-98488095D01*
X171416666Y-96357143D02*
X171464285Y-96404762D01*
X171607142Y-96452381D01*
X171702380Y-96452381D01*
X171845238Y-96404762D01*
X171940476Y-96309524D01*
X171988095Y-96214286D01*
X172035714Y-96023810D01*
X172035714Y-95880952D01*
X171988095Y-95690476D01*
X171940476Y-95595238D01*
X171845238Y-95500000D01*
X171702380Y-95452381D01*
X171607142Y-95452381D01*
X171464285Y-95500000D01*
X171416666Y-95547619D01*
X171083333Y-95452381D02*
X170464285Y-95452381D01*
X170797619Y-95833333D01*
X170654761Y-95833333D01*
X170559523Y-95880952D01*
X170511904Y-95928571D01*
X170464285Y-96023810D01*
X170464285Y-96261905D01*
X170511904Y-96357143D01*
X170559523Y-96404762D01*
X170654761Y-96452381D01*
X170940476Y-96452381D01*
X171035714Y-96404762D01*
X171083333Y-96357143D01*
X179016666Y-96607143D02*
X179064285Y-96654762D01*
X179207142Y-96702381D01*
X179302380Y-96702381D01*
X179445238Y-96654762D01*
X179540476Y-96559524D01*
X179588095Y-96464286D01*
X179635714Y-96273810D01*
X179635714Y-96130952D01*
X179588095Y-95940476D01*
X179540476Y-95845238D01*
X179445238Y-95750000D01*
X179302380Y-95702381D01*
X179207142Y-95702381D01*
X179064285Y-95750000D01*
X179016666Y-95797619D01*
X178683333Y-95702381D02*
X178016666Y-95702381D01*
X178445238Y-96702381D01*
X189916666Y-96857143D02*
X189964285Y-96904762D01*
X190107142Y-96952381D01*
X190202380Y-96952381D01*
X190345238Y-96904762D01*
X190440476Y-96809524D01*
X190488095Y-96714286D01*
X190535714Y-96523810D01*
X190535714Y-96380952D01*
X190488095Y-96190476D01*
X190440476Y-96095238D01*
X190345238Y-96000000D01*
X190202380Y-95952381D01*
X190107142Y-95952381D01*
X189964285Y-96000000D01*
X189916666Y-96047619D01*
X189059523Y-96285714D02*
X189059523Y-96952381D01*
X189297619Y-95904762D02*
X189535714Y-96619048D01*
X188916666Y-96619048D01*
X194261905Y-93452381D02*
X194261905Y-94261905D01*
X194214286Y-94357143D01*
X194166667Y-94404762D01*
X194071429Y-94452381D01*
X193880952Y-94452381D01*
X193785714Y-94404762D01*
X193738095Y-94357143D01*
X193690476Y-94261905D01*
X193690476Y-93452381D01*
X193309524Y-93452381D02*
X192690476Y-93452381D01*
X193023810Y-93833333D01*
X192880952Y-93833333D01*
X192785714Y-93880952D01*
X192738095Y-93928571D01*
X192690476Y-94023810D01*
X192690476Y-94261905D01*
X192738095Y-94357143D01*
X192785714Y-94404762D01*
X192880952Y-94452381D01*
X193166667Y-94452381D01*
X193261905Y-94404762D01*
X193309524Y-94357143D01*
X197416666Y-97107143D02*
X197464285Y-97154762D01*
X197607142Y-97202381D01*
X197702380Y-97202381D01*
X197845238Y-97154762D01*
X197940476Y-97059524D01*
X197988095Y-96964286D01*
X198035714Y-96773810D01*
X198035714Y-96630952D01*
X197988095Y-96440476D01*
X197940476Y-96345238D01*
X197845238Y-96250000D01*
X197702380Y-96202381D01*
X197607142Y-96202381D01*
X197464285Y-96250000D01*
X197416666Y-96297619D01*
X196511904Y-96202381D02*
X196988095Y-96202381D01*
X197035714Y-96678571D01*
X196988095Y-96630952D01*
X196892857Y-96583333D01*
X196654761Y-96583333D01*
X196559523Y-96630952D01*
X196511904Y-96678571D01*
X196464285Y-96773810D01*
X196464285Y-97011905D01*
X196511904Y-97107143D01*
X196559523Y-97154762D01*
X196654761Y-97202381D01*
X196892857Y-97202381D01*
X196988095Y-97154762D01*
X197035714Y-97107143D01*
X201916666Y-96452381D02*
X202250000Y-95976190D01*
X202488095Y-96452381D02*
X202488095Y-95452381D01*
X202107142Y-95452381D01*
X202011904Y-95500000D01*
X201964285Y-95547619D01*
X201916666Y-95642857D01*
X201916666Y-95785714D01*
X201964285Y-95880952D01*
X202011904Y-95928571D01*
X202107142Y-95976190D01*
X202488095Y-95976190D01*
X201535714Y-95547619D02*
X201488095Y-95500000D01*
X201392857Y-95452381D01*
X201154761Y-95452381D01*
X201059523Y-95500000D01*
X201011904Y-95547619D01*
X200964285Y-95642857D01*
X200964285Y-95738095D01*
X201011904Y-95880952D01*
X201583333Y-96452381D01*
X200964285Y-96452381D01*
X203916666Y-99952381D02*
X204250000Y-99476190D01*
X204488095Y-99952381D02*
X204488095Y-98952381D01*
X204107142Y-98952381D01*
X204011904Y-99000000D01*
X203964285Y-99047619D01*
X203916666Y-99142857D01*
X203916666Y-99285714D01*
X203964285Y-99380952D01*
X204011904Y-99428571D01*
X204107142Y-99476190D01*
X204488095Y-99476190D01*
X203059523Y-99285714D02*
X203059523Y-99952381D01*
X203297619Y-98904762D02*
X203535714Y-99619048D01*
X202916666Y-99619048D01*
X201666666Y-106202381D02*
X202000000Y-105726190D01*
X202238095Y-106202381D02*
X202238095Y-105202381D01*
X201857142Y-105202381D01*
X201761904Y-105250000D01*
X201714285Y-105297619D01*
X201666666Y-105392857D01*
X201666666Y-105535714D01*
X201714285Y-105630952D01*
X201761904Y-105678571D01*
X201857142Y-105726190D01*
X202238095Y-105726190D01*
X201333333Y-105202381D02*
X200714285Y-105202381D01*
X201047619Y-105583333D01*
X200904761Y-105583333D01*
X200809523Y-105630952D01*
X200761904Y-105678571D01*
X200714285Y-105773810D01*
X200714285Y-106011905D01*
X200761904Y-106107143D01*
X200809523Y-106154762D01*
X200904761Y-106202381D01*
X201190476Y-106202381D01*
X201285714Y-106154762D01*
X201333333Y-106107143D01*
X194666666Y-100607143D02*
X194714285Y-100654762D01*
X194857142Y-100702381D01*
X194952380Y-100702381D01*
X195095238Y-100654762D01*
X195190476Y-100559524D01*
X195238095Y-100464286D01*
X195285714Y-100273810D01*
X195285714Y-100130952D01*
X195238095Y-99940476D01*
X195190476Y-99845238D01*
X195095238Y-99750000D01*
X194952380Y-99702381D01*
X194857142Y-99702381D01*
X194714285Y-99750000D01*
X194666666Y-99797619D01*
X193809523Y-99702381D02*
X194000000Y-99702381D01*
X194095238Y-99750000D01*
X194142857Y-99797619D01*
X194238095Y-99940476D01*
X194285714Y-100130952D01*
X194285714Y-100511905D01*
X194238095Y-100607143D01*
X194190476Y-100654762D01*
X194095238Y-100702381D01*
X193904761Y-100702381D01*
X193809523Y-100654762D01*
X193761904Y-100607143D01*
X193714285Y-100511905D01*
X193714285Y-100273810D01*
X193761904Y-100178571D01*
X193809523Y-100130952D01*
X193904761Y-100083333D01*
X194095238Y-100083333D01*
X194190476Y-100130952D01*
X194238095Y-100178571D01*
X194285714Y-100273810D01*
M02*
