M48
;DRILL file {KiCad 4.0.7-e2-6376~58~ubuntu14.04.1} date Wed Aug  8 16:16:30 2018
;FORMAT={-:-/ absolute / metric / decimal}
FMAT,2
METRIC,TZ
T1C0.400
%
G90
G05
M71
T1
X166.7Y-95.9
X168.4Y-95.3
X168.4Y-96.7
X183.7Y-100.
X185.2Y-98.7
X189.266Y-95.05
X191.2Y-100.7
X191.987Y-101.363
X192.3Y-99.1
X192.68Y-92.65
X194.18Y-100.15
X196.25Y-102.25
X196.65Y-99.22
X197.2Y-95.9
X197.6Y-104.8
X197.95Y-103.1
X198.75Y-94.35
X199.Y-101.25
X203.6Y-101.4
X204.Y-95.1
X204.8Y-106.
X205.48Y-95.85
X207.1Y-100.8
X208.Y-98.9
X208.Y-102.7
T0
M30
