G04 #@! TF.FileFunction,Copper,L2,Bot,Signal*
%FSLAX46Y46*%
G04 Gerber Fmt 4.6, Leading zero omitted, Abs format (unit mm)*
G04 Created by KiCad (PCBNEW 4.0.5-e0-6337~49~ubuntu14.04.1) date Tue May 23 16:53:46 2017*
%MOMM*%
%LPD*%
G01*
G04 APERTURE LIST*
%ADD10C,0.100000*%
%ADD11R,0.800000X0.500000*%
%ADD12C,1.000000*%
%ADD13R,0.900000X0.300000*%
%ADD14R,1.200000X0.300000*%
%ADD15R,0.300000X0.900000*%
%ADD16R,0.300000X1.200000*%
%ADD17R,1.000000X1.200000*%
%ADD18R,1.250000X1.800000*%
%ADD19R,1.200000X1.000000*%
%ADD20R,0.600000X1.200000*%
%ADD21R,0.500000X0.800000*%
%ADD22C,0.600000*%
%ADD23C,0.500000*%
%ADD24C,0.200000*%
%ADD25C,0.300000*%
G04 APERTURE END LIST*
D10*
G36*
X187238347Y-96661911D02*
X186798355Y-98303985D01*
X186218799Y-98148693D01*
X186658791Y-96506619D01*
X187238347Y-96661911D01*
X187238347Y-96661911D01*
G37*
G36*
X186030940Y-96338387D02*
X185590948Y-97980461D01*
X185011392Y-97825169D01*
X185451384Y-96183095D01*
X186030940Y-96338387D01*
X186030940Y-96338387D01*
G37*
G36*
X188445754Y-96985435D02*
X188005762Y-98627509D01*
X187426206Y-98472217D01*
X187866198Y-96830143D01*
X188445754Y-96985435D01*
X188445754Y-96985435D01*
G37*
G36*
X189653162Y-97308958D02*
X189213170Y-98951032D01*
X188633614Y-98795740D01*
X189073606Y-97153666D01*
X189653162Y-97308958D01*
X189653162Y-97308958D01*
G37*
G36*
X180082509Y-97384464D02*
X179383697Y-99992463D01*
X178417771Y-99733644D01*
X179116583Y-97125645D01*
X180082509Y-97384464D01*
X180082509Y-97384464D01*
G37*
G36*
X191045766Y-100322060D02*
X190346954Y-102930059D01*
X189381028Y-102671240D01*
X190079840Y-100063241D01*
X191045766Y-100322060D01*
X191045766Y-100322060D01*
G37*
G36*
X184243976Y-95859571D02*
X184823532Y-96014863D01*
X184383540Y-97656937D01*
X183803984Y-97501645D01*
X184243976Y-95859571D01*
X184243976Y-95859571D01*
G37*
G36*
X183036569Y-95536047D02*
X183616125Y-95691339D01*
X183176133Y-97333413D01*
X182596577Y-97178121D01*
X183036569Y-95536047D01*
X183036569Y-95536047D01*
G37*
G36*
X181829162Y-95212524D02*
X182408718Y-95367816D01*
X181968726Y-97009890D01*
X181389170Y-96854598D01*
X181829162Y-95212524D01*
X181829162Y-95212524D01*
G37*
G36*
X204831712Y-98727907D02*
X206033794Y-97525825D01*
X206458058Y-97950089D01*
X205255976Y-99152171D01*
X204831712Y-98727907D01*
X204831712Y-98727907D01*
G37*
G36*
X205715596Y-99611790D02*
X206917678Y-98409708D01*
X207341942Y-98833972D01*
X206139860Y-100036054D01*
X205715596Y-99611790D01*
X205715596Y-99611790D01*
G37*
G36*
X203947829Y-97844024D02*
X205149911Y-96641942D01*
X205574175Y-97066206D01*
X204372093Y-98268288D01*
X203947829Y-97844024D01*
X203947829Y-97844024D01*
G37*
G36*
X203063946Y-96960140D02*
X204266028Y-95758058D01*
X204690292Y-96182322D01*
X203488210Y-97384404D01*
X203063946Y-96960140D01*
X203063946Y-96960140D01*
G37*
G36*
X208738477Y-99028427D02*
X210647666Y-97119238D01*
X211354773Y-97826345D01*
X209445584Y-99735534D01*
X208738477Y-99028427D01*
X208738477Y-99028427D01*
G37*
G36*
X203364466Y-93654416D02*
X205273655Y-91745227D01*
X205980762Y-92452334D01*
X204071573Y-94361523D01*
X203364466Y-93654416D01*
X203364466Y-93654416D01*
G37*
G36*
X204372093Y-103331712D02*
X205574175Y-104533794D01*
X205149911Y-104958058D01*
X203947829Y-103755976D01*
X204372093Y-103331712D01*
X204372093Y-103331712D01*
G37*
G36*
X203488210Y-104215596D02*
X204690292Y-105417678D01*
X204266028Y-105841942D01*
X203063946Y-104639860D01*
X203488210Y-104215596D01*
X203488210Y-104215596D01*
G37*
G36*
X205255976Y-102447829D02*
X206458058Y-103649911D01*
X206033794Y-104074175D01*
X204831712Y-102872093D01*
X205255976Y-102447829D01*
X205255976Y-102447829D01*
G37*
G36*
X206139860Y-101563946D02*
X207341942Y-102766028D01*
X206917678Y-103190292D01*
X205715596Y-101988210D01*
X206139860Y-101563946D01*
X206139860Y-101563946D01*
G37*
G36*
X204071573Y-107238477D02*
X205980762Y-109147666D01*
X205273655Y-109854773D01*
X203364466Y-107945584D01*
X204071573Y-107238477D01*
X204071573Y-107238477D01*
G37*
G36*
X209445584Y-101864466D02*
X211354773Y-103773655D01*
X210647666Y-104480762D01*
X208738477Y-102571573D01*
X209445584Y-101864466D01*
X209445584Y-101864466D01*
G37*
D11*
X204100000Y-100750000D03*
X205300000Y-100750000D03*
D12*
X201500000Y-94500000D03*
X180100000Y-94500000D03*
D13*
X202400000Y-99250000D03*
D14*
X202250000Y-99750000D03*
X202250000Y-100250000D03*
X202250000Y-100750000D03*
X202250000Y-101250000D03*
X202250000Y-101750000D03*
D13*
X202400000Y-102250000D03*
D15*
X201500000Y-103150000D03*
D16*
X201000000Y-103000000D03*
X200500000Y-103000000D03*
X200000000Y-103000000D03*
X199500000Y-103000000D03*
X199000000Y-103000000D03*
D15*
X198500000Y-103150000D03*
D13*
X197600000Y-102250000D03*
D14*
X197750000Y-101750000D03*
X197750000Y-101250000D03*
X197750000Y-100750000D03*
X197750000Y-100250000D03*
X197750000Y-99750000D03*
D13*
X197600000Y-99250000D03*
D15*
X198500000Y-98350000D03*
D16*
X199000000Y-98500000D03*
X199500000Y-98500000D03*
X200000000Y-98500000D03*
X200500000Y-98500000D03*
X201000000Y-98500000D03*
D15*
X201500000Y-98350000D03*
D10*
G36*
X202400000Y-99400000D02*
X201600000Y-99400000D01*
X201900000Y-99100000D01*
X202100000Y-99100000D01*
X202400000Y-99400000D01*
X202400000Y-99400000D01*
G37*
G36*
X201350000Y-99150000D02*
X201350000Y-98350000D01*
X201650000Y-98650000D01*
X201650000Y-98850000D01*
X201350000Y-99150000D01*
X201350000Y-99150000D01*
G37*
G36*
X198650000Y-102350000D02*
X198650000Y-103150000D01*
X198350000Y-102850000D01*
X198350000Y-102650000D01*
X198650000Y-102350000D01*
X198650000Y-102350000D01*
G37*
G36*
X197600000Y-102100000D02*
X198400000Y-102100000D01*
X198100000Y-102400000D01*
X197900000Y-102400000D01*
X197600000Y-102100000D01*
X197600000Y-102100000D01*
G37*
G36*
X201600000Y-102100000D02*
X202400000Y-102100000D01*
X202100000Y-102400000D01*
X201900000Y-102400000D01*
X201600000Y-102100000D01*
X201600000Y-102100000D01*
G37*
G36*
X201350000Y-103150000D02*
X201350000Y-102350000D01*
X201650000Y-102650000D01*
X201650000Y-102850000D01*
X201350000Y-103150000D01*
X201350000Y-103150000D01*
G37*
G36*
X198400000Y-99400000D02*
X197600000Y-99400000D01*
X197900000Y-99100000D01*
X198100000Y-99100000D01*
X198400000Y-99400000D01*
X198400000Y-99400000D01*
G37*
G36*
X198650000Y-98350000D02*
X198650000Y-99150000D01*
X198350000Y-98850000D01*
X198350000Y-98650000D01*
X198650000Y-98350000D01*
X198650000Y-98350000D01*
G37*
D11*
X173200000Y-94300000D03*
X174400000Y-94300000D03*
X173200000Y-97600000D03*
X174400000Y-97600000D03*
D17*
X172800000Y-96000000D03*
X174800000Y-96000000D03*
D18*
X177100000Y-94700000D03*
X177100000Y-97300000D03*
D19*
X191250000Y-95500000D03*
X191250000Y-97500000D03*
D20*
X193500000Y-95350000D03*
X192550000Y-95350000D03*
X194450000Y-95350000D03*
X194450000Y-97650000D03*
X192550000Y-97650000D03*
D19*
X195750000Y-97500000D03*
X195750000Y-95500000D03*
D10*
G36*
X203030330Y-95716117D02*
X203383883Y-96069670D01*
X202818198Y-96635355D01*
X202464645Y-96281802D01*
X203030330Y-95716117D01*
X203030330Y-95716117D01*
G37*
G36*
X202181802Y-96564645D02*
X202535355Y-96918198D01*
X201969670Y-97483883D01*
X201616117Y-97130330D01*
X202181802Y-96564645D01*
X202181802Y-96564645D01*
G37*
G36*
X204083883Y-98630330D02*
X203730330Y-98983883D01*
X203164645Y-98418198D01*
X203518198Y-98064645D01*
X204083883Y-98630330D01*
X204083883Y-98630330D01*
G37*
G36*
X203235355Y-97781802D02*
X202881802Y-98135355D01*
X202316117Y-97569670D01*
X202669670Y-97216117D01*
X203235355Y-97781802D01*
X203235355Y-97781802D01*
G37*
G36*
X203383883Y-105530330D02*
X203030330Y-105883883D01*
X202464645Y-105318198D01*
X202818198Y-104964645D01*
X203383883Y-105530330D01*
X203383883Y-105530330D01*
G37*
G36*
X202535355Y-104681802D02*
X202181802Y-105035355D01*
X201616117Y-104469670D01*
X201969670Y-104116117D01*
X202535355Y-104681802D01*
X202535355Y-104681802D01*
G37*
D21*
X195800000Y-99200000D03*
X195800000Y-100400000D03*
D22*
X198846875Y-101544158D03*
X197200000Y-95900000D03*
X199280483Y-93819517D03*
X168400000Y-96700000D03*
X193050000Y-99350000D03*
X191500000Y-100900000D03*
X189200000Y-94900000D03*
X166700000Y-95899998D03*
X188337063Y-99927606D03*
X203600000Y-101400000D03*
X197600000Y-104800000D03*
X192200000Y-101400000D03*
X195600000Y-101400000D03*
X168400000Y-95300000D03*
X189200000Y-101300000D03*
X208000000Y-102700000D03*
X208000000Y-98900000D03*
X197950000Y-103100000D03*
X196649988Y-99219987D03*
X204000000Y-95100000D03*
X203600000Y-106000000D03*
D23*
X199280483Y-93819517D02*
X197320386Y-91859420D01*
X197320386Y-91859420D02*
X186240580Y-91859420D01*
X185700000Y-92400000D02*
X179125000Y-92400000D01*
X186240580Y-91859420D02*
X185700000Y-92400000D01*
X179125000Y-92400000D02*
X178000000Y-93525000D01*
X178000000Y-93525000D02*
X177100000Y-94425000D01*
X177100000Y-94425000D02*
X177100000Y-94700000D01*
X193650000Y-98750000D02*
X195500000Y-98750000D01*
X195500000Y-98750000D02*
X195750000Y-98500000D01*
X192550000Y-97650000D02*
X193650000Y-98750000D01*
D24*
X195800000Y-99200000D02*
X195800000Y-99500000D01*
X195800000Y-99500000D02*
X195999999Y-99699999D01*
X195999999Y-99699999D02*
X196290001Y-99699999D01*
X196290001Y-99699999D02*
X196849999Y-100259997D01*
X196849999Y-100259997D02*
X196849999Y-101149999D01*
X196849999Y-101149999D02*
X196950000Y-101250000D01*
D23*
X195750000Y-98500000D02*
X195750000Y-99150000D01*
X195750000Y-99150000D02*
X195800000Y-99200000D01*
D24*
X173200000Y-97600000D02*
X169300000Y-97600000D01*
X169300000Y-97600000D02*
X169100000Y-97400000D01*
D23*
X197200000Y-95900000D02*
X197200000Y-96050000D01*
X197200000Y-96050000D02*
X195750000Y-97500000D01*
D24*
X171800000Y-94600000D02*
X173050012Y-93349988D01*
X173050012Y-93349988D02*
X176024988Y-93349988D01*
X176024988Y-93349988D02*
X177100000Y-94425000D01*
X168200000Y-94600000D02*
X171800000Y-94600000D01*
X168400000Y-96700000D02*
X167700000Y-96000000D01*
X195750000Y-97500000D02*
X195850000Y-97500000D01*
X167700000Y-96000000D02*
X167700000Y-95100000D01*
X198980484Y-93519518D02*
X199280483Y-93819517D01*
X167700000Y-95100000D02*
X168200000Y-94600000D01*
X168400000Y-96700000D02*
X169100000Y-97400000D01*
D23*
X195750000Y-98500000D02*
X195750000Y-97500000D01*
D24*
X199318179Y-102015462D02*
X199146874Y-101844157D01*
X200259047Y-102015462D02*
X199318179Y-102015462D01*
X199146874Y-101844157D02*
X198846875Y-101544158D01*
X198552717Y-101250000D02*
X198846875Y-101544158D01*
X202250000Y-101250000D02*
X201024509Y-101250000D01*
X201024509Y-101250000D02*
X200259047Y-102015462D01*
X196950000Y-101250000D02*
X197750000Y-101250000D01*
X197750000Y-101250000D02*
X198552717Y-101250000D01*
D23*
X204672614Y-108546625D02*
X203865507Y-108546625D01*
X203865507Y-108546625D02*
X203118882Y-107800000D01*
X190213397Y-101496650D02*
X189900000Y-102500000D01*
X189900000Y-102500000D02*
X189000000Y-102200000D01*
D24*
X196250000Y-101000000D02*
X196250000Y-101399998D01*
X195800000Y-100550000D02*
X196250000Y-101000000D01*
X195800000Y-100400000D02*
X195800000Y-100550000D01*
X196250000Y-101399998D02*
X196600002Y-101750000D01*
D23*
X193050000Y-99350000D02*
X192100000Y-99350000D01*
X192100000Y-99350000D02*
X191250000Y-98500000D01*
X191250000Y-98500000D02*
X191250000Y-97500000D01*
X191500000Y-100900000D02*
X190810047Y-100900000D01*
X190810047Y-100900000D02*
X190213397Y-101496650D01*
X191250000Y-98050000D02*
X191250000Y-97500000D01*
X189143388Y-98052349D02*
X189143388Y-94956612D01*
X189143388Y-94956612D02*
X189200000Y-94900000D01*
D24*
X196600002Y-101750000D02*
X196950000Y-101750000D01*
X196950000Y-101750000D02*
X197750000Y-101750000D01*
X192200000Y-101400000D02*
X197600000Y-104800000D01*
X187935980Y-97728826D02*
X187935980Y-99526523D01*
X187935980Y-99526523D02*
X188037064Y-99627607D01*
X188037064Y-99627607D02*
X188337063Y-99927606D01*
X203600000Y-101400000D02*
X204100000Y-100900000D01*
X204100000Y-100750000D02*
X204100000Y-100900000D01*
X187800000Y-98150000D02*
X187935980Y-97728826D01*
X204100000Y-100750000D02*
X202250000Y-100750000D01*
X196450000Y-102250000D02*
X195600000Y-101400000D01*
X197600000Y-102250000D02*
X196450000Y-102250000D01*
X180550000Y-96758333D02*
X178050000Y-96050000D01*
X180700000Y-98050000D02*
X180900000Y-97392857D01*
X181650000Y-99550000D02*
X180700000Y-98050000D01*
X176174999Y-94884997D02*
X175040001Y-93749999D01*
X180550000Y-96750000D02*
X180550000Y-96758333D01*
X180900000Y-97392857D02*
X180550000Y-96750000D01*
X189057231Y-101571199D02*
X181650000Y-99550000D01*
X173300001Y-93749999D02*
X173200000Y-93850000D01*
X173200000Y-93850000D02*
X173200000Y-94300000D01*
X176384998Y-96050000D02*
X176174999Y-95840001D01*
X178050000Y-96050000D02*
X176384998Y-96050000D01*
X175040001Y-93749999D02*
X173300001Y-93749999D01*
X176174999Y-95840001D02*
X176174999Y-94884997D01*
X172800000Y-96000000D02*
X172800000Y-94700000D01*
X172800000Y-94700000D02*
X173200000Y-94300000D01*
X172800000Y-96000000D02*
X169100000Y-96000000D01*
X169100000Y-96000000D02*
X168400000Y-95300000D01*
X173200000Y-95600000D02*
X172800000Y-96000000D01*
X189200000Y-101300000D02*
X189200000Y-101428430D01*
X189200000Y-101428430D02*
X189057231Y-101571199D01*
D23*
X201900000Y-106552852D02*
X190300000Y-99155319D01*
X202097150Y-106750002D02*
X201900000Y-106552852D01*
X203994380Y-106750002D02*
X202097150Y-106750002D01*
X207044382Y-103700000D02*
X203994380Y-106750002D01*
X181898944Y-97091191D02*
X181898944Y-96111207D01*
X181898944Y-97429627D02*
X181898944Y-97091191D01*
X181400000Y-97928571D02*
X181898944Y-97429627D01*
X181400000Y-97950000D02*
X181400000Y-97928571D01*
X182050000Y-98996638D02*
X181400000Y-97950000D01*
X188598729Y-100791269D02*
X182050000Y-98996638D01*
X190234679Y-99155319D02*
X188598729Y-100791269D01*
X190300000Y-99155319D02*
X190234679Y-99155319D01*
X190150000Y-98600000D02*
X190150000Y-99100000D01*
X190150000Y-96500000D02*
X190150000Y-98600000D01*
X190150000Y-98600000D02*
X190150000Y-99200000D01*
X206811629Y-103932753D02*
X207044382Y-103700000D01*
X207044382Y-103700000D02*
X208000000Y-102744382D01*
X190300000Y-99155319D02*
X190150000Y-99200000D01*
X190200000Y-99100000D02*
X190200000Y-99100000D01*
X190200000Y-99100000D02*
X190150000Y-99100000D01*
X190150000Y-96500000D02*
X191150000Y-95500000D01*
X204761002Y-97455115D02*
X205432753Y-96783364D01*
X208000000Y-102744382D02*
X208000000Y-102700000D01*
X208000000Y-98855618D02*
X208000000Y-98900000D01*
X205927746Y-96783364D02*
X208000000Y-98855618D01*
X205432753Y-96783364D02*
X205927746Y-96783364D01*
X206811629Y-103932753D02*
X206316636Y-103932753D01*
X206316636Y-103932753D02*
X205644885Y-103261002D01*
D24*
X192550000Y-95350000D02*
X192550000Y-94859998D01*
X192550000Y-94859998D02*
X192959999Y-94449999D01*
X192959999Y-94449999D02*
X194349999Y-94449999D01*
X194349999Y-94449999D02*
X194450000Y-94550000D01*
X194450000Y-94550000D02*
X194450000Y-95350000D01*
D23*
X191250000Y-95500000D02*
X192400000Y-95500000D01*
X192400000Y-95500000D02*
X192550000Y-95350000D01*
X191150000Y-95500000D02*
X191250000Y-95500000D01*
D24*
X187223547Y-96910328D02*
X186728573Y-97405302D01*
X187223547Y-95988449D02*
X187223547Y-96910328D01*
X197600000Y-99250000D02*
X197875462Y-98974538D01*
X197875462Y-98974538D02*
X197875462Y-95536847D01*
X197875462Y-95536847D02*
X196384985Y-94046370D01*
X196384985Y-94046370D02*
X189165626Y-94046370D01*
X189165626Y-94046370D02*
X187223547Y-95988449D01*
X198500000Y-98750000D02*
X198500000Y-95584677D01*
X196561682Y-93646359D02*
X188956585Y-93646359D01*
X188956585Y-93646359D02*
X186016140Y-96586804D01*
X198500000Y-95584677D02*
X196561682Y-93646359D01*
X186016140Y-96586804D02*
X185521166Y-97081778D01*
X199000000Y-98500000D02*
X199000000Y-95518977D01*
X196727371Y-93246348D02*
X187825664Y-93246348D01*
X199000000Y-95518977D02*
X196727371Y-93246348D01*
X184808732Y-96263280D02*
X184313758Y-96758254D01*
X187825664Y-93246348D02*
X184808732Y-96263280D01*
X186694744Y-92846337D02*
X183601325Y-95939756D01*
X196893060Y-92846337D02*
X186694744Y-92846337D01*
X183601325Y-95939756D02*
X183106351Y-96434730D01*
X200500000Y-96453277D02*
X196893060Y-92846337D01*
X200500000Y-98500000D02*
X200500000Y-96453277D01*
X197950000Y-103100000D02*
X198450000Y-103100000D01*
X198450000Y-103100000D02*
X198500000Y-103150000D01*
X198450002Y-103100002D02*
X198500000Y-103150000D01*
X196649988Y-99449988D02*
X196649988Y-99219987D01*
X196950000Y-99750000D02*
X196649988Y-99449988D01*
X197750000Y-99750000D02*
X196950000Y-99750000D01*
X201500000Y-98350000D02*
X201500000Y-97600000D01*
X201500000Y-97600000D02*
X202075736Y-97024264D01*
X202075736Y-104575736D02*
X202075736Y-104122183D01*
X201500000Y-103546447D02*
X201500000Y-103150000D01*
X202075736Y-104122183D02*
X201500000Y-103546447D01*
X202924264Y-96175736D02*
X204000000Y-95100000D01*
X202924264Y-105424264D02*
X203024264Y-105424264D01*
X203024264Y-105424264D02*
X203600000Y-106000000D01*
X202250000Y-99750000D02*
X204233883Y-99750000D01*
X204233883Y-99750000D02*
X205644885Y-98338998D01*
X202250000Y-100250000D02*
X203409998Y-100250000D01*
X203409998Y-100250000D02*
X203509987Y-100150011D01*
X205857018Y-99894632D02*
X206528769Y-99222881D01*
X205601639Y-100150011D02*
X205857018Y-99894632D01*
X203509987Y-100150011D02*
X205601639Y-100150011D01*
X204761002Y-104144885D02*
X204089251Y-103473134D01*
X204089251Y-103473134D02*
X204089251Y-102799249D01*
X203050000Y-101750000D02*
X202900000Y-101750000D01*
X204089251Y-102799249D02*
X203040002Y-101750000D01*
X203040002Y-101750000D02*
X202900000Y-101750000D01*
X202900000Y-101750000D02*
X202250000Y-101750000D01*
X202400000Y-102250000D02*
X202400000Y-103551650D01*
X202400000Y-103551650D02*
X203877119Y-105028769D01*
X203125736Y-98524264D02*
X202400000Y-99250000D01*
X203624264Y-98524264D02*
X203125736Y-98524264D01*
D25*
G36*
X189250813Y-90527810D02*
X189822484Y-90532442D01*
X190395150Y-90541482D01*
X190969350Y-90554901D01*
X191545250Y-90572674D01*
X192123265Y-90594751D01*
X192703164Y-90621111D01*
X193286014Y-90651775D01*
X193871477Y-90686682D01*
X194460201Y-90725824D01*
X195052141Y-90769160D01*
X195647813Y-90816680D01*
X196247486Y-90868357D01*
X196851519Y-90924179D01*
X197459770Y-90984080D01*
X198073145Y-91048101D01*
X198691375Y-91116156D01*
X199314921Y-91188245D01*
X199944311Y-91264372D01*
X200579531Y-91344479D01*
X201220899Y-91428544D01*
X201868974Y-91516580D01*
X202523206Y-91608452D01*
X203185214Y-91704320D01*
X203854059Y-91803992D01*
X204530580Y-91907517D01*
X204604755Y-91919152D01*
X204168800Y-92355107D01*
X204168800Y-92478851D01*
X204672614Y-92982664D01*
X204686756Y-92968522D01*
X204757467Y-93039233D01*
X204743325Y-93053375D01*
X205247138Y-93557189D01*
X205370882Y-93557189D01*
X206009782Y-92918289D01*
X210180402Y-97091527D01*
X209542811Y-97729118D01*
X209542811Y-97852862D01*
X210046625Y-98356675D01*
X210060767Y-98342533D01*
X210131478Y-98413244D01*
X210117336Y-98427386D01*
X210621149Y-98931200D01*
X210744893Y-98931200D01*
X211133573Y-98542520D01*
X211133714Y-103057621D01*
X210744893Y-102668800D01*
X210621149Y-102668800D01*
X210117336Y-103172614D01*
X210131478Y-103186756D01*
X210060767Y-103257467D01*
X210046625Y-103243325D01*
X209542811Y-103747138D01*
X209542811Y-103870882D01*
X210174310Y-104502381D01*
X206001052Y-108672981D01*
X205370882Y-108042811D01*
X205247138Y-108042811D01*
X204743325Y-108546625D01*
X204757467Y-108560767D01*
X204686756Y-108631478D01*
X204672614Y-108617336D01*
X204658472Y-108631478D01*
X204587761Y-108560767D01*
X204601903Y-108546625D01*
X204587761Y-108532483D01*
X204658472Y-108461772D01*
X204672614Y-108475914D01*
X205176428Y-107972101D01*
X205176428Y-107848357D01*
X204460491Y-107132420D01*
X207468646Y-104124264D01*
X208336729Y-103256181D01*
X208402116Y-103214685D01*
X208494428Y-103126778D01*
X208567906Y-103022616D01*
X208606920Y-102934991D01*
X209348357Y-103676428D01*
X209472101Y-103676428D01*
X209975914Y-103172614D01*
X208871060Y-102067760D01*
X208747316Y-102067760D01*
X208514826Y-102300250D01*
X208506151Y-102287193D01*
X208416330Y-102196743D01*
X208310652Y-102125462D01*
X208193140Y-102076065D01*
X208068272Y-102050433D01*
X207940804Y-102049543D01*
X207815590Y-102073429D01*
X207697401Y-102121181D01*
X207590737Y-102190979D01*
X207499662Y-102280166D01*
X207439264Y-102368375D01*
X207085616Y-102014727D01*
X206961872Y-102014727D01*
X206599480Y-102377119D01*
X206613622Y-102391261D01*
X206542911Y-102461972D01*
X206528769Y-102447830D01*
X206514627Y-102461972D01*
X206443916Y-102391261D01*
X206458058Y-102377119D01*
X205706757Y-101625818D01*
X205583014Y-101625818D01*
X205443733Y-101765098D01*
X205405430Y-101822423D01*
X205379047Y-101886119D01*
X205365596Y-101953738D01*
X205365596Y-102022682D01*
X205379047Y-102090302D01*
X205394305Y-102127139D01*
X205374559Y-102116731D01*
X205277623Y-102096803D01*
X205178972Y-102104670D01*
X205086419Y-102139708D01*
X205007291Y-102199144D01*
X204583027Y-102623408D01*
X204546759Y-102665963D01*
X204527729Y-102702067D01*
X204518659Y-102672025D01*
X204507070Y-102632133D01*
X204505981Y-102630032D01*
X204505297Y-102627767D01*
X204485767Y-102591037D01*
X204466652Y-102554161D01*
X204465178Y-102552315D01*
X204464066Y-102550223D01*
X204437781Y-102517995D01*
X204411861Y-102485525D01*
X204408613Y-102482231D01*
X204408558Y-102482164D01*
X204408496Y-102482113D01*
X204407449Y-102481051D01*
X203903602Y-101977204D01*
X204002116Y-101914685D01*
X204094428Y-101826778D01*
X204167906Y-101722616D01*
X204219754Y-101606165D01*
X204247995Y-101481861D01*
X204248699Y-101431364D01*
X205777468Y-101431364D01*
X205777468Y-101555107D01*
X206528769Y-102306408D01*
X206891161Y-101944016D01*
X206891161Y-101873305D01*
X208941771Y-101873305D01*
X208941771Y-101997049D01*
X210046625Y-103101903D01*
X210550439Y-102598090D01*
X210550439Y-102474346D01*
X209717447Y-101641354D01*
X209668696Y-101592604D01*
X209611372Y-101554300D01*
X209547676Y-101527917D01*
X209480056Y-101514466D01*
X209411112Y-101514466D01*
X209343493Y-101527917D01*
X209279797Y-101554300D01*
X209222472Y-101592604D01*
X208941771Y-101873305D01*
X206891161Y-101873305D01*
X206891161Y-101820272D01*
X206362972Y-101292083D01*
X206305648Y-101253780D01*
X206241952Y-101227397D01*
X206174332Y-101213946D01*
X206105388Y-101213946D01*
X206037769Y-101227397D01*
X205974073Y-101253780D01*
X205916748Y-101292083D01*
X205777468Y-101431364D01*
X204248699Y-101431364D01*
X204249318Y-101387078D01*
X204284703Y-101351693D01*
X204500000Y-101351693D01*
X204555736Y-101347248D01*
X204650271Y-101317973D01*
X204698416Y-101286247D01*
X204734213Y-101310166D01*
X204797909Y-101336550D01*
X204865528Y-101350000D01*
X205162500Y-101350000D01*
X205250000Y-101262500D01*
X205250000Y-100800000D01*
X205350000Y-100800000D01*
X205350000Y-101262500D01*
X205437500Y-101350000D01*
X205734472Y-101350000D01*
X205802091Y-101336550D01*
X205865787Y-101310166D01*
X205923112Y-101271863D01*
X205971863Y-101223112D01*
X206010166Y-101165787D01*
X206036550Y-101102091D01*
X206050000Y-101034472D01*
X206050000Y-100887500D01*
X205962500Y-100800000D01*
X205350000Y-100800000D01*
X205250000Y-100800000D01*
X205230000Y-100800000D01*
X205230000Y-100700000D01*
X205250000Y-100700000D01*
X205250000Y-100680000D01*
X205350000Y-100680000D01*
X205350000Y-100700000D01*
X205962500Y-100700000D01*
X206050000Y-100612500D01*
X206050000Y-100465528D01*
X206036550Y-100397909D01*
X206024046Y-100367721D01*
X206118213Y-100387080D01*
X206216864Y-100379213D01*
X206309417Y-100344175D01*
X206388545Y-100284739D01*
X207070333Y-99602951D01*
X208941771Y-99602951D01*
X208941771Y-99726695D01*
X209222472Y-100007396D01*
X209279797Y-100045700D01*
X209343493Y-100072083D01*
X209411112Y-100085534D01*
X209480056Y-100085534D01*
X209547676Y-100072083D01*
X209611372Y-100045700D01*
X209668696Y-100007396D01*
X209717447Y-99958646D01*
X210550439Y-99125654D01*
X210550439Y-99001910D01*
X210046625Y-98498097D01*
X208941771Y-99602951D01*
X207070333Y-99602951D01*
X207440891Y-99232393D01*
X207488135Y-99305700D01*
X207576684Y-99397395D01*
X207681357Y-99470145D01*
X207798167Y-99521178D01*
X207922665Y-99548550D01*
X208050109Y-99551220D01*
X208175644Y-99529085D01*
X208294488Y-99482988D01*
X208402116Y-99414685D01*
X208494428Y-99326778D01*
X208514045Y-99298969D01*
X208747316Y-99532240D01*
X208871060Y-99532240D01*
X209975914Y-98427386D01*
X209472101Y-97923572D01*
X209348357Y-97923572D01*
X208606425Y-98665504D01*
X208576693Y-98593367D01*
X208506151Y-98487193D01*
X208416330Y-98396743D01*
X208334370Y-98341460D01*
X206352010Y-96359100D01*
X206309187Y-96323925D01*
X206266726Y-96288296D01*
X206263962Y-96286777D01*
X206261523Y-96284773D01*
X206212645Y-96258565D01*
X206164111Y-96231883D01*
X206161106Y-96230930D01*
X206158324Y-96229438D01*
X206105306Y-96213229D01*
X206052493Y-96196475D01*
X206049358Y-96196123D01*
X206046341Y-96195201D01*
X205991242Y-96189605D01*
X205936123Y-96183422D01*
X205929951Y-96183379D01*
X205929840Y-96183368D01*
X205929737Y-96183378D01*
X205927746Y-96183364D01*
X205432753Y-96183364D01*
X205377583Y-96188773D01*
X205322382Y-96193603D01*
X205319353Y-96194483D01*
X205316212Y-96194791D01*
X205263115Y-96210822D01*
X205209932Y-96226273D01*
X205207134Y-96227723D01*
X205204111Y-96228636D01*
X205155141Y-96254674D01*
X205105969Y-96280162D01*
X205103504Y-96282129D01*
X205100718Y-96283611D01*
X205083113Y-96297969D01*
X205072907Y-96298783D01*
X205011216Y-96322138D01*
X205026841Y-96284414D01*
X205040292Y-96216794D01*
X205040292Y-96147850D01*
X205026841Y-96080231D01*
X205000458Y-96016535D01*
X204962155Y-95959210D01*
X204822874Y-95819930D01*
X204699131Y-95819930D01*
X203947830Y-96571231D01*
X203961972Y-96585373D01*
X203891261Y-96656084D01*
X203877119Y-96641942D01*
X203125818Y-97393243D01*
X203125818Y-97396365D01*
X202846447Y-97675736D01*
X202860589Y-97689878D01*
X202789878Y-97760589D01*
X202775736Y-97746447D01*
X202448699Y-98073484D01*
X202448699Y-98197227D01*
X202632538Y-98381066D01*
X202265297Y-98748307D01*
X202001693Y-98748307D01*
X202001693Y-97900000D01*
X201997248Y-97844264D01*
X201993234Y-97831304D01*
X202046674Y-97827042D01*
X202069770Y-97818298D01*
X202254245Y-98002773D01*
X202377988Y-98002773D01*
X202705025Y-97675736D01*
X202690883Y-97661594D01*
X202761594Y-97590883D01*
X202775736Y-97605025D01*
X203102773Y-97277988D01*
X203102773Y-97274866D01*
X203806408Y-96571231D01*
X203792266Y-96557089D01*
X203862977Y-96486378D01*
X203877119Y-96500520D01*
X204628420Y-95749219D01*
X204628420Y-95625476D01*
X204509027Y-95506082D01*
X204567906Y-95422616D01*
X204619754Y-95306165D01*
X204647995Y-95181861D01*
X204650028Y-95036264D01*
X204625268Y-94911220D01*
X204576693Y-94793367D01*
X204506151Y-94687193D01*
X204416330Y-94596743D01*
X204365568Y-94562503D01*
X205176428Y-93751643D01*
X205176428Y-93627899D01*
X204672614Y-93124086D01*
X203567760Y-94228940D01*
X203567760Y-94352684D01*
X203725076Y-94510000D01*
X203697401Y-94521181D01*
X203590737Y-94590979D01*
X203499662Y-94680166D01*
X203427645Y-94785345D01*
X203377428Y-94902509D01*
X203350925Y-95027195D01*
X203349715Y-95113889D01*
X203090578Y-95373026D01*
X203051977Y-95365091D01*
X202953326Y-95372958D01*
X202885358Y-95398689D01*
X202941609Y-95318948D01*
X203073221Y-95023341D01*
X203144910Y-94707800D01*
X203150071Y-94338209D01*
X203087220Y-94020790D01*
X202963913Y-93721624D01*
X202896358Y-93619944D01*
X203014466Y-93619944D01*
X203014466Y-93688888D01*
X203027917Y-93756507D01*
X203054300Y-93820203D01*
X203092604Y-93877528D01*
X203373305Y-94158229D01*
X203497049Y-94158229D01*
X204601903Y-93053375D01*
X204098090Y-92549561D01*
X203974346Y-92549561D01*
X203141354Y-93382553D01*
X203092604Y-93431304D01*
X203054300Y-93488628D01*
X203027917Y-93552324D01*
X203014466Y-93619944D01*
X202896358Y-93619944D01*
X202784846Y-93452106D01*
X202556839Y-93222501D01*
X202288577Y-93041557D01*
X201990279Y-92916164D01*
X201673307Y-92851099D01*
X201349733Y-92848840D01*
X201031882Y-92909473D01*
X200731863Y-93030689D01*
X200461101Y-93207870D01*
X200229911Y-93434268D01*
X200047098Y-93701260D01*
X199919625Y-93998676D01*
X199852349Y-94315186D01*
X199847831Y-94638737D01*
X199906243Y-94957002D01*
X200025362Y-95257861D01*
X200178312Y-95495193D01*
X199136542Y-94453423D01*
X199203148Y-94468067D01*
X199330592Y-94470737D01*
X199456127Y-94448602D01*
X199574971Y-94402505D01*
X199682599Y-94334202D01*
X199774911Y-94246295D01*
X199848389Y-94142133D01*
X199900237Y-94025682D01*
X199928478Y-93901378D01*
X199930511Y-93755781D01*
X199905751Y-93630737D01*
X199857176Y-93512884D01*
X199786634Y-93406710D01*
X199696813Y-93316260D01*
X199591135Y-93244979D01*
X199527886Y-93218392D01*
X197744650Y-91435156D01*
X197701827Y-91399981D01*
X197659366Y-91364352D01*
X197656602Y-91362833D01*
X197654163Y-91360829D01*
X197605285Y-91334621D01*
X197556751Y-91307939D01*
X197553746Y-91306986D01*
X197550964Y-91305494D01*
X197497946Y-91289285D01*
X197445133Y-91272531D01*
X197441998Y-91272179D01*
X197438981Y-91271257D01*
X197383882Y-91265661D01*
X197328763Y-91259478D01*
X197322591Y-91259435D01*
X197322480Y-91259424D01*
X197322377Y-91259434D01*
X197320386Y-91259420D01*
X186240580Y-91259420D01*
X186185451Y-91264825D01*
X186130209Y-91269659D01*
X186127180Y-91270539D01*
X186124039Y-91270847D01*
X186070975Y-91286868D01*
X186017760Y-91302328D01*
X186014959Y-91303780D01*
X186011938Y-91304692D01*
X185963004Y-91330711D01*
X185913797Y-91356217D01*
X185911331Y-91358186D01*
X185908545Y-91359667D01*
X185865614Y-91394681D01*
X185822281Y-91429273D01*
X185817889Y-91433604D01*
X185817799Y-91433678D01*
X185817730Y-91433762D01*
X185816316Y-91435156D01*
X185451472Y-91800000D01*
X179125000Y-91800000D01*
X179069830Y-91805409D01*
X179014629Y-91810239D01*
X179011600Y-91811119D01*
X179008459Y-91811427D01*
X178955362Y-91827458D01*
X178902179Y-91842909D01*
X178899381Y-91844359D01*
X178896358Y-91845272D01*
X178847388Y-91871310D01*
X178798216Y-91896798D01*
X178795751Y-91898765D01*
X178792965Y-91900247D01*
X178750022Y-91935270D01*
X178706700Y-91969854D01*
X178702309Y-91974184D01*
X178702219Y-91974258D01*
X178702150Y-91974342D01*
X178700736Y-91975736D01*
X177228165Y-93448307D01*
X176759703Y-93448307D01*
X176343186Y-93031790D01*
X176311083Y-93005420D01*
X176279223Y-92978687D01*
X176277150Y-92977547D01*
X176275321Y-92976045D01*
X176238674Y-92956395D01*
X176202262Y-92936377D01*
X176200008Y-92935662D01*
X176197921Y-92934543D01*
X176158131Y-92922378D01*
X176118548Y-92909822D01*
X176116199Y-92909559D01*
X176113934Y-92908866D01*
X176072564Y-92904664D01*
X176031271Y-92900032D01*
X176026644Y-92900000D01*
X176026559Y-92899991D01*
X176026480Y-92899998D01*
X176024988Y-92899988D01*
X173050012Y-92899988D01*
X173008673Y-92904041D01*
X172967234Y-92907667D01*
X172964962Y-92908327D01*
X172962607Y-92908558D01*
X172922808Y-92920574D01*
X172882897Y-92932169D01*
X172880797Y-92933258D01*
X172878530Y-92933942D01*
X172841761Y-92953493D01*
X172804925Y-92972587D01*
X172803081Y-92974059D01*
X172800986Y-92975173D01*
X172768736Y-93001476D01*
X172736288Y-93027378D01*
X172732994Y-93030626D01*
X172732927Y-93030681D01*
X172732876Y-93030743D01*
X172731814Y-93031790D01*
X171613604Y-94150000D01*
X168200000Y-94150000D01*
X168158661Y-94154053D01*
X168117222Y-94157679D01*
X168114950Y-94158339D01*
X168112595Y-94158570D01*
X168072796Y-94170586D01*
X168032885Y-94182181D01*
X168030785Y-94183270D01*
X168028518Y-94183954D01*
X167991749Y-94203505D01*
X167954913Y-94222599D01*
X167953069Y-94224071D01*
X167950974Y-94225185D01*
X167918724Y-94251488D01*
X167886276Y-94277390D01*
X167882982Y-94280638D01*
X167882915Y-94280693D01*
X167882864Y-94280755D01*
X167881802Y-94281802D01*
X167381802Y-94781802D01*
X167355432Y-94813905D01*
X167328699Y-94845765D01*
X167327559Y-94847838D01*
X167326057Y-94849667D01*
X167306407Y-94886314D01*
X167286389Y-94922726D01*
X167285674Y-94924980D01*
X167284555Y-94927067D01*
X167272390Y-94966857D01*
X167259834Y-95006440D01*
X167259571Y-95008789D01*
X167258878Y-95011054D01*
X167254676Y-95052424D01*
X167250044Y-95093717D01*
X167250012Y-95098344D01*
X167250003Y-95098429D01*
X167250010Y-95098508D01*
X167250000Y-95100000D01*
X167250000Y-96000000D01*
X167254053Y-96041339D01*
X167257679Y-96082778D01*
X167258339Y-96085050D01*
X167258570Y-96087405D01*
X167270586Y-96127204D01*
X167282181Y-96167115D01*
X167283270Y-96169215D01*
X167283954Y-96171482D01*
X167303472Y-96208189D01*
X167322599Y-96245087D01*
X167324071Y-96246931D01*
X167325185Y-96249026D01*
X167351488Y-96281276D01*
X167377390Y-96313724D01*
X167380638Y-96317018D01*
X167380693Y-96317085D01*
X167380755Y-96317136D01*
X167381802Y-96318198D01*
X167750097Y-96686493D01*
X167749146Y-96754654D01*
X167772157Y-96880031D01*
X167819082Y-96998551D01*
X167888135Y-97105700D01*
X167976684Y-97197395D01*
X168081357Y-97270145D01*
X168198167Y-97321178D01*
X168322665Y-97348550D01*
X168414069Y-97350465D01*
X168981802Y-97918198D01*
X169013905Y-97944568D01*
X169045765Y-97971301D01*
X169047838Y-97972441D01*
X169049667Y-97973943D01*
X169086314Y-97993593D01*
X169122726Y-98013611D01*
X169124980Y-98014326D01*
X169127067Y-98015445D01*
X169166857Y-98027610D01*
X169206440Y-98040166D01*
X169208789Y-98040429D01*
X169211054Y-98041122D01*
X169252424Y-98045324D01*
X169293717Y-98049956D01*
X169298344Y-98049988D01*
X169298429Y-98049997D01*
X169298508Y-98049990D01*
X169300000Y-98050000D01*
X172514796Y-98050000D01*
X172536480Y-98082906D01*
X172611800Y-98147100D01*
X172702021Y-98187769D01*
X172800000Y-98201693D01*
X173600000Y-98201693D01*
X173655736Y-98197248D01*
X173750271Y-98167973D01*
X173798416Y-98136247D01*
X173834213Y-98160166D01*
X173897909Y-98186550D01*
X173965528Y-98200000D01*
X174262500Y-98200000D01*
X174350000Y-98112500D01*
X174350000Y-97650000D01*
X174450000Y-97650000D01*
X174450000Y-98112500D01*
X174537500Y-98200000D01*
X174834472Y-98200000D01*
X174902091Y-98186550D01*
X174965787Y-98160166D01*
X175023112Y-98121863D01*
X175071863Y-98073112D01*
X175110166Y-98015787D01*
X175136550Y-97952091D01*
X175150000Y-97884472D01*
X175150000Y-97737500D01*
X175062500Y-97650000D01*
X174450000Y-97650000D01*
X174350000Y-97650000D01*
X174330000Y-97650000D01*
X174330000Y-97550000D01*
X174350000Y-97550000D01*
X174350000Y-97087500D01*
X174450000Y-97087500D01*
X174450000Y-97550000D01*
X175062500Y-97550000D01*
X175150000Y-97462500D01*
X175150000Y-97437500D01*
X176125000Y-97437500D01*
X176125000Y-98234472D01*
X176138450Y-98302091D01*
X176164834Y-98365787D01*
X176203137Y-98423112D01*
X176251888Y-98471863D01*
X176309213Y-98510166D01*
X176372909Y-98536550D01*
X176440528Y-98550000D01*
X176962500Y-98550000D01*
X177050000Y-98462500D01*
X177050000Y-97350000D01*
X177150000Y-97350000D01*
X177150000Y-98462500D01*
X177237500Y-98550000D01*
X177759472Y-98550000D01*
X177827091Y-98536550D01*
X177890787Y-98510166D01*
X177948112Y-98471863D01*
X177996863Y-98423112D01*
X178035166Y-98365787D01*
X178061550Y-98302091D01*
X178075000Y-98234472D01*
X178075000Y-97437500D01*
X177987500Y-97350000D01*
X177150000Y-97350000D01*
X177050000Y-97350000D01*
X176212500Y-97350000D01*
X176125000Y-97437500D01*
X175150000Y-97437500D01*
X175150000Y-97315528D01*
X175136550Y-97247909D01*
X175110166Y-97184213D01*
X175071863Y-97126888D01*
X175023112Y-97078137D01*
X174965787Y-97039834D01*
X174902091Y-97013450D01*
X174834472Y-97000000D01*
X174537500Y-97000000D01*
X174450000Y-97087500D01*
X174350000Y-97087500D01*
X174262500Y-97000000D01*
X173965528Y-97000000D01*
X173897909Y-97013450D01*
X173834213Y-97039834D01*
X173799827Y-97062810D01*
X173788200Y-97052900D01*
X173697979Y-97012231D01*
X173600000Y-96998307D01*
X172800000Y-96998307D01*
X172744264Y-97002752D01*
X172649729Y-97032027D01*
X172567094Y-97086480D01*
X172512957Y-97150000D01*
X169486396Y-97150000D01*
X169048963Y-96712567D01*
X169050028Y-96636264D01*
X169025268Y-96511220D01*
X168994409Y-96436350D01*
X169006440Y-96440166D01*
X169008787Y-96440429D01*
X169011053Y-96441122D01*
X169052434Y-96445325D01*
X169093717Y-96449956D01*
X169098343Y-96449988D01*
X169098428Y-96449997D01*
X169098507Y-96449990D01*
X169100000Y-96450000D01*
X171948307Y-96450000D01*
X171948307Y-96600000D01*
X171952752Y-96655736D01*
X171982027Y-96750271D01*
X172036480Y-96832906D01*
X172111800Y-96897100D01*
X172202021Y-96937769D01*
X172300000Y-96951693D01*
X173300000Y-96951693D01*
X173355736Y-96947248D01*
X173450271Y-96917973D01*
X173532906Y-96863520D01*
X173597100Y-96788200D01*
X173637769Y-96697979D01*
X173651693Y-96600000D01*
X173651693Y-96137500D01*
X173950000Y-96137500D01*
X173950000Y-96634472D01*
X173963450Y-96702091D01*
X173989834Y-96765787D01*
X174028137Y-96823112D01*
X174076888Y-96871863D01*
X174134213Y-96910166D01*
X174197909Y-96936550D01*
X174265528Y-96950000D01*
X174662500Y-96950000D01*
X174750000Y-96862500D01*
X174750000Y-96050000D01*
X174850000Y-96050000D01*
X174850000Y-96862500D01*
X174937500Y-96950000D01*
X175334472Y-96950000D01*
X175402091Y-96936550D01*
X175465787Y-96910166D01*
X175523112Y-96871863D01*
X175571863Y-96823112D01*
X175610166Y-96765787D01*
X175636550Y-96702091D01*
X175650000Y-96634472D01*
X175650000Y-96137500D01*
X175562500Y-96050000D01*
X174850000Y-96050000D01*
X174750000Y-96050000D01*
X174037500Y-96050000D01*
X173950000Y-96137500D01*
X173651693Y-96137500D01*
X173651693Y-95400000D01*
X173648944Y-95365528D01*
X173950000Y-95365528D01*
X173950000Y-95862500D01*
X174037500Y-95950000D01*
X174750000Y-95950000D01*
X174750000Y-95137500D01*
X174850000Y-95137500D01*
X174850000Y-95950000D01*
X175562500Y-95950000D01*
X175650000Y-95862500D01*
X175650000Y-95365528D01*
X175636550Y-95297909D01*
X175610166Y-95234213D01*
X175571863Y-95176888D01*
X175523112Y-95128137D01*
X175465787Y-95089834D01*
X175402091Y-95063450D01*
X175334472Y-95050000D01*
X174937500Y-95050000D01*
X174850000Y-95137500D01*
X174750000Y-95137500D01*
X174662500Y-95050000D01*
X174265528Y-95050000D01*
X174197909Y-95063450D01*
X174134213Y-95089834D01*
X174076888Y-95128137D01*
X174028137Y-95176888D01*
X173989834Y-95234213D01*
X173963450Y-95297909D01*
X173950000Y-95365528D01*
X173648944Y-95365528D01*
X173647248Y-95344264D01*
X173617973Y-95249729D01*
X173563520Y-95167094D01*
X173488200Y-95102900D01*
X173397979Y-95062231D01*
X173300000Y-95048307D01*
X173250000Y-95048307D01*
X173250000Y-94901693D01*
X173600000Y-94901693D01*
X173655736Y-94897248D01*
X173750271Y-94867973D01*
X173798416Y-94836247D01*
X173834213Y-94860166D01*
X173897909Y-94886550D01*
X173965528Y-94900000D01*
X174262500Y-94900000D01*
X174350000Y-94812500D01*
X174350000Y-94350000D01*
X174330000Y-94350000D01*
X174330000Y-94250000D01*
X174350000Y-94250000D01*
X174350000Y-94230000D01*
X174450000Y-94230000D01*
X174450000Y-94250000D01*
X174470000Y-94250000D01*
X174470000Y-94350000D01*
X174450000Y-94350000D01*
X174450000Y-94812500D01*
X174537500Y-94900000D01*
X174834472Y-94900000D01*
X174902091Y-94886550D01*
X174965787Y-94860166D01*
X175023112Y-94821863D01*
X175071863Y-94773112D01*
X175110166Y-94715787D01*
X175136550Y-94652091D01*
X175150000Y-94584472D01*
X175150000Y-94496394D01*
X175724999Y-95071393D01*
X175724999Y-95840001D01*
X175729052Y-95881340D01*
X175732678Y-95922779D01*
X175733338Y-95925051D01*
X175733569Y-95927406D01*
X175745585Y-95967205D01*
X175757180Y-96007116D01*
X175758269Y-96009216D01*
X175758953Y-96011483D01*
X175778504Y-96048252D01*
X175797598Y-96085088D01*
X175799070Y-96086932D01*
X175800184Y-96089027D01*
X175826487Y-96121277D01*
X175852389Y-96153725D01*
X175855637Y-96157019D01*
X175855692Y-96157086D01*
X175855754Y-96157137D01*
X175856801Y-96158199D01*
X176066800Y-96368198D01*
X176098925Y-96394586D01*
X176125000Y-96416465D01*
X176125000Y-97162500D01*
X176212500Y-97250000D01*
X177050000Y-97250000D01*
X177050000Y-97230000D01*
X177150000Y-97230000D01*
X177150000Y-97250000D01*
X177987500Y-97250000D01*
X178075000Y-97162500D01*
X178075000Y-96524797D01*
X179014006Y-96790849D01*
X178971436Y-96805299D01*
X178911729Y-96839772D01*
X178859894Y-96885230D01*
X178817924Y-96939927D01*
X178787431Y-97001761D01*
X178769587Y-97068355D01*
X178464691Y-98206243D01*
X178526563Y-98313408D01*
X179214785Y-98497817D01*
X179219961Y-98478499D01*
X179316553Y-98504380D01*
X179311377Y-98523699D01*
X179999599Y-98708107D01*
X180106765Y-98646235D01*
X180253307Y-98099334D01*
X180254828Y-98107110D01*
X180255723Y-98121539D01*
X180263241Y-98150097D01*
X180268917Y-98179105D01*
X180274401Y-98192495D01*
X180278080Y-98206470D01*
X180291001Y-98233024D01*
X180302204Y-98260377D01*
X180310181Y-98272442D01*
X180316507Y-98285442D01*
X180319831Y-98290773D01*
X181269831Y-99790773D01*
X181289114Y-99815501D01*
X181306989Y-99841279D01*
X181316070Y-99850067D01*
X181323838Y-99860029D01*
X181347559Y-99880542D01*
X181370098Y-99902356D01*
X181380710Y-99909211D01*
X181390268Y-99917477D01*
X181417530Y-99932997D01*
X181443869Y-99950012D01*
X181455610Y-99954675D01*
X181466591Y-99960927D01*
X181496338Y-99970853D01*
X181525490Y-99982432D01*
X181531540Y-99984128D01*
X188938771Y-102005327D01*
X188952204Y-102007614D01*
X188965207Y-102011689D01*
X188995408Y-102014970D01*
X189025349Y-102020068D01*
X189038966Y-102019703D01*
X189052519Y-102021175D01*
X189082788Y-102018527D01*
X189113143Y-102017712D01*
X189126434Y-102014708D01*
X189140009Y-102013520D01*
X189169173Y-102005047D01*
X189198806Y-101998349D01*
X189199006Y-101998260D01*
X189099934Y-102368001D01*
X188872062Y-102291959D01*
X188871967Y-102291937D01*
X188869026Y-102290959D01*
X188297001Y-102105138D01*
X188296902Y-102105116D01*
X188293939Y-102104157D01*
X187722112Y-101923469D01*
X187722016Y-101923449D01*
X187719024Y-101922507D01*
X187147119Y-101746867D01*
X187147020Y-101746847D01*
X187144017Y-101745928D01*
X186571755Y-101575242D01*
X186571661Y-101575224D01*
X186568638Y-101574326D01*
X185995744Y-101408507D01*
X185995647Y-101408489D01*
X185992620Y-101407617D01*
X185418814Y-101246572D01*
X185418722Y-101246556D01*
X185415687Y-101245707D01*
X184840692Y-101089349D01*
X184840599Y-101089333D01*
X184837568Y-101088513D01*
X184261102Y-100936748D01*
X184261004Y-100936732D01*
X184257985Y-100935941D01*
X183679778Y-100788683D01*
X183679684Y-100788669D01*
X183676675Y-100787906D01*
X183096443Y-100645063D01*
X183096340Y-100645048D01*
X183093358Y-100644317D01*
X182510823Y-100505800D01*
X182510720Y-100505786D01*
X182507760Y-100505085D01*
X181922647Y-100370807D01*
X181922549Y-100370794D01*
X181919617Y-100370124D01*
X181331649Y-100239988D01*
X181331554Y-100239977D01*
X181328650Y-100239336D01*
X180737546Y-100113256D01*
X180737449Y-100113245D01*
X180734583Y-100112636D01*
X180140068Y-99990525D01*
X180139970Y-99990515D01*
X180137150Y-99989937D01*
X179766358Y-99916649D01*
X180035589Y-98911865D01*
X179973717Y-98804700D01*
X179285495Y-98620291D01*
X179280319Y-98639609D01*
X179183727Y-98613728D01*
X179188903Y-98594409D01*
X178500681Y-98410001D01*
X178393515Y-98471873D01*
X178090092Y-99604264D01*
X177710942Y-99537767D01*
X177710844Y-99537760D01*
X177708230Y-99537301D01*
X177092484Y-99433670D01*
X177092388Y-99433663D01*
X177089834Y-99433233D01*
X176469008Y-99333030D01*
X176468914Y-99333024D01*
X176466425Y-99332621D01*
X175840240Y-99235751D01*
X175840140Y-99235745D01*
X175837719Y-99235369D01*
X175205900Y-99141748D01*
X175205799Y-99141743D01*
X175203450Y-99141393D01*
X174565717Y-99050926D01*
X174565623Y-99050922D01*
X174563335Y-99050595D01*
X173919414Y-98963197D01*
X173919314Y-98963193D01*
X173917104Y-98962891D01*
X173266712Y-98878470D01*
X173266623Y-98878467D01*
X173264478Y-98878186D01*
X172607340Y-98796649D01*
X172607243Y-98796647D01*
X172605177Y-98796387D01*
X171941015Y-98717650D01*
X171940928Y-98717648D01*
X171938931Y-98717408D01*
X171267468Y-98641374D01*
X171267381Y-98641373D01*
X171265456Y-98641151D01*
X170586410Y-98567737D01*
X170586319Y-98567736D01*
X170584477Y-98567533D01*
X169897576Y-98496644D01*
X169897485Y-98496644D01*
X169895717Y-98496457D01*
X169200678Y-98428007D01*
X169200596Y-98428007D01*
X169198896Y-98427835D01*
X168495443Y-98361733D01*
X168495355Y-98361733D01*
X168493739Y-98361577D01*
X167781597Y-98297730D01*
X167781518Y-98297731D01*
X167779967Y-98297587D01*
X167058853Y-98235907D01*
X167058776Y-98235908D01*
X167057298Y-98235777D01*
X166326937Y-98176177D01*
X166326861Y-98176178D01*
X166325458Y-98176059D01*
X165593842Y-98119088D01*
X165523256Y-98110634D01*
X165469754Y-98099235D01*
X165423685Y-98084715D01*
X165384082Y-98067788D01*
X165349992Y-98048941D01*
X165320423Y-98028395D01*
X165294562Y-98006194D01*
X165271805Y-97982270D01*
X165251723Y-97956476D01*
X165234162Y-97928792D01*
X165219062Y-97899210D01*
X165206496Y-97867911D01*
X165196624Y-97835321D01*
X165189526Y-97801771D01*
X165185258Y-97767754D01*
X165183489Y-97725875D01*
X165183490Y-97516747D01*
X165183490Y-97081610D01*
X165183489Y-96864042D01*
X165183490Y-96646481D01*
X165183490Y-96211344D01*
X165183489Y-95993776D01*
X165183490Y-95776215D01*
X165183490Y-95341078D01*
X165183489Y-95123510D01*
X165183490Y-94905948D01*
X165183490Y-94688377D01*
X165183489Y-94470811D01*
X165183490Y-94261111D01*
X165184568Y-94233661D01*
X165187177Y-94210941D01*
X165191892Y-94186384D01*
X165198899Y-94160669D01*
X165208331Y-94134388D01*
X165220362Y-94107832D01*
X165235148Y-94081308D01*
X165252918Y-94055014D01*
X165274079Y-94028962D01*
X165299169Y-94003172D01*
X165328901Y-93977669D01*
X165364141Y-93952561D01*
X165405829Y-93928114D01*
X165454977Y-93904736D01*
X165512508Y-93883034D01*
X165586112Y-93861772D01*
X166316823Y-93681788D01*
X167044350Y-93505625D01*
X167763333Y-93334653D01*
X168472771Y-93169157D01*
X169174011Y-93008851D01*
X169866292Y-92853955D01*
X170550811Y-92704232D01*
X171227286Y-92559780D01*
X171896370Y-92420494D01*
X172557832Y-92286449D01*
X173212478Y-92157519D01*
X173860301Y-92033726D01*
X174501552Y-91915053D01*
X175136785Y-91801422D01*
X175766000Y-91692859D01*
X176389673Y-91589298D01*
X177007850Y-91490755D01*
X177620974Y-91397175D01*
X178229316Y-91308532D01*
X178833171Y-91224800D01*
X179432613Y-91145982D01*
X180028318Y-91071992D01*
X180620359Y-91002837D01*
X181208863Y-90938504D01*
X181794283Y-90878951D01*
X182376904Y-90824147D01*
X182957064Y-90774065D01*
X183534834Y-90728694D01*
X184110580Y-90687998D01*
X184684830Y-90651942D01*
X185257499Y-90620519D01*
X185829136Y-90593685D01*
X186399849Y-90571430D01*
X186970004Y-90553720D01*
X187540016Y-90540526D01*
X188109808Y-90531828D01*
X188680060Y-90527589D01*
X189250813Y-90527810D01*
X189250813Y-90527810D01*
G37*
X189250813Y-90527810D02*
X189822484Y-90532442D01*
X190395150Y-90541482D01*
X190969350Y-90554901D01*
X191545250Y-90572674D01*
X192123265Y-90594751D01*
X192703164Y-90621111D01*
X193286014Y-90651775D01*
X193871477Y-90686682D01*
X194460201Y-90725824D01*
X195052141Y-90769160D01*
X195647813Y-90816680D01*
X196247486Y-90868357D01*
X196851519Y-90924179D01*
X197459770Y-90984080D01*
X198073145Y-91048101D01*
X198691375Y-91116156D01*
X199314921Y-91188245D01*
X199944311Y-91264372D01*
X200579531Y-91344479D01*
X201220899Y-91428544D01*
X201868974Y-91516580D01*
X202523206Y-91608452D01*
X203185214Y-91704320D01*
X203854059Y-91803992D01*
X204530580Y-91907517D01*
X204604755Y-91919152D01*
X204168800Y-92355107D01*
X204168800Y-92478851D01*
X204672614Y-92982664D01*
X204686756Y-92968522D01*
X204757467Y-93039233D01*
X204743325Y-93053375D01*
X205247138Y-93557189D01*
X205370882Y-93557189D01*
X206009782Y-92918289D01*
X210180402Y-97091527D01*
X209542811Y-97729118D01*
X209542811Y-97852862D01*
X210046625Y-98356675D01*
X210060767Y-98342533D01*
X210131478Y-98413244D01*
X210117336Y-98427386D01*
X210621149Y-98931200D01*
X210744893Y-98931200D01*
X211133573Y-98542520D01*
X211133714Y-103057621D01*
X210744893Y-102668800D01*
X210621149Y-102668800D01*
X210117336Y-103172614D01*
X210131478Y-103186756D01*
X210060767Y-103257467D01*
X210046625Y-103243325D01*
X209542811Y-103747138D01*
X209542811Y-103870882D01*
X210174310Y-104502381D01*
X206001052Y-108672981D01*
X205370882Y-108042811D01*
X205247138Y-108042811D01*
X204743325Y-108546625D01*
X204757467Y-108560767D01*
X204686756Y-108631478D01*
X204672614Y-108617336D01*
X204658472Y-108631478D01*
X204587761Y-108560767D01*
X204601903Y-108546625D01*
X204587761Y-108532483D01*
X204658472Y-108461772D01*
X204672614Y-108475914D01*
X205176428Y-107972101D01*
X205176428Y-107848357D01*
X204460491Y-107132420D01*
X207468646Y-104124264D01*
X208336729Y-103256181D01*
X208402116Y-103214685D01*
X208494428Y-103126778D01*
X208567906Y-103022616D01*
X208606920Y-102934991D01*
X209348357Y-103676428D01*
X209472101Y-103676428D01*
X209975914Y-103172614D01*
X208871060Y-102067760D01*
X208747316Y-102067760D01*
X208514826Y-102300250D01*
X208506151Y-102287193D01*
X208416330Y-102196743D01*
X208310652Y-102125462D01*
X208193140Y-102076065D01*
X208068272Y-102050433D01*
X207940804Y-102049543D01*
X207815590Y-102073429D01*
X207697401Y-102121181D01*
X207590737Y-102190979D01*
X207499662Y-102280166D01*
X207439264Y-102368375D01*
X207085616Y-102014727D01*
X206961872Y-102014727D01*
X206599480Y-102377119D01*
X206613622Y-102391261D01*
X206542911Y-102461972D01*
X206528769Y-102447830D01*
X206514627Y-102461972D01*
X206443916Y-102391261D01*
X206458058Y-102377119D01*
X205706757Y-101625818D01*
X205583014Y-101625818D01*
X205443733Y-101765098D01*
X205405430Y-101822423D01*
X205379047Y-101886119D01*
X205365596Y-101953738D01*
X205365596Y-102022682D01*
X205379047Y-102090302D01*
X205394305Y-102127139D01*
X205374559Y-102116731D01*
X205277623Y-102096803D01*
X205178972Y-102104670D01*
X205086419Y-102139708D01*
X205007291Y-102199144D01*
X204583027Y-102623408D01*
X204546759Y-102665963D01*
X204527729Y-102702067D01*
X204518659Y-102672025D01*
X204507070Y-102632133D01*
X204505981Y-102630032D01*
X204505297Y-102627767D01*
X204485767Y-102591037D01*
X204466652Y-102554161D01*
X204465178Y-102552315D01*
X204464066Y-102550223D01*
X204437781Y-102517995D01*
X204411861Y-102485525D01*
X204408613Y-102482231D01*
X204408558Y-102482164D01*
X204408496Y-102482113D01*
X204407449Y-102481051D01*
X203903602Y-101977204D01*
X204002116Y-101914685D01*
X204094428Y-101826778D01*
X204167906Y-101722616D01*
X204219754Y-101606165D01*
X204247995Y-101481861D01*
X204248699Y-101431364D01*
X205777468Y-101431364D01*
X205777468Y-101555107D01*
X206528769Y-102306408D01*
X206891161Y-101944016D01*
X206891161Y-101873305D01*
X208941771Y-101873305D01*
X208941771Y-101997049D01*
X210046625Y-103101903D01*
X210550439Y-102598090D01*
X210550439Y-102474346D01*
X209717447Y-101641354D01*
X209668696Y-101592604D01*
X209611372Y-101554300D01*
X209547676Y-101527917D01*
X209480056Y-101514466D01*
X209411112Y-101514466D01*
X209343493Y-101527917D01*
X209279797Y-101554300D01*
X209222472Y-101592604D01*
X208941771Y-101873305D01*
X206891161Y-101873305D01*
X206891161Y-101820272D01*
X206362972Y-101292083D01*
X206305648Y-101253780D01*
X206241952Y-101227397D01*
X206174332Y-101213946D01*
X206105388Y-101213946D01*
X206037769Y-101227397D01*
X205974073Y-101253780D01*
X205916748Y-101292083D01*
X205777468Y-101431364D01*
X204248699Y-101431364D01*
X204249318Y-101387078D01*
X204284703Y-101351693D01*
X204500000Y-101351693D01*
X204555736Y-101347248D01*
X204650271Y-101317973D01*
X204698416Y-101286247D01*
X204734213Y-101310166D01*
X204797909Y-101336550D01*
X204865528Y-101350000D01*
X205162500Y-101350000D01*
X205250000Y-101262500D01*
X205250000Y-100800000D01*
X205350000Y-100800000D01*
X205350000Y-101262500D01*
X205437500Y-101350000D01*
X205734472Y-101350000D01*
X205802091Y-101336550D01*
X205865787Y-101310166D01*
X205923112Y-101271863D01*
X205971863Y-101223112D01*
X206010166Y-101165787D01*
X206036550Y-101102091D01*
X206050000Y-101034472D01*
X206050000Y-100887500D01*
X205962500Y-100800000D01*
X205350000Y-100800000D01*
X205250000Y-100800000D01*
X205230000Y-100800000D01*
X205230000Y-100700000D01*
X205250000Y-100700000D01*
X205250000Y-100680000D01*
X205350000Y-100680000D01*
X205350000Y-100700000D01*
X205962500Y-100700000D01*
X206050000Y-100612500D01*
X206050000Y-100465528D01*
X206036550Y-100397909D01*
X206024046Y-100367721D01*
X206118213Y-100387080D01*
X206216864Y-100379213D01*
X206309417Y-100344175D01*
X206388545Y-100284739D01*
X207070333Y-99602951D01*
X208941771Y-99602951D01*
X208941771Y-99726695D01*
X209222472Y-100007396D01*
X209279797Y-100045700D01*
X209343493Y-100072083D01*
X209411112Y-100085534D01*
X209480056Y-100085534D01*
X209547676Y-100072083D01*
X209611372Y-100045700D01*
X209668696Y-100007396D01*
X209717447Y-99958646D01*
X210550439Y-99125654D01*
X210550439Y-99001910D01*
X210046625Y-98498097D01*
X208941771Y-99602951D01*
X207070333Y-99602951D01*
X207440891Y-99232393D01*
X207488135Y-99305700D01*
X207576684Y-99397395D01*
X207681357Y-99470145D01*
X207798167Y-99521178D01*
X207922665Y-99548550D01*
X208050109Y-99551220D01*
X208175644Y-99529085D01*
X208294488Y-99482988D01*
X208402116Y-99414685D01*
X208494428Y-99326778D01*
X208514045Y-99298969D01*
X208747316Y-99532240D01*
X208871060Y-99532240D01*
X209975914Y-98427386D01*
X209472101Y-97923572D01*
X209348357Y-97923572D01*
X208606425Y-98665504D01*
X208576693Y-98593367D01*
X208506151Y-98487193D01*
X208416330Y-98396743D01*
X208334370Y-98341460D01*
X206352010Y-96359100D01*
X206309187Y-96323925D01*
X206266726Y-96288296D01*
X206263962Y-96286777D01*
X206261523Y-96284773D01*
X206212645Y-96258565D01*
X206164111Y-96231883D01*
X206161106Y-96230930D01*
X206158324Y-96229438D01*
X206105306Y-96213229D01*
X206052493Y-96196475D01*
X206049358Y-96196123D01*
X206046341Y-96195201D01*
X205991242Y-96189605D01*
X205936123Y-96183422D01*
X205929951Y-96183379D01*
X205929840Y-96183368D01*
X205929737Y-96183378D01*
X205927746Y-96183364D01*
X205432753Y-96183364D01*
X205377583Y-96188773D01*
X205322382Y-96193603D01*
X205319353Y-96194483D01*
X205316212Y-96194791D01*
X205263115Y-96210822D01*
X205209932Y-96226273D01*
X205207134Y-96227723D01*
X205204111Y-96228636D01*
X205155141Y-96254674D01*
X205105969Y-96280162D01*
X205103504Y-96282129D01*
X205100718Y-96283611D01*
X205083113Y-96297969D01*
X205072907Y-96298783D01*
X205011216Y-96322138D01*
X205026841Y-96284414D01*
X205040292Y-96216794D01*
X205040292Y-96147850D01*
X205026841Y-96080231D01*
X205000458Y-96016535D01*
X204962155Y-95959210D01*
X204822874Y-95819930D01*
X204699131Y-95819930D01*
X203947830Y-96571231D01*
X203961972Y-96585373D01*
X203891261Y-96656084D01*
X203877119Y-96641942D01*
X203125818Y-97393243D01*
X203125818Y-97396365D01*
X202846447Y-97675736D01*
X202860589Y-97689878D01*
X202789878Y-97760589D01*
X202775736Y-97746447D01*
X202448699Y-98073484D01*
X202448699Y-98197227D01*
X202632538Y-98381066D01*
X202265297Y-98748307D01*
X202001693Y-98748307D01*
X202001693Y-97900000D01*
X201997248Y-97844264D01*
X201993234Y-97831304D01*
X202046674Y-97827042D01*
X202069770Y-97818298D01*
X202254245Y-98002773D01*
X202377988Y-98002773D01*
X202705025Y-97675736D01*
X202690883Y-97661594D01*
X202761594Y-97590883D01*
X202775736Y-97605025D01*
X203102773Y-97277988D01*
X203102773Y-97274866D01*
X203806408Y-96571231D01*
X203792266Y-96557089D01*
X203862977Y-96486378D01*
X203877119Y-96500520D01*
X204628420Y-95749219D01*
X204628420Y-95625476D01*
X204509027Y-95506082D01*
X204567906Y-95422616D01*
X204619754Y-95306165D01*
X204647995Y-95181861D01*
X204650028Y-95036264D01*
X204625268Y-94911220D01*
X204576693Y-94793367D01*
X204506151Y-94687193D01*
X204416330Y-94596743D01*
X204365568Y-94562503D01*
X205176428Y-93751643D01*
X205176428Y-93627899D01*
X204672614Y-93124086D01*
X203567760Y-94228940D01*
X203567760Y-94352684D01*
X203725076Y-94510000D01*
X203697401Y-94521181D01*
X203590737Y-94590979D01*
X203499662Y-94680166D01*
X203427645Y-94785345D01*
X203377428Y-94902509D01*
X203350925Y-95027195D01*
X203349715Y-95113889D01*
X203090578Y-95373026D01*
X203051977Y-95365091D01*
X202953326Y-95372958D01*
X202885358Y-95398689D01*
X202941609Y-95318948D01*
X203073221Y-95023341D01*
X203144910Y-94707800D01*
X203150071Y-94338209D01*
X203087220Y-94020790D01*
X202963913Y-93721624D01*
X202896358Y-93619944D01*
X203014466Y-93619944D01*
X203014466Y-93688888D01*
X203027917Y-93756507D01*
X203054300Y-93820203D01*
X203092604Y-93877528D01*
X203373305Y-94158229D01*
X203497049Y-94158229D01*
X204601903Y-93053375D01*
X204098090Y-92549561D01*
X203974346Y-92549561D01*
X203141354Y-93382553D01*
X203092604Y-93431304D01*
X203054300Y-93488628D01*
X203027917Y-93552324D01*
X203014466Y-93619944D01*
X202896358Y-93619944D01*
X202784846Y-93452106D01*
X202556839Y-93222501D01*
X202288577Y-93041557D01*
X201990279Y-92916164D01*
X201673307Y-92851099D01*
X201349733Y-92848840D01*
X201031882Y-92909473D01*
X200731863Y-93030689D01*
X200461101Y-93207870D01*
X200229911Y-93434268D01*
X200047098Y-93701260D01*
X199919625Y-93998676D01*
X199852349Y-94315186D01*
X199847831Y-94638737D01*
X199906243Y-94957002D01*
X200025362Y-95257861D01*
X200178312Y-95495193D01*
X199136542Y-94453423D01*
X199203148Y-94468067D01*
X199330592Y-94470737D01*
X199456127Y-94448602D01*
X199574971Y-94402505D01*
X199682599Y-94334202D01*
X199774911Y-94246295D01*
X199848389Y-94142133D01*
X199900237Y-94025682D01*
X199928478Y-93901378D01*
X199930511Y-93755781D01*
X199905751Y-93630737D01*
X199857176Y-93512884D01*
X199786634Y-93406710D01*
X199696813Y-93316260D01*
X199591135Y-93244979D01*
X199527886Y-93218392D01*
X197744650Y-91435156D01*
X197701827Y-91399981D01*
X197659366Y-91364352D01*
X197656602Y-91362833D01*
X197654163Y-91360829D01*
X197605285Y-91334621D01*
X197556751Y-91307939D01*
X197553746Y-91306986D01*
X197550964Y-91305494D01*
X197497946Y-91289285D01*
X197445133Y-91272531D01*
X197441998Y-91272179D01*
X197438981Y-91271257D01*
X197383882Y-91265661D01*
X197328763Y-91259478D01*
X197322591Y-91259435D01*
X197322480Y-91259424D01*
X197322377Y-91259434D01*
X197320386Y-91259420D01*
X186240580Y-91259420D01*
X186185451Y-91264825D01*
X186130209Y-91269659D01*
X186127180Y-91270539D01*
X186124039Y-91270847D01*
X186070975Y-91286868D01*
X186017760Y-91302328D01*
X186014959Y-91303780D01*
X186011938Y-91304692D01*
X185963004Y-91330711D01*
X185913797Y-91356217D01*
X185911331Y-91358186D01*
X185908545Y-91359667D01*
X185865614Y-91394681D01*
X185822281Y-91429273D01*
X185817889Y-91433604D01*
X185817799Y-91433678D01*
X185817730Y-91433762D01*
X185816316Y-91435156D01*
X185451472Y-91800000D01*
X179125000Y-91800000D01*
X179069830Y-91805409D01*
X179014629Y-91810239D01*
X179011600Y-91811119D01*
X179008459Y-91811427D01*
X178955362Y-91827458D01*
X178902179Y-91842909D01*
X178899381Y-91844359D01*
X178896358Y-91845272D01*
X178847388Y-91871310D01*
X178798216Y-91896798D01*
X178795751Y-91898765D01*
X178792965Y-91900247D01*
X178750022Y-91935270D01*
X178706700Y-91969854D01*
X178702309Y-91974184D01*
X178702219Y-91974258D01*
X178702150Y-91974342D01*
X178700736Y-91975736D01*
X177228165Y-93448307D01*
X176759703Y-93448307D01*
X176343186Y-93031790D01*
X176311083Y-93005420D01*
X176279223Y-92978687D01*
X176277150Y-92977547D01*
X176275321Y-92976045D01*
X176238674Y-92956395D01*
X176202262Y-92936377D01*
X176200008Y-92935662D01*
X176197921Y-92934543D01*
X176158131Y-92922378D01*
X176118548Y-92909822D01*
X176116199Y-92909559D01*
X176113934Y-92908866D01*
X176072564Y-92904664D01*
X176031271Y-92900032D01*
X176026644Y-92900000D01*
X176026559Y-92899991D01*
X176026480Y-92899998D01*
X176024988Y-92899988D01*
X173050012Y-92899988D01*
X173008673Y-92904041D01*
X172967234Y-92907667D01*
X172964962Y-92908327D01*
X172962607Y-92908558D01*
X172922808Y-92920574D01*
X172882897Y-92932169D01*
X172880797Y-92933258D01*
X172878530Y-92933942D01*
X172841761Y-92953493D01*
X172804925Y-92972587D01*
X172803081Y-92974059D01*
X172800986Y-92975173D01*
X172768736Y-93001476D01*
X172736288Y-93027378D01*
X172732994Y-93030626D01*
X172732927Y-93030681D01*
X172732876Y-93030743D01*
X172731814Y-93031790D01*
X171613604Y-94150000D01*
X168200000Y-94150000D01*
X168158661Y-94154053D01*
X168117222Y-94157679D01*
X168114950Y-94158339D01*
X168112595Y-94158570D01*
X168072796Y-94170586D01*
X168032885Y-94182181D01*
X168030785Y-94183270D01*
X168028518Y-94183954D01*
X167991749Y-94203505D01*
X167954913Y-94222599D01*
X167953069Y-94224071D01*
X167950974Y-94225185D01*
X167918724Y-94251488D01*
X167886276Y-94277390D01*
X167882982Y-94280638D01*
X167882915Y-94280693D01*
X167882864Y-94280755D01*
X167881802Y-94281802D01*
X167381802Y-94781802D01*
X167355432Y-94813905D01*
X167328699Y-94845765D01*
X167327559Y-94847838D01*
X167326057Y-94849667D01*
X167306407Y-94886314D01*
X167286389Y-94922726D01*
X167285674Y-94924980D01*
X167284555Y-94927067D01*
X167272390Y-94966857D01*
X167259834Y-95006440D01*
X167259571Y-95008789D01*
X167258878Y-95011054D01*
X167254676Y-95052424D01*
X167250044Y-95093717D01*
X167250012Y-95098344D01*
X167250003Y-95098429D01*
X167250010Y-95098508D01*
X167250000Y-95100000D01*
X167250000Y-96000000D01*
X167254053Y-96041339D01*
X167257679Y-96082778D01*
X167258339Y-96085050D01*
X167258570Y-96087405D01*
X167270586Y-96127204D01*
X167282181Y-96167115D01*
X167283270Y-96169215D01*
X167283954Y-96171482D01*
X167303472Y-96208189D01*
X167322599Y-96245087D01*
X167324071Y-96246931D01*
X167325185Y-96249026D01*
X167351488Y-96281276D01*
X167377390Y-96313724D01*
X167380638Y-96317018D01*
X167380693Y-96317085D01*
X167380755Y-96317136D01*
X167381802Y-96318198D01*
X167750097Y-96686493D01*
X167749146Y-96754654D01*
X167772157Y-96880031D01*
X167819082Y-96998551D01*
X167888135Y-97105700D01*
X167976684Y-97197395D01*
X168081357Y-97270145D01*
X168198167Y-97321178D01*
X168322665Y-97348550D01*
X168414069Y-97350465D01*
X168981802Y-97918198D01*
X169013905Y-97944568D01*
X169045765Y-97971301D01*
X169047838Y-97972441D01*
X169049667Y-97973943D01*
X169086314Y-97993593D01*
X169122726Y-98013611D01*
X169124980Y-98014326D01*
X169127067Y-98015445D01*
X169166857Y-98027610D01*
X169206440Y-98040166D01*
X169208789Y-98040429D01*
X169211054Y-98041122D01*
X169252424Y-98045324D01*
X169293717Y-98049956D01*
X169298344Y-98049988D01*
X169298429Y-98049997D01*
X169298508Y-98049990D01*
X169300000Y-98050000D01*
X172514796Y-98050000D01*
X172536480Y-98082906D01*
X172611800Y-98147100D01*
X172702021Y-98187769D01*
X172800000Y-98201693D01*
X173600000Y-98201693D01*
X173655736Y-98197248D01*
X173750271Y-98167973D01*
X173798416Y-98136247D01*
X173834213Y-98160166D01*
X173897909Y-98186550D01*
X173965528Y-98200000D01*
X174262500Y-98200000D01*
X174350000Y-98112500D01*
X174350000Y-97650000D01*
X174450000Y-97650000D01*
X174450000Y-98112500D01*
X174537500Y-98200000D01*
X174834472Y-98200000D01*
X174902091Y-98186550D01*
X174965787Y-98160166D01*
X175023112Y-98121863D01*
X175071863Y-98073112D01*
X175110166Y-98015787D01*
X175136550Y-97952091D01*
X175150000Y-97884472D01*
X175150000Y-97737500D01*
X175062500Y-97650000D01*
X174450000Y-97650000D01*
X174350000Y-97650000D01*
X174330000Y-97650000D01*
X174330000Y-97550000D01*
X174350000Y-97550000D01*
X174350000Y-97087500D01*
X174450000Y-97087500D01*
X174450000Y-97550000D01*
X175062500Y-97550000D01*
X175150000Y-97462500D01*
X175150000Y-97437500D01*
X176125000Y-97437500D01*
X176125000Y-98234472D01*
X176138450Y-98302091D01*
X176164834Y-98365787D01*
X176203137Y-98423112D01*
X176251888Y-98471863D01*
X176309213Y-98510166D01*
X176372909Y-98536550D01*
X176440528Y-98550000D01*
X176962500Y-98550000D01*
X177050000Y-98462500D01*
X177050000Y-97350000D01*
X177150000Y-97350000D01*
X177150000Y-98462500D01*
X177237500Y-98550000D01*
X177759472Y-98550000D01*
X177827091Y-98536550D01*
X177890787Y-98510166D01*
X177948112Y-98471863D01*
X177996863Y-98423112D01*
X178035166Y-98365787D01*
X178061550Y-98302091D01*
X178075000Y-98234472D01*
X178075000Y-97437500D01*
X177987500Y-97350000D01*
X177150000Y-97350000D01*
X177050000Y-97350000D01*
X176212500Y-97350000D01*
X176125000Y-97437500D01*
X175150000Y-97437500D01*
X175150000Y-97315528D01*
X175136550Y-97247909D01*
X175110166Y-97184213D01*
X175071863Y-97126888D01*
X175023112Y-97078137D01*
X174965787Y-97039834D01*
X174902091Y-97013450D01*
X174834472Y-97000000D01*
X174537500Y-97000000D01*
X174450000Y-97087500D01*
X174350000Y-97087500D01*
X174262500Y-97000000D01*
X173965528Y-97000000D01*
X173897909Y-97013450D01*
X173834213Y-97039834D01*
X173799827Y-97062810D01*
X173788200Y-97052900D01*
X173697979Y-97012231D01*
X173600000Y-96998307D01*
X172800000Y-96998307D01*
X172744264Y-97002752D01*
X172649729Y-97032027D01*
X172567094Y-97086480D01*
X172512957Y-97150000D01*
X169486396Y-97150000D01*
X169048963Y-96712567D01*
X169050028Y-96636264D01*
X169025268Y-96511220D01*
X168994409Y-96436350D01*
X169006440Y-96440166D01*
X169008787Y-96440429D01*
X169011053Y-96441122D01*
X169052434Y-96445325D01*
X169093717Y-96449956D01*
X169098343Y-96449988D01*
X169098428Y-96449997D01*
X169098507Y-96449990D01*
X169100000Y-96450000D01*
X171948307Y-96450000D01*
X171948307Y-96600000D01*
X171952752Y-96655736D01*
X171982027Y-96750271D01*
X172036480Y-96832906D01*
X172111800Y-96897100D01*
X172202021Y-96937769D01*
X172300000Y-96951693D01*
X173300000Y-96951693D01*
X173355736Y-96947248D01*
X173450271Y-96917973D01*
X173532906Y-96863520D01*
X173597100Y-96788200D01*
X173637769Y-96697979D01*
X173651693Y-96600000D01*
X173651693Y-96137500D01*
X173950000Y-96137500D01*
X173950000Y-96634472D01*
X173963450Y-96702091D01*
X173989834Y-96765787D01*
X174028137Y-96823112D01*
X174076888Y-96871863D01*
X174134213Y-96910166D01*
X174197909Y-96936550D01*
X174265528Y-96950000D01*
X174662500Y-96950000D01*
X174750000Y-96862500D01*
X174750000Y-96050000D01*
X174850000Y-96050000D01*
X174850000Y-96862500D01*
X174937500Y-96950000D01*
X175334472Y-96950000D01*
X175402091Y-96936550D01*
X175465787Y-96910166D01*
X175523112Y-96871863D01*
X175571863Y-96823112D01*
X175610166Y-96765787D01*
X175636550Y-96702091D01*
X175650000Y-96634472D01*
X175650000Y-96137500D01*
X175562500Y-96050000D01*
X174850000Y-96050000D01*
X174750000Y-96050000D01*
X174037500Y-96050000D01*
X173950000Y-96137500D01*
X173651693Y-96137500D01*
X173651693Y-95400000D01*
X173648944Y-95365528D01*
X173950000Y-95365528D01*
X173950000Y-95862500D01*
X174037500Y-95950000D01*
X174750000Y-95950000D01*
X174750000Y-95137500D01*
X174850000Y-95137500D01*
X174850000Y-95950000D01*
X175562500Y-95950000D01*
X175650000Y-95862500D01*
X175650000Y-95365528D01*
X175636550Y-95297909D01*
X175610166Y-95234213D01*
X175571863Y-95176888D01*
X175523112Y-95128137D01*
X175465787Y-95089834D01*
X175402091Y-95063450D01*
X175334472Y-95050000D01*
X174937500Y-95050000D01*
X174850000Y-95137500D01*
X174750000Y-95137500D01*
X174662500Y-95050000D01*
X174265528Y-95050000D01*
X174197909Y-95063450D01*
X174134213Y-95089834D01*
X174076888Y-95128137D01*
X174028137Y-95176888D01*
X173989834Y-95234213D01*
X173963450Y-95297909D01*
X173950000Y-95365528D01*
X173648944Y-95365528D01*
X173647248Y-95344264D01*
X173617973Y-95249729D01*
X173563520Y-95167094D01*
X173488200Y-95102900D01*
X173397979Y-95062231D01*
X173300000Y-95048307D01*
X173250000Y-95048307D01*
X173250000Y-94901693D01*
X173600000Y-94901693D01*
X173655736Y-94897248D01*
X173750271Y-94867973D01*
X173798416Y-94836247D01*
X173834213Y-94860166D01*
X173897909Y-94886550D01*
X173965528Y-94900000D01*
X174262500Y-94900000D01*
X174350000Y-94812500D01*
X174350000Y-94350000D01*
X174330000Y-94350000D01*
X174330000Y-94250000D01*
X174350000Y-94250000D01*
X174350000Y-94230000D01*
X174450000Y-94230000D01*
X174450000Y-94250000D01*
X174470000Y-94250000D01*
X174470000Y-94350000D01*
X174450000Y-94350000D01*
X174450000Y-94812500D01*
X174537500Y-94900000D01*
X174834472Y-94900000D01*
X174902091Y-94886550D01*
X174965787Y-94860166D01*
X175023112Y-94821863D01*
X175071863Y-94773112D01*
X175110166Y-94715787D01*
X175136550Y-94652091D01*
X175150000Y-94584472D01*
X175150000Y-94496394D01*
X175724999Y-95071393D01*
X175724999Y-95840001D01*
X175729052Y-95881340D01*
X175732678Y-95922779D01*
X175733338Y-95925051D01*
X175733569Y-95927406D01*
X175745585Y-95967205D01*
X175757180Y-96007116D01*
X175758269Y-96009216D01*
X175758953Y-96011483D01*
X175778504Y-96048252D01*
X175797598Y-96085088D01*
X175799070Y-96086932D01*
X175800184Y-96089027D01*
X175826487Y-96121277D01*
X175852389Y-96153725D01*
X175855637Y-96157019D01*
X175855692Y-96157086D01*
X175855754Y-96157137D01*
X175856801Y-96158199D01*
X176066800Y-96368198D01*
X176098925Y-96394586D01*
X176125000Y-96416465D01*
X176125000Y-97162500D01*
X176212500Y-97250000D01*
X177050000Y-97250000D01*
X177050000Y-97230000D01*
X177150000Y-97230000D01*
X177150000Y-97250000D01*
X177987500Y-97250000D01*
X178075000Y-97162500D01*
X178075000Y-96524797D01*
X179014006Y-96790849D01*
X178971436Y-96805299D01*
X178911729Y-96839772D01*
X178859894Y-96885230D01*
X178817924Y-96939927D01*
X178787431Y-97001761D01*
X178769587Y-97068355D01*
X178464691Y-98206243D01*
X178526563Y-98313408D01*
X179214785Y-98497817D01*
X179219961Y-98478499D01*
X179316553Y-98504380D01*
X179311377Y-98523699D01*
X179999599Y-98708107D01*
X180106765Y-98646235D01*
X180253307Y-98099334D01*
X180254828Y-98107110D01*
X180255723Y-98121539D01*
X180263241Y-98150097D01*
X180268917Y-98179105D01*
X180274401Y-98192495D01*
X180278080Y-98206470D01*
X180291001Y-98233024D01*
X180302204Y-98260377D01*
X180310181Y-98272442D01*
X180316507Y-98285442D01*
X180319831Y-98290773D01*
X181269831Y-99790773D01*
X181289114Y-99815501D01*
X181306989Y-99841279D01*
X181316070Y-99850067D01*
X181323838Y-99860029D01*
X181347559Y-99880542D01*
X181370098Y-99902356D01*
X181380710Y-99909211D01*
X181390268Y-99917477D01*
X181417530Y-99932997D01*
X181443869Y-99950012D01*
X181455610Y-99954675D01*
X181466591Y-99960927D01*
X181496338Y-99970853D01*
X181525490Y-99982432D01*
X181531540Y-99984128D01*
X188938771Y-102005327D01*
X188952204Y-102007614D01*
X188965207Y-102011689D01*
X188995408Y-102014970D01*
X189025349Y-102020068D01*
X189038966Y-102019703D01*
X189052519Y-102021175D01*
X189082788Y-102018527D01*
X189113143Y-102017712D01*
X189126434Y-102014708D01*
X189140009Y-102013520D01*
X189169173Y-102005047D01*
X189198806Y-101998349D01*
X189199006Y-101998260D01*
X189099934Y-102368001D01*
X188872062Y-102291959D01*
X188871967Y-102291937D01*
X188869026Y-102290959D01*
X188297001Y-102105138D01*
X188296902Y-102105116D01*
X188293939Y-102104157D01*
X187722112Y-101923469D01*
X187722016Y-101923449D01*
X187719024Y-101922507D01*
X187147119Y-101746867D01*
X187147020Y-101746847D01*
X187144017Y-101745928D01*
X186571755Y-101575242D01*
X186571661Y-101575224D01*
X186568638Y-101574326D01*
X185995744Y-101408507D01*
X185995647Y-101408489D01*
X185992620Y-101407617D01*
X185418814Y-101246572D01*
X185418722Y-101246556D01*
X185415687Y-101245707D01*
X184840692Y-101089349D01*
X184840599Y-101089333D01*
X184837568Y-101088513D01*
X184261102Y-100936748D01*
X184261004Y-100936732D01*
X184257985Y-100935941D01*
X183679778Y-100788683D01*
X183679684Y-100788669D01*
X183676675Y-100787906D01*
X183096443Y-100645063D01*
X183096340Y-100645048D01*
X183093358Y-100644317D01*
X182510823Y-100505800D01*
X182510720Y-100505786D01*
X182507760Y-100505085D01*
X181922647Y-100370807D01*
X181922549Y-100370794D01*
X181919617Y-100370124D01*
X181331649Y-100239988D01*
X181331554Y-100239977D01*
X181328650Y-100239336D01*
X180737546Y-100113256D01*
X180737449Y-100113245D01*
X180734583Y-100112636D01*
X180140068Y-99990525D01*
X180139970Y-99990515D01*
X180137150Y-99989937D01*
X179766358Y-99916649D01*
X180035589Y-98911865D01*
X179973717Y-98804700D01*
X179285495Y-98620291D01*
X179280319Y-98639609D01*
X179183727Y-98613728D01*
X179188903Y-98594409D01*
X178500681Y-98410001D01*
X178393515Y-98471873D01*
X178090092Y-99604264D01*
X177710942Y-99537767D01*
X177710844Y-99537760D01*
X177708230Y-99537301D01*
X177092484Y-99433670D01*
X177092388Y-99433663D01*
X177089834Y-99433233D01*
X176469008Y-99333030D01*
X176468914Y-99333024D01*
X176466425Y-99332621D01*
X175840240Y-99235751D01*
X175840140Y-99235745D01*
X175837719Y-99235369D01*
X175205900Y-99141748D01*
X175205799Y-99141743D01*
X175203450Y-99141393D01*
X174565717Y-99050926D01*
X174565623Y-99050922D01*
X174563335Y-99050595D01*
X173919414Y-98963197D01*
X173919314Y-98963193D01*
X173917104Y-98962891D01*
X173266712Y-98878470D01*
X173266623Y-98878467D01*
X173264478Y-98878186D01*
X172607340Y-98796649D01*
X172607243Y-98796647D01*
X172605177Y-98796387D01*
X171941015Y-98717650D01*
X171940928Y-98717648D01*
X171938931Y-98717408D01*
X171267468Y-98641374D01*
X171267381Y-98641373D01*
X171265456Y-98641151D01*
X170586410Y-98567737D01*
X170586319Y-98567736D01*
X170584477Y-98567533D01*
X169897576Y-98496644D01*
X169897485Y-98496644D01*
X169895717Y-98496457D01*
X169200678Y-98428007D01*
X169200596Y-98428007D01*
X169198896Y-98427835D01*
X168495443Y-98361733D01*
X168495355Y-98361733D01*
X168493739Y-98361577D01*
X167781597Y-98297730D01*
X167781518Y-98297731D01*
X167779967Y-98297587D01*
X167058853Y-98235907D01*
X167058776Y-98235908D01*
X167057298Y-98235777D01*
X166326937Y-98176177D01*
X166326861Y-98176178D01*
X166325458Y-98176059D01*
X165593842Y-98119088D01*
X165523256Y-98110634D01*
X165469754Y-98099235D01*
X165423685Y-98084715D01*
X165384082Y-98067788D01*
X165349992Y-98048941D01*
X165320423Y-98028395D01*
X165294562Y-98006194D01*
X165271805Y-97982270D01*
X165251723Y-97956476D01*
X165234162Y-97928792D01*
X165219062Y-97899210D01*
X165206496Y-97867911D01*
X165196624Y-97835321D01*
X165189526Y-97801771D01*
X165185258Y-97767754D01*
X165183489Y-97725875D01*
X165183490Y-97516747D01*
X165183490Y-97081610D01*
X165183489Y-96864042D01*
X165183490Y-96646481D01*
X165183490Y-96211344D01*
X165183489Y-95993776D01*
X165183490Y-95776215D01*
X165183490Y-95341078D01*
X165183489Y-95123510D01*
X165183490Y-94905948D01*
X165183490Y-94688377D01*
X165183489Y-94470811D01*
X165183490Y-94261111D01*
X165184568Y-94233661D01*
X165187177Y-94210941D01*
X165191892Y-94186384D01*
X165198899Y-94160669D01*
X165208331Y-94134388D01*
X165220362Y-94107832D01*
X165235148Y-94081308D01*
X165252918Y-94055014D01*
X165274079Y-94028962D01*
X165299169Y-94003172D01*
X165328901Y-93977669D01*
X165364141Y-93952561D01*
X165405829Y-93928114D01*
X165454977Y-93904736D01*
X165512508Y-93883034D01*
X165586112Y-93861772D01*
X166316823Y-93681788D01*
X167044350Y-93505625D01*
X167763333Y-93334653D01*
X168472771Y-93169157D01*
X169174011Y-93008851D01*
X169866292Y-92853955D01*
X170550811Y-92704232D01*
X171227286Y-92559780D01*
X171896370Y-92420494D01*
X172557832Y-92286449D01*
X173212478Y-92157519D01*
X173860301Y-92033726D01*
X174501552Y-91915053D01*
X175136785Y-91801422D01*
X175766000Y-91692859D01*
X176389673Y-91589298D01*
X177007850Y-91490755D01*
X177620974Y-91397175D01*
X178229316Y-91308532D01*
X178833171Y-91224800D01*
X179432613Y-91145982D01*
X180028318Y-91071992D01*
X180620359Y-91002837D01*
X181208863Y-90938504D01*
X181794283Y-90878951D01*
X182376904Y-90824147D01*
X182957064Y-90774065D01*
X183534834Y-90728694D01*
X184110580Y-90687998D01*
X184684830Y-90651942D01*
X185257499Y-90620519D01*
X185829136Y-90593685D01*
X186399849Y-90571430D01*
X186970004Y-90553720D01*
X187540016Y-90540526D01*
X188109808Y-90531828D01*
X188680060Y-90527589D01*
X189250813Y-90527810D01*
G36*
X191847519Y-100853822D02*
X191790737Y-100890979D01*
X191699662Y-100980166D01*
X191627645Y-101085345D01*
X191577428Y-101202509D01*
X191550925Y-101327195D01*
X191549146Y-101454654D01*
X191572157Y-101580031D01*
X191619082Y-101698551D01*
X191688135Y-101805700D01*
X191776684Y-101897395D01*
X191881357Y-101970145D01*
X191998167Y-102021178D01*
X192122665Y-102048550D01*
X192250109Y-102051220D01*
X192359174Y-102031989D01*
X196963115Y-104930767D01*
X196972157Y-104980031D01*
X197019082Y-105098551D01*
X197088135Y-105205700D01*
X197176684Y-105297395D01*
X197281357Y-105370145D01*
X197398167Y-105421178D01*
X197522665Y-105448550D01*
X197650109Y-105451220D01*
X197775644Y-105429085D01*
X197894488Y-105382988D01*
X198002116Y-105314685D01*
X198094428Y-105226778D01*
X198167906Y-105122616D01*
X198219754Y-105006165D01*
X198237346Y-104928733D01*
X201522101Y-107023481D01*
X201672886Y-107174266D01*
X201715709Y-107209441D01*
X201758170Y-107245070D01*
X201760934Y-107246589D01*
X201763373Y-107248593D01*
X201812251Y-107274801D01*
X201860785Y-107301483D01*
X201863790Y-107302436D01*
X201866572Y-107303928D01*
X201919590Y-107320137D01*
X201972403Y-107336891D01*
X201975538Y-107337243D01*
X201978555Y-107338165D01*
X202033654Y-107343761D01*
X202088773Y-107349944D01*
X202094945Y-107349987D01*
X202095056Y-107349998D01*
X202095159Y-107349988D01*
X202097150Y-107350002D01*
X203465074Y-107350002D01*
X203435176Y-107379900D01*
X203497047Y-107441771D01*
X203373305Y-107441771D01*
X203092604Y-107722472D01*
X203054300Y-107779797D01*
X203027917Y-107843493D01*
X203014466Y-107911112D01*
X203014466Y-107980056D01*
X203027917Y-108047676D01*
X203054300Y-108111372D01*
X203092604Y-108168696D01*
X203141354Y-108217447D01*
X203510220Y-108586313D01*
X203439378Y-108549854D01*
X203439299Y-108549823D01*
X203437794Y-108549043D01*
X202777626Y-108212996D01*
X202777544Y-108212964D01*
X202775974Y-108212160D01*
X202122671Y-107883405D01*
X202122587Y-107883373D01*
X202120952Y-107882545D01*
X201474240Y-107560993D01*
X201474163Y-107560964D01*
X201472451Y-107560108D01*
X200832052Y-107245670D01*
X200831963Y-107245637D01*
X200830192Y-107244763D01*
X200195827Y-106937350D01*
X200195739Y-106937317D01*
X200193898Y-106936422D01*
X199565291Y-106635943D01*
X199565201Y-106635910D01*
X199563291Y-106634994D01*
X198940161Y-106341358D01*
X198940063Y-106341323D01*
X198938089Y-106340390D01*
X198320161Y-106053511D01*
X198320073Y-106053480D01*
X198318022Y-106052525D01*
X197705016Y-105772306D01*
X197704919Y-105772273D01*
X197702803Y-105771303D01*
X197094443Y-105497661D01*
X197094350Y-105497630D01*
X197092163Y-105496644D01*
X196488169Y-105229486D01*
X196488068Y-105229453D01*
X196485820Y-105228457D01*
X195885917Y-104967693D01*
X195885827Y-104967664D01*
X195883501Y-104966652D01*
X195287408Y-104712192D01*
X195287312Y-104712162D01*
X195284925Y-104711142D01*
X194692366Y-104462899D01*
X194692272Y-104462870D01*
X194689820Y-104461843D01*
X194100518Y-104219722D01*
X194100420Y-104219693D01*
X194097910Y-104218661D01*
X193511585Y-103982573D01*
X193511487Y-103982544D01*
X193508914Y-103981509D01*
X192925287Y-103751368D01*
X192925194Y-103751341D01*
X192922560Y-103750304D01*
X192341357Y-103526019D01*
X192341262Y-103525993D01*
X192338577Y-103524958D01*
X191759519Y-103306437D01*
X191759418Y-103306410D01*
X191756687Y-103305381D01*
X191179498Y-103092534D01*
X191179401Y-103092509D01*
X191176617Y-103091484D01*
X190710974Y-102923815D01*
X190998846Y-101849461D01*
X190936974Y-101742296D01*
X190248752Y-101557887D01*
X190243576Y-101577205D01*
X190146984Y-101551324D01*
X190152160Y-101532005D01*
X190132842Y-101526829D01*
X190158723Y-101430237D01*
X190178042Y-101435413D01*
X190183218Y-101416095D01*
X190279810Y-101441976D01*
X190274634Y-101461295D01*
X190962856Y-101645703D01*
X191070022Y-101583831D01*
X191350548Y-100536895D01*
X191847519Y-100853822D01*
X191847519Y-100853822D01*
G37*
X191847519Y-100853822D02*
X191790737Y-100890979D01*
X191699662Y-100980166D01*
X191627645Y-101085345D01*
X191577428Y-101202509D01*
X191550925Y-101327195D01*
X191549146Y-101454654D01*
X191572157Y-101580031D01*
X191619082Y-101698551D01*
X191688135Y-101805700D01*
X191776684Y-101897395D01*
X191881357Y-101970145D01*
X191998167Y-102021178D01*
X192122665Y-102048550D01*
X192250109Y-102051220D01*
X192359174Y-102031989D01*
X196963115Y-104930767D01*
X196972157Y-104980031D01*
X197019082Y-105098551D01*
X197088135Y-105205700D01*
X197176684Y-105297395D01*
X197281357Y-105370145D01*
X197398167Y-105421178D01*
X197522665Y-105448550D01*
X197650109Y-105451220D01*
X197775644Y-105429085D01*
X197894488Y-105382988D01*
X198002116Y-105314685D01*
X198094428Y-105226778D01*
X198167906Y-105122616D01*
X198219754Y-105006165D01*
X198237346Y-104928733D01*
X201522101Y-107023481D01*
X201672886Y-107174266D01*
X201715709Y-107209441D01*
X201758170Y-107245070D01*
X201760934Y-107246589D01*
X201763373Y-107248593D01*
X201812251Y-107274801D01*
X201860785Y-107301483D01*
X201863790Y-107302436D01*
X201866572Y-107303928D01*
X201919590Y-107320137D01*
X201972403Y-107336891D01*
X201975538Y-107337243D01*
X201978555Y-107338165D01*
X202033654Y-107343761D01*
X202088773Y-107349944D01*
X202094945Y-107349987D01*
X202095056Y-107349998D01*
X202095159Y-107349988D01*
X202097150Y-107350002D01*
X203465074Y-107350002D01*
X203435176Y-107379900D01*
X203497047Y-107441771D01*
X203373305Y-107441771D01*
X203092604Y-107722472D01*
X203054300Y-107779797D01*
X203027917Y-107843493D01*
X203014466Y-107911112D01*
X203014466Y-107980056D01*
X203027917Y-108047676D01*
X203054300Y-108111372D01*
X203092604Y-108168696D01*
X203141354Y-108217447D01*
X203510220Y-108586313D01*
X203439378Y-108549854D01*
X203439299Y-108549823D01*
X203437794Y-108549043D01*
X202777626Y-108212996D01*
X202777544Y-108212964D01*
X202775974Y-108212160D01*
X202122671Y-107883405D01*
X202122587Y-107883373D01*
X202120952Y-107882545D01*
X201474240Y-107560993D01*
X201474163Y-107560964D01*
X201472451Y-107560108D01*
X200832052Y-107245670D01*
X200831963Y-107245637D01*
X200830192Y-107244763D01*
X200195827Y-106937350D01*
X200195739Y-106937317D01*
X200193898Y-106936422D01*
X199565291Y-106635943D01*
X199565201Y-106635910D01*
X199563291Y-106634994D01*
X198940161Y-106341358D01*
X198940063Y-106341323D01*
X198938089Y-106340390D01*
X198320161Y-106053511D01*
X198320073Y-106053480D01*
X198318022Y-106052525D01*
X197705016Y-105772306D01*
X197704919Y-105772273D01*
X197702803Y-105771303D01*
X197094443Y-105497661D01*
X197094350Y-105497630D01*
X197092163Y-105496644D01*
X196488169Y-105229486D01*
X196488068Y-105229453D01*
X196485820Y-105228457D01*
X195885917Y-104967693D01*
X195885827Y-104967664D01*
X195883501Y-104966652D01*
X195287408Y-104712192D01*
X195287312Y-104712162D01*
X195284925Y-104711142D01*
X194692366Y-104462899D01*
X194692272Y-104462870D01*
X194689820Y-104461843D01*
X194100518Y-104219722D01*
X194100420Y-104219693D01*
X194097910Y-104218661D01*
X193511585Y-103982573D01*
X193511487Y-103982544D01*
X193508914Y-103981509D01*
X192925287Y-103751368D01*
X192925194Y-103751341D01*
X192922560Y-103750304D01*
X192341357Y-103526019D01*
X192341262Y-103525993D01*
X192338577Y-103524958D01*
X191759519Y-103306437D01*
X191759418Y-103306410D01*
X191756687Y-103305381D01*
X191179498Y-103092534D01*
X191179401Y-103092509D01*
X191176617Y-103091484D01*
X190710974Y-102923815D01*
X190998846Y-101849461D01*
X190936974Y-101742296D01*
X190248752Y-101557887D01*
X190243576Y-101577205D01*
X190146984Y-101551324D01*
X190152160Y-101532005D01*
X190132842Y-101526829D01*
X190158723Y-101430237D01*
X190178042Y-101435413D01*
X190183218Y-101416095D01*
X190279810Y-101441976D01*
X190274634Y-101461295D01*
X190962856Y-101645703D01*
X191070022Y-101583831D01*
X191350548Y-100536895D01*
X191847519Y-100853822D01*
G36*
X196399999Y-101149999D02*
X196404052Y-101191338D01*
X196407678Y-101232777D01*
X196408338Y-101235049D01*
X196408569Y-101237404D01*
X196420585Y-101277203D01*
X196432180Y-101317114D01*
X196433269Y-101319214D01*
X196433953Y-101321481D01*
X196453504Y-101358250D01*
X196472598Y-101395086D01*
X196474070Y-101396930D01*
X196475184Y-101399025D01*
X196501487Y-101431275D01*
X196527389Y-101463723D01*
X196530637Y-101467017D01*
X196530692Y-101467084D01*
X196530754Y-101467135D01*
X196531801Y-101468197D01*
X196631802Y-101568198D01*
X196663905Y-101594568D01*
X196695765Y-101621301D01*
X196697838Y-101622441D01*
X196699667Y-101623943D01*
X196736314Y-101643593D01*
X196772726Y-101663611D01*
X196774980Y-101664326D01*
X196777067Y-101665445D01*
X196816857Y-101677610D01*
X196856440Y-101690166D01*
X196858789Y-101690429D01*
X196861054Y-101691122D01*
X196880608Y-101693108D01*
X196887500Y-101700000D01*
X196968233Y-101700000D01*
X197052021Y-101737769D01*
X197134738Y-101749524D01*
X197094264Y-101752752D01*
X196999729Y-101782027D01*
X196972454Y-101800000D01*
X196636396Y-101800000D01*
X196248963Y-101412567D01*
X196250028Y-101336264D01*
X196225268Y-101211220D01*
X196188308Y-101121548D01*
X196215787Y-101110166D01*
X196273112Y-101071863D01*
X196321863Y-101023112D01*
X196360166Y-100965787D01*
X196386550Y-100902091D01*
X196399999Y-100834477D01*
X196399999Y-101149999D01*
X196399999Y-101149999D01*
G37*
X196399999Y-101149999D02*
X196404052Y-101191338D01*
X196407678Y-101232777D01*
X196408338Y-101235049D01*
X196408569Y-101237404D01*
X196420585Y-101277203D01*
X196432180Y-101317114D01*
X196433269Y-101319214D01*
X196433953Y-101321481D01*
X196453504Y-101358250D01*
X196472598Y-101395086D01*
X196474070Y-101396930D01*
X196475184Y-101399025D01*
X196501487Y-101431275D01*
X196527389Y-101463723D01*
X196530637Y-101467017D01*
X196530692Y-101467084D01*
X196530754Y-101467135D01*
X196531801Y-101468197D01*
X196631802Y-101568198D01*
X196663905Y-101594568D01*
X196695765Y-101621301D01*
X196697838Y-101622441D01*
X196699667Y-101623943D01*
X196736314Y-101643593D01*
X196772726Y-101663611D01*
X196774980Y-101664326D01*
X196777067Y-101665445D01*
X196816857Y-101677610D01*
X196856440Y-101690166D01*
X196858789Y-101690429D01*
X196861054Y-101691122D01*
X196880608Y-101693108D01*
X196887500Y-101700000D01*
X196968233Y-101700000D01*
X197052021Y-101737769D01*
X197134738Y-101749524D01*
X197094264Y-101752752D01*
X196999729Y-101782027D01*
X196972454Y-101800000D01*
X196636396Y-101800000D01*
X196248963Y-101412567D01*
X196250028Y-101336264D01*
X196225268Y-101211220D01*
X196188308Y-101121548D01*
X196215787Y-101110166D01*
X196273112Y-101071863D01*
X196321863Y-101023112D01*
X196360166Y-100965787D01*
X196386550Y-100902091D01*
X196399999Y-100834477D01*
X196399999Y-101149999D01*
G36*
X196352219Y-94650000D02*
X195887500Y-94650000D01*
X195800000Y-94737500D01*
X195800000Y-95450000D01*
X195820000Y-95450000D01*
X195820000Y-95550000D01*
X195800000Y-95550000D01*
X195800000Y-96262500D01*
X195887500Y-96350000D01*
X196051472Y-96350000D01*
X195753165Y-96648307D01*
X195150000Y-96648307D01*
X195094264Y-96652752D01*
X194999729Y-96682027D01*
X194917094Y-96736480D01*
X194912842Y-96741469D01*
X194847979Y-96712231D01*
X194750000Y-96698307D01*
X194150000Y-96698307D01*
X194094264Y-96702752D01*
X193999729Y-96732027D01*
X193917094Y-96786480D01*
X193852900Y-96861800D01*
X193812231Y-96952021D01*
X193798307Y-97050000D01*
X193798307Y-98049779D01*
X193201693Y-97453165D01*
X193201693Y-97050000D01*
X193197248Y-96994264D01*
X193167973Y-96899729D01*
X193113520Y-96817094D01*
X193038200Y-96752900D01*
X192947979Y-96712231D01*
X192850000Y-96698307D01*
X192250000Y-96698307D01*
X192194264Y-96702752D01*
X192099729Y-96732027D01*
X192086029Y-96741054D01*
X192073112Y-96728137D01*
X192015787Y-96689834D01*
X191952091Y-96663450D01*
X191884472Y-96650000D01*
X191387500Y-96650000D01*
X191300000Y-96737500D01*
X191300000Y-97450000D01*
X191320000Y-97450000D01*
X191320000Y-97550000D01*
X191300000Y-97550000D01*
X191300000Y-98262500D01*
X191387500Y-98350000D01*
X191884472Y-98350000D01*
X191914603Y-98344007D01*
X191932027Y-98400271D01*
X191986480Y-98482906D01*
X192061800Y-98547100D01*
X192152021Y-98587769D01*
X192250000Y-98601693D01*
X192653165Y-98601693D01*
X193225736Y-99174264D01*
X193268559Y-99209439D01*
X193311020Y-99245068D01*
X193313784Y-99246587D01*
X193316223Y-99248591D01*
X193365101Y-99274799D01*
X193413635Y-99301481D01*
X193416640Y-99302434D01*
X193419422Y-99303926D01*
X193472427Y-99320131D01*
X193525253Y-99336889D01*
X193528390Y-99337241D01*
X193531406Y-99338163D01*
X193586498Y-99343759D01*
X193641623Y-99349942D01*
X193647795Y-99349985D01*
X193647906Y-99349996D01*
X193648009Y-99349986D01*
X193650000Y-99350000D01*
X195186279Y-99350000D01*
X195192909Y-99372821D01*
X195194359Y-99375619D01*
X195195272Y-99378642D01*
X195198307Y-99384350D01*
X195198307Y-99600000D01*
X195202752Y-99655736D01*
X195232027Y-99750271D01*
X195263753Y-99798416D01*
X195239834Y-99834213D01*
X195213450Y-99897909D01*
X195200000Y-99965528D01*
X195200000Y-100262500D01*
X195287500Y-100350000D01*
X195750000Y-100350000D01*
X195750000Y-100330000D01*
X195850000Y-100330000D01*
X195850000Y-100350000D01*
X195870000Y-100350000D01*
X195870000Y-100450000D01*
X195850000Y-100450000D01*
X195850000Y-100470000D01*
X195750000Y-100470000D01*
X195750000Y-100450000D01*
X195287500Y-100450000D01*
X195200000Y-100537500D01*
X195200000Y-100834472D01*
X195208878Y-100879108D01*
X195190737Y-100890979D01*
X195099662Y-100980166D01*
X195027645Y-101085345D01*
X194977428Y-101202509D01*
X194950925Y-101327195D01*
X194949784Y-101408949D01*
X190750000Y-98730670D01*
X190750000Y-98350000D01*
X191112500Y-98350000D01*
X191200000Y-98262500D01*
X191200000Y-97550000D01*
X191180000Y-97550000D01*
X191180000Y-97450000D01*
X191200000Y-97450000D01*
X191200000Y-96737500D01*
X191112500Y-96650000D01*
X190848528Y-96650000D01*
X191146835Y-96351693D01*
X191850000Y-96351693D01*
X191905736Y-96347248D01*
X192000271Y-96317973D01*
X192082906Y-96263520D01*
X192087158Y-96258531D01*
X192152021Y-96287769D01*
X192250000Y-96301693D01*
X192850000Y-96301693D01*
X192905736Y-96297248D01*
X193000271Y-96267973D01*
X193023242Y-96252836D01*
X193034213Y-96260166D01*
X193097909Y-96286550D01*
X193165528Y-96300000D01*
X193362500Y-96300000D01*
X193450000Y-96212500D01*
X193450000Y-95400000D01*
X193430000Y-95400000D01*
X193430000Y-95300000D01*
X193450000Y-95300000D01*
X193450000Y-95280000D01*
X193550000Y-95280000D01*
X193550000Y-95300000D01*
X193570000Y-95300000D01*
X193570000Y-95400000D01*
X193550000Y-95400000D01*
X193550000Y-96212500D01*
X193637500Y-96300000D01*
X193834472Y-96300000D01*
X193902091Y-96286550D01*
X193965787Y-96260166D01*
X193975858Y-96253437D01*
X194052021Y-96287769D01*
X194150000Y-96301693D01*
X194750000Y-96301693D01*
X194805736Y-96297248D01*
X194900271Y-96267973D01*
X194913971Y-96258946D01*
X194926888Y-96271863D01*
X194984213Y-96310166D01*
X195047909Y-96336550D01*
X195115528Y-96350000D01*
X195612500Y-96350000D01*
X195700000Y-96262500D01*
X195700000Y-95550000D01*
X195680000Y-95550000D01*
X195680000Y-95450000D01*
X195700000Y-95450000D01*
X195700000Y-94737500D01*
X195612500Y-94650000D01*
X195115528Y-94650000D01*
X195085397Y-94655993D01*
X195067973Y-94599729D01*
X195013520Y-94517094D01*
X194989204Y-94496370D01*
X196198589Y-94496370D01*
X196352219Y-94650000D01*
X196352219Y-94650000D01*
G37*
X196352219Y-94650000D02*
X195887500Y-94650000D01*
X195800000Y-94737500D01*
X195800000Y-95450000D01*
X195820000Y-95450000D01*
X195820000Y-95550000D01*
X195800000Y-95550000D01*
X195800000Y-96262500D01*
X195887500Y-96350000D01*
X196051472Y-96350000D01*
X195753165Y-96648307D01*
X195150000Y-96648307D01*
X195094264Y-96652752D01*
X194999729Y-96682027D01*
X194917094Y-96736480D01*
X194912842Y-96741469D01*
X194847979Y-96712231D01*
X194750000Y-96698307D01*
X194150000Y-96698307D01*
X194094264Y-96702752D01*
X193999729Y-96732027D01*
X193917094Y-96786480D01*
X193852900Y-96861800D01*
X193812231Y-96952021D01*
X193798307Y-97050000D01*
X193798307Y-98049779D01*
X193201693Y-97453165D01*
X193201693Y-97050000D01*
X193197248Y-96994264D01*
X193167973Y-96899729D01*
X193113520Y-96817094D01*
X193038200Y-96752900D01*
X192947979Y-96712231D01*
X192850000Y-96698307D01*
X192250000Y-96698307D01*
X192194264Y-96702752D01*
X192099729Y-96732027D01*
X192086029Y-96741054D01*
X192073112Y-96728137D01*
X192015787Y-96689834D01*
X191952091Y-96663450D01*
X191884472Y-96650000D01*
X191387500Y-96650000D01*
X191300000Y-96737500D01*
X191300000Y-97450000D01*
X191320000Y-97450000D01*
X191320000Y-97550000D01*
X191300000Y-97550000D01*
X191300000Y-98262500D01*
X191387500Y-98350000D01*
X191884472Y-98350000D01*
X191914603Y-98344007D01*
X191932027Y-98400271D01*
X191986480Y-98482906D01*
X192061800Y-98547100D01*
X192152021Y-98587769D01*
X192250000Y-98601693D01*
X192653165Y-98601693D01*
X193225736Y-99174264D01*
X193268559Y-99209439D01*
X193311020Y-99245068D01*
X193313784Y-99246587D01*
X193316223Y-99248591D01*
X193365101Y-99274799D01*
X193413635Y-99301481D01*
X193416640Y-99302434D01*
X193419422Y-99303926D01*
X193472427Y-99320131D01*
X193525253Y-99336889D01*
X193528390Y-99337241D01*
X193531406Y-99338163D01*
X193586498Y-99343759D01*
X193641623Y-99349942D01*
X193647795Y-99349985D01*
X193647906Y-99349996D01*
X193648009Y-99349986D01*
X193650000Y-99350000D01*
X195186279Y-99350000D01*
X195192909Y-99372821D01*
X195194359Y-99375619D01*
X195195272Y-99378642D01*
X195198307Y-99384350D01*
X195198307Y-99600000D01*
X195202752Y-99655736D01*
X195232027Y-99750271D01*
X195263753Y-99798416D01*
X195239834Y-99834213D01*
X195213450Y-99897909D01*
X195200000Y-99965528D01*
X195200000Y-100262500D01*
X195287500Y-100350000D01*
X195750000Y-100350000D01*
X195750000Y-100330000D01*
X195850000Y-100330000D01*
X195850000Y-100350000D01*
X195870000Y-100350000D01*
X195870000Y-100450000D01*
X195850000Y-100450000D01*
X195850000Y-100470000D01*
X195750000Y-100470000D01*
X195750000Y-100450000D01*
X195287500Y-100450000D01*
X195200000Y-100537500D01*
X195200000Y-100834472D01*
X195208878Y-100879108D01*
X195190737Y-100890979D01*
X195099662Y-100980166D01*
X195027645Y-101085345D01*
X194977428Y-101202509D01*
X194950925Y-101327195D01*
X194949784Y-101408949D01*
X190750000Y-98730670D01*
X190750000Y-98350000D01*
X191112500Y-98350000D01*
X191200000Y-98262500D01*
X191200000Y-97550000D01*
X191180000Y-97550000D01*
X191180000Y-97450000D01*
X191200000Y-97450000D01*
X191200000Y-96737500D01*
X191112500Y-96650000D01*
X190848528Y-96650000D01*
X191146835Y-96351693D01*
X191850000Y-96351693D01*
X191905736Y-96347248D01*
X192000271Y-96317973D01*
X192082906Y-96263520D01*
X192087158Y-96258531D01*
X192152021Y-96287769D01*
X192250000Y-96301693D01*
X192850000Y-96301693D01*
X192905736Y-96297248D01*
X193000271Y-96267973D01*
X193023242Y-96252836D01*
X193034213Y-96260166D01*
X193097909Y-96286550D01*
X193165528Y-96300000D01*
X193362500Y-96300000D01*
X193450000Y-96212500D01*
X193450000Y-95400000D01*
X193430000Y-95400000D01*
X193430000Y-95300000D01*
X193450000Y-95300000D01*
X193450000Y-95280000D01*
X193550000Y-95280000D01*
X193550000Y-95300000D01*
X193570000Y-95300000D01*
X193570000Y-95400000D01*
X193550000Y-95400000D01*
X193550000Y-96212500D01*
X193637500Y-96300000D01*
X193834472Y-96300000D01*
X193902091Y-96286550D01*
X193965787Y-96260166D01*
X193975858Y-96253437D01*
X194052021Y-96287769D01*
X194150000Y-96301693D01*
X194750000Y-96301693D01*
X194805736Y-96297248D01*
X194900271Y-96267973D01*
X194913971Y-96258946D01*
X194926888Y-96271863D01*
X194984213Y-96310166D01*
X195047909Y-96336550D01*
X195115528Y-96350000D01*
X195612500Y-96350000D01*
X195700000Y-96262500D01*
X195700000Y-95550000D01*
X195680000Y-95550000D01*
X195680000Y-95450000D01*
X195700000Y-95450000D01*
X195700000Y-94737500D01*
X195612500Y-94650000D01*
X195115528Y-94650000D01*
X195085397Y-94655993D01*
X195067973Y-94599729D01*
X195013520Y-94517094D01*
X194989204Y-94496370D01*
X196198589Y-94496370D01*
X196352219Y-94650000D01*
G36*
X191952900Y-94561800D02*
X191912231Y-94652021D01*
X191911516Y-94657049D01*
X191850000Y-94648307D01*
X190650000Y-94648307D01*
X190594264Y-94652752D01*
X190499729Y-94682027D01*
X190417094Y-94736480D01*
X190352900Y-94811800D01*
X190312231Y-94902021D01*
X190298307Y-95000000D01*
X190298307Y-95503165D01*
X189725736Y-96075736D01*
X189690561Y-96118559D01*
X189654932Y-96161020D01*
X189653413Y-96163784D01*
X189651409Y-96166223D01*
X189625201Y-96215101D01*
X189598519Y-96263635D01*
X189597566Y-96266640D01*
X189596074Y-96269422D01*
X189579865Y-96322440D01*
X189563111Y-96375253D01*
X189562759Y-96378388D01*
X189561837Y-96381405D01*
X189556241Y-96436504D01*
X189550058Y-96491623D01*
X189550015Y-96497795D01*
X189550004Y-96497906D01*
X189550014Y-96498009D01*
X189550000Y-96500000D01*
X189550000Y-96950064D01*
X189479620Y-96990697D01*
X189204625Y-98016994D01*
X189223943Y-98022170D01*
X189198062Y-98118762D01*
X189178743Y-98113586D01*
X188903748Y-99139882D01*
X188965620Y-99247048D01*
X189155880Y-99298028D01*
X189224676Y-99302537D01*
X189241095Y-99300375D01*
X188915723Y-99625747D01*
X188913756Y-99620973D01*
X188843214Y-99514799D01*
X188753393Y-99424349D01*
X188647715Y-99353068D01*
X188530203Y-99303671D01*
X188405335Y-99278039D01*
X188385980Y-99277904D01*
X188385980Y-99044197D01*
X188393199Y-99052429D01*
X188447896Y-99094399D01*
X188509730Y-99124892D01*
X188699990Y-99175872D01*
X188807156Y-99114001D01*
X189082151Y-98087704D01*
X189062833Y-98082528D01*
X189088714Y-97985936D01*
X189108033Y-97991112D01*
X189383028Y-96964816D01*
X189321156Y-96857650D01*
X189130896Y-96806670D01*
X189062100Y-96802161D01*
X188993745Y-96811160D01*
X188928460Y-96833321D01*
X188868753Y-96867793D01*
X188816918Y-96913252D01*
X188792644Y-96944885D01*
X188791785Y-96922582D01*
X188760575Y-96828669D01*
X188704437Y-96747168D01*
X188627816Y-96684534D01*
X188536779Y-96645726D01*
X187957223Y-96490434D01*
X187902235Y-96480301D01*
X187803345Y-96484112D01*
X187709432Y-96515322D01*
X187673547Y-96540040D01*
X187673547Y-96174845D01*
X189352022Y-94496370D01*
X192008665Y-94496370D01*
X191952900Y-94561800D01*
X191952900Y-94561800D01*
G37*
X191952900Y-94561800D02*
X191912231Y-94652021D01*
X191911516Y-94657049D01*
X191850000Y-94648307D01*
X190650000Y-94648307D01*
X190594264Y-94652752D01*
X190499729Y-94682027D01*
X190417094Y-94736480D01*
X190352900Y-94811800D01*
X190312231Y-94902021D01*
X190298307Y-95000000D01*
X190298307Y-95503165D01*
X189725736Y-96075736D01*
X189690561Y-96118559D01*
X189654932Y-96161020D01*
X189653413Y-96163784D01*
X189651409Y-96166223D01*
X189625201Y-96215101D01*
X189598519Y-96263635D01*
X189597566Y-96266640D01*
X189596074Y-96269422D01*
X189579865Y-96322440D01*
X189563111Y-96375253D01*
X189562759Y-96378388D01*
X189561837Y-96381405D01*
X189556241Y-96436504D01*
X189550058Y-96491623D01*
X189550015Y-96497795D01*
X189550004Y-96497906D01*
X189550014Y-96498009D01*
X189550000Y-96500000D01*
X189550000Y-96950064D01*
X189479620Y-96990697D01*
X189204625Y-98016994D01*
X189223943Y-98022170D01*
X189198062Y-98118762D01*
X189178743Y-98113586D01*
X188903748Y-99139882D01*
X188965620Y-99247048D01*
X189155880Y-99298028D01*
X189224676Y-99302537D01*
X189241095Y-99300375D01*
X188915723Y-99625747D01*
X188913756Y-99620973D01*
X188843214Y-99514799D01*
X188753393Y-99424349D01*
X188647715Y-99353068D01*
X188530203Y-99303671D01*
X188405335Y-99278039D01*
X188385980Y-99277904D01*
X188385980Y-99044197D01*
X188393199Y-99052429D01*
X188447896Y-99094399D01*
X188509730Y-99124892D01*
X188699990Y-99175872D01*
X188807156Y-99114001D01*
X189082151Y-98087704D01*
X189062833Y-98082528D01*
X189088714Y-97985936D01*
X189108033Y-97991112D01*
X189383028Y-96964816D01*
X189321156Y-96857650D01*
X189130896Y-96806670D01*
X189062100Y-96802161D01*
X188993745Y-96811160D01*
X188928460Y-96833321D01*
X188868753Y-96867793D01*
X188816918Y-96913252D01*
X188792644Y-96944885D01*
X188791785Y-96922582D01*
X188760575Y-96828669D01*
X188704437Y-96747168D01*
X188627816Y-96684534D01*
X188536779Y-96645726D01*
X187957223Y-96490434D01*
X187902235Y-96480301D01*
X187803345Y-96484112D01*
X187709432Y-96515322D01*
X187673547Y-96540040D01*
X187673547Y-96174845D01*
X189352022Y-94496370D01*
X192008665Y-94496370D01*
X191952900Y-94561800D01*
M02*
