G04 #@! TF.FileFunction,Other,Fab,Top*
%FSLAX46Y46*%
G04 Gerber Fmt 4.6, Leading zero omitted, Abs format (unit mm)*
G04 Created by KiCad (PCBNEW 4.0.5-e0-6337~49~ubuntu14.04.1) date Tue May 16 09:37:37 2017*
%MOMM*%
%LPD*%
G01*
G04 APERTURE LIST*
%ADD10C,0.100000*%
%ADD11C,0.300000*%
%ADD12C,0.200000*%
%ADD13C,0.150000*%
G04 APERTURE END LIST*
D10*
D11*
X152357143Y-131478571D02*
X152357143Y-129978571D01*
X153214286Y-131478571D01*
X153214286Y-129978571D01*
X154214286Y-129978571D02*
X154500000Y-129978571D01*
X154642858Y-130050000D01*
X154785715Y-130192857D01*
X154857143Y-130478571D01*
X154857143Y-130978571D01*
X154785715Y-131264286D01*
X154642858Y-131407143D01*
X154500000Y-131478571D01*
X154214286Y-131478571D01*
X154071429Y-131407143D01*
X153928572Y-131264286D01*
X153857143Y-130978571D01*
X153857143Y-130478571D01*
X153928572Y-130192857D01*
X154071429Y-130050000D01*
X154214286Y-129978571D01*
X155285715Y-129978571D02*
X156142858Y-129978571D01*
X155714287Y-131478571D02*
X155714287Y-129978571D01*
X156642858Y-130692857D02*
X157142858Y-130692857D01*
X157357144Y-131478571D02*
X156642858Y-131478571D01*
X156642858Y-129978571D01*
X157357144Y-129978571D01*
X157928572Y-131407143D02*
X158142858Y-131478571D01*
X158500001Y-131478571D01*
X158642858Y-131407143D01*
X158714287Y-131335714D01*
X158785715Y-131192857D01*
X158785715Y-131050000D01*
X158714287Y-130907143D01*
X158642858Y-130835714D01*
X158500001Y-130764286D01*
X158214287Y-130692857D01*
X158071429Y-130621429D01*
X158000001Y-130550000D01*
X157928572Y-130407143D01*
X157928572Y-130264286D01*
X158000001Y-130121429D01*
X158071429Y-130050000D01*
X158214287Y-129978571D01*
X158571429Y-129978571D01*
X158785715Y-130050000D01*
X159428572Y-131335714D02*
X159500000Y-131407143D01*
X159428572Y-131478571D01*
X159357143Y-131407143D01*
X159428572Y-131335714D01*
X159428572Y-131478571D01*
X159428572Y-130550000D02*
X159500000Y-130621429D01*
X159428572Y-130692857D01*
X159357143Y-130621429D01*
X159428572Y-130550000D01*
X159428572Y-130692857D01*
X153142857Y-134028571D02*
X152285714Y-134028571D01*
X152714286Y-134028571D02*
X152714286Y-132528571D01*
X152571429Y-132742857D01*
X152428571Y-132885714D01*
X152285714Y-132957143D01*
X153785714Y-133885714D02*
X153857142Y-133957143D01*
X153785714Y-134028571D01*
X153714285Y-133957143D01*
X153785714Y-133885714D01*
X153785714Y-134028571D01*
X156142857Y-133242857D02*
X155642857Y-133242857D01*
X155642857Y-134028571D02*
X155642857Y-132528571D01*
X156357143Y-132528571D01*
X157214285Y-132528571D02*
X157499999Y-132528571D01*
X157642857Y-132600000D01*
X157785714Y-132742857D01*
X157857142Y-133028571D01*
X157857142Y-133528571D01*
X157785714Y-133814286D01*
X157642857Y-133957143D01*
X157499999Y-134028571D01*
X157214285Y-134028571D01*
X157071428Y-133957143D01*
X156928571Y-133814286D01*
X156857142Y-133528571D01*
X156857142Y-133028571D01*
X156928571Y-132742857D01*
X157071428Y-132600000D01*
X157214285Y-132528571D01*
X158785714Y-132528571D02*
X159071428Y-132528571D01*
X159214286Y-132600000D01*
X159357143Y-132742857D01*
X159428571Y-133028571D01*
X159428571Y-133528571D01*
X159357143Y-133814286D01*
X159214286Y-133957143D01*
X159071428Y-134028571D01*
X158785714Y-134028571D01*
X158642857Y-133957143D01*
X158500000Y-133814286D01*
X158428571Y-133528571D01*
X158428571Y-133028571D01*
X158500000Y-132742857D01*
X158642857Y-132600000D01*
X158785714Y-132528571D01*
X159857143Y-132528571D02*
X160714286Y-132528571D01*
X160285715Y-134028571D02*
X160285715Y-132528571D01*
X161214286Y-134028571D02*
X161214286Y-132528571D01*
X161785714Y-132528571D01*
X161928572Y-132600000D01*
X162000000Y-132671429D01*
X162071429Y-132814286D01*
X162071429Y-133028571D01*
X162000000Y-133171429D01*
X161928572Y-133242857D01*
X161785714Y-133314286D01*
X161214286Y-133314286D01*
X163571429Y-134028571D02*
X163071429Y-133314286D01*
X162714286Y-134028571D02*
X162714286Y-132528571D01*
X163285714Y-132528571D01*
X163428572Y-132600000D01*
X163500000Y-132671429D01*
X163571429Y-132814286D01*
X163571429Y-133028571D01*
X163500000Y-133171429D01*
X163428572Y-133242857D01*
X163285714Y-133314286D01*
X162714286Y-133314286D01*
X164214286Y-134028571D02*
X164214286Y-132528571D01*
X164928572Y-134028571D02*
X164928572Y-132528571D01*
X165785715Y-134028571D01*
X165785715Y-132528571D01*
X166285715Y-132528571D02*
X167142858Y-132528571D01*
X166714287Y-134028571D02*
X166714287Y-132528571D01*
X167571429Y-133957143D02*
X167785715Y-134028571D01*
X168142858Y-134028571D01*
X168285715Y-133957143D01*
X168357144Y-133885714D01*
X168428572Y-133742857D01*
X168428572Y-133600000D01*
X168357144Y-133457143D01*
X168285715Y-133385714D01*
X168142858Y-133314286D01*
X167857144Y-133242857D01*
X167714286Y-133171429D01*
X167642858Y-133100000D01*
X167571429Y-132957143D01*
X167571429Y-132814286D01*
X167642858Y-132671429D01*
X167714286Y-132600000D01*
X167857144Y-132528571D01*
X168214286Y-132528571D01*
X168428572Y-132600000D01*
X170500000Y-132528571D02*
X170785714Y-132528571D01*
X170928572Y-132600000D01*
X171071429Y-132742857D01*
X171142857Y-133028571D01*
X171142857Y-133528571D01*
X171071429Y-133814286D01*
X170928572Y-133957143D01*
X170785714Y-134028571D01*
X170500000Y-134028571D01*
X170357143Y-133957143D01*
X170214286Y-133814286D01*
X170142857Y-133528571D01*
X170142857Y-133028571D01*
X170214286Y-132742857D01*
X170357143Y-132600000D01*
X170500000Y-132528571D01*
X172642858Y-134028571D02*
X172142858Y-133314286D01*
X171785715Y-134028571D02*
X171785715Y-132528571D01*
X172357143Y-132528571D01*
X172500001Y-132600000D01*
X172571429Y-132671429D01*
X172642858Y-132814286D01*
X172642858Y-133028571D01*
X172571429Y-133171429D01*
X172500001Y-133242857D01*
X172357143Y-133314286D01*
X171785715Y-133314286D01*
X173285715Y-134028571D02*
X173285715Y-132528571D01*
X174000001Y-133242857D02*
X174500001Y-133242857D01*
X174714287Y-134028571D02*
X174000001Y-134028571D01*
X174000001Y-132528571D01*
X174714287Y-132528571D01*
X175357144Y-134028571D02*
X175357144Y-132528571D01*
X176214287Y-134028571D01*
X176214287Y-132528571D01*
X176714287Y-132528571D02*
X177571430Y-132528571D01*
X177142859Y-134028571D02*
X177142859Y-132528571D01*
X178071430Y-133242857D02*
X178571430Y-133242857D01*
X178785716Y-134028571D02*
X178071430Y-134028571D01*
X178071430Y-132528571D01*
X178785716Y-132528571D01*
X179428573Y-134028571D02*
X179428573Y-132528571D01*
X179785716Y-132528571D01*
X180000001Y-132600000D01*
X180142859Y-132742857D01*
X180214287Y-132885714D01*
X180285716Y-133171429D01*
X180285716Y-133385714D01*
X180214287Y-133671429D01*
X180142859Y-133814286D01*
X180000001Y-133957143D01*
X179785716Y-134028571D01*
X179428573Y-134028571D01*
X182071430Y-134028571D02*
X182071430Y-132528571D01*
X182642858Y-132528571D01*
X182785716Y-132600000D01*
X182857144Y-132671429D01*
X182928573Y-132814286D01*
X182928573Y-133028571D01*
X182857144Y-133171429D01*
X182785716Y-133242857D01*
X182642858Y-133314286D01*
X182071430Y-133314286D01*
X183571430Y-133242857D02*
X184071430Y-133242857D01*
X184285716Y-134028571D02*
X183571430Y-134028571D01*
X183571430Y-132528571D01*
X184285716Y-132528571D01*
X185785716Y-134028571D02*
X185285716Y-133314286D01*
X184928573Y-134028571D02*
X184928573Y-132528571D01*
X185500001Y-132528571D01*
X185642859Y-132600000D01*
X185714287Y-132671429D01*
X185785716Y-132814286D01*
X185785716Y-133028571D01*
X185714287Y-133171429D01*
X185642859Y-133242857D01*
X185500001Y-133314286D01*
X184928573Y-133314286D01*
X187571430Y-134028571D02*
X187571430Y-132528571D01*
X188285716Y-134028571D02*
X188285716Y-132528571D01*
X188857144Y-132528571D01*
X189000002Y-132600000D01*
X189071430Y-132671429D01*
X189142859Y-132814286D01*
X189142859Y-133028571D01*
X189071430Y-133171429D01*
X189000002Y-133242857D01*
X188857144Y-133314286D01*
X188285716Y-133314286D01*
X190642859Y-133885714D02*
X190571430Y-133957143D01*
X190357144Y-134028571D01*
X190214287Y-134028571D01*
X190000002Y-133957143D01*
X189857144Y-133814286D01*
X189785716Y-133671429D01*
X189714287Y-133385714D01*
X189714287Y-133171429D01*
X189785716Y-132885714D01*
X189857144Y-132742857D01*
X190000002Y-132600000D01*
X190214287Y-132528571D01*
X190357144Y-132528571D01*
X190571430Y-132600000D01*
X190642859Y-132671429D01*
X191285716Y-133457143D02*
X192428573Y-133457143D01*
X193000002Y-132528571D02*
X194000002Y-132528571D01*
X193357145Y-134028571D01*
X194428573Y-132528571D02*
X195357144Y-132528571D01*
X194857144Y-133100000D01*
X195071430Y-133100000D01*
X195214287Y-133171429D01*
X195285716Y-133242857D01*
X195357144Y-133385714D01*
X195357144Y-133742857D01*
X195285716Y-133885714D01*
X195214287Y-133957143D01*
X195071430Y-134028571D01*
X194642858Y-134028571D01*
X194500001Y-133957143D01*
X194428573Y-133885714D01*
X196714287Y-132528571D02*
X196000001Y-132528571D01*
X195928572Y-133242857D01*
X196000001Y-133171429D01*
X196142858Y-133100000D01*
X196500001Y-133100000D01*
X196642858Y-133171429D01*
X196714287Y-133242857D01*
X196785715Y-133385714D01*
X196785715Y-133742857D01*
X196714287Y-133885714D01*
X196642858Y-133957143D01*
X196500001Y-134028571D01*
X196142858Y-134028571D01*
X196000001Y-133957143D01*
X195928572Y-133885714D01*
X198214286Y-134028571D02*
X197357143Y-134028571D01*
X197785715Y-134028571D02*
X197785715Y-132528571D01*
X197642858Y-132742857D01*
X197500000Y-132885714D01*
X197357143Y-132957143D01*
X199357143Y-133242857D02*
X198857143Y-133242857D01*
X198857143Y-134028571D02*
X198857143Y-132528571D01*
X199571429Y-132528571D01*
X201000000Y-133885714D02*
X200928571Y-133957143D01*
X200714285Y-134028571D01*
X200571428Y-134028571D01*
X200357143Y-133957143D01*
X200214285Y-133814286D01*
X200142857Y-133671429D01*
X200071428Y-133385714D01*
X200071428Y-133171429D01*
X200142857Y-132885714D01*
X200214285Y-132742857D01*
X200357143Y-132600000D01*
X200571428Y-132528571D01*
X200714285Y-132528571D01*
X200928571Y-132600000D01*
X201000000Y-132671429D01*
X203500000Y-134028571D02*
X202785714Y-134028571D01*
X202785714Y-132528571D01*
X204000000Y-133242857D02*
X204500000Y-133242857D01*
X204714286Y-134028571D02*
X204000000Y-134028571D01*
X204000000Y-132528571D01*
X204714286Y-132528571D01*
X205142857Y-132528571D02*
X205642857Y-134028571D01*
X206142857Y-132528571D01*
X206642857Y-133242857D02*
X207142857Y-133242857D01*
X207357143Y-134028571D02*
X206642857Y-134028571D01*
X206642857Y-132528571D01*
X207357143Y-132528571D01*
X208714286Y-134028571D02*
X208000000Y-134028571D01*
X208000000Y-132528571D01*
X210857143Y-133242857D02*
X211071429Y-133314286D01*
X211142857Y-133385714D01*
X211214286Y-133528571D01*
X211214286Y-133742857D01*
X211142857Y-133885714D01*
X211071429Y-133957143D01*
X210928571Y-134028571D01*
X210357143Y-134028571D01*
X210357143Y-132528571D01*
X210857143Y-132528571D01*
X211000000Y-132600000D01*
X211071429Y-132671429D01*
X211142857Y-132814286D01*
X211142857Y-132957143D01*
X211071429Y-133100000D01*
X211000000Y-133171429D01*
X210857143Y-133242857D01*
X210357143Y-133242857D01*
X213428571Y-134600000D02*
X213357143Y-134528571D01*
X213214286Y-134314286D01*
X213142857Y-134171429D01*
X213071428Y-133957143D01*
X213000000Y-133600000D01*
X213000000Y-133314286D01*
X213071428Y-132957143D01*
X213142857Y-132742857D01*
X213214286Y-132600000D01*
X213357143Y-132385714D01*
X213428571Y-132314286D01*
X214000000Y-134028571D02*
X214000000Y-132528571D01*
X214571428Y-132528571D01*
X214714286Y-132600000D01*
X214785714Y-132671429D01*
X214857143Y-132814286D01*
X214857143Y-133028571D01*
X214785714Y-133171429D01*
X214714286Y-133242857D01*
X214571428Y-133314286D01*
X214000000Y-133314286D01*
X215500000Y-134028571D02*
X215500000Y-132528571D01*
X216214286Y-134028571D02*
X216214286Y-132528571D01*
X217071429Y-134028571D01*
X217071429Y-132528571D01*
X219714286Y-134028571D02*
X218857143Y-134028571D01*
X219285715Y-134028571D02*
X219285715Y-132528571D01*
X219142858Y-132742857D01*
X219000000Y-132885714D01*
X218857143Y-132957143D01*
X221500000Y-134028571D02*
X221500000Y-132528571D01*
X222214286Y-134028571D02*
X222214286Y-132528571D01*
X223071429Y-134028571D01*
X223071429Y-132528571D01*
X225642858Y-134028571D02*
X224928572Y-134028571D01*
X224928572Y-132528571D01*
X226428572Y-132528571D02*
X226714286Y-132528571D01*
X226857144Y-132600000D01*
X227000001Y-132742857D01*
X227071429Y-133028571D01*
X227071429Y-133528571D01*
X227000001Y-133814286D01*
X226857144Y-133957143D01*
X226714286Y-134028571D01*
X226428572Y-134028571D01*
X226285715Y-133957143D01*
X226142858Y-133814286D01*
X226071429Y-133528571D01*
X226071429Y-133028571D01*
X226142858Y-132742857D01*
X226285715Y-132600000D01*
X226428572Y-132528571D01*
X227571430Y-132528571D02*
X227928573Y-134028571D01*
X228214287Y-132957143D01*
X228500001Y-134028571D01*
X228857144Y-132528571D01*
X229428573Y-133242857D02*
X229928573Y-133242857D01*
X230142859Y-134028571D02*
X229428573Y-134028571D01*
X229428573Y-132528571D01*
X230142859Y-132528571D01*
X231642859Y-134028571D02*
X231142859Y-133314286D01*
X230785716Y-134028571D02*
X230785716Y-132528571D01*
X231357144Y-132528571D01*
X231500002Y-132600000D01*
X231571430Y-132671429D01*
X231642859Y-132814286D01*
X231642859Y-133028571D01*
X231571430Y-133171429D01*
X231500002Y-133242857D01*
X231357144Y-133314286D01*
X230785716Y-133314286D01*
X234142859Y-134028571D02*
X233428573Y-134028571D01*
X233428573Y-132528571D01*
X234642859Y-133242857D02*
X235142859Y-133242857D01*
X235357145Y-134028571D02*
X234642859Y-134028571D01*
X234642859Y-132528571D01*
X235357145Y-132528571D01*
X236500002Y-133242857D02*
X236000002Y-133242857D01*
X236000002Y-134028571D02*
X236000002Y-132528571D01*
X236714288Y-132528571D01*
X237071430Y-132528571D02*
X237928573Y-132528571D01*
X237500002Y-134028571D02*
X237500002Y-132528571D01*
X238285716Y-134600000D02*
X238357144Y-134528571D01*
X238500001Y-134314286D01*
X238571430Y-134171429D01*
X238642859Y-133957143D01*
X238714287Y-133600000D01*
X238714287Y-133314286D01*
X238642859Y-132957143D01*
X238571430Y-132742857D01*
X238500001Y-132600000D01*
X238357144Y-132385714D01*
X238285716Y-132314286D01*
X152285714Y-135221429D02*
X152357143Y-135150000D01*
X152500000Y-135078571D01*
X152857143Y-135078571D01*
X153000000Y-135150000D01*
X153071429Y-135221429D01*
X153142857Y-135364286D01*
X153142857Y-135507143D01*
X153071429Y-135721429D01*
X152214286Y-136578571D01*
X153142857Y-136578571D01*
X153785714Y-136435714D02*
X153857142Y-136507143D01*
X153785714Y-136578571D01*
X153714285Y-136507143D01*
X153785714Y-136435714D01*
X153785714Y-136578571D01*
X156500000Y-136435714D02*
X156428571Y-136507143D01*
X156214285Y-136578571D01*
X156071428Y-136578571D01*
X155857143Y-136507143D01*
X155714285Y-136364286D01*
X155642857Y-136221429D01*
X155571428Y-135935714D01*
X155571428Y-135721429D01*
X155642857Y-135435714D01*
X155714285Y-135292857D01*
X155857143Y-135150000D01*
X156071428Y-135078571D01*
X156214285Y-135078571D01*
X156428571Y-135150000D01*
X156500000Y-135221429D01*
X157428571Y-135078571D02*
X157714285Y-135078571D01*
X157857143Y-135150000D01*
X158000000Y-135292857D01*
X158071428Y-135578571D01*
X158071428Y-136078571D01*
X158000000Y-136364286D01*
X157857143Y-136507143D01*
X157714285Y-136578571D01*
X157428571Y-136578571D01*
X157285714Y-136507143D01*
X157142857Y-136364286D01*
X157071428Y-136078571D01*
X157071428Y-135578571D01*
X157142857Y-135292857D01*
X157285714Y-135150000D01*
X157428571Y-135078571D01*
X158714286Y-136578571D02*
X158714286Y-135078571D01*
X159214286Y-136150000D01*
X159714286Y-135078571D01*
X159714286Y-136578571D01*
X160428572Y-136578571D02*
X160428572Y-135078571D01*
X161000000Y-135078571D01*
X161142858Y-135150000D01*
X161214286Y-135221429D01*
X161285715Y-135364286D01*
X161285715Y-135578571D01*
X161214286Y-135721429D01*
X161142858Y-135792857D01*
X161000000Y-135864286D01*
X160428572Y-135864286D01*
X162214286Y-135078571D02*
X162500000Y-135078571D01*
X162642858Y-135150000D01*
X162785715Y-135292857D01*
X162857143Y-135578571D01*
X162857143Y-136078571D01*
X162785715Y-136364286D01*
X162642858Y-136507143D01*
X162500000Y-136578571D01*
X162214286Y-136578571D01*
X162071429Y-136507143D01*
X161928572Y-136364286D01*
X161857143Y-136078571D01*
X161857143Y-135578571D01*
X161928572Y-135292857D01*
X162071429Y-135150000D01*
X162214286Y-135078571D01*
X163500001Y-136578571D02*
X163500001Y-135078571D01*
X164357144Y-136578571D01*
X164357144Y-135078571D01*
X165071430Y-135792857D02*
X165571430Y-135792857D01*
X165785716Y-136578571D02*
X165071430Y-136578571D01*
X165071430Y-135078571D01*
X165785716Y-135078571D01*
X166428573Y-136578571D02*
X166428573Y-135078571D01*
X167285716Y-136578571D01*
X167285716Y-135078571D01*
X167785716Y-135078571D02*
X168642859Y-135078571D01*
X168214288Y-136578571D02*
X168214288Y-135078571D01*
X171142859Y-136578571D02*
X170642859Y-135864286D01*
X170285716Y-136578571D02*
X170285716Y-135078571D01*
X170857144Y-135078571D01*
X171000002Y-135150000D01*
X171071430Y-135221429D01*
X171142859Y-135364286D01*
X171142859Y-135578571D01*
X171071430Y-135721429D01*
X171000002Y-135792857D01*
X170857144Y-135864286D01*
X170285716Y-135864286D01*
X172071430Y-135078571D02*
X172357144Y-135078571D01*
X172500002Y-135150000D01*
X172642859Y-135292857D01*
X172714287Y-135578571D01*
X172714287Y-136078571D01*
X172642859Y-136364286D01*
X172500002Y-136507143D01*
X172357144Y-136578571D01*
X172071430Y-136578571D01*
X171928573Y-136507143D01*
X171785716Y-136364286D01*
X171714287Y-136078571D01*
X171714287Y-135578571D01*
X171785716Y-135292857D01*
X171928573Y-135150000D01*
X172071430Y-135078571D01*
X173142859Y-135078571D02*
X174000002Y-135078571D01*
X173571431Y-136578571D02*
X173571431Y-135078571D01*
X174428573Y-136150000D02*
X175142859Y-136150000D01*
X174285716Y-136578571D02*
X174785716Y-135078571D01*
X175285716Y-136578571D01*
X175571430Y-135078571D02*
X176428573Y-135078571D01*
X176000002Y-136578571D02*
X176000002Y-135078571D01*
X176928573Y-136578571D02*
X176928573Y-135078571D01*
X177928573Y-135078571D02*
X178214287Y-135078571D01*
X178357145Y-135150000D01*
X178500002Y-135292857D01*
X178571430Y-135578571D01*
X178571430Y-136078571D01*
X178500002Y-136364286D01*
X178357145Y-136507143D01*
X178214287Y-136578571D01*
X177928573Y-136578571D01*
X177785716Y-136507143D01*
X177642859Y-136364286D01*
X177571430Y-136078571D01*
X177571430Y-135578571D01*
X177642859Y-135292857D01*
X177785716Y-135150000D01*
X177928573Y-135078571D01*
X179214288Y-136578571D02*
X179214288Y-135078571D01*
X180071431Y-136578571D01*
X180071431Y-135078571D01*
X181928574Y-136578571D02*
X181928574Y-135078571D01*
X182642860Y-136578571D02*
X182642860Y-135078571D01*
X183500003Y-136578571D01*
X183500003Y-135078571D01*
X185357146Y-136578571D02*
X185357146Y-135078571D01*
X185714289Y-135078571D01*
X185928574Y-135150000D01*
X186071432Y-135292857D01*
X186142860Y-135435714D01*
X186214289Y-135721429D01*
X186214289Y-135935714D01*
X186142860Y-136221429D01*
X186071432Y-136364286D01*
X185928574Y-136507143D01*
X185714289Y-136578571D01*
X185357146Y-136578571D01*
X186857146Y-135792857D02*
X187357146Y-135792857D01*
X187571432Y-136578571D02*
X186857146Y-136578571D01*
X186857146Y-135078571D01*
X187571432Y-135078571D01*
X189000003Y-135150000D02*
X188857146Y-135078571D01*
X188642860Y-135078571D01*
X188428575Y-135150000D01*
X188285717Y-135292857D01*
X188214289Y-135435714D01*
X188142860Y-135721429D01*
X188142860Y-135935714D01*
X188214289Y-136221429D01*
X188285717Y-136364286D01*
X188428575Y-136507143D01*
X188642860Y-136578571D01*
X188785717Y-136578571D01*
X189000003Y-136507143D01*
X189071432Y-136435714D01*
X189071432Y-135935714D01*
X188785717Y-135935714D01*
X190571432Y-136578571D02*
X190071432Y-135864286D01*
X189714289Y-136578571D02*
X189714289Y-135078571D01*
X190285717Y-135078571D01*
X190428575Y-135150000D01*
X190500003Y-135221429D01*
X190571432Y-135364286D01*
X190571432Y-135578571D01*
X190500003Y-135721429D01*
X190428575Y-135792857D01*
X190285717Y-135864286D01*
X189714289Y-135864286D01*
X191214289Y-135792857D02*
X191714289Y-135792857D01*
X191928575Y-136578571D02*
X191214289Y-136578571D01*
X191214289Y-135078571D01*
X191928575Y-135078571D01*
X192571432Y-135792857D02*
X193071432Y-135792857D01*
X193285718Y-136578571D02*
X192571432Y-136578571D01*
X192571432Y-135078571D01*
X193285718Y-135078571D01*
X193857146Y-136507143D02*
X194071432Y-136578571D01*
X194428575Y-136578571D01*
X194571432Y-136507143D01*
X194642861Y-136435714D01*
X194714289Y-136292857D01*
X194714289Y-136150000D01*
X194642861Y-136007143D01*
X194571432Y-135935714D01*
X194428575Y-135864286D01*
X194142861Y-135792857D01*
X194000003Y-135721429D01*
X193928575Y-135650000D01*
X193857146Y-135507143D01*
X193857146Y-135364286D01*
X193928575Y-135221429D01*
X194000003Y-135150000D01*
X194142861Y-135078571D01*
X194500003Y-135078571D01*
X194714289Y-135150000D01*
X197357146Y-136435714D02*
X197285717Y-136507143D01*
X197071431Y-136578571D01*
X196928574Y-136578571D01*
X196714289Y-136507143D01*
X196571431Y-136364286D01*
X196500003Y-136221429D01*
X196428574Y-135935714D01*
X196428574Y-135721429D01*
X196500003Y-135435714D01*
X196571431Y-135292857D01*
X196714289Y-135150000D01*
X196928574Y-135078571D01*
X197071431Y-135078571D01*
X197285717Y-135150000D01*
X197357146Y-135221429D01*
X198285717Y-135078571D02*
X198571431Y-135078571D01*
X198714289Y-135150000D01*
X198857146Y-135292857D01*
X198928574Y-135578571D01*
X198928574Y-136078571D01*
X198857146Y-136364286D01*
X198714289Y-136507143D01*
X198571431Y-136578571D01*
X198285717Y-136578571D01*
X198142860Y-136507143D01*
X198000003Y-136364286D01*
X197928574Y-136078571D01*
X197928574Y-135578571D01*
X198000003Y-135292857D01*
X198142860Y-135150000D01*
X198285717Y-135078571D01*
X199571432Y-135078571D02*
X199571432Y-136292857D01*
X199642860Y-136435714D01*
X199714289Y-136507143D01*
X199857146Y-136578571D01*
X200142860Y-136578571D01*
X200285718Y-136507143D01*
X200357146Y-136435714D01*
X200428575Y-136292857D01*
X200428575Y-135078571D01*
X201142861Y-136578571D02*
X201142861Y-135078571D01*
X202000004Y-136578571D01*
X202000004Y-135078571D01*
X202500004Y-135078571D02*
X203357147Y-135078571D01*
X202928576Y-136578571D02*
X202928576Y-135078571D01*
X203857147Y-135792857D02*
X204357147Y-135792857D01*
X204571433Y-136578571D02*
X203857147Y-136578571D01*
X203857147Y-135078571D01*
X204571433Y-135078571D01*
X206071433Y-136578571D02*
X205571433Y-135864286D01*
X205214290Y-136578571D02*
X205214290Y-135078571D01*
X205785718Y-135078571D01*
X205928576Y-135150000D01*
X206000004Y-135221429D01*
X206071433Y-135364286D01*
X206071433Y-135578571D01*
X206000004Y-135721429D01*
X205928576Y-135792857D01*
X205785718Y-135864286D01*
X205214290Y-135864286D01*
X206714290Y-136007143D02*
X207857147Y-136007143D01*
X209428576Y-136435714D02*
X209357147Y-136507143D01*
X209142861Y-136578571D01*
X209000004Y-136578571D01*
X208785719Y-136507143D01*
X208642861Y-136364286D01*
X208571433Y-136221429D01*
X208500004Y-135935714D01*
X208500004Y-135721429D01*
X208571433Y-135435714D01*
X208642861Y-135292857D01*
X208785719Y-135150000D01*
X209000004Y-135078571D01*
X209142861Y-135078571D01*
X209357147Y-135150000D01*
X209428576Y-135221429D01*
X210785719Y-136578571D02*
X210071433Y-136578571D01*
X210071433Y-135078571D01*
X211571433Y-135078571D02*
X211857147Y-135078571D01*
X212000005Y-135150000D01*
X212142862Y-135292857D01*
X212214290Y-135578571D01*
X212214290Y-136078571D01*
X212142862Y-136364286D01*
X212000005Y-136507143D01*
X211857147Y-136578571D01*
X211571433Y-136578571D01*
X211428576Y-136507143D01*
X211285719Y-136364286D01*
X211214290Y-136078571D01*
X211214290Y-135578571D01*
X211285719Y-135292857D01*
X211428576Y-135150000D01*
X211571433Y-135078571D01*
X213714291Y-136435714D02*
X213642862Y-136507143D01*
X213428576Y-136578571D01*
X213285719Y-136578571D01*
X213071434Y-136507143D01*
X212928576Y-136364286D01*
X212857148Y-136221429D01*
X212785719Y-135935714D01*
X212785719Y-135721429D01*
X212857148Y-135435714D01*
X212928576Y-135292857D01*
X213071434Y-135150000D01*
X213285719Y-135078571D01*
X213428576Y-135078571D01*
X213642862Y-135150000D01*
X213714291Y-135221429D01*
X214357148Y-136578571D02*
X214357148Y-135078571D01*
X215214291Y-136578571D02*
X214571434Y-135721429D01*
X215214291Y-135078571D02*
X214357148Y-135935714D01*
X215714291Y-135078571D02*
X216071434Y-136578571D01*
X216357148Y-135507143D01*
X216642862Y-136578571D01*
X217000005Y-135078571D01*
X217571434Y-136578571D02*
X217571434Y-135078571D01*
X218214291Y-136507143D02*
X218428577Y-136578571D01*
X218785720Y-136578571D01*
X218928577Y-136507143D01*
X219000006Y-136435714D01*
X219071434Y-136292857D01*
X219071434Y-136150000D01*
X219000006Y-136007143D01*
X218928577Y-135935714D01*
X218785720Y-135864286D01*
X218500006Y-135792857D01*
X218357148Y-135721429D01*
X218285720Y-135650000D01*
X218214291Y-135507143D01*
X218214291Y-135364286D01*
X218285720Y-135221429D01*
X218357148Y-135150000D01*
X218500006Y-135078571D01*
X218857148Y-135078571D01*
X219071434Y-135150000D01*
X219714291Y-135792857D02*
X220214291Y-135792857D01*
X220428577Y-136578571D02*
X219714291Y-136578571D01*
X219714291Y-135078571D01*
X220428577Y-135078571D01*
X152214286Y-137628571D02*
X153142857Y-137628571D01*
X152642857Y-138200000D01*
X152857143Y-138200000D01*
X153000000Y-138271429D01*
X153071429Y-138342857D01*
X153142857Y-138485714D01*
X153142857Y-138842857D01*
X153071429Y-138985714D01*
X153000000Y-139057143D01*
X152857143Y-139128571D01*
X152428571Y-139128571D01*
X152285714Y-139057143D01*
X152214286Y-138985714D01*
X153785714Y-138985714D02*
X153857142Y-139057143D01*
X153785714Y-139128571D01*
X153714285Y-139057143D01*
X153785714Y-138985714D01*
X153785714Y-139128571D01*
X155642857Y-139128571D02*
X155642857Y-137628571D01*
X156500000Y-139128571D01*
X156500000Y-137628571D01*
X157500000Y-137628571D02*
X157785714Y-137628571D01*
X157928572Y-137700000D01*
X158071429Y-137842857D01*
X158142857Y-138128571D01*
X158142857Y-138628571D01*
X158071429Y-138914286D01*
X157928572Y-139057143D01*
X157785714Y-139128571D01*
X157500000Y-139128571D01*
X157357143Y-139057143D01*
X157214286Y-138914286D01*
X157142857Y-138628571D01*
X157142857Y-138128571D01*
X157214286Y-137842857D01*
X157357143Y-137700000D01*
X157500000Y-137628571D01*
X158571429Y-137628571D02*
X159428572Y-137628571D01*
X159000001Y-139128571D02*
X159000001Y-137628571D01*
X159928572Y-138342857D02*
X160428572Y-138342857D01*
X160642858Y-139128571D02*
X159928572Y-139128571D01*
X159928572Y-137628571D01*
X160642858Y-137628571D01*
X163285715Y-138985714D02*
X163214286Y-139057143D01*
X163000000Y-139128571D01*
X162857143Y-139128571D01*
X162642858Y-139057143D01*
X162500000Y-138914286D01*
X162428572Y-138771429D01*
X162357143Y-138485714D01*
X162357143Y-138271429D01*
X162428572Y-137985714D01*
X162500000Y-137842857D01*
X162642858Y-137700000D01*
X162857143Y-137628571D01*
X163000000Y-137628571D01*
X163214286Y-137700000D01*
X163285715Y-137771429D01*
X164214286Y-137628571D02*
X164500000Y-137628571D01*
X164642858Y-137700000D01*
X164785715Y-137842857D01*
X164857143Y-138128571D01*
X164857143Y-138628571D01*
X164785715Y-138914286D01*
X164642858Y-139057143D01*
X164500000Y-139128571D01*
X164214286Y-139128571D01*
X164071429Y-139057143D01*
X163928572Y-138914286D01*
X163857143Y-138628571D01*
X163857143Y-138128571D01*
X163928572Y-137842857D01*
X164071429Y-137700000D01*
X164214286Y-137628571D01*
X165500001Y-139128571D02*
X165500001Y-137628571D01*
X166000001Y-138700000D01*
X166500001Y-137628571D01*
X166500001Y-139128571D01*
X167214287Y-139128571D02*
X167214287Y-137628571D01*
X167785715Y-137628571D01*
X167928573Y-137700000D01*
X168000001Y-137771429D01*
X168071430Y-137914286D01*
X168071430Y-138128571D01*
X168000001Y-138271429D01*
X167928573Y-138342857D01*
X167785715Y-138414286D01*
X167214287Y-138414286D01*
X169000001Y-137628571D02*
X169285715Y-137628571D01*
X169428573Y-137700000D01*
X169571430Y-137842857D01*
X169642858Y-138128571D01*
X169642858Y-138628571D01*
X169571430Y-138914286D01*
X169428573Y-139057143D01*
X169285715Y-139128571D01*
X169000001Y-139128571D01*
X168857144Y-139057143D01*
X168714287Y-138914286D01*
X168642858Y-138628571D01*
X168642858Y-138128571D01*
X168714287Y-137842857D01*
X168857144Y-137700000D01*
X169000001Y-137628571D01*
X170285716Y-139128571D02*
X170285716Y-137628571D01*
X171142859Y-139128571D01*
X171142859Y-137628571D01*
X171857145Y-138342857D02*
X172357145Y-138342857D01*
X172571431Y-139128571D02*
X171857145Y-139128571D01*
X171857145Y-137628571D01*
X172571431Y-137628571D01*
X173214288Y-139128571D02*
X173214288Y-137628571D01*
X174071431Y-139128571D01*
X174071431Y-137628571D01*
X174571431Y-137628571D02*
X175428574Y-137628571D01*
X175000003Y-139128571D02*
X175000003Y-137628571D01*
X175857145Y-139057143D02*
X176071431Y-139128571D01*
X176428574Y-139128571D01*
X176571431Y-139057143D01*
X176642860Y-138985714D01*
X176714288Y-138842857D01*
X176714288Y-138700000D01*
X176642860Y-138557143D01*
X176571431Y-138485714D01*
X176428574Y-138414286D01*
X176142860Y-138342857D01*
X176000002Y-138271429D01*
X175928574Y-138200000D01*
X175857145Y-138057143D01*
X175857145Y-137914286D01*
X175928574Y-137771429D01*
X176000002Y-137700000D01*
X176142860Y-137628571D01*
X176500002Y-137628571D01*
X176714288Y-137700000D01*
X178428573Y-138700000D02*
X179142859Y-138700000D01*
X178285716Y-139128571D02*
X178785716Y-137628571D01*
X179285716Y-139128571D01*
X180642859Y-139128571D02*
X180142859Y-138414286D01*
X179785716Y-139128571D02*
X179785716Y-137628571D01*
X180357144Y-137628571D01*
X180500002Y-137700000D01*
X180571430Y-137771429D01*
X180642859Y-137914286D01*
X180642859Y-138128571D01*
X180571430Y-138271429D01*
X180500002Y-138342857D01*
X180357144Y-138414286D01*
X179785716Y-138414286D01*
X181285716Y-138342857D02*
X181785716Y-138342857D01*
X182000002Y-139128571D02*
X181285716Y-139128571D01*
X181285716Y-137628571D01*
X182000002Y-137628571D01*
X183785716Y-139128571D02*
X183785716Y-137628571D01*
X184285716Y-138700000D01*
X184785716Y-137628571D01*
X184785716Y-139128571D01*
X185785716Y-137628571D02*
X186071430Y-137628571D01*
X186214288Y-137700000D01*
X186357145Y-137842857D01*
X186428573Y-138128571D01*
X186428573Y-138628571D01*
X186357145Y-138914286D01*
X186214288Y-139057143D01*
X186071430Y-139128571D01*
X185785716Y-139128571D01*
X185642859Y-139057143D01*
X185500002Y-138914286D01*
X185428573Y-138628571D01*
X185428573Y-138128571D01*
X185500002Y-137842857D01*
X185642859Y-137700000D01*
X185785716Y-137628571D01*
X187071431Y-137628571D02*
X187071431Y-138842857D01*
X187142859Y-138985714D01*
X187214288Y-139057143D01*
X187357145Y-139128571D01*
X187642859Y-139128571D01*
X187785717Y-139057143D01*
X187857145Y-138985714D01*
X187928574Y-138842857D01*
X187928574Y-137628571D01*
X188642860Y-139128571D02*
X188642860Y-137628571D01*
X189500003Y-139128571D01*
X189500003Y-137628571D01*
X190000003Y-137628571D02*
X190857146Y-137628571D01*
X190428575Y-139128571D02*
X190428575Y-137628571D01*
X191357146Y-138342857D02*
X191857146Y-138342857D01*
X192071432Y-139128571D02*
X191357146Y-139128571D01*
X191357146Y-137628571D01*
X192071432Y-137628571D01*
X192714289Y-139128571D02*
X192714289Y-137628571D01*
X193071432Y-137628571D01*
X193285717Y-137700000D01*
X193428575Y-137842857D01*
X193500003Y-137985714D01*
X193571432Y-138271429D01*
X193571432Y-138485714D01*
X193500003Y-138771429D01*
X193428575Y-138914286D01*
X193285717Y-139057143D01*
X193071432Y-139128571D01*
X192714289Y-139128571D01*
X195642860Y-137628571D02*
X195928574Y-137628571D01*
X196071432Y-137700000D01*
X196214289Y-137842857D01*
X196285717Y-138128571D01*
X196285717Y-138628571D01*
X196214289Y-138914286D01*
X196071432Y-139057143D01*
X195928574Y-139128571D01*
X195642860Y-139128571D01*
X195500003Y-139057143D01*
X195357146Y-138914286D01*
X195285717Y-138628571D01*
X195285717Y-138128571D01*
X195357146Y-137842857D01*
X195500003Y-137700000D01*
X195642860Y-137628571D01*
X196928575Y-139128571D02*
X196928575Y-137628571D01*
X197785718Y-139128571D01*
X197785718Y-137628571D01*
X200142861Y-138342857D02*
X200357147Y-138414286D01*
X200428575Y-138485714D01*
X200500004Y-138628571D01*
X200500004Y-138842857D01*
X200428575Y-138985714D01*
X200357147Y-139057143D01*
X200214289Y-139128571D01*
X199642861Y-139128571D01*
X199642861Y-137628571D01*
X200142861Y-137628571D01*
X200285718Y-137700000D01*
X200357147Y-137771429D01*
X200428575Y-137914286D01*
X200428575Y-138057143D01*
X200357147Y-138200000D01*
X200285718Y-138271429D01*
X200142861Y-138342857D01*
X199642861Y-138342857D01*
X201428575Y-137628571D02*
X201714289Y-137628571D01*
X201857147Y-137700000D01*
X202000004Y-137842857D01*
X202071432Y-138128571D01*
X202071432Y-138628571D01*
X202000004Y-138914286D01*
X201857147Y-139057143D01*
X201714289Y-139128571D01*
X201428575Y-139128571D01*
X201285718Y-139057143D01*
X201142861Y-138914286D01*
X201071432Y-138628571D01*
X201071432Y-138128571D01*
X201142861Y-137842857D01*
X201285718Y-137700000D01*
X201428575Y-137628571D01*
X202500004Y-137628571D02*
X203357147Y-137628571D01*
X202928576Y-139128571D02*
X202928576Y-137628571D01*
X203857147Y-139128571D02*
X203857147Y-137628571D01*
X203857147Y-138342857D02*
X204714290Y-138342857D01*
X204714290Y-139128571D02*
X204714290Y-137628571D01*
X207071433Y-138342857D02*
X206571433Y-138342857D01*
X206571433Y-139128571D02*
X206571433Y-137628571D01*
X207285719Y-137628571D01*
X207857147Y-138985714D02*
X207928575Y-139057143D01*
X207857147Y-139128571D01*
X207785718Y-139057143D01*
X207857147Y-138985714D01*
X207857147Y-139128571D01*
X209428576Y-138985714D02*
X209357147Y-139057143D01*
X209142861Y-139128571D01*
X209000004Y-139128571D01*
X208785719Y-139057143D01*
X208642861Y-138914286D01*
X208571433Y-138771429D01*
X208500004Y-138485714D01*
X208500004Y-138271429D01*
X208571433Y-137985714D01*
X208642861Y-137842857D01*
X208785719Y-137700000D01*
X209000004Y-137628571D01*
X209142861Y-137628571D01*
X209357147Y-137700000D01*
X209428576Y-137771429D01*
X210071433Y-137628571D02*
X210071433Y-138842857D01*
X210142861Y-138985714D01*
X210214290Y-139057143D01*
X210357147Y-139128571D01*
X210642861Y-139128571D01*
X210785719Y-139057143D01*
X210857147Y-138985714D01*
X210928576Y-138842857D01*
X210928576Y-137628571D01*
X212714290Y-138700000D02*
X213428576Y-138700000D01*
X212571433Y-139128571D02*
X213071433Y-137628571D01*
X213571433Y-139128571D01*
X214071433Y-139128571D02*
X214071433Y-137628571D01*
X214928576Y-139128571D01*
X214928576Y-137628571D01*
X215642862Y-139128571D02*
X215642862Y-137628571D01*
X216000005Y-137628571D01*
X216214290Y-137700000D01*
X216357148Y-137842857D01*
X216428576Y-137985714D01*
X216500005Y-138271429D01*
X216500005Y-138485714D01*
X216428576Y-138771429D01*
X216357148Y-138914286D01*
X216214290Y-139057143D01*
X216000005Y-139128571D01*
X215642862Y-139128571D01*
X218785719Y-138342857D02*
X219000005Y-138414286D01*
X219071433Y-138485714D01*
X219142862Y-138628571D01*
X219142862Y-138842857D01*
X219071433Y-138985714D01*
X219000005Y-139057143D01*
X218857147Y-139128571D01*
X218285719Y-139128571D01*
X218285719Y-137628571D01*
X218785719Y-137628571D01*
X218928576Y-137700000D01*
X219000005Y-137771429D01*
X219071433Y-137914286D01*
X219071433Y-138057143D01*
X219000005Y-138200000D01*
X218928576Y-138271429D01*
X218785719Y-138342857D01*
X218285719Y-138342857D01*
X219785719Y-138985714D02*
X219857147Y-139057143D01*
X219785719Y-139128571D01*
X219714290Y-139057143D01*
X219785719Y-138985714D01*
X219785719Y-139128571D01*
X221357148Y-138985714D02*
X221285719Y-139057143D01*
X221071433Y-139128571D01*
X220928576Y-139128571D01*
X220714291Y-139057143D01*
X220571433Y-138914286D01*
X220500005Y-138771429D01*
X220428576Y-138485714D01*
X220428576Y-138271429D01*
X220500005Y-137985714D01*
X220571433Y-137842857D01*
X220714291Y-137700000D01*
X220928576Y-137628571D01*
X221071433Y-137628571D01*
X221285719Y-137700000D01*
X221357148Y-137771429D01*
X222000005Y-137628571D02*
X222000005Y-138842857D01*
X222071433Y-138985714D01*
X222142862Y-139057143D01*
X222285719Y-139128571D01*
X222571433Y-139128571D01*
X222714291Y-139057143D01*
X222785719Y-138985714D01*
X222857148Y-138842857D01*
X222857148Y-137628571D01*
X225428577Y-139128571D02*
X224714291Y-139128571D01*
X224714291Y-137628571D01*
X225857148Y-138700000D02*
X226571434Y-138700000D01*
X225714291Y-139128571D02*
X226214291Y-137628571D01*
X226714291Y-139128571D01*
X227500005Y-138414286D02*
X227500005Y-139128571D01*
X227000005Y-137628571D02*
X227500005Y-138414286D01*
X228000005Y-137628571D01*
X228500005Y-138342857D02*
X229000005Y-138342857D01*
X229214291Y-139128571D02*
X228500005Y-139128571D01*
X228500005Y-137628571D01*
X229214291Y-137628571D01*
X230714291Y-139128571D02*
X230214291Y-138414286D01*
X229857148Y-139128571D02*
X229857148Y-137628571D01*
X230428576Y-137628571D01*
X230571434Y-137700000D01*
X230642862Y-137771429D01*
X230714291Y-137914286D01*
X230714291Y-138128571D01*
X230642862Y-138271429D01*
X230571434Y-138342857D01*
X230428576Y-138414286D01*
X229857148Y-138414286D01*
X153000000Y-140678571D02*
X153000000Y-141678571D01*
X152642857Y-140107143D02*
X152285714Y-141178571D01*
X153214286Y-141178571D01*
X153785714Y-141535714D02*
X153857142Y-141607143D01*
X153785714Y-141678571D01*
X153714285Y-141607143D01*
X153785714Y-141535714D01*
X153785714Y-141678571D01*
X155642857Y-141678571D02*
X155642857Y-140178571D01*
X156214285Y-140178571D01*
X156357143Y-140250000D01*
X156428571Y-140321429D01*
X156500000Y-140464286D01*
X156500000Y-140678571D01*
X156428571Y-140821429D01*
X156357143Y-140892857D01*
X156214285Y-140964286D01*
X155642857Y-140964286D01*
X158000000Y-141535714D02*
X157928571Y-141607143D01*
X157714285Y-141678571D01*
X157571428Y-141678571D01*
X157357143Y-141607143D01*
X157214285Y-141464286D01*
X157142857Y-141321429D01*
X157071428Y-141035714D01*
X157071428Y-140821429D01*
X157142857Y-140535714D01*
X157214285Y-140392857D01*
X157357143Y-140250000D01*
X157571428Y-140178571D01*
X157714285Y-140178571D01*
X157928571Y-140250000D01*
X158000000Y-140321429D01*
X159142857Y-140892857D02*
X159357143Y-140964286D01*
X159428571Y-141035714D01*
X159500000Y-141178571D01*
X159500000Y-141392857D01*
X159428571Y-141535714D01*
X159357143Y-141607143D01*
X159214285Y-141678571D01*
X158642857Y-141678571D01*
X158642857Y-140178571D01*
X159142857Y-140178571D01*
X159285714Y-140250000D01*
X159357143Y-140321429D01*
X159428571Y-140464286D01*
X159428571Y-140607143D01*
X159357143Y-140750000D01*
X159285714Y-140821429D01*
X159142857Y-140892857D01*
X158642857Y-140892857D01*
X161285714Y-141678571D02*
X161285714Y-140178571D01*
X161928571Y-141607143D02*
X162142857Y-141678571D01*
X162500000Y-141678571D01*
X162642857Y-141607143D01*
X162714286Y-141535714D01*
X162785714Y-141392857D01*
X162785714Y-141250000D01*
X162714286Y-141107143D01*
X162642857Y-141035714D01*
X162500000Y-140964286D01*
X162214286Y-140892857D01*
X162071428Y-140821429D01*
X162000000Y-140750000D01*
X161928571Y-140607143D01*
X161928571Y-140464286D01*
X162000000Y-140321429D01*
X162071428Y-140250000D01*
X162214286Y-140178571D01*
X162571428Y-140178571D01*
X162785714Y-140250000D01*
X165357142Y-141678571D02*
X164499999Y-141678571D01*
X164928571Y-141678571D02*
X164928571Y-140178571D01*
X164785714Y-140392857D01*
X164642856Y-140535714D01*
X164499999Y-140607143D01*
X165999999Y-141535714D02*
X166071427Y-141607143D01*
X165999999Y-141678571D01*
X165928570Y-141607143D01*
X165999999Y-141535714D01*
X165999999Y-141678571D01*
X167357142Y-140178571D02*
X167071428Y-140178571D01*
X166928571Y-140250000D01*
X166857142Y-140321429D01*
X166714285Y-140535714D01*
X166642856Y-140821429D01*
X166642856Y-141392857D01*
X166714285Y-141535714D01*
X166785713Y-141607143D01*
X166928571Y-141678571D01*
X167214285Y-141678571D01*
X167357142Y-141607143D01*
X167428571Y-141535714D01*
X167499999Y-141392857D01*
X167499999Y-141035714D01*
X167428571Y-140892857D01*
X167357142Y-140821429D01*
X167214285Y-140750000D01*
X166928571Y-140750000D01*
X166785713Y-140821429D01*
X166714285Y-140892857D01*
X166642856Y-141035714D01*
X168142856Y-141678571D02*
X168142856Y-140678571D01*
X168142856Y-140821429D02*
X168214284Y-140750000D01*
X168357142Y-140678571D01*
X168571427Y-140678571D01*
X168714284Y-140750000D01*
X168785713Y-140892857D01*
X168785713Y-141678571D01*
X168785713Y-140892857D02*
X168857142Y-140750000D01*
X168999999Y-140678571D01*
X169214284Y-140678571D01*
X169357142Y-140750000D01*
X169428570Y-140892857D01*
X169428570Y-141678571D01*
X170142856Y-141678571D02*
X170142856Y-140678571D01*
X170142856Y-140821429D02*
X170214284Y-140750000D01*
X170357142Y-140678571D01*
X170571427Y-140678571D01*
X170714284Y-140750000D01*
X170785713Y-140892857D01*
X170785713Y-141678571D01*
X170785713Y-140892857D02*
X170857142Y-140750000D01*
X170999999Y-140678571D01*
X171214284Y-140678571D01*
X171357142Y-140750000D01*
X171428570Y-140892857D01*
X171428570Y-141678571D01*
X173785713Y-140892857D02*
X173285713Y-140892857D01*
X173285713Y-141678571D02*
X173285713Y-140178571D01*
X173999999Y-140178571D01*
X175428570Y-141678571D02*
X174928570Y-140964286D01*
X174571427Y-141678571D02*
X174571427Y-140178571D01*
X175142855Y-140178571D01*
X175285713Y-140250000D01*
X175357141Y-140321429D01*
X175428570Y-140464286D01*
X175428570Y-140678571D01*
X175357141Y-140821429D01*
X175285713Y-140892857D01*
X175142855Y-140964286D01*
X174571427Y-140964286D01*
X176714284Y-140678571D02*
X176714284Y-141678571D01*
X176357141Y-140107143D02*
X175999998Y-141178571D01*
X176928570Y-141178571D01*
X179499998Y-141678571D02*
X178999998Y-140964286D01*
X178642855Y-141678571D02*
X178642855Y-140178571D01*
X179214283Y-140178571D01*
X179357141Y-140250000D01*
X179428569Y-140321429D01*
X179499998Y-140464286D01*
X179499998Y-140678571D01*
X179428569Y-140821429D01*
X179357141Y-140892857D01*
X179214283Y-140964286D01*
X178642855Y-140964286D01*
X180071426Y-141250000D02*
X180785712Y-141250000D01*
X179928569Y-141678571D02*
X180428569Y-140178571D01*
X180928569Y-141678571D01*
X181214283Y-140178571D02*
X182071426Y-140178571D01*
X181642855Y-141678571D02*
X181642855Y-140178571D01*
X182571426Y-140892857D02*
X183071426Y-140892857D01*
X183285712Y-141678571D02*
X182571426Y-141678571D01*
X182571426Y-140178571D01*
X183285712Y-140178571D01*
X183928569Y-141678571D02*
X183928569Y-140178571D01*
X184285712Y-140178571D01*
X184499997Y-140250000D01*
X184642855Y-140392857D01*
X184714283Y-140535714D01*
X184785712Y-140821429D01*
X184785712Y-141035714D01*
X184714283Y-141321429D01*
X184642855Y-141464286D01*
X184499997Y-141607143D01*
X184285712Y-141678571D01*
X183928569Y-141678571D01*
X187071426Y-140892857D02*
X186571426Y-140892857D01*
X186571426Y-141678571D02*
X186571426Y-140178571D01*
X187285712Y-140178571D01*
X188142854Y-140178571D02*
X188428568Y-140178571D01*
X188571426Y-140250000D01*
X188714283Y-140392857D01*
X188785711Y-140678571D01*
X188785711Y-141178571D01*
X188714283Y-141464286D01*
X188571426Y-141607143D01*
X188428568Y-141678571D01*
X188142854Y-141678571D01*
X187999997Y-141607143D01*
X187857140Y-141464286D01*
X187785711Y-141178571D01*
X187785711Y-140678571D01*
X187857140Y-140392857D01*
X187999997Y-140250000D01*
X188142854Y-140178571D01*
X190285712Y-141678571D02*
X189785712Y-140964286D01*
X189428569Y-141678571D02*
X189428569Y-140178571D01*
X189999997Y-140178571D01*
X190142855Y-140250000D01*
X190214283Y-140321429D01*
X190285712Y-140464286D01*
X190285712Y-140678571D01*
X190214283Y-140821429D01*
X190142855Y-140892857D01*
X189999997Y-140964286D01*
X189428569Y-140964286D01*
X192928569Y-141678571D02*
X192428569Y-140964286D01*
X192071426Y-141678571D02*
X192071426Y-140178571D01*
X192642854Y-140178571D01*
X192785712Y-140250000D01*
X192857140Y-140321429D01*
X192928569Y-140464286D01*
X192928569Y-140678571D01*
X192857140Y-140821429D01*
X192785712Y-140892857D01*
X192642854Y-140964286D01*
X192071426Y-140964286D01*
X193857140Y-140178571D02*
X194142854Y-140178571D01*
X194285712Y-140250000D01*
X194428569Y-140392857D01*
X194499997Y-140678571D01*
X194499997Y-141178571D01*
X194428569Y-141464286D01*
X194285712Y-141607143D01*
X194142854Y-141678571D01*
X193857140Y-141678571D01*
X193714283Y-141607143D01*
X193571426Y-141464286D01*
X193499997Y-141178571D01*
X193499997Y-140678571D01*
X193571426Y-140392857D01*
X193714283Y-140250000D01*
X193857140Y-140178571D01*
X195142855Y-141678571D02*
X195142855Y-140178571D01*
X195142855Y-140892857D02*
X195999998Y-140892857D01*
X195999998Y-141678571D02*
X195999998Y-140178571D01*
X196642855Y-141607143D02*
X196857141Y-141678571D01*
X197214284Y-141678571D01*
X197357141Y-141607143D01*
X197428570Y-141535714D01*
X197499998Y-141392857D01*
X197499998Y-141250000D01*
X197428570Y-141107143D01*
X197357141Y-141035714D01*
X197214284Y-140964286D01*
X196928570Y-140892857D01*
X196785712Y-140821429D01*
X196714284Y-140750000D01*
X196642855Y-140607143D01*
X196642855Y-140464286D01*
X196714284Y-140321429D01*
X196785712Y-140250000D01*
X196928570Y-140178571D01*
X197285712Y-140178571D01*
X197499998Y-140250000D01*
X200142855Y-141678571D02*
X199642855Y-140964286D01*
X199285712Y-141678571D02*
X199285712Y-140178571D01*
X199857140Y-140178571D01*
X199999998Y-140250000D01*
X200071426Y-140321429D01*
X200142855Y-140464286D01*
X200142855Y-140678571D01*
X200071426Y-140821429D01*
X199999998Y-140892857D01*
X199857140Y-140964286D01*
X199285712Y-140964286D01*
X200785712Y-140892857D02*
X201285712Y-140892857D01*
X201499998Y-141678571D02*
X200785712Y-141678571D01*
X200785712Y-140178571D01*
X201499998Y-140178571D01*
X202642855Y-140892857D02*
X202142855Y-140892857D01*
X202142855Y-141678571D02*
X202142855Y-140178571D01*
X202857141Y-140178571D01*
X204142855Y-141678571D02*
X203428569Y-141678571D01*
X203428569Y-140178571D01*
X204928569Y-140178571D02*
X205214283Y-140178571D01*
X205357141Y-140250000D01*
X205499998Y-140392857D01*
X205571426Y-140678571D01*
X205571426Y-141178571D01*
X205499998Y-141464286D01*
X205357141Y-141607143D01*
X205214283Y-141678571D01*
X204928569Y-141678571D01*
X204785712Y-141607143D01*
X204642855Y-141464286D01*
X204571426Y-141178571D01*
X204571426Y-140678571D01*
X204642855Y-140392857D01*
X204785712Y-140250000D01*
X204928569Y-140178571D01*
X206071427Y-140178571D02*
X206428570Y-141678571D01*
X206714284Y-140607143D01*
X206999998Y-141678571D01*
X207357141Y-140178571D01*
X207999998Y-141607143D02*
X207999998Y-141678571D01*
X207928570Y-141821429D01*
X207857141Y-141892857D01*
X210571427Y-141678571D02*
X209714284Y-141678571D01*
X210142856Y-141678571D02*
X210142856Y-140178571D01*
X209999999Y-140392857D01*
X209857141Y-140535714D01*
X209714284Y-140607143D01*
X211499998Y-140178571D02*
X211642855Y-140178571D01*
X211785712Y-140250000D01*
X211857141Y-140321429D01*
X211928570Y-140464286D01*
X211999998Y-140750000D01*
X211999998Y-141107143D01*
X211928570Y-141392857D01*
X211857141Y-141535714D01*
X211785712Y-141607143D01*
X211642855Y-141678571D01*
X211499998Y-141678571D01*
X211357141Y-141607143D01*
X211285712Y-141535714D01*
X211214284Y-141392857D01*
X211142855Y-141107143D01*
X211142855Y-140750000D01*
X211214284Y-140464286D01*
X211285712Y-140321429D01*
X211357141Y-140250000D01*
X211499998Y-140178571D01*
X212499998Y-140178571D02*
X213499998Y-140178571D01*
X212499998Y-141678571D01*
X213499998Y-141678571D01*
X216071426Y-141535714D02*
X215999997Y-141607143D01*
X215785711Y-141678571D01*
X215642854Y-141678571D01*
X215428569Y-141607143D01*
X215285711Y-141464286D01*
X215214283Y-141321429D01*
X215142854Y-141035714D01*
X215142854Y-140821429D01*
X215214283Y-140535714D01*
X215285711Y-140392857D01*
X215428569Y-140250000D01*
X215642854Y-140178571D01*
X215785711Y-140178571D01*
X215999997Y-140250000D01*
X216071426Y-140321429D01*
X216999997Y-140178571D02*
X217285711Y-140178571D01*
X217428569Y-140250000D01*
X217571426Y-140392857D01*
X217642854Y-140678571D01*
X217642854Y-141178571D01*
X217571426Y-141464286D01*
X217428569Y-141607143D01*
X217285711Y-141678571D01*
X216999997Y-141678571D01*
X216857140Y-141607143D01*
X216714283Y-141464286D01*
X216642854Y-141178571D01*
X216642854Y-140678571D01*
X216714283Y-140392857D01*
X216857140Y-140250000D01*
X216999997Y-140178571D01*
X218285712Y-141678571D02*
X218285712Y-140178571D01*
X218857140Y-140178571D01*
X218999998Y-140250000D01*
X219071426Y-140321429D01*
X219142855Y-140464286D01*
X219142855Y-140678571D01*
X219071426Y-140821429D01*
X218999998Y-140892857D01*
X218857140Y-140964286D01*
X218285712Y-140964286D01*
X219785712Y-141678571D02*
X219785712Y-140178571D01*
X220357140Y-140178571D01*
X220499998Y-140250000D01*
X220571426Y-140321429D01*
X220642855Y-140464286D01*
X220642855Y-140678571D01*
X220571426Y-140821429D01*
X220499998Y-140892857D01*
X220357140Y-140964286D01*
X219785712Y-140964286D01*
X221285712Y-140892857D02*
X221785712Y-140892857D01*
X221999998Y-141678571D02*
X221285712Y-141678571D01*
X221285712Y-140178571D01*
X221999998Y-140178571D01*
X223499998Y-141678571D02*
X222999998Y-140964286D01*
X222642855Y-141678571D02*
X222642855Y-140178571D01*
X223214283Y-140178571D01*
X223357141Y-140250000D01*
X223428569Y-140321429D01*
X223499998Y-140464286D01*
X223499998Y-140678571D01*
X223428569Y-140821429D01*
X223357141Y-140892857D01*
X223214283Y-140964286D01*
X222642855Y-140964286D01*
X224214283Y-141607143D02*
X224214283Y-141678571D01*
X224142855Y-141821429D01*
X224071426Y-141892857D01*
X225999998Y-140892857D02*
X226499998Y-140892857D01*
X226714284Y-141678571D02*
X225999998Y-141678571D01*
X225999998Y-140178571D01*
X226714284Y-140178571D01*
X227357141Y-141678571D02*
X227357141Y-140178571D01*
X228214284Y-141678571D01*
X228214284Y-140178571D01*
X228928570Y-141678571D02*
X228928570Y-140178571D01*
X230428570Y-140250000D02*
X230285713Y-140178571D01*
X230071427Y-140178571D01*
X229857142Y-140250000D01*
X229714284Y-140392857D01*
X229642856Y-140535714D01*
X229571427Y-140821429D01*
X229571427Y-141035714D01*
X229642856Y-141321429D01*
X229714284Y-141464286D01*
X229857142Y-141607143D01*
X230071427Y-141678571D01*
X230214284Y-141678571D01*
X230428570Y-141607143D01*
X230499999Y-141535714D01*
X230499999Y-141035714D01*
X230214284Y-141035714D01*
X232785713Y-140892857D02*
X232285713Y-140892857D01*
X232285713Y-141678571D02*
X232285713Y-140178571D01*
X232999999Y-140178571D01*
X233571427Y-141678571D02*
X233571427Y-140178571D01*
X234285713Y-141678571D02*
X234285713Y-140178571D01*
X235142856Y-141678571D01*
X235142856Y-140178571D01*
X235857142Y-141678571D02*
X235857142Y-140178571D01*
X236499999Y-141607143D02*
X236714285Y-141678571D01*
X237071428Y-141678571D01*
X237214285Y-141607143D01*
X237285714Y-141535714D01*
X237357142Y-141392857D01*
X237357142Y-141250000D01*
X237285714Y-141107143D01*
X237214285Y-141035714D01*
X237071428Y-140964286D01*
X236785714Y-140892857D01*
X236642856Y-140821429D01*
X236571428Y-140750000D01*
X236499999Y-140607143D01*
X236499999Y-140464286D01*
X236571428Y-140321429D01*
X236642856Y-140250000D01*
X236785714Y-140178571D01*
X237142856Y-140178571D01*
X237357142Y-140250000D01*
X237999999Y-141678571D02*
X237999999Y-140178571D01*
X237999999Y-140892857D02*
X238857142Y-140892857D01*
X238857142Y-141678571D02*
X238857142Y-140178571D01*
X153071429Y-142728571D02*
X152357143Y-142728571D01*
X152285714Y-143442857D01*
X152357143Y-143371429D01*
X152500000Y-143300000D01*
X152857143Y-143300000D01*
X153000000Y-143371429D01*
X153071429Y-143442857D01*
X153142857Y-143585714D01*
X153142857Y-143942857D01*
X153071429Y-144085714D01*
X153000000Y-144157143D01*
X152857143Y-144228571D01*
X152500000Y-144228571D01*
X152357143Y-144157143D01*
X152285714Y-144085714D01*
X153785714Y-144085714D02*
X153857142Y-144157143D01*
X153785714Y-144228571D01*
X153714285Y-144157143D01*
X153785714Y-144085714D01*
X153785714Y-144228571D01*
X155642857Y-144228571D02*
X155642857Y-142728571D01*
X156142857Y-143800000D01*
X156642857Y-142728571D01*
X156642857Y-144228571D01*
X157285714Y-143800000D02*
X158000000Y-143800000D01*
X157142857Y-144228571D02*
X157642857Y-142728571D01*
X158142857Y-144228571D01*
X158428571Y-142728571D02*
X159285714Y-142728571D01*
X158857143Y-144228571D02*
X158857143Y-142728571D01*
X159571428Y-142728571D02*
X160428571Y-142728571D01*
X160000000Y-144228571D02*
X160000000Y-142728571D01*
X160928571Y-143442857D02*
X161428571Y-143442857D01*
X161642857Y-144228571D02*
X160928571Y-144228571D01*
X160928571Y-142728571D01*
X161642857Y-142728571D01*
X163928571Y-143442857D02*
X164142857Y-143514286D01*
X164214285Y-143585714D01*
X164285714Y-143728571D01*
X164285714Y-143942857D01*
X164214285Y-144085714D01*
X164142857Y-144157143D01*
X163999999Y-144228571D01*
X163428571Y-144228571D01*
X163428571Y-142728571D01*
X163928571Y-142728571D01*
X164071428Y-142800000D01*
X164142857Y-142871429D01*
X164214285Y-143014286D01*
X164214285Y-143157143D01*
X164142857Y-143300000D01*
X164071428Y-143371429D01*
X163928571Y-143442857D01*
X163428571Y-143442857D01*
X165642857Y-144228571D02*
X164928571Y-144228571D01*
X164928571Y-142728571D01*
X166071428Y-143800000D02*
X166785714Y-143800000D01*
X165928571Y-144228571D02*
X166428571Y-142728571D01*
X166928571Y-144228571D01*
X168285714Y-144085714D02*
X168214285Y-144157143D01*
X167999999Y-144228571D01*
X167857142Y-144228571D01*
X167642857Y-144157143D01*
X167499999Y-144014286D01*
X167428571Y-143871429D01*
X167357142Y-143585714D01*
X167357142Y-143371429D01*
X167428571Y-143085714D01*
X167499999Y-142942857D01*
X167642857Y-142800000D01*
X167857142Y-142728571D01*
X167999999Y-142728571D01*
X168214285Y-142800000D01*
X168285714Y-142871429D01*
X168928571Y-144228571D02*
X168928571Y-142728571D01*
X169785714Y-144228571D02*
X169142857Y-143371429D01*
X169785714Y-142728571D02*
X168928571Y-143585714D01*
X171499999Y-144157143D02*
X171714285Y-144228571D01*
X172071428Y-144228571D01*
X172214285Y-144157143D01*
X172285714Y-144085714D01*
X172357142Y-143942857D01*
X172357142Y-143800000D01*
X172285714Y-143657143D01*
X172214285Y-143585714D01*
X172071428Y-143514286D01*
X171785714Y-143442857D01*
X171642856Y-143371429D01*
X171571428Y-143300000D01*
X171499999Y-143157143D01*
X171499999Y-143014286D01*
X171571428Y-142871429D01*
X171642856Y-142800000D01*
X171785714Y-142728571D01*
X172142856Y-142728571D01*
X172357142Y-142800000D01*
X173285713Y-142728571D02*
X173571427Y-142728571D01*
X173714285Y-142800000D01*
X173857142Y-142942857D01*
X173928570Y-143228571D01*
X173928570Y-143728571D01*
X173857142Y-144014286D01*
X173714285Y-144157143D01*
X173571427Y-144228571D01*
X173285713Y-144228571D01*
X173142856Y-144157143D01*
X172999999Y-144014286D01*
X172928570Y-143728571D01*
X172928570Y-143228571D01*
X172999999Y-142942857D01*
X173142856Y-142800000D01*
X173285713Y-142728571D01*
X175285714Y-144228571D02*
X174571428Y-144228571D01*
X174571428Y-142728571D01*
X175785714Y-144228571D02*
X175785714Y-142728571D01*
X176142857Y-142728571D01*
X176357142Y-142800000D01*
X176500000Y-142942857D01*
X176571428Y-143085714D01*
X176642857Y-143371429D01*
X176642857Y-143585714D01*
X176571428Y-143871429D01*
X176500000Y-144014286D01*
X176357142Y-144157143D01*
X176142857Y-144228571D01*
X175785714Y-144228571D01*
X177285714Y-143442857D02*
X177785714Y-143442857D01*
X178000000Y-144228571D02*
X177285714Y-144228571D01*
X177285714Y-142728571D01*
X178000000Y-142728571D01*
X179500000Y-144228571D02*
X179000000Y-143514286D01*
X178642857Y-144228571D02*
X178642857Y-142728571D01*
X179214285Y-142728571D01*
X179357143Y-142800000D01*
X179428571Y-142871429D01*
X179500000Y-143014286D01*
X179500000Y-143228571D01*
X179428571Y-143371429D01*
X179357143Y-143442857D01*
X179214285Y-143514286D01*
X178642857Y-143514286D01*
X181285714Y-144228571D02*
X181285714Y-142728571D01*
X181785714Y-143800000D01*
X182285714Y-142728571D01*
X182285714Y-144228571D01*
X182928571Y-143800000D02*
X183642857Y-143800000D01*
X182785714Y-144228571D02*
X183285714Y-142728571D01*
X183785714Y-144228571D01*
X184214285Y-144157143D02*
X184428571Y-144228571D01*
X184785714Y-144228571D01*
X184928571Y-144157143D01*
X185000000Y-144085714D01*
X185071428Y-143942857D01*
X185071428Y-143800000D01*
X185000000Y-143657143D01*
X184928571Y-143585714D01*
X184785714Y-143514286D01*
X184500000Y-143442857D01*
X184357142Y-143371429D01*
X184285714Y-143300000D01*
X184214285Y-143157143D01*
X184214285Y-143014286D01*
X184285714Y-142871429D01*
X184357142Y-142800000D01*
X184500000Y-142728571D01*
X184857142Y-142728571D01*
X185071428Y-142800000D01*
X185714285Y-144228571D02*
X185714285Y-142728571D01*
X186571428Y-144228571D02*
X185928571Y-143371429D01*
X186571428Y-142728571D02*
X185714285Y-143585714D01*
X188214285Y-142728571D02*
X188571428Y-144228571D01*
X188857142Y-143157143D01*
X189142856Y-144228571D01*
X189499999Y-142728571D01*
X190071428Y-144228571D02*
X190071428Y-142728571D01*
X190571428Y-142728571D02*
X191428571Y-142728571D01*
X191000000Y-144228571D02*
X191000000Y-142728571D01*
X191928571Y-144228571D02*
X191928571Y-142728571D01*
X191928571Y-143442857D02*
X192785714Y-143442857D01*
X192785714Y-144228571D02*
X192785714Y-142728571D01*
X194500000Y-142728571D02*
X194857143Y-144228571D01*
X195142857Y-143157143D01*
X195428571Y-144228571D01*
X195785714Y-142728571D01*
X196357143Y-144228571D02*
X196357143Y-142728571D01*
X196357143Y-143442857D02*
X197214286Y-143442857D01*
X197214286Y-144228571D02*
X197214286Y-142728571D01*
X197928572Y-144228571D02*
X197928572Y-142728571D01*
X198428572Y-142728571D02*
X199285715Y-142728571D01*
X198857144Y-144228571D02*
X198857144Y-142728571D01*
X199785715Y-143442857D02*
X200285715Y-143442857D01*
X200500001Y-144228571D02*
X199785715Y-144228571D01*
X199785715Y-142728571D01*
X200500001Y-142728571D01*
X202214286Y-144157143D02*
X202428572Y-144228571D01*
X202785715Y-144228571D01*
X202928572Y-144157143D01*
X203000001Y-144085714D01*
X203071429Y-143942857D01*
X203071429Y-143800000D01*
X203000001Y-143657143D01*
X202928572Y-143585714D01*
X202785715Y-143514286D01*
X202500001Y-143442857D01*
X202357143Y-143371429D01*
X202285715Y-143300000D01*
X202214286Y-143157143D01*
X202214286Y-143014286D01*
X202285715Y-142871429D01*
X202357143Y-142800000D01*
X202500001Y-142728571D01*
X202857143Y-142728571D01*
X203071429Y-142800000D01*
X203714286Y-144228571D02*
X203714286Y-142728571D01*
X205142858Y-144228571D02*
X204428572Y-144228571D01*
X204428572Y-142728571D01*
X205642858Y-144228571D02*
X205642858Y-142728571D01*
X206500001Y-144228571D02*
X205857144Y-143371429D01*
X206500001Y-142728571D02*
X205642858Y-143585714D01*
X207071429Y-144157143D02*
X207285715Y-144228571D01*
X207642858Y-144228571D01*
X207785715Y-144157143D01*
X207857144Y-144085714D01*
X207928572Y-143942857D01*
X207928572Y-143800000D01*
X207857144Y-143657143D01*
X207785715Y-143585714D01*
X207642858Y-143514286D01*
X207357144Y-143442857D01*
X207214286Y-143371429D01*
X207142858Y-143300000D01*
X207071429Y-143157143D01*
X207071429Y-143014286D01*
X207142858Y-142871429D01*
X207214286Y-142800000D01*
X207357144Y-142728571D01*
X207714286Y-142728571D01*
X207928572Y-142800000D01*
X209428572Y-144085714D02*
X209357143Y-144157143D01*
X209142857Y-144228571D01*
X209000000Y-144228571D01*
X208785715Y-144157143D01*
X208642857Y-144014286D01*
X208571429Y-143871429D01*
X208500000Y-143585714D01*
X208500000Y-143371429D01*
X208571429Y-143085714D01*
X208642857Y-142942857D01*
X208785715Y-142800000D01*
X209000000Y-142728571D01*
X209142857Y-142728571D01*
X209357143Y-142800000D01*
X209428572Y-142871429D01*
X210928572Y-144228571D02*
X210428572Y-143514286D01*
X210071429Y-144228571D02*
X210071429Y-142728571D01*
X210642857Y-142728571D01*
X210785715Y-142800000D01*
X210857143Y-142871429D01*
X210928572Y-143014286D01*
X210928572Y-143228571D01*
X210857143Y-143371429D01*
X210785715Y-143442857D01*
X210642857Y-143514286D01*
X210071429Y-143514286D01*
X211571429Y-143442857D02*
X212071429Y-143442857D01*
X212285715Y-144228571D02*
X211571429Y-144228571D01*
X211571429Y-142728571D01*
X212285715Y-142728571D01*
X212928572Y-143442857D02*
X213428572Y-143442857D01*
X213642858Y-144228571D02*
X212928572Y-144228571D01*
X212928572Y-142728571D01*
X213642858Y-142728571D01*
X214285715Y-144228571D02*
X214285715Y-142728571D01*
X215142858Y-144228571D01*
X215142858Y-142728571D01*
X153000000Y-145278571D02*
X152714286Y-145278571D01*
X152571429Y-145350000D01*
X152500000Y-145421429D01*
X152357143Y-145635714D01*
X152285714Y-145921429D01*
X152285714Y-146492857D01*
X152357143Y-146635714D01*
X152428571Y-146707143D01*
X152571429Y-146778571D01*
X152857143Y-146778571D01*
X153000000Y-146707143D01*
X153071429Y-146635714D01*
X153142857Y-146492857D01*
X153142857Y-146135714D01*
X153071429Y-145992857D01*
X153000000Y-145921429D01*
X152857143Y-145850000D01*
X152571429Y-145850000D01*
X152428571Y-145921429D01*
X152357143Y-145992857D01*
X152285714Y-146135714D01*
X153785714Y-146635714D02*
X153857142Y-146707143D01*
X153785714Y-146778571D01*
X153714285Y-146707143D01*
X153785714Y-146635714D01*
X153785714Y-146778571D01*
X155571428Y-146707143D02*
X155785714Y-146778571D01*
X156142857Y-146778571D01*
X156285714Y-146707143D01*
X156357143Y-146635714D01*
X156428571Y-146492857D01*
X156428571Y-146350000D01*
X156357143Y-146207143D01*
X156285714Y-146135714D01*
X156142857Y-146064286D01*
X155857143Y-145992857D01*
X155714285Y-145921429D01*
X155642857Y-145850000D01*
X155571428Y-145707143D01*
X155571428Y-145564286D01*
X155642857Y-145421429D01*
X155714285Y-145350000D01*
X155857143Y-145278571D01*
X156214285Y-145278571D01*
X156428571Y-145350000D01*
X157357142Y-145278571D02*
X157642856Y-145278571D01*
X157785714Y-145350000D01*
X157928571Y-145492857D01*
X157999999Y-145778571D01*
X157999999Y-146278571D01*
X157928571Y-146564286D01*
X157785714Y-146707143D01*
X157642856Y-146778571D01*
X157357142Y-146778571D01*
X157214285Y-146707143D01*
X157071428Y-146564286D01*
X156999999Y-146278571D01*
X156999999Y-145778571D01*
X157071428Y-145492857D01*
X157214285Y-145350000D01*
X157357142Y-145278571D01*
X159357143Y-146778571D02*
X158642857Y-146778571D01*
X158642857Y-145278571D01*
X159857143Y-146778571D02*
X159857143Y-145278571D01*
X160214286Y-145278571D01*
X160428571Y-145350000D01*
X160571429Y-145492857D01*
X160642857Y-145635714D01*
X160714286Y-145921429D01*
X160714286Y-146135714D01*
X160642857Y-146421429D01*
X160571429Y-146564286D01*
X160428571Y-146707143D01*
X160214286Y-146778571D01*
X159857143Y-146778571D01*
X161357143Y-145992857D02*
X161857143Y-145992857D01*
X162071429Y-146778571D02*
X161357143Y-146778571D01*
X161357143Y-145278571D01*
X162071429Y-145278571D01*
X163571429Y-146778571D02*
X163071429Y-146064286D01*
X162714286Y-146778571D02*
X162714286Y-145278571D01*
X163285714Y-145278571D01*
X163428572Y-145350000D01*
X163500000Y-145421429D01*
X163571429Y-145564286D01*
X163571429Y-145778571D01*
X163500000Y-145921429D01*
X163428572Y-145992857D01*
X163285714Y-146064286D01*
X162714286Y-146064286D01*
X165357143Y-146778571D02*
X165357143Y-145278571D01*
X165928571Y-145278571D01*
X166071429Y-145350000D01*
X166142857Y-145421429D01*
X166214286Y-145564286D01*
X166214286Y-145778571D01*
X166142857Y-145921429D01*
X166071429Y-145992857D01*
X165928571Y-146064286D01*
X165357143Y-146064286D01*
X166785714Y-146350000D02*
X167500000Y-146350000D01*
X166642857Y-146778571D02*
X167142857Y-145278571D01*
X167642857Y-146778571D01*
X168071428Y-146707143D02*
X168285714Y-146778571D01*
X168642857Y-146778571D01*
X168785714Y-146707143D01*
X168857143Y-146635714D01*
X168928571Y-146492857D01*
X168928571Y-146350000D01*
X168857143Y-146207143D01*
X168785714Y-146135714D01*
X168642857Y-146064286D01*
X168357143Y-145992857D01*
X168214285Y-145921429D01*
X168142857Y-145850000D01*
X168071428Y-145707143D01*
X168071428Y-145564286D01*
X168142857Y-145421429D01*
X168214285Y-145350000D01*
X168357143Y-145278571D01*
X168714285Y-145278571D01*
X168928571Y-145350000D01*
X169357142Y-145278571D02*
X170214285Y-145278571D01*
X169785714Y-146778571D02*
X169785714Y-145278571D01*
X170714285Y-145992857D02*
X171214285Y-145992857D01*
X171428571Y-146778571D02*
X170714285Y-146778571D01*
X170714285Y-145278571D01*
X171428571Y-145278571D01*
X173214285Y-146778571D02*
X173214285Y-145278571D01*
X173714285Y-146350000D01*
X174214285Y-145278571D01*
X174214285Y-146778571D01*
X174928571Y-145278571D02*
X174928571Y-146492857D01*
X174999999Y-146635714D01*
X175071428Y-146707143D01*
X175214285Y-146778571D01*
X175499999Y-146778571D01*
X175642857Y-146707143D01*
X175714285Y-146635714D01*
X175785714Y-146492857D01*
X175785714Y-145278571D01*
X176428571Y-146707143D02*
X176642857Y-146778571D01*
X177000000Y-146778571D01*
X177142857Y-146707143D01*
X177214286Y-146635714D01*
X177285714Y-146492857D01*
X177285714Y-146350000D01*
X177214286Y-146207143D01*
X177142857Y-146135714D01*
X177000000Y-146064286D01*
X176714286Y-145992857D01*
X176571428Y-145921429D01*
X176500000Y-145850000D01*
X176428571Y-145707143D01*
X176428571Y-145564286D01*
X176500000Y-145421429D01*
X176571428Y-145350000D01*
X176714286Y-145278571D01*
X177071428Y-145278571D01*
X177285714Y-145350000D01*
X177714285Y-145278571D02*
X178571428Y-145278571D01*
X178142857Y-146778571D02*
X178142857Y-145278571D01*
X180714285Y-145992857D02*
X180928571Y-146064286D01*
X180999999Y-146135714D01*
X181071428Y-146278571D01*
X181071428Y-146492857D01*
X180999999Y-146635714D01*
X180928571Y-146707143D01*
X180785713Y-146778571D01*
X180214285Y-146778571D01*
X180214285Y-145278571D01*
X180714285Y-145278571D01*
X180857142Y-145350000D01*
X180928571Y-145421429D01*
X180999999Y-145564286D01*
X180999999Y-145707143D01*
X180928571Y-145850000D01*
X180857142Y-145921429D01*
X180714285Y-145992857D01*
X180214285Y-145992857D01*
X181714285Y-145992857D02*
X182214285Y-145992857D01*
X182428571Y-146778571D02*
X181714285Y-146778571D01*
X181714285Y-145278571D01*
X182428571Y-145278571D01*
X185071428Y-146778571D02*
X184571428Y-146064286D01*
X184214285Y-146778571D02*
X184214285Y-145278571D01*
X184785713Y-145278571D01*
X184928571Y-145350000D01*
X184999999Y-145421429D01*
X185071428Y-145564286D01*
X185071428Y-145778571D01*
X184999999Y-145921429D01*
X184928571Y-145992857D01*
X184785713Y-146064286D01*
X184214285Y-146064286D01*
X185999999Y-145278571D02*
X186285713Y-145278571D01*
X186428571Y-145350000D01*
X186571428Y-145492857D01*
X186642856Y-145778571D01*
X186642856Y-146278571D01*
X186571428Y-146564286D01*
X186428571Y-146707143D01*
X186285713Y-146778571D01*
X185999999Y-146778571D01*
X185857142Y-146707143D01*
X185714285Y-146564286D01*
X185642856Y-146278571D01*
X185642856Y-145778571D01*
X185714285Y-145492857D01*
X185857142Y-145350000D01*
X185999999Y-145278571D01*
X187285714Y-146778571D02*
X187285714Y-145278571D01*
X187285714Y-145992857D02*
X188142857Y-145992857D01*
X188142857Y-146778571D02*
X188142857Y-145278571D01*
X188785714Y-146707143D02*
X189000000Y-146778571D01*
X189357143Y-146778571D01*
X189500000Y-146707143D01*
X189571429Y-146635714D01*
X189642857Y-146492857D01*
X189642857Y-146350000D01*
X189571429Y-146207143D01*
X189500000Y-146135714D01*
X189357143Y-146064286D01*
X189071429Y-145992857D01*
X188928571Y-145921429D01*
X188857143Y-145850000D01*
X188785714Y-145707143D01*
X188785714Y-145564286D01*
X188857143Y-145421429D01*
X188928571Y-145350000D01*
X189071429Y-145278571D01*
X189428571Y-145278571D01*
X189642857Y-145350000D01*
X192285714Y-146635714D02*
X192214285Y-146707143D01*
X191999999Y-146778571D01*
X191857142Y-146778571D01*
X191642857Y-146707143D01*
X191499999Y-146564286D01*
X191428571Y-146421429D01*
X191357142Y-146135714D01*
X191357142Y-145921429D01*
X191428571Y-145635714D01*
X191499999Y-145492857D01*
X191642857Y-145350000D01*
X191857142Y-145278571D01*
X191999999Y-145278571D01*
X192214285Y-145350000D01*
X192285714Y-145421429D01*
X193214285Y-145278571D02*
X193499999Y-145278571D01*
X193642857Y-145350000D01*
X193785714Y-145492857D01*
X193857142Y-145778571D01*
X193857142Y-146278571D01*
X193785714Y-146564286D01*
X193642857Y-146707143D01*
X193499999Y-146778571D01*
X193214285Y-146778571D01*
X193071428Y-146707143D01*
X192928571Y-146564286D01*
X192857142Y-146278571D01*
X192857142Y-145778571D01*
X192928571Y-145492857D01*
X193071428Y-145350000D01*
X193214285Y-145278571D01*
X194500000Y-146778571D02*
X194500000Y-145278571D01*
X195000000Y-146350000D01*
X195500000Y-145278571D01*
X195500000Y-146778571D01*
X196214286Y-146778571D02*
X196214286Y-145278571D01*
X196785714Y-145278571D01*
X196928572Y-145350000D01*
X197000000Y-145421429D01*
X197071429Y-145564286D01*
X197071429Y-145778571D01*
X197000000Y-145921429D01*
X196928572Y-145992857D01*
X196785714Y-146064286D01*
X196214286Y-146064286D01*
X198428572Y-146778571D02*
X197714286Y-146778571D01*
X197714286Y-145278571D01*
X198928572Y-146778571D02*
X198928572Y-145278571D01*
X199571429Y-146350000D02*
X200285715Y-146350000D01*
X199428572Y-146778571D02*
X199928572Y-145278571D01*
X200428572Y-146778571D01*
X200928572Y-146778571D02*
X200928572Y-145278571D01*
X201785715Y-146778571D01*
X201785715Y-145278571D01*
X202285715Y-145278571D02*
X203142858Y-145278571D01*
X202714287Y-146778571D02*
X202714287Y-145278571D01*
X205214286Y-147350000D02*
X205142858Y-147278571D01*
X205000001Y-147064286D01*
X204928572Y-146921429D01*
X204857143Y-146707143D01*
X204785715Y-146350000D01*
X204785715Y-146064286D01*
X204857143Y-145707143D01*
X204928572Y-145492857D01*
X205000001Y-145350000D01*
X205142858Y-145135714D01*
X205214286Y-145064286D01*
X206500001Y-146778571D02*
X205785715Y-146778571D01*
X205785715Y-145278571D01*
X207000001Y-145992857D02*
X207500001Y-145992857D01*
X207714287Y-146778571D02*
X207000001Y-146778571D01*
X207000001Y-145278571D01*
X207714287Y-145278571D01*
X208285715Y-146350000D02*
X209000001Y-146350000D01*
X208142858Y-146778571D02*
X208642858Y-145278571D01*
X209142858Y-146778571D01*
X209642858Y-146778571D02*
X209642858Y-145278571D01*
X210000001Y-145278571D01*
X210214286Y-145350000D01*
X210357144Y-145492857D01*
X210428572Y-145635714D01*
X210500001Y-145921429D01*
X210500001Y-146135714D01*
X210428572Y-146421429D01*
X210357144Y-146564286D01*
X210214286Y-146707143D01*
X210000001Y-146778571D01*
X209642858Y-146778571D01*
X211142858Y-146207143D02*
X212285715Y-146207143D01*
X213500001Y-145992857D02*
X213000001Y-145992857D01*
X213000001Y-146778571D02*
X213000001Y-145278571D01*
X213714287Y-145278571D01*
X215142858Y-146778571D02*
X214642858Y-146064286D01*
X214285715Y-146778571D02*
X214285715Y-145278571D01*
X214857143Y-145278571D01*
X215000001Y-145350000D01*
X215071429Y-145421429D01*
X215142858Y-145564286D01*
X215142858Y-145778571D01*
X215071429Y-145921429D01*
X215000001Y-145992857D01*
X214857143Y-146064286D01*
X214285715Y-146064286D01*
X215785715Y-145992857D02*
X216285715Y-145992857D01*
X216500001Y-146778571D02*
X215785715Y-146778571D01*
X215785715Y-145278571D01*
X216500001Y-145278571D01*
X217142858Y-145992857D02*
X217642858Y-145992857D01*
X217857144Y-146778571D02*
X217142858Y-146778571D01*
X217142858Y-145278571D01*
X217857144Y-145278571D01*
X218357144Y-147350000D02*
X218428572Y-147278571D01*
X218571429Y-147064286D01*
X218642858Y-146921429D01*
X218714287Y-146707143D01*
X218785715Y-146350000D01*
X218785715Y-146064286D01*
X218714287Y-145707143D01*
X218642858Y-145492857D01*
X218571429Y-145350000D01*
X218428572Y-145135714D01*
X218357144Y-145064286D01*
X152214286Y-147828571D02*
X153214286Y-147828571D01*
X152571429Y-149328571D01*
X153785714Y-149185714D02*
X153857142Y-149257143D01*
X153785714Y-149328571D01*
X153714285Y-149257143D01*
X153785714Y-149185714D01*
X153785714Y-149328571D01*
X155642857Y-149328571D02*
X155642857Y-147828571D01*
X156500000Y-149328571D01*
X156500000Y-147828571D01*
X157500000Y-147828571D02*
X157785714Y-147828571D01*
X157928572Y-147900000D01*
X158071429Y-148042857D01*
X158142857Y-148328571D01*
X158142857Y-148828571D01*
X158071429Y-149114286D01*
X157928572Y-149257143D01*
X157785714Y-149328571D01*
X157500000Y-149328571D01*
X157357143Y-149257143D01*
X157214286Y-149114286D01*
X157142857Y-148828571D01*
X157142857Y-148328571D01*
X157214286Y-148042857D01*
X157357143Y-147900000D01*
X157500000Y-147828571D01*
X159928572Y-149328571D02*
X159928572Y-147828571D01*
X160428572Y-148900000D01*
X160928572Y-147828571D01*
X160928572Y-149328571D01*
X161571429Y-148900000D02*
X162285715Y-148900000D01*
X161428572Y-149328571D02*
X161928572Y-147828571D01*
X162428572Y-149328571D01*
X163785715Y-149328571D02*
X163285715Y-148614286D01*
X162928572Y-149328571D02*
X162928572Y-147828571D01*
X163500000Y-147828571D01*
X163642858Y-147900000D01*
X163714286Y-147971429D01*
X163785715Y-148114286D01*
X163785715Y-148328571D01*
X163714286Y-148471429D01*
X163642858Y-148542857D01*
X163500000Y-148614286D01*
X162928572Y-148614286D01*
X164428572Y-149328571D02*
X164428572Y-147828571D01*
X165285715Y-149328571D02*
X164642858Y-148471429D01*
X165285715Y-147828571D02*
X164428572Y-148685714D01*
X165857143Y-149257143D02*
X166071429Y-149328571D01*
X166428572Y-149328571D01*
X166571429Y-149257143D01*
X166642858Y-149185714D01*
X166714286Y-149042857D01*
X166714286Y-148900000D01*
X166642858Y-148757143D01*
X166571429Y-148685714D01*
X166428572Y-148614286D01*
X166142858Y-148542857D01*
X166000000Y-148471429D01*
X165928572Y-148400000D01*
X165857143Y-148257143D01*
X165857143Y-148114286D01*
X165928572Y-147971429D01*
X166000000Y-147900000D01*
X166142858Y-147828571D01*
X166500000Y-147828571D01*
X166714286Y-147900000D01*
X168928571Y-149900000D02*
X168857143Y-149828571D01*
X168714286Y-149614286D01*
X168642857Y-149471429D01*
X168571428Y-149257143D01*
X168500000Y-148900000D01*
X168500000Y-148614286D01*
X168571428Y-148257143D01*
X168642857Y-148042857D01*
X168714286Y-147900000D01*
X168857143Y-147685714D01*
X168928571Y-147614286D01*
X169500000Y-148542857D02*
X170000000Y-148542857D01*
X170214286Y-149328571D02*
X169500000Y-149328571D01*
X169500000Y-147828571D01*
X170214286Y-147828571D01*
X170857143Y-148757143D02*
X172000000Y-148757143D01*
X172500000Y-147828571D02*
X173357143Y-147828571D01*
X172928572Y-149328571D02*
X172928572Y-147828571D01*
X173857143Y-148542857D02*
X174357143Y-148542857D01*
X174571429Y-149328571D02*
X173857143Y-149328571D01*
X173857143Y-147828571D01*
X174571429Y-147828571D01*
X175142857Y-149257143D02*
X175357143Y-149328571D01*
X175714286Y-149328571D01*
X175857143Y-149257143D01*
X175928572Y-149185714D01*
X176000000Y-149042857D01*
X176000000Y-148900000D01*
X175928572Y-148757143D01*
X175857143Y-148685714D01*
X175714286Y-148614286D01*
X175428572Y-148542857D01*
X175285714Y-148471429D01*
X175214286Y-148400000D01*
X175142857Y-148257143D01*
X175142857Y-148114286D01*
X175214286Y-147971429D01*
X175285714Y-147900000D01*
X175428572Y-147828571D01*
X175785714Y-147828571D01*
X176000000Y-147900000D01*
X176428571Y-147828571D02*
X177285714Y-147828571D01*
X176857143Y-149328571D02*
X176857143Y-147828571D01*
X177857142Y-149257143D02*
X177857142Y-149328571D01*
X177785714Y-149471429D01*
X177714285Y-149542857D01*
X180642857Y-149471429D02*
X180500000Y-149400000D01*
X180357143Y-149257143D01*
X180142857Y-149042857D01*
X180000000Y-148971429D01*
X179857143Y-148971429D01*
X179928571Y-149328571D02*
X179785714Y-149257143D01*
X179642857Y-149114286D01*
X179571428Y-148828571D01*
X179571428Y-148328571D01*
X179642857Y-148042857D01*
X179785714Y-147900000D01*
X179928571Y-147828571D01*
X180214285Y-147828571D01*
X180357143Y-147900000D01*
X180500000Y-148042857D01*
X180571428Y-148328571D01*
X180571428Y-148828571D01*
X180500000Y-149114286D01*
X180357143Y-149257143D01*
X180214285Y-149328571D01*
X179928571Y-149328571D01*
X181142857Y-148900000D02*
X181857143Y-148900000D01*
X181000000Y-149328571D02*
X181500000Y-147828571D01*
X182000000Y-149328571D01*
X182571428Y-149257143D02*
X182571428Y-149328571D01*
X182500000Y-149471429D01*
X182428571Y-149542857D01*
X184285714Y-149257143D02*
X184500000Y-149328571D01*
X184857143Y-149328571D01*
X185000000Y-149257143D01*
X185071429Y-149185714D01*
X185142857Y-149042857D01*
X185142857Y-148900000D01*
X185071429Y-148757143D01*
X185000000Y-148685714D01*
X184857143Y-148614286D01*
X184571429Y-148542857D01*
X184428571Y-148471429D01*
X184357143Y-148400000D01*
X184285714Y-148257143D01*
X184285714Y-148114286D01*
X184357143Y-147971429D01*
X184428571Y-147900000D01*
X184571429Y-147828571D01*
X184928571Y-147828571D01*
X185142857Y-147900000D01*
X185785714Y-148542857D02*
X186285714Y-148542857D01*
X186500000Y-149328571D02*
X185785714Y-149328571D01*
X185785714Y-147828571D01*
X186500000Y-147828571D01*
X188000000Y-149328571D02*
X187500000Y-148614286D01*
X187142857Y-149328571D02*
X187142857Y-147828571D01*
X187714285Y-147828571D01*
X187857143Y-147900000D01*
X187928571Y-147971429D01*
X188000000Y-148114286D01*
X188000000Y-148328571D01*
X187928571Y-148471429D01*
X187857143Y-148542857D01*
X187714285Y-148614286D01*
X187142857Y-148614286D01*
X188642857Y-149328571D02*
X188642857Y-147828571D01*
X189285714Y-148900000D02*
X190000000Y-148900000D01*
X189142857Y-149328571D02*
X189642857Y-147828571D01*
X190142857Y-149328571D01*
X191357143Y-149328571D02*
X190642857Y-149328571D01*
X190642857Y-147828571D01*
X193000000Y-149328571D02*
X193000000Y-147828571D01*
X193857143Y-149328571D01*
X193857143Y-147828571D01*
X194571429Y-147828571D02*
X194571429Y-149042857D01*
X194642857Y-149185714D01*
X194714286Y-149257143D01*
X194857143Y-149328571D01*
X195142857Y-149328571D01*
X195285715Y-149257143D01*
X195357143Y-149185714D01*
X195428572Y-149042857D01*
X195428572Y-147828571D01*
X196142858Y-149328571D02*
X196142858Y-147828571D01*
X196642858Y-148900000D01*
X197142858Y-147828571D01*
X197142858Y-149328571D01*
X198357144Y-148542857D02*
X198571430Y-148614286D01*
X198642858Y-148685714D01*
X198714287Y-148828571D01*
X198714287Y-149042857D01*
X198642858Y-149185714D01*
X198571430Y-149257143D01*
X198428572Y-149328571D01*
X197857144Y-149328571D01*
X197857144Y-147828571D01*
X198357144Y-147828571D01*
X198500001Y-147900000D01*
X198571430Y-147971429D01*
X198642858Y-148114286D01*
X198642858Y-148257143D01*
X198571430Y-148400000D01*
X198500001Y-148471429D01*
X198357144Y-148542857D01*
X197857144Y-148542857D01*
X199357144Y-148542857D02*
X199857144Y-148542857D01*
X200071430Y-149328571D02*
X199357144Y-149328571D01*
X199357144Y-147828571D01*
X200071430Y-147828571D01*
X201571430Y-149328571D02*
X201071430Y-148614286D01*
X200714287Y-149328571D02*
X200714287Y-147828571D01*
X201285715Y-147828571D01*
X201428573Y-147900000D01*
X201500001Y-147971429D01*
X201571430Y-148114286D01*
X201571430Y-148328571D01*
X201500001Y-148471429D01*
X201428573Y-148542857D01*
X201285715Y-148614286D01*
X200714287Y-148614286D01*
X202285715Y-149257143D02*
X202285715Y-149328571D01*
X202214287Y-149471429D01*
X202142858Y-149542857D01*
X204071430Y-148542857D02*
X204571430Y-148542857D01*
X204785716Y-149328571D02*
X204071430Y-149328571D01*
X204071430Y-147828571D01*
X204785716Y-147828571D01*
X205214287Y-147828571D02*
X206071430Y-147828571D01*
X205642859Y-149328571D02*
X205642859Y-147828571D01*
X207428573Y-149185714D02*
X207357144Y-149257143D01*
X207142858Y-149328571D01*
X207000001Y-149328571D01*
X206785716Y-149257143D01*
X206642858Y-149114286D01*
X206571430Y-148971429D01*
X206500001Y-148685714D01*
X206500001Y-148471429D01*
X206571430Y-148185714D01*
X206642858Y-148042857D01*
X206785716Y-147900000D01*
X207000001Y-147828571D01*
X207142858Y-147828571D01*
X207357144Y-147900000D01*
X207428573Y-147971429D01*
X207928573Y-149900000D02*
X208000001Y-149828571D01*
X208142858Y-149614286D01*
X208214287Y-149471429D01*
X208285716Y-149257143D01*
X208357144Y-148900000D01*
X208357144Y-148614286D01*
X208285716Y-148257143D01*
X208214287Y-148042857D01*
X208142858Y-147900000D01*
X208000001Y-147685714D01*
X207928573Y-147614286D01*
X210500001Y-147828571D02*
X210785715Y-147828571D01*
X210928573Y-147900000D01*
X211071430Y-148042857D01*
X211142858Y-148328571D01*
X211142858Y-148828571D01*
X211071430Y-149114286D01*
X210928573Y-149257143D01*
X210785715Y-149328571D01*
X210500001Y-149328571D01*
X210357144Y-149257143D01*
X210214287Y-149114286D01*
X210142858Y-148828571D01*
X210142858Y-148328571D01*
X210214287Y-148042857D01*
X210357144Y-147900000D01*
X210500001Y-147828571D01*
X211785716Y-149328571D02*
X211785716Y-147828571D01*
X212642859Y-149328571D01*
X212642859Y-147828571D01*
X215000002Y-148542857D02*
X214500002Y-148542857D01*
X214500002Y-149328571D02*
X214500002Y-147828571D01*
X215214288Y-147828571D01*
X216642859Y-149328571D02*
X216142859Y-148614286D01*
X215785716Y-149328571D02*
X215785716Y-147828571D01*
X216357144Y-147828571D01*
X216500002Y-147900000D01*
X216571430Y-147971429D01*
X216642859Y-148114286D01*
X216642859Y-148328571D01*
X216571430Y-148471429D01*
X216500002Y-148542857D01*
X216357144Y-148614286D01*
X215785716Y-148614286D01*
X217571430Y-147828571D02*
X217857144Y-147828571D01*
X218000002Y-147900000D01*
X218142859Y-148042857D01*
X218214287Y-148328571D01*
X218214287Y-148828571D01*
X218142859Y-149114286D01*
X218000002Y-149257143D01*
X217857144Y-149328571D01*
X217571430Y-149328571D01*
X217428573Y-149257143D01*
X217285716Y-149114286D01*
X217214287Y-148828571D01*
X217214287Y-148328571D01*
X217285716Y-148042857D01*
X217428573Y-147900000D01*
X217571430Y-147828571D01*
X218857145Y-149328571D02*
X218857145Y-147828571D01*
X219714288Y-149328571D01*
X219714288Y-147828571D01*
X220214288Y-147828571D02*
X221071431Y-147828571D01*
X220642860Y-149328571D02*
X220642860Y-147828571D01*
X223142859Y-149900000D02*
X223071431Y-149828571D01*
X222928574Y-149614286D01*
X222857145Y-149471429D01*
X222785716Y-149257143D01*
X222714288Y-148900000D01*
X222714288Y-148614286D01*
X222785716Y-148257143D01*
X222857145Y-148042857D01*
X222928574Y-147900000D01*
X223071431Y-147685714D01*
X223142859Y-147614286D01*
X224428574Y-149328571D02*
X223714288Y-149328571D01*
X223714288Y-147828571D01*
X225214288Y-147828571D02*
X225500002Y-147828571D01*
X225642860Y-147900000D01*
X225785717Y-148042857D01*
X225857145Y-148328571D01*
X225857145Y-148828571D01*
X225785717Y-149114286D01*
X225642860Y-149257143D01*
X225500002Y-149328571D01*
X225214288Y-149328571D01*
X225071431Y-149257143D01*
X224928574Y-149114286D01*
X224857145Y-148828571D01*
X224857145Y-148328571D01*
X224928574Y-148042857D01*
X225071431Y-147900000D01*
X225214288Y-147828571D01*
X227285717Y-147900000D02*
X227142860Y-147828571D01*
X226928574Y-147828571D01*
X226714289Y-147900000D01*
X226571431Y-148042857D01*
X226500003Y-148185714D01*
X226428574Y-148471429D01*
X226428574Y-148685714D01*
X226500003Y-148971429D01*
X226571431Y-149114286D01*
X226714289Y-149257143D01*
X226928574Y-149328571D01*
X227071431Y-149328571D01*
X227285717Y-149257143D01*
X227357146Y-149185714D01*
X227357146Y-148685714D01*
X227071431Y-148685714D01*
X228285717Y-147828571D02*
X228571431Y-147828571D01*
X228714289Y-147900000D01*
X228857146Y-148042857D01*
X228928574Y-148328571D01*
X228928574Y-148828571D01*
X228857146Y-149114286D01*
X228714289Y-149257143D01*
X228571431Y-149328571D01*
X228285717Y-149328571D01*
X228142860Y-149257143D01*
X228000003Y-149114286D01*
X227928574Y-148828571D01*
X227928574Y-148328571D01*
X228000003Y-148042857D01*
X228142860Y-147900000D01*
X228285717Y-147828571D01*
X230642860Y-149257143D02*
X230857146Y-149328571D01*
X231214289Y-149328571D01*
X231357146Y-149257143D01*
X231428575Y-149185714D01*
X231500003Y-149042857D01*
X231500003Y-148900000D01*
X231428575Y-148757143D01*
X231357146Y-148685714D01*
X231214289Y-148614286D01*
X230928575Y-148542857D01*
X230785717Y-148471429D01*
X230714289Y-148400000D01*
X230642860Y-148257143D01*
X230642860Y-148114286D01*
X230714289Y-147971429D01*
X230785717Y-147900000D01*
X230928575Y-147828571D01*
X231285717Y-147828571D01*
X231500003Y-147900000D01*
X232142860Y-149328571D02*
X232142860Y-147828571D01*
X232857146Y-149328571D02*
X232857146Y-147828571D01*
X233214289Y-147828571D01*
X233428574Y-147900000D01*
X233571432Y-148042857D01*
X233642860Y-148185714D01*
X233714289Y-148471429D01*
X233714289Y-148685714D01*
X233642860Y-148971429D01*
X233571432Y-149114286D01*
X233428574Y-149257143D01*
X233214289Y-149328571D01*
X232857146Y-149328571D01*
X234357146Y-148542857D02*
X234857146Y-148542857D01*
X235071432Y-149328571D02*
X234357146Y-149328571D01*
X234357146Y-147828571D01*
X235071432Y-147828571D01*
X235571432Y-149900000D02*
X235642860Y-149828571D01*
X235785717Y-149614286D01*
X235857146Y-149471429D01*
X235928575Y-149257143D01*
X236000003Y-148900000D01*
X236000003Y-148614286D01*
X235928575Y-148257143D01*
X235857146Y-148042857D01*
X235785717Y-147900000D01*
X235642860Y-147685714D01*
X235571432Y-147614286D01*
X238142860Y-147828571D02*
X238428574Y-147828571D01*
X238571432Y-147900000D01*
X238714289Y-148042857D01*
X238785717Y-148328571D01*
X238785717Y-148828571D01*
X238714289Y-149114286D01*
X238571432Y-149257143D01*
X238428574Y-149328571D01*
X238142860Y-149328571D01*
X238000003Y-149257143D01*
X237857146Y-149114286D01*
X237785717Y-148828571D01*
X237785717Y-148328571D01*
X237857146Y-148042857D01*
X238000003Y-147900000D01*
X238142860Y-147828571D01*
X239928575Y-148542857D02*
X239428575Y-148542857D01*
X239428575Y-149328571D02*
X239428575Y-147828571D01*
X240142861Y-147828571D01*
X242357146Y-148542857D02*
X242571432Y-148614286D01*
X242642860Y-148685714D01*
X242714289Y-148828571D01*
X242714289Y-149042857D01*
X242642860Y-149185714D01*
X242571432Y-149257143D01*
X242428574Y-149328571D01*
X241857146Y-149328571D01*
X241857146Y-147828571D01*
X242357146Y-147828571D01*
X242500003Y-147900000D01*
X242571432Y-147971429D01*
X242642860Y-148114286D01*
X242642860Y-148257143D01*
X242571432Y-148400000D01*
X242500003Y-148471429D01*
X242357146Y-148542857D01*
X241857146Y-148542857D01*
X243642860Y-147828571D02*
X243928574Y-147828571D01*
X244071432Y-147900000D01*
X244214289Y-148042857D01*
X244285717Y-148328571D01*
X244285717Y-148828571D01*
X244214289Y-149114286D01*
X244071432Y-149257143D01*
X243928574Y-149328571D01*
X243642860Y-149328571D01*
X243500003Y-149257143D01*
X243357146Y-149114286D01*
X243285717Y-148828571D01*
X243285717Y-148328571D01*
X243357146Y-148042857D01*
X243500003Y-147900000D01*
X243642860Y-147828571D01*
X244857146Y-148900000D02*
X245571432Y-148900000D01*
X244714289Y-149328571D02*
X245214289Y-147828571D01*
X245714289Y-149328571D01*
X247071432Y-149328571D02*
X246571432Y-148614286D01*
X246214289Y-149328571D02*
X246214289Y-147828571D01*
X246785717Y-147828571D01*
X246928575Y-147900000D01*
X247000003Y-147971429D01*
X247071432Y-148114286D01*
X247071432Y-148328571D01*
X247000003Y-148471429D01*
X246928575Y-148542857D01*
X246785717Y-148614286D01*
X246214289Y-148614286D01*
X247714289Y-149328571D02*
X247714289Y-147828571D01*
X248071432Y-147828571D01*
X248285717Y-147900000D01*
X248428575Y-148042857D01*
X248500003Y-148185714D01*
X248571432Y-148471429D01*
X248571432Y-148685714D01*
X248500003Y-148971429D01*
X248428575Y-149114286D01*
X248285717Y-149257143D01*
X248071432Y-149328571D01*
X247714289Y-149328571D01*
X152571429Y-151021429D02*
X152428571Y-150950000D01*
X152357143Y-150878571D01*
X152285714Y-150735714D01*
X152285714Y-150664286D01*
X152357143Y-150521429D01*
X152428571Y-150450000D01*
X152571429Y-150378571D01*
X152857143Y-150378571D01*
X153000000Y-150450000D01*
X153071429Y-150521429D01*
X153142857Y-150664286D01*
X153142857Y-150735714D01*
X153071429Y-150878571D01*
X153000000Y-150950000D01*
X152857143Y-151021429D01*
X152571429Y-151021429D01*
X152428571Y-151092857D01*
X152357143Y-151164286D01*
X152285714Y-151307143D01*
X152285714Y-151592857D01*
X152357143Y-151735714D01*
X152428571Y-151807143D01*
X152571429Y-151878571D01*
X152857143Y-151878571D01*
X153000000Y-151807143D01*
X153071429Y-151735714D01*
X153142857Y-151592857D01*
X153142857Y-151307143D01*
X153071429Y-151164286D01*
X153000000Y-151092857D01*
X152857143Y-151021429D01*
X153785714Y-151735714D02*
X153857142Y-151807143D01*
X153785714Y-151878571D01*
X153714285Y-151807143D01*
X153785714Y-151735714D01*
X153785714Y-151878571D01*
X156142857Y-151092857D02*
X156357143Y-151164286D01*
X156428571Y-151235714D01*
X156500000Y-151378571D01*
X156500000Y-151592857D01*
X156428571Y-151735714D01*
X156357143Y-151807143D01*
X156214285Y-151878571D01*
X155642857Y-151878571D01*
X155642857Y-150378571D01*
X156142857Y-150378571D01*
X156285714Y-150450000D01*
X156357143Y-150521429D01*
X156428571Y-150664286D01*
X156428571Y-150807143D01*
X156357143Y-150950000D01*
X156285714Y-151021429D01*
X156142857Y-151092857D01*
X155642857Y-151092857D01*
X157428571Y-150378571D02*
X157714285Y-150378571D01*
X157857143Y-150450000D01*
X158000000Y-150592857D01*
X158071428Y-150878571D01*
X158071428Y-151378571D01*
X158000000Y-151664286D01*
X157857143Y-151807143D01*
X157714285Y-151878571D01*
X157428571Y-151878571D01*
X157285714Y-151807143D01*
X157142857Y-151664286D01*
X157071428Y-151378571D01*
X157071428Y-150878571D01*
X157142857Y-150592857D01*
X157285714Y-150450000D01*
X157428571Y-150378571D01*
X158642857Y-151450000D02*
X159357143Y-151450000D01*
X158500000Y-151878571D02*
X159000000Y-150378571D01*
X159500000Y-151878571D01*
X160857143Y-151878571D02*
X160357143Y-151164286D01*
X160000000Y-151878571D02*
X160000000Y-150378571D01*
X160571428Y-150378571D01*
X160714286Y-150450000D01*
X160785714Y-150521429D01*
X160857143Y-150664286D01*
X160857143Y-150878571D01*
X160785714Y-151021429D01*
X160714286Y-151092857D01*
X160571428Y-151164286D01*
X160000000Y-151164286D01*
X161500000Y-151878571D02*
X161500000Y-150378571D01*
X161857143Y-150378571D01*
X162071428Y-150450000D01*
X162214286Y-150592857D01*
X162285714Y-150735714D01*
X162357143Y-151021429D01*
X162357143Y-151235714D01*
X162285714Y-151521429D01*
X162214286Y-151664286D01*
X162071428Y-151807143D01*
X161857143Y-151878571D01*
X161500000Y-151878571D01*
X162928571Y-151807143D02*
X163142857Y-151878571D01*
X163500000Y-151878571D01*
X163642857Y-151807143D01*
X163714286Y-151735714D01*
X163785714Y-151592857D01*
X163785714Y-151450000D01*
X163714286Y-151307143D01*
X163642857Y-151235714D01*
X163500000Y-151164286D01*
X163214286Y-151092857D01*
X163071428Y-151021429D01*
X163000000Y-150950000D01*
X162928571Y-150807143D01*
X162928571Y-150664286D01*
X163000000Y-150521429D01*
X163071428Y-150450000D01*
X163214286Y-150378571D01*
X163571428Y-150378571D01*
X163785714Y-150450000D01*
X165357142Y-150378571D02*
X166214285Y-150378571D01*
X165785714Y-151878571D02*
X165785714Y-150378571D01*
X166999999Y-150378571D02*
X167285713Y-150378571D01*
X167428571Y-150450000D01*
X167571428Y-150592857D01*
X167642856Y-150878571D01*
X167642856Y-151378571D01*
X167571428Y-151664286D01*
X167428571Y-151807143D01*
X167285713Y-151878571D01*
X166999999Y-151878571D01*
X166857142Y-151807143D01*
X166714285Y-151664286D01*
X166642856Y-151378571D01*
X166642856Y-150878571D01*
X166714285Y-150592857D01*
X166857142Y-150450000D01*
X166999999Y-150378571D01*
X169928571Y-151092857D02*
X170142857Y-151164286D01*
X170214285Y-151235714D01*
X170285714Y-151378571D01*
X170285714Y-151592857D01*
X170214285Y-151735714D01*
X170142857Y-151807143D01*
X169999999Y-151878571D01*
X169428571Y-151878571D01*
X169428571Y-150378571D01*
X169928571Y-150378571D01*
X170071428Y-150450000D01*
X170142857Y-150521429D01*
X170214285Y-150664286D01*
X170214285Y-150807143D01*
X170142857Y-150950000D01*
X170071428Y-151021429D01*
X169928571Y-151092857D01*
X169428571Y-151092857D01*
X170928571Y-151092857D02*
X171428571Y-151092857D01*
X171642857Y-151878571D02*
X170928571Y-151878571D01*
X170928571Y-150378571D01*
X171642857Y-150378571D01*
X173357142Y-151807143D02*
X173571428Y-151878571D01*
X173928571Y-151878571D01*
X174071428Y-151807143D01*
X174142857Y-151735714D01*
X174214285Y-151592857D01*
X174214285Y-151450000D01*
X174142857Y-151307143D01*
X174071428Y-151235714D01*
X173928571Y-151164286D01*
X173642857Y-151092857D01*
X173499999Y-151021429D01*
X173428571Y-150950000D01*
X173357142Y-150807143D01*
X173357142Y-150664286D01*
X173428571Y-150521429D01*
X173499999Y-150450000D01*
X173642857Y-150378571D01*
X173999999Y-150378571D01*
X174214285Y-150450000D01*
X174857142Y-151878571D02*
X174857142Y-150378571D01*
X174857142Y-151092857D02*
X175714285Y-151092857D01*
X175714285Y-151878571D02*
X175714285Y-150378571D01*
X176428571Y-151878571D02*
X176428571Y-150378571D01*
X177142857Y-151878571D02*
X177142857Y-150378571D01*
X177714285Y-150378571D01*
X177857143Y-150450000D01*
X177928571Y-150521429D01*
X178000000Y-150664286D01*
X178000000Y-150878571D01*
X177928571Y-151021429D01*
X177857143Y-151092857D01*
X177714285Y-151164286D01*
X177142857Y-151164286D01*
X178642857Y-151878571D02*
X178642857Y-150378571D01*
X179214285Y-150378571D01*
X179357143Y-150450000D01*
X179428571Y-150521429D01*
X179500000Y-150664286D01*
X179500000Y-150878571D01*
X179428571Y-151021429D01*
X179357143Y-151092857D01*
X179214285Y-151164286D01*
X178642857Y-151164286D01*
X180142857Y-151092857D02*
X180642857Y-151092857D01*
X180857143Y-151878571D02*
X180142857Y-151878571D01*
X180142857Y-150378571D01*
X180857143Y-150378571D01*
X181500000Y-151878571D02*
X181500000Y-150378571D01*
X181857143Y-150378571D01*
X182071428Y-150450000D01*
X182214286Y-150592857D01*
X182285714Y-150735714D01*
X182357143Y-151021429D01*
X182357143Y-151235714D01*
X182285714Y-151521429D01*
X182214286Y-151664286D01*
X182071428Y-151807143D01*
X181857143Y-151878571D01*
X181500000Y-151878571D01*
X184142857Y-151878571D02*
X184142857Y-150378571D01*
X184857143Y-151878571D02*
X184857143Y-150378571D01*
X185714286Y-151878571D01*
X185714286Y-150378571D01*
X188428572Y-151735714D02*
X188357143Y-151807143D01*
X188142857Y-151878571D01*
X188000000Y-151878571D01*
X187785715Y-151807143D01*
X187642857Y-151664286D01*
X187571429Y-151521429D01*
X187500000Y-151235714D01*
X187500000Y-151021429D01*
X187571429Y-150735714D01*
X187642857Y-150592857D01*
X187785715Y-150450000D01*
X188000000Y-150378571D01*
X188142857Y-150378571D01*
X188357143Y-150450000D01*
X188428572Y-150521429D01*
X189071429Y-150378571D02*
X189071429Y-151592857D01*
X189142857Y-151735714D01*
X189214286Y-151807143D01*
X189357143Y-151878571D01*
X189642857Y-151878571D01*
X189785715Y-151807143D01*
X189857143Y-151735714D01*
X189928572Y-151592857D01*
X189928572Y-150378571D01*
X190571429Y-151807143D02*
X190785715Y-151878571D01*
X191142858Y-151878571D01*
X191285715Y-151807143D01*
X191357144Y-151735714D01*
X191428572Y-151592857D01*
X191428572Y-151450000D01*
X191357144Y-151307143D01*
X191285715Y-151235714D01*
X191142858Y-151164286D01*
X190857144Y-151092857D01*
X190714286Y-151021429D01*
X190642858Y-150950000D01*
X190571429Y-150807143D01*
X190571429Y-150664286D01*
X190642858Y-150521429D01*
X190714286Y-150450000D01*
X190857144Y-150378571D01*
X191214286Y-150378571D01*
X191428572Y-150450000D01*
X191857143Y-150378571D02*
X192714286Y-150378571D01*
X192285715Y-151878571D02*
X192285715Y-150378571D01*
X193500000Y-150378571D02*
X193785714Y-150378571D01*
X193928572Y-150450000D01*
X194071429Y-150592857D01*
X194142857Y-150878571D01*
X194142857Y-151378571D01*
X194071429Y-151664286D01*
X193928572Y-151807143D01*
X193785714Y-151878571D01*
X193500000Y-151878571D01*
X193357143Y-151807143D01*
X193214286Y-151664286D01*
X193142857Y-151378571D01*
X193142857Y-150878571D01*
X193214286Y-150592857D01*
X193357143Y-150450000D01*
X193500000Y-150378571D01*
X194785715Y-151878571D02*
X194785715Y-150378571D01*
X195285715Y-151450000D01*
X195785715Y-150378571D01*
X195785715Y-151878571D01*
X196500001Y-151092857D02*
X197000001Y-151092857D01*
X197214287Y-151878571D02*
X196500001Y-151878571D01*
X196500001Y-150378571D01*
X197214287Y-150378571D01*
X198714287Y-151878571D02*
X198214287Y-151164286D01*
X197857144Y-151878571D02*
X197857144Y-150378571D01*
X198428572Y-150378571D01*
X198571430Y-150450000D01*
X198642858Y-150521429D01*
X198714287Y-150664286D01*
X198714287Y-150878571D01*
X198642858Y-151021429D01*
X198571430Y-151092857D01*
X198428572Y-151164286D01*
X197857144Y-151164286D01*
X199357144Y-151307143D02*
X200500001Y-151307143D01*
X201142858Y-151807143D02*
X201357144Y-151878571D01*
X201714287Y-151878571D01*
X201857144Y-151807143D01*
X201928573Y-151735714D01*
X202000001Y-151592857D01*
X202000001Y-151450000D01*
X201928573Y-151307143D01*
X201857144Y-151235714D01*
X201714287Y-151164286D01*
X201428573Y-151092857D01*
X201285715Y-151021429D01*
X201214287Y-150950000D01*
X201142858Y-150807143D01*
X201142858Y-150664286D01*
X201214287Y-150521429D01*
X201285715Y-150450000D01*
X201428573Y-150378571D01*
X201785715Y-150378571D01*
X202000001Y-150450000D01*
X202642858Y-150378571D02*
X202642858Y-151592857D01*
X202714286Y-151735714D01*
X202785715Y-151807143D01*
X202928572Y-151878571D01*
X203214286Y-151878571D01*
X203357144Y-151807143D01*
X203428572Y-151735714D01*
X203500001Y-151592857D01*
X203500001Y-150378571D01*
X204214287Y-151878571D02*
X204214287Y-150378571D01*
X204785715Y-150378571D01*
X204928573Y-150450000D01*
X205000001Y-150521429D01*
X205071430Y-150664286D01*
X205071430Y-150878571D01*
X205000001Y-151021429D01*
X204928573Y-151092857D01*
X204785715Y-151164286D01*
X204214287Y-151164286D01*
X205714287Y-151878571D02*
X205714287Y-150378571D01*
X206285715Y-150378571D01*
X206428573Y-150450000D01*
X206500001Y-150521429D01*
X206571430Y-150664286D01*
X206571430Y-150878571D01*
X206500001Y-151021429D01*
X206428573Y-151092857D01*
X206285715Y-151164286D01*
X205714287Y-151164286D01*
X207928573Y-151878571D02*
X207214287Y-151878571D01*
X207214287Y-150378571D01*
X208428573Y-151878571D02*
X208428573Y-150378571D01*
X209142859Y-151092857D02*
X209642859Y-151092857D01*
X209857145Y-151878571D02*
X209142859Y-151878571D01*
X209142859Y-150378571D01*
X209857145Y-150378571D01*
X210500002Y-151878571D02*
X210500002Y-150378571D01*
X210857145Y-150378571D01*
X211071430Y-150450000D01*
X211214288Y-150592857D01*
X211285716Y-150735714D01*
X211357145Y-151021429D01*
X211357145Y-151235714D01*
X211285716Y-151521429D01*
X211214288Y-151664286D01*
X211071430Y-151807143D01*
X210857145Y-151878571D01*
X210500002Y-151878571D01*
X213642859Y-151092857D02*
X213142859Y-151092857D01*
X213142859Y-151878571D02*
X213142859Y-150378571D01*
X213857145Y-150378571D01*
X214714287Y-150378571D02*
X215000001Y-150378571D01*
X215142859Y-150450000D01*
X215285716Y-150592857D01*
X215357144Y-150878571D01*
X215357144Y-151378571D01*
X215285716Y-151664286D01*
X215142859Y-151807143D01*
X215000001Y-151878571D01*
X214714287Y-151878571D01*
X214571430Y-151807143D01*
X214428573Y-151664286D01*
X214357144Y-151378571D01*
X214357144Y-150878571D01*
X214428573Y-150592857D01*
X214571430Y-150450000D01*
X214714287Y-150378571D01*
X215928573Y-151450000D02*
X216642859Y-151450000D01*
X215785716Y-151878571D02*
X216285716Y-150378571D01*
X216785716Y-151878571D01*
X217285716Y-151878571D02*
X217285716Y-150378571D01*
X217785716Y-151450000D01*
X218285716Y-150378571D01*
X218285716Y-151878571D01*
X219928573Y-150378571D02*
X220785716Y-150378571D01*
X220357145Y-151878571D02*
X220357145Y-150378571D01*
X222142859Y-151878571D02*
X221642859Y-151164286D01*
X221285716Y-151878571D02*
X221285716Y-150378571D01*
X221857144Y-150378571D01*
X222000002Y-150450000D01*
X222071430Y-150521429D01*
X222142859Y-150664286D01*
X222142859Y-150878571D01*
X222071430Y-151021429D01*
X222000002Y-151092857D01*
X221857144Y-151164286D01*
X221285716Y-151164286D01*
X222714287Y-151450000D02*
X223428573Y-151450000D01*
X222571430Y-151878571D02*
X223071430Y-150378571D01*
X223571430Y-151878571D01*
X224357144Y-151164286D02*
X224357144Y-151878571D01*
X223857144Y-150378571D02*
X224357144Y-151164286D01*
X224857144Y-150378571D01*
X225285715Y-151807143D02*
X225500001Y-151878571D01*
X225857144Y-151878571D01*
X226000001Y-151807143D01*
X226071430Y-151735714D01*
X226142858Y-151592857D01*
X226142858Y-151450000D01*
X226071430Y-151307143D01*
X226000001Y-151235714D01*
X225857144Y-151164286D01*
X225571430Y-151092857D01*
X225428572Y-151021429D01*
X225357144Y-150950000D01*
X225285715Y-150807143D01*
X225285715Y-150664286D01*
X225357144Y-150521429D01*
X225428572Y-150450000D01*
X225571430Y-150378571D01*
X225928572Y-150378571D01*
X226142858Y-150450000D01*
D12*
X167000000Y-114000000D02*
X166000000Y-114000000D01*
X166000000Y-115000000D02*
X166000000Y-114000000D01*
X166000000Y-114000000D02*
X166000000Y-115000000D01*
X179000000Y-127000000D02*
X166000000Y-114000000D01*
X199000000Y-127000000D02*
X179000000Y-127000000D01*
D11*
X183464285Y-123260714D02*
X183392856Y-123332143D01*
X183178570Y-123403571D01*
X183035713Y-123403571D01*
X182821428Y-123332143D01*
X182678570Y-123189286D01*
X182607142Y-123046429D01*
X182535713Y-122760714D01*
X182535713Y-122546429D01*
X182607142Y-122260714D01*
X182678570Y-122117857D01*
X182821428Y-121975000D01*
X183035713Y-121903571D01*
X183178570Y-121903571D01*
X183392856Y-121975000D01*
X183464285Y-122046429D01*
X184392856Y-121903571D02*
X184678570Y-121903571D01*
X184821428Y-121975000D01*
X184964285Y-122117857D01*
X185035713Y-122403571D01*
X185035713Y-122903571D01*
X184964285Y-123189286D01*
X184821428Y-123332143D01*
X184678570Y-123403571D01*
X184392856Y-123403571D01*
X184249999Y-123332143D01*
X184107142Y-123189286D01*
X184035713Y-122903571D01*
X184035713Y-122403571D01*
X184107142Y-122117857D01*
X184249999Y-121975000D01*
X184392856Y-121903571D01*
X185678571Y-123403571D02*
X185678571Y-121903571D01*
X186178571Y-122975000D01*
X186678571Y-121903571D01*
X186678571Y-123403571D01*
X187392857Y-123403571D02*
X187392857Y-121903571D01*
X187964285Y-121903571D01*
X188107143Y-121975000D01*
X188178571Y-122046429D01*
X188250000Y-122189286D01*
X188250000Y-122403571D01*
X188178571Y-122546429D01*
X188107143Y-122617857D01*
X187964285Y-122689286D01*
X187392857Y-122689286D01*
X189178571Y-121903571D02*
X189464285Y-121903571D01*
X189607143Y-121975000D01*
X189750000Y-122117857D01*
X189821428Y-122403571D01*
X189821428Y-122903571D01*
X189750000Y-123189286D01*
X189607143Y-123332143D01*
X189464285Y-123403571D01*
X189178571Y-123403571D01*
X189035714Y-123332143D01*
X188892857Y-123189286D01*
X188821428Y-122903571D01*
X188821428Y-122403571D01*
X188892857Y-122117857D01*
X189035714Y-121975000D01*
X189178571Y-121903571D01*
X190464286Y-123403571D02*
X190464286Y-121903571D01*
X191321429Y-123403571D01*
X191321429Y-121903571D01*
X192035715Y-122617857D02*
X192535715Y-122617857D01*
X192750001Y-123403571D02*
X192035715Y-123403571D01*
X192035715Y-121903571D01*
X192750001Y-121903571D01*
X193392858Y-123403571D02*
X193392858Y-121903571D01*
X194250001Y-123403571D01*
X194250001Y-121903571D01*
X194750001Y-121903571D02*
X195607144Y-121903571D01*
X195178573Y-123403571D02*
X195178573Y-121903571D01*
X179892856Y-125953571D02*
X179892856Y-124453571D01*
X180464284Y-124453571D01*
X180607142Y-124525000D01*
X180678570Y-124596429D01*
X180749999Y-124739286D01*
X180749999Y-124953571D01*
X180678570Y-125096429D01*
X180607142Y-125167857D01*
X180464284Y-125239286D01*
X179892856Y-125239286D01*
X181678570Y-124453571D02*
X181964284Y-124453571D01*
X182107142Y-124525000D01*
X182249999Y-124667857D01*
X182321427Y-124953571D01*
X182321427Y-125453571D01*
X182249999Y-125739286D01*
X182107142Y-125882143D01*
X181964284Y-125953571D01*
X181678570Y-125953571D01*
X181535713Y-125882143D01*
X181392856Y-125739286D01*
X181321427Y-125453571D01*
X181321427Y-124953571D01*
X181392856Y-124667857D01*
X181535713Y-124525000D01*
X181678570Y-124453571D01*
X182892856Y-125882143D02*
X183107142Y-125953571D01*
X183464285Y-125953571D01*
X183607142Y-125882143D01*
X183678571Y-125810714D01*
X183749999Y-125667857D01*
X183749999Y-125525000D01*
X183678571Y-125382143D01*
X183607142Y-125310714D01*
X183464285Y-125239286D01*
X183178571Y-125167857D01*
X183035713Y-125096429D01*
X182964285Y-125025000D01*
X182892856Y-124882143D01*
X182892856Y-124739286D01*
X182964285Y-124596429D01*
X183035713Y-124525000D01*
X183178571Y-124453571D01*
X183535713Y-124453571D01*
X183749999Y-124525000D01*
X184392856Y-125953571D02*
X184392856Y-124453571D01*
X184892856Y-124453571D02*
X185749999Y-124453571D01*
X185321428Y-125953571D02*
X185321428Y-124453571D01*
X186249999Y-125953571D02*
X186249999Y-124453571D01*
X187249999Y-124453571D02*
X187535713Y-124453571D01*
X187678571Y-124525000D01*
X187821428Y-124667857D01*
X187892856Y-124953571D01*
X187892856Y-125453571D01*
X187821428Y-125739286D01*
X187678571Y-125882143D01*
X187535713Y-125953571D01*
X187249999Y-125953571D01*
X187107142Y-125882143D01*
X186964285Y-125739286D01*
X186892856Y-125453571D01*
X186892856Y-124953571D01*
X186964285Y-124667857D01*
X187107142Y-124525000D01*
X187249999Y-124453571D01*
X188535714Y-125953571D02*
X188535714Y-124453571D01*
X189392857Y-125953571D01*
X189392857Y-124453571D01*
X191535714Y-124453571D02*
X191821428Y-124453571D01*
X191964286Y-124525000D01*
X192107143Y-124667857D01*
X192178571Y-124953571D01*
X192178571Y-125453571D01*
X192107143Y-125739286D01*
X191964286Y-125882143D01*
X191821428Y-125953571D01*
X191535714Y-125953571D01*
X191392857Y-125882143D01*
X191250000Y-125739286D01*
X191178571Y-125453571D01*
X191178571Y-124953571D01*
X191250000Y-124667857D01*
X191392857Y-124525000D01*
X191535714Y-124453571D01*
X193678572Y-125953571D02*
X193178572Y-125239286D01*
X192821429Y-125953571D02*
X192821429Y-124453571D01*
X193392857Y-124453571D01*
X193535715Y-124525000D01*
X193607143Y-124596429D01*
X193678572Y-124739286D01*
X193678572Y-124953571D01*
X193607143Y-125096429D01*
X193535715Y-125167857D01*
X193392857Y-125239286D01*
X192821429Y-125239286D01*
X194321429Y-125953571D02*
X194321429Y-124453571D01*
X195821429Y-124525000D02*
X195678572Y-124453571D01*
X195464286Y-124453571D01*
X195250001Y-124525000D01*
X195107143Y-124667857D01*
X195035715Y-124810714D01*
X194964286Y-125096429D01*
X194964286Y-125310714D01*
X195035715Y-125596429D01*
X195107143Y-125739286D01*
X195250001Y-125882143D01*
X195464286Y-125953571D01*
X195607143Y-125953571D01*
X195821429Y-125882143D01*
X195892858Y-125810714D01*
X195892858Y-125310714D01*
X195607143Y-125310714D01*
X196535715Y-125953571D02*
X196535715Y-124453571D01*
X197250001Y-125953571D02*
X197250001Y-124453571D01*
X198107144Y-125953571D01*
X198107144Y-124453571D01*
D12*
X187000000Y-103500000D02*
X188000000Y-104500000D01*
X187000000Y-103500000D02*
X186000000Y-104500000D01*
X187000000Y-110000000D02*
X187000000Y-103500000D01*
X195500000Y-118500000D02*
X187000000Y-110000000D01*
X223000000Y-118500000D02*
X195500000Y-118500000D01*
D11*
X197749999Y-114903571D02*
X197249999Y-114189286D01*
X196892856Y-114903571D02*
X196892856Y-113403571D01*
X197464284Y-113403571D01*
X197607142Y-113475000D01*
X197678570Y-113546429D01*
X197749999Y-113689286D01*
X197749999Y-113903571D01*
X197678570Y-114046429D01*
X197607142Y-114117857D01*
X197464284Y-114189286D01*
X196892856Y-114189286D01*
X198678570Y-113403571D02*
X198964284Y-113403571D01*
X199107142Y-113475000D01*
X199249999Y-113617857D01*
X199321427Y-113903571D01*
X199321427Y-114403571D01*
X199249999Y-114689286D01*
X199107142Y-114832143D01*
X198964284Y-114903571D01*
X198678570Y-114903571D01*
X198535713Y-114832143D01*
X198392856Y-114689286D01*
X198321427Y-114403571D01*
X198321427Y-113903571D01*
X198392856Y-113617857D01*
X198535713Y-113475000D01*
X198678570Y-113403571D01*
X199964285Y-113403571D02*
X199964285Y-114617857D01*
X200035713Y-114760714D01*
X200107142Y-114832143D01*
X200249999Y-114903571D01*
X200535713Y-114903571D01*
X200678571Y-114832143D01*
X200749999Y-114760714D01*
X200821428Y-114617857D01*
X200821428Y-113403571D01*
X201321428Y-113403571D02*
X202178571Y-113403571D01*
X201750000Y-114903571D02*
X201750000Y-113403571D01*
X202678571Y-114117857D02*
X203178571Y-114117857D01*
X203392857Y-114903571D02*
X202678571Y-114903571D01*
X202678571Y-113403571D01*
X203392857Y-113403571D01*
X205678571Y-114117857D02*
X205892857Y-114189286D01*
X205964285Y-114260714D01*
X206035714Y-114403571D01*
X206035714Y-114617857D01*
X205964285Y-114760714D01*
X205892857Y-114832143D01*
X205749999Y-114903571D01*
X205178571Y-114903571D01*
X205178571Y-113403571D01*
X205678571Y-113403571D01*
X205821428Y-113475000D01*
X205892857Y-113546429D01*
X205964285Y-113689286D01*
X205964285Y-113832143D01*
X205892857Y-113975000D01*
X205821428Y-114046429D01*
X205678571Y-114117857D01*
X205178571Y-114117857D01*
X206964285Y-113403571D02*
X207249999Y-113403571D01*
X207392857Y-113475000D01*
X207535714Y-113617857D01*
X207607142Y-113903571D01*
X207607142Y-114403571D01*
X207535714Y-114689286D01*
X207392857Y-114832143D01*
X207249999Y-114903571D01*
X206964285Y-114903571D01*
X206821428Y-114832143D01*
X206678571Y-114689286D01*
X206607142Y-114403571D01*
X206607142Y-113903571D01*
X206678571Y-113617857D01*
X206821428Y-113475000D01*
X206964285Y-113403571D01*
X208178571Y-114475000D02*
X208892857Y-114475000D01*
X208035714Y-114903571D02*
X208535714Y-113403571D01*
X209035714Y-114903571D01*
X210392857Y-114903571D02*
X209892857Y-114189286D01*
X209535714Y-114903571D02*
X209535714Y-113403571D01*
X210107142Y-113403571D01*
X210250000Y-113475000D01*
X210321428Y-113546429D01*
X210392857Y-113689286D01*
X210392857Y-113903571D01*
X210321428Y-114046429D01*
X210250000Y-114117857D01*
X210107142Y-114189286D01*
X209535714Y-114189286D01*
X211035714Y-114903571D02*
X211035714Y-113403571D01*
X211392857Y-113403571D01*
X211607142Y-113475000D01*
X211750000Y-113617857D01*
X211821428Y-113760714D01*
X211892857Y-114046429D01*
X211892857Y-114260714D01*
X211821428Y-114546429D01*
X211750000Y-114689286D01*
X211607142Y-114832143D01*
X211392857Y-114903571D01*
X211035714Y-114903571D01*
X213964285Y-113403571D02*
X214249999Y-113403571D01*
X214392857Y-113475000D01*
X214535714Y-113617857D01*
X214607142Y-113903571D01*
X214607142Y-114403571D01*
X214535714Y-114689286D01*
X214392857Y-114832143D01*
X214249999Y-114903571D01*
X213964285Y-114903571D01*
X213821428Y-114832143D01*
X213678571Y-114689286D01*
X213607142Y-114403571D01*
X213607142Y-113903571D01*
X213678571Y-113617857D01*
X213821428Y-113475000D01*
X213964285Y-113403571D01*
X215250000Y-113403571D02*
X215250000Y-114617857D01*
X215321428Y-114760714D01*
X215392857Y-114832143D01*
X215535714Y-114903571D01*
X215821428Y-114903571D01*
X215964286Y-114832143D01*
X216035714Y-114760714D01*
X216107143Y-114617857D01*
X216107143Y-113403571D01*
X216607143Y-113403571D02*
X217464286Y-113403571D01*
X217035715Y-114903571D02*
X217035715Y-113403571D01*
X218678572Y-114903571D02*
X217964286Y-114903571D01*
X217964286Y-113403571D01*
X219178572Y-114903571D02*
X219178572Y-113403571D01*
X219892858Y-114903571D02*
X219892858Y-113403571D01*
X220750001Y-114903571D01*
X220750001Y-113403571D01*
X221464287Y-114117857D02*
X221964287Y-114117857D01*
X222178573Y-114903571D02*
X221464287Y-114903571D01*
X221464287Y-113403571D01*
X222178573Y-113403571D01*
X196678572Y-116667857D02*
X197178572Y-116667857D01*
X197392858Y-117453571D02*
X196678572Y-117453571D01*
X196678572Y-115953571D01*
X197392858Y-115953571D01*
X197892858Y-115953571D02*
X198892858Y-117453571D01*
X198892858Y-115953571D02*
X197892858Y-117453571D01*
X200321429Y-117310714D02*
X200250000Y-117382143D01*
X200035714Y-117453571D01*
X199892857Y-117453571D01*
X199678572Y-117382143D01*
X199535714Y-117239286D01*
X199464286Y-117096429D01*
X199392857Y-116810714D01*
X199392857Y-116596429D01*
X199464286Y-116310714D01*
X199535714Y-116167857D01*
X199678572Y-116025000D01*
X199892857Y-115953571D01*
X200035714Y-115953571D01*
X200250000Y-116025000D01*
X200321429Y-116096429D01*
X200964286Y-116667857D02*
X201464286Y-116667857D01*
X201678572Y-117453571D02*
X200964286Y-117453571D01*
X200964286Y-115953571D01*
X201678572Y-115953571D01*
X202321429Y-117453571D02*
X202321429Y-115953571D01*
X202892857Y-115953571D01*
X203035715Y-116025000D01*
X203107143Y-116096429D01*
X203178572Y-116239286D01*
X203178572Y-116453571D01*
X203107143Y-116596429D01*
X203035715Y-116667857D01*
X202892857Y-116739286D01*
X202321429Y-116739286D01*
X203607143Y-115953571D02*
X204464286Y-115953571D01*
X204035715Y-117453571D02*
X204035715Y-115953571D01*
X206607143Y-116667857D02*
X206107143Y-116667857D01*
X206107143Y-117453571D02*
X206107143Y-115953571D01*
X206821429Y-115953571D01*
X207678571Y-115953571D02*
X207964285Y-115953571D01*
X208107143Y-116025000D01*
X208250000Y-116167857D01*
X208321428Y-116453571D01*
X208321428Y-116953571D01*
X208250000Y-117239286D01*
X208107143Y-117382143D01*
X207964285Y-117453571D01*
X207678571Y-117453571D01*
X207535714Y-117382143D01*
X207392857Y-117239286D01*
X207321428Y-116953571D01*
X207321428Y-116453571D01*
X207392857Y-116167857D01*
X207535714Y-116025000D01*
X207678571Y-115953571D01*
X209821429Y-117453571D02*
X209321429Y-116739286D01*
X208964286Y-117453571D02*
X208964286Y-115953571D01*
X209535714Y-115953571D01*
X209678572Y-116025000D01*
X209750000Y-116096429D01*
X209821429Y-116239286D01*
X209821429Y-116453571D01*
X209750000Y-116596429D01*
X209678572Y-116667857D01*
X209535714Y-116739286D01*
X208964286Y-116739286D01*
X211392857Y-115953571D02*
X212250000Y-115953571D01*
X211821429Y-117453571D02*
X211821429Y-115953571D01*
X212607143Y-115953571D02*
X212964286Y-117453571D01*
X213250000Y-116382143D01*
X213535714Y-117453571D01*
X213892857Y-115953571D01*
X214750000Y-115953571D02*
X215035714Y-115953571D01*
X215178572Y-116025000D01*
X215321429Y-116167857D01*
X215392857Y-116453571D01*
X215392857Y-116953571D01*
X215321429Y-117239286D01*
X215178572Y-117382143D01*
X215035714Y-117453571D01*
X214750000Y-117453571D01*
X214607143Y-117382143D01*
X214464286Y-117239286D01*
X214392857Y-116953571D01*
X214392857Y-116453571D01*
X214464286Y-116167857D01*
X214607143Y-116025000D01*
X214750000Y-115953571D01*
X217178572Y-116667857D02*
X217678572Y-116667857D01*
X217892858Y-117453571D02*
X217178572Y-117453571D01*
X217178572Y-115953571D01*
X217892858Y-115953571D01*
X218535715Y-117453571D02*
X218535715Y-115953571D01*
X219392858Y-117453571D01*
X219392858Y-115953571D01*
X220107144Y-117453571D02*
X220107144Y-115953571D01*
X220464287Y-115953571D01*
X220678572Y-116025000D01*
X220821430Y-116167857D01*
X220892858Y-116310714D01*
X220964287Y-116596429D01*
X220964287Y-116810714D01*
X220892858Y-117096429D01*
X220821430Y-117239286D01*
X220678572Y-117382143D01*
X220464287Y-117453571D01*
X220107144Y-117453571D01*
X221535715Y-117382143D02*
X221750001Y-117453571D01*
X222107144Y-117453571D01*
X222250001Y-117382143D01*
X222321430Y-117310714D01*
X222392858Y-117167857D01*
X222392858Y-117025000D01*
X222321430Y-116882143D01*
X222250001Y-116810714D01*
X222107144Y-116739286D01*
X221821430Y-116667857D01*
X221678572Y-116596429D01*
X221607144Y-116525000D01*
X221535715Y-116382143D01*
X221535715Y-116239286D01*
X221607144Y-116096429D01*
X221678572Y-116025000D01*
X221821430Y-115953571D01*
X222178572Y-115953571D01*
X222392858Y-116025000D01*
D12*
X163500000Y-95000000D02*
X162500000Y-95000000D01*
X163500000Y-95000000D02*
X163500000Y-94000000D01*
X161500000Y-93000000D02*
X163500000Y-95000000D01*
X161500000Y-89000000D02*
X161500000Y-93000000D01*
X174000000Y-76500000D02*
X161500000Y-89000000D01*
X213000000Y-99500000D02*
X214000000Y-99500000D01*
X213000000Y-99500000D02*
X213000000Y-98500000D01*
X213000000Y-99500000D02*
X213000000Y-99500000D01*
X216500000Y-96000000D02*
X213000000Y-99500000D01*
X216500000Y-87500000D02*
X216500000Y-96000000D01*
X205500000Y-76500000D02*
X216500000Y-87500000D01*
X174000000Y-76500000D02*
X205500000Y-76500000D01*
D11*
X175535714Y-74178571D02*
X176035714Y-75678571D01*
X176535714Y-74178571D01*
X177035714Y-75107143D02*
X178178571Y-75107143D01*
X178821428Y-75607143D02*
X179035714Y-75678571D01*
X179392857Y-75678571D01*
X179535714Y-75607143D01*
X179607143Y-75535714D01*
X179678571Y-75392857D01*
X179678571Y-75250000D01*
X179607143Y-75107143D01*
X179535714Y-75035714D01*
X179392857Y-74964286D01*
X179107143Y-74892857D01*
X178964285Y-74821429D01*
X178892857Y-74750000D01*
X178821428Y-74607143D01*
X178821428Y-74464286D01*
X178892857Y-74321429D01*
X178964285Y-74250000D01*
X179107143Y-74178571D01*
X179464285Y-74178571D01*
X179678571Y-74250000D01*
X181178571Y-75535714D02*
X181107142Y-75607143D01*
X180892856Y-75678571D01*
X180749999Y-75678571D01*
X180535714Y-75607143D01*
X180392856Y-75464286D01*
X180321428Y-75321429D01*
X180249999Y-75035714D01*
X180249999Y-74821429D01*
X180321428Y-74535714D01*
X180392856Y-74392857D01*
X180535714Y-74250000D01*
X180749999Y-74178571D01*
X180892856Y-74178571D01*
X181107142Y-74250000D01*
X181178571Y-74321429D01*
X182107142Y-74178571D02*
X182392856Y-74178571D01*
X182535714Y-74250000D01*
X182678571Y-74392857D01*
X182749999Y-74678571D01*
X182749999Y-75178571D01*
X182678571Y-75464286D01*
X182535714Y-75607143D01*
X182392856Y-75678571D01*
X182107142Y-75678571D01*
X181964285Y-75607143D01*
X181821428Y-75464286D01*
X181749999Y-75178571D01*
X181749999Y-74678571D01*
X181821428Y-74392857D01*
X181964285Y-74250000D01*
X182107142Y-74178571D01*
X184250000Y-75678571D02*
X183750000Y-74964286D01*
X183392857Y-75678571D02*
X183392857Y-74178571D01*
X183964285Y-74178571D01*
X184107143Y-74250000D01*
X184178571Y-74321429D01*
X184250000Y-74464286D01*
X184250000Y-74678571D01*
X184178571Y-74821429D01*
X184107143Y-74892857D01*
X183964285Y-74964286D01*
X183392857Y-74964286D01*
X184892857Y-74892857D02*
X185392857Y-74892857D01*
X185607143Y-75678571D02*
X184892857Y-75678571D01*
X184892857Y-74178571D01*
X185607143Y-74178571D01*
X187392857Y-75678571D02*
X187392857Y-74178571D01*
X187964285Y-74178571D01*
X188107143Y-74250000D01*
X188178571Y-74321429D01*
X188250000Y-74464286D01*
X188250000Y-74678571D01*
X188178571Y-74821429D01*
X188107143Y-74892857D01*
X187964285Y-74964286D01*
X187392857Y-74964286D01*
X188821428Y-75250000D02*
X189535714Y-75250000D01*
X188678571Y-75678571D02*
X189178571Y-74178571D01*
X189678571Y-75678571D01*
X191035714Y-75678571D02*
X190535714Y-74964286D01*
X190178571Y-75678571D02*
X190178571Y-74178571D01*
X190749999Y-74178571D01*
X190892857Y-74250000D01*
X190964285Y-74321429D01*
X191035714Y-74464286D01*
X191035714Y-74678571D01*
X190964285Y-74821429D01*
X190892857Y-74892857D01*
X190749999Y-74964286D01*
X190178571Y-74964286D01*
X191607142Y-75250000D02*
X192321428Y-75250000D01*
X191464285Y-75678571D02*
X191964285Y-74178571D01*
X192464285Y-75678571D01*
X193678571Y-75678571D02*
X192964285Y-75678571D01*
X192964285Y-74178571D01*
X194892857Y-75678571D02*
X194178571Y-75678571D01*
X194178571Y-74178571D01*
X195392857Y-74892857D02*
X195892857Y-74892857D01*
X196107143Y-75678571D02*
X195392857Y-75678571D01*
X195392857Y-74178571D01*
X196107143Y-74178571D01*
X197464286Y-75678571D02*
X196750000Y-75678571D01*
X196750000Y-74178571D01*
X199107143Y-74892857D02*
X199607143Y-74892857D01*
X199821429Y-75678571D02*
X199107143Y-75678571D01*
X199107143Y-74178571D01*
X199821429Y-74178571D01*
X200464286Y-75678571D02*
X200464286Y-74178571D01*
X201321429Y-75678571D01*
X201321429Y-74178571D01*
X202035715Y-75678571D02*
X202035715Y-74178571D01*
X202392858Y-74178571D01*
X202607143Y-74250000D01*
X202750001Y-74392857D01*
X202821429Y-74535714D01*
X202892858Y-74821429D01*
X202892858Y-75035714D01*
X202821429Y-75321429D01*
X202750001Y-75464286D01*
X202607143Y-75607143D01*
X202392858Y-75678571D01*
X202035715Y-75678571D01*
X203464286Y-75607143D02*
X203678572Y-75678571D01*
X204035715Y-75678571D01*
X204178572Y-75607143D01*
X204250001Y-75535714D01*
X204321429Y-75392857D01*
X204321429Y-75250000D01*
X204250001Y-75107143D01*
X204178572Y-75035714D01*
X204035715Y-74964286D01*
X203750001Y-74892857D01*
X203607143Y-74821429D01*
X203535715Y-74750000D01*
X203464286Y-74607143D01*
X203464286Y-74464286D01*
X203535715Y-74321429D01*
X203607143Y-74250000D01*
X203750001Y-74178571D01*
X204107143Y-74178571D01*
X204321429Y-74250000D01*
D13*
X192488095Y-99404762D02*
X192630952Y-99452381D01*
X192869048Y-99452381D01*
X192964286Y-99404762D01*
X193011905Y-99357143D01*
X193059524Y-99261905D01*
X193059524Y-99166667D01*
X193011905Y-99071429D01*
X192964286Y-99023810D01*
X192869048Y-98976190D01*
X192678571Y-98928571D01*
X192583333Y-98880952D01*
X192535714Y-98833333D01*
X192488095Y-98738095D01*
X192488095Y-98642857D01*
X192535714Y-98547619D01*
X192583333Y-98500000D01*
X192678571Y-98452381D01*
X192916667Y-98452381D01*
X193059524Y-98500000D01*
X193392857Y-98452381D02*
X193630952Y-99452381D01*
X193821429Y-98738095D01*
X194011905Y-99452381D01*
X194250000Y-98452381D01*
X194392857Y-99547619D02*
X195154762Y-99547619D01*
X195392857Y-99452381D02*
X195392857Y-98452381D01*
X195773810Y-98452381D01*
X195869048Y-98500000D01*
X195916667Y-98547619D01*
X195964286Y-98642857D01*
X195964286Y-98785714D01*
X195916667Y-98880952D01*
X195869048Y-98928571D01*
X195773810Y-98976190D01*
X195392857Y-98976190D01*
X196392857Y-98452381D02*
X196392857Y-99261905D01*
X196440476Y-99357143D01*
X196488095Y-99404762D01*
X196583333Y-99452381D01*
X196773810Y-99452381D01*
X196869048Y-99404762D01*
X196916667Y-99357143D01*
X196964286Y-99261905D01*
X196964286Y-98452381D01*
X197392857Y-99404762D02*
X197535714Y-99452381D01*
X197773810Y-99452381D01*
X197869048Y-99404762D01*
X197916667Y-99357143D01*
X197964286Y-99261905D01*
X197964286Y-99166667D01*
X197916667Y-99071429D01*
X197869048Y-99023810D01*
X197773810Y-98976190D01*
X197583333Y-98928571D01*
X197488095Y-98880952D01*
X197440476Y-98833333D01*
X197392857Y-98738095D01*
X197392857Y-98642857D01*
X197440476Y-98547619D01*
X197488095Y-98500000D01*
X197583333Y-98452381D01*
X197821429Y-98452381D01*
X197964286Y-98500000D01*
X198392857Y-99452381D02*
X198392857Y-98452381D01*
X198392857Y-98928571D02*
X198964286Y-98928571D01*
X198964286Y-99452381D02*
X198964286Y-98452381D01*
X198238095Y-101404762D02*
X198380952Y-101452381D01*
X198619048Y-101452381D01*
X198714286Y-101404762D01*
X198761905Y-101357143D01*
X198809524Y-101261905D01*
X198809524Y-101166667D01*
X198761905Y-101071429D01*
X198714286Y-101023810D01*
X198619048Y-100976190D01*
X198428571Y-100928571D01*
X198333333Y-100880952D01*
X198285714Y-100833333D01*
X198238095Y-100738095D01*
X198238095Y-100642857D01*
X198285714Y-100547619D01*
X198333333Y-100500000D01*
X198428571Y-100452381D01*
X198666667Y-100452381D01*
X198809524Y-100500000D01*
X199142857Y-100452381D02*
X199380952Y-101452381D01*
X199571429Y-100738095D01*
X199761905Y-101452381D01*
X200000000Y-100452381D01*
X200142857Y-101547619D02*
X200904762Y-101547619D01*
X201142857Y-101452381D02*
X201142857Y-100452381D01*
X201523810Y-100452381D01*
X201619048Y-100500000D01*
X201666667Y-100547619D01*
X201714286Y-100642857D01*
X201714286Y-100785714D01*
X201666667Y-100880952D01*
X201619048Y-100928571D01*
X201523810Y-100976190D01*
X201142857Y-100976190D01*
X202142857Y-100452381D02*
X202142857Y-101261905D01*
X202190476Y-101357143D01*
X202238095Y-101404762D01*
X202333333Y-101452381D01*
X202523810Y-101452381D01*
X202619048Y-101404762D01*
X202666667Y-101357143D01*
X202714286Y-101261905D01*
X202714286Y-100452381D01*
X203142857Y-101404762D02*
X203285714Y-101452381D01*
X203523810Y-101452381D01*
X203619048Y-101404762D01*
X203666667Y-101357143D01*
X203714286Y-101261905D01*
X203714286Y-101166667D01*
X203666667Y-101071429D01*
X203619048Y-101023810D01*
X203523810Y-100976190D01*
X203333333Y-100928571D01*
X203238095Y-100880952D01*
X203190476Y-100833333D01*
X203142857Y-100738095D01*
X203142857Y-100642857D01*
X203190476Y-100547619D01*
X203238095Y-100500000D01*
X203333333Y-100452381D01*
X203571429Y-100452381D01*
X203714286Y-100500000D01*
X204142857Y-101452381D02*
X204142857Y-100452381D01*
X204142857Y-100928571D02*
X204714286Y-100928571D01*
X204714286Y-101452381D02*
X204714286Y-100452381D01*
X206001245Y-106202381D02*
X206001245Y-105202381D01*
X206239340Y-105202381D01*
X206382198Y-105250000D01*
X206477436Y-105345238D01*
X206525055Y-105440476D01*
X206572674Y-105630952D01*
X206572674Y-105773810D01*
X206525055Y-105964286D01*
X206477436Y-106059524D01*
X206382198Y-106154762D01*
X206239340Y-106202381D01*
X206001245Y-106202381D01*
X206953626Y-105297619D02*
X207001245Y-105250000D01*
X207096483Y-105202381D01*
X207334579Y-105202381D01*
X207429817Y-105250000D01*
X207477436Y-105297619D01*
X207525055Y-105392857D01*
X207525055Y-105488095D01*
X207477436Y-105630952D01*
X206906007Y-106202381D01*
X207525055Y-106202381D01*
X206261905Y-96452381D02*
X206261905Y-95452381D01*
X206500000Y-95452381D01*
X206642858Y-95500000D01*
X206738096Y-95595238D01*
X206785715Y-95690476D01*
X206833334Y-95880952D01*
X206833334Y-96023810D01*
X206785715Y-96214286D01*
X206738096Y-96309524D01*
X206642858Y-96404762D01*
X206500000Y-96452381D01*
X206261905Y-96452381D01*
X207785715Y-96452381D02*
X207214286Y-96452381D01*
X207500000Y-96452381D02*
X207500000Y-95452381D01*
X207404762Y-95595238D01*
X207309524Y-95690476D01*
X207214286Y-95738095D01*
X167238095Y-97202381D02*
X167238095Y-98011905D01*
X167285714Y-98107143D01*
X167333333Y-98154762D01*
X167428571Y-98202381D01*
X167619048Y-98202381D01*
X167714286Y-98154762D01*
X167761905Y-98107143D01*
X167809524Y-98011905D01*
X167809524Y-97202381D01*
X168809524Y-98202381D02*
X168238095Y-98202381D01*
X168523809Y-98202381D02*
X168523809Y-97202381D01*
X168428571Y-97345238D01*
X168333333Y-97440476D01*
X168238095Y-97488095D01*
M02*
