G04 #@! TF.FileFunction,Soldermask,Bot*
%FSLAX46Y46*%
G04 Gerber Fmt 4.6, Leading zero omitted, Abs format (unit mm)*
G04 Created by KiCad (PCBNEW 4.0.7-e2-6376~58~ubuntu14.04.1) date Wed May 23 17:18:52 2018*
%MOMM*%
%LPD*%
G01*
G04 APERTURE LIST*
%ADD10C,0.100000*%
%ADD11C,3.000000*%
%ADD12R,0.800000X0.500000*%
%ADD13R,0.900000X0.300000*%
%ADD14R,1.200000X0.300000*%
%ADD15R,0.300000X0.900000*%
%ADD16R,0.300000X1.200000*%
%ADD17R,1.000000X1.200000*%
%ADD18R,1.200000X1.000000*%
%ADD19R,0.600000X1.200000*%
%ADD20R,0.500000X0.800000*%
%ADD21R,1.250000X1.800000*%
%ADD22R,0.300000X0.800000*%
G04 APERTURE END LIST*
D10*
D11*
X179800000Y-94500000D03*
D10*
G36*
X204367068Y-103276687D02*
X205569150Y-104478769D01*
X205144886Y-104903033D01*
X203942804Y-103700951D01*
X204367068Y-103276687D01*
X204367068Y-103276687D01*
G37*
G36*
X203483184Y-104160571D02*
X204685266Y-105362653D01*
X204261002Y-105786917D01*
X203058920Y-104584835D01*
X203483184Y-104160571D01*
X203483184Y-104160571D01*
G37*
G36*
X205250951Y-102392804D02*
X206453033Y-103594886D01*
X206028769Y-104019150D01*
X204826687Y-102817068D01*
X205250951Y-102392804D01*
X205250951Y-102392804D01*
G37*
G36*
X206134835Y-101508920D02*
X207336917Y-102711002D01*
X206912653Y-103135266D01*
X205710571Y-101933184D01*
X206134835Y-101508920D01*
X206134835Y-101508920D01*
G37*
G36*
X204066547Y-107183452D02*
X205975736Y-109092641D01*
X205268629Y-109799748D01*
X203359440Y-107890559D01*
X204066547Y-107183452D01*
X204066547Y-107183452D01*
G37*
G36*
X209440559Y-101809440D02*
X211349748Y-103718629D01*
X210642641Y-104425736D01*
X208733452Y-102516547D01*
X209440559Y-101809440D01*
X209440559Y-101809440D01*
G37*
D12*
X204100000Y-100750000D03*
X205300000Y-100750000D03*
D11*
X201500000Y-94500000D03*
D13*
X202400000Y-99250000D03*
D14*
X202250000Y-99750000D03*
X202250000Y-100250000D03*
X202250000Y-100750000D03*
X202250000Y-101250000D03*
X202250000Y-101750000D03*
D13*
X202400000Y-102250000D03*
D15*
X201500000Y-103150000D03*
D16*
X201000000Y-103000000D03*
X200500000Y-103000000D03*
X200000000Y-103000000D03*
X199500000Y-103000000D03*
X199000000Y-103000000D03*
D15*
X198500000Y-103150000D03*
D13*
X197600000Y-102250000D03*
D14*
X197750000Y-101750000D03*
X197750000Y-101250000D03*
X197750000Y-100750000D03*
X197750000Y-100250000D03*
X197750000Y-99750000D03*
D13*
X197600000Y-99250000D03*
D15*
X198500000Y-98350000D03*
D16*
X199000000Y-98500000D03*
X199500000Y-98500000D03*
X200000000Y-98500000D03*
X200500000Y-98500000D03*
X201000000Y-98500000D03*
D15*
X201500000Y-98350000D03*
D10*
G36*
X202400000Y-99400000D02*
X201600000Y-99400000D01*
X201900000Y-99100000D01*
X202100000Y-99100000D01*
X202400000Y-99400000D01*
X202400000Y-99400000D01*
G37*
G36*
X201350000Y-99150000D02*
X201350000Y-98350000D01*
X201650000Y-98650000D01*
X201650000Y-98850000D01*
X201350000Y-99150000D01*
X201350000Y-99150000D01*
G37*
G36*
X198650000Y-102350000D02*
X198650000Y-103150000D01*
X198350000Y-102850000D01*
X198350000Y-102650000D01*
X198650000Y-102350000D01*
X198650000Y-102350000D01*
G37*
G36*
X197600000Y-102100000D02*
X198400000Y-102100000D01*
X198100000Y-102400000D01*
X197900000Y-102400000D01*
X197600000Y-102100000D01*
X197600000Y-102100000D01*
G37*
G36*
X201600000Y-102100000D02*
X202400000Y-102100000D01*
X202100000Y-102400000D01*
X201900000Y-102400000D01*
X201600000Y-102100000D01*
X201600000Y-102100000D01*
G37*
G36*
X201350000Y-103150000D02*
X201350000Y-102350000D01*
X201650000Y-102650000D01*
X201650000Y-102850000D01*
X201350000Y-103150000D01*
X201350000Y-103150000D01*
G37*
G36*
X198400000Y-99400000D02*
X197600000Y-99400000D01*
X197900000Y-99100000D01*
X198100000Y-99100000D01*
X198400000Y-99400000D01*
X198400000Y-99400000D01*
G37*
G36*
X198650000Y-98350000D02*
X198650000Y-99150000D01*
X198350000Y-98850000D01*
X198350000Y-98650000D01*
X198650000Y-98350000D01*
X198650000Y-98350000D01*
G37*
D12*
X173200000Y-94300000D03*
X174400000Y-94300000D03*
X173200000Y-97600000D03*
X174400000Y-97600000D03*
D17*
X172800000Y-96000000D03*
X174800000Y-96000000D03*
D18*
X191250000Y-95500000D03*
X191250000Y-97500000D03*
D19*
X193500000Y-95350000D03*
X192550000Y-95350000D03*
X194450000Y-95350000D03*
X194450000Y-97650000D03*
X192550000Y-97650000D03*
D18*
X195750000Y-97500000D03*
X195750000Y-95500000D03*
D10*
G36*
X203030330Y-95716117D02*
X203383883Y-96069670D01*
X202818198Y-96635355D01*
X202464645Y-96281802D01*
X203030330Y-95716117D01*
X203030330Y-95716117D01*
G37*
G36*
X202181802Y-96564645D02*
X202535355Y-96918198D01*
X201969670Y-97483883D01*
X201616117Y-97130330D01*
X202181802Y-96564645D01*
X202181802Y-96564645D01*
G37*
G36*
X204083883Y-98630330D02*
X203730330Y-98983883D01*
X203164645Y-98418198D01*
X203518198Y-98064645D01*
X204083883Y-98630330D01*
X204083883Y-98630330D01*
G37*
G36*
X203235355Y-97781802D02*
X202881802Y-98135355D01*
X202316117Y-97569670D01*
X202669670Y-97216117D01*
X203235355Y-97781802D01*
X203235355Y-97781802D01*
G37*
G36*
X203383883Y-105530330D02*
X203030330Y-105883883D01*
X202464645Y-105318198D01*
X202818198Y-104964645D01*
X203383883Y-105530330D01*
X203383883Y-105530330D01*
G37*
G36*
X202535355Y-104681802D02*
X202181802Y-105035355D01*
X201616117Y-104469670D01*
X201969670Y-104116117D01*
X202535355Y-104681802D01*
X202535355Y-104681802D01*
G37*
D20*
X196280000Y-100150000D03*
X196280000Y-101350000D03*
D21*
X177200000Y-94750000D03*
X177200000Y-97350000D03*
D10*
G36*
X204826687Y-98782932D02*
X206028769Y-97580850D01*
X206453033Y-98005114D01*
X205250951Y-99207196D01*
X204826687Y-98782932D01*
X204826687Y-98782932D01*
G37*
G36*
X205710571Y-99666816D02*
X206912653Y-98464734D01*
X207336917Y-98888998D01*
X206134835Y-100091080D01*
X205710571Y-99666816D01*
X205710571Y-99666816D01*
G37*
G36*
X203942804Y-97899049D02*
X205144886Y-96696967D01*
X205569150Y-97121231D01*
X204367068Y-98323313D01*
X203942804Y-97899049D01*
X203942804Y-97899049D01*
G37*
G36*
X203058920Y-97015165D02*
X204261002Y-95813083D01*
X204685266Y-96237347D01*
X203483184Y-97439429D01*
X203058920Y-97015165D01*
X203058920Y-97015165D01*
G37*
G36*
X208733452Y-99083453D02*
X210642641Y-97174264D01*
X211349748Y-97881371D01*
X209440559Y-99790560D01*
X208733452Y-99083453D01*
X208733452Y-99083453D01*
G37*
G36*
X203359440Y-93709441D02*
X205268629Y-91800252D01*
X205975736Y-92507359D01*
X204066547Y-94416548D01*
X203359440Y-93709441D01*
X203359440Y-93709441D01*
G37*
G36*
X184883797Y-95995352D02*
X184472530Y-97644855D01*
X183890353Y-97499702D01*
X184301620Y-95850199D01*
X184883797Y-95995352D01*
X184883797Y-95995352D01*
G37*
G36*
X183670927Y-95692949D02*
X183259660Y-97342452D01*
X182677483Y-97197299D01*
X183088750Y-95547796D01*
X183670927Y-95692949D01*
X183670927Y-95692949D01*
G37*
G36*
X186096667Y-96297754D02*
X185685400Y-97947257D01*
X185103223Y-97802104D01*
X185514490Y-96152601D01*
X186096667Y-96297754D01*
X186096667Y-96297754D01*
G37*
G36*
X187309536Y-96600157D02*
X186898269Y-98249660D01*
X186316092Y-98104507D01*
X186727359Y-96455004D01*
X187309536Y-96600157D01*
X187309536Y-96600157D01*
G37*
G36*
X180094624Y-97429342D02*
X179441435Y-100049140D01*
X178471140Y-99807218D01*
X179124329Y-97187420D01*
X180094624Y-97429342D01*
X180094624Y-97429342D01*
G37*
G36*
X188827286Y-99606639D02*
X188174097Y-102226437D01*
X187203802Y-101984515D01*
X187856991Y-99364717D01*
X188827286Y-99606639D01*
X188827286Y-99606639D01*
G37*
G36*
X181875881Y-95245394D02*
X182458058Y-95390547D01*
X182046791Y-97040050D01*
X181464614Y-96894897D01*
X181875881Y-95245394D01*
X181875881Y-95245394D01*
G37*
D22*
X194830000Y-101750000D03*
X194180000Y-101750000D03*
X193530000Y-101750000D03*
X193530000Y-99750000D03*
X194830000Y-99750000D03*
M02*
