G04 #@! TF.FileFunction,Legend,Bot*
%FSLAX46Y46*%
G04 Gerber Fmt 4.6, Leading zero omitted, Abs format (unit mm)*
G04 Created by KiCad (PCBNEW 4.0.5-e0-6337~49~ubuntu14.04.1) date Tue May 23 16:53:46 2017*
%MOMM*%
%LPD*%
G01*
G04 APERTURE LIST*
%ADD10C,0.100000*%
%ADD11C,0.150000*%
G04 APERTURE END LIST*
D10*
D11*
X178588541Y-99675874D02*
X179572053Y-96005356D01*
X179572053Y-96005356D02*
X191211459Y-99124126D01*
X191211459Y-99124126D02*
X190227947Y-102794644D01*
X190227947Y-102794644D02*
X178588541Y-99675874D01*
X211177996Y-97790990D02*
X208490990Y-100477996D01*
X208490990Y-100477996D02*
X202622004Y-94609010D01*
X202622004Y-94609010D02*
X205309010Y-91922004D01*
X205309010Y-91922004D02*
X211177996Y-97790990D01*
X205309010Y-109677996D02*
X202622004Y-106990990D01*
X202622004Y-106990990D02*
X208490990Y-101122004D01*
X208490990Y-101122004D02*
X211177996Y-103809010D01*
X211177996Y-103809010D02*
X205309010Y-109677996D01*
D10*
X202500000Y-98500000D02*
G75*
G03X202500000Y-98500000I-250000J0D01*
G01*
X202000000Y-102750000D02*
X202000000Y-98750000D01*
X198000000Y-102750000D02*
X202000000Y-102750000D01*
X198000000Y-98750000D02*
X198000000Y-102750000D01*
X202000000Y-98750000D02*
X198000000Y-98750000D01*
D11*
X176400000Y-98300000D02*
X177800000Y-98300000D01*
X176400000Y-96400000D02*
X176400000Y-93700000D01*
X176400000Y-93700000D02*
X177800000Y-93700000D01*
X177800000Y-93700000D02*
X177800000Y-96400000D01*
M02*
