G04 #@! TF.FileFunction,Soldermask,Bot*
%FSLAX46Y46*%
G04 Gerber Fmt 4.6, Leading zero omitted, Abs format (unit mm)*
G04 Created by KiCad (PCBNEW 4.0.5-e0-6337~49~ubuntu14.04.1) date Tue May 16 09:37:36 2017*
%MOMM*%
%LPD*%
G01*
G04 APERTURE LIST*
%ADD10C,0.100000*%
%ADD11R,0.800000X0.500000*%
%ADD12C,3.000000*%
%ADD13R,0.900000X0.300000*%
%ADD14R,1.200000X0.300000*%
%ADD15R,0.300000X0.900000*%
%ADD16R,0.300000X1.200000*%
%ADD17R,1.000000X1.200000*%
%ADD18R,1.250000X1.800000*%
%ADD19R,1.200000X1.000000*%
%ADD20R,0.600000X1.200000*%
%ADD21R,0.500000X0.800000*%
G04 APERTURE END LIST*
D10*
G36*
X187238347Y-96661911D02*
X186798355Y-98303985D01*
X186218799Y-98148693D01*
X186658791Y-96506619D01*
X187238347Y-96661911D01*
X187238347Y-96661911D01*
G37*
G36*
X186030940Y-96338387D02*
X185590948Y-97980461D01*
X185011392Y-97825169D01*
X185451384Y-96183095D01*
X186030940Y-96338387D01*
X186030940Y-96338387D01*
G37*
G36*
X188445754Y-96985435D02*
X188005762Y-98627509D01*
X187426206Y-98472217D01*
X187866198Y-96830143D01*
X188445754Y-96985435D01*
X188445754Y-96985435D01*
G37*
G36*
X189653162Y-97308958D02*
X189213170Y-98951032D01*
X188633614Y-98795740D01*
X189073606Y-97153666D01*
X189653162Y-97308958D01*
X189653162Y-97308958D01*
G37*
G36*
X180082509Y-97384464D02*
X179383697Y-99992463D01*
X178417771Y-99733644D01*
X179116583Y-97125645D01*
X180082509Y-97384464D01*
X180082509Y-97384464D01*
G37*
G36*
X191045766Y-100322060D02*
X190346954Y-102930059D01*
X189381028Y-102671240D01*
X190079840Y-100063241D01*
X191045766Y-100322060D01*
X191045766Y-100322060D01*
G37*
G36*
X184243976Y-95859571D02*
X184823532Y-96014863D01*
X184383540Y-97656937D01*
X183803984Y-97501645D01*
X184243976Y-95859571D01*
X184243976Y-95859571D01*
G37*
G36*
X183036569Y-95536047D02*
X183616125Y-95691339D01*
X183176133Y-97333413D01*
X182596577Y-97178121D01*
X183036569Y-95536047D01*
X183036569Y-95536047D01*
G37*
G36*
X181829162Y-95212524D02*
X182408718Y-95367816D01*
X181968726Y-97009890D01*
X181389170Y-96854598D01*
X181829162Y-95212524D01*
X181829162Y-95212524D01*
G37*
G36*
X204831712Y-98727907D02*
X206033794Y-97525825D01*
X206458058Y-97950089D01*
X205255976Y-99152171D01*
X204831712Y-98727907D01*
X204831712Y-98727907D01*
G37*
G36*
X205715596Y-99611790D02*
X206917678Y-98409708D01*
X207341942Y-98833972D01*
X206139860Y-100036054D01*
X205715596Y-99611790D01*
X205715596Y-99611790D01*
G37*
G36*
X203947829Y-97844024D02*
X205149911Y-96641942D01*
X205574175Y-97066206D01*
X204372093Y-98268288D01*
X203947829Y-97844024D01*
X203947829Y-97844024D01*
G37*
G36*
X203063946Y-96960140D02*
X204266028Y-95758058D01*
X204690292Y-96182322D01*
X203488210Y-97384404D01*
X203063946Y-96960140D01*
X203063946Y-96960140D01*
G37*
G36*
X208738477Y-99028427D02*
X210647666Y-97119238D01*
X211354773Y-97826345D01*
X209445584Y-99735534D01*
X208738477Y-99028427D01*
X208738477Y-99028427D01*
G37*
G36*
X203364466Y-93654416D02*
X205273655Y-91745227D01*
X205980762Y-92452334D01*
X204071573Y-94361523D01*
X203364466Y-93654416D01*
X203364466Y-93654416D01*
G37*
G36*
X204372093Y-103331712D02*
X205574175Y-104533794D01*
X205149911Y-104958058D01*
X203947829Y-103755976D01*
X204372093Y-103331712D01*
X204372093Y-103331712D01*
G37*
G36*
X203488210Y-104215596D02*
X204690292Y-105417678D01*
X204266028Y-105841942D01*
X203063946Y-104639860D01*
X203488210Y-104215596D01*
X203488210Y-104215596D01*
G37*
G36*
X205255976Y-102447829D02*
X206458058Y-103649911D01*
X206033794Y-104074175D01*
X204831712Y-102872093D01*
X205255976Y-102447829D01*
X205255976Y-102447829D01*
G37*
G36*
X206139860Y-101563946D02*
X207341942Y-102766028D01*
X206917678Y-103190292D01*
X205715596Y-101988210D01*
X206139860Y-101563946D01*
X206139860Y-101563946D01*
G37*
G36*
X204071573Y-107238477D02*
X205980762Y-109147666D01*
X205273655Y-109854773D01*
X203364466Y-107945584D01*
X204071573Y-107238477D01*
X204071573Y-107238477D01*
G37*
G36*
X209445584Y-101864466D02*
X211354773Y-103773655D01*
X210647666Y-104480762D01*
X208738477Y-102571573D01*
X209445584Y-101864466D01*
X209445584Y-101864466D01*
G37*
D11*
X204100000Y-100750000D03*
X205300000Y-100750000D03*
D12*
X201500000Y-94500000D03*
X180100000Y-94500000D03*
D13*
X202400000Y-99250000D03*
D14*
X202250000Y-99750000D03*
X202250000Y-100250000D03*
X202250000Y-100750000D03*
X202250000Y-101250000D03*
X202250000Y-101750000D03*
D13*
X202400000Y-102250000D03*
D15*
X201500000Y-103150000D03*
D16*
X201000000Y-103000000D03*
X200500000Y-103000000D03*
X200000000Y-103000000D03*
X199500000Y-103000000D03*
X199000000Y-103000000D03*
D15*
X198500000Y-103150000D03*
D13*
X197600000Y-102250000D03*
D14*
X197750000Y-101750000D03*
X197750000Y-101250000D03*
X197750000Y-100750000D03*
X197750000Y-100250000D03*
X197750000Y-99750000D03*
D13*
X197600000Y-99250000D03*
D15*
X198500000Y-98350000D03*
D16*
X199000000Y-98500000D03*
X199500000Y-98500000D03*
X200000000Y-98500000D03*
X200500000Y-98500000D03*
X201000000Y-98500000D03*
D15*
X201500000Y-98350000D03*
D10*
G36*
X202400000Y-99400000D02*
X201600000Y-99400000D01*
X201900000Y-99100000D01*
X202100000Y-99100000D01*
X202400000Y-99400000D01*
X202400000Y-99400000D01*
G37*
G36*
X201350000Y-99150000D02*
X201350000Y-98350000D01*
X201650000Y-98650000D01*
X201650000Y-98850000D01*
X201350000Y-99150000D01*
X201350000Y-99150000D01*
G37*
G36*
X198650000Y-102350000D02*
X198650000Y-103150000D01*
X198350000Y-102850000D01*
X198350000Y-102650000D01*
X198650000Y-102350000D01*
X198650000Y-102350000D01*
G37*
G36*
X197600000Y-102100000D02*
X198400000Y-102100000D01*
X198100000Y-102400000D01*
X197900000Y-102400000D01*
X197600000Y-102100000D01*
X197600000Y-102100000D01*
G37*
G36*
X201600000Y-102100000D02*
X202400000Y-102100000D01*
X202100000Y-102400000D01*
X201900000Y-102400000D01*
X201600000Y-102100000D01*
X201600000Y-102100000D01*
G37*
G36*
X201350000Y-103150000D02*
X201350000Y-102350000D01*
X201650000Y-102650000D01*
X201650000Y-102850000D01*
X201350000Y-103150000D01*
X201350000Y-103150000D01*
G37*
G36*
X198400000Y-99400000D02*
X197600000Y-99400000D01*
X197900000Y-99100000D01*
X198100000Y-99100000D01*
X198400000Y-99400000D01*
X198400000Y-99400000D01*
G37*
G36*
X198650000Y-98350000D02*
X198650000Y-99150000D01*
X198350000Y-98850000D01*
X198350000Y-98650000D01*
X198650000Y-98350000D01*
X198650000Y-98350000D01*
G37*
D11*
X173200000Y-94300000D03*
X174400000Y-94300000D03*
X173200000Y-97600000D03*
X174400000Y-97600000D03*
D17*
X172800000Y-96000000D03*
X174800000Y-96000000D03*
D18*
X177100000Y-94700000D03*
X177100000Y-97300000D03*
D19*
X191250000Y-95500000D03*
X191250000Y-97500000D03*
D20*
X193500000Y-95350000D03*
X192550000Y-95350000D03*
X194450000Y-95350000D03*
X194450000Y-97650000D03*
X192550000Y-97650000D03*
D19*
X195750000Y-97500000D03*
X195750000Y-95500000D03*
D10*
G36*
X203030330Y-95716117D02*
X203383883Y-96069670D01*
X202818198Y-96635355D01*
X202464645Y-96281802D01*
X203030330Y-95716117D01*
X203030330Y-95716117D01*
G37*
G36*
X202181802Y-96564645D02*
X202535355Y-96918198D01*
X201969670Y-97483883D01*
X201616117Y-97130330D01*
X202181802Y-96564645D01*
X202181802Y-96564645D01*
G37*
G36*
X204083883Y-98630330D02*
X203730330Y-98983883D01*
X203164645Y-98418198D01*
X203518198Y-98064645D01*
X204083883Y-98630330D01*
X204083883Y-98630330D01*
G37*
G36*
X203235355Y-97781802D02*
X202881802Y-98135355D01*
X202316117Y-97569670D01*
X202669670Y-97216117D01*
X203235355Y-97781802D01*
X203235355Y-97781802D01*
G37*
G36*
X203383883Y-105530330D02*
X203030330Y-105883883D01*
X202464645Y-105318198D01*
X202818198Y-104964645D01*
X203383883Y-105530330D01*
X203383883Y-105530330D01*
G37*
G36*
X202535355Y-104681802D02*
X202181802Y-105035355D01*
X201616117Y-104469670D01*
X201969670Y-104116117D01*
X202535355Y-104681802D01*
X202535355Y-104681802D01*
G37*
D21*
X195800000Y-99200000D03*
X195800000Y-100400000D03*
M02*
