<?xml version="1.0" standalone="no"?>
 <!DOCTYPE svg PUBLIC "-//W3C//DTD SVG 1.1//EN" 
 "http://www.w3.org/Graphics/SVG/1.1/DTD/svg11.dtd"> 
<svg xmlns="http://www.w3.org/2000/svg" version="1.1" 
    width="9.68502cm" height="8.51916cm" viewBox="0 0 38130 33540 ">
<title>SVG Picture created as NeuroBytes_Photoreceptor-brd.svg date 2018/08/06 18:28:55 </title>
  <desc>Picture generated by PCBNEW </desc>
<g style="fill:#000000; fill-opacity:1;stroke:#000000; stroke-opacity:1;
stroke-linecap:round; stroke-linejoin:round; "
 transform="translate(0 0) scale(1 1)">
</g>
<g style="fill:#000000; fill-opacity:0.0; 
stroke:#000000; stroke-width:-0.000393701; stroke-opacity:1; 
stroke-linecap:round; stroke-linejoin:round;">
</g>
<g style="fill:#008484; fill-opacity:0.0; 
stroke:#008484; stroke-width:-0.000393701; stroke-opacity:1; 
stroke-linecap:round; stroke-linejoin:round;">
</g>
<g style="fill:#008484; fill-opacity:0.0; 
stroke:#008484; stroke-width:78.7402; stroke-opacity:1; 
stroke-linecap:round; stroke-linejoin:round;">
<path d="M23118 8779
L23196 8700
" />
<path d="M23118 12480
L23196 12559
" />
</g>
<g style="fill:#008484; fill-opacity:0.0; 
stroke:#008484; stroke-width:55.1181; stroke-opacity:1; 
stroke-linecap:round; stroke-linejoin:round;">
<path d="M10593 9797
L10593 10059
" />
<path d="M10593 9835
L10612 9816
L10649 9797
L10706 9797
L10743 9816
L10762 9853
L10762 10059
" />
<path d="M11099 10041
L11062 10059
L10987 10059
L10949 10041
L10931 10003
L10931 9853
L10949 9816
L10987 9797
L11062 9797
L11099 9816
L11118 9853
L11118 9891
L10931 9928
" />
<path d="M11456 9797
L11456 10059
" />
<path d="M11287 9797
L11287 10003
L11306 10041
L11343 10059
L11399 10059
L11437 10041
L11456 10022
" />
<path d="M11643 10059
L11643 9797
" />
<path d="M11643 9872
L11662 9835
L11681 9816
L11718 9797
L11756 9797
" />
<path d="M11943 10059
L11906 10041
L11887 10022
L11868 9985
L11868 9872
L11887 9835
L11906 9816
L11943 9797
L11999 9797
L12037 9816
L12056 9835
L12074 9872
L12074 9985
L12056 10022
L12037 10041
L11999 10059
L11943 10059
" />
<path d="M12187 9797
L12337 9797
" />
<path d="M12243 9666
L12243 10003
L12262 10041
L12299 10059
L12337 10059
" />
<path d="M12468 10059
L12468 9797
" />
<path d="M12468 9666
L12449 9685
L12468 9703
L12487 9685
L12468 9666
L12468 9703
" />
<path d="M12655 9797
L12655 10059
" />
<path d="M12655 9835
L12674 9816
L12712 9797
L12768 9797
L12805 9816
L12824 9853
L12824 10059
" />
<path d="M13012 10059
L13012 9666
" />
<path d="M13049 9910
L13162 10059
" />
<path d="M13162 9797
L13012 9947
" />
<path d="M13480 10041
L13443 10059
L13368 10059
L13330 10041
L13312 10003
L13312 9853
L13330 9816
L13368 9797
L13443 9797
L13480 9816
L13499 9853
L13499 9891
L13312 9928
" />
<path d="M13668 10059
L13668 9797
" />
<path d="M13668 9872
L13687 9835
L13705 9816
L13743 9797
L13780 9797
" />
<path d="M13912 10022
L13930 10041
L13912 10059
L13893 10041
L13912 10022
L13912 10059
" />
<path d="M14268 10041
L14230 10059
L14155 10059
L14118 10041
L14099 10022
L14080 9985
L14080 9872
L14099 9835
L14118 9816
L14155 9797
L14230 9797
L14268 9816
" />
<path d="M14493 10059
L14455 10041
L14437 10022
L14418 9985
L14418 9872
L14437 9835
L14455 9816
L14493 9797
L14549 9797
L14586 9816
L14605 9835
L14624 9872
L14624 9985
L14605 10022
L14586 10041
L14549 10059
L14493 10059
" />
<path d="M14793 10059
L14793 9797
" />
<path d="M14793 9835
L14811 9816
L14849 9797
L14905 9797
L14943 9816
L14961 9853
L14961 10059
" />
<path d="M14961 9853
L14980 9816
L15018 9797
L15074 9797
L15111 9816
L15130 9853
L15130 10059
" />
<path d="M23024 8906
L23157 9039
L22878 9317
" />
<path d="M22931 8813
L22653 9092
" />
<path d="M22388 8800
L22401 8840
L22441 8880
L22494 8906
L22547 8906
L22587 8893
L22653 8853
L22693 8813
L22733 8747
L22746 8707
L22746 8654
L22719 8601
L22693 8575
L22640 8548
L22613 8548
L22520 8641
L22573 8694
" />
<path d="M22520 8402
L22242 8681
" />
<path d="M22375 8548
L22216 8389
" />
<path d="M22361 8243
L22083 8522
" />
<path d="M21990 8429
L21831 8270
" />
<path d="M22189 8071
L21911 8349
" />
<path d="M22261 13116
L21983 12837
L22049 12771
L22102 12745
L22155 12745
L22195 12758
L22261 12798
L22301 12837
L22341 12904
L22354 12943
L22354 12996
L22327 13049
L22261 13116
" />
<path d="M22447 12771
L22579 12638
" />
<path d="M22500 12877
L22314 12506
L22685 12692
" />
<path d="M22937 12440
L22712 12400
" />
<path d="M22778 12599
L22500 12320
L22606 12214
L22646 12201
L22672 12201
L22712 12214
L22752 12254
L22765 12294
L22765 12320
L22752 12360
L22646 12466
" />
<path d="M23057 12320
L22778 12042
" />
<path d="M23216 12161
L22937 12121
" />
<path d="M22937 11883
L22937 12201
" />
<path d="M19677 12954
L19734 12973
L19827 12973
L19865 12954
L19884 12935
L19902 12898
L19902 12860
L19884 12823
L19865 12804
L19827 12785
L19752 12767
L19715 12748
L19696 12729
L19677 12692
L19677 12654
L19696 12617
L19715 12598
L19752 12579
L19846 12579
L19902 12598
" />
<path d="M20071 12973
L20071 12579
L20221 12579
L20259 12598
L20277 12617
L20296 12654
L20296 12710
L20277 12748
L20259 12767
L20221 12785
L20071 12785
" />
<path d="M20446 12860
L20634 12860
" />
<path d="M20409 12973
L20540 12579
L20671 12973
" />
<path d="M20802 12973
L20802 12579
L21027 12973
L21027 12579
" />
<path d="M17208 11516
L17471 11516
L17208 11910
L17471 11910
" />
<path d="M17621 11704
L17752 11704
" />
<path d="M17808 11910
L17621 11910
L17621 11516
L17808 11516
" />
<path d="M18202 11910
L18071 11722
" />
<path d="M17977 11910
L17977 11516
L18127 11516
L18164 11535
L18183 11554
L18202 11591
L18202 11647
L18183 11685
L18164 11704
L18127 11722
L17977 11722
" />
<path d="M18446 11516
L18521 11516
L18558 11535
L18596 11572
L18614 11647
L18614 11779
L18596 11854
L18558 11891
L18521 11910
L18446 11910
L18408 11891
L18371 11854
L18352 11779
L18352 11647
L18371 11572
L18408 11535
L18446 11516
" />
<path d="M15829 7599
L15721 7411
" />
<path d="M15604 7599
L15653 7205
L15803 7205
L15838 7224
L15855 7243
L15869 7280
L15862 7336
L15838 7374
L15817 7393
L15777 7411
L15627 7411
" />
<path d="M16122 7205
L16197 7205
L16232 7224
L16265 7261
L16274 7336
L16258 7468
L16229 7543
L16187 7580
L16147 7599
L16072 7599
L16037 7580
L16005 7543
L15995 7468
L16012 7336
L16040 7261
L16082 7224
L16122 7205
" />
<path d="M16410 7599
L16459 7205
L16553 7205
L16607 7224
L16640 7261
L16654 7299
L16663 7374
L16656 7430
L16628 7505
L16604 7543
L16562 7580
L16504 7599
L16410 7599
" />
<path d="M17104 7599
L17153 7205
L17303 7205
L17338 7224
L17354 7243
L17368 7280
L17361 7336
L17338 7374
L17317 7393
L17277 7411
L17127 7411
" />
<path d="M17497 7599
L17547 7205
" />
<path d="M17523 7393
L17748 7393
" />
<path d="M17722 7599
L17771 7205
" />
<path d="M18034 7205
L18109 7205
L18144 7224
L18177 7261
L18186 7336
L18170 7468
L18142 7543
L18100 7580
L18060 7599
L17985 7599
L17950 7580
L17917 7543
L17907 7468
L17924 7336
L17952 7261
L17994 7224
L18034 7205
" />
<path d="M18315 7205
L18540 7205
" />
<path d="M18378 7599
L18428 7205
" />
<path d="M18746 7205
L18821 7205
L18857 7224
L18889 7261
L18899 7336
L18882 7468
L18854 7543
L18812 7580
L18772 7599
L18697 7599
L18662 7580
L18629 7543
L18620 7468
L18636 7336
L18664 7261
L18707 7224
L18746 7205
" />
<path d="M19260 7599
L19152 7411
" />
<path d="M19035 7599
L19084 7205
L19234 7205
L19269 7224
L19285 7243
L19299 7280
L19292 7336
L19269 7374
L19248 7393
L19208 7411
L19058 7411
" />
<path d="M19454 7393
L19585 7393
" />
<path d="M19616 7599
L19428 7599
L19478 7205
L19665 7205
" />
<path d="M20014 7561
L19993 7580
L19934 7599
L19897 7599
L19843 7580
L19810 7543
L19796 7505
L19787 7430
L19794 7374
L19822 7299
L19845 7261
L19888 7224
L19946 7205
L19984 7205
L20038 7224
L20054 7243
" />
<path d="M20204 7393
L20335 7393
" />
<path d="M20366 7599
L20178 7599
L20227 7205
L20415 7205
" />
<path d="M20534 7599
L20584 7205
L20734 7205
L20769 7224
L20785 7243
L20799 7280
L20792 7336
L20769 7374
L20748 7393
L20708 7411
L20558 7411
" />
<path d="M20921 7205
L21146 7205
" />
<path d="M20984 7599
L21034 7205
" />
<path d="M21352 7205
L21427 7205
L21462 7224
L21495 7261
L21505 7336
L21488 7468
L21460 7543
L21418 7580
L21378 7599
L21303 7599
L21268 7580
L21235 7543
L21226 7468
L21242 7336
L21270 7261
L21312 7224
L21352 7205
" />
<path d="M21866 7599
L21758 7411
" />
<path d="M21641 7599
L21690 7205
L21840 7205
L21875 7224
L21891 7243
L21905 7280
L21898 7336
L21875 7374
L21854 7393
L21814 7411
L21664 7411
" />
</g>
<g style="fill:#008484; fill-opacity:0.0; 
stroke:#008484; stroke-width:59.0551; stroke-opacity:1; 
stroke-linecap:round; stroke-linejoin:round;">
<path d="M18039 10314
L17724 10314
" />
<path d="M18039 11181
L17724 11181
" />
<path d="M17724.4 10315 A433.071 433.071 0.0 0 0 17724.4 11181.1 " />
<path d="M18039.4 11181.1 A433.071 433.071 0.0 0 0 18039.4 10315 " />
<path d="M17055 10118
L17055 11377
" />
<path d="M17055 11377
L18708 11377
" />
<path d="M18708 11377
L18708 10118
" />
<path d="M18708 10118
L17055 10118
" />
</g>
<g style="fill:#008484; fill-opacity:0.0; 
stroke:#008484; stroke-width:39.3701; stroke-opacity:1; 
stroke-linecap:round; stroke-linejoin:round;">
<circle cx="6996.06" cy="8425.2" r="78.7402" /> 
<path d="M7645 9133
L7645 8346
" />
<path d="M6700 9133
L7645 9133
" />
<path d="M6700 8346
L6700 9133
" />
<path d="M7645 8346
L6700 8346
" />
</g>
<g style="fill:#008484; fill-opacity:0.0; 
stroke:#008484; stroke-width:59.0551; stroke-opacity:1; 
stroke-linecap:round; stroke-linejoin:round;">
<path d="M20244 12244
L20559 12244
" />
<path d="M20244 11377
L20559 11377
" />
<path d="M20559.1 12244.1 A433.071 433.071 0.0 0 0 20559.1 11378 " />
<path d="M20244.1 11378 A433.071 433.071 0.0 0 0 20244.1 12244.1 " />
<path d="M21228 12440
L21228 11181
" />
<path d="M21228 11181
L19574 11181
" />
<path d="M19574 11181
L19574 12440
" />
<path d="M19574 12440
L21228 12440
" />
</g>
<g style="fill:#000000; fill-opacity:0.0; 
stroke:#000000; stroke-width:59.0551; stroke-opacity:1; 
stroke-linecap:round; stroke-linejoin:round;">
</g>
<g style="fill:#484800; fill-opacity:0.0; 
stroke:#484800; stroke-width:59.0551; stroke-opacity:1; 
stroke-linecap:round; stroke-linejoin:round;">
</g>
<g style="fill:#484800; fill-opacity:0.0; 
stroke:#484800; stroke-width:78.7402; stroke-opacity:1; 
stroke-linecap:round; stroke-linejoin:round;">
<path d="M5905 15019
L5905 13444
" />
<path d="M6692 14232
L5118 14232
" />
</g>
<g style="fill:#484800; fill-opacity:0.0; 
stroke:#484800; stroke-width:118.11; stroke-opacity:1; 
stroke-linecap:round; stroke-linejoin:round;">
<path d="M140 25247
L140 24656
L478 25247
L478 24656
" />
<path d="M871 24656
L984 24656
L1040 24685
L1096 24741
L1124 24853
L1124 25050
L1096 25163
L1040 25219
L984 25247
L871 25247
L815 25219
L759 25163
L731 25050
L731 24853
L759 24741
L815 24685
L871 24656
" />
<path d="M1293 24656
L1631 24656
" />
<path d="M1462 25247
L1462 24656
" />
<path d="M1827 24938
L2024 24938
" />
<path d="M2109 25247
L1827 25247
L1827 24656
L2109 24656
" />
<path d="M2334 25219
L2418 25247
L2559 25247
L2615 25219
L2643 25191
L2671 25134
L2671 25078
L2643 25022
L2615 24994
L2559 24966
L2446 24938
L2390 24910
L2362 24881
L2334 24825
L2334 24769
L2362 24713
L2390 24685
L2446 24656
L2587 24656
L2671 24685
" />
<path d="M2924 25191
L2952 25219
L2924 25247
L2896 25219
L2924 25191
L2924 25247
" />
<path d="M2924 24881
L2952 24910
L2924 24938
L2896 24910
L2924 24881
L2924 24938
" />
<path d="M449 26251
L112 26251
" />
<path d="M281 26251
L281 25660
L224 25745
L168 25801
L112 25829
" />
<path d="M703 26195
L731 26223
L703 26251
L674 26223
L703 26195
L703 26251
" />
<path d="M1631 25942
L1434 25942
" />
<path d="M1434 26251
L1434 25660
L1715 25660
" />
<path d="M2052 25660
L2165 25660
L2221 25688
L2277 25745
L2305 25857
L2305 26054
L2277 26167
L2221 26223
L2165 26251
L2052 26251
L1996 26223
L1940 26167
L1912 26054
L1912 25857
L1940 25745
L1996 25688
L2052 25660
" />
<path d="M2671 25660
L2784 25660
L2840 25688
L2896 25745
L2924 25857
L2924 26054
L2896 26167
L2840 26223
L2784 26251
L2671 26251
L2615 26223
L2559 26167
L2530 26054
L2530 25857
L2559 25745
L2615 25688
L2671 25660
" />
<path d="M3093 25660
L3430 25660
" />
<path d="M3262 26251
L3262 25660
" />
<path d="M3627 26251
L3627 25660
L3852 25660
L3908 25688
L3937 25717
L3965 25773
L3965 25857
L3937 25913
L3908 25942
L3852 25970
L3627 25970
" />
<path d="M4555 26251
L4358 25970
" />
<path d="M4218 26251
L4218 25660
L4443 25660
L4499 25688
L4527 25717
L4555 25773
L4555 25857
L4527 25913
L4499 25942
L4443 25970
L4218 25970
" />
<path d="M4808 26251
L4808 25660
" />
<path d="M5089 26251
L5089 25660
L5427 26251
L5427 25660
" />
<path d="M5624 25660
L5961 25660
" />
<path d="M5793 26251
L5793 25660
" />
<path d="M6130 26223
L6214 26251
L6355 26251
L6411 26223
L6439 26195
L6467 26138
L6467 26082
L6439 26026
L6411 25998
L6355 25970
L6242 25942
L6186 25913
L6158 25885
L6130 25829
L6130 25773
L6158 25717
L6186 25688
L6242 25660
L6383 25660
L6467 25688
" />
<path d="M7283 25660
L7395 25660
L7452 25688
L7508 25745
L7536 25857
L7536 26054
L7508 26167
L7452 26223
L7395 26251
L7283 26251
L7227 26223
L7170 26167
L7142 26054
L7142 25857
L7170 25745
L7227 25688
L7283 25660
" />
<path d="M8127 26251
L7930 25970
" />
<path d="M7789 26251
L7789 25660
L8014 25660
L8070 25688
L8098 25717
L8127 25773
L8127 25857
L8098 25913
L8070 25942
L8014 25970
L7789 25970
" />
<path d="M8380 26251
L8380 25660
" />
<path d="M8661 25942
L8858 25942
" />
<path d="M8942 26251
L8661 26251
L8661 25660
L8942 25660
" />
<path d="M9195 26251
L9195 25660
L9533 26251
L9533 25660
" />
<path d="M9730 25660
L10067 25660
" />
<path d="M9898 26251
L9898 25660
" />
<path d="M10264 25942
L10461 25942
" />
<path d="M10545 26251
L10264 26251
L10264 25660
L10545 25660
" />
<path d="M10798 26251
L10798 25660
L10939 25660
L11023 25688
L11079 25745
L11107 25801
L11136 25913
L11136 25998
L11107 26110
L11079 26167
L11023 26223
L10939 26251
L10798 26251
" />
<path d="M11839 26251
L11839 25660
L12064 25660
L12120 25688
L12148 25717
L12176 25773
L12176 25857
L12148 25913
L12120 25942
L12064 25970
L11839 25970
" />
<path d="M12429 25942
L12626 25942
" />
<path d="M12710 26251
L12429 26251
L12429 25660
L12710 25660
" />
<path d="M13301 26251
L13104 25970
" />
<path d="M12964 26251
L12964 25660
L13188 25660
L13245 25688
L13273 25717
L13301 25773
L13301 25857
L13273 25913
L13245 25942
L13188 25970
L12964 25970
" />
<path d="M14004 26251
L14004 25660
" />
<path d="M14285 26251
L14285 25660
L14510 25660
L14566 25688
L14595 25717
L14623 25773
L14623 25857
L14595 25913
L14566 25942
L14510 25970
L14285 25970
" />
<path d="M15213 26195
L15185 26223
L15101 26251
L15044 26251
L14960 26223
L14904 26167
L14876 26110
L14848 25998
L14848 25913
L14876 25801
L14904 25745
L14960 25688
L15044 25660
L15101 25660
L15185 25688
L15213 25717
" />
<path d="M15466 26026
L15916 26026
" />
<path d="M16141 25660
L16535 25660
L16282 26251
" />
<path d="M16704 25660
L17069 25660
L16872 25885
L16957 25885
L17013 25913
L17041 25942
L17069 25998
L17069 26138
L17041 26195
L17013 26223
L16957 26251
L16788 26251
L16732 26223
L16704 26195
" />
<path d="M17604 25660
L17322 25660
L17294 25942
L17322 25913
L17379 25885
L17519 25885
L17575 25913
L17604 25942
L17632 25998
L17632 26138
L17604 26195
L17575 26223
L17519 26251
L17379 26251
L17322 26223
L17294 26195
" />
<path d="M18194 26251
L17857 26251
" />
<path d="M18025 26251
L18025 25660
L17969 25745
L17913 25801
L17857 25829
" />
<path d="M18644 25942
L18447 25942
" />
<path d="M18447 26251
L18447 25660
L18728 25660
" />
<path d="M19291 26195
L19263 26223
L19178 26251
L19122 26251
L19038 26223
L18982 26167
L18953 26110
L18925 25998
L18925 25913
L18953 25801
L18982 25745
L19038 25688
L19122 25660
L19178 25660
L19263 25688
L19291 25717
" />
<path d="M20275 26251
L19994 26251
L19994 25660
" />
<path d="M20472 25942
L20669 25942
" />
<path d="M20753 26251
L20472 26251
L20472 25660
L20753 25660
" />
<path d="M20922 25660
L21119 26251
L21316 25660
" />
<path d="M21512 25942
L21709 25942
" />
<path d="M21794 26251
L21512 26251
L21512 25660
L21794 25660
" />
<path d="M22328 26251
L22047 26251
L22047 25660
" />
<path d="M23172 25942
L23256 25970
L23284 25998
L23312 26054
L23312 26138
L23284 26195
L23256 26223
L23200 26251
L22975 26251
L22975 25660
L23172 25660
L23228 25688
L23256 25717
L23284 25773
L23284 25829
L23256 25885
L23228 25913
L23172 25942
L22975 25942
" />
<path d="M24184 26476
L24156 26448
L24100 26363
L24071 26307
L24043 26223
L24015 26082
L24015 25970
L24043 25829
L24071 25745
L24100 25688
L24156 25604
L24184 25576
" />
<path d="M24409 26251
L24409 25660
L24634 25660
L24690 25688
L24718 25717
L24746 25773
L24746 25857
L24718 25913
L24690 25942
L24634 25970
L24409 25970
" />
<path d="M25000 26251
L25000 25660
" />
<path d="M25281 26251
L25281 25660
L25618 26251
L25618 25660
" />
<path d="M26659 26251
L26321 26251
" />
<path d="M26490 26251
L26490 25660
L26434 25745
L26377 25801
L26321 25829
" />
<path d="M27362 26251
L27362 25660
" />
<path d="M27643 26251
L27643 25660
L27980 26251
L27980 25660
" />
<path d="M28993 26251
L28712 26251
L28712 25660
" />
<path d="M29302 25660
L29415 25660
L29471 25688
L29527 25745
L29555 25857
L29555 26054
L29527 26167
L29471 26223
L29415 26251
L29302 26251
L29246 26223
L29190 26167
L29161 26054
L29161 25857
L29190 25745
L29246 25688
L29302 25660
" />
<path d="M29752 25660
L29893 26251
L30005 25829
L30118 26251
L30258 25660
" />
<path d="M30483 25942
L30680 25942
" />
<path d="M30764 26251
L30483 26251
L30483 25660
L30764 25660
" />
<path d="M31355 26251
L31158 25970
" />
<path d="M31017 26251
L31017 25660
L31242 25660
L31299 25688
L31327 25717
L31355 25773
L31355 25857
L31327 25913
L31299 25942
L31242 25970
L31017 25970
" />
<path d="M32339 26251
L32058 26251
L32058 25660
" />
<path d="M32536 25942
L32733 25942
" />
<path d="M32817 26251
L32536 26251
L32536 25660
L32817 25660
" />
<path d="M33267 25942
L33070 25942
" />
<path d="M33070 26251
L33070 25660
L33352 25660
" />
<path d="M33492 25660
L33830 25660
" />
<path d="M33661 26251
L33661 25660
" />
<path d="M33970 26476
L33998 26448
L34055 26363
L34083 26307
L34111 26223
L34139 26082
L34139 25970
L34111 25829
L34083 25745
L34055 25688
L33998 25604
L33970 25576
" />
<path d="M112 26721
L140 26692
L196 26664
L337 26664
L393 26692
L421 26721
L449 26777
L449 26833
L421 26917
L84 27255
L449 27255
" />
<path d="M703 27199
L731 27227
L703 27255
L674 27227
L703 27199
L703 27255
" />
<path d="M1771 27199
L1743 27227
L1659 27255
L1602 27255
L1518 27227
L1462 27170
L1434 27114
L1406 27002
L1406 26917
L1434 26805
L1462 26749
L1518 26692
L1602 26664
L1659 26664
L1743 26692
L1771 26721
" />
<path d="M2137 26664
L2249 26664
L2305 26692
L2362 26749
L2390 26861
L2390 27058
L2362 27170
L2305 27227
L2249 27255
L2137 27255
L2080 27227
L2024 27170
L1996 27058
L1996 26861
L2024 26749
L2080 26692
L2137 26664
" />
<path d="M2643 27255
L2643 26664
L2840 27086
L3037 26664
L3037 27255
" />
<path d="M3318 27255
L3318 26664
L3543 26664
L3599 26692
L3627 26721
L3655 26777
L3655 26861
L3627 26917
L3599 26946
L3543 26974
L3318 26974
" />
<path d="M4021 26664
L4133 26664
L4190 26692
L4246 26749
L4274 26861
L4274 27058
L4246 27170
L4190 27227
L4133 27255
L4021 27255
L3965 27227
L3908 27170
L3880 27058
L3880 26861
L3908 26749
L3965 26692
L4021 26664
" />
<path d="M4527 27255
L4527 26664
L4865 27255
L4865 26664
" />
<path d="M5146 26946
L5343 26946
" />
<path d="M5427 27255
L5146 27255
L5146 26664
L5427 26664
" />
<path d="M5680 27255
L5680 26664
L6017 27255
L6017 26664
" />
<path d="M6214 26664
L6552 26664
" />
<path d="M6383 27255
L6383 26664
" />
<path d="M7536 27255
L7339 26974
" />
<path d="M7199 27255
L7199 26664
L7424 26664
L7480 26692
L7508 26721
L7536 26777
L7536 26861
L7508 26917
L7480 26946
L7424 26974
L7199 26974
" />
<path d="M7902 26664
L8014 26664
L8070 26692
L8127 26749
L8155 26861
L8155 27058
L8127 27170
L8070 27227
L8014 27255
L7902 27255
L7845 27227
L7789 27170
L7761 27058
L7761 26861
L7789 26749
L7845 26692
L7902 26664
" />
<path d="M8323 26664
L8661 26664
" />
<path d="M8492 27255
L8492 26664
" />
<path d="M8830 27086
L9111 27086
" />
<path d="M8773 27255
L8970 26664
L9167 27255
" />
<path d="M9280 26664
L9617 26664
" />
<path d="M9448 27255
L9448 26664
" />
<path d="M9814 27255
L9814 26664
" />
<path d="M10208 26664
L10320 26664
L10376 26692
L10433 26749
L10461 26861
L10461 27058
L10433 27170
L10376 27227
L10320 27255
L10208 27255
L10151 27227
L10095 27170
L10067 27058
L10067 26861
L10095 26749
L10151 26692
L10208 26664
" />
<path d="M10714 27255
L10714 26664
L11051 27255
L11051 26664
" />
<path d="M11782 27255
L11782 26664
" />
<path d="M12064 27255
L12064 26664
L12401 27255
L12401 26664
" />
<path d="M13132 27255
L13132 26664
L13273 26664
L13357 26692
L13413 26749
L13442 26805
L13470 26917
L13470 27002
L13442 27114
L13413 27170
L13357 27227
L13273 27255
L13132 27255
" />
<path d="M13723 26946
L13920 26946
" />
<path d="M14004 27255
L13723 27255
L13723 26664
L14004 26664
" />
<path d="M14566 26692
L14510 26664
L14426 26664
L14341 26692
L14285 26749
L14257 26805
L14229 26917
L14229 27002
L14257 27114
L14285 27170
L14341 27227
L14426 27255
L14482 27255
L14566 27227
L14595 27199
L14595 27002
L14482 27002
" />
<path d="M15185 27255
L14988 26974
" />
<path d="M14848 27255
L14848 26664
L15073 26664
L15129 26692
L15157 26721
L15185 26777
L15185 26861
L15157 26917
L15129 26946
L15073 26974
L14848 26974
" />
<path d="M15438 26946
L15635 26946
" />
<path d="M15719 27255
L15438 27255
L15438 26664
L15719 26664
" />
<path d="M15973 26946
L16169 26946
" />
<path d="M16254 27255
L15973 27255
L15973 26664
L16254 26664
" />
<path d="M16479 27227
L16563 27255
L16704 27255
L16760 27227
L16788 27199
L16816 27142
L16816 27086
L16788 27030
L16760 27002
L16704 26974
L16591 26946
L16535 26917
L16507 26889
L16479 26833
L16479 26777
L16507 26721
L16535 26692
L16591 26664
L16732 26664
L16816 26692
" />
<path d="M17857 27199
L17829 27227
L17744 27255
L17688 27255
L17604 27227
L17547 27170
L17519 27114
L17491 27002
L17491 26917
L17519 26805
L17547 26749
L17604 26692
L17688 26664
L17744 26664
L17829 26692
L17857 26721
" />
<path d="M18222 26664
L18335 26664
L18391 26692
L18447 26749
L18475 26861
L18475 27058
L18447 27170
L18391 27227
L18335 27255
L18222 27255
L18166 27227
L18110 27170
L18082 27058
L18082 26861
L18110 26749
L18166 26692
L18222 26664
" />
<path d="M18728 26664
L18728 27142
L18757 27199
L18785 27227
L18841 27255
L18953 27255
L19010 27227
L19038 27199
L19066 27142
L19066 26664
" />
<path d="M19347 27255
L19347 26664
L19685 27255
L19685 26664
" />
<path d="M19881 26664
L20219 26664
" />
<path d="M20050 27255
L20050 26664
" />
<path d="M20416 26946
L20613 26946
" />
<path d="M20697 27255
L20416 27255
L20416 26664
L20697 26664
" />
<path d="M21287 27255
L21091 26974
" />
<path d="M20950 27255
L20950 26664
L21175 26664
L21231 26692
L21259 26721
L21287 26777
L21287 26861
L21259 26917
L21231 26946
L21175 26974
L20950 26974
" />
<path d="M21541 27030
L21991 27030
" />
<path d="M22609 27199
L22581 27227
L22497 27255
L22440 27255
L22356 27227
L22300 27170
L22272 27114
L22244 27002
L22244 26917
L22272 26805
L22300 26749
L22356 26692
L22440 26664
L22497 26664
L22581 26692
L22609 26721
" />
<path d="M23143 27255
L22862 27255
L22862 26664
" />
<path d="M23453 26664
L23565 26664
L23622 26692
L23678 26749
L23706 26861
L23706 27058
L23678 27170
L23622 27227
L23565 27255
L23453 27255
L23397 27227
L23340 27170
L23312 27058
L23312 26861
L23340 26749
L23397 26692
L23453 26664
" />
<path d="M24296 27199
L24268 27227
L24184 27255
L24128 27255
L24043 27227
L23987 27170
L23959 27114
L23931 27002
L23931 26917
L23959 26805
L23987 26749
L24043 26692
L24128 26664
L24184 26664
L24268 26692
L24296 26721
" />
<path d="M24550 27255
L24550 26664
" />
<path d="M24887 27255
L24634 26917
" />
<path d="M24887 26664
L24550 27002
" />
<path d="M25084 26664
L25224 27255
L25337 26833
L25449 27255
L25590 26664
" />
<path d="M25815 27255
L25815 26664
" />
<path d="M26068 27227
L26152 27255
L26293 27255
L26349 27227
L26377 27199
L26406 27142
L26406 27086
L26377 27030
L26349 27002
L26293 26974
L26181 26946
L26124 26917
L26096 26889
L26068 26833
L26068 26777
L26096 26721
L26124 26692
L26181 26664
L26321 26664
L26406 26692
" />
<path d="M26659 26946
L26856 26946
" />
<path d="M26940 27255
L26659 27255
L26659 26664
L26940 26664
" />
<path d="M84 27668
L449 27668
L253 27893
L337 27893
L393 27921
L421 27949
L449 28006
L449 28146
L421 28203
L393 28231
L337 28259
L168 28259
L112 28231
L84 28203
" />
<path d="M703 28203
L731 28231
L703 28259
L674 28231
L703 28203
L703 28259
" />
<path d="M1434 28259
L1434 27668
L1771 28259
L1771 27668
" />
<path d="M2165 27668
L2277 27668
L2334 27696
L2390 27753
L2418 27865
L2418 28062
L2390 28174
L2334 28231
L2277 28259
L2165 28259
L2109 28231
L2052 28174
L2024 28062
L2024 27865
L2052 27753
L2109 27696
L2165 27668
" />
<path d="M2587 27668
L2924 27668
" />
<path d="M2755 28259
L2755 27668
" />
<path d="M3121 27949
L3318 27949
" />
<path d="M3402 28259
L3121 28259
L3121 27668
L3402 27668
" />
<path d="M4443 28203
L4415 28231
L4330 28259
L4274 28259
L4190 28231
L4133 28174
L4105 28118
L4077 28006
L4077 27921
L4105 27809
L4133 27753
L4190 27696
L4274 27668
L4330 27668
L4415 27696
L4443 27724
" />
<path d="M4808 27668
L4921 27668
L4977 27696
L5033 27753
L5061 27865
L5061 28062
L5033 28174
L4977 28231
L4921 28259
L4808 28259
L4752 28231
L4696 28174
L4668 28062
L4668 27865
L4696 27753
L4752 27696
L4808 27668
" />
<path d="M5314 28259
L5314 27668
L5511 28090
L5708 27668
L5708 28259
" />
<path d="M5989 28259
L5989 27668
L6214 27668
L6271 27696
L6299 27724
L6327 27781
L6327 27865
L6299 27921
L6271 27949
L6214 27978
L5989 27978
" />
<path d="M6692 27668
L6805 27668
L6861 27696
L6917 27753
L6946 27865
L6946 28062
L6917 28174
L6861 28231
L6805 28259
L6692 28259
L6636 28231
L6580 28174
L6552 28062
L6552 27865
L6580 27753
L6636 27696
L6692 27668
" />
<path d="M7199 28259
L7199 27668
L7536 28259
L7536 27668
" />
<path d="M7817 27949
L8014 27949
" />
<path d="M8098 28259
L7817 28259
L7817 27668
L8098 27668
" />
<path d="M8352 28259
L8352 27668
L8689 28259
L8689 27668
" />
<path d="M8886 27668
L9223 27668
" />
<path d="M9055 28259
L9055 27668
" />
<path d="M9392 28231
L9476 28259
L9617 28259
L9673 28231
L9701 28203
L9730 28146
L9730 28090
L9701 28034
L9673 28006
L9617 27978
L9505 27949
L9448 27921
L9420 27893
L9392 27837
L9392 27781
L9420 27724
L9448 27696
L9505 27668
L9645 27668
L9730 27696
" />
<path d="M10404 28090
L10686 28090
" />
<path d="M10348 28259
L10545 27668
L10742 28259
" />
<path d="M11276 28259
L11079 27978
" />
<path d="M10939 28259
L10939 27668
L11164 27668
L11220 27696
L11248 27724
L11276 27781
L11276 27865
L11248 27921
L11220 27949
L11164 27978
L10939 27978
" />
<path d="M11529 27949
L11726 27949
" />
<path d="M11811 28259
L11529 28259
L11529 27668
L11811 27668
" />
<path d="M12514 28259
L12514 27668
L12710 28090
L12907 27668
L12907 28259
" />
<path d="M13301 27668
L13413 27668
L13470 27696
L13526 27753
L13554 27865
L13554 28062
L13526 28174
L13470 28231
L13413 28259
L13301 28259
L13245 28231
L13188 28174
L13160 28062
L13160 27865
L13188 27753
L13245 27696
L13301 27668
" />
<path d="M13807 27668
L13807 28146
L13835 28203
L13863 28231
L13920 28259
L14032 28259
L14088 28231
L14116 28203
L14145 28146
L14145 27668
" />
<path d="M14426 28259
L14426 27668
L14763 28259
L14763 27668
" />
<path d="M14960 27668
L15298 27668
" />
<path d="M15129 28259
L15129 27668
" />
<path d="M15494 27949
L15691 27949
" />
<path d="M15776 28259
L15494 28259
L15494 27668
L15776 27668
" />
<path d="M16029 28259
L16029 27668
L16169 27668
L16254 27696
L16310 27753
L16338 27809
L16366 27921
L16366 28006
L16338 28118
L16310 28174
L16254 28231
L16169 28259
L16029 28259
" />
<path d="M17182 27668
L17294 27668
L17350 27696
L17407 27753
L17435 27865
L17435 28062
L17407 28174
L17350 28231
L17294 28259
L17182 28259
L17125 28231
L17069 28174
L17041 28062
L17041 27865
L17069 27753
L17125 27696
L17182 27668
" />
<path d="M17688 28259
L17688 27668
L18025 28259
L18025 27668
" />
<path d="M18953 27949
L19038 27978
L19066 28006
L19094 28062
L19094 28146
L19066 28203
L19038 28231
L18982 28259
L18757 28259
L18757 27668
L18953 27668
L19010 27696
L19038 27724
L19066 27781
L19066 27837
L19038 27893
L19010 27921
L18953 27949
L18757 27949
" />
<path d="M19460 27668
L19572 27668
L19628 27696
L19685 27753
L19713 27865
L19713 28062
L19685 28174
L19628 28231
L19572 28259
L19460 28259
L19403 28231
L19347 28174
L19319 28062
L19319 27865
L19347 27753
L19403 27696
L19460 27668
" />
<path d="M19881 27668
L20219 27668
" />
<path d="M20050 28259
L20050 27668
" />
<path d="M20416 28259
L20416 27668
" />
<path d="M20416 27949
L20753 27949
" />
<path d="M20753 28259
L20753 27668
" />
<path d="M21681 27949
L21484 27949
" />
<path d="M21484 28259
L21484 27668
L21766 27668
" />
<path d="M21991 28203
L22019 28231
L21991 28259
L21962 28231
L21991 28203
L21991 28259
" />
<path d="M22609 28203
L22581 28231
L22497 28259
L22440 28259
L22356 28231
L22300 28174
L22272 28118
L22244 28006
L22244 27921
L22272 27809
L22300 27753
L22356 27696
L22440 27668
L22497 27668
L22581 27696
L22609 27724
" />
<path d="M22862 27668
L22862 28146
L22890 28203
L22919 28231
L22975 28259
L23087 28259
L23143 28231
L23172 28203
L23200 28146
L23200 27668
" />
<path d="M23903 28090
L24184 28090
" />
<path d="M23847 28259
L24043 27668
L24240 28259
" />
<path d="M24437 28259
L24437 27668
L24775 28259
L24775 27668
" />
<path d="M25056 28259
L25056 27668
L25196 27668
L25281 27696
L25337 27753
L25365 27809
L25393 27921
L25393 28006
L25365 28118
L25337 28174
L25281 28231
L25196 28259
L25056 28259
" />
<path d="M26293 27949
L26377 27978
L26406 28006
L26434 28062
L26434 28146
L26406 28203
L26377 28231
L26321 28259
L26096 28259
L26096 27668
L26293 27668
L26349 27696
L26377 27724
L26406 27781
L26406 27837
L26377 27893
L26349 27921
L26293 27949
L26096 27949
" />
<path d="M26687 28203
L26715 28231
L26687 28259
L26659 28231
L26687 28203
L26687 28259
" />
<path d="M27305 28203
L27277 28231
L27193 28259
L27137 28259
L27052 28231
L26996 28174
L26968 28118
L26940 28006
L26940 27921
L26968 27809
L26996 27753
L27052 27696
L27137 27668
L27193 27668
L27277 27696
L27305 27724
" />
<path d="M27559 27668
L27559 28146
L27587 28203
L27615 28231
L27671 28259
L27784 28259
L27840 28231
L27868 28203
L27896 28146
L27896 27668
" />
<path d="M28908 28259
L28627 28259
L28627 27668
" />
<path d="M29077 28090
L29358 28090
" />
<path d="M29021 28259
L29218 27668
L29415 28259
" />
<path d="M29724 27978
L29724 28259
" />
<path d="M29527 27668
L29724 27978
L29921 27668
" />
<path d="M30118 27949
L30314 27949
" />
<path d="M30399 28259
L30118 28259
L30118 27668
L30399 27668
" />
<path d="M30989 28259
L30793 27978
" />
<path d="M30652 28259
L30652 27668
L30877 27668
L30933 27696
L30961 27724
L30989 27781
L30989 27865
L30961 27921
L30933 27949
L30877 27978
L30652 27978
" />
<path d="M393 28869
L393 29263
" />
<path d="M253 28644
L112 29066
L478 29066
" />
<path d="M703 29206
L731 29235
L703 29263
L674 29235
L703 29206
L703 29263
" />
<path d="M1434 29263
L1434 28672
L1659 28672
L1715 28700
L1743 28728
L1771 28785
L1771 28869
L1743 28925
L1715 28953
L1659 28982
L1434 28982
" />
<path d="M2362 29206
L2334 29235
L2249 29263
L2193 29263
L2109 29235
L2052 29178
L2024 29122
L1996 29010
L1996 28925
L2024 28813
L2052 28757
L2109 28700
L2193 28672
L2249 28672
L2334 28700
L2362 28728
" />
<path d="M2812 28953
L2896 28982
L2924 29010
L2952 29066
L2952 29150
L2924 29206
L2896 29235
L2840 29263
L2615 29263
L2615 28672
L2812 28672
L2868 28700
L2896 28728
L2924 28785
L2924 28841
L2896 28897
L2868 28925
L2812 28953
L2615 28953
" />
<path d="M3655 29263
L3655 28672
" />
<path d="M3908 29235
L3993 29263
L4133 29263
L4190 29235
L4218 29206
L4246 29150
L4246 29094
L4218 29038
L4190 29010
L4133 28982
L4021 28953
L3965 28925
L3937 28897
L3908 28841
L3908 28785
L3937 28728
L3965 28700
L4021 28672
L4161 28672
L4246 28700
" />
<path d="M5258 29263
L4921 29263
" />
<path d="M5089 29263
L5089 28672
L5033 28757
L4977 28813
L4921 28841
" />
<path d="M5511 29206
L5539 29235
L5511 29263
L5483 29235
L5511 29206
L5511 29263
" />
<path d="M6046 28672
L5933 28672
L5877 28700
L5849 28728
L5793 28813
L5764 28925
L5764 29150
L5793 29206
L5821 29235
L5877 29263
L5989 29263
L6046 29235
L6074 29206
L6102 29150
L6102 29010
L6074 28953
L6046 28925
L5989 28897
L5877 28897
L5821 28925
L5793 28953
L5764 29010
" />
<path d="M6355 29263
L6355 28869
" />
<path d="M6355 28925
L6383 28897
L6439 28869
L6524 28869
L6580 28897
L6608 28953
L6608 29263
" />
<path d="M6608 28953
L6636 28897
L6692 28869
L6777 28869
L6833 28897
L6861 28953
L6861 29263
" />
<path d="M7142 29263
L7142 28869
" />
<path d="M7142 28925
L7170 28897
L7227 28869
L7311 28869
L7367 28897
L7395 28953
L7395 29263
" />
<path d="M7395 28953
L7424 28897
L7480 28869
L7564 28869
L7620 28897
L7649 28953
L7649 29263
" />
<path d="M8577 28953
L8380 28953
" />
<path d="M8380 29263
L8380 28672
L8661 28672
" />
<path d="M9223 29263
L9026 28982
" />
<path d="M8886 29263
L8886 28672
L9111 28672
L9167 28700
L9195 28728
L9223 28785
L9223 28869
L9195 28925
L9167 28953
L9111 28982
L8886 28982
" />
<path d="M9730 28869
L9730 29263
" />
<path d="M9589 28644
L9448 29066
L9814 29066
" />
<path d="M10826 29263
L10629 28982
" />
<path d="M10489 29263
L10489 28672
L10714 28672
L10770 28700
L10798 28728
L10826 28785
L10826 28869
L10798 28925
L10770 28953
L10714 28982
L10489 28982
" />
<path d="M11051 29094
L11332 29094
" />
<path d="M10995 29263
L11192 28672
L11389 29263
" />
<path d="M11501 28672
L11839 28672
" />
<path d="M11670 29263
L11670 28672
" />
<path d="M12035 28953
L12232 28953
" />
<path d="M12317 29263
L12035 29263
L12035 28672
L12317 28672
" />
<path d="M12570 29263
L12570 28672
L12710 28672
L12795 28700
L12851 28757
L12879 28813
L12907 28925
L12907 29010
L12879 29122
L12851 29178
L12795 29235
L12710 29263
L12570 29263
" />
<path d="M13807 28953
L13610 28953
" />
<path d="M13610 29263
L13610 28672
L13892 28672
" />
<path d="M14229 28672
L14341 28672
L14398 28700
L14454 28757
L14482 28869
L14482 29066
L14454 29178
L14398 29235
L14341 29263
L14229 29263
L14173 29235
L14116 29178
L14088 29066
L14088 28869
L14116 28757
L14173 28700
L14229 28672
" />
<path d="M15073 29263
L14876 28982
" />
<path d="M14735 29263
L14735 28672
L14960 28672
L15016 28700
L15044 28728
L15073 28785
L15073 28869
L15044 28925
L15016 28953
L14960 28982
L14735 28982
" />
<path d="M16113 29263
L15916 28982
" />
<path d="M15776 29263
L15776 28672
L16001 28672
L16057 28700
L16085 28728
L16113 28785
L16113 28869
L16085 28925
L16057 28953
L16001 28982
L15776 28982
" />
<path d="M16479 28672
L16591 28672
L16647 28700
L16704 28757
L16732 28869
L16732 29066
L16704 29178
L16647 29235
L16591 29263
L16479 29263
L16422 29235
L16366 29178
L16338 29066
L16338 28869
L16366 28757
L16422 28700
L16479 28672
" />
<path d="M16985 29263
L16985 28672
" />
<path d="M16985 28953
L17322 28953
" />
<path d="M17322 29263
L17322 28672
" />
<path d="M17575 29235
L17660 29263
L17800 29263
L17857 29235
L17885 29206
L17913 29150
L17913 29094
L17885 29038
L17857 29010
L17800 28982
L17688 28953
L17632 28925
L17604 28897
L17575 28841
L17575 28785
L17604 28728
L17632 28700
L17688 28672
L17829 28672
L17913 28700
" />
<path d="M18953 29263
L18757 28982
" />
<path d="M18616 29263
L18616 28672
L18841 28672
L18897 28700
L18925 28728
L18953 28785
L18953 28869
L18925 28925
L18897 28953
L18841 28982
L18616 28982
" />
<path d="M19206 28953
L19403 28953
" />
<path d="M19488 29263
L19206 29263
L19206 28672
L19488 28672
" />
<path d="M19938 28953
L19741 28953
" />
<path d="M19741 29263
L19741 28672
L20022 28672
" />
<path d="M20528 29263
L20247 29263
L20247 28672
" />
<path d="M20838 28672
L20950 28672
L21006 28700
L21062 28757
L21091 28869
L21091 29066
L21062 29178
L21006 29235
L20950 29263
L20838 29263
L20781 29235
L20725 29178
L20697 29066
L20697 28869
L20725 28757
L20781 28700
L20838 28672
" />
<path d="M21287 28672
L21428 29263
L21541 28841
L21653 29263
L21794 28672
" />
<path d="M22047 29235
L22047 29263
L22019 29319
L21991 29347
" />
<path d="M23059 29263
L22722 29263
" />
<path d="M22890 29263
L22890 28672
L22834 28757
L22778 28813
L22722 28841
" />
<path d="M23425 28672
L23481 28672
L23537 28700
L23565 28728
L23593 28785
L23622 28897
L23622 29038
L23593 29150
L23565 29206
L23537 29235
L23481 29263
L23425 29263
L23368 29235
L23340 29206
L23312 29150
L23284 29038
L23284 28897
L23312 28785
L23340 28728
L23368 28700
L23425 28672
" />
<path d="M23818 28672
L24212 28672
L23818 29263
L24212 29263
" />
<path d="M25224 29206
L25196 29235
L25112 29263
L25056 29263
L24971 29235
L24915 29178
L24887 29122
L24859 29010
L24859 28925
L24887 28813
L24915 28757
L24971 28700
L25056 28672
L25112 28672
L25196 28700
L25224 28728
" />
<path d="M25590 28672
L25703 28672
L25759 28700
L25815 28757
L25843 28869
L25843 29066
L25815 29178
L25759 29235
L25703 29263
L25590 29263
L25534 29235
L25478 29178
L25449 29066
L25449 28869
L25478 28757
L25534 28700
L25590 28672
" />
<path d="M26096 29263
L26096 28672
L26321 28672
L26377 28700
L26406 28728
L26434 28785
L26434 28869
L26406 28925
L26377 28953
L26321 28982
L26096 28982
" />
<path d="M26687 29263
L26687 28672
L26912 28672
L26968 28700
L26996 28728
L27024 28785
L27024 28869
L26996 28925
L26968 28953
L26912 28982
L26687 28982
" />
<path d="M27277 28953
L27474 28953
" />
<path d="M27559 29263
L27277 29263
L27277 28672
L27559 28672
" />
<path d="M28149 29263
L27952 28982
" />
<path d="M27812 29263
L27812 28672
L28037 28672
L28093 28700
L28121 28728
L28149 28785
L28149 28869
L28121 28925
L28093 28953
L28037 28982
L27812 28982
" />
<path d="M28430 29235
L28430 29263
L28402 29319
L28374 29347
" />
<path d="M29133 28953
L29330 28953
" />
<path d="M29415 29263
L29133 29263
L29133 28672
L29415 28672
" />
<path d="M29668 29263
L29668 28672
L30005 29263
L30005 28672
" />
<path d="M30286 29263
L30286 28672
" />
<path d="M30877 28700
L30821 28672
L30736 28672
L30652 28700
L30596 28757
L30568 28813
L30539 28925
L30539 29010
L30568 29122
L30596 29178
L30652 29235
L30736 29263
L30793 29263
L30877 29235
L30905 29206
L30905 29010
L30793 29010
" />
<path d="M31805 28953
L31608 28953
" />
<path d="M31608 29263
L31608 28672
L31889 28672
" />
<path d="M32114 29263
L32114 28672
" />
<path d="M32395 29263
L32395 28672
L32733 29263
L32733 28672
" />
<path d="M33014 29263
L33014 28672
" />
<path d="M33267 29235
L33352 29263
L33492 29263
L33548 29235
L33577 29206
L33605 29150
L33605 29094
L33577 29038
L33548 29010
L33492 28982
L33380 28953
L33323 28925
L33295 28897
L33267 28841
L33267 28785
L33295 28728
L33323 28700
L33380 28672
L33520 28672
L33605 28700
" />
<path d="M33858 29263
L33858 28672
" />
<path d="M33858 28953
L34195 28953
" />
<path d="M34195 29263
L34195 28672
" />
<path d="M421 29676
L140 29676
L112 29957
L140 29929
L196 29901
L337 29901
L393 29929
L421 29957
L449 30014
L449 30154
L421 30210
L393 30239
L337 30267
L196 30267
L140 30239
L112 30210
" />
<path d="M703 30210
L731 30239
L703 30267
L674 30239
L703 30210
L703 30267
" />
<path d="M1434 30267
L1434 29676
L1631 30098
L1827 29676
L1827 30267
" />
<path d="M2080 30098
L2362 30098
" />
<path d="M2024 30267
L2221 29676
L2418 30267
" />
<path d="M2530 29676
L2868 29676
" />
<path d="M2699 30267
L2699 29676
" />
<path d="M2980 29676
L3318 29676
" />
<path d="M3149 30267
L3149 29676
" />
<path d="M3515 29957
L3712 29957
" />
<path d="M3796 30267
L3515 30267
L3515 29676
L3796 29676
" />
<path d="M4696 29957
L4780 29985
L4808 30014
L4836 30070
L4836 30154
L4808 30210
L4780 30239
L4724 30267
L4499 30267
L4499 29676
L4696 29676
L4752 29704
L4780 29732
L4808 29789
L4808 29845
L4780 29901
L4752 29929
L4696 29957
L4499 29957
" />
<path d="M5371 30267
L5089 30267
L5089 29676
" />
<path d="M5539 30098
L5821 30098
" />
<path d="M5483 30267
L5680 29676
L5877 30267
" />
<path d="M6411 30210
L6383 30239
L6299 30267
L6242 30267
L6158 30239
L6102 30182
L6074 30126
L6046 30014
L6046 29929
L6074 29817
L6102 29760
L6158 29704
L6242 29676
L6299 29676
L6383 29704
L6411 29732
" />
<path d="M6664 30267
L6664 29676
" />
<path d="M7002 30267
L6749 29929
" />
<path d="M7002 29676
L6664 30014
" />
<path d="M7677 30239
L7761 30267
L7902 30267
L7958 30239
L7986 30210
L8014 30154
L8014 30098
L7986 30042
L7958 30014
L7902 29985
L7789 29957
L7733 29929
L7705 29901
L7677 29845
L7677 29789
L7705 29732
L7733 29704
L7789 29676
L7930 29676
L8014 29704
" />
<path d="M8380 29676
L8492 29676
L8548 29704
L8605 29760
L8633 29873
L8633 30070
L8605 30182
L8548 30239
L8492 30267
L8380 30267
L8323 30239
L8267 30182
L8239 30070
L8239 29873
L8267 29760
L8323 29704
L8380 29676
" />
<path d="M9167 30267
L8886 30267
L8886 29676
" />
<path d="M9364 30267
L9364 29676
L9505 29676
L9589 29704
L9645 29760
L9673 29817
L9701 29929
L9701 30014
L9673 30126
L9645 30182
L9589 30239
L9505 30267
L9364 30267
" />
<path d="M9955 29957
L10151 29957
" />
<path d="M10236 30267
L9955 30267
L9955 29676
L10236 29676
" />
<path d="M10826 30267
L10629 29985
" />
<path d="M10489 30267
L10489 29676
L10714 29676
L10770 29704
L10798 29732
L10826 29789
L10826 29873
L10798 29929
L10770 29957
L10714 29985
L10489 29985
" />
<path d="M11529 30267
L11529 29676
L11726 30098
L11923 29676
L11923 30267
" />
<path d="M12176 30098
L12457 30098
" />
<path d="M12120 30267
L12317 29676
L12514 30267
" />
<path d="M12682 30239
L12767 30267
L12907 30267
L12964 30239
L12992 30210
L13020 30154
L13020 30098
L12992 30042
L12964 30014
L12907 29985
L12795 29957
L12739 29929
L12710 29901
L12682 29845
L12682 29789
L12710 29732
L12739 29704
L12795 29676
L12935 29676
L13020 29704
" />
<path d="M13273 30267
L13273 29676
" />
<path d="M13610 30267
L13357 29929
" />
<path d="M13610 29676
L13273 30014
" />
<path d="M14257 29676
L14398 30267
L14510 29845
L14623 30267
L14763 29676
" />
<path d="M14988 30267
L14988 29676
" />
<path d="M15185 29676
L15523 29676
" />
<path d="M15354 30267
L15354 29676
" />
<path d="M15719 30267
L15719 29676
" />
<path d="M15719 29957
L16057 29957
" />
<path d="M16057 30267
L16057 29676
" />
<path d="M16732 29676
L16872 30267
L16985 29845
L17097 30267
L17238 29676
" />
<path d="M17463 30267
L17463 29676
" />
<path d="M17463 29957
L17800 29957
" />
<path d="M17800 30267
L17800 29676
" />
<path d="M18082 30267
L18082 29676
" />
<path d="M18278 29676
L18616 29676
" />
<path d="M18447 30267
L18447 29676
" />
<path d="M18813 29957
L19010 29957
" />
<path d="M19094 30267
L18813 30267
L18813 29676
L19094 29676
" />
<path d="M19769 30239
L19853 30267
L19994 30267
L20050 30239
L20078 30210
L20106 30154
L20106 30098
L20078 30042
L20050 30014
L19994 29985
L19881 29957
L19825 29929
L19797 29901
L19769 29845
L19769 29789
L19797 29732
L19825 29704
L19881 29676
L20022 29676
L20106 29704
" />
<path d="M20359 30267
L20359 29676
" />
<path d="M20922 30267
L20641 30267
L20641 29676
" />
<path d="M21119 30267
L21119 29676
" />
<path d="M21456 30267
L21203 29929
" />
<path d="M21456 29676
L21119 30014
" />
<path d="M21681 30239
L21766 30267
L21906 30267
L21962 30239
L21991 30210
L22019 30154
L22019 30098
L21991 30042
L21962 30014
L21906 29985
L21794 29957
L21737 29929
L21709 29901
L21681 29845
L21681 29789
L21709 29732
L21737 29704
L21794 29676
L21934 29676
L22019 29704
" />
<path d="M22609 30210
L22581 30239
L22497 30267
L22440 30267
L22356 30239
L22300 30182
L22272 30126
L22244 30014
L22244 29929
L22272 29817
L22300 29760
L22356 29704
L22440 29676
L22497 29676
L22581 29704
L22609 29732
" />
<path d="M23200 30267
L23003 29985
" />
<path d="M22862 30267
L22862 29676
L23087 29676
L23143 29704
L23172 29732
L23200 29789
L23200 29873
L23172 29929
L23143 29957
L23087 29985
L22862 29985
" />
<path d="M23453 29957
L23650 29957
" />
<path d="M23734 30267
L23453 30267
L23453 29676
L23734 29676
" />
<path d="M23987 29957
L24184 29957
" />
<path d="M24268 30267
L23987 30267
L23987 29676
L24268 29676
" />
<path d="M24521 30267
L24521 29676
L24859 30267
L24859 29676
" />
<path d="M393 30680
L281 30680
L224 30708
L196 30736
L140 30821
L112 30933
L112 31158
L140 31214
L168 31242
L224 31271
L337 31271
L393 31242
L421 31214
L449 31158
L449 31017
L421 30961
L393 30933
L337 30905
L224 30905
L168 30933
L140 30961
L112 31017
" />
<path d="M703 31214
L731 31242
L703 31271
L674 31242
L703 31214
L703 31271
" />
<path d="M1406 31242
L1490 31271
L1631 31271
L1687 31242
L1715 31214
L1743 31158
L1743 31102
L1715 31046
L1687 31017
L1631 30989
L1518 30961
L1462 30933
L1434 30905
L1406 30849
L1406 30793
L1434 30736
L1462 30708
L1518 30680
L1659 30680
L1743 30708
" />
<path d="M2109 30680
L2221 30680
L2277 30708
L2334 30764
L2362 30877
L2362 31074
L2334 31186
L2277 31242
L2221 31271
L2109 31271
L2052 31242
L1996 31186
L1968 31074
L1968 30877
L1996 30764
L2052 30708
L2109 30680
" />
<path d="M2896 31271
L2615 31271
L2615 30680
" />
<path d="M3093 31271
L3093 30680
L3233 30680
L3318 30708
L3374 30764
L3402 30821
L3430 30933
L3430 31017
L3402 31130
L3374 31186
L3318 31242
L3233 31271
L3093 31271
" />
<path d="M3683 30961
L3880 30961
" />
<path d="M3965 31271
L3683 31271
L3683 30680
L3965 30680
" />
<path d="M4555 31271
L4358 30989
" />
<path d="M4218 31271
L4218 30680
L4443 30680
L4499 30708
L4527 30736
L4555 30793
L4555 30877
L4527 30933
L4499 30961
L4443 30989
L4218 30989
" />
<path d="M5258 31271
L5258 30680
L5483 30680
L5539 30708
L5568 30736
L5596 30793
L5596 30877
L5568 30933
L5539 30961
L5483 30989
L5258 30989
" />
<path d="M5821 31102
L6102 31102
" />
<path d="M5764 31271
L5961 30680
L6158 31271
" />
<path d="M6327 31242
L6411 31271
L6552 31271
L6608 31242
L6636 31214
L6664 31158
L6664 31102
L6636 31046
L6608 31017
L6552 30989
L6439 30961
L6383 30933
L6355 30905
L6327 30849
L6327 30793
L6355 30736
L6383 30708
L6439 30680
L6580 30680
L6664 30708
" />
<path d="M6833 30680
L7170 30680
" />
<path d="M7002 31271
L7002 30680
" />
<path d="M7367 30961
L7564 30961
" />
<path d="M7649 31271
L7367 31271
L7367 30680
L7649 30680
" />
<path d="M8352 31271
L8352 30680
L8548 31102
L8745 30680
L8745 31271
" />
<path d="M9026 30680
L9026 31158
L9055 31214
L9083 31242
L9139 31271
L9251 31271
L9308 31242
L9336 31214
L9364 31158
L9364 30680
" />
<path d="M9617 31242
L9701 31271
L9842 31271
L9898 31242
L9926 31214
L9955 31158
L9955 31102
L9926 31046
L9898 31017
L9842 30989
L9730 30961
L9673 30933
L9645 30905
L9617 30849
L9617 30793
L9645 30736
L9673 30708
L9730 30680
L9870 30680
L9955 30708
" />
<path d="M10123 30680
L10461 30680
" />
<path d="M10292 31271
L10292 30680
" />
<path d="M11304 30961
L11389 30989
L11417 31017
L11445 31074
L11445 31158
L11417 31214
L11389 31242
L11332 31271
L11107 31271
L11107 30680
L11304 30680
L11361 30708
L11389 30736
L11417 30793
L11417 30849
L11389 30905
L11361 30933
L11304 30961
L11107 30961
" />
<path d="M11698 30961
L11895 30961
" />
<path d="M11979 31271
L11698 31271
L11698 30680
L11979 30680
" />
<path d="M13020 31271
L12823 30989
" />
<path d="M12682 31271
L12682 30680
L12907 30680
L12964 30708
L12992 30736
L13020 30793
L13020 30877
L12992 30933
L12964 30961
L12907 30989
L12682 30989
" />
<path d="M13385 30680
L13498 30680
L13554 30708
L13610 30764
L13638 30877
L13638 31074
L13610 31186
L13554 31242
L13498 31271
L13385 31271
L13329 31242
L13273 31186
L13245 31074
L13245 30877
L13273 30764
L13329 30708
L13385 30680
" />
<path d="M13892 31271
L13892 30680
" />
<path d="M13892 30961
L14229 30961
" />
<path d="M14229 31271
L14229 30680
" />
<path d="M14482 31242
L14566 31271
L14707 31271
L14763 31242
L14791 31214
L14820 31158
L14820 31102
L14791 31046
L14763 31017
L14707 30989
L14595 30961
L14538 30933
L14510 30905
L14482 30849
L14482 30793
L14510 30736
L14538 30708
L14595 30680
L14735 30680
L14820 30708
" />
<path d="M15860 31214
L15832 31242
L15748 31271
L15691 31271
L15607 31242
L15551 31186
L15523 31130
L15494 31017
L15494 30933
L15523 30821
L15551 30764
L15607 30708
L15691 30680
L15748 30680
L15832 30708
L15860 30736
" />
<path d="M16226 30680
L16338 30680
L16394 30708
L16451 30764
L16479 30877
L16479 31074
L16451 31186
L16394 31242
L16338 31271
L16226 31271
L16169 31242
L16113 31186
L16085 31074
L16085 30877
L16113 30764
L16169 30708
L16226 30680
" />
<path d="M16732 31271
L16732 30680
L16929 31102
L17125 30680
L17125 31271
" />
<path d="M17407 31271
L17407 30680
L17632 30680
L17688 30708
L17716 30736
L17744 30793
L17744 30877
L17716 30933
L17688 30961
L17632 30989
L17407 30989
" />
<path d="M18278 31271
L17997 31271
L17997 30680
" />
<path d="M18475 31271
L18475 30680
" />
<path d="M18728 31102
L19010 31102
" />
<path d="M18672 31271
L18869 30680
L19066 31271
" />
<path d="M19263 31271
L19263 30680
L19600 31271
L19600 30680
" />
<path d="M19797 30680
L20134 30680
" />
<path d="M19966 31271
L19966 30680
" />
<path d="M20950 31496
L20922 31467
L20866 31383
L20838 31327
L20809 31242
L20781 31102
L20781 30989
L20809 30849
L20838 30764
L20866 30708
L20922 30624
L20950 30596
" />
<path d="M21456 31271
L21175 31271
L21175 30680
" />
<path d="M21653 30961
L21850 30961
" />
<path d="M21934 31271
L21653 31271
L21653 30680
L21934 30680
" />
<path d="M22159 31102
L22440 31102
" />
<path d="M22103 31271
L22300 30680
L22497 31271
" />
<path d="M22694 31271
L22694 30680
L22834 30680
L22919 30708
L22975 30764
L23003 30821
L23031 30933
L23031 31017
L23003 31130
L22975 31186
L22919 31242
L22834 31271
L22694 31271
" />
<path d="M23284 31046
L23734 31046
" />
<path d="M24212 30961
L24015 30961
" />
<path d="M24015 31271
L24015 30680
L24296 30680
" />
<path d="M24859 31271
L24662 30989
" />
<path d="M24521 31271
L24521 30680
L24746 30680
L24803 30708
L24831 30736
L24859 30793
L24859 30877
L24831 30933
L24803 30961
L24746 30989
L24521 30989
" />
<path d="M25112 30961
L25309 30961
" />
<path d="M25393 31271
L25112 31271
L25112 30680
L25393 30680
" />
<path d="M25646 30961
L25843 30961
" />
<path d="M25928 31271
L25646 31271
L25646 30680
L25928 30680
" />
<path d="M26124 31496
L26152 31467
L26209 31383
L26237 31327
L26265 31242
L26293 31102
L26293 30989
L26265 30849
L26237 30764
L26209 30708
L26152 30624
L26124 30596
" />
<path d="M84 31684
L478 31684
L224 32275
" />
<path d="M703 32218
L731 32246
L703 32275
L674 32246
L703 32218
L703 32275
" />
<path d="M1434 32275
L1434 31684
L1771 32275
L1771 31684
" />
<path d="M2165 31684
L2277 31684
L2334 31712
L2390 31768
L2418 31881
L2418 32078
L2390 32190
L2334 32246
L2277 32275
L2165 32275
L2109 32246
L2052 32190
L2024 32078
L2024 31881
L2052 31768
L2109 31712
L2165 31684
" />
<path d="M3121 32275
L3121 31684
L3318 32106
L3515 31684
L3515 32275
" />
<path d="M3768 32106
L4049 32106
" />
<path d="M3712 32275
L3908 31684
L4105 32275
" />
<path d="M4640 32275
L4443 31993
" />
<path d="M4302 32275
L4302 31684
L4527 31684
L4583 31712
L4611 31740
L4640 31796
L4640 31881
L4611 31937
L4583 31965
L4527 31993
L4302 31993
" />
<path d="M4893 32275
L4893 31684
" />
<path d="M5230 32275
L4977 31937
" />
<path d="M5230 31684
L4893 32021
" />
<path d="M5455 32246
L5539 32275
L5680 32275
L5736 32246
L5764 32218
L5793 32162
L5793 32106
L5764 32050
L5736 32021
L5680 31993
L5568 31965
L5511 31937
L5483 31909
L5455 31853
L5455 31796
L5483 31740
L5511 31712
L5568 31684
L5708 31684
L5793 31712
" />
<path d="M6664 32500
L6636 32471
L6580 32387
L6552 32331
L6524 32246
L6496 32106
L6496 31993
L6524 31853
L6552 31768
L6580 31712
L6636 31628
L6664 31600
" />
<path d="M6889 31965
L7086 31965
" />
<path d="M7170 32275
L6889 32275
L6889 31684
L7170 31684
" />
<path d="M7424 32050
L7874 32050
" />
<path d="M8070 31684
L8408 31684
" />
<path d="M8239 32275
L8239 31684
" />
<path d="M8605 31965
L8802 31965
" />
<path d="M8886 32275
L8605 32275
L8605 31684
L8886 31684
" />
<path d="M9111 32246
L9195 32275
L9336 32275
L9392 32246
L9420 32218
L9448 32162
L9448 32106
L9420 32050
L9392 32021
L9336 31993
L9223 31965
L9167 31937
L9139 31909
L9111 31853
L9111 31796
L9139 31740
L9167 31712
L9223 31684
L9364 31684
L9448 31712
" />
<path d="M9617 31684
L9955 31684
" />
<path d="M9786 32275
L9786 31684
" />
<path d="M10179 32246
L10179 32275
L10151 32331
L10123 32359
" />
<path d="M11276 32331
L11220 32303
L11164 32246
L11079 32162
L11023 32134
L10967 32134
" />
<path d="M10995 32275
L10939 32246
L10883 32190
L10854 32078
L10854 31881
L10883 31768
L10939 31712
L10995 31684
L11107 31684
L11164 31712
L11220 31768
L11248 31881
L11248 32078
L11220 32190
L11164 32246
L11107 32275
L10995 32275
" />
<path d="M11473 32106
L11754 32106
" />
<path d="M11417 32275
L11614 31684
L11811 32275
" />
<path d="M12035 32246
L12035 32275
L12007 32331
L11979 32359
" />
<path d="M12710 32246
L12795 32275
L12935 32275
L12992 32246
L13020 32218
L13048 32162
L13048 32106
L13020 32050
L12992 32021
L12935 31993
L12823 31965
L12767 31937
L12739 31909
L12710 31853
L12710 31796
L12739 31740
L12767 31712
L12823 31684
L12964 31684
L13048 31712
" />
<path d="M13301 31965
L13498 31965
" />
<path d="M13582 32275
L13301 32275
L13301 31684
L13582 31684
" />
<path d="M14173 32275
L13976 31993
" />
<path d="M13835 32275
L13835 31684
L14060 31684
L14116 31712
L14145 31740
L14173 31796
L14173 31881
L14145 31937
L14116 31965
L14060 31993
L13835 31993
" />
<path d="M14426 32275
L14426 31684
" />
<path d="M14679 32106
L14960 32106
" />
<path d="M14623 32275
L14820 31684
L15016 32275
" />
<path d="M15494 32275
L15213 32275
L15213 31684
" />
<path d="M16141 32275
L16141 31684
L16479 32275
L16479 31684
" />
<path d="M16760 31684
L16760 32162
L16788 32218
L16816 32246
L16872 32275
L16985 32275
L17041 32246
L17069 32218
L17097 32162
L17097 31684
" />
<path d="M17379 32275
L17379 31684
L17575 32106
L17772 31684
L17772 32275
" />
<path d="M18250 31965
L18335 31993
L18363 32021
L18391 32078
L18391 32162
L18363 32218
L18335 32246
L18278 32275
L18053 32275
L18053 31684
L18250 31684
L18307 31712
L18335 31740
L18363 31796
L18363 31853
L18335 31909
L18307 31937
L18250 31965
L18053 31965
" />
<path d="M18644 31965
L18841 31965
" />
<path d="M18925 32275
L18644 32275
L18644 31684
L18925 31684
" />
<path d="M19516 32275
L19319 31993
" />
<path d="M19178 32275
L19178 31684
L19403 31684
L19460 31712
L19488 31740
L19516 31796
L19516 31881
L19488 31937
L19460 31965
L19403 31993
L19178 31993
" />
<path d="M19797 32246
L19797 32275
L19769 32331
L19741 32359
" />
<path d="M20500 31965
L20697 31965
" />
<path d="M20781 32275
L20500 32275
L20500 31684
L20781 31684
" />
<path d="M20950 31684
L21287 31684
" />
<path d="M21119 32275
L21119 31684
" />
<path d="M21822 32218
L21794 32246
L21709 32275
L21653 32275
L21569 32246
L21512 32190
L21484 32134
L21456 32021
L21456 31937
L21484 31825
L21512 31768
L21569 31712
L21653 31684
L21709 31684
L21794 31712
L21822 31740
" />
<path d="M22019 32500
L22047 32471
L22103 32387
L22131 32331
L22159 32246
L22187 32106
L22187 31993
L22159 31853
L22131 31768
L22103 31712
L22047 31628
L22019 31600
" />
<path d="M23031 31684
L23143 31684
L23200 31712
L23256 31768
L23284 31881
L23284 32078
L23256 32190
L23200 32246
L23143 32275
L23031 32275
L22975 32246
L22919 32190
L22890 32078
L22890 31881
L22919 31768
L22975 31712
L23031 31684
" />
<path d="M23537 32275
L23537 31684
L23875 32275
L23875 31684
" />
<path d="M24803 31965
L24606 31965
" />
<path d="M24606 32275
L24606 31684
L24887 31684
" />
<path d="M25449 32275
L25253 31993
" />
<path d="M25112 32275
L25112 31684
L25337 31684
L25393 31712
L25421 31740
L25449 31796
L25449 31881
L25421 31937
L25393 31965
L25337 31993
L25112 31993
" />
<path d="M25815 31684
L25928 31684
L25984 31712
L26040 31768
L26068 31881
L26068 32078
L26040 32190
L25984 32246
L25928 32275
L25815 32275
L25759 32246
L25703 32190
L25674 32078
L25674 31881
L25703 31768
L25759 31712
L25815 31684
" />
<path d="M26321 32275
L26321 31684
L26659 32275
L26659 31684
" />
<path d="M26856 31684
L27193 31684
" />
<path d="M27024 32275
L27024 31684
" />
<path d="M28008 32500
L27980 32471
L27924 32387
L27896 32331
L27868 32246
L27840 32106
L27840 31993
L27868 31853
L27896 31768
L27924 31712
L27980 31628
L28008 31600
" />
<path d="M28515 32275
L28233 32275
L28233 31684
" />
<path d="M28824 31684
L28937 31684
L28993 31712
L29049 31768
L29077 31881
L29077 32078
L29049 32190
L28993 32246
L28937 32275
L28824 32275
L28768 32246
L28712 32190
L28683 32078
L28683 31881
L28712 31768
L28768 31712
L28824 31684
" />
<path d="M29640 31712
L29583 31684
L29499 31684
L29415 31712
L29358 31768
L29330 31825
L29302 31937
L29302 32021
L29330 32134
L29358 32190
L29415 32246
L29499 32275
L29555 32275
L29640 32246
L29668 32218
L29668 32021
L29555 32021
" />
<path d="M30033 31684
L30146 31684
L30202 31712
L30258 31768
L30286 31881
L30286 32078
L30258 32190
L30202 32246
L30146 32275
L30033 32275
L29977 32246
L29921 32190
L29893 32078
L29893 31881
L29921 31768
L29977 31712
L30033 31684
" />
<path d="M30961 32246
L31046 32275
L31186 32275
L31242 32246
L31271 32218
L31299 32162
L31299 32106
L31271 32050
L31242 32021
L31186 31993
L31074 31965
L31017 31937
L30989 31909
L30961 31853
L30961 31796
L30989 31740
L31017 31712
L31074 31684
L31214 31684
L31299 31712
" />
<path d="M31552 32275
L31552 31684
" />
<path d="M31833 32275
L31833 31684
L31974 31684
L32058 31712
L32114 31768
L32142 31825
L32170 31937
L32170 32021
L32142 32134
L32114 32190
L32058 32246
L31974 32275
L31833 32275
" />
<path d="M32424 31965
L32620 31965
" />
<path d="M32705 32275
L32424 32275
L32424 31684
L32705 31684
" />
<path d="M32902 32500
L32930 32471
L32986 32387
L33014 32331
L33042 32246
L33070 32106
L33070 31993
L33042 31853
L33014 31768
L32986 31712
L32930 31628
L32902 31600
" />
<path d="M33914 31684
L34026 31684
L34083 31712
L34139 31768
L34167 31881
L34167 32078
L34139 32190
L34083 32246
L34026 32275
L33914 32275
L33858 32246
L33802 32190
L33773 32078
L33773 31881
L33802 31768
L33858 31712
L33914 31684
" />
<path d="M34617 31965
L34420 31965
" />
<path d="M34420 32275
L34420 31684
L34701 31684
" />
<path d="M35573 31965
L35658 31993
L35686 32021
L35714 32078
L35714 32162
L35686 32218
L35658 32246
L35601 32275
L35376 32275
L35376 31684
L35573 31684
L35629 31712
L35658 31740
L35686 31796
L35686 31853
L35658 31909
L35629 31937
L35573 31965
L35376 31965
" />
<path d="M36079 31684
L36192 31684
L36248 31712
L36304 31768
L36332 31881
L36332 32078
L36304 32190
L36248 32246
L36192 32275
L36079 32275
L36023 32246
L35967 32190
L35939 32078
L35939 31881
L35967 31768
L36023 31712
L36079 31684
" />
<path d="M36557 32106
L36839 32106
" />
<path d="M36501 32275
L36698 31684
L36895 32275
" />
<path d="M37429 32275
L37232 31993
" />
<path d="M37092 32275
L37092 31684
L37317 31684
L37373 31712
L37401 31740
L37429 31796
L37429 31881
L37401 31937
L37373 31965
L37317 31993
L37092 31993
" />
<path d="M37682 32275
L37682 31684
L37823 31684
L37907 31712
L37964 31768
L37992 31825
L38020 31937
L38020 32021
L37992 32134
L37964 32190
L37907 32246
L37823 32275
L37682 32275
" />
<path d="M224 32941
L168 32913
L140 32885
L112 32829
L112 32800
L140 32744
L168 32716
L224 32688
L337 32688
L393 32716
L421 32744
L449 32800
L449 32829
L421 32885
L393 32913
L337 32941
L224 32941
L168 32969
L140 32997
L112 33053
L112 33166
L140 33222
L168 33250
L224 33278
L337 33278
L393 33250
L421 33222
L449 33166
L449 33053
L421 32997
L393 32969
L337 32941
" />
<path d="M703 33222
L731 33250
L703 33278
L674 33250
L703 33222
L703 33278
" />
<path d="M1631 32969
L1715 32997
L1743 33025
L1771 33082
L1771 33166
L1743 33222
L1715 33250
L1659 33278
L1434 33278
L1434 32688
L1631 32688
L1687 32716
L1715 32744
L1743 32800
L1743 32857
L1715 32913
L1687 32941
L1631 32969
L1434 32969
" />
<path d="M2137 32688
L2249 32688
L2305 32716
L2362 32772
L2390 32885
L2390 33082
L2362 33194
L2305 33250
L2249 33278
L2137 33278
L2080 33250
L2024 33194
L1996 33082
L1996 32885
L2024 32772
L2080 32716
L2137 32688
" />
<path d="M2615 33110
L2896 33110
" />
<path d="M2559 33278
L2755 32688
L2952 33278
" />
<path d="M3487 33278
L3290 32997
" />
<path d="M3149 33278
L3149 32688
L3374 32688
L3430 32716
L3458 32744
L3487 32800
L3487 32885
L3458 32941
L3430 32969
L3374 32997
L3149 32997
" />
<path d="M3740 33278
L3740 32688
L3880 32688
L3965 32716
L4021 32772
L4049 32829
L4077 32941
L4077 33025
L4049 33138
L4021 33194
L3965 33250
L3880 33278
L3740 33278
" />
<path d="M4302 33250
L4386 33278
L4527 33278
L4583 33250
L4611 33222
L4640 33166
L4640 33110
L4611 33053
L4583 33025
L4527 32997
L4415 32969
L4358 32941
L4330 32913
L4302 32857
L4302 32800
L4330 32744
L4358 32716
L4415 32688
L4555 32688
L4640 32716
" />
<path d="M5258 32688
L5596 32688
" />
<path d="M5427 33278
L5427 32688
" />
<path d="M5905 32688
L6017 32688
L6074 32716
L6130 32772
L6158 32885
L6158 33082
L6130 33194
L6074 33250
L6017 33278
L5905 33278
L5849 33250
L5793 33194
L5764 33082
L5764 32885
L5793 32772
L5849 32716
L5905 32688
" />
<path d="M7058 32969
L7142 32997
L7170 33025
L7199 33082
L7199 33166
L7170 33222
L7142 33250
L7086 33278
L6861 33278
L6861 32688
L7058 32688
L7114 32716
L7142 32744
L7170 32800
L7170 32857
L7142 32913
L7114 32941
L7058 32969
L6861 32969
" />
<path d="M7452 32969
L7649 32969
" />
<path d="M7733 33278
L7452 33278
L7452 32688
L7733 32688
" />
<path d="M8408 33250
L8492 33278
L8633 33278
L8689 33250
L8717 33222
L8745 33166
L8745 33110
L8717 33053
L8689 33025
L8633 32997
L8520 32969
L8464 32941
L8436 32913
L8408 32857
L8408 32800
L8436 32744
L8464 32716
L8520 32688
L8661 32688
L8745 32716
" />
<path d="M8998 33278
L8998 32688
" />
<path d="M8998 32969
L9336 32969
" />
<path d="M9336 33278
L9336 32688
" />
<path d="M9617 33278
L9617 32688
" />
<path d="M9898 33278
L9898 32688
L10123 32688
L10179 32716
L10208 32744
L10236 32800
L10236 32885
L10208 32941
L10179 32969
L10123 32997
L9898 32997
" />
<path d="M10489 33278
L10489 32688
L10714 32688
L10770 32716
L10798 32744
L10826 32800
L10826 32885
L10798 32941
L10770 32969
L10714 32997
L10489 32997
" />
<path d="M11079 32969
L11276 32969
" />
<path d="M11361 33278
L11079 33278
L11079 32688
L11361 32688
" />
<path d="M11614 33278
L11614 32688
L11754 32688
L11839 32716
L11895 32772
L11923 32829
L11951 32941
L11951 33025
L11923 33138
L11895 33194
L11839 33250
L11754 33278
L11614 33278
" />
<path d="M12654 33278
L12654 32688
" />
<path d="M12935 33278
L12935 32688
L13273 33278
L13273 32688
" />
<path d="M14341 33222
L14313 33250
L14229 33278
L14173 33278
L14088 33250
L14032 33194
L14004 33138
L13976 33025
L13976 32941
L14004 32829
L14032 32772
L14088 32716
L14173 32688
L14229 32688
L14313 32716
L14341 32744
" />
<path d="M14595 32688
L14595 33166
L14623 33222
L14651 33250
L14707 33278
L14820 33278
L14876 33250
L14904 33222
L14932 33166
L14932 32688
" />
<path d="M15185 33250
L15269 33278
L15410 33278
L15466 33250
L15494 33222
L15523 33166
L15523 33110
L15494 33053
L15466 33025
L15410 32997
L15298 32969
L15241 32941
L15213 32913
L15185 32857
L15185 32800
L15213 32744
L15241 32716
L15298 32688
L15438 32688
L15523 32716
" />
<path d="M15691 32688
L16029 32688
" />
<path d="M15860 33278
L15860 32688
" />
<path d="M16338 32688
L16451 32688
L16507 32716
L16563 32772
L16591 32885
L16591 33082
L16563 33194
L16507 33250
L16451 33278
L16338 33278
L16282 33250
L16226 33194
L16197 33082
L16197 32885
L16226 32772
L16282 32716
L16338 32688
" />
<path d="M16844 33278
L16844 32688
L17041 33110
L17238 32688
L17238 33278
" />
<path d="M17519 32969
L17716 32969
" />
<path d="M17800 33278
L17519 33278
L17519 32688
L17800 32688
" />
<path d="M18391 33278
L18194 32997
" />
<path d="M18053 33278
L18053 32688
L18278 32688
L18335 32716
L18363 32744
L18391 32800
L18391 32885
L18363 32941
L18335 32969
L18278 32997
L18053 32997
" />
<path d="M18644 33053
L19094 33053
" />
<path d="M19347 33250
L19431 33278
L19572 33278
L19628 33250
L19656 33222
L19685 33166
L19685 33110
L19656 33053
L19628 33025
L19572 32997
L19460 32969
L19403 32941
L19375 32913
L19347 32857
L19347 32800
L19375 32744
L19403 32716
L19460 32688
L19600 32688
L19685 32716
" />
<path d="M19938 32688
L19938 33166
L19966 33222
L19994 33250
L20050 33278
L20163 33278
L20219 33250
L20247 33222
L20275 33166
L20275 32688
" />
<path d="M20556 33278
L20556 32688
L20781 32688
L20838 32716
L20866 32744
L20894 32800
L20894 32885
L20866 32941
L20838 32969
L20781 32997
L20556 32997
" />
<path d="M21147 33278
L21147 32688
L21372 32688
L21428 32716
L21456 32744
L21484 32800
L21484 32885
L21456 32941
L21428 32969
L21372 32997
L21147 32997
" />
<path d="M22019 33278
L21737 33278
L21737 32688
" />
<path d="M22215 33278
L22215 32688
" />
<path d="M22497 32969
L22694 32969
" />
<path d="M22778 33278
L22497 33278
L22497 32688
L22778 32688
" />
<path d="M23031 33278
L23031 32688
L23172 32688
L23256 32716
L23312 32772
L23340 32829
L23368 32941
L23368 33025
L23340 33138
L23312 33194
L23256 33250
L23172 33278
L23031 33278
" />
<path d="M24268 32969
L24071 32969
" />
<path d="M24071 33278
L24071 32688
L24353 32688
" />
<path d="M24690 32688
L24803 32688
L24859 32716
L24915 32772
L24943 32885
L24943 33082
L24915 33194
L24859 33250
L24803 33278
L24690 33278
L24634 33250
L24578 33194
L24550 33082
L24550 32885
L24578 32772
L24634 32716
L24690 32688
" />
<path d="M25168 33110
L25449 33110
" />
<path d="M25112 33278
L25309 32688
L25506 33278
" />
<path d="M25703 33278
L25703 32688
L25899 33110
L26096 32688
L26096 33278
" />
<path d="M26743 32688
L27080 32688
" />
<path d="M26912 33278
L26912 32688
" />
<path d="M27615 33278
L27418 32997
" />
<path d="M27277 33278
L27277 32688
L27502 32688
L27559 32716
L27587 32744
L27615 32800
L27615 32885
L27587 32941
L27559 32969
L27502 32997
L27277 32997
" />
<path d="M27840 33110
L28121 33110
" />
<path d="M27784 33278
L27980 32688
L28177 33278
" />
<path d="M28487 32997
L28487 33278
" />
<path d="M28290 32688
L28487 32997
L28683 32688
" />
<path d="M28852 33250
L28937 33278
L29077 33278
L29133 33250
L29161 33222
L29190 33166
L29190 33110
L29161 33053
L29133 33025
L29077 32997
L28965 32969
L28908 32941
L28880 32913
L28852 32857
L28852 32800
L28880 32744
L28908 32716
L28965 32688
L29105 32688
L29190 32716
" />
</g>
<g style="fill:#484800; fill-opacity:0.0; 
stroke:#484800; stroke-width:78.7402; stroke-opacity:1; 
stroke-linecap:round; stroke-linejoin:round;">
<path d="M6779 15039
L6385 15039
" />
<path d="M6385 15433
L6385 15039
" />
<path d="M6385 15039
L6385 15433
" />
<path d="M11503 20157
L6385 15039
" />
<path d="M19377 20157
L11503 20157
" />
</g>
<g style="fill:#484800; fill-opacity:0.0; 
stroke:#484800; stroke-width:118.11; stroke-opacity:1; 
stroke-linecap:round; stroke-linejoin:round;">
<path d="M13261 18685
L13233 18713
L13149 18741
L13092 18741
L13008 18713
L12952 18657
L12924 18600
L12895 18488
L12895 18404
L12924 18291
L12952 18235
L13008 18179
L13092 18151
L13149 18151
L13233 18179
L13261 18207
" />
<path d="M13627 18151
L13739 18151
L13795 18179
L13852 18235
L13880 18347
L13880 18544
L13852 18657
L13795 18713
L13739 18741
L13627 18741
L13570 18713
L13514 18657
L13486 18544
L13486 18347
L13514 18235
L13570 18179
L13627 18151
" />
<path d="M14133 18741
L14133 18151
L14330 18572
L14526 18151
L14526 18741
" />
<path d="M14808 18741
L14808 18151
L15033 18151
L15089 18179
L15117 18207
L15145 18263
L15145 18347
L15117 18404
L15089 18432
L15033 18460
L14808 18460
" />
<path d="M15511 18151
L15623 18151
L15679 18179
L15736 18235
L15764 18347
L15764 18544
L15736 18657
L15679 18713
L15623 18741
L15511 18741
L15455 18713
L15398 18657
L15370 18544
L15370 18347
L15398 18235
L15455 18179
L15511 18151
" />
<path d="M16017 18741
L16017 18151
L16354 18741
L16354 18151
" />
<path d="M16636 18432
L16832 18432
" />
<path d="M16917 18741
L16636 18741
L16636 18151
L16917 18151
" />
<path d="M17170 18741
L17170 18151
L17507 18741
L17507 18151
" />
<path d="M17704 18151
L18042 18151
" />
<path d="M17873 18741
L17873 18151
" />
<path d="M11855 19745
L11855 19154
L12080 19154
L12136 19183
L12164 19211
L12192 19267
L12192 19351
L12164 19408
L12136 19436
L12080 19464
L11855 19464
" />
<path d="M12558 19154
L12670 19154
L12727 19183
L12783 19239
L12811 19351
L12811 19548
L12783 19661
L12727 19717
L12670 19745
L12558 19745
L12502 19717
L12446 19661
L12417 19548
L12417 19351
L12446 19239
L12502 19183
L12558 19154
" />
<path d="M13036 19717
L13120 19745
L13261 19745
L13317 19717
L13345 19689
L13374 19633
L13374 19576
L13345 19520
L13317 19492
L13261 19464
L13149 19436
L13092 19408
L13064 19379
L13036 19323
L13036 19267
L13064 19211
L13092 19183
L13149 19154
L13289 19154
L13374 19183
" />
<path d="M13627 19745
L13627 19154
" />
<path d="M13823 19154
L14161 19154
" />
<path d="M13992 19745
L13992 19154
" />
<path d="M14358 19745
L14358 19154
" />
<path d="M14751 19154
L14864 19154
L14920 19183
L14976 19239
L15005 19351
L15005 19548
L14976 19661
L14920 19717
L14864 19745
L14751 19745
L14695 19717
L14639 19661
L14611 19548
L14611 19351
L14639 19239
L14695 19183
L14751 19154
" />
<path d="M15258 19745
L15258 19154
L15595 19745
L15595 19154
" />
<path d="M16439 19154
L16551 19154
L16607 19183
L16664 19239
L16692 19351
L16692 19548
L16664 19661
L16607 19717
L16551 19745
L16439 19745
L16383 19717
L16326 19661
L16298 19548
L16298 19351
L16326 19239
L16383 19183
L16439 19154
" />
<path d="M17282 19745
L17086 19464
" />
<path d="M16945 19745
L16945 19154
L17170 19154
L17226 19183
L17254 19211
L17282 19267
L17282 19351
L17254 19408
L17226 19436
L17170 19464
L16945 19464
" />
<path d="M17535 19745
L17535 19154
" />
<path d="M18126 19183
L18070 19154
L17985 19154
L17901 19183
L17845 19239
L17817 19295
L17789 19408
L17789 19492
L17817 19604
L17845 19661
L17901 19717
L17985 19745
L18042 19745
L18126 19717
L18154 19689
L18154 19492
L18042 19492
" />
<path d="M18407 19745
L18407 19154
" />
<path d="M18688 19745
L18688 19154
L19026 19745
L19026 19154
" />
</g>
<g style="fill:#484800; fill-opacity:0.0; 
stroke:#484800; stroke-width:78.7402; stroke-opacity:1; 
stroke-linecap:round; stroke-linejoin:round;">
<path d="M14653 11692
L15047 12086
" />
<path d="M14653 11692
L14259 12086
" />
<path d="M14653 14251
L14653 11692
" />
<path d="M18000 17598
L14653 14251
" />
<path d="M28826 17598
L18000 17598
" />
</g>
<g style="fill:#484800; fill-opacity:0.0; 
stroke:#484800; stroke-width:118.11; stroke-opacity:1; 
stroke-linecap:round; stroke-linejoin:round;">
<path d="M18885 16182
L18688 15901
" />
<path d="M18548 16182
L18548 15591
L18773 15591
L18829 15620
L18857 15648
L18885 15704
L18885 15788
L18857 15845
L18829 15873
L18773 15901
L18548 15901
" />
<path d="M19251 15591
L19363 15591
L19420 15620
L19476 15676
L19504 15788
L19504 15985
L19476 16098
L19420 16154
L19363 16182
L19251 16182
L19195 16154
L19138 16098
L19110 15985
L19110 15788
L19138 15676
L19195 15620
L19251 15591
" />
<path d="M19757 15591
L19757 16070
L19785 16126
L19813 16154
L19870 16182
L19982 16182
L20038 16154
L20066 16126
L20095 16070
L20095 15591
" />
<path d="M20291 15591
L20629 15591
" />
<path d="M20460 16182
L20460 15591
" />
<path d="M20826 15873
L21023 15873
" />
<path d="M21107 16182
L20826 16182
L20826 15591
L21107 15591
" />
<path d="M22007 15873
L22091 15901
L22119 15929
L22147 15985
L22147 16070
L22119 16126
L22091 16154
L22035 16182
L21810 16182
L21810 15591
L22007 15591
L22063 15620
L22091 15648
L22119 15704
L22119 15760
L22091 15816
L22063 15845
L22007 15873
L21810 15873
" />
<path d="M22513 15591
L22625 15591
L22682 15620
L22738 15676
L22766 15788
L22766 15985
L22738 16098
L22682 16154
L22625 16182
L22513 16182
L22457 16154
L22401 16098
L22372 15985
L22372 15788
L22401 15676
L22457 15620
L22513 15591
" />
<path d="M22991 16013
L23272 16013
" />
<path d="M22935 16182
L23132 15591
L23329 16182
" />
<path d="M23863 16182
L23666 15901
" />
<path d="M23525 16182
L23525 15591
L23750 15591
L23807 15620
L23835 15648
L23863 15704
L23863 15788
L23835 15845
L23807 15873
L23750 15901
L23525 15901
" />
<path d="M24116 16182
L24116 15591
L24257 15591
L24341 15620
L24397 15676
L24425 15732
L24453 15845
L24453 15929
L24425 16041
L24397 16098
L24341 16154
L24257 16182
L24116 16182
" />
<path d="M25269 15591
L25381 15591
L25438 15620
L25494 15676
L25522 15788
L25522 15985
L25494 16098
L25438 16154
L25381 16182
L25269 16182
L25213 16154
L25156 16098
L25128 15985
L25128 15788
L25156 15676
L25213 15620
L25269 15591
" />
<path d="M25775 15591
L25775 16070
L25803 16126
L25831 16154
L25888 16182
L26000 16182
L26056 16154
L26084 16126
L26113 16070
L26113 15591
" />
<path d="M26309 15591
L26647 15591
" />
<path d="M26478 16182
L26478 15591
" />
<path d="M27125 16182
L26844 16182
L26844 15591
" />
<path d="M27322 16182
L27322 15591
" />
<path d="M27603 16182
L27603 15591
L27940 16182
L27940 15591
" />
<path d="M28222 15873
L28419 15873
" />
<path d="M28503 16182
L28222 16182
L28222 15591
L28503 15591
" />
<path d="M18464 16877
L18660 16877
" />
<path d="M18745 17186
L18464 17186
L18464 16595
L18745 16595
" />
<path d="M18942 16595
L19335 17186
" />
<path d="M19335 16595
L18942 17186
" />
<path d="M19898 17130
L19870 17158
L19785 17186
L19729 17186
L19645 17158
L19588 17102
L19560 17045
L19532 16933
L19532 16848
L19560 16736
L19588 16680
L19645 16624
L19729 16595
L19785 16595
L19870 16624
L19898 16652
" />
<path d="M20151 16877
L20348 16877
" />
<path d="M20432 17186
L20151 17186
L20151 16595
L20432 16595
" />
<path d="M20685 17186
L20685 16595
L20910 16595
L20966 16624
L20994 16652
L21023 16708
L21023 16792
L20994 16848
L20966 16877
L20910 16905
L20685 16905
" />
<path d="M21191 16595
L21529 16595
" />
<path d="M21360 17186
L21360 16595
" />
<path d="M22372 16877
L22176 16877
" />
<path d="M22176 17186
L22176 16595
L22457 16595
" />
<path d="M22794 16595
L22907 16595
L22963 16624
L23019 16680
L23047 16792
L23047 16989
L23019 17102
L22963 17158
L22907 17186
L22794 17186
L22738 17158
L22682 17102
L22654 16989
L22654 16792
L22682 16680
L22738 16624
L22794 16595
" />
<path d="M23638 17186
L23441 16905
" />
<path d="M23300 17186
L23300 16595
L23525 16595
L23582 16624
L23610 16652
L23638 16708
L23638 16792
L23610 16848
L23582 16877
L23525 16905
L23300 16905
" />
<path d="M24257 16595
L24594 16595
" />
<path d="M24425 17186
L24425 16595
" />
<path d="M24735 16595
L24875 17186
L24988 16764
L25100 17186
L25241 16595
" />
<path d="M25578 16595
L25691 16595
L25747 16624
L25803 16680
L25831 16792
L25831 16989
L25803 17102
L25747 17158
L25691 17186
L25578 17186
L25522 17158
L25466 17102
L25438 16989
L25438 16792
L25466 16680
L25522 16624
L25578 16595
" />
<path d="M26534 16877
L26731 16877
" />
<path d="M26816 17186
L26534 17186
L26534 16595
L26816 16595
" />
<path d="M27069 17186
L27069 16595
L27406 17186
L27406 16595
" />
<path d="M27687 17186
L27687 16595
L27828 16595
L27912 16624
L27969 16680
L27997 16736
L28025 16848
L28025 16933
L27997 17045
L27969 17102
L27912 17158
L27828 17186
L27687 17186
" />
<path d="M28250 17158
L28334 17186
L28475 17186
L28531 17158
L28559 17130
L28587 17073
L28587 17017
L28559 16961
L28531 16933
L28475 16905
L28362 16877
L28306 16848
L28278 16820
L28250 16764
L28250 16708
L28278 16652
L28306 16624
L28362 16595
L28503 16595
L28587 16624
" />
</g>
<g style="fill:#484800; fill-opacity:0.0; 
stroke:#484800; stroke-width:78.7402; stroke-opacity:1; 
stroke-linecap:round; stroke-linejoin:round;">
<path d="M5401 8346
L5007 8346
" />
<path d="M5401 8346
L5401 7952
" />
<path d="M4614 7559
L5401 8346
" />
<path d="M4614 5984
L4614 7559
" />
<path d="M9535 1062
L4614 5984
" />
<path d="M24889 10118
L25283 10118
" />
<path d="M24889 10118
L24889 9724
" />
<path d="M24889 10118
L24889 10118
" />
<path d="M26267 8740
L24889 10118
" />
<path d="M26267 5393
L26267 8740
" />
<path d="M21937 1062
L26267 5393
" />
<path d="M9535 1062
L21937 1062
" />
</g>
<g style="fill:#484800; fill-opacity:0.0; 
stroke:#484800; stroke-width:118.11; stroke-opacity:1; 
stroke-linecap:round; stroke-linejoin:round;">
<path d="M10140 149
L10336 739
L10533 149
" />
<path d="M10730 514
L11180 514
" />
<path d="M11433 711
L11517 739
L11658 739
L11714 711
L11742 683
L11771 627
L11771 570
L11742 514
L11714 486
L11658 458
L11546 430
L11489 402
L11461 374
L11433 317
L11433 261
L11461 205
L11489 177
L11546 149
L11686 149
L11771 177
" />
<path d="M12361 683
L12333 711
L12249 739
L12192 739
L12108 711
L12052 655
L12024 598
L11996 486
L11996 402
L12024 289
L12052 233
L12108 177
L12192 149
L12249 149
L12333 177
L12361 205
" />
<path d="M12727 149
L12839 149
L12895 177
L12952 233
L12980 345
L12980 542
L12952 655
L12895 711
L12839 739
L12727 739
L12670 711
L12614 655
L12586 542
L12586 345
L12614 233
L12670 177
L12727 149
" />
<path d="M13570 739
L13374 458
" />
<path d="M13233 739
L13233 149
L13458 149
L13514 177
L13542 205
L13570 261
L13570 345
L13542 402
L13514 430
L13458 458
L13233 458
" />
<path d="M13823 430
L14020 430
" />
<path d="M14105 739
L13823 739
L13823 149
L14105 149
" />
<path d="M14808 739
L14808 149
L15033 149
L15089 177
L15117 205
L15145 261
L15145 345
L15117 402
L15089 430
L15033 458
L14808 458
" />
<path d="M15370 570
L15651 570
" />
<path d="M15314 739
L15511 149
L15708 739
" />
<path d="M16242 739
L16045 458
" />
<path d="M15904 739
L15904 149
L16129 149
L16186 177
L16214 205
L16242 261
L16242 345
L16214 402
L16186 430
L16129 458
L15904 458
" />
<path d="M16467 570
L16748 570
" />
<path d="M16411 739
L16607 149
L16804 739
" />
<path d="M17282 739
L17001 739
L17001 149
" />
<path d="M17760 739
L17479 739
L17479 149
" />
<path d="M17957 430
L18154 430
" />
<path d="M18239 739
L17957 739
L17957 149
L18239 149
" />
<path d="M18773 739
L18492 739
L18492 149
" />
<path d="M19420 430
L19616 430
" />
<path d="M19701 739
L19420 739
L19420 149
L19701 149
" />
<path d="M19954 739
L19954 149
L20291 739
L20291 149
" />
<path d="M20573 739
L20573 149
L20713 149
L20798 177
L20854 233
L20882 289
L20910 402
L20910 486
L20882 598
L20854 655
L20798 711
L20713 739
L20573 739
" />
<path d="M21135 711
L21219 739
L21360 739
L21416 711
L21444 683
L21473 627
L21473 570
L21444 514
L21416 486
L21360 458
L21248 430
L21191 402
L21163 374
L21135 317
L21135 261
L21163 205
L21191 177
L21248 149
L21388 149
L21473 177
" />
</g>
<g style="fill:#484800; fill-opacity:0.0; 
stroke:#484800; stroke-width:59.0551; stroke-opacity:1; 
stroke-linecap:round; stroke-linejoin:round;">
<path d="M23051 8494
L22912 8633
" />
<path d="M22772 8216
L23051 8494
" />
<path d="M22633 8355
L22772 8216
" />
<path d="M22912 8633
L22633 8355
" />
<path d="M22912 12625
L23051 12765
" />
<path d="M22633 12904
L22912 12625
" />
<path d="M22772 13043
L22633 12904
" />
<path d="M23051 12765
L22772 13043
" />
<path d="M17309 10021
L17365 10040
L17459 10040
L17497 10021
L17515 10002
L17534 9965
L17534 9927
L17515 9890
L17497 9871
L17459 9852
L17384 9834
L17347 9815
L17328 9796
L17309 9759
L17309 9721
L17328 9684
L17347 9665
L17384 9646
L17478 9646
L17534 9665
" />
<path d="M17665 9646
L17759 10040
L17834 9759
L17909 10040
L18003 9646
" />
<path d="M18359 10040
L18134 10040
" />
<path d="M18247 10040
L18247 9646
L18209 9702
L18172 9740
L18134 9759
" />
<path d="M6873 9213
L6873 9532
L6892 9569
L6910 9588
L6948 9607
L7023 9607
L7060 9588
L7079 9569
L7098 9532
L7098 9213
" />
<path d="M7491 9607
L7266 9607
" />
<path d="M7379 9607
L7379 9213
L7341 9269
L7304 9307
L7266 9326
" />
<path d="M19868 11084
L19925 11103
L20018 11103
L20056 11084
L20074 11065
L20093 11028
L20093 10990
L20074 10953
L20056 10934
L20018 10915
L19943 10897
L19906 10878
L19887 10859
L19868 10822
L19868 10784
L19887 10747
L19906 10728
L19943 10709
L20037 10709
L20093 10728
" />
<path d="M20224 10709
L20318 11103
L20393 10822
L20468 11103
L20562 10709
" />
<path d="M20693 10747
L20712 10728
L20749 10709
L20843 10709
L20881 10728
L20899 10747
L20918 10784
L20918 10822
L20899 10878
L20674 11103
L20918 11103
" />
<path d="M22818 8089
L23096 7811
L23162 7877
L23189 7930
L23189 7983
L23176 8023
L23136 8089
L23096 8129
L23030 8169
L22990 8182
L22937 8182
L22884 8156
L22818 8089
" />
<path d="M23242 8513
L23083 8354
" />
<path d="M23162 8434
L23441 8156
L23374 8169
L23321 8169
L23282 8156
" />
<path d="M23030 13421
L22752 13143
L22818 13077
L22871 13050
L22924 13050
L22964 13064
L23030 13103
L23070 13143
L23110 13209
L23123 13249
L23123 13302
L23096 13355
L23030 13421
" />
<path d="M23043 12904
L23043 12878
L23057 12838
L23123 12772
L23163 12759
L23189 12759
L23229 12772
L23256 12798
L23282 12851
L23282 13170
L23454 12997
" />
</g>
<g style="fill:#000000; fill-opacity:0.0; 
stroke:#000000; stroke-width:59.0551; stroke-opacity:1; 
stroke-linecap:round; stroke-linejoin:round;">
</g>
<g style="fill:#C2C200; fill-opacity:0.0; 
stroke:#C2C200; stroke-width:59.0551; stroke-opacity:1; 
stroke-linecap:round; stroke-linejoin:round;">
</g>
<g style="fill:#C2C200; fill-opacity:0.0; 
stroke:#C2C200; stroke-width:39.3701; stroke-opacity:1; 
stroke-linecap:round; stroke-linejoin:round;">
<path d="M21582 14094
L21850 14235
" />
<path d="M21316 13956
L21582 14094
" />
<path d="M21053 13821
L21316 13956
" />
<path d="M20793 13688
L21053 13821
" />
<path d="M20536 13559
L20793 13688
" />
<path d="M20281 13432
L20536 13559
" />
<path d="M20029 13308
L20281 13432
" />
<path d="M19780 13187
L20029 13308
" />
<path d="M19532 13069
L19780 13187
" />
<path d="M19287 12954
L19532 13069
" />
<path d="M19043 12841
L19287 12954
" />
<path d="M18802 12730
L19043 12841
" />
<path d="M18563 12623
L18802 12730
" />
<path d="M18325 12517
L18563 12623
" />
<path d="M18089 12415
L18325 12517
" />
<path d="M17854 12314
L18089 12415
" />
<path d="M17621 12217
L17854 12314
" />
<path d="M17389 12121
L17621 12217
" />
<path d="M17158 12028
L17389 12121
" />
<path d="M16928 11938
L17158 12028
" />
<path d="M16699 11850
L16928 11938
" />
<path d="M16471 11764
L16699 11850
" />
<path d="M16244 11680
L16471 11764
" />
<path d="M16017 11598
L16244 11680
" />
<path d="M15791 11519
L16017 11598
" />
<path d="M15566 11441
L15791 11519
" />
<path d="M15340 11366
L15566 11441
" />
<path d="M15115 11293
L15340 11366
" />
<path d="M14890 11222
L15115 11293
" />
<path d="M14665 11153
L14890 11222
" />
<path d="M14439 11086
L14665 11153
" />
<path d="M14214 11020
L14439 11086
" />
<path d="M13988 10957
L14214 11020
" />
<path d="M13762 10895
L13988 10957
" />
<path d="M13535 10836
L13762 10895
" />
<path d="M13307 10778
L13535 10836
" />
<path d="M13079 10721
L13307 10778
" />
<path d="M12849 10667
L13079 10721
" />
<path d="M12619 10614
L12849 10667
" />
<path d="M12387 10563
L12619 10614
" />
<path d="M12155 10513
L12387 10563
" />
<path d="M11921 10465
L12155 10513
" />
<path d="M11685 10418
L11921 10465
" />
<path d="M11448 10373
L11685 10418
" />
<path d="M11209 10330
L11448 10373
" />
<path d="M10969 10288
L11209 10330
" />
<path d="M10726 10247
L10969 10288
" />
<path d="M10482 10207
L10726 10247
" />
<path d="M10235 10169
L10482 10207
" />
<path d="M9987 10132
L10235 10169
" />
<path d="M9736 10097
L9987 10132
" />
<path d="M9482 10062
L9736 10097
" />
<path d="M9226 10029
L9482 10062
" />
<path d="M8967 9997
L9226 10029
" />
<path d="M8706 9966
L8967 9997
" />
<path d="M8441 9936
L8706 9966
" />
<path d="M8174 9907
L8441 9936
" />
<path d="M7904 9879
L8174 9907
" />
<path d="M7630 9852
L7904 9879
" />
<path d="M7353 9826
L7630 9852
" />
<path d="M7073 9801
L7353 9826
" />
<path d="M6789 9777
L7073 9801
" />
<path d="M6501 9753
L6789 9777
" />
<path d="M6210 9731
L6501 9753
" />
<path d="M6172 9726
L6210 9731
" />
<path d="M6136 9719
L6172 9726
" />
<path d="M6104 9708
L6136 9719
" />
<path d="M6074 9695
L6104 9708
" />
<path d="M6046 9680
L6074 9695
" />
<path d="M6021 9663
L6046 9680
" />
<path d="M5999 9644
L6021 9663
" />
<path d="M5979 9623
L5999 9644
" />
<path d="M5962 9601
L5979 9623
" />
<path d="M5947 9577
L5962 9601
" />
<path d="M5934 9553
L5947 9577
" />
<path d="M5924 9527
L5934 9553
" />
<path d="M5916 9501
L5924 9527
" />
<path d="M5911 9475
L5916 9501
" />
<path d="M5907 9449
L5911 9475
" />
<path d="M5906 9422
L5907 9449
" />
<path d="M5906 9337
L5906 9422
" />
<path d="M5906 9251
L5906 9337
" />
<path d="M5906 9165
L5906 9251
" />
<path d="M5906 9080
L5906 9165
" />
<path d="M5906 8994
L5906 9080
" />
<path d="M5906 8909
L5906 8994
" />
<path d="M5906 8823
L5906 8909
" />
<path d="M5906 8737
L5906 8823
" />
<path d="M5906 8652
L5906 8737
" />
<path d="M5906 8566
L5906 8652
" />
<path d="M5906 8480
L5906 8566
" />
<path d="M5906 8395
L5906 8480
" />
<path d="M5906 8309
L5906 8395
" />
<path d="M5906 8223
L5906 8309
" />
<path d="M5906 8138
L5906 8223
" />
<path d="M5906 8052
L5906 8138
" />
<path d="M5907 8032
L5906 8052
" />
<path d="M5910 8011
L5907 8032
" />
<path d="M5914 7990
L5910 8011
" />
<path d="M5920 7968
L5914 7990
" />
<path d="M5928 7946
L5920 7968
" />
<path d="M5938 7924
L5928 7946
" />
<path d="M5950 7902
L5938 7924
" />
<path d="M5965 7880
L5950 7902
" />
<path d="M5982 7859
L5965 7880
" />
<path d="M6001 7839
L5982 7859
" />
<path d="M6024 7819
L6001 7839
" />
<path d="M6049 7801
L6024 7819
" />
<path d="M6078 7785
L6049 7801
" />
<path d="M6109 7770
L6078 7785
" />
<path d="M6144 7757
L6109 7770
" />
<path d="M6182 7746
L6144 7757
" />
<path d="M6473 7674
L6182 7746
" />
<path d="M6760 7604
L6473 7674
" />
<path d="M7043 7537
L6760 7604
" />
<path d="M7323 7472
L7043 7537
" />
<path d="M7600 7408
L7323 7472
" />
<path d="M7874 7347
L7600 7408
" />
<path d="M8144 7288
L7874 7347
" />
<path d="M8411 7231
L8144 7288
" />
<path d="M8675 7176
L8411 7231
" />
<path d="M8936 7123
L8675 7176
" />
<path d="M9195 7072
L8936 7123
" />
<path d="M9451 7023
L9195 7072
" />
<path d="M9704 6976
L9451 7023
" />
<path d="M9955 6932
L9704 6976
" />
<path d="M10204 6889
L9955 6932
" />
<path d="M10450 6848
L10204 6889
" />
<path d="M10695 6809
L10450 6848
" />
<path d="M10937 6772
L10695 6809
" />
<path d="M11178 6737
L10937 6772
" />
<path d="M11417 6704
L11178 6737
" />
<path d="M11654 6672
L11417 6704
" />
<path d="M11889 6643
L11654 6672
" />
<path d="M12124 6616
L11889 6643
" />
<path d="M12357 6590
L12124 6616
" />
<path d="M12588 6567
L12357 6590
" />
<path d="M12819 6545
L12588 6567
" />
<path d="M13048 6525
L12819 6545
" />
<path d="M13277 6507
L13048 6525
" />
<path d="M13505 6491
L13277 6507
" />
<path d="M13732 6477
L13505 6491
" />
<path d="M13959 6464
L13732 6477
" />
<path d="M14185 6454
L13959 6464
" />
<path d="M14411 6445
L14185 6454
" />
<path d="M14637 6438
L14411 6445
" />
<path d="M14863 6433
L14637 6438
" />
<path d="M15088 6429
L14863 6433
" />
<path d="M15314 6428
L15088 6429
" />
<path d="M15540 6428
L15314 6428
" />
<path d="M15766 6430
L15540 6428
" />
<path d="M15993 6433
L15766 6430
" />
<path d="M16220 6438
L15993 6433
" />
<path d="M16448 6446
L16220 6438
" />
<path d="M16677 6454
L16448 6446
" />
<path d="M16906 6465
L16677 6454
" />
<path d="M17137 6477
L16906 6465
" />
<path d="M17368 6491
L17137 6477
" />
<path d="M17601 6506
L17368 6491
" />
<path d="M17835 6523
L17601 6506
" />
<path d="M18071 6542
L17835 6523
" />
<path d="M18308 6562
L18071 6542
" />
<path d="M18547 6585
L18308 6562
" />
<path d="M18787 6608
L18547 6585
" />
<path d="M19029 6634
L18787 6608
" />
<path d="M19274 6660
L19029 6634
" />
<path d="M19520 6689
L19274 6660
" />
<path d="M19769 6719
L19520 6689
" />
<path d="M20019 6751
L19769 6719
" />
<path d="M20273 6784
L20019 6751
" />
<path d="M20528 6819
L20273 6784
" />
<path d="M20787 6855
L20528 6819
" />
<path d="M21048 6893
L20787 6855
" />
<path d="M21312 6932
L21048 6893
" />
<path d="M21579 6973
L21312 6932
" />
<path d="M21849 7015
L21579 6973
" />
<path d="M24312 9480
L21849 7015
" />
<path d="M24312 11775
L24312 9480
" />
<path d="M21850 14235
L24312 11775
" />
</g> 
</svg>
