<?xml version="1.0" standalone="no"?>
 <!DOCTYPE svg PUBLIC "-//W3C//DTD SVG 1.1//EN" 
 "http://www.w3.org/Graphics/SVG/1.1/DTD/svg11.dtd"> 
<svg xmlns="http://www.w3.org/2000/svg" version="1.1" 
    width="9.68502cm" height="7.874cm" viewBox="0 0 38130 31000 ">
<title>SVG Picture created as NeuroBytes_Photoreceptor-brd.svg date 2017/09/06 15:05:19 </title>
  <desc>Picture generated by PCBNEW </desc>
<g style="fill:#000000; fill-opacity:1;stroke:#000000; stroke-opacity:1;
stroke-linecap:round; stroke-linejoin:round; "
 transform="translate(0 0) scale(1 1)">
</g>
<g style="fill:#000000; fill-opacity:0.0; 
stroke:#000000; stroke-width:-0.000393701; stroke-opacity:1; 
stroke-linecap:round; stroke-linejoin:round;">
</g>
<g style="fill:#000000; fill-opacity:0.0; 
stroke:#000000; stroke-width:66.9291; stroke-opacity:1; 
stroke-linecap:round; stroke-linejoin:round;">
<path d="M24170 8817
L24055 8359
L24230 8315
L24279 8326
L24306 8343
L24339 8381
L24355 8446
L24345 8495
L24328 8523
L24290 8555
L24115 8599
" />
<path d="M24601 8223
L24688 8201
L24738 8212
L24792 8245
L24836 8327
L24874 8479
L24874 8572
L24841 8627
L24803 8659
L24715 8681
L24666 8670
L24612 8638
L24568 8556
L24530 8403
L24530 8310
L24563 8256
L24601 8223
" />
<path d="M24950 8136
L25174 8567
L25180 8218
L25349 8523
L25343 8038
" />
<path d="M25572 8213
L25725 8174
" />
<path d="M25851 8398
L25632 8453
L25518 7994
L25736 7940
" />
<path d="M26309 8284
L26102 8104
" />
<path d="M26047 8349
L25933 7891
L26107 7847
L26156 7858
L26184 7875
L26216 7913
L26233 7978
L26222 8027
L26205 8055
L26167 8087
L25993 8131
" />
</g>
<g style="fill:#000000; fill-opacity:0.0; 
stroke:#000000; stroke-width:59.0551; stroke-opacity:1; 
stroke-linecap:round; stroke-linejoin:round;">
<path d="M17144 14103
L18202 13045
" />
<path d="M18202 13045
L15891 10735
" />
<path d="M15891 10735
L14833 11792
" />
<path d="M14833 11792
L17144 14103
" />
</g>
<g style="fill:#000000; fill-opacity:0.0; 
stroke:#000000; stroke-width:39.3701; stroke-opacity:1; 
stroke-linecap:round; stroke-linejoin:round;">
<circle cx="18346.5" cy="9724.41" r="98.4252" /> 
<path d="M18444 11397
L18444 9822
" />
<path d="M20019 11397
L18444 11397
" />
<path d="M20019 9822
L20019 11397
" />
<path d="M18444 9822
L20019 9822
" />
</g>
<g style="fill:#000000; fill-opacity:0.0; 
stroke:#000000; stroke-width:59.0551; stroke-opacity:1; 
stroke-linecap:round; stroke-linejoin:round;">
<path d="M14833 9466
L15891 10524
" />
<path d="M15891 10524
L18202 8214
" />
<path d="M18202 8214
L17144 7156
" />
<path d="M17144 7156
L14833 9466
" />
<path d="M27612 10222
L27250 8770
" />
<path d="M27250 8770
L23602 9680
" />
<path d="M23602 9680
L23964 11131
" />
<path d="M23964 11131
L27612 10222
" />
</g>
<g style="fill:#000000; fill-opacity:1.0; 
stroke:#000000; stroke-width:0; stroke-opacity:1; 
stroke-linecap:round; stroke-linejoin:round;">
<circle cx="27185.1" cy="8149.61" r="590.551" /> 
</g>
<g style="fill:#000000; fill-opacity:1.0; 
stroke:#000000; stroke-width:39.3701; stroke-opacity:1; 
stroke-linecap:round; stroke-linejoin:round;">
</g>
<g style="fill:#000000; fill-opacity:1.0; 
stroke:#000000; stroke-width:0; stroke-opacity:1; 
stroke-linecap:round; stroke-linejoin:round;">
<polyline style="fill-rule:evenodd;"
points="17513,11604
17039,12078
17206,12245
17680,11772
17513,11604
" /> 
<polyline style="fill-rule:evenodd;"
points="17861,11952
17387,12426
17554,12593
18028,12120
17861,11952
" /> 
<polyline style="fill-rule:evenodd;"
points="17165,11257
16691,11730
16858,11897
17332,11424
17165,11257
" /> 
<polyline style="fill-rule:evenodd;"
points="16817,10909
16343,11382
16510,11549
16984,11076
16817,10909
" /> 
<polyline style="fill-rule:evenodd;"
points="17631,13143
16879,13894
17158,14173
17909,13421
17631,13143
" /> 
<polyline style="fill-rule:evenodd;"
points="15515,11027
14763,11778
15042,12057
15793,11305
15515,11027
" /> 
<polyline style="fill-rule:evenodd;"
points="17775,10708
17775,10511
17460,10511
17460,10708
17775,10708
" /> 
<polyline style="fill-rule:evenodd;"
points="17303,10708
17303,10511
16988,10511
16988,10708
17303,10708
" /> 
<circle cx="18641.8" cy="8149.61" r="590.551" /> 
</g>
<g style="fill:#000000; fill-opacity:1.0; 
stroke:#000000; stroke-width:39.3701; stroke-opacity:1; 
stroke-linecap:round; stroke-linejoin:round;">
</g>
<g style="fill:#000000; fill-opacity:1.0; 
stroke:#000000; stroke-width:0; stroke-opacity:1; 
stroke-linecap:round; stroke-linejoin:round;">
<polyline style="fill-rule:evenodd;"
points="18110,10078
18464,10078
18464,9960
18110,9960
18110,10078
" /> 
<polyline style="fill-rule:evenodd;"
points="18110,10275
18582,10275
18582,10157
18110,10157
18110,10275
" /> 
<polyline style="fill-rule:evenodd;"
points="18110,10472
18582,10472
18582,10354
18110,10354
18110,10472
" /> 
<polyline style="fill-rule:evenodd;"
points="18110,10669
18582,10669
18582,10551
18110,10551
18110,10669
" /> 
<polyline style="fill-rule:evenodd;"
points="18110,10866
18582,10866
18582,10748
18110,10748
18110,10866
" /> 
<polyline style="fill-rule:evenodd;"
points="18110,11062
18582,11062
18582,10944
18110,10944
18110,11062
" /> 
<polyline style="fill-rule:evenodd;"
points="18110,11259
18464,11259
18464,11141
18110,11141
18110,11259
" /> 
<polyline style="fill-rule:evenodd;"
points="18700,11732
18700,11377
18582,11377
18582,11732
18700,11732
" /> 
<polyline style="fill-rule:evenodd;"
points="18897,11732
18897,11259
18779,11259
18779,11732
18897,11732
" /> 
<polyline style="fill-rule:evenodd;"
points="19094,11732
19094,11259
18976,11259
18976,11732
19094,11732
" /> 
<polyline style="fill-rule:evenodd;"
points="19291,11732
19291,11259
19173,11259
19173,11732
19291,11732
" /> 
<polyline style="fill-rule:evenodd;"
points="19488,11732
19488,11259
19370,11259
19370,11732
19488,11732
" /> 
<polyline style="fill-rule:evenodd;"
points="19685,11732
19685,11259
19567,11259
19567,11732
19685,11732
" /> 
<polyline style="fill-rule:evenodd;"
points="19881,11732
19881,11377
19763,11377
19763,11732
19881,11732
" /> 
<polyline style="fill-rule:evenodd;"
points="20000,11259
20354,11259
20354,11141
20000,11141
20000,11259
" /> 
<polyline style="fill-rule:evenodd;"
points="19881,11062
20354,11062
20354,10944
19881,10944
19881,11062
" /> 
<polyline style="fill-rule:evenodd;"
points="19881,10866
20354,10866
20354,10748
19881,10748
19881,10866
" /> 
<polyline style="fill-rule:evenodd;"
points="19881,10669
20354,10669
20354,10551
19881,10551
19881,10669
" /> 
<polyline style="fill-rule:evenodd;"
points="19881,10472
20354,10472
20354,10354
19881,10354
19881,10472
" /> 
<polyline style="fill-rule:evenodd;"
points="19881,10275
20354,10275
20354,10157
19881,10157
19881,10275
" /> 
<polyline style="fill-rule:evenodd;"
points="20000,10078
20354,10078
20354,9960
20000,9960
20000,10078
" /> 
<polyline style="fill-rule:evenodd;"
points="19881,9842
19881,9488
19763,9488
19763,9842
19881,9842
" /> 
<polyline style="fill-rule:evenodd;"
points="19685,9960
19685,9488
19567,9488
19567,9960
19685,9960
" /> 
<polyline style="fill-rule:evenodd;"
points="19488,9960
19488,9488
19370,9488
19370,9960
19488,9960
" /> 
<polyline style="fill-rule:evenodd;"
points="19291,9960
19291,9488
19173,9488
19173,9960
19291,9960
" /> 
<polyline style="fill-rule:evenodd;"
points="19094,9960
19094,9488
18976,9488
18976,9960
19094,9960
" /> 
<polyline style="fill-rule:evenodd;"
points="18897,9960
18897,9488
18779,9488
18779,9960
18897,9960
" /> 
<polyline style="fill-rule:evenodd;"
points="18700,9842
18700,9488
18582,9488
18582,9842
18700,9842
" /> 
<polyline style="fill-rule:evenodd;"
points="18287,10078
18602,10078
18484,9960
18405,9960
18287,10078
" /> 
<polyline style="fill-rule:evenodd;"
points="18700,9980
18700,9665
18582,9783
18582,9862
18700,9980
" /> 
<polyline style="fill-rule:evenodd;"
points="19763,11240
19763,11555
19881,11437
19881,11358
19763,11240
" /> 
<polyline style="fill-rule:evenodd;"
points="20177,11141
19862,11141
19980,11259
20059,11259
20177,11141
" /> 
<polyline style="fill-rule:evenodd;"
points="18602,11141
18287,11141
18405,11259
18484,11259
18602,11141
" /> 
<polyline style="fill-rule:evenodd;"
points="18700,11555
18700,11240
18582,11358
18582,11437
18700,11555
" /> 
<polyline style="fill-rule:evenodd;"
points="19862,10078
20177,10078
20059,9960
19980,9960
19862,10078
" /> 
<polyline style="fill-rule:evenodd;"
points="19763,9665
19763,9980
19881,9862
19881,9783
19763,9665
" /> 
<polyline style="fill-rule:evenodd;"
points="29941,8169
29941,7972
29626,7972
29626,8169
29941,8169
" /> 
<polyline style="fill-rule:evenodd;"
points="29468,8169
29468,7972
29153,7972
29153,8169
29468,8169
" /> 
<polyline style="fill-rule:evenodd;"
points="29941,9468
29941,9271
29626,9271
29626,9468
29941,9468
" /> 
<polyline style="fill-rule:evenodd;"
points="29468,9468
29468,9271
29153,9271
29153,9468
29468,9468
" /> 
<polyline style="fill-rule:evenodd;"
points="30137,8976
30137,8503
29744,8503
29744,8976
30137,8976
" /> 
<polyline style="fill-rule:evenodd;"
points="29350,8976
29350,8503
28956,8503
28956,8976
29350,8976
" /> 
<polyline style="fill-rule:evenodd;"
points="22913,8346
22441,8346
22441,8740
22913,8740
22913,8346
" /> 
<polyline style="fill-rule:evenodd;"
points="22913,9133
22441,9133
22441,9527
22913,9527
22913,9133
" /> 
<polyline style="fill-rule:evenodd;"
points="21673,8248
21673,8720
21909,8720
21909,8248
21673,8248
" /> 
<polyline style="fill-rule:evenodd;"
points="22047,8248
22047,8720
22283,8720
22283,8248
22047,8248
" /> 
<polyline style="fill-rule:evenodd;"
points="21299,8248
21299,8720
21535,8720
21535,8248
21299,8248
" /> 
<polyline style="fill-rule:evenodd;"
points="21299,9153
21299,9625
21535,9625
21535,9153
21299,9153
" /> 
<polyline style="fill-rule:evenodd;"
points="22047,9153
22047,9625
22283,9625
22283,9153
22047,9153
" /> 
<polyline style="fill-rule:evenodd;"
points="20669,9527
21141,9527
21141,9133
20669,9133
20669,9527
" /> 
<polyline style="fill-rule:evenodd;"
points="20669,8740
21141,8740
21141,8346
20669,8346
20669,8740
" /> 
<polyline style="fill-rule:evenodd;"
points="18039,8628
17900,8767
18122,8990
18262,8851
18039,8628
" /> 
<polyline style="fill-rule:evenodd;"
points="18373,8962
18234,9101
18456,9324
18596,9185
18373,8962
" /> 
<polyline style="fill-rule:evenodd;"
points="17624,9775
17763,9914
17986,9692
17847,9553
17624,9775
" /> 
<polyline style="fill-rule:evenodd;"
points="17958,9441
18097,9580
18320,9358
18181,9218
17958,9441
" /> 
<polyline style="fill-rule:evenodd;"
points="17900,12492
18039,12631
18262,12408
18122,12269
17900,12492
" /> 
<polyline style="fill-rule:evenodd;"
points="18234,12158
18373,12297
18596,12074
18456,11935
18234,12158
" /> 
<polyline style="fill-rule:evenodd;"
points="20984,9842
20787,9842
20787,10157
20984,10157
20984,9842
" /> 
<polyline style="fill-rule:evenodd;"
points="20984,10314
20787,10314
20787,10629
20984,10629
20984,10314
" /> 
<polyline style="fill-rule:evenodd;"
points="28454,7893
27962,7893
27962,8602
28454,8602
28454,7893
" /> 
<polyline style="fill-rule:evenodd;"
points="28454,8917
27962,8917
27962,9625
28454,9625
28454,8917
" /> 
<polyline style="fill-rule:evenodd;"
points="17332,9835
16858,9362
16691,9529
17165,10002
17332,9835
" /> 
<polyline style="fill-rule:evenodd;"
points="16984,10183
16510,9710
16343,9877
16817,10350
16984,10183
" /> 
<polyline style="fill-rule:evenodd;"
points="17680,9487
17206,9014
17039,9181
17513,9654
17680,9487
" /> 
<polyline style="fill-rule:evenodd;"
points="18028,9139
17554,8666
17387,8833
17861,9306
18028,9139
" /> 
<polyline style="fill-rule:evenodd;"
points="15793,9954
15042,9202
14763,9480
15515,10232
15793,9954
" /> 
<polyline style="fill-rule:evenodd;"
points="17909,7838
17158,7086
16879,7365
17631,8116
17909,7838
" /> 
<polyline style="fill-rule:evenodd;"
points="25183,8738
25345,9387
25574,9330
25412,8681
25183,8738
" /> 
<polyline style="fill-rule:evenodd;"
points="25661,8619
25823,9268
26052,9211
25890,8562
25661,8619
" /> 
<polyline style="fill-rule:evenodd;"
points="24706,8857
24868,9506
25097,9449
24935,8800
24706,8857
" /> 
<polyline style="fill-rule:evenodd;"
points="24228,8976
24390,9625
24619,9568
24457,8919
24228,8976
" /> 
<polyline style="fill-rule:evenodd;"
points="27069,9302
27326,10334
27708,10239
27451,9207
27069,9302
" /> 
<polyline style="fill-rule:evenodd;"
points="23631,10160
23888,11191
24270,11096
24013,10064
23631,10160
" /> 
<polyline style="fill-rule:evenodd;"
points="26367,8443
26138,8500
26300,9149
26529,9092
26367,8443
" /> 
<circle cx="27185.1" cy="8149.61" r="196.85" /> 
</g>
<g style="fill:#000000; fill-opacity:1.0; 
stroke:#000000; stroke-width:39.3701; stroke-opacity:1; 
stroke-linecap:round; stroke-linejoin:round;">
</g>
<g style="fill:#000000; fill-opacity:1.0; 
stroke:#000000; stroke-width:0; stroke-opacity:1; 
stroke-linecap:round; stroke-linejoin:round;">
<polyline style="fill-rule:evenodd;"
points="17513,11604
17039,12078
17206,12245
17680,11772
17513,11604
" /> 
<polyline style="fill-rule:evenodd;"
points="17861,11952
17387,12426
17554,12593
18028,12120
17861,11952
" /> 
<polyline style="fill-rule:evenodd;"
points="17165,11257
16691,11730
16858,11897
17332,11424
17165,11257
" /> 
<polyline style="fill-rule:evenodd;"
points="16817,10909
16343,11382
16510,11549
16984,11076
16817,10909
" /> 
<polyline style="fill-rule:evenodd;"
points="17631,13143
16879,13894
17158,14173
17909,13421
17631,13143
" /> 
<polyline style="fill-rule:evenodd;"
points="15515,11027
14763,11778
15042,12057
15793,11305
15515,11027
" /> 
<polyline style="fill-rule:evenodd;"
points="17775,10708
17775,10511
17460,10511
17460,10708
17775,10708
" /> 
<polyline style="fill-rule:evenodd;"
points="17303,10708
17303,10511
16988,10511
16988,10708
17303,10708
" /> 
<circle cx="18641.8" cy="8149.61" r="196.85" /> 
</g>
<g style="fill:#000000; fill-opacity:1.0; 
stroke:#000000; stroke-width:39.3701; stroke-opacity:1; 
stroke-linecap:round; stroke-linejoin:round;">
</g>
<g style="fill:#000000; fill-opacity:1.0; 
stroke:#000000; stroke-width:0; stroke-opacity:1; 
stroke-linecap:round; stroke-linejoin:round;">
<polyline style="fill-rule:evenodd;"
points="18110,10078
18464,10078
18464,9960
18110,9960
18110,10078
" /> 
<polyline style="fill-rule:evenodd;"
points="18110,10275
18582,10275
18582,10157
18110,10157
18110,10275
" /> 
<polyline style="fill-rule:evenodd;"
points="18110,10472
18582,10472
18582,10354
18110,10354
18110,10472
" /> 
<polyline style="fill-rule:evenodd;"
points="18110,10669
18582,10669
18582,10551
18110,10551
18110,10669
" /> 
<polyline style="fill-rule:evenodd;"
points="18110,10866
18582,10866
18582,10748
18110,10748
18110,10866
" /> 
<polyline style="fill-rule:evenodd;"
points="18110,11062
18582,11062
18582,10944
18110,10944
18110,11062
" /> 
<polyline style="fill-rule:evenodd;"
points="18110,11259
18464,11259
18464,11141
18110,11141
18110,11259
" /> 
<polyline style="fill-rule:evenodd;"
points="18700,11732
18700,11377
18582,11377
18582,11732
18700,11732
" /> 
<polyline style="fill-rule:evenodd;"
points="18897,11732
18897,11259
18779,11259
18779,11732
18897,11732
" /> 
<polyline style="fill-rule:evenodd;"
points="19094,11732
19094,11259
18976,11259
18976,11732
19094,11732
" /> 
<polyline style="fill-rule:evenodd;"
points="19291,11732
19291,11259
19173,11259
19173,11732
19291,11732
" /> 
<polyline style="fill-rule:evenodd;"
points="19488,11732
19488,11259
19370,11259
19370,11732
19488,11732
" /> 
<polyline style="fill-rule:evenodd;"
points="19685,11732
19685,11259
19567,11259
19567,11732
19685,11732
" /> 
<polyline style="fill-rule:evenodd;"
points="19881,11732
19881,11377
19763,11377
19763,11732
19881,11732
" /> 
<polyline style="fill-rule:evenodd;"
points="20000,11259
20354,11259
20354,11141
20000,11141
20000,11259
" /> 
<polyline style="fill-rule:evenodd;"
points="19881,11062
20354,11062
20354,10944
19881,10944
19881,11062
" /> 
<polyline style="fill-rule:evenodd;"
points="19881,10866
20354,10866
20354,10748
19881,10748
19881,10866
" /> 
<polyline style="fill-rule:evenodd;"
points="19881,10669
20354,10669
20354,10551
19881,10551
19881,10669
" /> 
<polyline style="fill-rule:evenodd;"
points="19881,10472
20354,10472
20354,10354
19881,10354
19881,10472
" /> 
<polyline style="fill-rule:evenodd;"
points="19881,10275
20354,10275
20354,10157
19881,10157
19881,10275
" /> 
<polyline style="fill-rule:evenodd;"
points="20000,10078
20354,10078
20354,9960
20000,9960
20000,10078
" /> 
<polyline style="fill-rule:evenodd;"
points="19881,9842
19881,9488
19763,9488
19763,9842
19881,9842
" /> 
<polyline style="fill-rule:evenodd;"
points="19685,9960
19685,9488
19567,9488
19567,9960
19685,9960
" /> 
<polyline style="fill-rule:evenodd;"
points="19488,9960
19488,9488
19370,9488
19370,9960
19488,9960
" /> 
<polyline style="fill-rule:evenodd;"
points="19291,9960
19291,9488
19173,9488
19173,9960
19291,9960
" /> 
<polyline style="fill-rule:evenodd;"
points="19094,9960
19094,9488
18976,9488
18976,9960
19094,9960
" /> 
<polyline style="fill-rule:evenodd;"
points="18897,9960
18897,9488
18779,9488
18779,9960
18897,9960
" /> 
<polyline style="fill-rule:evenodd;"
points="18700,9842
18700,9488
18582,9488
18582,9842
18700,9842
" /> 
<polyline style="fill-rule:evenodd;"
points="18287,10078
18602,10078
18484,9960
18405,9960
18287,10078
" /> 
<polyline style="fill-rule:evenodd;"
points="18700,9980
18700,9665
18582,9783
18582,9862
18700,9980
" /> 
<polyline style="fill-rule:evenodd;"
points="19763,11240
19763,11555
19881,11437
19881,11358
19763,11240
" /> 
<polyline style="fill-rule:evenodd;"
points="20177,11141
19862,11141
19980,11259
20059,11259
20177,11141
" /> 
<polyline style="fill-rule:evenodd;"
points="18602,11141
18287,11141
18405,11259
18484,11259
18602,11141
" /> 
<polyline style="fill-rule:evenodd;"
points="18700,11555
18700,11240
18582,11358
18582,11437
18700,11555
" /> 
<polyline style="fill-rule:evenodd;"
points="19862,10078
20177,10078
20059,9960
19980,9960
19862,10078
" /> 
<polyline style="fill-rule:evenodd;"
points="19763,9665
19763,9980
19881,9862
19881,9783
19763,9665
" /> 
<polyline style="fill-rule:evenodd;"
points="29941,8169
29941,7972
29626,7972
29626,8169
29941,8169
" /> 
<polyline style="fill-rule:evenodd;"
points="29468,8169
29468,7972
29153,7972
29153,8169
29468,8169
" /> 
<polyline style="fill-rule:evenodd;"
points="29941,9468
29941,9271
29626,9271
29626,9468
29941,9468
" /> 
<polyline style="fill-rule:evenodd;"
points="29468,9468
29468,9271
29153,9271
29153,9468
29468,9468
" /> 
<polyline style="fill-rule:evenodd;"
points="30137,8976
30137,8503
29744,8503
29744,8976
30137,8976
" /> 
<polyline style="fill-rule:evenodd;"
points="29350,8976
29350,8503
28956,8503
28956,8976
29350,8976
" /> 
<polyline style="fill-rule:evenodd;"
points="22913,8346
22441,8346
22441,8740
22913,8740
22913,8346
" /> 
<polyline style="fill-rule:evenodd;"
points="22913,9133
22441,9133
22441,9527
22913,9527
22913,9133
" /> 
<polyline style="fill-rule:evenodd;"
points="21673,8248
21673,8720
21909,8720
21909,8248
21673,8248
" /> 
<polyline style="fill-rule:evenodd;"
points="22047,8248
22047,8720
22283,8720
22283,8248
22047,8248
" /> 
<polyline style="fill-rule:evenodd;"
points="21299,8248
21299,8720
21535,8720
21535,8248
21299,8248
" /> 
<polyline style="fill-rule:evenodd;"
points="21299,9153
21299,9625
21535,9625
21535,9153
21299,9153
" /> 
<polyline style="fill-rule:evenodd;"
points="22047,9153
22047,9625
22283,9625
22283,9153
22047,9153
" /> 
<polyline style="fill-rule:evenodd;"
points="20669,9527
21141,9527
21141,9133
20669,9133
20669,9527
" /> 
<polyline style="fill-rule:evenodd;"
points="20669,8740
21141,8740
21141,8346
20669,8346
20669,8740
" /> 
<polyline style="fill-rule:evenodd;"
points="18039,8628
17900,8767
18122,8990
18262,8851
18039,8628
" /> 
<polyline style="fill-rule:evenodd;"
points="18373,8962
18234,9101
18456,9324
18596,9185
18373,8962
" /> 
<polyline style="fill-rule:evenodd;"
points="17624,9775
17763,9914
17986,9692
17847,9553
17624,9775
" /> 
<polyline style="fill-rule:evenodd;"
points="17958,9441
18097,9580
18320,9358
18181,9218
17958,9441
" /> 
<polyline style="fill-rule:evenodd;"
points="17900,12492
18039,12631
18262,12408
18122,12269
17900,12492
" /> 
<polyline style="fill-rule:evenodd;"
points="18234,12158
18373,12297
18596,12074
18456,11935
18234,12158
" /> 
<polyline style="fill-rule:evenodd;"
points="20984,9842
20787,9842
20787,10157
20984,10157
20984,9842
" /> 
<polyline style="fill-rule:evenodd;"
points="20984,10314
20787,10314
20787,10629
20984,10629
20984,10314
" /> 
<polyline style="fill-rule:evenodd;"
points="28454,7893
27962,7893
27962,8602
28454,8602
28454,7893
" /> 
<polyline style="fill-rule:evenodd;"
points="28454,8917
27962,8917
27962,9625
28454,9625
28454,8917
" /> 
<polyline style="fill-rule:evenodd;"
points="17332,9835
16858,9362
16691,9529
17165,10002
17332,9835
" /> 
<polyline style="fill-rule:evenodd;"
points="16984,10183
16510,9710
16343,9877
16817,10350
16984,10183
" /> 
<polyline style="fill-rule:evenodd;"
points="17680,9487
17206,9014
17039,9181
17513,9654
17680,9487
" /> 
<polyline style="fill-rule:evenodd;"
points="18028,9139
17554,8666
17387,8833
17861,9306
18028,9139
" /> 
<polyline style="fill-rule:evenodd;"
points="15793,9954
15042,9202
14763,9480
15515,10232
15793,9954
" /> 
<polyline style="fill-rule:evenodd;"
points="17909,7838
17158,7086
16879,7365
17631,8116
17909,7838
" /> 
<polyline style="fill-rule:evenodd;"
points="25183,8738
25345,9387
25574,9330
25412,8681
25183,8738
" /> 
<polyline style="fill-rule:evenodd;"
points="25661,8619
25823,9268
26052,9211
25890,8562
25661,8619
" /> 
<polyline style="fill-rule:evenodd;"
points="24706,8857
24868,9506
25097,9449
24935,8800
24706,8857
" /> 
<polyline style="fill-rule:evenodd;"
points="24228,8976
24390,9625
24619,9568
24457,8919
24228,8976
" /> 
<polyline style="fill-rule:evenodd;"
points="27069,9302
27326,10334
27708,10239
27451,9207
27069,9302
" /> 
<polyline style="fill-rule:evenodd;"
points="23631,10160
23888,11191
24270,11096
24013,10064
23631,10160
" /> 
<polyline style="fill-rule:evenodd;"
points="26367,8443
26138,8500
26300,9149
26529,9092
26367,8443
" /> 
<circle cx="19626.1" cy="10807.1" r="118.11" /> 
</g>
<g style="fill:#000000; fill-opacity:1.0; 
stroke:#000000; stroke-width:39.3701; stroke-opacity:1; 
stroke-linecap:round; stroke-linejoin:round;">
</g>
<g style="fill:#000000; fill-opacity:1.0; 
stroke:#000000; stroke-width:0; stroke-opacity:1; 
stroke-linecap:round; stroke-linejoin:round;">
<circle cx="20334.7" cy="8700.79" r="118.11" /> 
</g>
<g style="fill:#000000; fill-opacity:1.0; 
stroke:#000000; stroke-width:39.3701; stroke-opacity:1; 
stroke-linecap:round; stroke-linejoin:round;">
</g>
<g style="fill:#000000; fill-opacity:1.0; 
stroke:#000000; stroke-width:0; stroke-opacity:1; 
stroke-linecap:round; stroke-linejoin:round;">
<circle cx="19515.6" cy="7881.7" r="118.11" /> 
</g>
<g style="fill:#000000; fill-opacity:1.0; 
stroke:#000000; stroke-width:39.3701; stroke-opacity:1; 
stroke-linecap:round; stroke-linejoin:round;">
</g>
<g style="fill:#000000; fill-opacity:1.0; 
stroke:#000000; stroke-width:0; stroke-opacity:1; 
stroke-linecap:round; stroke-linejoin:round;">
<circle cx="31673.3" cy="9015.75" r="118.11" /> 
</g>
<g style="fill:#000000; fill-opacity:1.0; 
stroke:#000000; stroke-width:39.3701; stroke-opacity:1; 
stroke-linecap:round; stroke-linejoin:round;">
</g>
<g style="fill:#000000; fill-opacity:1.0; 
stroke:#000000; stroke-width:0; stroke-opacity:1; 
stroke-linecap:round; stroke-linejoin:round;">
<circle cx="22696.9" cy="10590.6" r="118.11" /> 
</g>
<g style="fill:#000000; fill-opacity:1.0; 
stroke:#000000; stroke-width:39.3701; stroke-opacity:1; 
stroke-linecap:round; stroke-linejoin:round;">
</g>
<g style="fill:#000000; fill-opacity:1.0; 
stroke:#000000; stroke-width:0; stroke-opacity:1; 
stroke-linecap:round; stroke-linejoin:round;">
<circle cx="16437.1" cy="10629.9" r="118.11" /> 
</g>
<g style="fill:#000000; fill-opacity:1.0; 
stroke:#000000; stroke-width:39.3701; stroke-opacity:1; 
stroke-linecap:round; stroke-linejoin:round;">
</g>
<g style="fill:#000000; fill-opacity:1.0; 
stroke:#000000; stroke-width:0; stroke-opacity:1; 
stroke-linecap:round; stroke-linejoin:round;">
<circle cx="22263.9" cy="9960.63" r="118.11" /> 
</g>
<g style="fill:#000000; fill-opacity:1.0; 
stroke:#000000; stroke-width:39.3701; stroke-opacity:1; 
stroke-linecap:round; stroke-linejoin:round;">
</g>
<g style="fill:#000000; fill-opacity:1.0; 
stroke:#000000; stroke-width:0; stroke-opacity:1; 
stroke-linecap:round; stroke-linejoin:round;">
<circle cx="23484.3" cy="8307.09" r="118.11" /> 
</g>
<g style="fill:#000000; fill-opacity:1.0; 
stroke:#000000; stroke-width:39.3701; stroke-opacity:1; 
stroke-linecap:round; stroke-linejoin:round;">
</g>
<g style="fill:#000000; fill-opacity:1.0; 
stroke:#000000; stroke-width:0; stroke-opacity:1; 
stroke-linecap:round; stroke-linejoin:round;">
<circle cx="32342.6" cy="8700.79" r="118.11" /> 
</g>
<g style="fill:#000000; fill-opacity:1.0; 
stroke:#000000; stroke-width:39.3701; stroke-opacity:1; 
stroke-linecap:round; stroke-linejoin:round;">
</g>
<g style="fill:#000000; fill-opacity:1.0; 
stroke:#000000; stroke-width:0; stroke-opacity:1; 
stroke-linecap:round; stroke-linejoin:round;">
<circle cx="22387.1" cy="10851.5" r="118.11" /> 
</g>
<g style="fill:#000000; fill-opacity:1.0; 
stroke:#000000; stroke-width:39.3701; stroke-opacity:1; 
stroke-linecap:round; stroke-linejoin:round;">
</g>
<g style="fill:#000000; fill-opacity:1.0; 
stroke:#000000; stroke-width:0; stroke-opacity:1; 
stroke-linecap:round; stroke-linejoin:round;">
<circle cx="25059.1" cy="9803.15" r="118.11" /> 
</g>
<g style="fill:#000000; fill-opacity:1.0; 
stroke:#000000; stroke-width:39.3701; stroke-opacity:1; 
stroke-linecap:round; stroke-linejoin:round;">
</g>
<g style="fill:#000000; fill-opacity:1.0; 
stroke:#000000; stroke-width:0; stroke-opacity:1; 
stroke-linecap:round; stroke-linejoin:round;">
<circle cx="17815" cy="10866.1" r="118.11" /> 
</g>
<g style="fill:#000000; fill-opacity:1.0; 
stroke:#000000; stroke-width:39.3701; stroke-opacity:1; 
stroke-linecap:round; stroke-linejoin:round;">
</g>
<g style="fill:#000000; fill-opacity:1.0; 
stroke:#000000; stroke-width:0; stroke-opacity:1; 
stroke-linecap:round; stroke-linejoin:round;">
<circle cx="20177.2" cy="12204.7" r="118.11" /> 
</g>
<g style="fill:#000000; fill-opacity:1.0; 
stroke:#000000; stroke-width:39.3701; stroke-opacity:1; 
stroke-linecap:round; stroke-linejoin:round;">
</g>
<g style="fill:#000000; fill-opacity:1.0; 
stroke:#000000; stroke-width:0; stroke-opacity:1; 
stroke-linecap:round; stroke-linejoin:round;">
<circle cx="25649.7" cy="10315" r="118.11" /> 
</g>
<g style="fill:#000000; fill-opacity:1.0; 
stroke:#000000; stroke-width:39.3701; stroke-opacity:1; 
stroke-linecap:round; stroke-linejoin:round;">
</g>
<g style="fill:#000000; fill-opacity:1.0; 
stroke:#000000; stroke-width:0; stroke-opacity:1; 
stroke-linecap:round; stroke-linejoin:round;">
<circle cx="20964.6" cy="10866.1" r="118.11" /> 
</g>
<g style="fill:#000000; fill-opacity:1.0; 
stroke:#000000; stroke-width:39.3701; stroke-opacity:1; 
stroke-linecap:round; stroke-linejoin:round;">
</g>
<g style="fill:#000000; fill-opacity:1.0; 
stroke:#000000; stroke-width:0; stroke-opacity:1; 
stroke-linecap:round; stroke-linejoin:round;">
<circle cx="31673.3" cy="8464.57" r="118.11" /> 
</g>
<g style="fill:#000000; fill-opacity:1.0; 
stroke:#000000; stroke-width:39.3701; stroke-opacity:1; 
stroke-linecap:round; stroke-linejoin:round;">
</g>
<g style="fill:#000000; fill-opacity:1.0; 
stroke:#000000; stroke-width:0; stroke-opacity:1; 
stroke-linecap:round; stroke-linejoin:round;">
<circle cx="16082.8" cy="11378" r="118.11" /> 
</g>
<g style="fill:#000000; fill-opacity:1.0; 
stroke:#000000; stroke-width:39.3701; stroke-opacity:1; 
stroke-linecap:round; stroke-linejoin:round;">
</g>
<g style="fill:#000000; fill-opacity:1.0; 
stroke:#000000; stroke-width:0; stroke-opacity:1; 
stroke-linecap:round; stroke-linejoin:round;">
<circle cx="16082.8" cy="9881.89" r="118.11" /> 
</g>
<g style="fill:#000000; fill-opacity:1.0; 
stroke:#000000; stroke-width:39.3701; stroke-opacity:1; 
stroke-linecap:round; stroke-linejoin:round;">
</g>
<g style="fill:#000000; fill-opacity:1.0; 
stroke:#000000; stroke-width:0; stroke-opacity:1; 
stroke-linecap:round; stroke-linejoin:round;">
<circle cx="20039.4" cy="11535.4" r="118.11" /> 
</g>
<g style="fill:#000000; fill-opacity:1.0; 
stroke:#000000; stroke-width:39.3701; stroke-opacity:1; 
stroke-linecap:round; stroke-linejoin:round;">
</g>
<g style="fill:#000000; fill-opacity:1.0; 
stroke:#000000; stroke-width:0; stroke-opacity:1; 
stroke-linecap:round; stroke-linejoin:round;">
<circle cx="20551.3" cy="10007.9" r="118.11" /> 
</g>
<g style="fill:#000000; fill-opacity:1.0; 
stroke:#000000; stroke-width:39.3701; stroke-opacity:1; 
stroke-linecap:round; stroke-linejoin:round;">
</g>
<g style="fill:#000000; fill-opacity:1.0; 
stroke:#000000; stroke-width:0; stroke-opacity:1; 
stroke-linecap:round; stroke-linejoin:round;">
<circle cx="17657.6" cy="8385.83" r="118.11" /> 
</g>
<g style="fill:#000000; fill-opacity:1.0; 
stroke:#000000; stroke-width:39.3701; stroke-opacity:1; 
stroke-linecap:round; stroke-linejoin:round;">
</g>
<g style="fill:#000000; fill-opacity:1.0; 
stroke:#000000; stroke-width:0; stroke-opacity:1; 
stroke-linecap:round; stroke-linejoin:round;">
<circle cx="17342.6" cy="12677.2" r="118.11" /> 
</g>
<g style="fill:#000000; fill-opacity:1.0; 
stroke:#000000; stroke-width:39.3701; stroke-opacity:1; 
stroke-linecap:round; stroke-linejoin:round;">
</g>
<g style="fill:#000000; fill-opacity:1.0; 
stroke:#000000; stroke-width:78.7402; stroke-opacity:1; 
stroke-linecap:round; stroke-linejoin:round;">
</g>
<g style="fill:#000000; fill-opacity:0.0; 
stroke:#000000; stroke-width:78.7402; stroke-opacity:1; 
stroke-linecap:round; stroke-linejoin:round;">
<path d="M18346 10807
L19586 10807
" />
<path d="M19626 10807
L20118 10807
" />
<path d="M19586 10807
L19626 10807
" />
</g>
<g style="fill:#000000; fill-opacity:0.0; 
stroke:#000000; stroke-width:196.85; stroke-opacity:1; 
stroke-linecap:round; stroke-linejoin:round;">
<path d="M19515 7881
L20287 7110
" />
<path d="M20287 7110
L24649 7110
" />
<path d="M24862 7322
L27450 7322
" />
<path d="M24649 7110
L24862 7322
" />
<path d="M27450 7322
L27893 7765
" />
<path d="M27893 7765
L28248 8120
" />
<path d="M28248 8120
L28248 8228
" />
<path d="M21732 9822
L21004 9822
" />
<path d="M21004 9822
L20905 9724
" />
<path d="M22165 9389
L21732 9822
" />
</g>
<g style="fill:#000000; fill-opacity:0.0; 
stroke:#000000; stroke-width:78.7402; stroke-opacity:1; 
stroke-linecap:round; stroke-linejoin:round;">
<path d="M20885 10000
L20885 10118
" />
<path d="M20885 10118
L20807 10196
" />
<path d="M20807 10196
L20692 10196
" />
<path d="M20692 10196
L20472 10417
" />
<path d="M20472 10417
L20472 10767
" />
<path d="M20472 10767
L20433 10807
" />
</g>
<g style="fill:#000000; fill-opacity:0.0; 
stroke:#000000; stroke-width:196.85; stroke-opacity:1; 
stroke-linecap:round; stroke-linejoin:round;">
<path d="M20905 9724
L20905 9980
" />
<path d="M20905 9980
L20885 10000
" />
</g>
<g style="fill:#000000; fill-opacity:0.0; 
stroke:#000000; stroke-width:78.7402; stroke-opacity:1; 
stroke-linecap:round; stroke-linejoin:round;">
<path d="M29783 9370
L31318 9370
" />
<path d="M31318 9370
L31397 9291
" />
</g>
<g style="fill:#000000; fill-opacity:0.0; 
stroke:#000000; stroke-width:196.85; stroke-opacity:1; 
stroke-linecap:round; stroke-linejoin:round;">
<path d="M20334 8700
L20334 8759
" />
<path d="M20334 8759
L20905 9330
" />
</g>
<g style="fill:#000000; fill-opacity:0.0; 
stroke:#000000; stroke-width:78.7402; stroke-opacity:1; 
stroke-linecap:round; stroke-linejoin:round;">
<path d="M30334 8188
L29842 7696
" />
<path d="M29842 7696
L28671 7696
" />
<path d="M28671 7696
L28248 8120
" />
<path d="M31752 8188
L30334 8188
" />
<path d="M31673 9015
L31948 8740
" />
<path d="M20905 9330
L20866 9330
" />
<path d="M31948 8740
L31948 8385
" />
<path d="M19633 7763
L19515 7881
" />
<path d="M31948 8385
L31752 8188
" />
<path d="M31673 9015
L31397 9291
" />
</g>
<g style="fill:#000000; fill-opacity:0.0; 
stroke:#000000; stroke-width:196.85; stroke-opacity:1; 
stroke-linecap:round; stroke-linejoin:round;">
<path d="M20905 9724
L20905 9330
" />
</g>
<g style="fill:#000000; fill-opacity:0.0; 
stroke:#000000; stroke-width:78.7402; stroke-opacity:1; 
stroke-linecap:round; stroke-linejoin:round;">
<path d="M20433 10807
L20118 10807
" />
</g>
<g style="fill:#000000; fill-opacity:0.0; 
stroke:#000000; stroke-width:196.85; stroke-opacity:1; 
stroke-linecap:round; stroke-linejoin:round;">
<path d="M17394 13658
L17798 13254
" />
<path d="M17798 13254
L18156 13254
" />
<path d="M23484 8307
L23484 8332
" />
<path d="M23484 8332
L24424 9272
" />
</g>
<g style="fill:#000000; fill-opacity:0.0; 
stroke:#000000; stroke-width:78.7402; stroke-opacity:1; 
stroke-linecap:round; stroke-linejoin:round;">
<path d="M20708 10708
L20708 10866
" />
<path d="M20885 10531
L20708 10708
" />
<path d="M20885 10472
L20885 10531
" />
<path d="M20708 10866
L20570 11003
" />
</g>
<g style="fill:#000000; fill-opacity:0.0; 
stroke:#000000; stroke-width:196.85; stroke-opacity:1; 
stroke-linecap:round; stroke-linejoin:round;">
<path d="M21968 10059
L22342 10059
" />
<path d="M22342 10059
L22677 9724
" />
<path d="M22677 9724
L22677 9330
" />
<path d="M22677 9547
L22677 9330
" />
</g>
<g style="fill:#000000; fill-opacity:0.0; 
stroke:#000000; stroke-width:78.7402; stroke-opacity:1; 
stroke-linecap:round; stroke-linejoin:round;">
<path d="M20570 11003
L20433 11003
" />
<path d="M20433 11003
L20118 11003
" />
<path d="M22372 10866
L22387 10851
" />
<path d="M22303 10866
L22372 10866
" />
<path d="M24901 9153
L24901 9645
" />
<path d="M24901 9645
L25059 9803
" />
<path d="M22303 10866
L20177 12204
" />
<path d="M17815 10866
L17618 10669
" />
<path d="M17618 10610
L17618 10669
" />
<path d="M17618 10610
L18346 10610
" />
<path d="M25649 10314
L26942 9021
" />
<path d="M26942 9021
L26948 9021
" />
<path d="M26948 9021
L27874 8759
" />
<path d="M20630 11200
L20964 10866
" />
<path d="M20177 11200
L20630 11200
" />
<path d="M28612 8301
L29059 7854
" />
<path d="M29744 7854
L29783 7893
" />
<path d="M29783 7893
L29783 8070
" />
<path d="M28529 8759
L28612 8677
" />
<path d="M27874 8759
L28529 8759
" />
<path d="M29059 7854
L29744 7854
" />
<path d="M28612 8677
L28612 8301
" />
<path d="M29941 8740
L29941 8228
" />
<path d="M29941 8228
L29783 8070
" />
<path d="M29941 8740
L31397 8740
" />
<path d="M31397 8740
L31673 8464
" />
<path d="M29783 8582
L29941 8740
" />
</g>
<g style="fill:#000000; fill-opacity:0.0; 
stroke:#000000; stroke-width:196.85; stroke-opacity:1; 
stroke-linecap:round; stroke-linejoin:round;">
<path d="M18409 12969
L18484 12894
" />
<path d="M17204 12969
L18409 12969
" />
<path d="M16458 12224
L17204 12969
" />
<path d="M18484 12894
L23051 9982
" />
<path d="M16458 11771
L16458 12224
" />
<path d="M24941 10118
L25396 10118
" />
<path d="M25396 10118
L26334 9180
" />
<path d="M26334 9180
L26334 8796
" />
<path d="M24710 9887
L24941 10118
" />
<path d="M23051 9982
L23145 9887
" />
<path d="M23145 9887
L24710 9887
" />
<path d="M23110 9923
L23145 9887
" />
<path d="M23051 9982
L23110 9923
" />
<path d="M23110 9923
L23110 8937
" />
<path d="M16550 11863
L16458 11771
" />
<path d="M16458 11771
L16082 11395
" />
<path d="M23110 8937
L22716 8543
" />
<path d="M17357 9313
L17093 9048
" />
<path d="M16082 11395
L16082 11377
" />
<path d="M16082 9864
L16082 9881
" />
<path d="M16898 9048
L16082 9864
" />
<path d="M17093 9048
L16898 9048
" />
<path d="M16550 11863
L16745 11863
" />
<path d="M16745 11863
L17009 11598
" />
</g>
<g style="fill:#000000; fill-opacity:0.0; 
stroke:#000000; stroke-width:78.7402; stroke-opacity:1; 
stroke-linecap:round; stroke-linejoin:round;">
<path d="M22165 8484
L22165 8291
" />
<path d="M22165 8291
L22004 8129
" />
<path d="M22004 8129
L21456 8129
" />
<path d="M21456 8129
L21417 8169
" />
<path d="M21417 8169
L21417 8484
" />
</g>
<g style="fill:#000000; fill-opacity:0.0; 
stroke:#000000; stroke-width:196.85; stroke-opacity:1; 
stroke-linecap:round; stroke-linejoin:round;">
<path d="M22677 8543
L22224 8543
" />
<path d="M22224 8543
L22165 8484
" />
<path d="M22716 8543
L22677 8543
" />
</g>
<g style="fill:#000000; fill-opacity:0.0; 
stroke:#000000; stroke-width:78.7402; stroke-opacity:1; 
stroke-linecap:round; stroke-linejoin:round;">
<path d="M20039 11535
L19842 11535
" />
<path d="M19842 11535
L19822 11555
" />
<path d="M19842 11535
L19822 11555
" />
<path d="M20551 10098
L20551 10007
" />
<path d="M20433 10216
L20551 10098
" />
<path d="M20118 10216
L20433 10216
" />
<path d="M18641 9665
L18641 9370
" />
<path d="M18641 9370
L18415 9143
" />
<path d="M18415 12116
L18415 11937
" />
<path d="M18641 11711
L18641 11555
" />
<path d="M18415 11937
L18641 11711
" />
<path d="M18081 8809
L17657 8385
" />
<path d="M17774 12757
L17422 12757
" />
<path d="M18081 12450
L17774 12757
" />
<path d="M17422 12757
L17342 12677
" />
<path d="M18081 12450
L18041 12450
" />
<path d="M18346 10216
L17565 10216
" />
<path d="M17565 10216
L17009 9661
" />
<path d="M18346 10413
L17889 10413
" />
<path d="M17889 10413
L17850 10374
" />
<path d="M16926 10273
L16661 10009
" />
<path d="M17026 10374
L16926 10273
" />
<path d="M17850 10374
L17026 10374
" />
<path d="M17357 11946
L17622 11682
" />
<path d="M17622 11682
L17622 11417
" />
<path d="M18031 11003
L18090 11003
" />
<path d="M17622 11417
L18035 11003
" />
<path d="M18035 11003
L18090 11003
" />
<path d="M18090 11003
L18346 11003
" />
<path d="M18287 11200
L18287 11713
" />
<path d="M18287 11713
L17705 12294
" />
<path d="M18001 9733
L18287 10019
" />
<path d="M17805 9733
L18001 9733
" />
<path d="M24822 7971
L25019 8661
" />
<path d="M25019 8661
L25374 8897
" />
<path d="M25374 8897
L25379 9034
" />
<path d="M23497 7971
L24822 7971
" />
<path d="M24822 7971
L24801 7971
" />
<path d="M20177 10019
L20068 9911
" />
<path d="M20068 9911
L20068 8557
" />
<path d="M20068 8557
L20655 7971
" />
<path d="M20655 7971
L23497 7971
" />
<path d="M25570 8582
L25807 8740
" />
<path d="M25807 8740
L25856 8915
" />
<path d="M25374 7813
L25570 8582
" />
<path d="M25807 8818
L25856 8915
" />
<path d="M24754 7813
L25374 7813
" />
<path d="M25374 7813
L25352 7813
" />
<path d="M23580 7813
L24754 7813
" />
<path d="M19822 9822
L19822 8576
" />
<path d="M20586 7813
L23580 7813
" />
<path d="M19822 8576
L20586 7813
" />
</g>
<g style="fill:#000000; fill-opacity:1.0; 
stroke:#000000; stroke-width:118.11; stroke-opacity:1; 
stroke-linecap:round; stroke-linejoin:round;">
<polyline style="fill-rule:evenodd;"
points="23464,6585
23239,6587
23013,6591
22787,6596
22561,6603
22333,6612
22105,6622
21875,6634
21645,6648
21413,6663
21180,6680
20945,6699
20709,6719
20471,6741
20232,6765
19990,6790
19747,6817
19502,6845
19254,6875
19004,6907
18751,6940
18496,6975
18238,7011
17978,7048
17715,7088
17448,7128
17402,7136
17593,7326
17593,7375
17394,7573
17389,7568
17361,7596
17366,7601
17168,7800
17119,7800
16856,7536
15214,9179
15477,9442
15477,9491
15278,9689
15273,9684
15245,9711
15251,9717
15052,9915
15004,9915
14849,9760
14849,11499
15004,11344
15052,11344
15251,11542
15245,11547
15273,11575
15278,11570
15477,11768
15477,11817
15216,12077
16859,13719
17119,13459
17168,13459
17366,13658
17361,13663
17389,13691
17394,13685
17400,13691
17428,13663
17422,13658
17428,13652
17400,13624
17394,13630
17196,13431
17196,13383
17373,13206
17204,13206
17182,13203
17160,13202
17159,13201
17158,13201
17137,13195
17116,13189
17115,13188
17114,13188
17094,13178
17075,13167
17074,13167
17073,13166
17056,13152
17039,13139
17037,13137
17037,13137
17037,13137
17037,13136
16291,12391
16278,12374
16264,12358
16263,12357
16262,12356
16252,12336
16241,12317
16241,12316
16240,12315
16234,12294
16227,12273
16227,12272
16227,12271
16225,12249
16222,12228
16222,12225
16222,12225
16222,12225
16222,12224
16222,11869
15950,11596
15924,11580
15888,11545
15859,11504
15838,11459
15838,11456
15553,11740
15505,11740
15306,11542
15741,11107
15790,11107
15891,11207
15918,11179
15960,11151
16006,11132
16055,11122
16106,11121
16155,11131
16201,11150
16243,11177
16279,11212
16295,11235
16444,11086
16493,11086
16636,11229
16630,11234
16658,11262
16663,11257
16669,11262
16697,11234
16691,11229
16987,10933
17036,10933
17091,10988
17106,11010
17116,11035
17121,11062
17121,11089
17116,11116
17110,11130
17118,11126
17156,11118
17195,11121
17231,11135
17262,11159
17429,11326
17444,11342
17454,11362
17457,11351
17458,11350
17458,11349
17466,11335
17473,11320
17474,11319
17474,11318
17485,11306
17495,11293
17496,11292
17496,11292
17496,11292
17497,11291
17695,11093
17656,11068
17620,11034
17591,10993
17571,10947
17559,10898
17559,10861
17545,10847
17460,10847
17438,10845
17401,10833
17382,10821
17368,10830
17343,10841
17316,10846
17199,10846
17165,10812
17165,10629
17126,10629
17126,10812
17091,10846
16974,10846
16948,10841
16941,10838
16959,10856
16959,10905
16663,11201
16521,11058
16521,11030
15713,11030
15713,11079
15278,11514
15080,11316
15080,11267
15408,10939
15427,10920
15450,10905
15475,10894
15502,10889
15529,10889
15555,10894
15580,10905
15603,10920
15713,11030
16521,11030
16521,11009
16729,10801
16751,10786
16776,10776
16803,10771
16830,10771
16857,10776
16871,10782
16866,10773
16855,10748
16850,10722
16850,10664
16884,10629
17126,10629
17165,10629
17173,10629
17173,10590
17165,10590
17165,10582
17126,10582
17126,10590
16884,10590
16850,10556
16850,10498
16853,10483
16825,10489
16786,10485
16750,10472
16719,10448
16450,10180
15713,10180
15713,10229
15603,10339
15580,10354
15555,10365
15529,10370
15502,10370
15475,10365
15450,10354
15427,10339
15408,10320
15080,9992
15080,9943
15278,9745
15713,10180
16450,10180
16295,10024
16284,10041
16249,10077
16208,10106
16162,10126
16113,10137
16063,10138
16013,10129
15966,10111
15924,10084
15890,10052
15790,10152
15741,10152
15306,9717
15505,9519
15553,9519
15838,9803
15855,9761
15883,9719
15918,9683
15951,9661
16731,8881
16748,8867
16765,8853
16766,8853
16767,8852
16786,8841
16805,8831
16806,8831
16807,8830
16828,8824
16849,8817
16850,8817
16851,8817
16873,8814
16895,8812
16897,8812
16897,8812
16897,8812
16898,8812
17093,8812
17115,8814
17136,8816
17138,8816
17139,8816
17160,8823
17181,8829
17182,8829
17183,8830
17202,8840
17222,8850
17223,8851
17224,8851
17241,8865
17257,8878
17255,8873
17249,8847
17249,8820
17255,8793
17265,8768
17280,8745
17335,8690
17384,8690
17680,8986
17674,8992
17702,9020
17707,9014
17964,9271
17982,9271
18111,9399
18106,9405
18133,9433
18139,9427
18268,9556
18268,9605
18195,9677
18340,9822
18444,9822
18444,9488
18446,9466
18447,9461
18426,9459
18417,9456
18344,9528
18296,9528
18167,9399
18172,9394
18145,9366
18139,9372
18049,9282
18031,9282
17735,8986
17741,8981
17713,8953
17707,8958
17412,8663
17412,8614
17466,8559
17468,8558
17462,8553
17433,8512
17413,8466
17402,8418
17401,8360
17411,8311
17430,8265
17458,8223
17493,8187
17501,8182
17196,7876
17196,7827
17394,7629
17829,8064
17829,8113
17781,8161
17818,8185
17854,8220
17882,8261
17902,8308
17913,8357
17913,8391
18015,8493
18030,8490
18069,8493
18096,8503
18074,8472
18022,8355
17994,8231
17992,8085
18016,7960
18065,7843
18077,7824
18047,7824
18047,7851
18042,7878
18031,7903
18016,7926
17906,8036
17857,8036
17422,7601
17620,7403
17669,7403
17997,7731
18016,7750
18031,7773
18042,7798
18047,7824
18077,7824
18135,7737
18225,7646
18331,7575
18448,7526
18573,7500
18700,7499
18826,7523
18944,7571
19050,7640
19141,7730
19213,7835
19264,7952
19290,8076
19292,8204
19269,8329
19222,8447
19153,8555
19064,8646
18960,8719
18843,8770
18719,8797
18591,8800
18466,8778
18347,8732
18324,8717
18359,8753
18374,8769
18392,8804
18396,8826
18403,8827
18440,8841
18471,8864
18694,9087
18708,9104
18726,9138
18734,9176
18731,9209
18767,9244
18777,9257
18787,9269
18788,9270
18789,9271
18796,9285
18804,9300
18804,9301
18805,9301
18810,9317
18815,9333
18815,9334
18815,9335
18816,9349
18897,9349
18919,9351
18935,9356
18937,9355
18976,9349
19094,9349
19116,9351
19132,9356
19134,9355
19173,9349
19291,9349
19313,9351
19329,9356
19331,9355
19370,9349
19488,9349
19510,9351
19525,9356
19528,9355
19567,9349
19645,9349
19645,8576
19647,8560
19648,8544
19649,8543
19649,8542
19653,8526
19658,8510
19658,8510
19659,8509
19666,8494
19674,8480
19674,8479
19675,8478
19685,8465
19695,8453
19697,8451
19697,8451
19697,8451
19697,8451
20460,7688
20473,7677
20485,7667
20486,7666
20487,7666
20501,7658
20516,7650
20517,7650
20517,7649
20533,7645
20549,7640
20550,7640
20551,7639
20567,7638
20583,7636
20585,7636
20585,7636
20585,7636
20586,7636
25374,7636
25385,7637
25397,7637
25403,7639
25408,7639
25419,7643
25431,7645
25436,7648
25441,7649
25452,7655
25462,7660
25467,7663
25472,7665
25481,7673
25490,7680
25494,7684
25498,7687
25506,7696
25514,7705
25517,7710
25520,7714
25526,7724
25532,7734
25534,7740
25537,7744
25540,7756
25545,7767
25545,7769
25722,8461
25856,8427
25878,8424
25917,8426
25954,8439
25985,8461
26002,8482
26002,8473
26015,8436
26038,8404
26069,8380
26105,8365
26334,8308
26356,8305
26394,8307
26431,8320
26463,8342
26487,8373
26502,8409
26662,9051
26817,8896
26830,8886
26842,8875
26843,8875
26844,8874
26858,8867
26872,8859
26873,8858
26874,8858
26890,8853
26905,8848
26906,8848
26907,8848
26914,8847
27101,8794
27009,8778
26890,8732
26783,8663
26690,8576
26617,8472
26565,8355
26537,8231
26535,8085
26560,7960
26608,7843
26679,7737
26769,7646
26874,7575
26913,7559
24862,7559
24840,7556
24818,7555
24817,7554
24816,7554
24795,7548
24774,7542
24773,7541
24772,7541
24753,7530
24733,7520
24732,7520
24731,7519
24714,7505
24697,7492
24695,7490
24695,7490
24695,7490
24695,7489
24551,7346
20385,7346
19752,7979
19744,7999
19717,8041
19682,8077
19641,8106
19595,8126
19546,8137
19495,8138
19446,8129
19399,8111
19357,8084
19320,8049
19292,8008
19271,7962
19260,7913
19259,7856
19269,7807
19288,7760
19316,7719
19351,7683
19393,7655
19418,7645
20120,6942
20137,6929
20153,6915
20154,6914
20155,6913
20175,6903
20194,6892
20195,6892
20196,6891
20217,6885
20238,6878
20239,6878
20240,6878
20262,6876
20284,6873
20286,6873
20286,6873
20286,6873
20287,6873
24649,6873
24671,6875
24692,6877
24694,6878
24695,6878
24716,6884
24737,6890
24738,6891
24739,6891
24758,6901
24778,6911
24779,6912
24780,6913
24797,6927
24814,6940
24815,6942
24815,6942
24815,6942
24816,6942
24960,7086
27450,7086
27472,7088
27494,7090
27495,7090
27496,7091
27517,7097
27538,7103
27539,7104
27540,7104
27560,7114
27579,7124
27580,7125
27581,7126
27598,7139
27615,7153
27617,7155
27617,7155
27617,7155
27617,7155
28217,7755
28362,7755
28546,7571
28558,7561
28571,7550
28572,7550
28572,7549
28587,7541
28601,7534
28602,7533
28603,7533
28618,7528
28634,7523
28635,7523
28636,7523
28652,7521
28668,7519
28670,7519
28670,7519
28670,7519
28671,7519
29842,7519
29858,7521
29875,7522
29876,7522
29877,7523
29892,7527
29908,7532
29909,7532
29910,7533
29924,7540
29939,7548
29939,7548
29940,7549
29953,7559
29966,7569
29967,7571
29967,7571
29967,7571
29967,7571
30408,8011
31752,8011
31768,8013
31784,8014
31785,8015
31786,8015
31802,8019
31817,8024
31818,8024
31819,8025
31834,8032
31848,8040
31849,8040
31850,8041
31862,8051
31875,8061
31876,8063
31876,8063
31876,8063
31877,8063
32074,8260
32084,8273
32095,8285
32095,8286
32096,8287
32103,8301
32111,8316
32112,8316
32112,8317
32117,8333
32122,8348
32122,8349
32122,8350
32124,8367
32126,8383
32126,8385
32126,8385
32126,8385
32126,8385
32126,8740
32124,8756
32123,8772
32122,8773
32122,8774
32117,8790
32113,8805
32112,8806
32112,8807
32104,8822
32097,8836
32096,8837
32096,8838
32086,8850
32075,8863
32074,8864
32074,8864
32074,8865
32074,8865
31929,9010
31929,9037
31920,9086
31902,9133
31874,9175
31839,9211
31798,9240
31752,9260
31703,9271
31667,9271
31444,9495
31431,9505
31419,9516
31418,9516
31417,9517
31403,9525
31388,9532
31387,9533
31387,9533
31371,9538
31355,9543
31354,9543
31353,9543
31337,9545
31321,9547
31319,9547
31319,9547
31319,9547
31318,9547
30053,9547
30044,9560
30015,9585
29979,9601
29941,9606
29626,9606
29604,9605
29566,9593
29547,9581
29533,9590
29508,9601
29482,9606
29365,9606
29330,9571
29330,9389
29291,9389
29291,9571
29256,9606
29140,9606
29113,9601
29088,9590
29065,9575
29046,9556
29031,9533
29021,9508
29015,9482
29015,9424
29050,9389
29291,9389
29330,9389
29338,9389
29338,9350
29330,9350
29330,9168
29291,9168
29291,9350
29050,9350
29025,9325
28592,9325
28592,9639
28587,9666
28576,9691
28561,9713
28542,9733
28520,9748
28494,9758
28468,9763
28262,9763
28228,9729
28228,9291
28189,9291
28189,9729
28154,9763
27949,9763
27922,9758
27897,9748
27874,9733
27855,9713
27840,9691
27830,9666
27824,9639
27824,9325
27859,9291
28189,9291
28228,9291
28558,9291
28592,9325
29025,9325
29015,9315
29015,9258
29021,9231
29031,9206
29046,9183
29065,9164
29088,9149
29113,9139
29140,9133
29256,9133
29291,9168
29330,9168
29365,9133
29482,9133
29508,9139
29533,9149
29547,9158
29551,9154
29587,9138
29626,9133
29941,9133
29962,9134
30000,9146
30032,9167
30054,9192
31245,9192
31417,9020
31417,8990
31427,8941
31439,8911
31434,8913
31433,8913
31432,8913
31416,8915
31400,8917
31398,8917
31398,8917
31398,8917
31397,8917
30276,8917
30276,8976
30274,8998
30263,9035
30241,9068
30211,9093
30176,9109
30137,9114
29744,9114
29722,9113
29685,9101
29652,9080
29627,9050
29611,9014
29605,8976
29605,8794
29488,8794
29488,8989
29482,9016
29472,9041
29457,9064
29438,9083
29415,9098
29390,9108
29364,9114
29207,9114
29173,9079
29173,8759
29133,8759
29133,9079
29099,9114
28943,9114
28916,9108
28891,9098
28868,9083
28849,9064
28834,9041
28824,9016
28818,8989
28818,8794
28853,8759
29133,8759
29173,8759
29453,8759
29488,8794
29605,8794
29605,8503
29606,8490
29488,8490
29488,8686
29453,8720
29173,8720
29173,8400
29133,8400
29133,8720
28853,8720
28818,8686
28818,8490
28824,8463
28834,8438
28849,8416
28868,8396
28891,8381
28916,8371
28943,8366
29099,8366
29133,8400
29173,8400
29207,8366
29364,8366
29390,8371
29415,8381
29438,8396
29457,8416
29472,8438
29482,8463
29488,8490
29606,8490
29607,8481
29618,8444
29640,8412
29670,8386
29705,8370
29744,8365
29763,8365
29763,8307
29626,8307
29604,8306
29566,8294
29547,8281
29533,8291
29508,8301
29482,8307
29365,8307
29330,8272
29330,8090
29338,8090
29338,8051
29330,8051
29330,8043
29291,8043
29291,8051
29283,8051
29283,8090
29291,8090
29291,8272
29256,8307
29140,8307
29113,8301
29088,8291
29065,8276
29046,8257
29031,8234
29021,8209
29015,8182
29015,8148
28789,8374
28789,8677
28787,8693
28786,8709
28786,8710
28786,8711
28781,8727
28776,8742
28776,8743
28776,8744
28768,8759
28760,8773
28760,8774
28759,8775
28749,8787
28739,8800
28738,8801
28737,8802
28737,8802
28737,8802
28654,8885
28642,8895
28629,8906
28628,8906
28628,8907
28613,8914
28599,8922
28598,8922
28597,8923
28592,8924
28592,9217
28558,9251
28228,9251
28228,9244
28189,9244
28189,9251
27859,9251
27824,9217
27824,8957
27397,9078
27430,9070
27458,9069
27484,9073
27510,9082
27533,9096
27553,9114
27569,9136
27581,9161
27588,9187
27700,9637
27675,9679
27403,9747
27401,9739
27362,9748
27364,9756
27092,9824
27050,9799
26938,9349
26932,9323
26930,9295
26932,9282
25905,10309
25905,10336
25896,10385
25878,10432
25851,10474
25816,10510
25775,10539
25729,10559
25680,10570
25629,10571
25580,10562
25533,10544
25491,10517
25455,10482
25426,10441
25405,10396
25396,10354
24941,10354
24919,10352
24897,10350
24896,10349
24895,10349
24874,10343
24853,10337
24852,10336
24851,10336
24831,10326
24812,10316
24811,10315
24810,10314
24793,10301
24776,10287
24774,10285
24774,10285
24774,10285
24773,10285
24612,10123
24169,10123
24262,10494
24237,10536
23964,10604
23963,10596
23924,10606
23926,10613
23654,10681
23612,10656
23500,10206
23494,10180
23492,10153
23496,10126
23497,10123
23243,10123
23218,10149
23217,10150
23216,10150
23199,10164
23182,10178
23181,10179
23181,10179
23178,10181
22493,10618
22506,10623
22548,10651
22584,10686
22612,10727
22632,10773
22642,10822
22643,10873
22634,10922
22615,10969
22588,11011
22553,11047
22512,11076
22466,11096
22417,11106
22367,11107
22317,11099
22285,11086
20427,12256
20424,12275
20405,12322
20378,12364
20343,12400
20302,12429
20256,12449
20207,12460
20157,12461
20108,12452
20061,12434
20018,12407
19982,12372
19953,12331
19933,12285
19926,12255
18633,13080
18576,13136
18559,13150
18542,13164
18541,13165
18540,13166
18521,13176
18502,13186
18501,13187
18500,13187
18479,13194
18458,13200
18457,13201
18455,13201
18434,13203
18412,13206
18410,13206
18410,13206
18410,13206
18409,13206
17874,13206
17857,13223
17906,13223
18016,13333
18031,13356
18042,13381
18047,13407
18047,13435
18042,13461
18031,13486
18016,13509
17997,13528
17809,13716
17878,13681
17878,13681
17878,13680
18138,13548
18138,13548
18139,13548
18396,13418
18396,13418
18397,13418
18651,13291
18651,13291
18652,13291
18904,13167
18904,13167
18905,13167
19155,13046
19155,13046
19156,13045
19403,12927
19403,12927
19404,12927
19649,12811
19649,12811
19650,12811
19893,12698
19893,12698
19894,12697
20135,12587
20135,12587
20136,12587
20376,12479
20376,12479
20377,12478
20614,12373
20615,12373
20615,12373
20852,12270
20852,12270
20853,12270
21087,12170
21087,12170
21088,12169
21321,12072
21322,12071
21322,12071
21554,11976
21555,11976
21556,11975
21786,11882
21786,11882
21787,11882
22017,11791
22017,11791
22018,11791
22247,11703
22247,11703
22248,11702
22476,11616
22476,11616
22477,11616
22705,11532
22705,11532
22706,11532
22932,11450
22932,11450
22933,11450
23160,11370
23160,11370
23161,11370
23386,11292
23386,11292
23388,11292
23613,11217
23613,11217
23614,11216
23742,11175
23639,10761
23664,10719
23936,10652
23938,10659
23976,10650
23974,10642
24246,10574
24288,10599
24382,10975
24519,10935
24519,10935
24520,10934
24745,10869
24745,10869
24747,10869
24972,10805
24973,10805
24974,10805
25200,10743
25200,10743
25201,10743
25428,10683
25428,10683
25430,10683
25657,10625
25657,10625
25658,10625
25887,10568
25887,10568
25888,10568
26117,10514
26117,10514
26119,10513
26349,10460
26349,10460
26350,10460
26582,10409
26582,10409
26583,10409
26816,10359
26816,10359
26817,10359
27051,10311
27051,10311
27052,10310
27172,10287
27077,9904
27102,9862
27374,9794
27376,9802
27414,9792
27412,9785
27684,9717
27726,9742
27831,10163
28007,10132
28007,10132
28008,10132
28251,10091
28251,10091
28252,10091
28496,10052
28496,10052
28497,10052
28744,10014
28744,10014
28745,10013
28993,9977
28993,9977
28994,9976
29245,9941
29245,9941
29246,9941
29500,9906
29500,9906
29501,9906
29757,9873
29757,9873
29758,9873
30016,9841
30016,9841
30017,9841
30279,9810
30279,9810
30280,9810
30544,9780
30544,9780
30545,9779
30812,9751
30812,9751
30813,9750
31083,9723
31083,9723
31084,9723
31358,9696
31358,9696
31358,9695
31635,9669
31635,9669
31636,9669
31916,9644
31916,9644
31917,9644
32201,9620
32201,9620
32201,9620
32489,9596
32489,9596
32490,9596
32778,9574
32805,9571
32826,9566
32845,9560
32860,9554
32874,9546
32885,9538
32895,9529
32904,9520
32912,9510
32919,9499
32925,9487
32930,9475
32934,9462
32937,9449
32938,9436
32939,9419
32939,9337
32939,9165
32939,9080
32939,8994
32939,8823
32939,8737
32939,8652
32939,8480
32939,8395
32939,8309
32939,8223
32939,8138
32939,8055
32939,8044
32938,8035
32936,8026
32933,8016
32929,8005
32925,7995
32919,7984
32912,7974
32903,7964
32894,7954
32882,7943
32868,7934
32852,7924
32832,7915
32810,7906
32781,7898
32493,7827
32207,7758
31923,7690
31644,7625
31368,7562
31096,7501
30826,7442
30560,7385
30296,7330
30036,7278
29778,7227
29523,7178
29271,7131
29021,7087
28773,7044
28527,7003
28284,6964
28043,6928
27803,6893
27565,6860
27329,6829
27095,6799
26862,6772
26630,6747
26399,6723
26170,6702
25942,6682
25714,6664
25488,6648
25261,6634
25036,6622
24811,6611
24586,6602
24362,6595
24137,6590
23913,6587
23689,6585
23464,6585
" /> 
<polyline style="fill-rule:evenodd;"
points="20649,10767
20648,10783
20646,10800
20646,10801
20646,10802
20641,10817
20637,10833
20636,10834
20636,10835
20628,10849
20621,10864
20620,10864
20620,10865
20609,10878
20599,10891
20598,10892
20598,10892
20598,10892
20597,10892
20558,10932
20545,10942
20533,10953
20532,10953
20531,10954
20517,10962
20502,10969
20502,10970
20501,10970
20485,10975
20469,10980
20469,10980
20468,10980
20460,10981
20457,10984
20425,10984
20392,10999
20360,11003
20376,11005
20413,11016
20424,11023
20556,11023
20709,10871
20708,10841
20718,10791
20733,10756
20722,10752
20699,10736
20680,10717
20665,10695
20654,10670
20649,10643
20649,10767
" /> 
<polyline style="fill-rule:evenodd;"
points="20668,8208
20851,8208
20885,8243
20885,8523
20878,8523
20878,8562
20885,8562
20885,8843
20851,8877
20786,8877
20904,8995
21141,8995
21163,8997
21200,9008
21233,9030
21235,9032
21260,9020
21299,9015
21535,9015
21557,9016
21594,9028
21627,9049
21652,9079
21668,9114
21673,9153
21673,9547
21908,9312
21908,9153
21910,9131
21922,9094
21943,9061
21973,9036
22008,9020
22047,9015
22283,9015
22305,9016
22342,9028
22348,9031
22353,9026
22375,9011
22400,9001
22427,8996
22623,8996
22657,9030
22657,9311
22649,9311
22649,9350
22657,9350
22657,9630
22623,9665
22427,9665
22415,9662
22408,9685
22387,9717
22357,9742
22322,9758
22283,9764
22124,9764
21899,9989
21882,10003
21865,10017
21864,10018
21863,10019
21844,10029
21825,10039
21824,10040
21823,10040
21802,10047
21781,10053
21780,10054
21779,10054
21757,10056
21735,10059
21733,10059
21733,10059
21733,10059
21732,10059
21127,10059
21124,10068
21124,10069
21123,10070
21122,10072
21122,10157
21121,10179
21109,10216
21097,10235
21106,10249
21116,10274
21122,10301
21122,10418
21087,10452
20905,10452
20905,10444
20866,10444
20866,10452
20858,10452
20858,10492
20866,10492
20866,10500
20905,10500
20905,10492
21087,10492
21122,10526
21122,10643
21118,10661
21125,10665
21161,10700
21189,10742
21209,10788
21220,10837
21220,10869
22874,9815
22874,9665
22731,9665
22696,9630
22696,9350
22704,9350
22704,9311
22696,9311
22696,9030
22731,8996
22835,8996
22717,8878
22441,8878
22419,8876
22381,8865
22349,8843
22347,8841
22322,8853
22283,8858
22047,8858
22025,8857
21988,8845
21979,8839
21974,8842
21949,8852
21923,8858
21845,8858
21811,8823
21811,8503
21818,8503
21818,8464
21811,8464
21811,8456
21771,8456
21771,8464
21763,8464
21763,8503
21771,8503
21771,8823
21737,8858
21659,8858
21633,8852
21608,8842
21604,8839
21574,8853
21535,8858
21299,8858
21277,8857
21240,8845
21234,8842
21229,8847
21207,8862
21182,8872
21155,8877
20959,8877
20925,8843
20925,8562
20933,8562
20933,8523
20925,8523
20925,8243
20959,8208
21155,8208
21167,8211
21174,8188
21195,8156
21205,8148
20728,8148
20668,8208
" /> 
<polyline style="fill-rule:evenodd;"
points="22400,8173
22416,8209
22416,8211
22441,8207
22913,8207
22935,8209
22972,8221
23005,8242
23030,8272
23046,8307
23051,8346
23051,8544
23277,8769
23291,8786
23305,8803
23305,8804
23306,8805
23316,8824
23327,8843
23327,8845
23328,8846
23334,8867
23341,8887
23341,8889
23341,8890
23344,8912
23346,8933
23346,8936
23346,8936
23346,8936
23346,8937
23346,9651
24254,9651
24253,9646
24188,9387
24214,9345
24409,9296
24411,9304
24449,9294
24448,9286
24455,9285
24448,9258
24400,9258
24204,9307
24162,9281
24098,9022
24091,8996
24090,8969
24094,8942
24103,8917
24117,8893
24135,8873
24157,8857
24182,8846
24257,8827
24299,8852
24400,9258
24448,9258
24446,9246
24438,9248
24337,8842
24362,8801
24437,8782
24464,8781
24491,8785
24517,8794
24540,8808
24560,8826
24569,8839
24570,8830
24583,8793
24605,8761
24636,8737
24672,8723
24841,8681
24689,8148
22378,8148
22400,8173
" /> 
</g>
<g style="fill:#FFFFFF; fill-opacity:1.0; 
stroke:#FFFFFF; stroke-width:118.11; stroke-opacity:1; 
stroke-linecap:round; stroke-linejoin:round;">
</g>
<g style="fill:#FFFFFF; fill-opacity:1.0; 
stroke:#FFFFFF; stroke-width:0; stroke-opacity:1; 
stroke-linecap:round; stroke-linejoin:round;">
<circle cx="19626.1" cy="10807.1" r="78.7402" /> 
</g>
<g style="fill:#FFFFFF; fill-opacity:1.0; 
stroke:#FFFFFF; stroke-width:39.3701; stroke-opacity:1; 
stroke-linecap:round; stroke-linejoin:round;">
</g>
<g style="fill:#FFFFFF; fill-opacity:1.0; 
stroke:#FFFFFF; stroke-width:0; stroke-opacity:1; 
stroke-linecap:round; stroke-linejoin:round;">
<circle cx="20334.7" cy="8700.79" r="78.7402" /> 
</g>
<g style="fill:#FFFFFF; fill-opacity:1.0; 
stroke:#FFFFFF; stroke-width:39.3701; stroke-opacity:1; 
stroke-linecap:round; stroke-linejoin:round;">
</g>
<g style="fill:#FFFFFF; fill-opacity:1.0; 
stroke:#FFFFFF; stroke-width:0; stroke-opacity:1; 
stroke-linecap:round; stroke-linejoin:round;">
<circle cx="19515.6" cy="7881.7" r="78.7402" /> 
</g>
<g style="fill:#FFFFFF; fill-opacity:1.0; 
stroke:#FFFFFF; stroke-width:39.3701; stroke-opacity:1; 
stroke-linecap:round; stroke-linejoin:round;">
</g>
<g style="fill:#FFFFFF; fill-opacity:1.0; 
stroke:#FFFFFF; stroke-width:0; stroke-opacity:1; 
stroke-linecap:round; stroke-linejoin:round;">
<circle cx="31673.3" cy="9015.75" r="78.7402" /> 
</g>
<g style="fill:#FFFFFF; fill-opacity:1.0; 
stroke:#FFFFFF; stroke-width:39.3701; stroke-opacity:1; 
stroke-linecap:round; stroke-linejoin:round;">
</g>
<g style="fill:#FFFFFF; fill-opacity:1.0; 
stroke:#FFFFFF; stroke-width:0; stroke-opacity:1; 
stroke-linecap:round; stroke-linejoin:round;">
<circle cx="22696.9" cy="10590.6" r="78.7402" /> 
</g>
<g style="fill:#FFFFFF; fill-opacity:1.0; 
stroke:#FFFFFF; stroke-width:39.3701; stroke-opacity:1; 
stroke-linecap:round; stroke-linejoin:round;">
</g>
<g style="fill:#FFFFFF; fill-opacity:1.0; 
stroke:#FFFFFF; stroke-width:0; stroke-opacity:1; 
stroke-linecap:round; stroke-linejoin:round;">
<circle cx="16437.1" cy="10629.9" r="78.7402" /> 
</g>
<g style="fill:#FFFFFF; fill-opacity:1.0; 
stroke:#FFFFFF; stroke-width:39.3701; stroke-opacity:1; 
stroke-linecap:round; stroke-linejoin:round;">
</g>
<g style="fill:#FFFFFF; fill-opacity:1.0; 
stroke:#FFFFFF; stroke-width:0; stroke-opacity:1; 
stroke-linecap:round; stroke-linejoin:round;">
<circle cx="22263.9" cy="9960.63" r="78.7402" /> 
</g>
<g style="fill:#FFFFFF; fill-opacity:1.0; 
stroke:#FFFFFF; stroke-width:39.3701; stroke-opacity:1; 
stroke-linecap:round; stroke-linejoin:round;">
</g>
<g style="fill:#FFFFFF; fill-opacity:1.0; 
stroke:#FFFFFF; stroke-width:0; stroke-opacity:1; 
stroke-linecap:round; stroke-linejoin:round;">
<circle cx="23484.3" cy="8307.09" r="78.7402" /> 
</g>
<g style="fill:#FFFFFF; fill-opacity:1.0; 
stroke:#FFFFFF; stroke-width:39.3701; stroke-opacity:1; 
stroke-linecap:round; stroke-linejoin:round;">
</g>
<g style="fill:#FFFFFF; fill-opacity:1.0; 
stroke:#FFFFFF; stroke-width:0; stroke-opacity:1; 
stroke-linecap:round; stroke-linejoin:round;">
<circle cx="32342.6" cy="8700.79" r="78.7402" /> 
</g>
<g style="fill:#FFFFFF; fill-opacity:1.0; 
stroke:#FFFFFF; stroke-width:39.3701; stroke-opacity:1; 
stroke-linecap:round; stroke-linejoin:round;">
</g>
<g style="fill:#FFFFFF; fill-opacity:1.0; 
stroke:#FFFFFF; stroke-width:0; stroke-opacity:1; 
stroke-linecap:round; stroke-linejoin:round;">
<circle cx="22387.1" cy="10851.5" r="78.7402" /> 
</g>
<g style="fill:#FFFFFF; fill-opacity:1.0; 
stroke:#FFFFFF; stroke-width:39.3701; stroke-opacity:1; 
stroke-linecap:round; stroke-linejoin:round;">
</g>
<g style="fill:#FFFFFF; fill-opacity:1.0; 
stroke:#FFFFFF; stroke-width:0; stroke-opacity:1; 
stroke-linecap:round; stroke-linejoin:round;">
<circle cx="25059.1" cy="9803.15" r="78.7402" /> 
</g>
<g style="fill:#FFFFFF; fill-opacity:1.0; 
stroke:#FFFFFF; stroke-width:39.3701; stroke-opacity:1; 
stroke-linecap:round; stroke-linejoin:round;">
</g>
<g style="fill:#FFFFFF; fill-opacity:1.0; 
stroke:#FFFFFF; stroke-width:0; stroke-opacity:1; 
stroke-linecap:round; stroke-linejoin:round;">
<circle cx="17815" cy="10866.1" r="78.7402" /> 
</g>
<g style="fill:#FFFFFF; fill-opacity:1.0; 
stroke:#FFFFFF; stroke-width:39.3701; stroke-opacity:1; 
stroke-linecap:round; stroke-linejoin:round;">
</g>
<g style="fill:#FFFFFF; fill-opacity:1.0; 
stroke:#FFFFFF; stroke-width:0; stroke-opacity:1; 
stroke-linecap:round; stroke-linejoin:round;">
<circle cx="20177.2" cy="12204.7" r="78.7402" /> 
</g>
<g style="fill:#FFFFFF; fill-opacity:1.0; 
stroke:#FFFFFF; stroke-width:39.3701; stroke-opacity:1; 
stroke-linecap:round; stroke-linejoin:round;">
</g>
<g style="fill:#FFFFFF; fill-opacity:1.0; 
stroke:#FFFFFF; stroke-width:0; stroke-opacity:1; 
stroke-linecap:round; stroke-linejoin:round;">
<circle cx="25649.7" cy="10315" r="78.7402" /> 
</g>
<g style="fill:#FFFFFF; fill-opacity:1.0; 
stroke:#FFFFFF; stroke-width:39.3701; stroke-opacity:1; 
stroke-linecap:round; stroke-linejoin:round;">
</g>
<g style="fill:#FFFFFF; fill-opacity:1.0; 
stroke:#FFFFFF; stroke-width:0; stroke-opacity:1; 
stroke-linecap:round; stroke-linejoin:round;">
<circle cx="20964.6" cy="10866.1" r="78.7402" /> 
</g>
<g style="fill:#FFFFFF; fill-opacity:1.0; 
stroke:#FFFFFF; stroke-width:39.3701; stroke-opacity:1; 
stroke-linecap:round; stroke-linejoin:round;">
</g>
<g style="fill:#FFFFFF; fill-opacity:1.0; 
stroke:#FFFFFF; stroke-width:0; stroke-opacity:1; 
stroke-linecap:round; stroke-linejoin:round;">
<circle cx="31673.3" cy="8464.57" r="78.7402" /> 
</g>
<g style="fill:#FFFFFF; fill-opacity:1.0; 
stroke:#FFFFFF; stroke-width:39.3701; stroke-opacity:1; 
stroke-linecap:round; stroke-linejoin:round;">
</g>
<g style="fill:#FFFFFF; fill-opacity:1.0; 
stroke:#FFFFFF; stroke-width:0; stroke-opacity:1; 
stroke-linecap:round; stroke-linejoin:round;">
<circle cx="16082.8" cy="11378" r="78.7402" /> 
</g>
<g style="fill:#FFFFFF; fill-opacity:1.0; 
stroke:#FFFFFF; stroke-width:39.3701; stroke-opacity:1; 
stroke-linecap:round; stroke-linejoin:round;">
</g>
<g style="fill:#FFFFFF; fill-opacity:1.0; 
stroke:#FFFFFF; stroke-width:0; stroke-opacity:1; 
stroke-linecap:round; stroke-linejoin:round;">
<circle cx="16082.8" cy="9881.89" r="78.7402" /> 
</g>
<g style="fill:#FFFFFF; fill-opacity:1.0; 
stroke:#FFFFFF; stroke-width:39.3701; stroke-opacity:1; 
stroke-linecap:round; stroke-linejoin:round;">
</g>
<g style="fill:#FFFFFF; fill-opacity:1.0; 
stroke:#FFFFFF; stroke-width:0; stroke-opacity:1; 
stroke-linecap:round; stroke-linejoin:round;">
<circle cx="20039.4" cy="11535.4" r="78.7402" /> 
</g>
<g style="fill:#FFFFFF; fill-opacity:1.0; 
stroke:#FFFFFF; stroke-width:39.3701; stroke-opacity:1; 
stroke-linecap:round; stroke-linejoin:round;">
</g>
<g style="fill:#FFFFFF; fill-opacity:1.0; 
stroke:#FFFFFF; stroke-width:0; stroke-opacity:1; 
stroke-linecap:round; stroke-linejoin:round;">
<circle cx="20551.3" cy="10007.9" r="78.7402" /> 
</g>
<g style="fill:#FFFFFF; fill-opacity:1.0; 
stroke:#FFFFFF; stroke-width:39.3701; stroke-opacity:1; 
stroke-linecap:round; stroke-linejoin:round;">
</g>
<g style="fill:#FFFFFF; fill-opacity:1.0; 
stroke:#FFFFFF; stroke-width:0; stroke-opacity:1; 
stroke-linecap:round; stroke-linejoin:round;">
<circle cx="17657.6" cy="8385.83" r="78.7402" /> 
</g>
<g style="fill:#FFFFFF; fill-opacity:1.0; 
stroke:#FFFFFF; stroke-width:39.3701; stroke-opacity:1; 
stroke-linecap:round; stroke-linejoin:round;">
</g>
<g style="fill:#FFFFFF; fill-opacity:1.0; 
stroke:#FFFFFF; stroke-width:0; stroke-opacity:1; 
stroke-linecap:round; stroke-linejoin:round;">
<circle cx="17342.6" cy="12677.2" r="78.7402" /> 
</g>
<g style="fill:#FFFFFF; fill-opacity:1.0; 
stroke:#FFFFFF; stroke-width:39.3701; stroke-opacity:1; 
stroke-linecap:round; stroke-linejoin:round;">
</g>
<g style="fill:#000000; fill-opacity:1.0; 
stroke:#000000; stroke-width:39.3701; stroke-opacity:1; 
stroke-linecap:round; stroke-linejoin:round;">
</g>
<g style="fill:#000000; fill-opacity:0.0; 
stroke:#000000; stroke-width:39.3701; stroke-opacity:1; 
stroke-linecap:round; stroke-linejoin:round;">
<path d="M17421 14094
L17153 14235
" />
<path d="M17687 13956
L17421 14094
" />
<path d="M17950 13821
L17687 13956
" />
<path d="M18210 13688
L17950 13821
" />
<path d="M18467 13559
L18210 13688
" />
<path d="M18722 13432
L18467 13559
" />
<path d="M18974 13308
L18722 13432
" />
<path d="M19223 13187
L18974 13308
" />
<path d="M19471 13069
L19223 13187
" />
<path d="M19716 12954
L19471 13069
" />
<path d="M19960 12841
L19716 12954
" />
<path d="M20201 12730
L19960 12841
" />
<path d="M20440 12623
L20201 12730
" />
<path d="M20678 12517
L20440 12623
" />
<path d="M20914 12415
L20678 12517
" />
<path d="M21149 12314
L20914 12415
" />
<path d="M21382 12217
L21149 12314
" />
<path d="M21614 12121
L21382 12217
" />
<path d="M21845 12028
L21614 12121
" />
<path d="M22075 11938
L21845 12028
" />
<path d="M22304 11850
L22075 11938
" />
<path d="M22532 11764
L22304 11850
" />
<path d="M22759 11680
L22532 11764
" />
<path d="M22986 11598
L22759 11680
" />
<path d="M23212 11519
L22986 11598
" />
<path d="M23437 11441
L23212 11519
" />
<path d="M23663 11366
L23437 11441
" />
<path d="M23888 11293
L23663 11366
" />
<path d="M24113 11222
L23888 11293
" />
<path d="M24338 11153
L24113 11222
" />
<path d="M24564 11086
L24338 11153
" />
<path d="M24789 11020
L24564 11086
" />
<path d="M25015 10957
L24789 11020
" />
<path d="M25241 10895
L25015 10957
" />
<path d="M25468 10836
L25241 10895
" />
<path d="M25696 10778
L25468 10836
" />
<path d="M25924 10721
L25696 10778
" />
<path d="M26154 10667
L25924 10721
" />
<path d="M26384 10614
L26154 10667
" />
<path d="M26616 10563
L26384 10614
" />
<path d="M26848 10513
L26616 10563
" />
<path d="M27082 10465
L26848 10513
" />
<path d="M27318 10418
L27082 10465
" />
<path d="M27555 10373
L27318 10418
" />
<path d="M27794 10330
L27555 10373
" />
<path d="M28034 10288
L27794 10330
" />
<path d="M28277 10247
L28034 10288
" />
<path d="M28521 10207
L28277 10247
" />
<path d="M28768 10169
L28521 10207
" />
<path d="M29016 10132
L28768 10169
" />
<path d="M29267 10097
L29016 10132
" />
<path d="M29521 10062
L29267 10097
" />
<path d="M29777 10029
L29521 10062
" />
<path d="M30036 9997
L29777 10029
" />
<path d="M30297 9966
L30036 9997
" />
<path d="M30562 9936
L30297 9966
" />
<path d="M30829 9907
L30562 9936
" />
<path d="M31099 9879
L30829 9907
" />
<path d="M31373 9852
L31099 9879
" />
<path d="M31650 9826
L31373 9852
" />
<path d="M31930 9801
L31650 9826
" />
<path d="M32214 9777
L31930 9801
" />
<path d="M32502 9753
L32214 9777
" />
<path d="M32793 9731
L32502 9753
" />
<path d="M32831 9726
L32793 9731
" />
<path d="M32867 9719
L32831 9726
" />
<path d="M32899 9708
L32867 9719
" />
<path d="M32929 9695
L32899 9708
" />
<path d="M32957 9680
L32929 9695
" />
<path d="M32982 9663
L32957 9680
" />
<path d="M33004 9644
L32982 9663
" />
<path d="M33024 9623
L33004 9644
" />
<path d="M33041 9601
L33024 9623
" />
<path d="M33056 9577
L33041 9601
" />
<path d="M33069 9553
L33056 9577
" />
<path d="M33079 9527
L33069 9553
" />
<path d="M33087 9501
L33079 9527
" />
<path d="M33092 9475
L33087 9501
" />
<path d="M33096 9449
L33092 9475
" />
<path d="M33097 9422
L33096 9449
" />
<path d="M33097 9337
L33097 9422
" />
<path d="M33097 9251
L33097 9337
" />
<path d="M33097 9165
L33097 9251
" />
<path d="M33097 9080
L33097 9165
" />
<path d="M33097 8994
L33097 9080
" />
<path d="M33097 8909
L33097 8994
" />
<path d="M33097 8823
L33097 8909
" />
<path d="M33097 8737
L33097 8823
" />
<path d="M33097 8652
L33097 8737
" />
<path d="M33097 8566
L33097 8652
" />
<path d="M33097 8480
L33097 8566
" />
<path d="M33097 8395
L33097 8480
" />
<path d="M33097 8309
L33097 8395
" />
<path d="M33097 8223
L33097 8309
" />
<path d="M33097 8138
L33097 8223
" />
<path d="M33097 8052
L33097 8138
" />
<path d="M33096 8032
L33097 8052
" />
<path d="M33093 8011
L33096 8032
" />
<path d="M33089 7990
L33093 8011
" />
<path d="M33083 7968
L33089 7990
" />
<path d="M33075 7946
L33083 7968
" />
<path d="M33065 7924
L33075 7946
" />
<path d="M33053 7902
L33065 7924
" />
<path d="M33038 7880
L33053 7902
" />
<path d="M33021 7859
L33038 7880
" />
<path d="M33002 7839
L33021 7859
" />
<path d="M32979 7819
L33002 7839
" />
<path d="M32954 7801
L32979 7819
" />
<path d="M32925 7785
L32954 7801
" />
<path d="M32894 7770
L32925 7785
" />
<path d="M32859 7757
L32894 7770
" />
<path d="M32821 7746
L32859 7757
" />
<path d="M32530 7674
L32821 7746
" />
<path d="M32243 7604
L32530 7674
" />
<path d="M31960 7537
L32243 7604
" />
<path d="M31680 7472
L31960 7537
" />
<path d="M31403 7408
L31680 7472
" />
<path d="M31130 7347
L31403 7408
" />
<path d="M30859 7288
L31130 7347
" />
<path d="M30592 7231
L30859 7288
" />
<path d="M30328 7176
L30592 7231
" />
<path d="M30067 7123
L30328 7176
" />
<path d="M29808 7072
L30067 7123
" />
<path d="M29552 7023
L29808 7072
" />
<path d="M29299 6976
L29552 7023
" />
<path d="M29048 6932
L29299 6976
" />
<path d="M28799 6889
L29048 6932
" />
<path d="M28553 6848
L28799 6889
" />
<path d="M28308 6809
L28553 6848
" />
<path d="M28066 6772
L28308 6809
" />
<path d="M27825 6737
L28066 6772
" />
<path d="M27586 6704
L27825 6737
" />
<path d="M27349 6672
L27586 6704
" />
<path d="M27114 6643
L27349 6672
" />
<path d="M26879 6616
L27114 6643
" />
<path d="M26646 6590
L26879 6616
" />
<path d="M26415 6567
L26646 6590
" />
<path d="M26184 6545
L26415 6567
" />
<path d="M25955 6525
L26184 6545
" />
<path d="M25726 6507
L25955 6525
" />
<path d="M25498 6491
L25726 6507
" />
<path d="M25271 6477
L25498 6491
" />
<path d="M25044 6464
L25271 6477
" />
<path d="M24818 6454
L25044 6464
" />
<path d="M24592 6445
L24818 6454
" />
<path d="M24366 6438
L24592 6445
" />
<path d="M24140 6433
L24366 6438
" />
<path d="M23915 6429
L24140 6433
" />
<path d="M23689 6428
L23915 6429
" />
<path d="M23463 6428
L23689 6428
" />
<path d="M23237 6430
L23463 6428
" />
<path d="M23010 6433
L23237 6430
" />
<path d="M22783 6438
L23010 6433
" />
<path d="M22555 6446
L22783 6438
" />
<path d="M22326 6454
L22555 6446
" />
<path d="M22097 6465
L22326 6454
" />
<path d="M21866 6477
L22097 6465
" />
<path d="M21635 6491
L21866 6477
" />
<path d="M21402 6506
L21635 6491
" />
<path d="M21168 6523
L21402 6506
" />
<path d="M20932 6542
L21168 6523
" />
<path d="M20695 6562
L20932 6542
" />
<path d="M20456 6585
L20695 6562
" />
<path d="M20216 6608
L20456 6585
" />
<path d="M19974 6634
L20216 6608
" />
<path d="M19729 6660
L19974 6634
" />
<path d="M19483 6689
L19729 6660
" />
<path d="M19234 6719
L19483 6689
" />
<path d="M18984 6751
L19234 6719
" />
<path d="M18730 6784
L18984 6751
" />
<path d="M18475 6819
L18730 6784
" />
<path d="M18216 6855
L18475 6819
" />
<path d="M17955 6893
L18216 6855
" />
<path d="M17691 6932
L17955 6893
" />
<path d="M17424 6973
L17691 6932
" />
<path d="M17154 7015
L17424 6973
" />
<path d="M14691 9480
L17154 7015
" />
<path d="M14691 11775
L14691 9480
" />
<path d="M17153 14235
L14691 11775
" />
</g> 
</svg>
