G04 #@! TF.FileFunction,Soldermask,Top*
%FSLAX46Y46*%
G04 Gerber Fmt 4.6, Leading zero omitted, Abs format (unit mm)*
G04 Created by KiCad (PCBNEW 4.0.5-e0-6337~49~ubuntu14.04.1) date Fri May  5 09:40:51 2017*
%MOMM*%
%LPD*%
G01*
G04 APERTURE LIST*
%ADD10C,0.100000*%
%ADD11C,0.140000*%
%ADD12C,0.210000*%
%ADD13C,0.010000*%
%ADD14R,1.000000X0.600000*%
%ADD15R,1.400000X0.700000*%
G04 APERTURE END LIST*
D10*
D11*
X189138095Y-91609524D02*
X188900000Y-91323810D01*
X188709524Y-91609524D02*
X188709524Y-90942857D01*
X188995238Y-90942857D01*
X189090476Y-90990476D01*
X189138095Y-91085714D01*
X189138095Y-91180952D01*
X189090476Y-91276190D01*
X188995238Y-91323810D01*
X188709524Y-91323810D01*
X188900000Y-90609524D02*
X188661905Y-90657143D01*
X188423809Y-90800000D01*
X188280952Y-91038095D01*
X188233333Y-91276190D01*
X188280952Y-91514286D01*
X188423809Y-91752381D01*
X188661905Y-91895238D01*
X188900000Y-91942857D01*
X189138095Y-91895238D01*
X189376190Y-91752381D01*
X189519047Y-91514286D01*
X189566667Y-91276190D01*
X189519047Y-91038095D01*
X189376190Y-90800000D01*
X189138095Y-90657143D01*
X188900000Y-90609524D01*
D12*
X176457143Y-93078571D02*
X176457143Y-91578571D01*
X177314286Y-93078571D01*
X177314286Y-91578571D01*
X178600000Y-93007143D02*
X178457143Y-93078571D01*
X178171429Y-93078571D01*
X178028572Y-93007143D01*
X177957143Y-92864286D01*
X177957143Y-92292857D01*
X178028572Y-92150000D01*
X178171429Y-92078571D01*
X178457143Y-92078571D01*
X178600000Y-92150000D01*
X178671429Y-92292857D01*
X178671429Y-92435714D01*
X177957143Y-92578571D01*
X179957143Y-92078571D02*
X179957143Y-93078571D01*
X179314286Y-92078571D02*
X179314286Y-92864286D01*
X179385714Y-93007143D01*
X179528572Y-93078571D01*
X179742857Y-93078571D01*
X179885714Y-93007143D01*
X179957143Y-92935714D01*
X180671429Y-93078571D02*
X180671429Y-92078571D01*
X180671429Y-92364286D02*
X180742857Y-92221429D01*
X180814286Y-92150000D01*
X180957143Y-92078571D01*
X181100000Y-92078571D01*
X181814286Y-93078571D02*
X181671428Y-93007143D01*
X181600000Y-92935714D01*
X181528571Y-92792857D01*
X181528571Y-92364286D01*
X181600000Y-92221429D01*
X181671428Y-92150000D01*
X181814286Y-92078571D01*
X182028571Y-92078571D01*
X182171428Y-92150000D01*
X182242857Y-92221429D01*
X182314286Y-92364286D01*
X182314286Y-92792857D01*
X182242857Y-92935714D01*
X182171428Y-93007143D01*
X182028571Y-93078571D01*
X181814286Y-93078571D01*
X183457143Y-92292857D02*
X183671429Y-92364286D01*
X183742857Y-92435714D01*
X183814286Y-92578571D01*
X183814286Y-92792857D01*
X183742857Y-92935714D01*
X183671429Y-93007143D01*
X183528571Y-93078571D01*
X182957143Y-93078571D01*
X182957143Y-91578571D01*
X183457143Y-91578571D01*
X183600000Y-91650000D01*
X183671429Y-91721429D01*
X183742857Y-91864286D01*
X183742857Y-92007143D01*
X183671429Y-92150000D01*
X183600000Y-92221429D01*
X183457143Y-92292857D01*
X182957143Y-92292857D01*
X184314286Y-92078571D02*
X184671429Y-93078571D01*
X185028571Y-92078571D02*
X184671429Y-93078571D01*
X184528571Y-93435714D01*
X184457143Y-93507143D01*
X184314286Y-93578571D01*
X185385714Y-92078571D02*
X185957143Y-92078571D01*
X185600000Y-91578571D02*
X185600000Y-92864286D01*
X185671428Y-93007143D01*
X185814286Y-93078571D01*
X185957143Y-93078571D01*
X187028571Y-93007143D02*
X186885714Y-93078571D01*
X186600000Y-93078571D01*
X186457143Y-93007143D01*
X186385714Y-92864286D01*
X186385714Y-92292857D01*
X186457143Y-92150000D01*
X186600000Y-92078571D01*
X186885714Y-92078571D01*
X187028571Y-92150000D01*
X187100000Y-92292857D01*
X187100000Y-92435714D01*
X186385714Y-92578571D01*
X187671428Y-93007143D02*
X187814285Y-93078571D01*
X188100000Y-93078571D01*
X188242857Y-93007143D01*
X188314285Y-92864286D01*
X188314285Y-92792857D01*
X188242857Y-92650000D01*
X188100000Y-92578571D01*
X187885714Y-92578571D01*
X187742857Y-92507143D01*
X187671428Y-92364286D01*
X187671428Y-92292857D01*
X187742857Y-92150000D01*
X187885714Y-92078571D01*
X188100000Y-92078571D01*
X188242857Y-92150000D01*
D13*
G36*
X190252355Y-93783769D02*
X190464040Y-93851718D01*
X190689496Y-93933929D01*
X191566119Y-94268448D01*
X192351029Y-94569219D01*
X193047826Y-94837672D01*
X193660112Y-95075239D01*
X194191490Y-95283352D01*
X194645559Y-95463441D01*
X195025923Y-95616938D01*
X195336181Y-95745274D01*
X195579936Y-95849881D01*
X195760790Y-95932189D01*
X195882343Y-95993631D01*
X195905524Y-96006864D01*
X196145881Y-96174622D01*
X196441999Y-96426330D01*
X196794161Y-96762232D01*
X196896124Y-96864591D01*
X197155943Y-97121409D01*
X197374853Y-97324668D01*
X197545011Y-97467509D01*
X197658575Y-97543073D01*
X197682103Y-97552029D01*
X197820306Y-97560949D01*
X197983276Y-97520464D01*
X198181685Y-97425135D01*
X198426204Y-97269525D01*
X198727503Y-97048195D01*
X198835600Y-96964214D01*
X199130142Y-96740073D01*
X199373674Y-96576634D01*
X199589560Y-96465380D01*
X199801163Y-96397796D01*
X200031845Y-96365363D01*
X200304969Y-96359566D01*
X200480481Y-96364596D01*
X200728965Y-96377428D01*
X200911656Y-96398576D01*
X201064359Y-96436304D01*
X201222881Y-96498880D01*
X201375600Y-96571233D01*
X201748005Y-96778912D01*
X202049739Y-97009727D01*
X202297803Y-97282773D01*
X202509195Y-97617145D01*
X202700917Y-98031938D01*
X202721340Y-98082800D01*
X202844653Y-98387479D01*
X202946205Y-98618519D01*
X203038539Y-98797913D01*
X203134201Y-98947654D01*
X203245733Y-99089736D01*
X203383557Y-99243860D01*
X203695204Y-99529771D01*
X204006933Y-99714118D01*
X204319115Y-99796935D01*
X204632122Y-99778258D01*
X204946323Y-99658123D01*
X205262092Y-99436564D01*
X205277217Y-99423446D01*
X205393895Y-99307113D01*
X205554871Y-99126691D01*
X205744837Y-98900368D01*
X205948483Y-98646332D01*
X206128316Y-98412349D01*
X206409344Y-98045586D01*
X206642039Y-97758058D01*
X206832655Y-97543310D01*
X206987447Y-97394888D01*
X207112669Y-97306337D01*
X207214578Y-97271203D01*
X207235272Y-97270000D01*
X207363383Y-97308925D01*
X207471335Y-97402765D01*
X207520987Y-97517116D01*
X207521284Y-97528000D01*
X207500474Y-97631886D01*
X207437552Y-97774932D01*
X207327748Y-97964767D01*
X207166296Y-98209023D01*
X206948428Y-98515331D01*
X206670098Y-98890362D01*
X206336725Y-99343334D01*
X206069523Y-99732260D01*
X205864998Y-100067051D01*
X205719657Y-100357619D01*
X205630008Y-100613875D01*
X205592557Y-100845729D01*
X205603811Y-101063092D01*
X205660279Y-101275876D01*
X205754899Y-101487186D01*
X205840235Y-101636523D01*
X205971330Y-101848364D01*
X206135100Y-102102387D01*
X206318466Y-102378268D01*
X206490638Y-102630186D01*
X206677155Y-102903196D01*
X206852932Y-103167813D01*
X207005797Y-103405155D01*
X207123579Y-103596344D01*
X207191687Y-103717621D01*
X207296110Y-103974730D01*
X207332789Y-104187908D01*
X207300887Y-104345910D01*
X207243525Y-104413297D01*
X207125234Y-104472585D01*
X207002681Y-104465730D01*
X206851896Y-104387996D01*
X206752012Y-104316192D01*
X206647145Y-104229732D01*
X206536963Y-104124283D01*
X206416692Y-103993222D01*
X206281558Y-103829929D01*
X206126786Y-103627782D01*
X205947601Y-103380162D01*
X205739231Y-103080445D01*
X205496900Y-102722013D01*
X205215835Y-102298242D01*
X204891260Y-101802513D01*
X204518402Y-101228205D01*
X204457627Y-101134273D01*
X204165476Y-100731179D01*
X203864017Y-100407557D01*
X203559784Y-100168470D01*
X203259307Y-100018977D01*
X202969119Y-99964138D01*
X202947061Y-99963988D01*
X202856496Y-99967727D01*
X202767730Y-99981628D01*
X202666617Y-100011755D01*
X202539013Y-100064170D01*
X202370776Y-100144935D01*
X202147761Y-100260113D01*
X201855825Y-100415766D01*
X201710288Y-100494113D01*
X201468615Y-100622002D01*
X201288442Y-100708420D01*
X201143140Y-100762449D01*
X201006081Y-100793176D01*
X200850638Y-100809683D01*
X200770488Y-100814730D01*
X200314281Y-100798185D01*
X199863921Y-100693209D01*
X199401704Y-100495606D01*
X199382998Y-100485862D01*
X199052790Y-100275009D01*
X198780965Y-100012514D01*
X198548627Y-99678328D01*
X198450572Y-99496529D01*
X198276150Y-99169003D01*
X198122699Y-98926160D01*
X197980969Y-98755677D01*
X197841712Y-98645237D01*
X197791167Y-98618165D01*
X197719958Y-98587182D01*
X197648246Y-98567153D01*
X197559206Y-98558458D01*
X197436009Y-98561477D01*
X197261827Y-98576590D01*
X197019833Y-98604177D01*
X196709378Y-98642589D01*
X195808974Y-98736899D01*
X194968881Y-98783631D01*
X194159382Y-98782294D01*
X193350758Y-98732399D01*
X192513292Y-98633455D01*
X192079200Y-98566223D01*
X191580963Y-98486139D01*
X191066582Y-98408684D01*
X190512400Y-98330476D01*
X189894764Y-98248134D01*
X189488400Y-98195912D01*
X189409201Y-98186924D01*
X189315718Y-98178587D01*
X189203963Y-98170867D01*
X189069947Y-98163734D01*
X188909682Y-98157155D01*
X188719179Y-98151099D01*
X188494449Y-98145534D01*
X188231505Y-98140428D01*
X187926357Y-98135750D01*
X187575018Y-98131467D01*
X187173498Y-98127548D01*
X186717809Y-98123961D01*
X186203962Y-98120675D01*
X185627970Y-98117658D01*
X184985843Y-98114877D01*
X184273594Y-98112302D01*
X183487232Y-98109900D01*
X182622771Y-98107640D01*
X181676221Y-98105489D01*
X180643595Y-98103417D01*
X179520902Y-98101391D01*
X178304156Y-98099380D01*
X177136318Y-98097573D01*
X175844256Y-98095584D01*
X174649961Y-98093645D01*
X173549598Y-98091722D01*
X172539334Y-98089783D01*
X171615335Y-98087795D01*
X170773767Y-98085726D01*
X170010797Y-98083544D01*
X169322590Y-98081214D01*
X168705313Y-98078706D01*
X168155132Y-98075986D01*
X167668214Y-98073022D01*
X167240724Y-98069781D01*
X166868829Y-98066230D01*
X166548696Y-98062337D01*
X166276490Y-98058069D01*
X166048377Y-98053394D01*
X165860524Y-98048279D01*
X165709098Y-98042692D01*
X165590264Y-98036599D01*
X165500188Y-98029969D01*
X165435037Y-98022768D01*
X165390978Y-98014964D01*
X165364175Y-98006524D01*
X165350797Y-97997416D01*
X165350718Y-97997321D01*
X165332458Y-97956782D01*
X165317565Y-97877651D01*
X165305741Y-97751187D01*
X165296689Y-97568649D01*
X165290109Y-97321296D01*
X165285704Y-97000388D01*
X165284383Y-96789667D01*
X165519476Y-96789667D01*
X165519923Y-97138531D01*
X165521696Y-97432603D01*
X165524728Y-97660011D01*
X165528947Y-97808886D01*
X165533950Y-97866656D01*
X165599508Y-97924718D01*
X165698110Y-97910503D01*
X165754640Y-97869439D01*
X165769036Y-97805757D01*
X165781678Y-97654673D01*
X165792505Y-97430372D01*
X165801454Y-97147038D01*
X165808464Y-96818855D01*
X165813474Y-96460008D01*
X165816422Y-96084681D01*
X165817247Y-95707058D01*
X165816924Y-95620050D01*
X166016890Y-95620050D01*
X166017331Y-95996311D01*
X166019952Y-96373610D01*
X166024684Y-96737759D01*
X166031462Y-97074566D01*
X166040217Y-97369843D01*
X166050882Y-97609400D01*
X166063391Y-97779048D01*
X166077675Y-97864596D01*
X166081242Y-97870922D01*
X166176937Y-97932641D01*
X166246973Y-97899207D01*
X166292338Y-97769300D01*
X166313221Y-97561574D01*
X166323563Y-97379914D01*
X166340641Y-97277337D01*
X166373629Y-97231353D01*
X166431704Y-97219476D01*
X166452921Y-97219200D01*
X166519835Y-97225244D01*
X166557175Y-97258633D01*
X166573540Y-97342249D01*
X166577529Y-97498977D01*
X166577600Y-97550994D01*
X166583349Y-97741453D01*
X166603950Y-97852689D01*
X166644431Y-97906601D01*
X166661146Y-97914848D01*
X166757611Y-97907547D01*
X166830495Y-97812293D01*
X166873477Y-97641254D01*
X166882400Y-97488890D01*
X166887135Y-97330867D01*
X166907474Y-97249829D01*
X166952612Y-97221363D01*
X166984000Y-97219200D01*
X167041206Y-97230549D01*
X167071859Y-97280222D01*
X167083932Y-97391654D01*
X167085600Y-97517779D01*
X167104944Y-97743393D01*
X167161925Y-97879968D01*
X167254965Y-97924772D01*
X167313553Y-97912277D01*
X167358245Y-97866153D01*
X167382511Y-97758375D01*
X167390361Y-97570083D01*
X167390400Y-97550994D01*
X167392671Y-97372921D01*
X167405217Y-97273552D01*
X167436638Y-97230002D01*
X167495532Y-97219388D01*
X167515078Y-97219200D01*
X167581477Y-97225701D01*
X167620341Y-97260188D01*
X167640826Y-97345130D01*
X167652086Y-97503001D01*
X167654778Y-97562100D01*
X167666099Y-97745443D01*
X167684834Y-97849098D01*
X167718436Y-97894975D01*
X167771400Y-97905000D01*
X167826210Y-97893900D01*
X167859021Y-97845994D01*
X167877285Y-97739370D01*
X167888021Y-97562100D01*
X167898350Y-97380269D01*
X167915389Y-97277538D01*
X167948294Y-97231433D01*
X168006220Y-97219485D01*
X168027721Y-97219200D01*
X168097384Y-97226141D01*
X168134684Y-97263010D01*
X168149673Y-97353877D01*
X168152400Y-97517779D01*
X168171744Y-97743393D01*
X168228725Y-97879968D01*
X168321765Y-97924772D01*
X168380353Y-97912277D01*
X168425045Y-97866153D01*
X168449311Y-97758375D01*
X168457161Y-97570083D01*
X168457200Y-97550994D01*
X168459471Y-97372921D01*
X168472017Y-97273552D01*
X168503438Y-97230002D01*
X168562332Y-97219388D01*
X168581878Y-97219200D01*
X168648277Y-97225701D01*
X168687141Y-97260188D01*
X168707626Y-97345130D01*
X168718886Y-97503001D01*
X168721578Y-97562100D01*
X168732899Y-97745443D01*
X168751634Y-97849098D01*
X168785236Y-97894975D01*
X168838200Y-97905000D01*
X168893010Y-97893900D01*
X168925821Y-97845994D01*
X168944085Y-97739370D01*
X168954821Y-97562100D01*
X168965150Y-97380269D01*
X168982189Y-97277538D01*
X169015094Y-97231433D01*
X169073020Y-97219485D01*
X169094521Y-97219200D01*
X169164790Y-97226389D01*
X169202166Y-97264167D01*
X169217093Y-97356854D01*
X169219977Y-97511300D01*
X169231323Y-97732199D01*
X169267424Y-97865157D01*
X169333525Y-97921938D01*
X169403087Y-97922173D01*
X169455703Y-97896744D01*
X169487577Y-97830359D01*
X169505613Y-97700502D01*
X169513621Y-97561574D01*
X169524042Y-97379840D01*
X169541243Y-97277216D01*
X169574236Y-97231238D01*
X169632036Y-97219441D01*
X169651000Y-97219200D01*
X169716208Y-97226037D01*
X169754437Y-97261516D01*
X169774679Y-97348085D01*
X169785928Y-97508192D01*
X169788378Y-97562100D01*
X169799699Y-97745443D01*
X169818434Y-97849098D01*
X169852036Y-97894975D01*
X169905000Y-97905000D01*
X169931216Y-97902327D01*
X169952575Y-97887907D01*
X169969662Y-97852134D01*
X169983058Y-97785404D01*
X169993348Y-97678114D01*
X170001114Y-97520657D01*
X170006940Y-97303431D01*
X170011409Y-97016829D01*
X170013710Y-96789145D01*
X170294676Y-96789145D01*
X170295122Y-97138095D01*
X170296895Y-97432258D01*
X170299924Y-97659765D01*
X170304142Y-97808750D01*
X170309150Y-97866656D01*
X170373946Y-97926693D01*
X170467018Y-97922224D01*
X170545854Y-97861617D01*
X170565903Y-97816100D01*
X170572028Y-97739753D01*
X170576883Y-97574313D01*
X170580378Y-97332283D01*
X170582421Y-97026161D01*
X170582923Y-96668449D01*
X170581794Y-96271648D01*
X170579982Y-95988000D01*
X170844800Y-95988000D01*
X170845733Y-96414884D01*
X170848392Y-96809553D01*
X170852561Y-97160525D01*
X170858026Y-97456320D01*
X170864574Y-97685457D01*
X170871990Y-97836455D01*
X170880061Y-97897832D01*
X170880422Y-97898289D01*
X170956133Y-97921762D01*
X170994722Y-97918760D01*
X171015285Y-97905333D01*
X171031979Y-97867490D01*
X171045195Y-97795810D01*
X171055326Y-97680874D01*
X171062763Y-97513265D01*
X171067895Y-97283562D01*
X171071116Y-96982347D01*
X171071975Y-96789145D01*
X171361476Y-96789145D01*
X171361922Y-97138095D01*
X171363695Y-97432258D01*
X171366724Y-97659765D01*
X171370942Y-97808750D01*
X171375950Y-97866656D01*
X171441010Y-97924454D01*
X171537006Y-97911900D01*
X171601228Y-97860912D01*
X171617763Y-97805241D01*
X171630621Y-97678989D01*
X171639931Y-97476738D01*
X171645819Y-97193069D01*
X171648412Y-96822562D01*
X171647837Y-96359799D01*
X171645662Y-95988000D01*
X171911600Y-95988000D01*
X171912533Y-96414884D01*
X171915192Y-96809553D01*
X171919361Y-97160525D01*
X171924826Y-97456320D01*
X171931374Y-97685457D01*
X171938790Y-97836455D01*
X171946861Y-97897832D01*
X171947222Y-97898289D01*
X172022933Y-97921762D01*
X172061522Y-97918760D01*
X172082085Y-97905333D01*
X172098779Y-97867490D01*
X172111995Y-97795810D01*
X172122126Y-97680874D01*
X172129563Y-97513265D01*
X172134695Y-97283562D01*
X172137916Y-96982347D01*
X172138773Y-96789667D01*
X172428276Y-96789667D01*
X172428723Y-97138531D01*
X172430496Y-97432603D01*
X172433528Y-97660011D01*
X172437747Y-97808886D01*
X172442750Y-97866656D01*
X172508308Y-97924718D01*
X172606910Y-97910503D01*
X172663440Y-97869439D01*
X172677836Y-97805757D01*
X172690478Y-97654673D01*
X172701305Y-97430372D01*
X172710254Y-97147038D01*
X172717264Y-96818855D01*
X172722274Y-96460008D01*
X172725222Y-96084681D01*
X172725944Y-95754034D01*
X172926669Y-95754034D01*
X172928277Y-96130358D01*
X172931714Y-96502784D01*
X172936893Y-96856708D01*
X172943727Y-97177527D01*
X172952128Y-97450637D01*
X172962010Y-97661434D01*
X172973285Y-97795314D01*
X172981827Y-97835204D01*
X173057981Y-97908898D01*
X173121527Y-97920069D01*
X173143744Y-97909042D01*
X173161767Y-97878980D01*
X173176031Y-97820283D01*
X173186968Y-97723349D01*
X173195010Y-97578577D01*
X173200592Y-97376367D01*
X173204145Y-97107116D01*
X173205941Y-96789667D01*
X173495076Y-96789667D01*
X173495523Y-97138531D01*
X173497296Y-97432603D01*
X173500328Y-97660011D01*
X173504547Y-97808886D01*
X173509550Y-97866656D01*
X173575108Y-97924718D01*
X173673710Y-97910503D01*
X173730240Y-97869439D01*
X173744636Y-97805757D01*
X173757278Y-97654673D01*
X173768105Y-97430372D01*
X173777054Y-97147038D01*
X173784064Y-96818855D01*
X173789074Y-96460008D01*
X173792022Y-96084681D01*
X173792145Y-96027940D01*
X173995177Y-96027940D01*
X173995414Y-96521365D01*
X173997257Y-96922464D01*
X174001693Y-97240507D01*
X174009710Y-97484765D01*
X174022296Y-97664509D01*
X174040438Y-97789010D01*
X174065123Y-97867539D01*
X174097339Y-97909368D01*
X174138073Y-97923767D01*
X174188313Y-97920007D01*
X174196542Y-97918486D01*
X174216770Y-97904426D01*
X174233195Y-97864574D01*
X174246199Y-97789567D01*
X174256166Y-97670042D01*
X174263476Y-97496636D01*
X174268512Y-97259986D01*
X174271656Y-96950728D01*
X174272328Y-96789667D01*
X174561876Y-96789667D01*
X174562323Y-97138531D01*
X174564096Y-97432603D01*
X174567128Y-97660011D01*
X174571347Y-97808886D01*
X174576350Y-97866656D01*
X174641908Y-97924718D01*
X174740510Y-97910503D01*
X174797040Y-97869439D01*
X174811436Y-97805757D01*
X174824078Y-97654673D01*
X174834905Y-97430372D01*
X174843854Y-97147038D01*
X174850864Y-96818855D01*
X174855874Y-96460008D01*
X174858822Y-96084681D01*
X174858945Y-96027940D01*
X175061977Y-96027940D01*
X175062214Y-96521365D01*
X175064057Y-96922464D01*
X175068493Y-97240507D01*
X175076510Y-97484765D01*
X175089096Y-97664509D01*
X175107238Y-97789010D01*
X175131923Y-97867539D01*
X175164139Y-97909368D01*
X175204873Y-97923767D01*
X175255113Y-97920007D01*
X175263342Y-97918486D01*
X175283570Y-97904426D01*
X175299995Y-97864574D01*
X175312999Y-97789567D01*
X175322966Y-97670042D01*
X175330276Y-97496636D01*
X175335312Y-97259986D01*
X175338456Y-96950728D01*
X175339128Y-96789667D01*
X175628676Y-96789667D01*
X175629123Y-97138531D01*
X175630896Y-97432603D01*
X175633928Y-97660011D01*
X175638147Y-97808886D01*
X175643150Y-97866656D01*
X175706247Y-97925309D01*
X175795671Y-97911257D01*
X175872212Y-97832139D01*
X175885112Y-97758310D01*
X175896236Y-97597937D01*
X175905553Y-97365462D01*
X175913034Y-97075325D01*
X175918648Y-96741967D01*
X175922365Y-96379829D01*
X175924039Y-96027940D01*
X176128777Y-96027940D01*
X176129014Y-96521365D01*
X176130857Y-96922464D01*
X176135293Y-97240507D01*
X176143310Y-97484765D01*
X176155896Y-97664509D01*
X176174038Y-97789010D01*
X176198723Y-97867539D01*
X176230939Y-97909368D01*
X176271673Y-97923767D01*
X176321913Y-97920007D01*
X176330142Y-97918486D01*
X176350370Y-97904426D01*
X176366795Y-97864574D01*
X176379799Y-97789567D01*
X176389766Y-97670042D01*
X176397076Y-97496636D01*
X176402112Y-97259986D01*
X176405256Y-96950728D01*
X176405928Y-96789705D01*
X176695626Y-96789705D01*
X176696245Y-97139158D01*
X176698246Y-97433930D01*
X176701549Y-97662121D01*
X176706075Y-97811833D01*
X176711391Y-97870410D01*
X176775522Y-97919605D01*
X176826346Y-97920770D01*
X176849410Y-97910512D01*
X176868271Y-97883086D01*
X176883442Y-97828888D01*
X176895438Y-97738312D01*
X176904772Y-97601752D01*
X176911960Y-97409604D01*
X176917515Y-97152263D01*
X176921151Y-96880017D01*
X177202718Y-96880017D01*
X177204915Y-97206135D01*
X177211117Y-97458025D01*
X177222196Y-97644808D01*
X177239024Y-97775604D01*
X177262472Y-97859533D01*
X177293413Y-97905718D01*
X177332719Y-97923278D01*
X177381262Y-97921334D01*
X177393328Y-97919183D01*
X177414419Y-97906634D01*
X177431536Y-97871601D01*
X177445087Y-97804591D01*
X177455475Y-97696111D01*
X177463106Y-97536669D01*
X177468385Y-97316774D01*
X177471718Y-97026931D01*
X177472868Y-96789705D01*
X177762426Y-96789705D01*
X177763045Y-97139158D01*
X177765046Y-97433930D01*
X177768349Y-97662121D01*
X177772875Y-97811833D01*
X177778191Y-97870410D01*
X177842322Y-97919605D01*
X177893146Y-97920770D01*
X177916210Y-97910512D01*
X177935071Y-97883086D01*
X177950242Y-97828888D01*
X177962238Y-97738312D01*
X177971572Y-97601752D01*
X177978760Y-97409604D01*
X177984315Y-97152263D01*
X177988751Y-96820122D01*
X177989535Y-96734800D01*
X178269537Y-96734800D01*
X178270420Y-97084834D01*
X178272860Y-97381184D01*
X178276761Y-97611319D01*
X178282029Y-97762709D01*
X178287324Y-97819397D01*
X178338347Y-97909267D01*
X178428495Y-97920997D01*
X178541000Y-97905000D01*
X178541000Y-94145800D01*
X178287000Y-94145800D01*
X178272828Y-95923800D01*
X178270308Y-96343612D01*
X178269537Y-96734800D01*
X177989535Y-96734800D01*
X177992583Y-96403578D01*
X177995521Y-96008401D01*
X178008792Y-94120400D01*
X178820400Y-94120400D01*
X178820400Y-95991533D01*
X178821335Y-96418005D01*
X178823998Y-96812253D01*
X178828174Y-97162786D01*
X178833649Y-97458111D01*
X178840207Y-97686736D01*
X178847635Y-97837167D01*
X178855716Y-97897914D01*
X178856022Y-97898289D01*
X178931735Y-97921769D01*
X178970322Y-97918772D01*
X178990906Y-97905057D01*
X179007825Y-97866357D01*
X179021532Y-97793307D01*
X179032479Y-97676544D01*
X179041118Y-97506706D01*
X179047899Y-97274429D01*
X179053276Y-96970350D01*
X179055356Y-96789145D01*
X179337076Y-96789145D01*
X179337522Y-97138095D01*
X179339295Y-97432258D01*
X179342324Y-97659765D01*
X179346542Y-97808750D01*
X179351550Y-97866656D01*
X179416346Y-97926693D01*
X179509418Y-97922224D01*
X179588254Y-97861617D01*
X179608303Y-97816100D01*
X179614428Y-97739753D01*
X179619283Y-97574313D01*
X179622778Y-97332283D01*
X179624821Y-97026161D01*
X179625323Y-96668449D01*
X179624194Y-96271648D01*
X179622382Y-95988000D01*
X179887200Y-95988000D01*
X179888133Y-96414884D01*
X179890792Y-96809553D01*
X179894961Y-97160525D01*
X179900426Y-97456320D01*
X179906974Y-97685457D01*
X179914390Y-97836455D01*
X179922461Y-97897832D01*
X179922822Y-97898289D01*
X179998533Y-97921762D01*
X180037122Y-97918760D01*
X180057685Y-97905333D01*
X180074379Y-97867490D01*
X180087595Y-97795810D01*
X180097726Y-97680874D01*
X180105163Y-97513265D01*
X180110295Y-97283562D01*
X180113516Y-96982347D01*
X180114375Y-96789145D01*
X180403876Y-96789145D01*
X180404322Y-97138095D01*
X180406095Y-97432258D01*
X180409124Y-97659765D01*
X180413342Y-97808750D01*
X180418350Y-97866656D01*
X180483410Y-97924454D01*
X180579406Y-97911900D01*
X180643628Y-97860912D01*
X180660163Y-97805241D01*
X180673021Y-97678989D01*
X180682331Y-97476738D01*
X180688219Y-97193069D01*
X180690812Y-96822562D01*
X180690237Y-96359799D01*
X180688062Y-95988000D01*
X180954000Y-95988000D01*
X180954933Y-96414884D01*
X180957592Y-96809553D01*
X180961761Y-97160525D01*
X180967226Y-97456320D01*
X180973774Y-97685457D01*
X180981190Y-97836455D01*
X180989261Y-97897832D01*
X180989622Y-97898289D01*
X181065333Y-97921762D01*
X181103922Y-97918760D01*
X181124485Y-97905333D01*
X181141179Y-97867490D01*
X181154395Y-97795810D01*
X181164526Y-97680874D01*
X181171963Y-97513265D01*
X181177095Y-97283562D01*
X181180316Y-96982347D01*
X181181173Y-96789667D01*
X181470676Y-96789667D01*
X181471123Y-97138531D01*
X181472896Y-97432603D01*
X181475928Y-97660011D01*
X181480147Y-97808886D01*
X181485150Y-97866656D01*
X181550708Y-97924718D01*
X181649310Y-97910503D01*
X181705840Y-97869439D01*
X181720236Y-97805757D01*
X181732878Y-97654673D01*
X181743705Y-97430372D01*
X181752654Y-97147038D01*
X181759664Y-96818855D01*
X181764674Y-96460008D01*
X181767622Y-96084681D01*
X181768344Y-95754034D01*
X181969069Y-95754034D01*
X181970677Y-96130358D01*
X181974114Y-96502784D01*
X181979293Y-96856708D01*
X181986127Y-97177527D01*
X181994528Y-97450637D01*
X182004410Y-97661434D01*
X182015685Y-97795314D01*
X182024227Y-97835204D01*
X182100381Y-97908898D01*
X182163927Y-97920069D01*
X182186144Y-97909042D01*
X182204167Y-97878980D01*
X182218431Y-97820283D01*
X182229368Y-97723349D01*
X182237410Y-97578577D01*
X182242992Y-97376367D01*
X182246545Y-97107116D01*
X182248341Y-96789667D01*
X182537476Y-96789667D01*
X182537923Y-97138531D01*
X182539696Y-97432603D01*
X182542728Y-97660011D01*
X182546947Y-97808886D01*
X182551950Y-97866656D01*
X182617508Y-97924718D01*
X182716110Y-97910503D01*
X182772640Y-97869439D01*
X182787036Y-97805757D01*
X182799678Y-97654673D01*
X182810505Y-97430372D01*
X182819454Y-97147038D01*
X182826464Y-96818855D01*
X182831474Y-96460008D01*
X182834422Y-96084681D01*
X182834545Y-96027940D01*
X183037577Y-96027940D01*
X183037814Y-96521365D01*
X183039657Y-96922464D01*
X183044093Y-97240507D01*
X183052110Y-97484765D01*
X183064696Y-97664509D01*
X183082838Y-97789010D01*
X183107523Y-97867539D01*
X183139739Y-97909368D01*
X183180473Y-97923767D01*
X183230713Y-97920007D01*
X183238942Y-97918486D01*
X183259170Y-97904426D01*
X183275595Y-97864574D01*
X183288599Y-97789567D01*
X183298566Y-97670042D01*
X183305876Y-97496636D01*
X183310912Y-97259986D01*
X183314056Y-96950728D01*
X183314728Y-96789667D01*
X183604276Y-96789667D01*
X183604723Y-97138531D01*
X183606496Y-97432603D01*
X183609528Y-97660011D01*
X183613747Y-97808886D01*
X183618750Y-97866656D01*
X183684308Y-97924718D01*
X183782910Y-97910503D01*
X183839440Y-97869439D01*
X183853836Y-97805757D01*
X183866478Y-97654673D01*
X183877305Y-97430372D01*
X183886254Y-97147038D01*
X183893264Y-96818855D01*
X183898274Y-96460008D01*
X183901222Y-96084681D01*
X183901345Y-96027940D01*
X184104377Y-96027940D01*
X184104614Y-96521365D01*
X184106457Y-96922464D01*
X184110893Y-97240507D01*
X184118910Y-97484765D01*
X184131496Y-97664509D01*
X184149638Y-97789010D01*
X184174323Y-97867539D01*
X184206539Y-97909368D01*
X184247273Y-97923767D01*
X184297513Y-97920007D01*
X184305742Y-97918486D01*
X184325970Y-97904426D01*
X184342395Y-97864574D01*
X184355399Y-97789567D01*
X184365366Y-97670042D01*
X184372676Y-97496636D01*
X184377712Y-97259986D01*
X184380856Y-96950728D01*
X184381528Y-96789667D01*
X184671076Y-96789667D01*
X184671523Y-97138531D01*
X184673296Y-97432603D01*
X184676328Y-97660011D01*
X184680547Y-97808886D01*
X184685550Y-97866656D01*
X184748647Y-97925309D01*
X184838071Y-97911257D01*
X184914612Y-97832139D01*
X184927512Y-97758310D01*
X184938636Y-97597937D01*
X184947953Y-97365462D01*
X184955434Y-97075325D01*
X184961048Y-96741967D01*
X184964765Y-96379829D01*
X184966439Y-96027940D01*
X185171177Y-96027940D01*
X185171414Y-96521365D01*
X185173257Y-96922464D01*
X185177693Y-97240507D01*
X185185710Y-97484765D01*
X185198296Y-97664509D01*
X185216438Y-97789010D01*
X185241123Y-97867539D01*
X185273339Y-97909368D01*
X185314073Y-97923767D01*
X185364313Y-97920007D01*
X185372542Y-97918486D01*
X185392770Y-97904426D01*
X185409195Y-97864574D01*
X185422199Y-97789567D01*
X185432166Y-97670042D01*
X185439476Y-97496636D01*
X185444512Y-97259986D01*
X185447656Y-96950728D01*
X185448328Y-96789705D01*
X185738026Y-96789705D01*
X185738645Y-97139158D01*
X185740646Y-97433930D01*
X185743949Y-97662121D01*
X185748475Y-97811833D01*
X185753791Y-97870410D01*
X185817922Y-97919605D01*
X185868746Y-97920770D01*
X185891810Y-97910512D01*
X185910671Y-97883086D01*
X185925842Y-97828888D01*
X185937838Y-97738312D01*
X185947172Y-97601752D01*
X185954360Y-97409604D01*
X185959915Y-97152263D01*
X185963551Y-96880017D01*
X186245118Y-96880017D01*
X186247315Y-97206135D01*
X186253517Y-97458025D01*
X186264596Y-97644808D01*
X186281424Y-97775604D01*
X186304872Y-97859533D01*
X186335813Y-97905718D01*
X186375119Y-97923278D01*
X186423662Y-97921334D01*
X186435728Y-97919183D01*
X186456819Y-97906634D01*
X186473936Y-97871601D01*
X186487487Y-97804591D01*
X186497875Y-97696111D01*
X186505506Y-97536669D01*
X186510785Y-97316774D01*
X186514118Y-97026931D01*
X186515268Y-96789705D01*
X186804826Y-96789705D01*
X186805445Y-97139158D01*
X186807446Y-97433930D01*
X186810749Y-97662121D01*
X186815275Y-97811833D01*
X186820591Y-97870410D01*
X186884722Y-97919605D01*
X186935546Y-97920770D01*
X186958610Y-97910512D01*
X186977471Y-97883086D01*
X186992642Y-97828888D01*
X187004638Y-97738312D01*
X187013972Y-97601752D01*
X187021160Y-97409604D01*
X187026715Y-97152263D01*
X187031151Y-96820122D01*
X187034983Y-96403578D01*
X187037921Y-96008401D01*
X187051243Y-94113170D01*
X186936321Y-94129485D01*
X186821400Y-94145800D01*
X186808044Y-95974356D01*
X186805666Y-96397471D01*
X186804826Y-96789705D01*
X186515268Y-96789705D01*
X186515909Y-96657650D01*
X186516564Y-96199438D01*
X186516600Y-96024704D01*
X186516600Y-94145800D01*
X186262600Y-94145800D01*
X186249251Y-95968612D01*
X186246054Y-96470550D01*
X186245118Y-96880017D01*
X185963551Y-96880017D01*
X185964351Y-96820122D01*
X185968183Y-96403578D01*
X185971121Y-96008401D01*
X185984443Y-94113170D01*
X185869521Y-94129485D01*
X185754600Y-94145800D01*
X185741244Y-95974356D01*
X185738866Y-96397471D01*
X185738026Y-96789705D01*
X185448328Y-96789705D01*
X185449290Y-96559498D01*
X185449796Y-96076935D01*
X185449800Y-96025400D01*
X185449597Y-95538911D01*
X185448664Y-95144304D01*
X185446510Y-94831863D01*
X185442647Y-94591871D01*
X185436584Y-94414609D01*
X185427834Y-94290362D01*
X185415905Y-94209411D01*
X185400309Y-94162040D01*
X185380557Y-94138532D01*
X185356159Y-94129169D01*
X185354287Y-94128797D01*
X185254067Y-94144825D01*
X185215365Y-94178901D01*
X185205211Y-94244188D01*
X185195856Y-94398989D01*
X185187589Y-94631220D01*
X185180699Y-94928798D01*
X185175475Y-95279637D01*
X185172205Y-95671654D01*
X185171177Y-96027940D01*
X184966439Y-96027940D01*
X184966556Y-96003351D01*
X184966389Y-95626975D01*
X184964235Y-95265140D01*
X184960064Y-94932289D01*
X184953845Y-94642860D01*
X184945549Y-94411296D01*
X184935145Y-94252036D01*
X184922604Y-94179522D01*
X184922234Y-94178901D01*
X184841848Y-94129786D01*
X184783312Y-94128784D01*
X184758233Y-94137833D01*
X184737847Y-94160913D01*
X184721574Y-94207872D01*
X184708832Y-94288557D01*
X184699041Y-94412816D01*
X184691620Y-94590494D01*
X184685989Y-94831439D01*
X184681567Y-95145499D01*
X184677773Y-95542521D01*
X184674444Y-95975039D01*
X184672027Y-96397879D01*
X184671076Y-96789667D01*
X184381528Y-96789667D01*
X184382490Y-96559498D01*
X184382996Y-96076935D01*
X184383000Y-96025400D01*
X184382797Y-95538911D01*
X184381864Y-95144304D01*
X184379710Y-94831863D01*
X184375847Y-94591871D01*
X184369784Y-94414609D01*
X184361034Y-94290362D01*
X184349105Y-94209411D01*
X184333509Y-94162040D01*
X184313757Y-94138532D01*
X184289359Y-94129169D01*
X184287487Y-94128797D01*
X184187267Y-94144825D01*
X184148565Y-94178901D01*
X184138411Y-94244188D01*
X184129056Y-94398989D01*
X184120789Y-94631220D01*
X184113899Y-94928798D01*
X184108675Y-95279637D01*
X184105405Y-95671654D01*
X184104377Y-96027940D01*
X183901345Y-96027940D01*
X183902047Y-95707058D01*
X183900688Y-95341323D01*
X183897082Y-95001661D01*
X183891168Y-94702256D01*
X183882886Y-94457293D01*
X183872172Y-94280955D01*
X183858967Y-94187427D01*
X183855434Y-94178901D01*
X183775048Y-94129786D01*
X183716512Y-94128784D01*
X183691433Y-94137833D01*
X183671047Y-94160913D01*
X183654774Y-94207872D01*
X183642032Y-94288557D01*
X183632241Y-94412816D01*
X183624820Y-94590494D01*
X183619189Y-94831439D01*
X183614767Y-95145499D01*
X183610973Y-95542521D01*
X183607644Y-95975039D01*
X183605227Y-96397879D01*
X183604276Y-96789667D01*
X183314728Y-96789667D01*
X183315690Y-96559498D01*
X183316196Y-96076935D01*
X183316200Y-96025400D01*
X183315997Y-95538911D01*
X183315064Y-95144304D01*
X183312910Y-94831863D01*
X183309047Y-94591871D01*
X183302984Y-94414609D01*
X183294234Y-94290362D01*
X183282305Y-94209411D01*
X183266709Y-94162040D01*
X183246957Y-94138532D01*
X183222559Y-94129169D01*
X183220687Y-94128797D01*
X183120467Y-94144825D01*
X183081765Y-94178901D01*
X183071611Y-94244188D01*
X183062256Y-94398989D01*
X183053989Y-94631220D01*
X183047099Y-94928798D01*
X183041875Y-95279637D01*
X183038605Y-95671654D01*
X183037577Y-96027940D01*
X182834545Y-96027940D01*
X182835247Y-95707058D01*
X182833888Y-95341323D01*
X182830282Y-95001661D01*
X182824368Y-94702256D01*
X182816086Y-94457293D01*
X182805372Y-94280955D01*
X182792167Y-94187427D01*
X182788634Y-94178901D01*
X182708248Y-94129786D01*
X182649712Y-94128784D01*
X182624633Y-94137833D01*
X182604247Y-94160913D01*
X182587974Y-94207872D01*
X182575232Y-94288557D01*
X182565441Y-94412816D01*
X182558020Y-94590494D01*
X182552389Y-94831439D01*
X182547967Y-95145499D01*
X182544173Y-95542521D01*
X182540844Y-95975039D01*
X182538427Y-96397879D01*
X182537476Y-96789667D01*
X182248341Y-96789667D01*
X182248503Y-96761224D01*
X182249300Y-96329090D01*
X182249400Y-96024704D01*
X182249302Y-95538766D01*
X182248642Y-95144704D01*
X182246865Y-94832794D01*
X182243420Y-94593311D01*
X182237753Y-94416530D01*
X182229313Y-94292728D01*
X182217545Y-94212181D01*
X182201897Y-94165164D01*
X182181817Y-94141952D01*
X182156751Y-94132822D01*
X182141721Y-94130434D01*
X182045729Y-94150937D01*
X182002715Y-94232034D01*
X181991518Y-94325070D01*
X181982672Y-94501830D01*
X181976092Y-94747710D01*
X181971689Y-95048106D01*
X181969378Y-95388415D01*
X181969069Y-95754034D01*
X181768344Y-95754034D01*
X181768447Y-95707058D01*
X181767088Y-95341323D01*
X181763482Y-95001661D01*
X181757568Y-94702256D01*
X181749286Y-94457293D01*
X181738572Y-94280955D01*
X181725367Y-94187427D01*
X181721834Y-94178901D01*
X181641448Y-94129786D01*
X181582912Y-94128784D01*
X181557833Y-94137833D01*
X181537447Y-94160913D01*
X181521174Y-94207872D01*
X181508432Y-94288557D01*
X181498641Y-94412816D01*
X181491220Y-94590494D01*
X181485589Y-94831439D01*
X181481167Y-95145499D01*
X181477373Y-95542521D01*
X181474044Y-95975039D01*
X181471627Y-96397879D01*
X181470676Y-96789667D01*
X181181173Y-96789667D01*
X181182016Y-96600200D01*
X181182587Y-96127704D01*
X181182600Y-96024704D01*
X181182600Y-94145800D01*
X181068300Y-94129566D01*
X180954000Y-94113333D01*
X180954000Y-95988000D01*
X180688062Y-95988000D01*
X180687948Y-95968612D01*
X180674600Y-94145800D01*
X180420600Y-94145800D01*
X180407244Y-95974356D01*
X180404827Y-96397276D01*
X180403876Y-96789145D01*
X180114375Y-96789145D01*
X180115216Y-96600200D01*
X180115787Y-96127704D01*
X180115800Y-96024704D01*
X180115800Y-94145800D01*
X180001500Y-94129566D01*
X179887200Y-94113333D01*
X179887200Y-95988000D01*
X179622382Y-95988000D01*
X179621971Y-95923800D01*
X179607800Y-94145800D01*
X179353800Y-94145800D01*
X179340444Y-95974356D01*
X179338027Y-96397276D01*
X179337076Y-96789145D01*
X179055356Y-96789145D01*
X179057699Y-96585105D01*
X179061621Y-96109333D01*
X179062318Y-96012016D01*
X179075636Y-94120400D01*
X178820400Y-94120400D01*
X178008792Y-94120400D01*
X178008843Y-94113170D01*
X177893921Y-94129485D01*
X177779000Y-94145800D01*
X177765644Y-95974356D01*
X177763266Y-96397471D01*
X177762426Y-96789705D01*
X177472868Y-96789705D01*
X177473509Y-96657650D01*
X177474164Y-96199438D01*
X177474200Y-96024704D01*
X177474200Y-94145800D01*
X177220200Y-94145800D01*
X177206851Y-95968612D01*
X177203654Y-96470550D01*
X177202718Y-96880017D01*
X176921151Y-96880017D01*
X176921951Y-96820122D01*
X176925783Y-96403578D01*
X176928721Y-96008401D01*
X176942043Y-94113170D01*
X176827121Y-94129485D01*
X176712200Y-94145800D01*
X176698844Y-95974356D01*
X176696466Y-96397471D01*
X176695626Y-96789705D01*
X176405928Y-96789705D01*
X176406890Y-96559498D01*
X176407396Y-96076935D01*
X176407400Y-96025400D01*
X176407197Y-95538911D01*
X176406264Y-95144304D01*
X176404110Y-94831863D01*
X176400247Y-94591871D01*
X176394184Y-94414609D01*
X176385434Y-94290362D01*
X176373505Y-94209411D01*
X176357909Y-94162040D01*
X176338157Y-94138532D01*
X176313759Y-94129169D01*
X176311887Y-94128797D01*
X176211667Y-94144825D01*
X176172965Y-94178901D01*
X176162811Y-94244188D01*
X176153456Y-94398989D01*
X176145189Y-94631220D01*
X176138299Y-94928798D01*
X176133075Y-95279637D01*
X176129805Y-95671654D01*
X176128777Y-96027940D01*
X175924039Y-96027940D01*
X175924156Y-96003351D01*
X175923989Y-95626975D01*
X175921835Y-95265140D01*
X175917664Y-94932289D01*
X175911445Y-94642860D01*
X175903149Y-94411296D01*
X175892745Y-94252036D01*
X175880204Y-94179522D01*
X175879834Y-94178901D01*
X175799448Y-94129786D01*
X175740912Y-94128784D01*
X175715833Y-94137833D01*
X175695447Y-94160913D01*
X175679174Y-94207872D01*
X175666432Y-94288557D01*
X175656641Y-94412816D01*
X175649220Y-94590494D01*
X175643589Y-94831439D01*
X175639167Y-95145499D01*
X175635373Y-95542521D01*
X175632044Y-95975039D01*
X175629627Y-96397879D01*
X175628676Y-96789667D01*
X175339128Y-96789667D01*
X175340090Y-96559498D01*
X175340596Y-96076935D01*
X175340600Y-96025400D01*
X175340397Y-95538911D01*
X175339464Y-95144304D01*
X175337310Y-94831863D01*
X175333447Y-94591871D01*
X175327384Y-94414609D01*
X175318634Y-94290362D01*
X175306705Y-94209411D01*
X175291109Y-94162040D01*
X175271357Y-94138532D01*
X175246959Y-94129169D01*
X175245087Y-94128797D01*
X175144867Y-94144825D01*
X175106165Y-94178901D01*
X175096011Y-94244188D01*
X175086656Y-94398989D01*
X175078389Y-94631220D01*
X175071499Y-94928798D01*
X175066275Y-95279637D01*
X175063005Y-95671654D01*
X175061977Y-96027940D01*
X174858945Y-96027940D01*
X174859647Y-95707058D01*
X174858288Y-95341323D01*
X174854682Y-95001661D01*
X174848768Y-94702256D01*
X174840486Y-94457293D01*
X174829772Y-94280955D01*
X174816567Y-94187427D01*
X174813034Y-94178901D01*
X174732648Y-94129786D01*
X174674112Y-94128784D01*
X174649033Y-94137833D01*
X174628647Y-94160913D01*
X174612374Y-94207872D01*
X174599632Y-94288557D01*
X174589841Y-94412816D01*
X174582420Y-94590494D01*
X174576789Y-94831439D01*
X174572367Y-95145499D01*
X174568573Y-95542521D01*
X174565244Y-95975039D01*
X174562827Y-96397879D01*
X174561876Y-96789667D01*
X174272328Y-96789667D01*
X174273290Y-96559498D01*
X174273796Y-96076935D01*
X174273800Y-96025400D01*
X174273597Y-95538911D01*
X174272664Y-95144304D01*
X174270510Y-94831863D01*
X174266647Y-94591871D01*
X174260584Y-94414609D01*
X174251834Y-94290362D01*
X174239905Y-94209411D01*
X174224309Y-94162040D01*
X174204557Y-94138532D01*
X174180159Y-94129169D01*
X174178287Y-94128797D01*
X174078067Y-94144825D01*
X174039365Y-94178901D01*
X174029211Y-94244188D01*
X174019856Y-94398989D01*
X174011589Y-94631220D01*
X174004699Y-94928798D01*
X173999475Y-95279637D01*
X173996205Y-95671654D01*
X173995177Y-96027940D01*
X173792145Y-96027940D01*
X173792847Y-95707058D01*
X173791488Y-95341323D01*
X173787882Y-95001661D01*
X173781968Y-94702256D01*
X173773686Y-94457293D01*
X173762972Y-94280955D01*
X173749767Y-94187427D01*
X173746234Y-94178901D01*
X173665848Y-94129786D01*
X173607312Y-94128784D01*
X173582233Y-94137833D01*
X173561847Y-94160913D01*
X173545574Y-94207872D01*
X173532832Y-94288557D01*
X173523041Y-94412816D01*
X173515620Y-94590494D01*
X173509989Y-94831439D01*
X173505567Y-95145499D01*
X173501773Y-95542521D01*
X173498444Y-95975039D01*
X173496027Y-96397879D01*
X173495076Y-96789667D01*
X173205941Y-96789667D01*
X173206103Y-96761224D01*
X173206900Y-96329090D01*
X173207000Y-96024704D01*
X173206902Y-95538766D01*
X173206242Y-95144704D01*
X173204465Y-94832794D01*
X173201020Y-94593311D01*
X173195353Y-94416530D01*
X173186913Y-94292728D01*
X173175145Y-94212181D01*
X173159497Y-94165164D01*
X173139417Y-94141952D01*
X173114351Y-94132822D01*
X173099321Y-94130434D01*
X173003329Y-94150937D01*
X172960315Y-94232034D01*
X172949118Y-94325070D01*
X172940272Y-94501830D01*
X172933692Y-94747710D01*
X172929289Y-95048106D01*
X172926978Y-95388415D01*
X172926669Y-95754034D01*
X172725944Y-95754034D01*
X172726047Y-95707058D01*
X172724688Y-95341323D01*
X172721082Y-95001661D01*
X172715168Y-94702256D01*
X172706886Y-94457293D01*
X172696172Y-94280955D01*
X172682967Y-94187427D01*
X172679434Y-94178901D01*
X172599048Y-94129786D01*
X172540512Y-94128784D01*
X172515433Y-94137833D01*
X172495047Y-94160913D01*
X172478774Y-94207872D01*
X172466032Y-94288557D01*
X172456241Y-94412816D01*
X172448820Y-94590494D01*
X172443189Y-94831439D01*
X172438767Y-95145499D01*
X172434973Y-95542521D01*
X172431644Y-95975039D01*
X172429227Y-96397879D01*
X172428276Y-96789667D01*
X172138773Y-96789667D01*
X172139616Y-96600200D01*
X172140187Y-96127704D01*
X172140200Y-96024704D01*
X172140200Y-94145800D01*
X172025900Y-94129566D01*
X171911600Y-94113333D01*
X171911600Y-95988000D01*
X171645662Y-95988000D01*
X171645548Y-95968612D01*
X171632200Y-94145800D01*
X171378200Y-94145800D01*
X171364844Y-95974356D01*
X171362427Y-96397276D01*
X171361476Y-96789145D01*
X171071975Y-96789145D01*
X171072816Y-96600200D01*
X171073387Y-96127704D01*
X171073400Y-96024704D01*
X171073400Y-94145800D01*
X170959100Y-94129566D01*
X170844800Y-94113333D01*
X170844800Y-95988000D01*
X170579982Y-95988000D01*
X170579571Y-95923800D01*
X170565400Y-94145800D01*
X170311400Y-94145800D01*
X170298044Y-95974356D01*
X170295627Y-96397276D01*
X170294676Y-96789145D01*
X170013710Y-96789145D01*
X170015104Y-96651249D01*
X170018609Y-96197085D01*
X170019918Y-96012700D01*
X170033236Y-94120400D01*
X169905618Y-94120400D01*
X169837020Y-94126114D01*
X169798812Y-94158564D01*
X169782121Y-94240706D01*
X169778075Y-94395498D01*
X169778000Y-94450600D01*
X169775700Y-94628146D01*
X169763031Y-94727043D01*
X169731340Y-94770226D01*
X169671975Y-94780631D01*
X169653424Y-94780800D01*
X169585019Y-94773573D01*
X169545895Y-94736356D01*
X169525796Y-94645837D01*
X169514465Y-94478709D01*
X169513724Y-94463300D01*
X169502712Y-94289916D01*
X169483699Y-94194767D01*
X169446240Y-94154517D01*
X169379887Y-94145831D01*
X169371600Y-94145800D01*
X169301918Y-94152681D01*
X169262134Y-94188881D01*
X169241802Y-94277737D01*
X169230475Y-94442584D01*
X169229475Y-94463300D01*
X169218377Y-94636761D01*
X169199240Y-94731956D01*
X169161807Y-94772193D01*
X169095823Y-94780781D01*
X169089775Y-94780800D01*
X169023065Y-94774788D01*
X168985757Y-94741542D01*
X168969334Y-94658242D01*
X168965279Y-94502071D01*
X168965200Y-94447066D01*
X168962940Y-94268748D01*
X168950983Y-94170430D01*
X168921557Y-94130530D01*
X168866895Y-94127467D01*
X168850900Y-94129566D01*
X168787458Y-94148905D01*
X168750770Y-94200435D01*
X168731396Y-94308498D01*
X168721475Y-94463300D01*
X168710287Y-94636851D01*
X168691016Y-94732098D01*
X168653597Y-94772319D01*
X168587966Y-94780792D01*
X168584200Y-94780800D01*
X168517067Y-94773206D01*
X168478598Y-94734908D01*
X168458728Y-94642628D01*
X168447393Y-94473090D01*
X168446924Y-94463300D01*
X168435912Y-94289916D01*
X168416899Y-94194767D01*
X168379440Y-94154517D01*
X168313087Y-94145831D01*
X168304800Y-94145800D01*
X168235118Y-94152681D01*
X168195334Y-94188881D01*
X168175002Y-94277737D01*
X168163675Y-94442584D01*
X168162675Y-94463300D01*
X168151577Y-94636761D01*
X168132440Y-94731956D01*
X168095007Y-94772193D01*
X168029023Y-94780781D01*
X168022975Y-94780800D01*
X167956265Y-94774788D01*
X167918957Y-94741542D01*
X167902534Y-94658242D01*
X167898479Y-94502071D01*
X167898400Y-94447066D01*
X167896140Y-94268748D01*
X167884183Y-94170430D01*
X167854757Y-94130530D01*
X167800095Y-94127467D01*
X167784100Y-94129566D01*
X167720658Y-94148905D01*
X167683970Y-94200435D01*
X167664596Y-94308498D01*
X167654675Y-94463300D01*
X167643487Y-94636851D01*
X167624216Y-94732098D01*
X167586797Y-94772319D01*
X167521166Y-94780792D01*
X167517400Y-94780800D01*
X167450224Y-94773190D01*
X167411750Y-94734833D01*
X167391888Y-94642434D01*
X167380550Y-94472696D01*
X167380124Y-94463810D01*
X167366518Y-94284544D01*
X167342179Y-94183640D01*
X167299453Y-94137907D01*
X167269487Y-94128611D01*
X167175741Y-94139278D01*
X167117704Y-94221642D01*
X167090268Y-94386454D01*
X167086377Y-94514100D01*
X167081042Y-94671096D01*
X167059954Y-94751193D01*
X167013707Y-94778895D01*
X166984000Y-94780800D01*
X166924154Y-94767997D01*
X166893481Y-94713254D01*
X166882575Y-94592068D01*
X166881622Y-94514100D01*
X166868644Y-94300088D01*
X166827833Y-94174353D01*
X166754083Y-94126145D01*
X166698512Y-94128611D01*
X166643983Y-94155777D01*
X166611591Y-94226750D01*
X166593683Y-94364722D01*
X166587875Y-94463810D01*
X166576671Y-94637190D01*
X166557353Y-94732284D01*
X166519834Y-94772387D01*
X166454024Y-94780793D01*
X166450600Y-94780800D01*
X166383424Y-94773190D01*
X166344950Y-94734833D01*
X166325088Y-94642434D01*
X166313750Y-94472696D01*
X166313324Y-94463810D01*
X166299718Y-94284544D01*
X166275379Y-94183640D01*
X166232653Y-94137907D01*
X166202687Y-94128611D01*
X166102435Y-94144813D01*
X166063765Y-94178901D01*
X166049721Y-94250952D01*
X166038259Y-94409179D01*
X166029312Y-94639392D01*
X166022813Y-94927401D01*
X166018695Y-95259017D01*
X166016890Y-95620050D01*
X165816924Y-95620050D01*
X165815888Y-95341323D01*
X165812282Y-95001661D01*
X165806368Y-94702256D01*
X165798086Y-94457293D01*
X165787372Y-94280955D01*
X165774167Y-94187427D01*
X165770634Y-94178901D01*
X165690248Y-94129786D01*
X165631712Y-94128784D01*
X165606633Y-94137833D01*
X165586247Y-94160913D01*
X165569974Y-94207872D01*
X165557232Y-94288557D01*
X165547441Y-94412816D01*
X165540020Y-94590494D01*
X165534389Y-94831439D01*
X165529967Y-95145499D01*
X165526173Y-95542521D01*
X165522844Y-95975039D01*
X165520427Y-96397879D01*
X165519476Y-96789667D01*
X165284383Y-96789667D01*
X165283176Y-96597185D01*
X165282226Y-96102945D01*
X165282200Y-95988063D01*
X165282396Y-95494413D01*
X165283309Y-95092484D01*
X165285426Y-94772400D01*
X165289236Y-94524283D01*
X165295224Y-94338254D01*
X165303879Y-94204437D01*
X165315687Y-94112954D01*
X165331137Y-94053927D01*
X165350714Y-94017477D01*
X165374908Y-93993729D01*
X165380809Y-93989293D01*
X165403141Y-93980943D01*
X165448943Y-93973246D01*
X165522059Y-93966176D01*
X165626335Y-93959707D01*
X165765614Y-93953815D01*
X165943741Y-93948473D01*
X166164561Y-93943657D01*
X166431916Y-93939342D01*
X166749653Y-93935500D01*
X167121615Y-93932109D01*
X167551647Y-93929141D01*
X168043593Y-93926572D01*
X168601298Y-93924376D01*
X169228605Y-93922529D01*
X169929360Y-93921004D01*
X170707407Y-93919776D01*
X171566589Y-93918820D01*
X172510753Y-93918110D01*
X173543740Y-93917622D01*
X174669398Y-93917329D01*
X175891569Y-93917207D01*
X176307636Y-93917200D01*
X177543277Y-93917223D01*
X178681360Y-93917315D01*
X179725926Y-93917512D01*
X180681015Y-93917847D01*
X181550670Y-93918354D01*
X182338931Y-93919068D01*
X183049841Y-93920024D01*
X183687439Y-93921256D01*
X184255769Y-93922798D01*
X184758870Y-93924685D01*
X185200784Y-93926950D01*
X185585553Y-93929629D01*
X185917218Y-93932756D01*
X186199820Y-93936366D01*
X186437401Y-93940492D01*
X186634001Y-93945169D01*
X186793663Y-93950432D01*
X186920427Y-93956314D01*
X187018335Y-93962851D01*
X187091428Y-93970077D01*
X187143747Y-93978025D01*
X187179335Y-93986731D01*
X187202231Y-93996230D01*
X187216478Y-94006554D01*
X187219926Y-94010100D01*
X187242072Y-94043240D01*
X187260013Y-94095444D01*
X187274188Y-94176756D01*
X187285036Y-94297216D01*
X187292995Y-94466868D01*
X187298504Y-94695753D01*
X187302001Y-94993914D01*
X187303924Y-95371393D01*
X187304713Y-95838233D01*
X187304777Y-95953200D01*
X187306113Y-96378911D01*
X187309569Y-96773817D01*
X187314875Y-97126087D01*
X187321757Y-97423888D01*
X187329943Y-97655388D01*
X187339161Y-97808755D01*
X187348965Y-97871898D01*
X187429354Y-97921020D01*
X187487887Y-97922028D01*
X187513504Y-97912596D01*
X187534343Y-97888456D01*
X187551093Y-97839544D01*
X187564440Y-97755800D01*
X187575074Y-97627162D01*
X187583683Y-97443569D01*
X187590954Y-97194960D01*
X187597575Y-96871272D01*
X187604234Y-96462444D01*
X187608800Y-96153882D01*
X187634200Y-94404105D01*
X187735800Y-94554352D01*
X187764302Y-94602083D01*
X187787265Y-94659603D01*
X187805518Y-94738369D01*
X187819894Y-94849840D01*
X187831223Y-95005475D01*
X187840338Y-95216732D01*
X187848069Y-95495069D01*
X187855247Y-95851944D01*
X187862705Y-96298817D01*
X187862800Y-96304800D01*
X187870063Y-96749735D01*
X187876722Y-97103518D01*
X187883605Y-97376587D01*
X187891541Y-97579379D01*
X187901359Y-97722334D01*
X187913886Y-97815888D01*
X187929952Y-97870480D01*
X187950383Y-97896547D01*
X187976010Y-97904528D01*
X187989800Y-97905000D01*
X188019458Y-97901733D01*
X188042846Y-97884591D01*
X188060846Y-97842562D01*
X188074339Y-97764636D01*
X188084206Y-97639800D01*
X188091329Y-97457042D01*
X188096589Y-97205351D01*
X188100867Y-96873716D01*
X188104896Y-96466948D01*
X188118392Y-95028897D01*
X188243710Y-95177829D01*
X188282081Y-95225421D01*
X188311826Y-95274416D01*
X188334201Y-95337807D01*
X188350463Y-95428593D01*
X188361867Y-95559768D01*
X188369668Y-95744329D01*
X188375124Y-95995272D01*
X188379490Y-96325593D01*
X188382614Y-96615208D01*
X188387167Y-97010509D01*
X188392117Y-97315970D01*
X188398443Y-97543351D01*
X188407128Y-97704409D01*
X188419154Y-97810904D01*
X188435501Y-97874595D01*
X188457153Y-97907239D01*
X188485090Y-97920597D01*
X188491712Y-97922026D01*
X188591936Y-97905975D01*
X188630634Y-97871898D01*
X188643711Y-97802319D01*
X188655286Y-97647373D01*
X188664720Y-97423290D01*
X188671376Y-97146298D01*
X188674617Y-96832627D01*
X188674822Y-96746928D01*
X188675600Y-95690456D01*
X188800261Y-95781728D01*
X188842617Y-95815092D01*
X188874314Y-95854011D01*
X188897156Y-95912783D01*
X188912946Y-96005708D01*
X188923490Y-96147086D01*
X188930591Y-96351217D01*
X188936053Y-96632399D01*
X188939961Y-96889000D01*
X188945499Y-97234179D01*
X188951456Y-97490846D01*
X188959334Y-97672084D01*
X188970634Y-97790975D01*
X188986860Y-97860603D01*
X189009512Y-97894048D01*
X189040093Y-97904394D01*
X189056600Y-97905000D01*
X189092351Y-97900473D01*
X189118864Y-97877836D01*
X189137807Y-97823497D01*
X189138815Y-97815788D01*
X193569387Y-97815788D01*
X193620502Y-98031501D01*
X193721265Y-98176396D01*
X193845437Y-98257040D01*
X194013734Y-98271389D01*
X194113745Y-98247530D01*
X199028776Y-98247530D01*
X199034978Y-98541217D01*
X199125623Y-98856654D01*
X199179363Y-98973826D01*
X199333324Y-99232266D01*
X199525432Y-99486060D01*
X199732652Y-99708742D01*
X199931952Y-99873846D01*
X199998012Y-99914467D01*
X200227806Y-99988267D01*
X200501802Y-99996253D01*
X200788207Y-99940047D01*
X200976855Y-99864481D01*
X201241385Y-99697710D01*
X201494868Y-99476472D01*
X201716881Y-99224101D01*
X201887001Y-98963928D01*
X201984805Y-98719284D01*
X201986801Y-98710699D01*
X201989189Y-98477529D01*
X201901862Y-98229812D01*
X201733481Y-97978390D01*
X201492707Y-97734105D01*
X201188202Y-97507797D01*
X200892540Y-97341022D01*
X200685035Y-97244364D01*
X200532557Y-97191551D01*
X200403082Y-97174039D01*
X200289843Y-97180226D01*
X199970379Y-97261728D01*
X199656392Y-97422752D01*
X199376249Y-97643833D01*
X199158313Y-97905505D01*
X199108147Y-97991198D01*
X199028776Y-98247530D01*
X194113745Y-98247530D01*
X194235936Y-98218380D01*
X194521826Y-98096952D01*
X194541608Y-98087275D01*
X194856094Y-97892201D01*
X195119620Y-97648783D01*
X195313742Y-97376707D01*
X195401646Y-97169233D01*
X195446748Y-96960933D01*
X195430179Y-96818602D01*
X195344930Y-96722563D01*
X195222291Y-96665743D01*
X194930798Y-96611520D01*
X194637415Y-96653352D01*
X194337857Y-96792638D01*
X194027844Y-97030777D01*
X193985584Y-97069983D01*
X193753070Y-97330250D01*
X193613957Y-97580444D01*
X193569387Y-97815788D01*
X189138815Y-97815788D01*
X189150845Y-97723867D01*
X189159644Y-97565357D01*
X189165871Y-97334378D01*
X189171192Y-97017340D01*
X189171978Y-96964081D01*
X189177254Y-96633420D01*
X189183203Y-96389989D01*
X189191661Y-96219424D01*
X189204462Y-96107362D01*
X189223441Y-96039441D01*
X189250432Y-96001296D01*
X189262588Y-95993795D01*
X190508961Y-95993795D01*
X190581985Y-96146572D01*
X190650767Y-96222820D01*
X190830271Y-96346904D01*
X191075476Y-96433159D01*
X191396855Y-96484133D01*
X191799800Y-96502341D01*
X192070880Y-96498912D01*
X192268501Y-96481969D01*
X192420313Y-96447949D01*
X192519739Y-96409541D01*
X192691450Y-96305001D01*
X192816753Y-96177730D01*
X192877748Y-96049885D01*
X192872811Y-95972468D01*
X192798797Y-95894365D01*
X192644079Y-95807040D01*
X192428089Y-95718446D01*
X192170263Y-95636537D01*
X191890031Y-95569266D01*
X191885359Y-95568329D01*
X191555021Y-95523784D01*
X191252936Y-95522997D01*
X190988894Y-95560779D01*
X190772686Y-95631939D01*
X190614101Y-95731289D01*
X190522929Y-95853638D01*
X190508961Y-95993795D01*
X189262588Y-95993795D01*
X189287272Y-95978565D01*
X189298521Y-95973481D01*
X189403062Y-95897350D01*
X189499034Y-95760001D01*
X189589901Y-95552638D01*
X189679130Y-95266464D01*
X189770186Y-94892683D01*
X189823392Y-94641206D01*
X189882695Y-94359356D01*
X189938706Y-94111858D01*
X189987165Y-93916145D01*
X190023811Y-93789653D01*
X190041003Y-93750676D01*
X190106852Y-93748819D01*
X190252355Y-93783769D01*
X190252355Y-93783769D01*
G37*
X190252355Y-93783769D02*
X190464040Y-93851718D01*
X190689496Y-93933929D01*
X191566119Y-94268448D01*
X192351029Y-94569219D01*
X193047826Y-94837672D01*
X193660112Y-95075239D01*
X194191490Y-95283352D01*
X194645559Y-95463441D01*
X195025923Y-95616938D01*
X195336181Y-95745274D01*
X195579936Y-95849881D01*
X195760790Y-95932189D01*
X195882343Y-95993631D01*
X195905524Y-96006864D01*
X196145881Y-96174622D01*
X196441999Y-96426330D01*
X196794161Y-96762232D01*
X196896124Y-96864591D01*
X197155943Y-97121409D01*
X197374853Y-97324668D01*
X197545011Y-97467509D01*
X197658575Y-97543073D01*
X197682103Y-97552029D01*
X197820306Y-97560949D01*
X197983276Y-97520464D01*
X198181685Y-97425135D01*
X198426204Y-97269525D01*
X198727503Y-97048195D01*
X198835600Y-96964214D01*
X199130142Y-96740073D01*
X199373674Y-96576634D01*
X199589560Y-96465380D01*
X199801163Y-96397796D01*
X200031845Y-96365363D01*
X200304969Y-96359566D01*
X200480481Y-96364596D01*
X200728965Y-96377428D01*
X200911656Y-96398576D01*
X201064359Y-96436304D01*
X201222881Y-96498880D01*
X201375600Y-96571233D01*
X201748005Y-96778912D01*
X202049739Y-97009727D01*
X202297803Y-97282773D01*
X202509195Y-97617145D01*
X202700917Y-98031938D01*
X202721340Y-98082800D01*
X202844653Y-98387479D01*
X202946205Y-98618519D01*
X203038539Y-98797913D01*
X203134201Y-98947654D01*
X203245733Y-99089736D01*
X203383557Y-99243860D01*
X203695204Y-99529771D01*
X204006933Y-99714118D01*
X204319115Y-99796935D01*
X204632122Y-99778258D01*
X204946323Y-99658123D01*
X205262092Y-99436564D01*
X205277217Y-99423446D01*
X205393895Y-99307113D01*
X205554871Y-99126691D01*
X205744837Y-98900368D01*
X205948483Y-98646332D01*
X206128316Y-98412349D01*
X206409344Y-98045586D01*
X206642039Y-97758058D01*
X206832655Y-97543310D01*
X206987447Y-97394888D01*
X207112669Y-97306337D01*
X207214578Y-97271203D01*
X207235272Y-97270000D01*
X207363383Y-97308925D01*
X207471335Y-97402765D01*
X207520987Y-97517116D01*
X207521284Y-97528000D01*
X207500474Y-97631886D01*
X207437552Y-97774932D01*
X207327748Y-97964767D01*
X207166296Y-98209023D01*
X206948428Y-98515331D01*
X206670098Y-98890362D01*
X206336725Y-99343334D01*
X206069523Y-99732260D01*
X205864998Y-100067051D01*
X205719657Y-100357619D01*
X205630008Y-100613875D01*
X205592557Y-100845729D01*
X205603811Y-101063092D01*
X205660279Y-101275876D01*
X205754899Y-101487186D01*
X205840235Y-101636523D01*
X205971330Y-101848364D01*
X206135100Y-102102387D01*
X206318466Y-102378268D01*
X206490638Y-102630186D01*
X206677155Y-102903196D01*
X206852932Y-103167813D01*
X207005797Y-103405155D01*
X207123579Y-103596344D01*
X207191687Y-103717621D01*
X207296110Y-103974730D01*
X207332789Y-104187908D01*
X207300887Y-104345910D01*
X207243525Y-104413297D01*
X207125234Y-104472585D01*
X207002681Y-104465730D01*
X206851896Y-104387996D01*
X206752012Y-104316192D01*
X206647145Y-104229732D01*
X206536963Y-104124283D01*
X206416692Y-103993222D01*
X206281558Y-103829929D01*
X206126786Y-103627782D01*
X205947601Y-103380162D01*
X205739231Y-103080445D01*
X205496900Y-102722013D01*
X205215835Y-102298242D01*
X204891260Y-101802513D01*
X204518402Y-101228205D01*
X204457627Y-101134273D01*
X204165476Y-100731179D01*
X203864017Y-100407557D01*
X203559784Y-100168470D01*
X203259307Y-100018977D01*
X202969119Y-99964138D01*
X202947061Y-99963988D01*
X202856496Y-99967727D01*
X202767730Y-99981628D01*
X202666617Y-100011755D01*
X202539013Y-100064170D01*
X202370776Y-100144935D01*
X202147761Y-100260113D01*
X201855825Y-100415766D01*
X201710288Y-100494113D01*
X201468615Y-100622002D01*
X201288442Y-100708420D01*
X201143140Y-100762449D01*
X201006081Y-100793176D01*
X200850638Y-100809683D01*
X200770488Y-100814730D01*
X200314281Y-100798185D01*
X199863921Y-100693209D01*
X199401704Y-100495606D01*
X199382998Y-100485862D01*
X199052790Y-100275009D01*
X198780965Y-100012514D01*
X198548627Y-99678328D01*
X198450572Y-99496529D01*
X198276150Y-99169003D01*
X198122699Y-98926160D01*
X197980969Y-98755677D01*
X197841712Y-98645237D01*
X197791167Y-98618165D01*
X197719958Y-98587182D01*
X197648246Y-98567153D01*
X197559206Y-98558458D01*
X197436009Y-98561477D01*
X197261827Y-98576590D01*
X197019833Y-98604177D01*
X196709378Y-98642589D01*
X195808974Y-98736899D01*
X194968881Y-98783631D01*
X194159382Y-98782294D01*
X193350758Y-98732399D01*
X192513292Y-98633455D01*
X192079200Y-98566223D01*
X191580963Y-98486139D01*
X191066582Y-98408684D01*
X190512400Y-98330476D01*
X189894764Y-98248134D01*
X189488400Y-98195912D01*
X189409201Y-98186924D01*
X189315718Y-98178587D01*
X189203963Y-98170867D01*
X189069947Y-98163734D01*
X188909682Y-98157155D01*
X188719179Y-98151099D01*
X188494449Y-98145534D01*
X188231505Y-98140428D01*
X187926357Y-98135750D01*
X187575018Y-98131467D01*
X187173498Y-98127548D01*
X186717809Y-98123961D01*
X186203962Y-98120675D01*
X185627970Y-98117658D01*
X184985843Y-98114877D01*
X184273594Y-98112302D01*
X183487232Y-98109900D01*
X182622771Y-98107640D01*
X181676221Y-98105489D01*
X180643595Y-98103417D01*
X179520902Y-98101391D01*
X178304156Y-98099380D01*
X177136318Y-98097573D01*
X175844256Y-98095584D01*
X174649961Y-98093645D01*
X173549598Y-98091722D01*
X172539334Y-98089783D01*
X171615335Y-98087795D01*
X170773767Y-98085726D01*
X170010797Y-98083544D01*
X169322590Y-98081214D01*
X168705313Y-98078706D01*
X168155132Y-98075986D01*
X167668214Y-98073022D01*
X167240724Y-98069781D01*
X166868829Y-98066230D01*
X166548696Y-98062337D01*
X166276490Y-98058069D01*
X166048377Y-98053394D01*
X165860524Y-98048279D01*
X165709098Y-98042692D01*
X165590264Y-98036599D01*
X165500188Y-98029969D01*
X165435037Y-98022768D01*
X165390978Y-98014964D01*
X165364175Y-98006524D01*
X165350797Y-97997416D01*
X165350718Y-97997321D01*
X165332458Y-97956782D01*
X165317565Y-97877651D01*
X165305741Y-97751187D01*
X165296689Y-97568649D01*
X165290109Y-97321296D01*
X165285704Y-97000388D01*
X165284383Y-96789667D01*
X165519476Y-96789667D01*
X165519923Y-97138531D01*
X165521696Y-97432603D01*
X165524728Y-97660011D01*
X165528947Y-97808886D01*
X165533950Y-97866656D01*
X165599508Y-97924718D01*
X165698110Y-97910503D01*
X165754640Y-97869439D01*
X165769036Y-97805757D01*
X165781678Y-97654673D01*
X165792505Y-97430372D01*
X165801454Y-97147038D01*
X165808464Y-96818855D01*
X165813474Y-96460008D01*
X165816422Y-96084681D01*
X165817247Y-95707058D01*
X165816924Y-95620050D01*
X166016890Y-95620050D01*
X166017331Y-95996311D01*
X166019952Y-96373610D01*
X166024684Y-96737759D01*
X166031462Y-97074566D01*
X166040217Y-97369843D01*
X166050882Y-97609400D01*
X166063391Y-97779048D01*
X166077675Y-97864596D01*
X166081242Y-97870922D01*
X166176937Y-97932641D01*
X166246973Y-97899207D01*
X166292338Y-97769300D01*
X166313221Y-97561574D01*
X166323563Y-97379914D01*
X166340641Y-97277337D01*
X166373629Y-97231353D01*
X166431704Y-97219476D01*
X166452921Y-97219200D01*
X166519835Y-97225244D01*
X166557175Y-97258633D01*
X166573540Y-97342249D01*
X166577529Y-97498977D01*
X166577600Y-97550994D01*
X166583349Y-97741453D01*
X166603950Y-97852689D01*
X166644431Y-97906601D01*
X166661146Y-97914848D01*
X166757611Y-97907547D01*
X166830495Y-97812293D01*
X166873477Y-97641254D01*
X166882400Y-97488890D01*
X166887135Y-97330867D01*
X166907474Y-97249829D01*
X166952612Y-97221363D01*
X166984000Y-97219200D01*
X167041206Y-97230549D01*
X167071859Y-97280222D01*
X167083932Y-97391654D01*
X167085600Y-97517779D01*
X167104944Y-97743393D01*
X167161925Y-97879968D01*
X167254965Y-97924772D01*
X167313553Y-97912277D01*
X167358245Y-97866153D01*
X167382511Y-97758375D01*
X167390361Y-97570083D01*
X167390400Y-97550994D01*
X167392671Y-97372921D01*
X167405217Y-97273552D01*
X167436638Y-97230002D01*
X167495532Y-97219388D01*
X167515078Y-97219200D01*
X167581477Y-97225701D01*
X167620341Y-97260188D01*
X167640826Y-97345130D01*
X167652086Y-97503001D01*
X167654778Y-97562100D01*
X167666099Y-97745443D01*
X167684834Y-97849098D01*
X167718436Y-97894975D01*
X167771400Y-97905000D01*
X167826210Y-97893900D01*
X167859021Y-97845994D01*
X167877285Y-97739370D01*
X167888021Y-97562100D01*
X167898350Y-97380269D01*
X167915389Y-97277538D01*
X167948294Y-97231433D01*
X168006220Y-97219485D01*
X168027721Y-97219200D01*
X168097384Y-97226141D01*
X168134684Y-97263010D01*
X168149673Y-97353877D01*
X168152400Y-97517779D01*
X168171744Y-97743393D01*
X168228725Y-97879968D01*
X168321765Y-97924772D01*
X168380353Y-97912277D01*
X168425045Y-97866153D01*
X168449311Y-97758375D01*
X168457161Y-97570083D01*
X168457200Y-97550994D01*
X168459471Y-97372921D01*
X168472017Y-97273552D01*
X168503438Y-97230002D01*
X168562332Y-97219388D01*
X168581878Y-97219200D01*
X168648277Y-97225701D01*
X168687141Y-97260188D01*
X168707626Y-97345130D01*
X168718886Y-97503001D01*
X168721578Y-97562100D01*
X168732899Y-97745443D01*
X168751634Y-97849098D01*
X168785236Y-97894975D01*
X168838200Y-97905000D01*
X168893010Y-97893900D01*
X168925821Y-97845994D01*
X168944085Y-97739370D01*
X168954821Y-97562100D01*
X168965150Y-97380269D01*
X168982189Y-97277538D01*
X169015094Y-97231433D01*
X169073020Y-97219485D01*
X169094521Y-97219200D01*
X169164790Y-97226389D01*
X169202166Y-97264167D01*
X169217093Y-97356854D01*
X169219977Y-97511300D01*
X169231323Y-97732199D01*
X169267424Y-97865157D01*
X169333525Y-97921938D01*
X169403087Y-97922173D01*
X169455703Y-97896744D01*
X169487577Y-97830359D01*
X169505613Y-97700502D01*
X169513621Y-97561574D01*
X169524042Y-97379840D01*
X169541243Y-97277216D01*
X169574236Y-97231238D01*
X169632036Y-97219441D01*
X169651000Y-97219200D01*
X169716208Y-97226037D01*
X169754437Y-97261516D01*
X169774679Y-97348085D01*
X169785928Y-97508192D01*
X169788378Y-97562100D01*
X169799699Y-97745443D01*
X169818434Y-97849098D01*
X169852036Y-97894975D01*
X169905000Y-97905000D01*
X169931216Y-97902327D01*
X169952575Y-97887907D01*
X169969662Y-97852134D01*
X169983058Y-97785404D01*
X169993348Y-97678114D01*
X170001114Y-97520657D01*
X170006940Y-97303431D01*
X170011409Y-97016829D01*
X170013710Y-96789145D01*
X170294676Y-96789145D01*
X170295122Y-97138095D01*
X170296895Y-97432258D01*
X170299924Y-97659765D01*
X170304142Y-97808750D01*
X170309150Y-97866656D01*
X170373946Y-97926693D01*
X170467018Y-97922224D01*
X170545854Y-97861617D01*
X170565903Y-97816100D01*
X170572028Y-97739753D01*
X170576883Y-97574313D01*
X170580378Y-97332283D01*
X170582421Y-97026161D01*
X170582923Y-96668449D01*
X170581794Y-96271648D01*
X170579982Y-95988000D01*
X170844800Y-95988000D01*
X170845733Y-96414884D01*
X170848392Y-96809553D01*
X170852561Y-97160525D01*
X170858026Y-97456320D01*
X170864574Y-97685457D01*
X170871990Y-97836455D01*
X170880061Y-97897832D01*
X170880422Y-97898289D01*
X170956133Y-97921762D01*
X170994722Y-97918760D01*
X171015285Y-97905333D01*
X171031979Y-97867490D01*
X171045195Y-97795810D01*
X171055326Y-97680874D01*
X171062763Y-97513265D01*
X171067895Y-97283562D01*
X171071116Y-96982347D01*
X171071975Y-96789145D01*
X171361476Y-96789145D01*
X171361922Y-97138095D01*
X171363695Y-97432258D01*
X171366724Y-97659765D01*
X171370942Y-97808750D01*
X171375950Y-97866656D01*
X171441010Y-97924454D01*
X171537006Y-97911900D01*
X171601228Y-97860912D01*
X171617763Y-97805241D01*
X171630621Y-97678989D01*
X171639931Y-97476738D01*
X171645819Y-97193069D01*
X171648412Y-96822562D01*
X171647837Y-96359799D01*
X171645662Y-95988000D01*
X171911600Y-95988000D01*
X171912533Y-96414884D01*
X171915192Y-96809553D01*
X171919361Y-97160525D01*
X171924826Y-97456320D01*
X171931374Y-97685457D01*
X171938790Y-97836455D01*
X171946861Y-97897832D01*
X171947222Y-97898289D01*
X172022933Y-97921762D01*
X172061522Y-97918760D01*
X172082085Y-97905333D01*
X172098779Y-97867490D01*
X172111995Y-97795810D01*
X172122126Y-97680874D01*
X172129563Y-97513265D01*
X172134695Y-97283562D01*
X172137916Y-96982347D01*
X172138773Y-96789667D01*
X172428276Y-96789667D01*
X172428723Y-97138531D01*
X172430496Y-97432603D01*
X172433528Y-97660011D01*
X172437747Y-97808886D01*
X172442750Y-97866656D01*
X172508308Y-97924718D01*
X172606910Y-97910503D01*
X172663440Y-97869439D01*
X172677836Y-97805757D01*
X172690478Y-97654673D01*
X172701305Y-97430372D01*
X172710254Y-97147038D01*
X172717264Y-96818855D01*
X172722274Y-96460008D01*
X172725222Y-96084681D01*
X172725944Y-95754034D01*
X172926669Y-95754034D01*
X172928277Y-96130358D01*
X172931714Y-96502784D01*
X172936893Y-96856708D01*
X172943727Y-97177527D01*
X172952128Y-97450637D01*
X172962010Y-97661434D01*
X172973285Y-97795314D01*
X172981827Y-97835204D01*
X173057981Y-97908898D01*
X173121527Y-97920069D01*
X173143744Y-97909042D01*
X173161767Y-97878980D01*
X173176031Y-97820283D01*
X173186968Y-97723349D01*
X173195010Y-97578577D01*
X173200592Y-97376367D01*
X173204145Y-97107116D01*
X173205941Y-96789667D01*
X173495076Y-96789667D01*
X173495523Y-97138531D01*
X173497296Y-97432603D01*
X173500328Y-97660011D01*
X173504547Y-97808886D01*
X173509550Y-97866656D01*
X173575108Y-97924718D01*
X173673710Y-97910503D01*
X173730240Y-97869439D01*
X173744636Y-97805757D01*
X173757278Y-97654673D01*
X173768105Y-97430372D01*
X173777054Y-97147038D01*
X173784064Y-96818855D01*
X173789074Y-96460008D01*
X173792022Y-96084681D01*
X173792145Y-96027940D01*
X173995177Y-96027940D01*
X173995414Y-96521365D01*
X173997257Y-96922464D01*
X174001693Y-97240507D01*
X174009710Y-97484765D01*
X174022296Y-97664509D01*
X174040438Y-97789010D01*
X174065123Y-97867539D01*
X174097339Y-97909368D01*
X174138073Y-97923767D01*
X174188313Y-97920007D01*
X174196542Y-97918486D01*
X174216770Y-97904426D01*
X174233195Y-97864574D01*
X174246199Y-97789567D01*
X174256166Y-97670042D01*
X174263476Y-97496636D01*
X174268512Y-97259986D01*
X174271656Y-96950728D01*
X174272328Y-96789667D01*
X174561876Y-96789667D01*
X174562323Y-97138531D01*
X174564096Y-97432603D01*
X174567128Y-97660011D01*
X174571347Y-97808886D01*
X174576350Y-97866656D01*
X174641908Y-97924718D01*
X174740510Y-97910503D01*
X174797040Y-97869439D01*
X174811436Y-97805757D01*
X174824078Y-97654673D01*
X174834905Y-97430372D01*
X174843854Y-97147038D01*
X174850864Y-96818855D01*
X174855874Y-96460008D01*
X174858822Y-96084681D01*
X174858945Y-96027940D01*
X175061977Y-96027940D01*
X175062214Y-96521365D01*
X175064057Y-96922464D01*
X175068493Y-97240507D01*
X175076510Y-97484765D01*
X175089096Y-97664509D01*
X175107238Y-97789010D01*
X175131923Y-97867539D01*
X175164139Y-97909368D01*
X175204873Y-97923767D01*
X175255113Y-97920007D01*
X175263342Y-97918486D01*
X175283570Y-97904426D01*
X175299995Y-97864574D01*
X175312999Y-97789567D01*
X175322966Y-97670042D01*
X175330276Y-97496636D01*
X175335312Y-97259986D01*
X175338456Y-96950728D01*
X175339128Y-96789667D01*
X175628676Y-96789667D01*
X175629123Y-97138531D01*
X175630896Y-97432603D01*
X175633928Y-97660011D01*
X175638147Y-97808886D01*
X175643150Y-97866656D01*
X175706247Y-97925309D01*
X175795671Y-97911257D01*
X175872212Y-97832139D01*
X175885112Y-97758310D01*
X175896236Y-97597937D01*
X175905553Y-97365462D01*
X175913034Y-97075325D01*
X175918648Y-96741967D01*
X175922365Y-96379829D01*
X175924039Y-96027940D01*
X176128777Y-96027940D01*
X176129014Y-96521365D01*
X176130857Y-96922464D01*
X176135293Y-97240507D01*
X176143310Y-97484765D01*
X176155896Y-97664509D01*
X176174038Y-97789010D01*
X176198723Y-97867539D01*
X176230939Y-97909368D01*
X176271673Y-97923767D01*
X176321913Y-97920007D01*
X176330142Y-97918486D01*
X176350370Y-97904426D01*
X176366795Y-97864574D01*
X176379799Y-97789567D01*
X176389766Y-97670042D01*
X176397076Y-97496636D01*
X176402112Y-97259986D01*
X176405256Y-96950728D01*
X176405928Y-96789705D01*
X176695626Y-96789705D01*
X176696245Y-97139158D01*
X176698246Y-97433930D01*
X176701549Y-97662121D01*
X176706075Y-97811833D01*
X176711391Y-97870410D01*
X176775522Y-97919605D01*
X176826346Y-97920770D01*
X176849410Y-97910512D01*
X176868271Y-97883086D01*
X176883442Y-97828888D01*
X176895438Y-97738312D01*
X176904772Y-97601752D01*
X176911960Y-97409604D01*
X176917515Y-97152263D01*
X176921151Y-96880017D01*
X177202718Y-96880017D01*
X177204915Y-97206135D01*
X177211117Y-97458025D01*
X177222196Y-97644808D01*
X177239024Y-97775604D01*
X177262472Y-97859533D01*
X177293413Y-97905718D01*
X177332719Y-97923278D01*
X177381262Y-97921334D01*
X177393328Y-97919183D01*
X177414419Y-97906634D01*
X177431536Y-97871601D01*
X177445087Y-97804591D01*
X177455475Y-97696111D01*
X177463106Y-97536669D01*
X177468385Y-97316774D01*
X177471718Y-97026931D01*
X177472868Y-96789705D01*
X177762426Y-96789705D01*
X177763045Y-97139158D01*
X177765046Y-97433930D01*
X177768349Y-97662121D01*
X177772875Y-97811833D01*
X177778191Y-97870410D01*
X177842322Y-97919605D01*
X177893146Y-97920770D01*
X177916210Y-97910512D01*
X177935071Y-97883086D01*
X177950242Y-97828888D01*
X177962238Y-97738312D01*
X177971572Y-97601752D01*
X177978760Y-97409604D01*
X177984315Y-97152263D01*
X177988751Y-96820122D01*
X177989535Y-96734800D01*
X178269537Y-96734800D01*
X178270420Y-97084834D01*
X178272860Y-97381184D01*
X178276761Y-97611319D01*
X178282029Y-97762709D01*
X178287324Y-97819397D01*
X178338347Y-97909267D01*
X178428495Y-97920997D01*
X178541000Y-97905000D01*
X178541000Y-94145800D01*
X178287000Y-94145800D01*
X178272828Y-95923800D01*
X178270308Y-96343612D01*
X178269537Y-96734800D01*
X177989535Y-96734800D01*
X177992583Y-96403578D01*
X177995521Y-96008401D01*
X178008792Y-94120400D01*
X178820400Y-94120400D01*
X178820400Y-95991533D01*
X178821335Y-96418005D01*
X178823998Y-96812253D01*
X178828174Y-97162786D01*
X178833649Y-97458111D01*
X178840207Y-97686736D01*
X178847635Y-97837167D01*
X178855716Y-97897914D01*
X178856022Y-97898289D01*
X178931735Y-97921769D01*
X178970322Y-97918772D01*
X178990906Y-97905057D01*
X179007825Y-97866357D01*
X179021532Y-97793307D01*
X179032479Y-97676544D01*
X179041118Y-97506706D01*
X179047899Y-97274429D01*
X179053276Y-96970350D01*
X179055356Y-96789145D01*
X179337076Y-96789145D01*
X179337522Y-97138095D01*
X179339295Y-97432258D01*
X179342324Y-97659765D01*
X179346542Y-97808750D01*
X179351550Y-97866656D01*
X179416346Y-97926693D01*
X179509418Y-97922224D01*
X179588254Y-97861617D01*
X179608303Y-97816100D01*
X179614428Y-97739753D01*
X179619283Y-97574313D01*
X179622778Y-97332283D01*
X179624821Y-97026161D01*
X179625323Y-96668449D01*
X179624194Y-96271648D01*
X179622382Y-95988000D01*
X179887200Y-95988000D01*
X179888133Y-96414884D01*
X179890792Y-96809553D01*
X179894961Y-97160525D01*
X179900426Y-97456320D01*
X179906974Y-97685457D01*
X179914390Y-97836455D01*
X179922461Y-97897832D01*
X179922822Y-97898289D01*
X179998533Y-97921762D01*
X180037122Y-97918760D01*
X180057685Y-97905333D01*
X180074379Y-97867490D01*
X180087595Y-97795810D01*
X180097726Y-97680874D01*
X180105163Y-97513265D01*
X180110295Y-97283562D01*
X180113516Y-96982347D01*
X180114375Y-96789145D01*
X180403876Y-96789145D01*
X180404322Y-97138095D01*
X180406095Y-97432258D01*
X180409124Y-97659765D01*
X180413342Y-97808750D01*
X180418350Y-97866656D01*
X180483410Y-97924454D01*
X180579406Y-97911900D01*
X180643628Y-97860912D01*
X180660163Y-97805241D01*
X180673021Y-97678989D01*
X180682331Y-97476738D01*
X180688219Y-97193069D01*
X180690812Y-96822562D01*
X180690237Y-96359799D01*
X180688062Y-95988000D01*
X180954000Y-95988000D01*
X180954933Y-96414884D01*
X180957592Y-96809553D01*
X180961761Y-97160525D01*
X180967226Y-97456320D01*
X180973774Y-97685457D01*
X180981190Y-97836455D01*
X180989261Y-97897832D01*
X180989622Y-97898289D01*
X181065333Y-97921762D01*
X181103922Y-97918760D01*
X181124485Y-97905333D01*
X181141179Y-97867490D01*
X181154395Y-97795810D01*
X181164526Y-97680874D01*
X181171963Y-97513265D01*
X181177095Y-97283562D01*
X181180316Y-96982347D01*
X181181173Y-96789667D01*
X181470676Y-96789667D01*
X181471123Y-97138531D01*
X181472896Y-97432603D01*
X181475928Y-97660011D01*
X181480147Y-97808886D01*
X181485150Y-97866656D01*
X181550708Y-97924718D01*
X181649310Y-97910503D01*
X181705840Y-97869439D01*
X181720236Y-97805757D01*
X181732878Y-97654673D01*
X181743705Y-97430372D01*
X181752654Y-97147038D01*
X181759664Y-96818855D01*
X181764674Y-96460008D01*
X181767622Y-96084681D01*
X181768344Y-95754034D01*
X181969069Y-95754034D01*
X181970677Y-96130358D01*
X181974114Y-96502784D01*
X181979293Y-96856708D01*
X181986127Y-97177527D01*
X181994528Y-97450637D01*
X182004410Y-97661434D01*
X182015685Y-97795314D01*
X182024227Y-97835204D01*
X182100381Y-97908898D01*
X182163927Y-97920069D01*
X182186144Y-97909042D01*
X182204167Y-97878980D01*
X182218431Y-97820283D01*
X182229368Y-97723349D01*
X182237410Y-97578577D01*
X182242992Y-97376367D01*
X182246545Y-97107116D01*
X182248341Y-96789667D01*
X182537476Y-96789667D01*
X182537923Y-97138531D01*
X182539696Y-97432603D01*
X182542728Y-97660011D01*
X182546947Y-97808886D01*
X182551950Y-97866656D01*
X182617508Y-97924718D01*
X182716110Y-97910503D01*
X182772640Y-97869439D01*
X182787036Y-97805757D01*
X182799678Y-97654673D01*
X182810505Y-97430372D01*
X182819454Y-97147038D01*
X182826464Y-96818855D01*
X182831474Y-96460008D01*
X182834422Y-96084681D01*
X182834545Y-96027940D01*
X183037577Y-96027940D01*
X183037814Y-96521365D01*
X183039657Y-96922464D01*
X183044093Y-97240507D01*
X183052110Y-97484765D01*
X183064696Y-97664509D01*
X183082838Y-97789010D01*
X183107523Y-97867539D01*
X183139739Y-97909368D01*
X183180473Y-97923767D01*
X183230713Y-97920007D01*
X183238942Y-97918486D01*
X183259170Y-97904426D01*
X183275595Y-97864574D01*
X183288599Y-97789567D01*
X183298566Y-97670042D01*
X183305876Y-97496636D01*
X183310912Y-97259986D01*
X183314056Y-96950728D01*
X183314728Y-96789667D01*
X183604276Y-96789667D01*
X183604723Y-97138531D01*
X183606496Y-97432603D01*
X183609528Y-97660011D01*
X183613747Y-97808886D01*
X183618750Y-97866656D01*
X183684308Y-97924718D01*
X183782910Y-97910503D01*
X183839440Y-97869439D01*
X183853836Y-97805757D01*
X183866478Y-97654673D01*
X183877305Y-97430372D01*
X183886254Y-97147038D01*
X183893264Y-96818855D01*
X183898274Y-96460008D01*
X183901222Y-96084681D01*
X183901345Y-96027940D01*
X184104377Y-96027940D01*
X184104614Y-96521365D01*
X184106457Y-96922464D01*
X184110893Y-97240507D01*
X184118910Y-97484765D01*
X184131496Y-97664509D01*
X184149638Y-97789010D01*
X184174323Y-97867539D01*
X184206539Y-97909368D01*
X184247273Y-97923767D01*
X184297513Y-97920007D01*
X184305742Y-97918486D01*
X184325970Y-97904426D01*
X184342395Y-97864574D01*
X184355399Y-97789567D01*
X184365366Y-97670042D01*
X184372676Y-97496636D01*
X184377712Y-97259986D01*
X184380856Y-96950728D01*
X184381528Y-96789667D01*
X184671076Y-96789667D01*
X184671523Y-97138531D01*
X184673296Y-97432603D01*
X184676328Y-97660011D01*
X184680547Y-97808886D01*
X184685550Y-97866656D01*
X184748647Y-97925309D01*
X184838071Y-97911257D01*
X184914612Y-97832139D01*
X184927512Y-97758310D01*
X184938636Y-97597937D01*
X184947953Y-97365462D01*
X184955434Y-97075325D01*
X184961048Y-96741967D01*
X184964765Y-96379829D01*
X184966439Y-96027940D01*
X185171177Y-96027940D01*
X185171414Y-96521365D01*
X185173257Y-96922464D01*
X185177693Y-97240507D01*
X185185710Y-97484765D01*
X185198296Y-97664509D01*
X185216438Y-97789010D01*
X185241123Y-97867539D01*
X185273339Y-97909368D01*
X185314073Y-97923767D01*
X185364313Y-97920007D01*
X185372542Y-97918486D01*
X185392770Y-97904426D01*
X185409195Y-97864574D01*
X185422199Y-97789567D01*
X185432166Y-97670042D01*
X185439476Y-97496636D01*
X185444512Y-97259986D01*
X185447656Y-96950728D01*
X185448328Y-96789705D01*
X185738026Y-96789705D01*
X185738645Y-97139158D01*
X185740646Y-97433930D01*
X185743949Y-97662121D01*
X185748475Y-97811833D01*
X185753791Y-97870410D01*
X185817922Y-97919605D01*
X185868746Y-97920770D01*
X185891810Y-97910512D01*
X185910671Y-97883086D01*
X185925842Y-97828888D01*
X185937838Y-97738312D01*
X185947172Y-97601752D01*
X185954360Y-97409604D01*
X185959915Y-97152263D01*
X185963551Y-96880017D01*
X186245118Y-96880017D01*
X186247315Y-97206135D01*
X186253517Y-97458025D01*
X186264596Y-97644808D01*
X186281424Y-97775604D01*
X186304872Y-97859533D01*
X186335813Y-97905718D01*
X186375119Y-97923278D01*
X186423662Y-97921334D01*
X186435728Y-97919183D01*
X186456819Y-97906634D01*
X186473936Y-97871601D01*
X186487487Y-97804591D01*
X186497875Y-97696111D01*
X186505506Y-97536669D01*
X186510785Y-97316774D01*
X186514118Y-97026931D01*
X186515268Y-96789705D01*
X186804826Y-96789705D01*
X186805445Y-97139158D01*
X186807446Y-97433930D01*
X186810749Y-97662121D01*
X186815275Y-97811833D01*
X186820591Y-97870410D01*
X186884722Y-97919605D01*
X186935546Y-97920770D01*
X186958610Y-97910512D01*
X186977471Y-97883086D01*
X186992642Y-97828888D01*
X187004638Y-97738312D01*
X187013972Y-97601752D01*
X187021160Y-97409604D01*
X187026715Y-97152263D01*
X187031151Y-96820122D01*
X187034983Y-96403578D01*
X187037921Y-96008401D01*
X187051243Y-94113170D01*
X186936321Y-94129485D01*
X186821400Y-94145800D01*
X186808044Y-95974356D01*
X186805666Y-96397471D01*
X186804826Y-96789705D01*
X186515268Y-96789705D01*
X186515909Y-96657650D01*
X186516564Y-96199438D01*
X186516600Y-96024704D01*
X186516600Y-94145800D01*
X186262600Y-94145800D01*
X186249251Y-95968612D01*
X186246054Y-96470550D01*
X186245118Y-96880017D01*
X185963551Y-96880017D01*
X185964351Y-96820122D01*
X185968183Y-96403578D01*
X185971121Y-96008401D01*
X185984443Y-94113170D01*
X185869521Y-94129485D01*
X185754600Y-94145800D01*
X185741244Y-95974356D01*
X185738866Y-96397471D01*
X185738026Y-96789705D01*
X185448328Y-96789705D01*
X185449290Y-96559498D01*
X185449796Y-96076935D01*
X185449800Y-96025400D01*
X185449597Y-95538911D01*
X185448664Y-95144304D01*
X185446510Y-94831863D01*
X185442647Y-94591871D01*
X185436584Y-94414609D01*
X185427834Y-94290362D01*
X185415905Y-94209411D01*
X185400309Y-94162040D01*
X185380557Y-94138532D01*
X185356159Y-94129169D01*
X185354287Y-94128797D01*
X185254067Y-94144825D01*
X185215365Y-94178901D01*
X185205211Y-94244188D01*
X185195856Y-94398989D01*
X185187589Y-94631220D01*
X185180699Y-94928798D01*
X185175475Y-95279637D01*
X185172205Y-95671654D01*
X185171177Y-96027940D01*
X184966439Y-96027940D01*
X184966556Y-96003351D01*
X184966389Y-95626975D01*
X184964235Y-95265140D01*
X184960064Y-94932289D01*
X184953845Y-94642860D01*
X184945549Y-94411296D01*
X184935145Y-94252036D01*
X184922604Y-94179522D01*
X184922234Y-94178901D01*
X184841848Y-94129786D01*
X184783312Y-94128784D01*
X184758233Y-94137833D01*
X184737847Y-94160913D01*
X184721574Y-94207872D01*
X184708832Y-94288557D01*
X184699041Y-94412816D01*
X184691620Y-94590494D01*
X184685989Y-94831439D01*
X184681567Y-95145499D01*
X184677773Y-95542521D01*
X184674444Y-95975039D01*
X184672027Y-96397879D01*
X184671076Y-96789667D01*
X184381528Y-96789667D01*
X184382490Y-96559498D01*
X184382996Y-96076935D01*
X184383000Y-96025400D01*
X184382797Y-95538911D01*
X184381864Y-95144304D01*
X184379710Y-94831863D01*
X184375847Y-94591871D01*
X184369784Y-94414609D01*
X184361034Y-94290362D01*
X184349105Y-94209411D01*
X184333509Y-94162040D01*
X184313757Y-94138532D01*
X184289359Y-94129169D01*
X184287487Y-94128797D01*
X184187267Y-94144825D01*
X184148565Y-94178901D01*
X184138411Y-94244188D01*
X184129056Y-94398989D01*
X184120789Y-94631220D01*
X184113899Y-94928798D01*
X184108675Y-95279637D01*
X184105405Y-95671654D01*
X184104377Y-96027940D01*
X183901345Y-96027940D01*
X183902047Y-95707058D01*
X183900688Y-95341323D01*
X183897082Y-95001661D01*
X183891168Y-94702256D01*
X183882886Y-94457293D01*
X183872172Y-94280955D01*
X183858967Y-94187427D01*
X183855434Y-94178901D01*
X183775048Y-94129786D01*
X183716512Y-94128784D01*
X183691433Y-94137833D01*
X183671047Y-94160913D01*
X183654774Y-94207872D01*
X183642032Y-94288557D01*
X183632241Y-94412816D01*
X183624820Y-94590494D01*
X183619189Y-94831439D01*
X183614767Y-95145499D01*
X183610973Y-95542521D01*
X183607644Y-95975039D01*
X183605227Y-96397879D01*
X183604276Y-96789667D01*
X183314728Y-96789667D01*
X183315690Y-96559498D01*
X183316196Y-96076935D01*
X183316200Y-96025400D01*
X183315997Y-95538911D01*
X183315064Y-95144304D01*
X183312910Y-94831863D01*
X183309047Y-94591871D01*
X183302984Y-94414609D01*
X183294234Y-94290362D01*
X183282305Y-94209411D01*
X183266709Y-94162040D01*
X183246957Y-94138532D01*
X183222559Y-94129169D01*
X183220687Y-94128797D01*
X183120467Y-94144825D01*
X183081765Y-94178901D01*
X183071611Y-94244188D01*
X183062256Y-94398989D01*
X183053989Y-94631220D01*
X183047099Y-94928798D01*
X183041875Y-95279637D01*
X183038605Y-95671654D01*
X183037577Y-96027940D01*
X182834545Y-96027940D01*
X182835247Y-95707058D01*
X182833888Y-95341323D01*
X182830282Y-95001661D01*
X182824368Y-94702256D01*
X182816086Y-94457293D01*
X182805372Y-94280955D01*
X182792167Y-94187427D01*
X182788634Y-94178901D01*
X182708248Y-94129786D01*
X182649712Y-94128784D01*
X182624633Y-94137833D01*
X182604247Y-94160913D01*
X182587974Y-94207872D01*
X182575232Y-94288557D01*
X182565441Y-94412816D01*
X182558020Y-94590494D01*
X182552389Y-94831439D01*
X182547967Y-95145499D01*
X182544173Y-95542521D01*
X182540844Y-95975039D01*
X182538427Y-96397879D01*
X182537476Y-96789667D01*
X182248341Y-96789667D01*
X182248503Y-96761224D01*
X182249300Y-96329090D01*
X182249400Y-96024704D01*
X182249302Y-95538766D01*
X182248642Y-95144704D01*
X182246865Y-94832794D01*
X182243420Y-94593311D01*
X182237753Y-94416530D01*
X182229313Y-94292728D01*
X182217545Y-94212181D01*
X182201897Y-94165164D01*
X182181817Y-94141952D01*
X182156751Y-94132822D01*
X182141721Y-94130434D01*
X182045729Y-94150937D01*
X182002715Y-94232034D01*
X181991518Y-94325070D01*
X181982672Y-94501830D01*
X181976092Y-94747710D01*
X181971689Y-95048106D01*
X181969378Y-95388415D01*
X181969069Y-95754034D01*
X181768344Y-95754034D01*
X181768447Y-95707058D01*
X181767088Y-95341323D01*
X181763482Y-95001661D01*
X181757568Y-94702256D01*
X181749286Y-94457293D01*
X181738572Y-94280955D01*
X181725367Y-94187427D01*
X181721834Y-94178901D01*
X181641448Y-94129786D01*
X181582912Y-94128784D01*
X181557833Y-94137833D01*
X181537447Y-94160913D01*
X181521174Y-94207872D01*
X181508432Y-94288557D01*
X181498641Y-94412816D01*
X181491220Y-94590494D01*
X181485589Y-94831439D01*
X181481167Y-95145499D01*
X181477373Y-95542521D01*
X181474044Y-95975039D01*
X181471627Y-96397879D01*
X181470676Y-96789667D01*
X181181173Y-96789667D01*
X181182016Y-96600200D01*
X181182587Y-96127704D01*
X181182600Y-96024704D01*
X181182600Y-94145800D01*
X181068300Y-94129566D01*
X180954000Y-94113333D01*
X180954000Y-95988000D01*
X180688062Y-95988000D01*
X180687948Y-95968612D01*
X180674600Y-94145800D01*
X180420600Y-94145800D01*
X180407244Y-95974356D01*
X180404827Y-96397276D01*
X180403876Y-96789145D01*
X180114375Y-96789145D01*
X180115216Y-96600200D01*
X180115787Y-96127704D01*
X180115800Y-96024704D01*
X180115800Y-94145800D01*
X180001500Y-94129566D01*
X179887200Y-94113333D01*
X179887200Y-95988000D01*
X179622382Y-95988000D01*
X179621971Y-95923800D01*
X179607800Y-94145800D01*
X179353800Y-94145800D01*
X179340444Y-95974356D01*
X179338027Y-96397276D01*
X179337076Y-96789145D01*
X179055356Y-96789145D01*
X179057699Y-96585105D01*
X179061621Y-96109333D01*
X179062318Y-96012016D01*
X179075636Y-94120400D01*
X178820400Y-94120400D01*
X178008792Y-94120400D01*
X178008843Y-94113170D01*
X177893921Y-94129485D01*
X177779000Y-94145800D01*
X177765644Y-95974356D01*
X177763266Y-96397471D01*
X177762426Y-96789705D01*
X177472868Y-96789705D01*
X177473509Y-96657650D01*
X177474164Y-96199438D01*
X177474200Y-96024704D01*
X177474200Y-94145800D01*
X177220200Y-94145800D01*
X177206851Y-95968612D01*
X177203654Y-96470550D01*
X177202718Y-96880017D01*
X176921151Y-96880017D01*
X176921951Y-96820122D01*
X176925783Y-96403578D01*
X176928721Y-96008401D01*
X176942043Y-94113170D01*
X176827121Y-94129485D01*
X176712200Y-94145800D01*
X176698844Y-95974356D01*
X176696466Y-96397471D01*
X176695626Y-96789705D01*
X176405928Y-96789705D01*
X176406890Y-96559498D01*
X176407396Y-96076935D01*
X176407400Y-96025400D01*
X176407197Y-95538911D01*
X176406264Y-95144304D01*
X176404110Y-94831863D01*
X176400247Y-94591871D01*
X176394184Y-94414609D01*
X176385434Y-94290362D01*
X176373505Y-94209411D01*
X176357909Y-94162040D01*
X176338157Y-94138532D01*
X176313759Y-94129169D01*
X176311887Y-94128797D01*
X176211667Y-94144825D01*
X176172965Y-94178901D01*
X176162811Y-94244188D01*
X176153456Y-94398989D01*
X176145189Y-94631220D01*
X176138299Y-94928798D01*
X176133075Y-95279637D01*
X176129805Y-95671654D01*
X176128777Y-96027940D01*
X175924039Y-96027940D01*
X175924156Y-96003351D01*
X175923989Y-95626975D01*
X175921835Y-95265140D01*
X175917664Y-94932289D01*
X175911445Y-94642860D01*
X175903149Y-94411296D01*
X175892745Y-94252036D01*
X175880204Y-94179522D01*
X175879834Y-94178901D01*
X175799448Y-94129786D01*
X175740912Y-94128784D01*
X175715833Y-94137833D01*
X175695447Y-94160913D01*
X175679174Y-94207872D01*
X175666432Y-94288557D01*
X175656641Y-94412816D01*
X175649220Y-94590494D01*
X175643589Y-94831439D01*
X175639167Y-95145499D01*
X175635373Y-95542521D01*
X175632044Y-95975039D01*
X175629627Y-96397879D01*
X175628676Y-96789667D01*
X175339128Y-96789667D01*
X175340090Y-96559498D01*
X175340596Y-96076935D01*
X175340600Y-96025400D01*
X175340397Y-95538911D01*
X175339464Y-95144304D01*
X175337310Y-94831863D01*
X175333447Y-94591871D01*
X175327384Y-94414609D01*
X175318634Y-94290362D01*
X175306705Y-94209411D01*
X175291109Y-94162040D01*
X175271357Y-94138532D01*
X175246959Y-94129169D01*
X175245087Y-94128797D01*
X175144867Y-94144825D01*
X175106165Y-94178901D01*
X175096011Y-94244188D01*
X175086656Y-94398989D01*
X175078389Y-94631220D01*
X175071499Y-94928798D01*
X175066275Y-95279637D01*
X175063005Y-95671654D01*
X175061977Y-96027940D01*
X174858945Y-96027940D01*
X174859647Y-95707058D01*
X174858288Y-95341323D01*
X174854682Y-95001661D01*
X174848768Y-94702256D01*
X174840486Y-94457293D01*
X174829772Y-94280955D01*
X174816567Y-94187427D01*
X174813034Y-94178901D01*
X174732648Y-94129786D01*
X174674112Y-94128784D01*
X174649033Y-94137833D01*
X174628647Y-94160913D01*
X174612374Y-94207872D01*
X174599632Y-94288557D01*
X174589841Y-94412816D01*
X174582420Y-94590494D01*
X174576789Y-94831439D01*
X174572367Y-95145499D01*
X174568573Y-95542521D01*
X174565244Y-95975039D01*
X174562827Y-96397879D01*
X174561876Y-96789667D01*
X174272328Y-96789667D01*
X174273290Y-96559498D01*
X174273796Y-96076935D01*
X174273800Y-96025400D01*
X174273597Y-95538911D01*
X174272664Y-95144304D01*
X174270510Y-94831863D01*
X174266647Y-94591871D01*
X174260584Y-94414609D01*
X174251834Y-94290362D01*
X174239905Y-94209411D01*
X174224309Y-94162040D01*
X174204557Y-94138532D01*
X174180159Y-94129169D01*
X174178287Y-94128797D01*
X174078067Y-94144825D01*
X174039365Y-94178901D01*
X174029211Y-94244188D01*
X174019856Y-94398989D01*
X174011589Y-94631220D01*
X174004699Y-94928798D01*
X173999475Y-95279637D01*
X173996205Y-95671654D01*
X173995177Y-96027940D01*
X173792145Y-96027940D01*
X173792847Y-95707058D01*
X173791488Y-95341323D01*
X173787882Y-95001661D01*
X173781968Y-94702256D01*
X173773686Y-94457293D01*
X173762972Y-94280955D01*
X173749767Y-94187427D01*
X173746234Y-94178901D01*
X173665848Y-94129786D01*
X173607312Y-94128784D01*
X173582233Y-94137833D01*
X173561847Y-94160913D01*
X173545574Y-94207872D01*
X173532832Y-94288557D01*
X173523041Y-94412816D01*
X173515620Y-94590494D01*
X173509989Y-94831439D01*
X173505567Y-95145499D01*
X173501773Y-95542521D01*
X173498444Y-95975039D01*
X173496027Y-96397879D01*
X173495076Y-96789667D01*
X173205941Y-96789667D01*
X173206103Y-96761224D01*
X173206900Y-96329090D01*
X173207000Y-96024704D01*
X173206902Y-95538766D01*
X173206242Y-95144704D01*
X173204465Y-94832794D01*
X173201020Y-94593311D01*
X173195353Y-94416530D01*
X173186913Y-94292728D01*
X173175145Y-94212181D01*
X173159497Y-94165164D01*
X173139417Y-94141952D01*
X173114351Y-94132822D01*
X173099321Y-94130434D01*
X173003329Y-94150937D01*
X172960315Y-94232034D01*
X172949118Y-94325070D01*
X172940272Y-94501830D01*
X172933692Y-94747710D01*
X172929289Y-95048106D01*
X172926978Y-95388415D01*
X172926669Y-95754034D01*
X172725944Y-95754034D01*
X172726047Y-95707058D01*
X172724688Y-95341323D01*
X172721082Y-95001661D01*
X172715168Y-94702256D01*
X172706886Y-94457293D01*
X172696172Y-94280955D01*
X172682967Y-94187427D01*
X172679434Y-94178901D01*
X172599048Y-94129786D01*
X172540512Y-94128784D01*
X172515433Y-94137833D01*
X172495047Y-94160913D01*
X172478774Y-94207872D01*
X172466032Y-94288557D01*
X172456241Y-94412816D01*
X172448820Y-94590494D01*
X172443189Y-94831439D01*
X172438767Y-95145499D01*
X172434973Y-95542521D01*
X172431644Y-95975039D01*
X172429227Y-96397879D01*
X172428276Y-96789667D01*
X172138773Y-96789667D01*
X172139616Y-96600200D01*
X172140187Y-96127704D01*
X172140200Y-96024704D01*
X172140200Y-94145800D01*
X172025900Y-94129566D01*
X171911600Y-94113333D01*
X171911600Y-95988000D01*
X171645662Y-95988000D01*
X171645548Y-95968612D01*
X171632200Y-94145800D01*
X171378200Y-94145800D01*
X171364844Y-95974356D01*
X171362427Y-96397276D01*
X171361476Y-96789145D01*
X171071975Y-96789145D01*
X171072816Y-96600200D01*
X171073387Y-96127704D01*
X171073400Y-96024704D01*
X171073400Y-94145800D01*
X170959100Y-94129566D01*
X170844800Y-94113333D01*
X170844800Y-95988000D01*
X170579982Y-95988000D01*
X170579571Y-95923800D01*
X170565400Y-94145800D01*
X170311400Y-94145800D01*
X170298044Y-95974356D01*
X170295627Y-96397276D01*
X170294676Y-96789145D01*
X170013710Y-96789145D01*
X170015104Y-96651249D01*
X170018609Y-96197085D01*
X170019918Y-96012700D01*
X170033236Y-94120400D01*
X169905618Y-94120400D01*
X169837020Y-94126114D01*
X169798812Y-94158564D01*
X169782121Y-94240706D01*
X169778075Y-94395498D01*
X169778000Y-94450600D01*
X169775700Y-94628146D01*
X169763031Y-94727043D01*
X169731340Y-94770226D01*
X169671975Y-94780631D01*
X169653424Y-94780800D01*
X169585019Y-94773573D01*
X169545895Y-94736356D01*
X169525796Y-94645837D01*
X169514465Y-94478709D01*
X169513724Y-94463300D01*
X169502712Y-94289916D01*
X169483699Y-94194767D01*
X169446240Y-94154517D01*
X169379887Y-94145831D01*
X169371600Y-94145800D01*
X169301918Y-94152681D01*
X169262134Y-94188881D01*
X169241802Y-94277737D01*
X169230475Y-94442584D01*
X169229475Y-94463300D01*
X169218377Y-94636761D01*
X169199240Y-94731956D01*
X169161807Y-94772193D01*
X169095823Y-94780781D01*
X169089775Y-94780800D01*
X169023065Y-94774788D01*
X168985757Y-94741542D01*
X168969334Y-94658242D01*
X168965279Y-94502071D01*
X168965200Y-94447066D01*
X168962940Y-94268748D01*
X168950983Y-94170430D01*
X168921557Y-94130530D01*
X168866895Y-94127467D01*
X168850900Y-94129566D01*
X168787458Y-94148905D01*
X168750770Y-94200435D01*
X168731396Y-94308498D01*
X168721475Y-94463300D01*
X168710287Y-94636851D01*
X168691016Y-94732098D01*
X168653597Y-94772319D01*
X168587966Y-94780792D01*
X168584200Y-94780800D01*
X168517067Y-94773206D01*
X168478598Y-94734908D01*
X168458728Y-94642628D01*
X168447393Y-94473090D01*
X168446924Y-94463300D01*
X168435912Y-94289916D01*
X168416899Y-94194767D01*
X168379440Y-94154517D01*
X168313087Y-94145831D01*
X168304800Y-94145800D01*
X168235118Y-94152681D01*
X168195334Y-94188881D01*
X168175002Y-94277737D01*
X168163675Y-94442584D01*
X168162675Y-94463300D01*
X168151577Y-94636761D01*
X168132440Y-94731956D01*
X168095007Y-94772193D01*
X168029023Y-94780781D01*
X168022975Y-94780800D01*
X167956265Y-94774788D01*
X167918957Y-94741542D01*
X167902534Y-94658242D01*
X167898479Y-94502071D01*
X167898400Y-94447066D01*
X167896140Y-94268748D01*
X167884183Y-94170430D01*
X167854757Y-94130530D01*
X167800095Y-94127467D01*
X167784100Y-94129566D01*
X167720658Y-94148905D01*
X167683970Y-94200435D01*
X167664596Y-94308498D01*
X167654675Y-94463300D01*
X167643487Y-94636851D01*
X167624216Y-94732098D01*
X167586797Y-94772319D01*
X167521166Y-94780792D01*
X167517400Y-94780800D01*
X167450224Y-94773190D01*
X167411750Y-94734833D01*
X167391888Y-94642434D01*
X167380550Y-94472696D01*
X167380124Y-94463810D01*
X167366518Y-94284544D01*
X167342179Y-94183640D01*
X167299453Y-94137907D01*
X167269487Y-94128611D01*
X167175741Y-94139278D01*
X167117704Y-94221642D01*
X167090268Y-94386454D01*
X167086377Y-94514100D01*
X167081042Y-94671096D01*
X167059954Y-94751193D01*
X167013707Y-94778895D01*
X166984000Y-94780800D01*
X166924154Y-94767997D01*
X166893481Y-94713254D01*
X166882575Y-94592068D01*
X166881622Y-94514100D01*
X166868644Y-94300088D01*
X166827833Y-94174353D01*
X166754083Y-94126145D01*
X166698512Y-94128611D01*
X166643983Y-94155777D01*
X166611591Y-94226750D01*
X166593683Y-94364722D01*
X166587875Y-94463810D01*
X166576671Y-94637190D01*
X166557353Y-94732284D01*
X166519834Y-94772387D01*
X166454024Y-94780793D01*
X166450600Y-94780800D01*
X166383424Y-94773190D01*
X166344950Y-94734833D01*
X166325088Y-94642434D01*
X166313750Y-94472696D01*
X166313324Y-94463810D01*
X166299718Y-94284544D01*
X166275379Y-94183640D01*
X166232653Y-94137907D01*
X166202687Y-94128611D01*
X166102435Y-94144813D01*
X166063765Y-94178901D01*
X166049721Y-94250952D01*
X166038259Y-94409179D01*
X166029312Y-94639392D01*
X166022813Y-94927401D01*
X166018695Y-95259017D01*
X166016890Y-95620050D01*
X165816924Y-95620050D01*
X165815888Y-95341323D01*
X165812282Y-95001661D01*
X165806368Y-94702256D01*
X165798086Y-94457293D01*
X165787372Y-94280955D01*
X165774167Y-94187427D01*
X165770634Y-94178901D01*
X165690248Y-94129786D01*
X165631712Y-94128784D01*
X165606633Y-94137833D01*
X165586247Y-94160913D01*
X165569974Y-94207872D01*
X165557232Y-94288557D01*
X165547441Y-94412816D01*
X165540020Y-94590494D01*
X165534389Y-94831439D01*
X165529967Y-95145499D01*
X165526173Y-95542521D01*
X165522844Y-95975039D01*
X165520427Y-96397879D01*
X165519476Y-96789667D01*
X165284383Y-96789667D01*
X165283176Y-96597185D01*
X165282226Y-96102945D01*
X165282200Y-95988063D01*
X165282396Y-95494413D01*
X165283309Y-95092484D01*
X165285426Y-94772400D01*
X165289236Y-94524283D01*
X165295224Y-94338254D01*
X165303879Y-94204437D01*
X165315687Y-94112954D01*
X165331137Y-94053927D01*
X165350714Y-94017477D01*
X165374908Y-93993729D01*
X165380809Y-93989293D01*
X165403141Y-93980943D01*
X165448943Y-93973246D01*
X165522059Y-93966176D01*
X165626335Y-93959707D01*
X165765614Y-93953815D01*
X165943741Y-93948473D01*
X166164561Y-93943657D01*
X166431916Y-93939342D01*
X166749653Y-93935500D01*
X167121615Y-93932109D01*
X167551647Y-93929141D01*
X168043593Y-93926572D01*
X168601298Y-93924376D01*
X169228605Y-93922529D01*
X169929360Y-93921004D01*
X170707407Y-93919776D01*
X171566589Y-93918820D01*
X172510753Y-93918110D01*
X173543740Y-93917622D01*
X174669398Y-93917329D01*
X175891569Y-93917207D01*
X176307636Y-93917200D01*
X177543277Y-93917223D01*
X178681360Y-93917315D01*
X179725926Y-93917512D01*
X180681015Y-93917847D01*
X181550670Y-93918354D01*
X182338931Y-93919068D01*
X183049841Y-93920024D01*
X183687439Y-93921256D01*
X184255769Y-93922798D01*
X184758870Y-93924685D01*
X185200784Y-93926950D01*
X185585553Y-93929629D01*
X185917218Y-93932756D01*
X186199820Y-93936366D01*
X186437401Y-93940492D01*
X186634001Y-93945169D01*
X186793663Y-93950432D01*
X186920427Y-93956314D01*
X187018335Y-93962851D01*
X187091428Y-93970077D01*
X187143747Y-93978025D01*
X187179335Y-93986731D01*
X187202231Y-93996230D01*
X187216478Y-94006554D01*
X187219926Y-94010100D01*
X187242072Y-94043240D01*
X187260013Y-94095444D01*
X187274188Y-94176756D01*
X187285036Y-94297216D01*
X187292995Y-94466868D01*
X187298504Y-94695753D01*
X187302001Y-94993914D01*
X187303924Y-95371393D01*
X187304713Y-95838233D01*
X187304777Y-95953200D01*
X187306113Y-96378911D01*
X187309569Y-96773817D01*
X187314875Y-97126087D01*
X187321757Y-97423888D01*
X187329943Y-97655388D01*
X187339161Y-97808755D01*
X187348965Y-97871898D01*
X187429354Y-97921020D01*
X187487887Y-97922028D01*
X187513504Y-97912596D01*
X187534343Y-97888456D01*
X187551093Y-97839544D01*
X187564440Y-97755800D01*
X187575074Y-97627162D01*
X187583683Y-97443569D01*
X187590954Y-97194960D01*
X187597575Y-96871272D01*
X187604234Y-96462444D01*
X187608800Y-96153882D01*
X187634200Y-94404105D01*
X187735800Y-94554352D01*
X187764302Y-94602083D01*
X187787265Y-94659603D01*
X187805518Y-94738369D01*
X187819894Y-94849840D01*
X187831223Y-95005475D01*
X187840338Y-95216732D01*
X187848069Y-95495069D01*
X187855247Y-95851944D01*
X187862705Y-96298817D01*
X187862800Y-96304800D01*
X187870063Y-96749735D01*
X187876722Y-97103518D01*
X187883605Y-97376587D01*
X187891541Y-97579379D01*
X187901359Y-97722334D01*
X187913886Y-97815888D01*
X187929952Y-97870480D01*
X187950383Y-97896547D01*
X187976010Y-97904528D01*
X187989800Y-97905000D01*
X188019458Y-97901733D01*
X188042846Y-97884591D01*
X188060846Y-97842562D01*
X188074339Y-97764636D01*
X188084206Y-97639800D01*
X188091329Y-97457042D01*
X188096589Y-97205351D01*
X188100867Y-96873716D01*
X188104896Y-96466948D01*
X188118392Y-95028897D01*
X188243710Y-95177829D01*
X188282081Y-95225421D01*
X188311826Y-95274416D01*
X188334201Y-95337807D01*
X188350463Y-95428593D01*
X188361867Y-95559768D01*
X188369668Y-95744329D01*
X188375124Y-95995272D01*
X188379490Y-96325593D01*
X188382614Y-96615208D01*
X188387167Y-97010509D01*
X188392117Y-97315970D01*
X188398443Y-97543351D01*
X188407128Y-97704409D01*
X188419154Y-97810904D01*
X188435501Y-97874595D01*
X188457153Y-97907239D01*
X188485090Y-97920597D01*
X188491712Y-97922026D01*
X188591936Y-97905975D01*
X188630634Y-97871898D01*
X188643711Y-97802319D01*
X188655286Y-97647373D01*
X188664720Y-97423290D01*
X188671376Y-97146298D01*
X188674617Y-96832627D01*
X188674822Y-96746928D01*
X188675600Y-95690456D01*
X188800261Y-95781728D01*
X188842617Y-95815092D01*
X188874314Y-95854011D01*
X188897156Y-95912783D01*
X188912946Y-96005708D01*
X188923490Y-96147086D01*
X188930591Y-96351217D01*
X188936053Y-96632399D01*
X188939961Y-96889000D01*
X188945499Y-97234179D01*
X188951456Y-97490846D01*
X188959334Y-97672084D01*
X188970634Y-97790975D01*
X188986860Y-97860603D01*
X189009512Y-97894048D01*
X189040093Y-97904394D01*
X189056600Y-97905000D01*
X189092351Y-97900473D01*
X189118864Y-97877836D01*
X189137807Y-97823497D01*
X189138815Y-97815788D01*
X193569387Y-97815788D01*
X193620502Y-98031501D01*
X193721265Y-98176396D01*
X193845437Y-98257040D01*
X194013734Y-98271389D01*
X194113745Y-98247530D01*
X199028776Y-98247530D01*
X199034978Y-98541217D01*
X199125623Y-98856654D01*
X199179363Y-98973826D01*
X199333324Y-99232266D01*
X199525432Y-99486060D01*
X199732652Y-99708742D01*
X199931952Y-99873846D01*
X199998012Y-99914467D01*
X200227806Y-99988267D01*
X200501802Y-99996253D01*
X200788207Y-99940047D01*
X200976855Y-99864481D01*
X201241385Y-99697710D01*
X201494868Y-99476472D01*
X201716881Y-99224101D01*
X201887001Y-98963928D01*
X201984805Y-98719284D01*
X201986801Y-98710699D01*
X201989189Y-98477529D01*
X201901862Y-98229812D01*
X201733481Y-97978390D01*
X201492707Y-97734105D01*
X201188202Y-97507797D01*
X200892540Y-97341022D01*
X200685035Y-97244364D01*
X200532557Y-97191551D01*
X200403082Y-97174039D01*
X200289843Y-97180226D01*
X199970379Y-97261728D01*
X199656392Y-97422752D01*
X199376249Y-97643833D01*
X199158313Y-97905505D01*
X199108147Y-97991198D01*
X199028776Y-98247530D01*
X194113745Y-98247530D01*
X194235936Y-98218380D01*
X194521826Y-98096952D01*
X194541608Y-98087275D01*
X194856094Y-97892201D01*
X195119620Y-97648783D01*
X195313742Y-97376707D01*
X195401646Y-97169233D01*
X195446748Y-96960933D01*
X195430179Y-96818602D01*
X195344930Y-96722563D01*
X195222291Y-96665743D01*
X194930798Y-96611520D01*
X194637415Y-96653352D01*
X194337857Y-96792638D01*
X194027844Y-97030777D01*
X193985584Y-97069983D01*
X193753070Y-97330250D01*
X193613957Y-97580444D01*
X193569387Y-97815788D01*
X189138815Y-97815788D01*
X189150845Y-97723867D01*
X189159644Y-97565357D01*
X189165871Y-97334378D01*
X189171192Y-97017340D01*
X189171978Y-96964081D01*
X189177254Y-96633420D01*
X189183203Y-96389989D01*
X189191661Y-96219424D01*
X189204462Y-96107362D01*
X189223441Y-96039441D01*
X189250432Y-96001296D01*
X189262588Y-95993795D01*
X190508961Y-95993795D01*
X190581985Y-96146572D01*
X190650767Y-96222820D01*
X190830271Y-96346904D01*
X191075476Y-96433159D01*
X191396855Y-96484133D01*
X191799800Y-96502341D01*
X192070880Y-96498912D01*
X192268501Y-96481969D01*
X192420313Y-96447949D01*
X192519739Y-96409541D01*
X192691450Y-96305001D01*
X192816753Y-96177730D01*
X192877748Y-96049885D01*
X192872811Y-95972468D01*
X192798797Y-95894365D01*
X192644079Y-95807040D01*
X192428089Y-95718446D01*
X192170263Y-95636537D01*
X191890031Y-95569266D01*
X191885359Y-95568329D01*
X191555021Y-95523784D01*
X191252936Y-95522997D01*
X190988894Y-95560779D01*
X190772686Y-95631939D01*
X190614101Y-95731289D01*
X190522929Y-95853638D01*
X190508961Y-95993795D01*
X189262588Y-95993795D01*
X189287272Y-95978565D01*
X189298521Y-95973481D01*
X189403062Y-95897350D01*
X189499034Y-95760001D01*
X189589901Y-95552638D01*
X189679130Y-95266464D01*
X189770186Y-94892683D01*
X189823392Y-94641206D01*
X189882695Y-94359356D01*
X189938706Y-94111858D01*
X189987165Y-93916145D01*
X190023811Y-93789653D01*
X190041003Y-93750676D01*
X190106852Y-93748819D01*
X190252355Y-93783769D01*
D14*
X166700000Y-95300000D03*
X169300000Y-95300000D03*
X169300000Y-96700000D03*
X166700000Y-96700000D03*
D10*
G36*
X208683883Y-95730330D02*
X208330330Y-96083883D01*
X207764645Y-95518198D01*
X208118198Y-95164645D01*
X208683883Y-95730330D01*
X208683883Y-95730330D01*
G37*
G36*
X207835355Y-94881802D02*
X207481802Y-95235355D01*
X206916117Y-94669670D01*
X207269670Y-94316117D01*
X207835355Y-94881802D01*
X207835355Y-94881802D01*
G37*
G36*
X208330330Y-105516117D02*
X208683883Y-105869670D01*
X208118198Y-106435355D01*
X207764645Y-106081802D01*
X208330330Y-105516117D01*
X208330330Y-105516117D01*
G37*
G36*
X207481802Y-106364645D02*
X207835355Y-106718198D01*
X207269670Y-107283883D01*
X206916117Y-106930330D01*
X207481802Y-106364645D01*
X207481802Y-106364645D01*
G37*
D15*
X197350000Y-102250000D03*
X197350000Y-100250000D03*
X193850000Y-100250000D03*
X193850000Y-102250000D03*
X199750000Y-102250000D03*
X199750000Y-104250000D03*
X203250000Y-104250000D03*
X203250000Y-102250000D03*
M02*
