  0
SECTION
  2
HEADER
  9
$ACADVER
  1
AC1014
  9
$HANDSEED
  5
FFFF
  9
$MEASUREMENT
 70
     1
  0
ENDSEC
  0
SECTION
  2
TABLES
  0
TABLE
  2
VPORT
  5
8
330
0
100
AcDbSymbolTable
 70
     4
  0
VPORT
  5
2E
330
8
100
AcDbSymbolTableRecord
100
AcDbViewportTableRecord
  2
*ACTIVE
 70
     0
 10
0.0
 20
0.0
 11
1.0
 21
1.0
 12
210.0
 22
148.5
 13
0.0
 23
0.0
 14
10.0
 24
10.0
 15
10.0
 25
10.0
 16
0.0
 26
0.0
 36
1.0
 17
0.0
 27
0.0
 37
0.0
 40
341.0
 41
1.24
 42
50.0
 43
0.0
 44
0.0
 50
0.0
 51
0.0
 71
     0
 72
   100
 73
     1
 74
     3
 75
     0
 76
     0
 77
     0
 78
     0
  0
ENDTAB
  0
TABLE
  2
LTYPE
  5
5
330
0
100
AcDbSymbolTable
 70
     1
  0
LTYPE
  5
14
330
5
100
AcDbSymbolTableRecord
100
AcDbLinetypeTableRecord
  2
BYBLOCK
 70
     0
  3

 72
    65
 73
     0
 40
0.0
  0
LTYPE
  5
15
330
5
100
AcDbSymbolTableRecord
100
AcDbLinetypeTableRecord
  2
BYLAYER
 70
     0
  3

 72
    65
 73
     0
 40
0.0
  0
LTYPE
  5
16
330
5
100
AcDbSymbolTableRecord
100
AcDbLinetypeTableRecord
  2
CONTINUOUS
 70
     0
  3
Solid line
 72
    65
 73
     0
 40
0.0
  0
ENDTAB
  0
TABLE
  2
LAYER
  5
2
100
AcDbSymbolTable
 70
3
  0
LAYER
  5
50
100
AcDbSymbolTableRecord
100
AcDbLayerTableRecord
  2
0
 70
0
  6
CONTINUOUS
  0
LAYER
  5
51
100
AcDbSymbolTableRecord
100
AcDbLayerTableRecord
  2
footprints
 70
0
  6
CONTINUOUS
  0
LAYER
  5
52
100
AcDbSymbolTableRecord
100
AcDbLayerTableRecord
  2
outline
 70
0
  6
CONTINUOUS
  0
ENDTAB
  0
TABLE
  2
STYLE
  5
3
330
0
100
AcDbSymbolTable
 70
     1
  0
STYLE
  5
11
330
3
100
AcDbSymbolTableRecord
100
AcDbTextStyleTableRecord
  2
STANDARD
 70
     0
 40
0.0
 41
1.0
 50
0.0
 71
     0
 42
2.5
  3
txt
  4

  0
ENDTAB
  0
TABLE
  2
VIEW
  5
6
330
0
100
AcDbSymbolTable
 70
     0
  0
ENDTAB
  0
TABLE
  2
UCS
  5
7
330
0
100
AcDbSymbolTable
 70
     0
  0
ENDTAB
  0
TABLE
  2
APPID
  5
9
330
0
100
AcDbSymbolTable
 70
     2
  0
APPID
  5
12
330
9
100
AcDbSymbolTableRecord
100
AcDbRegAppTableRecord
  2
ACAD
 70
     0
  0
ENDTAB
  0
TABLE
  2
DIMSTYLE
  5
A
330
0
100
AcDbSymbolTable
 70
     1
  0
DIMSTYLE
105
27
330
A
100
AcDbSymbolTableRecord
100
AcDbDimStyleTableRecord
  2
ISO-25
 70
     0
  3

  4

  5

  6

  7

 40
1.0
 41
2.5
 42
0.625
 43
3.75
 44
1.25
 45
0.0
 46
0.0
 47
0.0
 48
0.0
140
2.5
141
2.5
142
0.0
143
0.03937007874016
144
1.0
145
0.0
146
1.0
147
0.625
 71
     0
 72
     0
 73
     0
 74
     0
 75
     0
 76
     0
 77
     1
 78
     8
170
     0
171
     3
172
     1
173
     0
174
     0
175
     0
176
     0
177
     0
178
     0
270
     2
271
     2
272
     2
273
     2
274
     3
340
11
275
     0
280
     0
281
     0
282
     0
283
     0
284
     8
285
     0
286
     0
287
     3
288
     0
  0
ENDTAB
  0
TABLE
  2
BLOCK_RECORD
  5
1
330
0
100
AcDbSymbolTable
 70
     1
  0
BLOCK_RECORD
  5
1F
330
1
100
AcDbSymbolTableRecord
100
AcDbBlockTableRecord
  2
*MODEL_SPACE
  0
BLOCK_RECORD
  5
1B
330
1
100
AcDbSymbolTableRecord
100
AcDbBlockTableRecord
  2
*PAPER_SPACE
  0
ENDTAB
  0
ENDSEC
  0
SECTION
  2
BLOCKS
  0
BLOCK
  5
20
330
1F
100
AcDbEntity
  8
0
100
AcDbBlockBegin
  2
*MODEL_SPACE
 70
     0
 10
0.0
 20
0.0
 30
0.0
  3
*MODEL_SPACE
  1

  0
ENDBLK
  5
21
330
1F
100
AcDbEntity
  8
0
100
AcDbBlockEnd
  0
BLOCK
  5
1C
330
1B
100
AcDbEntity
 67
     1
  8
0
100
AcDbBlockBegin
  2
*PAPER_SPACE
  1

  0
ENDBLK
  5
1D
330
1B
100
AcDbEntity
 67
     1
  8
0
100
AcDbBlockEnd
  0
ENDSEC
  0
SECTION
  2
ENTITIES
  0
LINE
  5
100
100
AcDbEntity
  8
outline
 62
7
100
AcDbLine
 10
112.687303
 20
53.975001
 30
0.0
 11
105.228571
 21
49.605225
 31
0.0
  0
LINE
  5
101
100
AcDbEntity
  8
outline
 62
7
100
AcDbLine
 10
105.228571
 20
49.605225
 30
0.0
 11
105.039276
 21
49.909980
 31
0.0
  0
LINE
  5
102
100
AcDbEntity
  8
outline
 62
7
100
AcDbLine
 10
105.039276
 20
49.909980
 30
0.0
 11
104.846648
 21
50.194990
 31
0.0
  0
LINE
  5
103
100
AcDbEntity
  8
outline
 62
7
100
AcDbLine
 10
104.846648
 20
50.194990
 30
0.0
 11
104.650898
 21
50.460271
 31
0.0
  0
LINE
  5
104
100
AcDbEntity
  8
outline
 62
7
100
AcDbLine
 10
104.650898
 20
50.460271
 30
0.0
 11
104.452245
 21
50.705824
 31
0.0
  0
LINE
  5
105
100
AcDbEntity
  8
outline
 62
7
100
AcDbLine
 10
104.452245
 20
50.705824
 30
0.0
 11
104.250896
 21
50.931658
 31
0.0
  0
LINE
  5
106
100
AcDbEntity
  8
outline
 62
7
100
AcDbLine
 10
104.250896
 20
50.931658
 30
0.0
 11
104.047070
 21
51.137785
 31
0.0
  0
LINE
  5
107
100
AcDbEntity
  8
outline
 62
7
100
AcDbLine
 10
104.047070
 20
51.137785
 30
0.0
 11
103.840977
 21
51.324209
 31
0.0
  0
LINE
  5
108
100
AcDbEntity
  8
outline
 62
7
100
AcDbLine
 10
103.840977
 20
51.324209
 30
0.0
 11
103.632830
 21
51.490941
 31
0.0
  0
LINE
  5
109
100
AcDbEntity
  8
outline
 62
7
100
AcDbLine
 10
103.632830
 20
51.490941
 30
0.0
 11
103.422845
 21
51.637984
 31
0.0
  0
LINE
  5
10a
100
AcDbEntity
  8
outline
 62
7
100
AcDbLine
 10
103.422845
 20
51.637984
 30
0.0
 11
103.211232
 21
51.765354
 31
0.0
  0
LINE
  5
10b
100
AcDbEntity
  8
outline
 62
7
100
AcDbLine
 10
103.211232
 20
51.765354
 30
0.0
 11
102.998208
 21
51.873053
 31
0.0
  0
LINE
  5
10c
100
AcDbEntity
  8
outline
 62
7
100
AcDbLine
 10
102.998208
 20
51.873053
 30
0.0
 11
102.783981
 21
51.961089
 31
0.0
  0
LINE
  5
10d
100
AcDbEntity
  8
outline
 62
7
100
AcDbLine
 10
102.783981
 20
51.961089
 30
0.0
 11
102.568773
 21
52.029471
 31
0.0
  0
LINE
  5
10e
100
AcDbEntity
  8
outline
 62
7
100
AcDbLine
 10
102.568773
 20
52.029471
 30
0.0
 11
102.352788
 21
52.078211
 31
0.0
  0
LINE
  5
10f
100
AcDbEntity
  8
outline
 62
7
100
AcDbLine
 10
102.352788
 20
52.078211
 30
0.0
 11
102.136248
 21
52.107311
 31
0.0
  0
LINE
  5
110
100
AcDbEntity
  8
outline
 62
7
100
AcDbLine
 10
102.136248
 20
52.107311
 30
0.0
 11
101.919357
 21
52.116766
 31
0.0
  0
LINE
  5
111
100
AcDbEntity
  8
outline
 62
7
100
AcDbLine
 10
101.919357
 20
52.116766
 30
0.0
 11
101.702337
 21
52.106606
 31
0.0
  0
LINE
  5
112
100
AcDbEntity
  8
outline
 62
7
100
AcDbLine
 10
101.702337
 20
52.106606
 30
0.0
 11
101.485395
 21
52.076840
 31
0.0
  0
LINE
  5
113
100
AcDbEntity
  8
outline
 62
7
100
AcDbLine
 10
101.485395
 20
52.076840
 30
0.0
 11
101.268750
 21
52.027470
 31
0.0
  0
LINE
  5
114
100
AcDbEntity
  8
outline
 62
7
100
AcDbLine
 10
101.268750
 20
52.027470
 30
0.0
 11
101.052610
 21
51.958504
 31
0.0
  0
LINE
  5
115
100
AcDbEntity
  8
outline
 62
7
100
AcDbLine
 10
101.052610
 20
51.958504
 30
0.0
 11
100.837193
 21
51.869945
 31
0.0
  0
LINE
  5
116
100
AcDbEntity
  8
outline
 62
7
100
AcDbLine
 10
100.837193
 20
51.869945
 30
0.0
 11
100.622710
 21
51.761809
 31
0.0
  0
LINE
  5
117
100
AcDbEntity
  8
outline
 62
7
100
AcDbLine
 10
100.622710
 20
51.761809
 30
0.0
 11
100.409372
 21
51.634095
 31
0.0
  0
LINE
  5
118
100
AcDbEntity
  8
outline
 62
7
100
AcDbLine
 10
100.409372
 20
51.634095
 30
0.0
 11
100.197398
 21
51.486817
 31
0.0
  0
LINE
  5
119
100
AcDbEntity
  8
outline
 62
7
100
AcDbLine
 10
100.197398
 20
51.486817
 30
0.0
 11
99.986996
 21
51.319984
 31
0.0
  0
LINE
  5
11a
100
AcDbEntity
  8
outline
 62
7
100
AcDbLine
 10
99.986996
 20
51.319984
 30
0.0
 11
99.778383
 21
51.133599
 31
0.0
  0
LINE
  5
11b
100
AcDbEntity
  8
outline
 62
7
100
AcDbLine
 10
99.778383
 20
51.133599
 30
0.0
 11
99.571770
 21
50.927673
 31
0.0
  0
LINE
  5
11c
100
AcDbEntity
  8
outline
 62
7
100
AcDbLine
 10
99.571770
 20
50.927673
 30
0.0
 11
99.367374
 21
50.702214
 31
0.0
  0
LINE
  5
11d
100
AcDbEntity
  8
outline
 62
7
100
AcDbLine
 10
99.367374
 20
50.702214
 30
0.0
 11
99.165402
 21
50.457228
 31
0.0
  0
LINE
  5
11e
100
AcDbEntity
  8
outline
 62
7
100
AcDbLine
 10
99.165402
 20
50.457228
 30
0.0
 11
98.966074
 21
50.192727
 31
0.0
  0
LINE
  5
11f
100
AcDbEntity
  8
outline
 62
7
100
AcDbLine
 10
98.966074
 20
50.192727
 30
0.0
 11
98.769599
 21
49.908713
 31
0.0
  0
LINE
  5
120
100
AcDbEntity
  8
outline
 62
7
100
AcDbLine
 10
98.769599
 20
49.908713
 30
0.0
 11
98.576192
 21
49.605199
 31
0.0
  0
LINE
  5
121
100
AcDbEntity
  8
outline
 62
7
100
AcDbLine
 10
98.576192
 20
49.605199
 30
0.0
 11
91.167856
 21
54.025372
 31
0.0
  0
LINE
  5
122
100
AcDbEntity
  8
outline
 62
7
100
AcDbLine
 10
91.167856
 20
54.025372
 30
0.0
 11
91.597590
 21
54.859751
 31
0.0
  0
LINE
  5
123
100
AcDbEntity
  8
outline
 62
7
100
AcDbLine
 10
91.597590
 20
54.859751
 30
0.0
 11
92.017923
 21
55.602066
 31
0.0
  0
LINE
  5
124
100
AcDbEntity
  8
outline
 62
7
100
AcDbLine
 10
92.017923
 20
55.602066
 30
0.0
 11
92.428579
 21
56.257801
 31
0.0
  0
LINE
  5
125
100
AcDbEntity
  8
outline
 62
7
100
AcDbLine
 10
92.428579
 20
56.257801
 30
0.0
 11
92.829276
 21
56.832428
 31
0.0
  0
LINE
  5
126
100
AcDbEntity
  8
outline
 62
7
100
AcDbLine
 10
92.829276
 20
56.832428
 30
0.0
 11
93.219736
 21
57.331428
 31
0.0
  0
LINE
  5
127
100
AcDbEntity
  8
outline
 62
7
100
AcDbLine
 10
93.219736
 20
57.331428
 30
0.0
 11
93.599683
 21
57.760276
 31
0.0
  0
LINE
  5
128
100
AcDbEntity
  8
outline
 62
7
100
AcDbLine
 10
93.599683
 20
57.760276
 30
0.0
 11
93.968838
 21
58.124453
 31
0.0
  0
LINE
  5
129
100
AcDbEntity
  8
outline
 62
7
100
AcDbLine
 10
93.968838
 20
58.124453
 30
0.0
 11
94.326922
 21
58.429433
 31
0.0
  0
LINE
  5
12a
100
AcDbEntity
  8
outline
 62
7
100
AcDbLine
 10
94.326922
 20
58.429433
 30
0.0
 11
94.673657
 21
58.680696
 31
0.0
  0
LINE
  5
12b
100
AcDbEntity
  8
outline
 62
7
100
AcDbLine
 10
94.673657
 20
58.680696
 30
0.0
 11
95.008765
 21
58.883721
 31
0.0
  0
LINE
  5
12c
100
AcDbEntity
  8
outline
 62
7
100
AcDbLine
 10
95.008765
 20
58.883721
 30
0.0
 11
95.331969
 21
59.043983
 31
0.0
  0
LINE
  5
12d
100
AcDbEntity
  8
outline
 62
7
100
AcDbLine
 10
95.331969
 20
59.043983
 30
0.0
 11
95.642986
 21
59.166962
 31
0.0
  0
LINE
  5
12e
100
AcDbEntity
  8
outline
 62
7
100
AcDbLine
 10
95.642986
 20
59.166962
 30
0.0
 11
95.941543
 21
59.258136
 31
0.0
  0
LINE
  5
12f
100
AcDbEntity
  8
outline
 62
7
100
AcDbLine
 10
95.941543
 20
59.258136
 30
0.0
 11
96.227361
 21
59.322980
 31
0.0
  0
LINE
  5
130
100
AcDbEntity
  8
outline
 62
7
100
AcDbLine
 10
96.227361
 20
59.322980
 30
0.0
 11
96.500160
 21
59.366973
 31
0.0
  0
LINE
  5
131
100
AcDbEntity
  8
outline
 62
7
100
AcDbLine
 10
96.500160
 20
59.366973
 30
0.0
 11
96.759663
 21
59.395593
 31
0.0
  0
LINE
  5
132
100
AcDbEntity
  8
outline
 62
7
100
AcDbLine
 10
96.759663
 20
59.395593
 30
0.0
 11
97.005589
 21
59.414332
 31
0.0
  0
LINE
  5
133
100
AcDbEntity
  8
outline
 62
7
100
AcDbLine
 10
97.005589
 20
59.414332
 30
0.0
 11
97.237663
 21
59.428641
 31
0.0
  0
LINE
  5
134
100
AcDbEntity
  8
outline
 62
7
100
AcDbLine
 10
97.237663
 20
59.428641
 30
0.0
 11
97.455606
 21
59.443994
 31
0.0
  0
LINE
  5
135
100
AcDbEntity
  8
outline
 62
7
100
AcDbLine
 10
97.455606
 20
59.443994
 30
0.0
 11
97.659139
 21
59.465894
 31
0.0
  0
LINE
  5
136
100
AcDbEntity
  8
outline
 62
7
100
AcDbLine
 10
97.659139
 20
59.465894
 30
0.0
 11
97.847985
 21
59.499817
 31
0.0
  0
LINE
  5
137
100
AcDbEntity
  8
outline
 62
7
100
AcDbLine
 10
97.847985
 20
59.499817
 30
0.0
 11
98.021865
 21
59.551233
 31
0.0
  0
LINE
  5
138
100
AcDbEntity
  8
outline
 62
7
100
AcDbLine
 10
98.021865
 20
59.551233
 30
0.0
 11
98.180500
 21
59.625618
 31
0.0
  0
LINE
  5
139
100
AcDbEntity
  8
outline
 62
7
100
AcDbLine
 10
98.180500
 20
59.625618
 30
0.0
 11
98.323614
 21
59.728454
 31
0.0
  0
LINE
  5
13a
100
AcDbEntity
  8
outline
 62
7
100
AcDbLine
 10
98.323614
 20
59.728454
 30
0.0
 11
98.450925
 21
59.865216
 31
0.0
  0
LINE
  5
13b
100
AcDbEntity
  8
outline
 62
7
100
AcDbLine
 10
98.450925
 20
59.865216
 30
0.0
 11
98.562157
 21
60.041385
 31
0.0
  0
LINE
  5
13c
100
AcDbEntity
  8
outline
 62
7
100
AcDbLine
 10
98.562157
 20
60.041385
 30
0.0
 11
98.657035
 21
60.262433
 31
0.0
  0
LINE
  5
13d
100
AcDbEntity
  8
outline
 62
7
100
AcDbLine
 10
98.657035
 20
60.262433
 30
0.0
 11
98.735272
 21
60.533843
 31
0.0
  0
LINE
  5
13e
100
AcDbEntity
  8
outline
 62
7
100
AcDbLine
 10
98.735272
 20
60.533843
 30
0.0
 11
98.796599
 21
60.861088
 31
0.0
  0
LINE
  5
13f
100
AcDbEntity
  8
outline
 62
7
100
AcDbLine
 10
98.796599
 20
60.861088
 30
0.0
 11
98.840733
 21
61.249652
 31
0.0
  0
LINE
  5
140
100
AcDbEntity
  8
outline
 62
7
100
AcDbLine
 10
98.840733
 20
61.249652
 30
0.0
 11
98.867403
 21
61.705009
 31
0.0
  0
LINE
  5
141
100
AcDbEntity
  8
outline
 62
7
100
AcDbLine
 10
98.867403
 20
61.705009
 30
0.0
 11
98.876321
 21
62.232634
 31
0.0
  0
LINE
  5
142
100
AcDbEntity
  8
outline
 62
7
100
AcDbLine
 10
98.876321
 20
62.232634
 30
0.0
 11
98.855606
 21
62.514298
 31
0.0
  0
LINE
  5
143
100
AcDbEntity
  8
outline
 62
7
100
AcDbLine
 10
98.855606
 20
62.514298
 30
0.0
 11
98.795242
 21
62.781514
 31
0.0
  0
LINE
  5
144
100
AcDbEntity
  8
outline
 62
7
100
AcDbLine
 10
98.795242
 20
62.781514
 30
0.0
 11
98.697883
 21
63.035012
 31
0.0
  0
LINE
  5
145
100
AcDbEntity
  8
outline
 62
7
100
AcDbLine
 10
98.697883
 20
63.035012
 30
0.0
 11
98.566173
 21
63.275522
 31
0.0
  0
LINE
  5
146
100
AcDbEntity
  8
outline
 62
7
100
AcDbLine
 10
98.566173
 20
63.275522
 30
0.0
 11
98.402755
 21
63.503772
 31
0.0
  0
LINE
  5
147
100
AcDbEntity
  8
outline
 62
7
100
AcDbLine
 10
98.402755
 20
63.503772
 30
0.0
 11
98.210268
 21
63.720490
 31
0.0
  0
LINE
  5
148
100
AcDbEntity
  8
outline
 62
7
100
AcDbLine
 10
98.210268
 20
63.720490
 30
0.0
 11
97.991357
 21
63.926405
 31
0.0
  0
LINE
  5
149
100
AcDbEntity
  8
outline
 62
7
100
AcDbLine
 10
97.991357
 20
63.926405
 30
0.0
 11
97.748666
 21
64.122248
 31
0.0
  0
LINE
  5
14a
100
AcDbEntity
  8
outline
 62
7
100
AcDbLine
 10
97.748666
 20
64.122248
 30
0.0
 11
97.484836
 21
64.308746
 31
0.0
  0
LINE
  5
14b
100
AcDbEntity
  8
outline
 62
7
100
AcDbLine
 10
97.484836
 20
64.308746
 30
0.0
 11
97.202509
 21
64.486630
 31
0.0
  0
LINE
  5
14c
100
AcDbEntity
  8
outline
 62
7
100
AcDbLine
 10
97.202509
 20
64.486630
 30
0.0
 11
96.904330
 21
64.656627
 31
0.0
  0
LINE
  5
14d
100
AcDbEntity
  8
outline
 62
7
100
AcDbLine
 10
96.904330
 20
64.656627
 30
0.0
 11
96.592940
 21
64.819466
 31
0.0
  0
LINE
  5
14e
100
AcDbEntity
  8
outline
 62
7
100
AcDbLine
 10
96.592940
 20
64.819466
 30
0.0
 11
96.359819
 21
64.935480
 31
0.0
  0
LINE
  5
14f
100
AcDbEntity
  8
outline
 62
7
100
AcDbLine
 10
96.359819
 20
64.935480
 30
0.0
 11
96.102562
 21
65.058574
 31
0.0
  0
LINE
  5
150
100
AcDbEntity
  8
outline
 62
7
100
AcDbLine
 10
96.102562
 20
65.058574
 30
0.0
 11
95.826622
 21
65.188331
 31
0.0
  0
LINE
  5
151
100
AcDbEntity
  8
outline
 62
7
100
AcDbLine
 10
95.826622
 20
65.188331
 30
0.0
 11
95.537449
 21
65.324331
 31
0.0
  0
LINE
  5
152
100
AcDbEntity
  8
outline
 62
7
100
AcDbLine
 10
95.537449
 20
65.324331
 30
0.0
 11
95.240500
 21
65.466156
 31
0.0
  0
LINE
  5
153
100
AcDbEntity
  8
outline
 62
7
100
AcDbLine
 10
95.240500
 20
65.466156
 30
0.0
 11
94.941223
 21
65.613391
 31
0.0
  0
LINE
  5
154
100
AcDbEntity
  8
outline
 62
7
100
AcDbLine
 10
94.941223
 20
65.613391
 30
0.0
 11
94.645076
 21
65.765614
 31
0.0
  0
LINE
  5
155
100
AcDbEntity
  8
outline
 62
7
100
AcDbLine
 10
94.645076
 20
65.765614
 30
0.0
 11
94.357506
 21
65.922411
 31
0.0
  0
LINE
  5
156
100
AcDbEntity
  8
outline
 62
7
100
AcDbLine
 10
94.357506
 20
65.922411
 30
0.0
 11
94.083968
 21
66.083359
 31
0.0
  0
LINE
  5
157
100
AcDbEntity
  8
outline
 62
7
100
AcDbLine
 10
94.083968
 20
66.083359
 30
0.0
 11
93.829914
 21
66.248041
 31
0.0
  0
LINE
  5
158
100
AcDbEntity
  8
outline
 62
7
100
AcDbLine
 10
93.829914
 20
66.248041
 30
0.0
 11
93.600798
 21
66.416043
 31
0.0
  0
LINE
  5
159
100
AcDbEntity
  8
outline
 62
7
100
AcDbLine
 10
93.600798
 20
66.416043
 30
0.0
 11
93.402071
 21
66.586942
 31
0.0
  0
LINE
  5
15a
100
AcDbEntity
  8
outline
 62
7
100
AcDbLine
 10
93.402071
 20
66.586942
 30
0.0
 11
93.239186
 21
66.760323
 31
0.0
  0
LINE
  5
15b
100
AcDbEntity
  8
outline
 62
7
100
AcDbLine
 10
93.239186
 20
66.760323
 30
0.0
 11
93.117594
 21
66.935766
 31
0.0
  0
LINE
  5
15c
100
AcDbEntity
  8
outline
 62
7
100
AcDbLine
 10
93.117594
 20
66.935766
 30
0.0
 11
93.042751
 21
67.112855
 31
0.0
  0
LINE
  5
15d
100
AcDbEntity
  8
outline
 62
7
100
AcDbLine
 10
93.042751
 20
67.112855
 30
0.0
 11
93.020117
 21
67.291169
 31
0.0
  0
LINE
  5
15e
100
AcDbEntity
  8
outline
 62
7
100
AcDbLine
 10
93.020117
 20
67.291169
 30
0.0
 11
93.029035
 21
79.455375
 31
0.0
  0
LINE
  5
15f
100
AcDbEntity
  8
outline
 62
7
100
AcDbLine
 10
93.029035
 20
79.455375
 30
0.0
 11
93.068194
 21
79.643889
 31
0.0
  0
LINE
  5
160
100
AcDbEntity
  8
outline
 62
7
100
AcDbLine
 10
93.068194
 20
79.643889
 30
0.0
 11
93.185175
 21
79.841359
 31
0.0
  0
LINE
  5
161
100
AcDbEntity
  8
outline
 62
7
100
AcDbLine
 10
93.185175
 20
79.841359
 30
0.0
 11
93.371066
 21
80.047116
 31
0.0
  0
LINE
  5
162
100
AcDbEntity
  8
outline
 62
7
100
AcDbLine
 10
93.371066
 20
80.047116
 30
0.0
 11
93.616961
 21
80.260479
 31
0.0
  0
LINE
  5
163
100
AcDbEntity
  8
outline
 62
7
100
AcDbLine
 10
93.616961
 20
80.260479
 30
0.0
 11
93.913949
 21
80.480773
 31
0.0
  0
LINE
  5
164
100
AcDbEntity
  8
outline
 62
7
100
AcDbLine
 10
93.913949
 20
80.480773
 30
0.0
 11
94.253123
 21
80.707324
 31
0.0
  0
LINE
  5
165
100
AcDbEntity
  8
outline
 62
7
100
AcDbLine
 10
94.253123
 20
80.707324
 30
0.0
 11
94.625575
 21
80.939461
 31
0.0
  0
LINE
  5
166
100
AcDbEntity
  8
outline
 62
7
100
AcDbLine
 10
94.625575
 20
80.939461
 30
0.0
 11
95.022396
 21
81.176499
 31
0.0
  0
LINE
  5
167
100
AcDbEntity
  8
outline
 62
7
100
AcDbLine
 10
95.022396
 20
81.176499
 30
0.0
 11
95.434678
 21
81.417771
 31
0.0
  0
LINE
  5
168
100
AcDbEntity
  8
outline
 62
7
100
AcDbLine
 10
95.434678
 20
81.417771
 30
0.0
 11
95.853510
 21
81.662596
 31
0.0
  0
LINE
  5
169
100
AcDbEntity
  8
outline
 62
7
100
AcDbLine
 10
95.853510
 20
81.662596
 30
0.0
 11
96.269985
 21
81.910302
 31
0.0
  0
LINE
  5
16a
100
AcDbEntity
  8
outline
 62
7
100
AcDbLine
 10
96.269985
 20
81.910302
 30
0.0
 11
96.675194
 21
82.160216
 31
0.0
  0
LINE
  5
16b
100
AcDbEntity
  8
outline
 62
7
100
AcDbLine
 10
96.675194
 20
82.160216
 30
0.0
 11
97.060233
 21
82.411656
 31
0.0
  0
LINE
  5
16c
100
AcDbEntity
  8
outline
 62
7
100
AcDbLine
 10
97.060233
 20
82.411656
 30
0.0
 11
97.416185
 21
82.663949
 31
0.0
  0
LINE
  5
16d
100
AcDbEntity
  8
outline
 62
7
100
AcDbLine
 10
97.416185
 20
82.663949
 30
0.0
 11
97.734145
 21
82.916422
 31
0.0
  0
LINE
  5
16e
100
AcDbEntity
  8
outline
 62
7
100
AcDbLine
 10
97.734145
 20
82.916422
 30
0.0
 11
98.005209
 21
83.168398
 31
0.0
  0
LINE
  5
16f
100
AcDbEntity
  8
outline
 62
7
100
AcDbLine
 10
98.005209
 20
83.168398
 30
0.0
 11
98.225314
 21
83.437333
 31
0.0
  0
LINE
  5
170
100
AcDbEntity
  8
outline
 62
7
100
AcDbLine
 10
98.225314
 20
83.437333
 30
0.0
 11
98.419102
 21
83.725846
 31
0.0
  0
LINE
  5
171
100
AcDbEntity
  8
outline
 62
7
100
AcDbLine
 10
98.419102
 20
83.725846
 30
0.0
 11
98.583933
 21
84.035190
 31
0.0
  0
LINE
  5
172
100
AcDbEntity
  8
outline
 62
7
100
AcDbLine
 10
98.583933
 20
84.035190
 30
0.0
 11
98.717176
 21
84.366629
 31
0.0
  0
LINE
  5
173
100
AcDbEntity
  8
outline
 62
7
100
AcDbLine
 10
98.717176
 20
84.366629
 30
0.0
 11
98.816191
 21
84.721419
 31
0.0
  0
LINE
  5
174
100
AcDbEntity
  8
outline
 62
7
100
AcDbLine
 10
98.816191
 20
84.721419
 30
0.0
 11
98.878339
 21
85.100819
 31
0.0
  0
LINE
  5
175
100
AcDbEntity
  8
outline
 62
7
100
AcDbLine
 10
98.878339
 20
85.100819
 30
0.0
 11
98.900973
 21
85.506087
 31
0.0
  0
LINE
  5
176
100
AcDbEntity
  8
outline
 62
7
100
AcDbLine
 10
98.900973
 20
85.506087
 30
0.0
 11
98.880202
 21
86.020471
 31
0.0
  0
LINE
  5
177
100
AcDbEntity
  8
outline
 62
7
100
AcDbLine
 10
98.880202
 20
86.020471
 30
0.0
 11
98.816516
 21
86.443344
 31
0.0
  0
LINE
  5
178
100
AcDbEntity
  8
outline
 62
7
100
AcDbLine
 10
98.816516
 20
86.443344
 30
0.0
 11
98.716047
 21
86.790297
 31
0.0
  0
LINE
  5
179
100
AcDbEntity
  8
outline
 62
7
100
AcDbLine
 10
98.716047
 20
86.790297
 30
0.0
 11
98.584918
 21
87.076914
 31
0.0
  0
LINE
  5
17a
100
AcDbEntity
  8
outline
 62
7
100
AcDbLine
 10
98.584918
 20
87.076914
 30
0.0
 11
98.429250
 21
87.318778
 31
0.0
  0
LINE
  5
17b
100
AcDbEntity
  8
outline
 62
7
100
AcDbLine
 10
98.429250
 20
87.318778
 30
0.0
 11
98.255167
 21
87.531478
 31
0.0
  0
LINE
  5
17c
100
AcDbEntity
  8
outline
 62
7
100
AcDbLine
 10
98.255167
 20
87.531478
 30
0.0
 11
98.068796
 21
87.730597
 31
0.0
  0
LINE
  5
17d
100
AcDbEntity
  8
outline
 62
7
100
AcDbLine
 10
98.068796
 20
87.730597
 30
0.0
 11
97.876258
 21
87.931722
 31
0.0
  0
LINE
  5
17e
100
AcDbEntity
  8
outline
 62
7
100
AcDbLine
 10
97.876258
 20
87.931722
 30
0.0
 11
97.683817
 21
88.150439
 31
0.0
  0
LINE
  5
17f
100
AcDbEntity
  8
outline
 62
7
100
AcDbLine
 10
97.683817
 20
88.150439
 30
0.0
 11
97.497657
 21
88.402331
 31
0.0
  0
LINE
  5
180
100
AcDbEntity
  8
outline
 62
7
100
AcDbLine
 10
97.497657
 20
88.402331
 30
0.0
 11
97.323780
 21
88.702985
 31
0.0
  0
LINE
  5
181
100
AcDbEntity
  8
outline
 62
7
100
AcDbLine
 10
97.323780
 20
88.702985
 30
0.0
 11
97.168191
 21
89.067988
 31
0.0
  0
LINE
  5
182
100
AcDbEntity
  8
outline
 62
7
100
AcDbLine
 10
97.168191
 20
89.067988
 30
0.0
 11
97.036890
 21
89.512923
 31
0.0
  0
LINE
  5
183
100
AcDbEntity
  8
outline
 62
7
100
AcDbLine
 10
97.036890
 20
89.512923
 30
0.0
 11
96.935880
 21
90.053381
 31
0.0
  0
LINE
  5
184
100
AcDbEntity
  8
outline
 62
7
100
AcDbLine
 10
96.935880
 20
90.053381
 30
0.0
 11
96.871158
 21
90.704942
 31
0.0
  0
LINE
  5
185
100
AcDbEntity
  8
outline
 62
7
100
AcDbLine
 10
96.871158
 20
90.704942
 30
0.0
 11
96.868336
 21
91.483193
 31
0.0
  0
LINE
  5
186
100
AcDbEntity
  8
outline
 62
7
100
AcDbLine
 10
96.868336
 20
91.483193
 30
0.0
 11
96.868336
 21
137.525778
 31
0.0
  0
LINE
  5
187
100
AcDbEntity
  8
outline
 62
7
100
AcDbLine
 10
96.868336
 20
137.525778
 30
0.0
 11
96.917324
 21
137.893601
 31
0.0
  0
LINE
  5
188
100
AcDbEntity
  8
outline
 62
7
100
AcDbLine
 10
96.917324
 20
137.893601
 30
0.0
 11
97.002338
 21
138.237512
 31
0.0
  0
LINE
  5
189
100
AcDbEntity
  8
outline
 62
7
100
AcDbLine
 10
97.002338
 20
138.237512
 30
0.0
 11
97.139272
 21
138.557535
 31
0.0
  0
LINE
  5
18a
100
AcDbEntity
  8
outline
 62
7
100
AcDbLine
 10
97.139272
 20
138.557535
 30
0.0
 11
97.324421
 21
138.853690
 31
0.0
  0
LINE
  5
18b
100
AcDbEntity
  8
outline
 62
7
100
AcDbLine
 10
97.324421
 20
138.853690
 30
0.0
 11
97.554074
 21
139.126004
 31
0.0
  0
LINE
  5
18c
100
AcDbEntity
  8
outline
 62
7
100
AcDbLine
 10
97.554074
 20
139.126004
 30
0.0
 11
97.824516
 21
139.374498
 31
0.0
  0
LINE
  5
18d
100
AcDbEntity
  8
outline
 62
7
100
AcDbLine
 10
97.824516
 20
139.374498
 30
0.0
 11
98.132039
 21
139.599194
 31
0.0
  0
LINE
  5
18e
100
AcDbEntity
  8
outline
 62
7
100
AcDbLine
 10
98.132039
 20
139.599194
 30
0.0
 11
98.472933
 21
139.800120
 31
0.0
  0
LINE
  5
18f
100
AcDbEntity
  8
outline
 62
7
100
AcDbLine
 10
98.472933
 20
139.800120
 30
0.0
 11
98.843488
 21
139.977296
 31
0.0
  0
LINE
  5
190
100
AcDbEntity
  8
outline
 62
7
100
AcDbLine
 10
98.843488
 20
139.977296
 30
0.0
 11
99.239990
 21
140.130746
 31
0.0
  0
LINE
  5
191
100
AcDbEntity
  8
outline
 62
7
100
AcDbLine
 10
99.239990
 20
140.130746
 30
0.0
 11
99.658732
 21
140.260492
 31
0.0
  0
LINE
  5
192
100
AcDbEntity
  8
outline
 62
7
100
AcDbLine
 10
99.658732
 20
140.260492
 30
0.0
 11
100.095998
 21
140.366559
 31
0.0
  0
LINE
  5
193
100
AcDbEntity
  8
outline
 62
7
100
AcDbLine
 10
100.095998
 20
140.366559
 30
0.0
 11
100.548084
 21
140.448968
 31
0.0
  0
LINE
  5
194
100
AcDbEntity
  8
outline
 62
7
100
AcDbLine
 10
100.548084
 20
140.448968
 30
0.0
 11
101.011276
 21
140.507747
 31
0.0
  0
LINE
  5
195
100
AcDbEntity
  8
outline
 62
7
100
AcDbLine
 10
101.011276
 20
140.507747
 30
0.0
 11
101.481865
 21
140.542914
 31
0.0
  0
LINE
  5
196
100
AcDbEntity
  8
outline
 62
7
100
AcDbLine
 10
101.481865
 20
140.542914
 30
0.0
 11
101.956136
 21
140.554486
 31
0.0
  0
LINE
  5
197
100
AcDbEntity
  8
outline
 62
7
100
AcDbLine
 10
101.956136
 20
140.554486
 30
0.0
 11
102.430382
 21
140.542491
 31
0.0
  0
LINE
  5
198
100
AcDbEntity
  8
outline
 62
7
100
AcDbLine
 10
102.430382
 20
140.542491
 30
0.0
 11
102.900892
 21
140.506968
 31
0.0
  0
LINE
  5
199
100
AcDbEntity
  8
outline
 62
7
100
AcDbLine
 10
102.900892
 20
140.506968
 30
0.0
 11
103.363957
 21
140.447930
 31
0.0
  0
LINE
  5
19a
100
AcDbEntity
  8
outline
 62
7
100
AcDbLine
 10
103.363957
 20
140.447930
 30
0.0
 11
103.815862
 21
140.365394
 31
0.0
  0
LINE
  5
19b
100
AcDbEntity
  8
outline
 62
7
100
AcDbLine
 10
103.815862
 20
140.365394
 30
0.0
 11
104.252897
 21
140.259391
 31
0.0
  0
LINE
  5
19c
100
AcDbEntity
  8
outline
 62
7
100
AcDbLine
 10
104.252897
 20
140.259391
 30
0.0
 11
104.671354
 21
140.129941
 31
0.0
  0
LINE
  5
19d
100
AcDbEntity
  8
outline
 62
7
100
AcDbLine
 10
104.671354
 20
140.129941
 30
0.0
 11
105.067521
 21
139.977065
 31
0.0
  0
LINE
  5
19e
100
AcDbEntity
  8
outline
 62
7
100
AcDbLine
 10
105.067521
 20
139.977065
 30
0.0
 11
105.437686
 21
139.800791
 31
0.0
  0
LINE
  5
19f
100
AcDbEntity
  8
outline
 62
7
100
AcDbLine
 10
105.437686
 20
139.800791
 30
0.0
 11
105.778142
 21
139.601139
 31
0.0
  0
LINE
  5
1a0
100
AcDbEntity
  8
outline
 62
7
100
AcDbLine
 10
105.778142
 20
139.601139
 30
0.0
 11
106.085174
 21
139.378133
 31
0.0
  0
LINE
  5
1a1
100
AcDbEntity
  8
outline
 62
7
100
AcDbLine
 10
106.085174
 20
139.378133
 30
0.0
 11
106.355075
 21
139.131795
 31
0.0
  0
LINE
  5
1a2
100
AcDbEntity
  8
outline
 62
7
100
AcDbLine
 10
106.355075
 20
139.131795
 30
0.0
 11
106.584129
 21
138.862148
 31
0.0
  0
LINE
  5
1a3
100
AcDbEntity
  8
outline
 62
7
100
AcDbLine
 10
106.584129
 20
138.862148
 30
0.0
 11
106.768632
 21
138.569222
 31
0.0
  0
LINE
  5
1a4
100
AcDbEntity
  8
outline
 62
7
100
AcDbLine
 10
106.768632
 20
138.569222
 30
0.0
 11
106.904869
 21
138.253031
 31
0.0
  0
LINE
  5
1a5
100
AcDbEntity
  8
outline
 62
7
100
AcDbLine
 10
106.904869
 20
138.253031
 30
0.0
 11
106.989132
 21
137.913602
 31
0.0
  0
LINE
  5
1a6
100
AcDbEntity
  8
outline
 62
7
100
AcDbLine
 10
106.989132
 20
137.913602
 30
0.0
 11
106.986592
 21
137.550961
 31
0.0
  0
LINE
  5
1a7
100
AcDbEntity
  8
outline
 62
7
100
AcDbLine
 10
106.986592
 20
137.550961
 30
0.0
 11
106.986592
 21
91.488769
 31
0.0
  0
LINE
  5
1a8
100
AcDbEntity
  8
outline
 62
7
100
AcDbLine
 10
106.986592
 20
91.488769
 30
0.0
 11
106.931127
 21
90.827540
 31
0.0
  0
LINE
  5
1a9
100
AcDbEntity
  8
outline
 62
7
100
AcDbLine
 10
106.931127
 20
90.827540
 30
0.0
 11
106.864034
 21
90.271161
 31
0.0
  0
LINE
  5
1aa
100
AcDbEntity
  8
outline
 62
7
100
AcDbLine
 10
106.864034
 20
90.271161
 30
0.0
 11
106.760518
 21
89.805302
 31
0.0
  0
LINE
  5
1ab
100
AcDbEntity
  8
outline
 62
7
100
AcDbLine
 10
106.760518
 20
89.805302
 30
0.0
 11
106.626855
 21
89.415635
 31
0.0
  0
LINE
  5
1ac
100
AcDbEntity
  8
outline
 62
7
100
AcDbLine
 10
106.626855
 20
89.415635
 30
0.0
 11
106.469307
 21
89.087832
 31
0.0
  0
LINE
  5
1ad
100
AcDbEntity
  8
outline
 62
7
100
AcDbLine
 10
106.469307
 20
89.087832
 30
0.0
 11
106.294146
 21
88.807562
 31
0.0
  0
LINE
  5
1ae
100
AcDbEntity
  8
outline
 62
7
100
AcDbLine
 10
106.294146
 20
88.807562
 30
0.0
 11
106.107645
 21
88.560496
 31
0.0
  0
LINE
  5
1af
100
AcDbEntity
  8
outline
 62
7
100
AcDbLine
 10
106.107645
 20
88.560496
 30
0.0
 11
105.916067
 21
88.332309
 31
0.0
  0
LINE
  5
1b0
100
AcDbEntity
  8
outline
 62
7
100
AcDbLine
 10
105.916067
 20
88.332309
 30
0.0
 11
105.725688
 21
88.108664
 31
0.0
  0
LINE
  5
1b1
100
AcDbEntity
  8
outline
 62
7
100
AcDbLine
 10
105.725688
 20
88.108664
 30
0.0
 11
105.542771
 21
87.875241
 31
0.0
  0
LINE
  5
1b2
100
AcDbEntity
  8
outline
 62
7
100
AcDbLine
 10
105.542771
 20
87.875241
 30
0.0
 11
105.373591
 21
87.617705
 31
0.0
  0
LINE
  5
1b3
100
AcDbEntity
  8
outline
 62
7
100
AcDbLine
 10
105.373591
 20
87.617705
 30
0.0
 11
105.224416
 21
87.321733
 31
0.0
  0
LINE
  5
1b4
100
AcDbEntity
  8
outline
 62
7
100
AcDbLine
 10
105.224416
 20
87.321733
 30
0.0
 11
105.101514
 21
86.972988
 31
0.0
  0
LINE
  5
1b5
100
AcDbEntity
  8
outline
 62
7
100
AcDbLine
 10
105.101514
 20
86.972988
 30
0.0
 11
105.011155
 21
86.557148
 31
0.0
  0
LINE
  5
1b6
100
AcDbEntity
  8
outline
 62
7
100
AcDbLine
 10
105.011155
 20
86.557148
 30
0.0
 11
104.959607
 21
86.059878
 31
0.0
  0
LINE
  5
1b7
100
AcDbEntity
  8
outline
 62
7
100
AcDbLine
 10
104.959607
 20
86.059878
 30
0.0
 11
104.953144
 21
85.466855
 31
0.0
  0
LINE
  5
1b8
100
AcDbEntity
  8
outline
 62
7
100
AcDbLine
 10
104.953144
 20
85.466855
 30
0.0
 11
104.976089
 21
85.220639
 31
0.0
  0
LINE
  5
1b9
100
AcDbEntity
  8
outline
 62
7
100
AcDbLine
 10
104.976089
 20
85.220639
 30
0.0
 11
105.029505
 21
84.980398
 31
0.0
  0
LINE
  5
1ba
100
AcDbEntity
  8
outline
 62
7
100
AcDbLine
 10
105.029505
 20
84.980398
 30
0.0
 11
105.111355
 21
84.744680
 31
0.0
  0
LINE
  5
1bb
100
AcDbEntity
  8
outline
 62
7
100
AcDbLine
 10
105.111355
 20
84.744680
 30
0.0
 11
105.219593
 21
84.512033
 31
0.0
  0
LINE
  5
1bc
100
AcDbEntity
  8
outline
 62
7
100
AcDbLine
 10
105.219593
 20
84.512033
 30
0.0
 11
105.352178
 21
84.281003
 31
0.0
  0
LINE
  5
1bd
100
AcDbEntity
  8
outline
 62
7
100
AcDbLine
 10
105.352178
 20
84.281003
 30
0.0
 11
105.507070
 21
84.050142
 31
0.0
  0
LINE
  5
1be
100
AcDbEntity
  8
outline
 62
7
100
AcDbLine
 10
105.507070
 20
84.050142
 30
0.0
 11
105.682229
 21
83.817995
 31
0.0
  0
LINE
  5
1bf
100
AcDbEntity
  8
outline
 62
7
100
AcDbLine
 10
105.682229
 20
83.817995
 30
0.0
 11
105.875607
 21
83.583110
 31
0.0
  0
LINE
  5
1c0
100
AcDbEntity
  8
outline
 62
7
100
AcDbLine
 10
105.875607
 20
83.583110
 30
0.0
 11
106.085169
 21
83.344036
 31
0.0
  0
LINE
  5
1c1
100
AcDbEntity
  8
outline
 62
7
100
AcDbLine
 10
106.085169
 20
83.344036
 30
0.0
 11
106.308866
 21
83.099321
 31
0.0
  0
LINE
  5
1c2
100
AcDbEntity
  8
outline
 62
7
100
AcDbLine
 10
106.308866
 20
83.099321
 30
0.0
 11
106.544663
 21
82.847512
 31
0.0
  0
LINE
  5
1c3
100
AcDbEntity
  8
outline
 62
7
100
AcDbLine
 10
106.544663
 20
82.847512
 30
0.0
 11
106.790515
 21
82.587159
 31
0.0
  0
LINE
  5
1c4
100
AcDbEntity
  8
outline
 62
7
100
AcDbLine
 10
106.790515
 20
82.587159
 30
0.0
 11
107.044380
 21
82.316807
 31
0.0
  0
LINE
  5
1c5
100
AcDbEntity
  8
outline
 62
7
100
AcDbLine
 10
107.044380
 20
82.316807
 30
0.0
 11
107.304213
 21
82.035005
 31
0.0
  0
LINE
  5
1c6
100
AcDbEntity
  8
outline
 62
7
100
AcDbLine
 10
107.304213
 20
82.035005
 30
0.0
 11
107.567981
 21
81.740300
 31
0.0
  0
LINE
  5
1c7
100
AcDbEntity
  8
outline
 62
7
100
AcDbLine
 10
107.567981
 20
81.740300
 30
0.0
 11
107.833634
 21
81.431244
 31
0.0
  0
LINE
  5
1c8
100
AcDbEntity
  8
outline
 62
7
100
AcDbLine
 10
107.833634
 20
81.431244
 30
0.0
 11
108.099132
 21
81.106381
 31
0.0
  0
LINE
  5
1c9
100
AcDbEntity
  8
outline
 62
7
100
AcDbLine
 10
108.099132
 20
81.106381
 30
0.0
 11
108.362434
 21
80.764260
 31
0.0
  0
LINE
  5
1ca
100
AcDbEntity
  8
outline
 62
7
100
AcDbLine
 10
108.362434
 20
80.764260
 30
0.0
 11
108.621500
 21
80.403430
 31
0.0
  0
LINE
  5
1cb
100
AcDbEntity
  8
outline
 62
7
100
AcDbLine
 10
108.621500
 20
80.403430
 30
0.0
 11
108.874286
 21
80.022439
 31
0.0
  0
LINE
  5
1cc
100
AcDbEntity
  8
outline
 62
7
100
AcDbLine
 10
108.874286
 20
80.022439
 30
0.0
 11
109.118750
 21
79.619832
 31
0.0
  0
LINE
  5
1cd
100
AcDbEntity
  8
outline
 62
7
100
AcDbLine
 10
109.118750
 20
79.619832
 30
0.0
 11
109.352850
 21
79.194159
 31
0.0
  0
LINE
  5
1ce
100
AcDbEntity
  8
outline
 62
7
100
AcDbLine
 10
109.352850
 20
79.194159
 30
0.0
 11
109.574544
 21
78.743967
 31
0.0
  0
LINE
  5
1cf
100
AcDbEntity
  8
outline
 62
7
100
AcDbLine
 10
109.574544
 20
78.743967
 30
0.0
 11
109.781794
 21
78.267807
 31
0.0
  0
LINE
  5
1d0
100
AcDbEntity
  8
outline
 62
7
100
AcDbLine
 10
109.781794
 20
78.267807
 30
0.0
 11
109.972554
 21
77.764224
 31
0.0
  0
LINE
  5
1d1
100
AcDbEntity
  8
outline
 62
7
100
AcDbLine
 10
109.972554
 20
77.764224
 30
0.0
 11
110.144783
 21
77.231763
 31
0.0
  0
LINE
  5
1d2
100
AcDbEntity
  8
outline
 62
7
100
AcDbLine
 10
110.144783
 20
77.231763
 30
0.0
 11
110.296438
 21
76.668981
 31
0.0
  0
LINE
  5
1d3
100
AcDbEntity
  8
outline
 62
7
100
AcDbLine
 10
110.296438
 20
76.668981
 30
0.0
 11
110.425478
 21
76.074418
 31
0.0
  0
LINE
  5
1d4
100
AcDbEntity
  8
outline
 62
7
100
AcDbLine
 10
110.425478
 20
76.074418
 30
0.0
 11
110.529864
 21
75.446623
 31
0.0
  0
LINE
  5
1d5
100
AcDbEntity
  8
outline
 62
7
100
AcDbLine
 10
110.529864
 20
75.446623
 30
0.0
 11
110.607551
 21
74.784149
 31
0.0
  0
LINE
  5
1d6
100
AcDbEntity
  8
outline
 62
7
100
AcDbLine
 10
110.607551
 20
74.784149
 30
0.0
 11
110.656497
 21
74.085536
 31
0.0
  0
LINE
  5
1d7
100
AcDbEntity
  8
outline
 62
7
100
AcDbLine
 10
110.656497
 20
74.085536
 30
0.0
 11
110.674672
 21
73.349340
 31
0.0
  0
LINE
  5
1d8
100
AcDbEntity
  8
outline
 62
7
100
AcDbLine
 10
110.674672
 20
73.349340
 30
0.0
 11
110.659968
 21
72.568287
 31
0.0
  0
LINE
  5
1d9
100
AcDbEntity
  8
outline
 62
7
100
AcDbLine
 10
110.659968
 20
72.568287
 30
0.0
 11
110.612877
 21
71.832305
 31
0.0
  0
LINE
  5
1da
100
AcDbEntity
  8
outline
 62
7
100
AcDbLine
 10
110.612877
 20
71.832305
 30
0.0
 11
110.535542
 21
71.139684
 31
0.0
  0
LINE
  5
1db
100
AcDbEntity
  8
outline
 62
7
100
AcDbLine
 10
110.535542
 20
71.139684
 30
0.0
 11
110.430124
 21
70.488721
 31
0.0
  0
LINE
  5
1dc
100
AcDbEntity
  8
outline
 62
7
100
AcDbLine
 10
110.430124
 20
70.488721
 30
0.0
 11
110.298783
 21
69.877713
 31
0.0
  0
LINE
  5
1dd
100
AcDbEntity
  8
outline
 62
7
100
AcDbLine
 10
110.298783
 20
69.877713
 30
0.0
 11
110.143677
 21
69.304951
 31
0.0
  0
LINE
  5
1de
100
AcDbEntity
  8
outline
 62
7
100
AcDbLine
 10
110.143677
 20
69.304951
 30
0.0
 11
109.966969
 21
68.768737
 31
0.0
  0
LINE
  5
1df
100
AcDbEntity
  8
outline
 62
7
100
AcDbLine
 10
109.966969
 20
68.768737
 30
0.0
 11
109.770810
 21
68.267361
 31
0.0
  0
LINE
  5
1e0
100
AcDbEntity
  8
outline
 62
7
100
AcDbLine
 10
109.770810
 20
68.267361
 30
0.0
 11
109.557368
 21
67.799118
 31
0.0
  0
LINE
  5
1e1
100
AcDbEntity
  8
outline
 62
7
100
AcDbLine
 10
109.557368
 20
67.799118
 30
0.0
 11
109.328797
 21
67.362308
 31
0.0
  0
LINE
  5
1e2
100
AcDbEntity
  8
outline
 62
7
100
AcDbLine
 10
109.328797
 20
67.362308
 30
0.0
 11
109.087254
 21
66.955220
 31
0.0
  0
LINE
  5
1e3
100
AcDbEntity
  8
outline
 62
7
100
AcDbLine
 10
109.087254
 20
66.955220
 30
0.0
 11
108.834905
 21
66.576156
 31
0.0
  0
LINE
  5
1e4
100
AcDbEntity
  8
outline
 62
7
100
AcDbLine
 10
108.834905
 20
66.576156
 30
0.0
 11
108.573903
 21
66.223403
 31
0.0
  0
LINE
  5
1e5
100
AcDbEntity
  8
outline
 62
7
100
AcDbLine
 10
108.573903
 20
66.223403
 30
0.0
 11
108.306410
 21
65.895264
 31
0.0
  0
LINE
  5
1e6
100
AcDbEntity
  8
outline
 62
7
100
AcDbLine
 10
108.306410
 20
65.895264
 30
0.0
 11
108.034582
 21
65.590029
 31
0.0
  0
LINE
  5
1e7
100
AcDbEntity
  8
outline
 62
7
100
AcDbLine
 10
108.034582
 20
65.590029
 30
0.0
 11
107.760584
 21
65.305998
 31
0.0
  0
LINE
  5
1e8
100
AcDbEntity
  8
outline
 62
7
100
AcDbLine
 10
107.760584
 20
65.305998
 30
0.0
 11
107.486569
 21
65.041462
 31
0.0
  0
LINE
  5
1e9
100
AcDbEntity
  8
outline
 62
7
100
AcDbLine
 10
107.486569
 20
65.041462
 30
0.0
 11
107.214698
 21
64.794716
 31
0.0
  0
LINE
  5
1ea
100
AcDbEntity
  8
outline
 62
7
100
AcDbLine
 10
107.214698
 20
64.794716
 30
0.0
 11
106.947135
 21
64.564058
 31
0.0
  0
LINE
  5
1eb
100
AcDbEntity
  8
outline
 62
7
100
AcDbLine
 10
106.947135
 20
64.564058
 30
0.0
 11
106.686031
 21
64.347783
 31
0.0
  0
LINE
  5
1ec
100
AcDbEntity
  8
outline
 62
7
100
AcDbLine
 10
106.686031
 20
64.347783
 30
0.0
 11
106.433549
 21
64.144185
 31
0.0
  0
LINE
  5
1ed
100
AcDbEntity
  8
outline
 62
7
100
AcDbLine
 10
106.433549
 20
64.144185
 30
0.0
 11
106.191849
 21
63.951560
 31
0.0
  0
LINE
  5
1ee
100
AcDbEntity
  8
outline
 62
7
100
AcDbLine
 10
106.191849
 20
63.951560
 30
0.0
 11
105.963088
 21
63.768203
 31
0.0
  0
LINE
  5
1ef
100
AcDbEntity
  8
outline
 62
7
100
AcDbLine
 10
105.963088
 20
63.768203
 30
0.0
 11
105.749426
 21
63.592409
 31
0.0
  0
LINE
  5
1f0
100
AcDbEntity
  8
outline
 62
7
100
AcDbLine
 10
105.749426
 20
63.592409
 30
0.0
 11
105.553025
 21
63.422472
 31
0.0
  0
LINE
  5
1f1
100
AcDbEntity
  8
outline
 62
7
100
AcDbLine
 10
105.553025
 20
63.422472
 30
0.0
 11
105.376037
 21
63.256689
 31
0.0
  0
LINE
  5
1f2
100
AcDbEntity
  8
outline
 62
7
100
AcDbLine
 10
105.376037
 20
63.256689
 30
0.0
 11
105.220629
 21
63.093356
 31
0.0
  0
LINE
  5
1f3
100
AcDbEntity
  8
outline
 62
7
100
AcDbLine
 10
105.220629
 20
63.093356
 30
0.0
 11
105.088955
 21
62.930768
 31
0.0
  0
LINE
  5
1f4
100
AcDbEntity
  8
outline
 62
7
100
AcDbLine
 10
105.088955
 20
62.930768
 30
0.0
 11
104.983176
 21
62.767217
 31
0.0
  0
LINE
  5
1f5
100
AcDbEntity
  8
outline
 62
7
100
AcDbLine
 10
104.983176
 20
62.767217
 30
0.0
 11
104.905449
 21
62.600999
 31
0.0
  0
LINE
  5
1f6
100
AcDbEntity
  8
outline
 62
7
100
AcDbLine
 10
104.905449
 20
62.600999
 30
0.0
 11
104.857934
 21
62.430413
 31
0.0
  0
LINE
  5
1f7
100
AcDbEntity
  8
outline
 62
7
100
AcDbLine
 10
104.857934
 20
62.430413
 30
0.0
 11
104.842778
 21
62.253753
 31
0.0
  0
LINE
  5
1f8
100
AcDbEntity
  8
outline
 62
7
100
AcDbLine
 10
104.842778
 20
62.253753
 30
0.0
 11
104.856946
 21
61.728775
 31
0.0
  0
LINE
  5
1f9
100
AcDbEntity
  8
outline
 62
7
100
AcDbLine
 10
104.856946
 20
61.728775
 30
0.0
 11
104.888253
 21
61.275831
 31
0.0
  0
LINE
  5
1fa
100
AcDbEntity
  8
outline
 62
7
100
AcDbLine
 10
104.888253
 20
61.275831
 30
0.0
 11
104.936488
 21
60.889440
 31
0.0
  0
LINE
  5
1fb
100
AcDbEntity
  8
outline
 62
7
100
AcDbLine
 10
104.936488
 20
60.889440
 30
0.0
 11
105.001421
 21
60.564134
 31
0.0
  0
LINE
  5
1fc
100
AcDbEntity
  8
outline
 62
7
100
AcDbLine
 10
105.001421
 20
60.564134
 30
0.0
 11
105.082831
 21
60.294431
 31
0.0
  0
LINE
  5
1fd
100
AcDbEntity
  8
outline
 62
7
100
AcDbLine
 10
105.082831
 20
60.294431
 30
0.0
 11
105.180491
 21
60.074862
 31
0.0
  0
LINE
  5
1fe
100
AcDbEntity
  8
outline
 62
7
100
AcDbLine
 10
105.180491
 20
60.074862
 30
0.0
 11
105.294179
 21
59.899949
 31
0.0
  0
LINE
  5
1ff
100
AcDbEntity
  8
outline
 62
7
100
AcDbLine
 10
105.294179
 20
59.899949
 30
0.0
 11
105.423668
 21
59.764217
 31
0.0
  0
LINE
  5
200
100
AcDbEntity
  8
outline
 62
7
100
AcDbLine
 10
105.423668
 20
59.764217
 30
0.0
 11
105.568733
 21
59.662188
 31
0.0
  0
LINE
  5
201
100
AcDbEntity
  8
outline
 62
7
100
AcDbLine
 10
105.568733
 20
59.662188
 30
0.0
 11
105.729151
 21
59.588393
 31
0.0
  0
LINE
  5
202
100
AcDbEntity
  8
outline
 62
7
100
AcDbLine
 10
105.729151
 20
59.588393
 30
0.0
 11
105.904696
 21
59.537350
 31
0.0
  0
LINE
  5
203
100
AcDbEntity
  8
outline
 62
7
100
AcDbLine
 10
105.904696
 20
59.537350
 30
0.0
 11
106.095142
 21
59.503591
 31
0.0
  0
LINE
  5
204
100
AcDbEntity
  8
outline
 62
7
100
AcDbLine
 10
106.095142
 20
59.503591
 30
0.0
 11
106.300267
 21
59.481634
 31
0.0
  0
LINE
  5
205
100
AcDbEntity
  8
outline
 62
7
100
AcDbLine
 10
106.300267
 20
59.481634
 30
0.0
 11
106.519845
 21
59.465999
 31
0.0
  0
LINE
  5
206
100
AcDbEntity
  8
outline
 62
7
100
AcDbLine
 10
106.519845
 20
59.465999
 30
0.0
 11
106.753649
 21
59.451239
 31
0.0
  0
LINE
  5
207
100
AcDbEntity
  8
outline
 62
7
100
AcDbLine
 10
106.753649
 20
59.451239
 30
0.0
 11
107.001454
 21
59.431850
 31
0.0
  0
LINE
  5
208
100
AcDbEntity
  8
outline
 62
7
100
AcDbLine
 10
107.001454
 20
59.431850
 30
0.0
 11
107.263040
 21
59.402360
 31
0.0
  0
LINE
  5
209
100
AcDbEntity
  8
outline
 62
7
100
AcDbLine
 10
107.263040
 20
59.402360
 30
0.0
 11
107.538179
 21
59.357301
 31
0.0
  0
LINE
  5
20a
100
AcDbEntity
  8
outline
 62
7
100
AcDbLine
 10
107.538179
 20
59.357301
 30
0.0
 11
107.826643
 21
59.291193
 31
0.0
  0
LINE
  5
20b
100
AcDbEntity
  8
outline
 62
7
100
AcDbLine
 10
107.826643
 20
59.291193
 30
0.0
 11
108.128212
 21
59.198565
 31
0.0
  0
LINE
  5
20c
100
AcDbEntity
  8
outline
 62
7
100
AcDbLine
 10
108.128212
 20
59.198565
 30
0.0
 11
108.442661
 21
59.073938
 31
0.0
  0
LINE
  5
20d
100
AcDbEntity
  8
outline
 62
7
100
AcDbLine
 10
108.442661
 20
59.073938
 30
0.0
 11
108.769762
 21
58.911841
 31
0.0
  0
LINE
  5
20e
100
AcDbEntity
  8
outline
 62
7
100
AcDbLine
 10
108.769762
 20
58.911841
 30
0.0
 11
109.109293
 21
58.706796
 31
0.0
  0
LINE
  5
20f
100
AcDbEntity
  8
outline
 62
7
100
AcDbLine
 10
109.109293
 20
58.706796
 30
0.0
 11
109.461029
 21
58.453329
 31
0.0
  0
LINE
  5
210
100
AcDbEntity
  8
outline
 62
7
100
AcDbLine
 10
109.461029
 20
58.453329
 30
0.0
 11
109.824743
 21
58.145964
 31
0.0
  0
LINE
  5
211
100
AcDbEntity
  8
outline
 62
7
100
AcDbLine
 10
109.824743
 20
58.145964
 30
0.0
 11
110.200211
 21
57.779227
 31
0.0
  0
LINE
  5
212
100
AcDbEntity
  8
outline
 62
7
100
AcDbLine
 10
110.200211
 20
57.779227
 30
0.0
 11
110.587209
 21
57.347642
 31
0.0
  0
LINE
  5
213
100
AcDbEntity
  8
outline
 62
7
100
AcDbLine
 10
110.587209
 20
57.347642
 30
0.0
 11
110.985509
 21
56.845732
 31
0.0
  0
LINE
  5
214
100
AcDbEntity
  8
outline
 62
7
100
AcDbLine
 10
110.985509
 20
56.845732
 30
0.0
 11
111.394892
 21
56.268023
 31
0.0
  0
LINE
  5
215
100
AcDbEntity
  8
outline
 62
7
100
AcDbLine
 10
111.394892
 20
56.268023
 30
0.0
 11
111.815129
 21
55.609043
 31
0.0
  0
LINE
  5
216
100
AcDbEntity
  8
outline
 62
7
100
AcDbLine
 10
111.815129
 20
55.609043
 30
0.0
 11
112.245998
 21
54.863313
 31
0.0
  0
LINE
  5
217
100
AcDbEntity
  8
outline
 62
7
100
AcDbLine
 10
112.245998
 20
54.863313
 30
0.0
 11
112.687269
 21
54.025358
 31
0.0
  0
LINE
  5
218
100
AcDbEntity
  8
outline
 62
7
100
AcDbLine
 10
112.687269
 20
54.025358
 30
0.0
 11
112.687303
 21
53.975001
 31
0.0
  0
ENDSEC
  0
SECTION
  2
OBJECTS
  0
DICTIONARY
  5
C
330
0
100
AcDbDictionary
  3
ACAD_GROUP
350
D
  3
ACAD_MLINESTYLE
350
17
  0
DICTIONARY
  5
D
330
C
100
AcDbDictionary
  0
DICTIONARY
  5
1A
330
C
100
AcDbDictionary
  0
DICTIONARY
  5
17
330
C
100
AcDbDictionary
  3
STANDARD
350
18
  0
DICTIONARY
  5
19
330
C
100
AcDbDictionary
  0
ENDSEC
  0
EOF
