  0
SECTION
  2
HEADER
  9
$ACADVER
  1
AC1014
  9
$HANDSEED
  5
FFFF
  9
$MEASUREMENT
 70
     1
  0
ENDSEC
  0
SECTION
  2
TABLES
  0
TABLE
  2
VPORT
  5
8
330
0
100
AcDbSymbolTable
 70
     4
  0
VPORT
  5
2E
330
8
100
AcDbSymbolTableRecord
100
AcDbViewportTableRecord
  2
*ACTIVE
 70
     0
 10
0.0
 20
0.0
 11
1.0
 21
1.0
 12
210.0
 22
148.5
 13
0.0
 23
0.0
 14
10.0
 24
10.0
 15
10.0
 25
10.0
 16
0.0
 26
0.0
 36
1.0
 17
0.0
 27
0.0
 37
0.0
 40
341.0
 41
1.24
 42
50.0
 43
0.0
 44
0.0
 50
0.0
 51
0.0
 71
     0
 72
   100
 73
     1
 74
     3
 75
     0
 76
     0
 77
     0
 78
     0
  0
ENDTAB
  0
TABLE
  2
LTYPE
  5
5
330
0
100
AcDbSymbolTable
 70
     1
  0
LTYPE
  5
14
330
5
100
AcDbSymbolTableRecord
100
AcDbLinetypeTableRecord
  2
BYBLOCK
 70
     0
  3

 72
    65
 73
     0
 40
0.0
  0
LTYPE
  5
15
330
5
100
AcDbSymbolTableRecord
100
AcDbLinetypeTableRecord
  2
BYLAYER
 70
     0
  3

 72
    65
 73
     0
 40
0.0
  0
LTYPE
  5
16
330
5
100
AcDbSymbolTableRecord
100
AcDbLinetypeTableRecord
  2
CONTINUOUS
 70
     0
  3
Solid line
 72
    65
 73
     0
 40
0.0
  0
ENDTAB
  0
TABLE
  2
LAYER
  5
2
100
AcDbSymbolTable
 70
4
  0
LAYER
  5
50
100
AcDbSymbolTableRecord
100
AcDbLayerTableRecord
  2
0
 70
0
  6
CONTINUOUS
  0
LAYER
  5
51
100
AcDbSymbolTableRecord
100
AcDbLayerTableRecord
  2
footprints
 70
0
  6
CONTINUOUS
  0
LAYER
  5
52
100
AcDbSymbolTableRecord
100
AcDbLayerTableRecord
  2
outline-tall
 70
0
  6
CONTINUOUS
  0
LAYER
  5
53
100
AcDbSymbolTableRecord
100
AcDbLayerTableRecord
  2
outline-stubby
 70
0
  6
CONTINUOUS
  0
ENDTAB
  0
TABLE
  2
STYLE
  5
3
330
0
100
AcDbSymbolTable
 70
     1
  0
STYLE
  5
11
330
3
100
AcDbSymbolTableRecord
100
AcDbTextStyleTableRecord
  2
STANDARD
 70
     0
 40
0.0
 41
1.0
 50
0.0
 71
     0
 42
2.5
  3
txt
  4

  0
ENDTAB
  0
TABLE
  2
VIEW
  5
6
330
0
100
AcDbSymbolTable
 70
     0
  0
ENDTAB
  0
TABLE
  2
UCS
  5
7
330
0
100
AcDbSymbolTable
 70
     0
  0
ENDTAB
  0
TABLE
  2
APPID
  5
9
330
0
100
AcDbSymbolTable
 70
     2
  0
APPID
  5
12
330
9
100
AcDbSymbolTableRecord
100
AcDbRegAppTableRecord
  2
ACAD
 70
     0
  0
ENDTAB
  0
TABLE
  2
DIMSTYLE
  5
A
330
0
100
AcDbSymbolTable
 70
     1
  0
DIMSTYLE
105
27
330
A
100
AcDbSymbolTableRecord
100
AcDbDimStyleTableRecord
  2
ISO-25
 70
     0
  3

  4

  5

  6

  7

 40
1.0
 41
2.5
 42
0.625
 43
3.75
 44
1.25
 45
0.0
 46
0.0
 47
0.0
 48
0.0
140
2.5
141
2.5
142
0.0
143
0.03937007874016
144
1.0
145
0.0
146
1.0
147
0.625
 71
     0
 72
     0
 73
     0
 74
     0
 75
     0
 76
     0
 77
     1
 78
     8
170
     0
171
     3
172
     1
173
     0
174
     0
175
     0
176
     0
177
     0
178
     0
270
     2
271
     2
272
     2
273
     2
274
     3
340
11
275
     0
280
     0
281
     0
282
     0
283
     0
284
     8
285
     0
286
     0
287
     3
288
     0
  0
ENDTAB
  0
TABLE
  2
BLOCK_RECORD
  5
1
330
0
100
AcDbSymbolTable
 70
     1
  0
BLOCK_RECORD
  5
1F
330
1
100
AcDbSymbolTableRecord
100
AcDbBlockTableRecord
  2
*MODEL_SPACE
  0
BLOCK_RECORD
  5
1B
330
1
100
AcDbSymbolTableRecord
100
AcDbBlockTableRecord
  2
*PAPER_SPACE
  0
ENDTAB
  0
ENDSEC
  0
SECTION
  2
BLOCKS
  0
BLOCK
  5
20
330
1F
100
AcDbEntity
  8
0
100
AcDbBlockBegin
  2
*MODEL_SPACE
 70
     0
 10
0.0
 20
0.0
 30
0.0
  3
*MODEL_SPACE
  1

  0
ENDBLK
  5
21
330
1F
100
AcDbEntity
  8
0
100
AcDbBlockEnd
  0
BLOCK
  5
1C
330
1B
100
AcDbEntity
 67
     1
  8
0
100
AcDbBlockBegin
  2
*PAPER_SPACE
  1

  0
ENDBLK
  5
1D
330
1B
100
AcDbEntity
 67
     1
  8
0
100
AcDbBlockEnd
  0
ENDSEC
  0
SECTION
  2
ENTITIES
  0
LINE
  5
100
100
AcDbEntity
  8
outline-stubby
 62
7
100
AcDbLine
 10
116.403955
 20
54.054599
 30
0.0
 11
108.945223
 21
49.684823
 31
0.0
  0
LINE
  5
101
100
AcDbEntity
  8
outline-stubby
 62
7
100
AcDbLine
 10
108.945223
 20
49.684823
 30
0.0
 11
108.755928
 21
49.989578
 31
0.0
  0
LINE
  5
102
100
AcDbEntity
  8
outline-stubby
 62
7
100
AcDbLine
 10
108.755928
 20
49.989578
 30
0.0
 11
108.563300
 21
50.274588
 31
0.0
  0
LINE
  5
103
100
AcDbEntity
  8
outline-stubby
 62
7
100
AcDbLine
 10
108.563300
 20
50.274588
 30
0.0
 11
108.367551
 21
50.539869
 31
0.0
  0
LINE
  5
104
100
AcDbEntity
  8
outline-stubby
 62
7
100
AcDbLine
 10
108.367551
 20
50.539869
 30
0.0
 11
108.168897
 21
50.785422
 31
0.0
  0
LINE
  5
105
100
AcDbEntity
  8
outline-stubby
 62
7
100
AcDbLine
 10
108.168897
 20
50.785422
 30
0.0
 11
107.967549
 21
51.011256
 31
0.0
  0
LINE
  5
106
100
AcDbEntity
  8
outline-stubby
 62
7
100
AcDbLine
 10
107.967549
 20
51.011256
 30
0.0
 11
107.763722
 21
51.217383
 31
0.0
  0
LINE
  5
107
100
AcDbEntity
  8
outline-stubby
 62
7
100
AcDbLine
 10
107.763722
 20
51.217383
 30
0.0
 11
107.557629
 21
51.403807
 31
0.0
  0
LINE
  5
108
100
AcDbEntity
  8
outline-stubby
 62
7
100
AcDbLine
 10
107.557629
 20
51.403807
 30
0.0
 11
107.349482
 21
51.570539
 31
0.0
  0
LINE
  5
109
100
AcDbEntity
  8
outline-stubby
 62
7
100
AcDbLine
 10
107.349482
 20
51.570539
 30
0.0
 11
107.139497
 21
51.717582
 31
0.0
  0
LINE
  5
10a
100
AcDbEntity
  8
outline-stubby
 62
7
100
AcDbLine
 10
107.139497
 20
51.717582
 30
0.0
 11
106.927884
 21
51.844952
 31
0.0
  0
LINE
  5
10b
100
AcDbEntity
  8
outline-stubby
 62
7
100
AcDbLine
 10
106.927884
 20
51.844952
 30
0.0
 11
106.714860
 21
51.952651
 31
0.0
  0
LINE
  5
10c
100
AcDbEntity
  8
outline-stubby
 62
7
100
AcDbLine
 10
106.714860
 20
51.952651
 30
0.0
 11
106.500634
 21
52.040687
 31
0.0
  0
LINE
  5
10d
100
AcDbEntity
  8
outline-stubby
 62
7
100
AcDbLine
 10
106.500634
 20
52.040687
 30
0.0
 11
106.285425
 21
52.109069
 31
0.0
  0
LINE
  5
10e
100
AcDbEntity
  8
outline-stubby
 62
7
100
AcDbLine
 10
106.285425
 20
52.109069
 30
0.0
 11
106.069440
 21
52.157809
 31
0.0
  0
LINE
  5
10f
100
AcDbEntity
  8
outline-stubby
 62
7
100
AcDbLine
 10
106.069440
 20
52.157809
 30
0.0
 11
105.852900
 21
52.186909
 31
0.0
  0
LINE
  5
110
100
AcDbEntity
  8
outline-stubby
 62
7
100
AcDbLine
 10
105.852900
 20
52.186909
 30
0.0
 11
105.636009
 21
52.196364
 31
0.0
  0
LINE
  5
111
100
AcDbEntity
  8
outline-stubby
 62
7
100
AcDbLine
 10
105.636009
 20
52.196364
 30
0.0
 11
105.418989
 21
52.186204
 31
0.0
  0
LINE
  5
112
100
AcDbEntity
  8
outline-stubby
 62
7
100
AcDbLine
 10
105.418989
 20
52.186204
 30
0.0
 11
105.202047
 21
52.156438
 31
0.0
  0
LINE
  5
113
100
AcDbEntity
  8
outline-stubby
 62
7
100
AcDbLine
 10
105.202047
 20
52.156438
 30
0.0
 11
104.985402
 21
52.107068
 31
0.0
  0
LINE
  5
114
100
AcDbEntity
  8
outline-stubby
 62
7
100
AcDbLine
 10
104.985402
 20
52.107068
 30
0.0
 11
104.769262
 21
52.038102
 31
0.0
  0
LINE
  5
115
100
AcDbEntity
  8
outline-stubby
 62
7
100
AcDbLine
 10
104.769262
 20
52.038102
 30
0.0
 11
104.553845
 21
51.949543
 31
0.0
  0
LINE
  5
116
100
AcDbEntity
  8
outline-stubby
 62
7
100
AcDbLine
 10
104.553845
 20
51.949543
 30
0.0
 11
104.339362
 21
51.841407
 31
0.0
  0
LINE
  5
117
100
AcDbEntity
  8
outline-stubby
 62
7
100
AcDbLine
 10
104.339362
 20
51.841407
 30
0.0
 11
104.126024
 21
51.713693
 31
0.0
  0
LINE
  5
118
100
AcDbEntity
  8
outline-stubby
 62
7
100
AcDbLine
 10
104.126024
 20
51.713693
 30
0.0
 11
103.914050
 21
51.566415
 31
0.0
  0
LINE
  5
119
100
AcDbEntity
  8
outline-stubby
 62
7
100
AcDbLine
 10
103.914050
 20
51.566415
 30
0.0
 11
103.703648
 21
51.399582
 31
0.0
  0
LINE
  5
11a
100
AcDbEntity
  8
outline-stubby
 62
7
100
AcDbLine
 10
103.703648
 20
51.399582
 30
0.0
 11
103.495035
 21
51.213197
 31
0.0
  0
LINE
  5
11b
100
AcDbEntity
  8
outline-stubby
 62
7
100
AcDbLine
 10
103.495035
 20
51.213197
 30
0.0
 11
103.288423
 21
51.007271
 31
0.0
  0
LINE
  5
11c
100
AcDbEntity
  8
outline-stubby
 62
7
100
AcDbLine
 10
103.288423
 20
51.007271
 30
0.0
 11
103.084026
 21
50.781812
 31
0.0
  0
LINE
  5
11d
100
AcDbEntity
  8
outline-stubby
 62
7
100
AcDbLine
 10
103.084026
 20
50.781812
 30
0.0
 11
102.882054
 21
50.536826
 31
0.0
  0
LINE
  5
11e
100
AcDbEntity
  8
outline-stubby
 62
7
100
AcDbLine
 10
102.882054
 20
50.536826
 30
0.0
 11
102.682726
 21
50.272325
 31
0.0
  0
LINE
  5
11f
100
AcDbEntity
  8
outline-stubby
 62
7
100
AcDbLine
 10
102.682726
 20
50.272325
 30
0.0
 11
102.486251
 21
49.988310
 31
0.0
  0
LINE
  5
120
100
AcDbEntity
  8
outline-stubby
 62
7
100
AcDbLine
 10
102.486251
 20
49.988310
 30
0.0
 11
102.292844
 21
49.684797
 31
0.0
  0
LINE
  5
121
100
AcDbEntity
  8
outline-stubby
 62
7
100
AcDbLine
 10
102.292844
 20
49.684797
 30
0.0
 11
94.884508
 21
54.104970
 31
0.0
  0
LINE
  5
122
100
AcDbEntity
  8
outline-stubby
 62
7
100
AcDbLine
 10
94.884508
 20
54.104970
 30
0.0
 11
95.314242
 21
54.939349
 31
0.0
  0
LINE
  5
123
100
AcDbEntity
  8
outline-stubby
 62
7
100
AcDbLine
 10
95.314242
 20
54.939349
 30
0.0
 11
95.734576
 21
55.681664
 31
0.0
  0
LINE
  5
124
100
AcDbEntity
  8
outline-stubby
 62
7
100
AcDbLine
 10
95.734576
 20
55.681664
 30
0.0
 11
96.145231
 21
56.337399
 31
0.0
  0
LINE
  5
125
100
AcDbEntity
  8
outline-stubby
 62
7
100
AcDbLine
 10
96.145231
 20
56.337399
 30
0.0
 11
96.545928
 21
56.912026
 31
0.0
  0
LINE
  5
126
100
AcDbEntity
  8
outline-stubby
 62
7
100
AcDbLine
 10
96.545928
 20
56.912026
 30
0.0
 11
96.936388
 21
57.411026
 31
0.0
  0
LINE
  5
127
100
AcDbEntity
  8
outline-stubby
 62
7
100
AcDbLine
 10
96.936388
 20
57.411026
 30
0.0
 11
97.316335
 21
57.839874
 31
0.0
  0
LINE
  5
128
100
AcDbEntity
  8
outline-stubby
 62
7
100
AcDbLine
 10
97.316335
 20
57.839874
 30
0.0
 11
97.685490
 21
58.204051
 31
0.0
  0
LINE
  5
129
100
AcDbEntity
  8
outline-stubby
 62
7
100
AcDbLine
 10
97.685490
 20
58.204051
 30
0.0
 11
98.043574
 21
58.509031
 31
0.0
  0
LINE
  5
12a
100
AcDbEntity
  8
outline-stubby
 62
7
100
AcDbLine
 10
98.043574
 20
58.509031
 30
0.0
 11
98.390309
 21
58.760294
 31
0.0
  0
LINE
  5
12b
100
AcDbEntity
  8
outline-stubby
 62
7
100
AcDbLine
 10
98.390309
 20
58.760294
 30
0.0
 11
98.725417
 21
58.963319
 31
0.0
  0
LINE
  5
12c
100
AcDbEntity
  8
outline-stubby
 62
7
100
AcDbLine
 10
98.725417
 20
58.963319
 30
0.0
 11
99.048621
 21
59.123581
 31
0.0
  0
LINE
  5
12d
100
AcDbEntity
  8
outline-stubby
 62
7
100
AcDbLine
 10
99.048621
 20
59.123581
 30
0.0
 11
99.359638
 21
59.246560
 31
0.0
  0
LINE
  5
12e
100
AcDbEntity
  8
outline-stubby
 62
7
100
AcDbLine
 10
99.359638
 20
59.246560
 30
0.0
 11
99.658195
 21
59.337734
 31
0.0
  0
LINE
  5
12f
100
AcDbEntity
  8
outline-stubby
 62
7
100
AcDbLine
 10
99.658195
 20
59.337734
 30
0.0
 11
99.944013
 21
59.402578
 31
0.0
  0
LINE
  5
130
100
AcDbEntity
  8
outline-stubby
 62
7
100
AcDbLine
 10
99.944013
 20
59.402578
 30
0.0
 11
100.216812
 21
59.446571
 31
0.0
  0
LINE
  5
131
100
AcDbEntity
  8
outline-stubby
 62
7
100
AcDbLine
 10
100.216812
 20
59.446571
 30
0.0
 11
100.476315
 21
59.475191
 31
0.0
  0
LINE
  5
132
100
AcDbEntity
  8
outline-stubby
 62
7
100
AcDbLine
 10
100.476315
 20
59.475191
 30
0.0
 11
100.722241
 21
59.493930
 31
0.0
  0
LINE
  5
133
100
AcDbEntity
  8
outline-stubby
 62
7
100
AcDbLine
 10
100.722241
 20
59.493930
 30
0.0
 11
100.954315
 21
59.508239
 31
0.0
  0
LINE
  5
134
100
AcDbEntity
  8
outline-stubby
 62
7
100
AcDbLine
 10
100.954315
 20
59.508239
 30
0.0
 11
101.172258
 21
59.523592
 31
0.0
  0
LINE
  5
135
100
AcDbEntity
  8
outline-stubby
 62
7
100
AcDbLine
 10
101.172258
 20
59.523592
 30
0.0
 11
101.375791
 21
59.545492
 31
0.0
  0
LINE
  5
136
100
AcDbEntity
  8
outline-stubby
 62
7
100
AcDbLine
 10
101.375791
 20
59.545492
 30
0.0
 11
101.564638
 21
59.579415
 31
0.0
  0
LINE
  5
137
100
AcDbEntity
  8
outline-stubby
 62
7
100
AcDbLine
 10
101.564638
 20
59.579415
 30
0.0
 11
101.738517
 21
59.630831
 31
0.0
  0
LINE
  5
138
100
AcDbEntity
  8
outline-stubby
 62
7
100
AcDbLine
 10
101.738517
 20
59.630831
 30
0.0
 11
101.897152
 21
59.705216
 31
0.0
  0
LINE
  5
139
100
AcDbEntity
  8
outline-stubby
 62
7
100
AcDbLine
 10
101.897152
 20
59.705216
 30
0.0
 11
102.040267
 21
59.808052
 31
0.0
  0
LINE
  5
13a
100
AcDbEntity
  8
outline-stubby
 62
7
100
AcDbLine
 10
102.040267
 20
59.808052
 30
0.0
 11
102.167577
 21
59.944814
 31
0.0
  0
LINE
  5
13b
100
AcDbEntity
  8
outline-stubby
 62
7
100
AcDbLine
 10
102.167577
 20
59.944814
 30
0.0
 11
102.278809
 21
60.120983
 31
0.0
  0
LINE
  5
13c
100
AcDbEntity
  8
outline-stubby
 62
7
100
AcDbLine
 10
102.278809
 20
60.120983
 30
0.0
 11
102.373687
 21
60.342031
 31
0.0
  0
LINE
  5
13d
100
AcDbEntity
  8
outline-stubby
 62
7
100
AcDbLine
 10
102.373687
 20
60.342031
 30
0.0
 11
102.451924
 21
60.613441
 31
0.0
  0
LINE
  5
13e
100
AcDbEntity
  8
outline-stubby
 62
7
100
AcDbLine
 10
102.451924
 20
60.613441
 30
0.0
 11
102.513251
 21
60.940686
 31
0.0
  0
LINE
  5
13f
100
AcDbEntity
  8
outline-stubby
 62
7
100
AcDbLine
 10
102.513251
 20
60.940686
 30
0.0
 11
102.557385
 21
61.329250
 31
0.0
  0
LINE
  5
140
100
AcDbEntity
  8
outline-stubby
 62
7
100
AcDbLine
 10
102.557385
 20
61.329250
 30
0.0
 11
102.584055
 21
61.784607
 31
0.0
  0
LINE
  5
141
100
AcDbEntity
  8
outline-stubby
 62
7
100
AcDbLine
 10
102.584055
 20
61.784607
 30
0.0
 11
102.592973
 21
62.312232
 31
0.0
  0
LINE
  5
142
100
AcDbEntity
  8
outline-stubby
 62
7
100
AcDbLine
 10
102.592973
 20
62.312232
 30
0.0
 11
102.572258
 21
62.593896
 31
0.0
  0
LINE
  5
143
100
AcDbEntity
  8
outline-stubby
 62
7
100
AcDbLine
 10
102.572258
 20
62.593896
 30
0.0
 11
102.511894
 21
62.861112
 31
0.0
  0
LINE
  5
144
100
AcDbEntity
  8
outline-stubby
 62
7
100
AcDbLine
 10
102.511894
 20
62.861112
 30
0.0
 11
102.414536
 21
63.114610
 31
0.0
  0
LINE
  5
145
100
AcDbEntity
  8
outline-stubby
 62
7
100
AcDbLine
 10
102.414536
 20
63.114610
 30
0.0
 11
102.282825
 21
63.355120
 31
0.0
  0
LINE
  5
146
100
AcDbEntity
  8
outline-stubby
 62
7
100
AcDbLine
 10
102.282825
 20
63.355120
 30
0.0
 11
102.119407
 21
63.583370
 31
0.0
  0
LINE
  5
147
100
AcDbEntity
  8
outline-stubby
 62
7
100
AcDbLine
 10
102.119407
 20
63.583370
 30
0.0
 11
101.926921
 21
63.800088
 31
0.0
  0
LINE
  5
148
100
AcDbEntity
  8
outline-stubby
 62
7
100
AcDbLine
 10
101.926921
 20
63.800088
 30
0.0
 11
101.708009
 21
64.006003
 31
0.0
  0
LINE
  5
149
100
AcDbEntity
  8
outline-stubby
 62
7
100
AcDbLine
 10
101.708009
 20
64.006003
 30
0.0
 11
101.465318
 21
64.201846
 31
0.0
  0
LINE
  5
14a
100
AcDbEntity
  8
outline-stubby
 62
7
100
AcDbLine
 10
101.465318
 20
64.201846
 30
0.0
 11
101.201488
 21
64.388344
 31
0.0
  0
LINE
  5
14b
100
AcDbEntity
  8
outline-stubby
 62
7
100
AcDbLine
 10
101.201488
 20
64.388344
 30
0.0
 11
100.919161
 21
64.566228
 31
0.0
  0
LINE
  5
14c
100
AcDbEntity
  8
outline-stubby
 62
7
100
AcDbLine
 10
100.919161
 20
64.566228
 30
0.0
 11
100.620982
 21
64.736225
 31
0.0
  0
LINE
  5
14d
100
AcDbEntity
  8
outline-stubby
 62
7
100
AcDbLine
 10
100.620982
 20
64.736225
 30
0.0
 11
100.309593
 21
64.899064
 31
0.0
  0
LINE
  5
14e
100
AcDbEntity
  8
outline-stubby
 62
7
100
AcDbLine
 10
100.309593
 20
64.899064
 30
0.0
 11
100.076471
 21
65.015077
 31
0.0
  0
LINE
  5
14f
100
AcDbEntity
  8
outline-stubby
 62
7
100
AcDbLine
 10
100.076471
 20
65.015077
 30
0.0
 11
99.819214
 21
65.138172
 31
0.0
  0
LINE
  5
150
100
AcDbEntity
  8
outline-stubby
 62
7
100
AcDbLine
 10
99.819214
 20
65.138172
 30
0.0
 11
99.543275
 21
65.267929
 31
0.0
  0
LINE
  5
151
100
AcDbEntity
  8
outline-stubby
 62
7
100
AcDbLine
 10
99.543275
 20
65.267929
 30
0.0
 11
99.254101
 21
65.403929
 31
0.0
  0
LINE
  5
152
100
AcDbEntity
  8
outline-stubby
 62
7
100
AcDbLine
 10
99.254101
 20
65.403929
 30
0.0
 11
98.957153
 21
65.545754
 31
0.0
  0
LINE
  5
153
100
AcDbEntity
  8
outline-stubby
 62
7
100
AcDbLine
 10
98.957153
 20
65.545754
 30
0.0
 11
98.657876
 21
65.692989
 31
0.0
  0
LINE
  5
154
100
AcDbEntity
  8
outline-stubby
 62
7
100
AcDbLine
 10
98.657876
 20
65.692989
 30
0.0
 11
98.361729
 21
65.845212
 31
0.0
  0
LINE
  5
155
100
AcDbEntity
  8
outline-stubby
 62
7
100
AcDbLine
 10
98.361729
 20
65.845212
 30
0.0
 11
98.074158
 21
66.002009
 31
0.0
  0
LINE
  5
156
100
AcDbEntity
  8
outline-stubby
 62
7
100
AcDbLine
 10
98.074158
 20
66.002009
 30
0.0
 11
97.800620
 21
66.162957
 31
0.0
  0
LINE
  5
157
100
AcDbEntity
  8
outline-stubby
 62
7
100
AcDbLine
 10
97.800620
 20
66.162957
 30
0.0
 11
97.546566
 21
66.327639
 31
0.0
  0
LINE
  5
158
100
AcDbEntity
  8
outline-stubby
 62
7
100
AcDbLine
 10
97.546566
 20
66.327639
 30
0.0
 11
97.317450
 21
66.495641
 31
0.0
  0
LINE
  5
159
100
AcDbEntity
  8
outline-stubby
 62
7
100
AcDbLine
 10
97.317450
 20
66.495641
 30
0.0
 11
97.118723
 21
66.666540
 31
0.0
  0
LINE
  5
15a
100
AcDbEntity
  8
outline-stubby
 62
7
100
AcDbLine
 10
97.118723
 20
66.666540
 30
0.0
 11
96.955839
 21
66.839921
 31
0.0
  0
LINE
  5
15b
100
AcDbEntity
  8
outline-stubby
 62
7
100
AcDbLine
 10
96.955839
 20
66.839921
 30
0.0
 11
96.834246
 21
67.015364
 31
0.0
  0
LINE
  5
15c
100
AcDbEntity
  8
outline-stubby
 62
7
100
AcDbLine
 10
96.834246
 20
67.015364
 30
0.0
 11
96.759403
 21
67.192453
 31
0.0
  0
LINE
  5
15d
100
AcDbEntity
  8
outline-stubby
 62
7
100
AcDbLine
 10
96.759403
 20
67.192453
 30
0.0
 11
96.736769
 21
67.370767
 31
0.0
  0
LINE
  5
15e
100
AcDbEntity
  8
outline-stubby
 62
7
100
AcDbLine
 10
96.736769
 20
67.370767
 30
0.0
 11
96.745687
 21
79.534973
 31
0.0
  0
LINE
  5
15f
100
AcDbEntity
  8
outline-stubby
 62
7
100
AcDbLine
 10
96.745687
 20
79.534973
 30
0.0
 11
96.784846
 21
79.723487
 31
0.0
  0
LINE
  5
160
100
AcDbEntity
  8
outline-stubby
 62
7
100
AcDbLine
 10
96.784846
 20
79.723487
 30
0.0
 11
96.901827
 21
79.920957
 31
0.0
  0
LINE
  5
161
100
AcDbEntity
  8
outline-stubby
 62
7
100
AcDbLine
 10
96.901827
 20
79.920957
 30
0.0
 11
97.087718
 21
80.126714
 31
0.0
  0
LINE
  5
162
100
AcDbEntity
  8
outline-stubby
 62
7
100
AcDbLine
 10
97.087718
 20
80.126714
 30
0.0
 11
97.333613
 21
80.340077
 31
0.0
  0
LINE
  5
163
100
AcDbEntity
  8
outline-stubby
 62
7
100
AcDbLine
 10
97.333613
 20
80.340077
 30
0.0
 11
97.630601
 21
80.560371
 31
0.0
  0
LINE
  5
164
100
AcDbEntity
  8
outline-stubby
 62
7
100
AcDbLine
 10
97.630601
 20
80.560371
 30
0.0
 11
97.969776
 21
80.786922
 31
0.0
  0
LINE
  5
165
100
AcDbEntity
  8
outline-stubby
 62
7
100
AcDbLine
 10
97.969776
 20
80.786922
 30
0.0
 11
98.342227
 21
81.019059
 31
0.0
  0
LINE
  5
166
100
AcDbEntity
  8
outline-stubby
 62
7
100
AcDbLine
 10
98.342227
 20
81.019059
 30
0.0
 11
98.739048
 21
81.256097
 31
0.0
  0
LINE
  5
167
100
AcDbEntity
  8
outline-stubby
 62
7
100
AcDbLine
 10
98.739048
 20
81.256097
 30
0.0
 11
99.151330
 21
81.497369
 31
0.0
  0
LINE
  5
168
100
AcDbEntity
  8
outline-stubby
 62
7
100
AcDbLine
 10
99.151330
 20
81.497369
 30
0.0
 11
99.570162
 21
81.742194
 31
0.0
  0
LINE
  5
169
100
AcDbEntity
  8
outline-stubby
 62
7
100
AcDbLine
 10
99.570162
 20
81.742194
 30
0.0
 11
99.986637
 21
81.989900
 31
0.0
  0
LINE
  5
16a
100
AcDbEntity
  8
outline-stubby
 62
7
100
AcDbLine
 10
99.986637
 20
81.989900
 30
0.0
 11
100.391846
 21
82.239814
 31
0.0
  0
LINE
  5
16b
100
AcDbEntity
  8
outline-stubby
 62
7
100
AcDbLine
 10
100.391846
 20
82.239814
 30
0.0
 11
100.776885
 21
82.491254
 31
0.0
  0
LINE
  5
16c
100
AcDbEntity
  8
outline-stubby
 62
7
100
AcDbLine
 10
100.776885
 20
82.491254
 30
0.0
 11
101.132838
 21
82.743547
 31
0.0
  0
LINE
  5
16d
100
AcDbEntity
  8
outline-stubby
 62
7
100
AcDbLine
 10
101.132838
 20
82.743547
 30
0.0
 11
101.450798
 21
82.996020
 31
0.0
  0
LINE
  5
16e
100
AcDbEntity
  8
outline-stubby
 62
7
100
AcDbLine
 10
101.450798
 20
82.996020
 30
0.0
 11
101.721861
 21
83.247996
 31
0.0
  0
LINE
  5
16f
100
AcDbEntity
  8
outline-stubby
 62
7
100
AcDbLine
 10
101.721861
 20
83.247996
 30
0.0
 11
101.941966
 21
83.516931
 31
0.0
  0
LINE
  5
170
100
AcDbEntity
  8
outline-stubby
 62
7
100
AcDbLine
 10
101.941966
 20
83.516931
 30
0.0
 11
102.135754
 21
83.805444
 31
0.0
  0
LINE
  5
171
100
AcDbEntity
  8
outline-stubby
 62
7
100
AcDbLine
 10
102.135754
 20
83.805444
 30
0.0
 11
102.300586
 21
84.114788
 31
0.0
  0
LINE
  5
172
100
AcDbEntity
  8
outline-stubby
 62
7
100
AcDbLine
 10
102.300586
 20
84.114788
 30
0.0
 11
102.433828
 21
84.446227
 31
0.0
  0
LINE
  5
173
100
AcDbEntity
  8
outline-stubby
 62
7
100
AcDbLine
 10
102.433828
 20
84.446227
 30
0.0
 11
102.532843
 21
84.801017
 31
0.0
  0
LINE
  5
174
100
AcDbEntity
  8
outline-stubby
 62
7
100
AcDbLine
 10
102.532843
 20
84.801017
 30
0.0
 11
102.594991
 21
85.180417
 31
0.0
  0
LINE
  5
175
100
AcDbEntity
  8
outline-stubby
 62
7
100
AcDbLine
 10
102.594991
 20
85.180417
 30
0.0
 11
102.617626
 21
85.585685
 31
0.0
  0
LINE
  5
176
100
AcDbEntity
  8
outline-stubby
 62
7
100
AcDbLine
 10
102.617626
 20
85.585685
 30
0.0
 11
102.596854
 21
86.100069
 31
0.0
  0
LINE
  5
177
100
AcDbEntity
  8
outline-stubby
 62
7
100
AcDbLine
 10
102.596854
 20
86.100069
 30
0.0
 11
102.533168
 21
86.522942
 31
0.0
  0
LINE
  5
178
100
AcDbEntity
  8
outline-stubby
 62
7
100
AcDbLine
 10
102.533168
 20
86.522942
 30
0.0
 11
102.432699
 21
86.869895
 31
0.0
  0
LINE
  5
179
100
AcDbEntity
  8
outline-stubby
 62
7
100
AcDbLine
 10
102.432699
 20
86.869895
 30
0.0
 11
102.301571
 21
87.156511
 31
0.0
  0
LINE
  5
17a
100
AcDbEntity
  8
outline-stubby
 62
7
100
AcDbLine
 10
102.301571
 20
87.156511
 30
0.0
 11
102.145902
 21
87.398376
 31
0.0
  0
LINE
  5
17b
100
AcDbEntity
  8
outline-stubby
 62
7
100
AcDbLine
 10
102.145902
 20
87.398376
 30
0.0
 11
101.971819
 21
87.611076
 31
0.0
  0
LINE
  5
17c
100
AcDbEntity
  8
outline-stubby
 62
7
100
AcDbLine
 10
101.971819
 20
87.611076
 30
0.0
 11
101.785448
 21
87.810195
 31
0.0
  0
LINE
  5
17d
100
AcDbEntity
  8
outline-stubby
 62
7
100
AcDbLine
 10
101.785448
 20
87.810195
 30
0.0
 11
101.592911
 21
88.011320
 31
0.0
  0
LINE
  5
17e
100
AcDbEntity
  8
outline-stubby
 62
7
100
AcDbLine
 10
101.592911
 20
88.011320
 30
0.0
 11
101.400469
 21
88.230037
 31
0.0
  0
LINE
  5
17f
100
AcDbEntity
  8
outline-stubby
 62
7
100
AcDbLine
 10
101.400469
 20
88.230037
 30
0.0
 11
101.214309
 21
88.481929
 31
0.0
  0
LINE
  5
180
100
AcDbEntity
  8
outline-stubby
 62
7
100
AcDbLine
 10
101.214309
 20
88.481929
 30
0.0
 11
101.040432
 21
88.782583
 31
0.0
  0
LINE
  5
181
100
AcDbEntity
  8
outline-stubby
 62
7
100
AcDbLine
 10
101.040432
 20
88.782583
 30
0.0
 11
100.884843
 21
89.147586
 31
0.0
  0
LINE
  5
182
100
AcDbEntity
  8
outline-stubby
 62
7
100
AcDbLine
 10
100.884843
 20
89.147586
 30
0.0
 11
100.753542
 21
89.592521
 31
0.0
  0
LINE
  5
183
100
AcDbEntity
  8
outline-stubby
 62
7
100
AcDbLine
 10
100.753542
 20
89.592521
 30
0.0
 11
100.652532
 21
90.132979
 31
0.0
  0
LINE
  5
184
100
AcDbEntity
  8
outline-stubby
 62
7
100
AcDbLine
 10
100.652532
 20
90.132979
 30
0.0
 11
100.587810
 21
90.784540
 31
0.0
  0
LINE
  5
185
100
AcDbEntity
  8
outline-stubby
 62
7
100
AcDbLine
 10
100.587810
 20
90.784540
 30
0.0
 11
100.584988
 21
91.562791
 31
0.0
  0
LINE
  5
186
100
AcDbEntity
  8
outline-stubby
 62
7
100
AcDbLine
 10
100.584988
 20
91.562791
 30
0.0
 11
100.584988
 21
96.695318
 31
0.0
  0
LINE
  5
187
100
AcDbEntity
  8
outline-stubby
 62
7
100
AcDbLine
 10
100.584988
 20
96.695318
 30
0.0
 11
100.633976
 21
97.063141
 31
0.0
  0
LINE
  5
188
100
AcDbEntity
  8
outline-stubby
 62
7
100
AcDbLine
 10
100.633976
 20
97.063141
 30
0.0
 11
100.718990
 21
97.407051
 31
0.0
  0
LINE
  5
189
100
AcDbEntity
  8
outline-stubby
 62
7
100
AcDbLine
 10
100.718990
 20
97.407051
 30
0.0
 11
100.855924
 21
97.727074
 31
0.0
  0
LINE
  5
18a
100
AcDbEntity
  8
outline-stubby
 62
7
100
AcDbLine
 10
100.855924
 20
97.727074
 30
0.0
 11
101.041073
 21
98.023230
 31
0.0
  0
LINE
  5
18b
100
AcDbEntity
  8
outline-stubby
 62
7
100
AcDbLine
 10
101.041073
 20
98.023230
 30
0.0
 11
101.270726
 21
98.295543
 31
0.0
  0
LINE
  5
18c
100
AcDbEntity
  8
outline-stubby
 62
7
100
AcDbLine
 10
101.270726
 20
98.295543
 30
0.0
 11
101.541168
 21
98.544037
 31
0.0
  0
LINE
  5
18d
100
AcDbEntity
  8
outline-stubby
 62
7
100
AcDbLine
 10
101.541168
 20
98.544037
 30
0.0
 11
101.848691
 21
98.768734
 31
0.0
  0
LINE
  5
18e
100
AcDbEntity
  8
outline-stubby
 62
7
100
AcDbLine
 10
101.848691
 20
98.768734
 30
0.0
 11
102.189585
 21
98.969659
 31
0.0
  0
LINE
  5
18f
100
AcDbEntity
  8
outline-stubby
 62
7
100
AcDbLine
 10
102.189585
 20
98.969659
 30
0.0
 11
102.560140
 21
99.146835
 31
0.0
  0
LINE
  5
190
100
AcDbEntity
  8
outline-stubby
 62
7
100
AcDbLine
 10
102.560140
 20
99.146835
 30
0.0
 11
102.956642
 21
99.300285
 31
0.0
  0
LINE
  5
191
100
AcDbEntity
  8
outline-stubby
 62
7
100
AcDbLine
 10
102.956642
 20
99.300285
 30
0.0
 11
103.375384
 21
99.430031
 31
0.0
  0
LINE
  5
192
100
AcDbEntity
  8
outline-stubby
 62
7
100
AcDbLine
 10
103.375384
 20
99.430031
 30
0.0
 11
103.812650
 21
99.536099
 31
0.0
  0
LINE
  5
193
100
AcDbEntity
  8
outline-stubby
 62
7
100
AcDbLine
 10
103.812650
 20
99.536099
 30
0.0
 11
104.264737
 21
99.618508
 31
0.0
  0
LINE
  5
194
100
AcDbEntity
  8
outline-stubby
 62
7
100
AcDbLine
 10
104.264737
 20
99.618508
 30
0.0
 11
104.727928
 21
99.677286
 31
0.0
  0
LINE
  5
195
100
AcDbEntity
  8
outline-stubby
 62
7
100
AcDbLine
 10
104.727928
 20
99.677286
 30
0.0
 11
105.198517
 21
99.712454
 31
0.0
  0
LINE
  5
196
100
AcDbEntity
  8
outline-stubby
 62
7
100
AcDbLine
 10
105.198517
 20
99.712454
 30
0.0
 11
105.672788
 21
99.724025
 31
0.0
  0
LINE
  5
197
100
AcDbEntity
  8
outline-stubby
 62
7
100
AcDbLine
 10
105.672788
 20
99.724025
 30
0.0
 11
106.147035
 21
99.712031
 31
0.0
  0
LINE
  5
198
100
AcDbEntity
  8
outline-stubby
 62
7
100
AcDbLine
 10
106.147035
 20
99.712031
 30
0.0
 11
106.617544
 21
99.676507
 31
0.0
  0
LINE
  5
199
100
AcDbEntity
  8
outline-stubby
 62
7
100
AcDbLine
 10
106.617544
 20
99.676507
 30
0.0
 11
107.080609
 21
99.617469
 31
0.0
  0
LINE
  5
19a
100
AcDbEntity
  8
outline-stubby
 62
7
100
AcDbLine
 10
107.080609
 20
99.617469
 30
0.0
 11
107.532514
 21
99.534933
 31
0.0
  0
LINE
  5
19b
100
AcDbEntity
  8
outline-stubby
 62
7
100
AcDbLine
 10
107.532514
 20
99.534933
 30
0.0
 11
107.969550
 21
99.428931
 31
0.0
  0
LINE
  5
19c
100
AcDbEntity
  8
outline-stubby
 62
7
100
AcDbLine
 10
107.969550
 20
99.428931
 30
0.0
 11
108.388006
 21
99.299481
 31
0.0
  0
LINE
  5
19d
100
AcDbEntity
  8
outline-stubby
 62
7
100
AcDbLine
 10
108.388006
 20
99.299481
 30
0.0
 11
108.784173
 21
99.146604
 31
0.0
  0
LINE
  5
19e
100
AcDbEntity
  8
outline-stubby
 62
7
100
AcDbLine
 10
108.784173
 20
99.146604
 30
0.0
 11
109.154338
 21
98.970331
 31
0.0
  0
LINE
  5
19f
100
AcDbEntity
  8
outline-stubby
 62
7
100
AcDbLine
 10
109.154338
 20
98.970331
 30
0.0
 11
109.494794
 21
98.770678
 31
0.0
  0
LINE
  5
1a0
100
AcDbEntity
  8
outline-stubby
 62
7
100
AcDbLine
 10
109.494794
 20
98.770678
 30
0.0
 11
109.801827
 21
98.547672
 31
0.0
  0
LINE
  5
1a1
100
AcDbEntity
  8
outline-stubby
 62
7
100
AcDbLine
 10
109.801827
 20
98.547672
 30
0.0
 11
110.071727
 21
98.301334
 31
0.0
  0
LINE
  5
1a2
100
AcDbEntity
  8
outline-stubby
 62
7
100
AcDbLine
 10
110.071727
 20
98.301334
 30
0.0
 11
110.300781
 21
98.031688
 31
0.0
  0
LINE
  5
1a3
100
AcDbEntity
  8
outline-stubby
 62
7
100
AcDbLine
 10
110.300781
 20
98.031688
 30
0.0
 11
110.485284
 21
97.738761
 31
0.0
  0
LINE
  5
1a4
100
AcDbEntity
  8
outline-stubby
 62
7
100
AcDbLine
 10
110.485284
 20
97.738761
 30
0.0
 11
110.621521
 21
97.422571
 31
0.0
  0
LINE
  5
1a5
100
AcDbEntity
  8
outline-stubby
 62
7
100
AcDbLine
 10
110.621521
 20
97.422571
 30
0.0
 11
110.705784
 21
97.083142
 31
0.0
  0
LINE
  5
1a6
100
AcDbEntity
  8
outline-stubby
 62
7
100
AcDbLine
 10
110.705784
 20
97.083142
 30
0.0
 11
110.703244
 21
96.720500
 31
0.0
  0
LINE
  5
1a7
100
AcDbEntity
  8
outline-stubby
 62
7
100
AcDbLine
 10
110.703244
 20
96.720500
 30
0.0
 11
110.703244
 21
91.568367
 31
0.0
  0
LINE
  5
1a8
100
AcDbEntity
  8
outline-stubby
 62
7
100
AcDbLine
 10
110.703244
 20
91.568367
 30
0.0
 11
110.647779
 21
90.907138
 31
0.0
  0
LINE
  5
1a9
100
AcDbEntity
  8
outline-stubby
 62
7
100
AcDbLine
 10
110.647779
 20
90.907138
 30
0.0
 11
110.580686
 21
90.350759
 31
0.0
  0
LINE
  5
1aa
100
AcDbEntity
  8
outline-stubby
 62
7
100
AcDbLine
 10
110.580686
 20
90.350759
 30
0.0
 11
110.477170
 21
89.884900
 31
0.0
  0
LINE
  5
1ab
100
AcDbEntity
  8
outline-stubby
 62
7
100
AcDbLine
 10
110.477170
 20
89.884900
 30
0.0
 11
110.343507
 21
89.495233
 31
0.0
  0
LINE
  5
1ac
100
AcDbEntity
  8
outline-stubby
 62
7
100
AcDbLine
 10
110.343507
 20
89.495233
 30
0.0
 11
110.185959
 21
89.167429
 31
0.0
  0
LINE
  5
1ad
100
AcDbEntity
  8
outline-stubby
 62
7
100
AcDbLine
 10
110.185959
 20
89.167429
 30
0.0
 11
110.010798
 21
88.887160
 31
0.0
  0
LINE
  5
1ae
100
AcDbEntity
  8
outline-stubby
 62
7
100
AcDbLine
 10
110.010798
 20
88.887160
 30
0.0
 11
109.824297
 21
88.640094
 31
0.0
  0
LINE
  5
1af
100
AcDbEntity
  8
outline-stubby
 62
7
100
AcDbLine
 10
109.824297
 20
88.640094
 30
0.0
 11
109.632719
 21
88.411906
 31
0.0
  0
LINE
  5
1b0
100
AcDbEntity
  8
outline-stubby
 62
7
100
AcDbLine
 10
109.632719
 20
88.411906
 30
0.0
 11
109.442340
 21
88.188262
 31
0.0
  0
LINE
  5
1b1
100
AcDbEntity
  8
outline-stubby
 62
7
100
AcDbLine
 10
109.442340
 20
88.188262
 30
0.0
 11
109.259424
 21
87.954839
 31
0.0
  0
LINE
  5
1b2
100
AcDbEntity
  8
outline-stubby
 62
7
100
AcDbLine
 10
109.259424
 20
87.954839
 30
0.0
 11
109.090243
 21
87.697303
 31
0.0
  0
LINE
  5
1b3
100
AcDbEntity
  8
outline-stubby
 62
7
100
AcDbLine
 10
109.090243
 20
87.697303
 30
0.0
 11
108.941068
 21
87.401331
 31
0.0
  0
LINE
  5
1b4
100
AcDbEntity
  8
outline-stubby
 62
7
100
AcDbLine
 10
108.941068
 20
87.401331
 30
0.0
 11
108.818166
 21
87.052586
 31
0.0
  0
LINE
  5
1b5
100
AcDbEntity
  8
outline-stubby
 62
7
100
AcDbLine
 10
108.818166
 20
87.052586
 30
0.0
 11
108.727807
 21
86.636746
 31
0.0
  0
LINE
  5
1b6
100
AcDbEntity
  8
outline-stubby
 62
7
100
AcDbLine
 10
108.727807
 20
86.636746
 30
0.0
 11
108.676259
 21
86.139476
 31
0.0
  0
LINE
  5
1b7
100
AcDbEntity
  8
outline-stubby
 62
7
100
AcDbLine
 10
108.676259
 20
86.139476
 30
0.0
 11
108.669796
 21
85.546453
 31
0.0
  0
LINE
  5
1b8
100
AcDbEntity
  8
outline-stubby
 62
7
100
AcDbLine
 10
108.669796
 20
85.546453
 30
0.0
 11
108.692741
 21
85.300237
 31
0.0
  0
LINE
  5
1b9
100
AcDbEntity
  8
outline-stubby
 62
7
100
AcDbLine
 10
108.692741
 20
85.300237
 30
0.0
 11
108.746157
 21
85.059995
 31
0.0
  0
LINE
  5
1ba
100
AcDbEntity
  8
outline-stubby
 62
7
100
AcDbLine
 10
108.746157
 20
85.059995
 30
0.0
 11
108.828007
 21
84.824278
 31
0.0
  0
LINE
  5
1bb
100
AcDbEntity
  8
outline-stubby
 62
7
100
AcDbLine
 10
108.828007
 20
84.824278
 30
0.0
 11
108.936245
 21
84.591631
 31
0.0
  0
LINE
  5
1bc
100
AcDbEntity
  8
outline-stubby
 62
7
100
AcDbLine
 10
108.936245
 20
84.591631
 30
0.0
 11
109.068830
 21
84.360601
 31
0.0
  0
LINE
  5
1bd
100
AcDbEntity
  8
outline-stubby
 62
7
100
AcDbLine
 10
109.068830
 20
84.360601
 30
0.0
 11
109.223723
 21
84.129740
 31
0.0
  0
LINE
  5
1be
100
AcDbEntity
  8
outline-stubby
 62
7
100
AcDbLine
 10
109.223723
 20
84.129740
 30
0.0
 11
109.398881
 21
83.897593
 31
0.0
  0
LINE
  5
1bf
100
AcDbEntity
  8
outline-stubby
 62
7
100
AcDbLine
 10
109.398881
 20
83.897593
 30
0.0
 11
109.592260
 21
83.662708
 31
0.0
  0
LINE
  5
1c0
100
AcDbEntity
  8
outline-stubby
 62
7
100
AcDbLine
 10
109.592260
 20
83.662708
 30
0.0
 11
109.801821
 21
83.423634
 31
0.0
  0
LINE
  5
1c1
100
AcDbEntity
  8
outline-stubby
 62
7
100
AcDbLine
 10
109.801821
 20
83.423634
 30
0.0
 11
110.025519
 21
83.178919
 31
0.0
  0
LINE
  5
1c2
100
AcDbEntity
  8
outline-stubby
 62
7
100
AcDbLine
 10
110.025519
 20
83.178919
 30
0.0
 11
110.261315
 21
82.927109
 31
0.0
  0
LINE
  5
1c3
100
AcDbEntity
  8
outline-stubby
 62
7
100
AcDbLine
 10
110.261315
 20
82.927109
 30
0.0
 11
110.507168
 21
82.666757
 31
0.0
  0
LINE
  5
1c4
100
AcDbEntity
  8
outline-stubby
 62
7
100
AcDbLine
 10
110.507168
 20
82.666757
 30
0.0
 11
110.761032
 21
82.396405
 31
0.0
  0
LINE
  5
1c5
100
AcDbEntity
  8
outline-stubby
 62
7
100
AcDbLine
 10
110.761032
 20
82.396405
 30
0.0
 11
111.020866
 21
82.114603
 31
0.0
  0
LINE
  5
1c6
100
AcDbEntity
  8
outline-stubby
 62
7
100
AcDbLine
 10
111.020866
 20
82.114603
 30
0.0
 11
111.284633
 21
81.819898
 31
0.0
  0
LINE
  5
1c7
100
AcDbEntity
  8
outline-stubby
 62
7
100
AcDbLine
 10
111.284633
 20
81.819898
 30
0.0
 11
111.550286
 21
81.510842
 31
0.0
  0
LINE
  5
1c8
100
AcDbEntity
  8
outline-stubby
 62
7
100
AcDbLine
 10
111.550286
 20
81.510842
 30
0.0
 11
111.815784
 21
81.185979
 31
0.0
  0
LINE
  5
1c9
100
AcDbEntity
  8
outline-stubby
 62
7
100
AcDbLine
 10
111.815784
 20
81.185979
 30
0.0
 11
112.079086
 21
80.843858
 31
0.0
  0
LINE
  5
1ca
100
AcDbEntity
  8
outline-stubby
 62
7
100
AcDbLine
 10
112.079086
 20
80.843858
 30
0.0
 11
112.338152
 21
80.483028
 31
0.0
  0
LINE
  5
1cb
100
AcDbEntity
  8
outline-stubby
 62
7
100
AcDbLine
 10
112.338152
 20
80.483028
 30
0.0
 11
112.590938
 21
80.102037
 31
0.0
  0
LINE
  5
1cc
100
AcDbEntity
  8
outline-stubby
 62
7
100
AcDbLine
 10
112.590938
 20
80.102037
 30
0.0
 11
112.835402
 21
79.699430
 31
0.0
  0
LINE
  5
1cd
100
AcDbEntity
  8
outline-stubby
 62
7
100
AcDbLine
 10
112.835402
 20
79.699430
 30
0.0
 11
113.069503
 21
79.273757
 31
0.0
  0
LINE
  5
1ce
100
AcDbEntity
  8
outline-stubby
 62
7
100
AcDbLine
 10
113.069503
 20
79.273757
 30
0.0
 11
113.291197
 21
78.823565
 31
0.0
  0
LINE
  5
1cf
100
AcDbEntity
  8
outline-stubby
 62
7
100
AcDbLine
 10
113.291197
 20
78.823565
 30
0.0
 11
113.498447
 21
78.347405
 31
0.0
  0
LINE
  5
1d0
100
AcDbEntity
  8
outline-stubby
 62
7
100
AcDbLine
 10
113.498447
 20
78.347405
 30
0.0
 11
113.689206
 21
77.843822
 31
0.0
  0
LINE
  5
1d1
100
AcDbEntity
  8
outline-stubby
 62
7
100
AcDbLine
 10
113.689206
 20
77.843822
 30
0.0
 11
113.861435
 21
77.311361
 31
0.0
  0
LINE
  5
1d2
100
AcDbEntity
  8
outline-stubby
 62
7
100
AcDbLine
 10
113.861435
 20
77.311361
 30
0.0
 11
114.013090
 21
76.748579
 31
0.0
  0
LINE
  5
1d3
100
AcDbEntity
  8
outline-stubby
 62
7
100
AcDbLine
 10
114.013090
 20
76.748579
 30
0.0
 11
114.142131
 21
76.154016
 31
0.0
  0
LINE
  5
1d4
100
AcDbEntity
  8
outline-stubby
 62
7
100
AcDbLine
 10
114.142131
 20
76.154016
 30
0.0
 11
114.246516
 21
75.526221
 31
0.0
  0
LINE
  5
1d5
100
AcDbEntity
  8
outline-stubby
 62
7
100
AcDbLine
 10
114.246516
 20
75.526221
 30
0.0
 11
114.324203
 21
74.863747
 31
0.0
  0
LINE
  5
1d6
100
AcDbEntity
  8
outline-stubby
 62
7
100
AcDbLine
 10
114.324203
 20
74.863747
 30
0.0
 11
114.373149
 21
74.165134
 31
0.0
  0
LINE
  5
1d7
100
AcDbEntity
  8
outline-stubby
 62
7
100
AcDbLine
 10
114.373149
 20
74.165134
 30
0.0
 11
114.391324
 21
73.428938
 31
0.0
  0
LINE
  5
1d8
100
AcDbEntity
  8
outline-stubby
 62
7
100
AcDbLine
 10
114.391324
 20
73.428938
 30
0.0
 11
114.376621
 21
72.647885
 31
0.0
  0
LINE
  5
1d9
100
AcDbEntity
  8
outline-stubby
 62
7
100
AcDbLine
 10
114.376621
 20
72.647885
 30
0.0
 11
114.329529
 21
71.911903
 31
0.0
  0
LINE
  5
1da
100
AcDbEntity
  8
outline-stubby
 62
7
100
AcDbLine
 10
114.329529
 20
71.911903
 30
0.0
 11
114.252194
 21
71.219281
 31
0.0
  0
LINE
  5
1db
100
AcDbEntity
  8
outline-stubby
 62
7
100
AcDbLine
 10
114.252194
 20
71.219281
 30
0.0
 11
114.146776
 21
70.568319
 31
0.0
  0
LINE
  5
1dc
100
AcDbEntity
  8
outline-stubby
 62
7
100
AcDbLine
 10
114.146776
 20
70.568319
 30
0.0
 11
114.015435
 21
69.957311
 31
0.0
  0
LINE
  5
1dd
100
AcDbEntity
  8
outline-stubby
 62
7
100
AcDbLine
 10
114.015435
 20
69.957311
 30
0.0
 11
113.860329
 21
69.384549
 31
0.0
  0
LINE
  5
1de
100
AcDbEntity
  8
outline-stubby
 62
7
100
AcDbLine
 10
113.860329
 20
69.384549
 30
0.0
 11
113.683621
 21
68.848335
 31
0.0
  0
LINE
  5
1df
100
AcDbEntity
  8
outline-stubby
 62
7
100
AcDbLine
 10
113.683621
 20
68.848335
 30
0.0
 11
113.487462
 21
68.346959
 31
0.0
  0
LINE
  5
1e0
100
AcDbEntity
  8
outline-stubby
 62
7
100
AcDbLine
 10
113.487462
 20
68.346959
 30
0.0
 11
113.274021
 21
67.878716
 31
0.0
  0
LINE
  5
1e1
100
AcDbEntity
  8
outline-stubby
 62
7
100
AcDbLine
 10
113.274021
 20
67.878716
 30
0.0
 11
113.045449
 21
67.441906
 31
0.0
  0
LINE
  5
1e2
100
AcDbEntity
  8
outline-stubby
 62
7
100
AcDbLine
 10
113.045449
 20
67.441906
 30
0.0
 11
112.803906
 21
67.034818
 31
0.0
  0
LINE
  5
1e3
100
AcDbEntity
  8
outline-stubby
 62
7
100
AcDbLine
 10
112.803906
 20
67.034818
 30
0.0
 11
112.551557
 21
66.655754
 31
0.0
  0
LINE
  5
1e4
100
AcDbEntity
  8
outline-stubby
 62
7
100
AcDbLine
 10
112.551557
 20
66.655754
 30
0.0
 11
112.290555
 21
66.303001
 31
0.0
  0
LINE
  5
1e5
100
AcDbEntity
  8
outline-stubby
 62
7
100
AcDbLine
 10
112.290555
 20
66.303001
 30
0.0
 11
112.023062
 21
65.974862
 31
0.0
  0
LINE
  5
1e6
100
AcDbEntity
  8
outline-stubby
 62
7
100
AcDbLine
 10
112.023062
 20
65.974862
 30
0.0
 11
111.751234
 21
65.669627
 31
0.0
  0
LINE
  5
1e7
100
AcDbEntity
  8
outline-stubby
 62
7
100
AcDbLine
 10
111.751234
 20
65.669627
 30
0.0
 11
111.477236
 21
65.385596
 31
0.0
  0
LINE
  5
1e8
100
AcDbEntity
  8
outline-stubby
 62
7
100
AcDbLine
 10
111.477236
 20
65.385596
 30
0.0
 11
111.203221
 21
65.121060
 31
0.0
  0
LINE
  5
1e9
100
AcDbEntity
  8
outline-stubby
 62
7
100
AcDbLine
 10
111.203221
 20
65.121060
 30
0.0
 11
110.931350
 21
64.874313
 31
0.0
  0
LINE
  5
1ea
100
AcDbEntity
  8
outline-stubby
 62
7
100
AcDbLine
 10
110.931350
 20
64.874313
 30
0.0
 11
110.663787
 21
64.643656
 31
0.0
  0
LINE
  5
1eb
100
AcDbEntity
  8
outline-stubby
 62
7
100
AcDbLine
 10
110.663787
 20
64.643656
 30
0.0
 11
110.402683
 21
64.427381
 31
0.0
  0
LINE
  5
1ec
100
AcDbEntity
  8
outline-stubby
 62
7
100
AcDbLine
 10
110.402683
 20
64.427381
 30
0.0
 11
110.150202
 21
64.223783
 31
0.0
  0
LINE
  5
1ed
100
AcDbEntity
  8
outline-stubby
 62
7
100
AcDbLine
 10
110.150202
 20
64.223783
 30
0.0
 11
109.908501
 21
64.031158
 31
0.0
  0
LINE
  5
1ee
100
AcDbEntity
  8
outline-stubby
 62
7
100
AcDbLine
 10
109.908501
 20
64.031158
 30
0.0
 11
109.679740
 21
63.847801
 31
0.0
  0
LINE
  5
1ef
100
AcDbEntity
  8
outline-stubby
 62
7
100
AcDbLine
 10
109.679740
 20
63.847801
 30
0.0
 11
109.466078
 21
63.672007
 31
0.0
  0
LINE
  5
1f0
100
AcDbEntity
  8
outline-stubby
 62
7
100
AcDbLine
 10
109.466078
 20
63.672007
 30
0.0
 11
109.269677
 21
63.502070
 31
0.0
  0
LINE
  5
1f1
100
AcDbEntity
  8
outline-stubby
 62
7
100
AcDbLine
 10
109.269677
 20
63.502070
 30
0.0
 11
109.092690
 21
63.336287
 31
0.0
  0
LINE
  5
1f2
100
AcDbEntity
  8
outline-stubby
 62
7
100
AcDbLine
 10
109.092690
 20
63.336287
 30
0.0
 11
108.937281
 21
63.172954
 31
0.0
  0
LINE
  5
1f3
100
AcDbEntity
  8
outline-stubby
 62
7
100
AcDbLine
 10
108.937281
 20
63.172954
 30
0.0
 11
108.805607
 21
63.010366
 31
0.0
  0
LINE
  5
1f4
100
AcDbEntity
  8
outline-stubby
 62
7
100
AcDbLine
 10
108.805607
 20
63.010366
 30
0.0
 11
108.699828
 21
62.846815
 31
0.0
  0
LINE
  5
1f5
100
AcDbEntity
  8
outline-stubby
 62
7
100
AcDbLine
 10
108.699828
 20
62.846815
 30
0.0
 11
108.622101
 21
62.680597
 31
0.0
  0
LINE
  5
1f6
100
AcDbEntity
  8
outline-stubby
 62
7
100
AcDbLine
 10
108.622101
 20
62.680597
 30
0.0
 11
108.574586
 21
62.510011
 31
0.0
  0
LINE
  5
1f7
100
AcDbEntity
  8
outline-stubby
 62
7
100
AcDbLine
 10
108.574586
 20
62.510011
 30
0.0
 11
108.559431
 21
62.333351
 31
0.0
  0
LINE
  5
1f8
100
AcDbEntity
  8
outline-stubby
 62
7
100
AcDbLine
 10
108.559431
 20
62.333351
 30
0.0
 11
108.573598
 21
61.808373
 31
0.0
  0
LINE
  5
1f9
100
AcDbEntity
  8
outline-stubby
 62
7
100
AcDbLine
 10
108.573598
 20
61.808373
 30
0.0
 11
108.604905
 21
61.355429
 31
0.0
  0
LINE
  5
1fa
100
AcDbEntity
  8
outline-stubby
 62
7
100
AcDbLine
 10
108.604905
 20
61.355429
 30
0.0
 11
108.653140
 21
60.969038
 31
0.0
  0
LINE
  5
1fb
100
AcDbEntity
  8
outline-stubby
 62
7
100
AcDbLine
 10
108.653140
 20
60.969038
 30
0.0
 11
108.718073
 21
60.643732
 31
0.0
  0
LINE
  5
1fc
100
AcDbEntity
  8
outline-stubby
 62
7
100
AcDbLine
 10
108.718073
 20
60.643732
 30
0.0
 11
108.799483
 21
60.374029
 31
0.0
  0
LINE
  5
1fd
100
AcDbEntity
  8
outline-stubby
 62
7
100
AcDbLine
 10
108.799483
 20
60.374029
 30
0.0
 11
108.897143
 21
60.154460
 31
0.0
  0
LINE
  5
1fe
100
AcDbEntity
  8
outline-stubby
 62
7
100
AcDbLine
 10
108.897143
 20
60.154460
 30
0.0
 11
109.010831
 21
59.979547
 31
0.0
  0
LINE
  5
1ff
100
AcDbEntity
  8
outline-stubby
 62
7
100
AcDbLine
 10
109.010831
 20
59.979547
 30
0.0
 11
109.140320
 21
59.843815
 31
0.0
  0
LINE
  5
200
100
AcDbEntity
  8
outline-stubby
 62
7
100
AcDbLine
 10
109.140320
 20
59.843815
 30
0.0
 11
109.285385
 21
59.741786
 31
0.0
  0
LINE
  5
201
100
AcDbEntity
  8
outline-stubby
 62
7
100
AcDbLine
 10
109.285385
 20
59.741786
 30
0.0
 11
109.445803
 21
59.667991
 31
0.0
  0
LINE
  5
202
100
AcDbEntity
  8
outline-stubby
 62
7
100
AcDbLine
 10
109.445803
 20
59.667991
 30
0.0
 11
109.621348
 21
59.616948
 31
0.0
  0
LINE
  5
203
100
AcDbEntity
  8
outline-stubby
 62
7
100
AcDbLine
 10
109.621348
 20
59.616948
 30
0.0
 11
109.811795
 21
59.583189
 31
0.0
  0
LINE
  5
204
100
AcDbEntity
  8
outline-stubby
 62
7
100
AcDbLine
 10
109.811795
 20
59.583189
 30
0.0
 11
110.016919
 21
59.561232
 31
0.0
  0
LINE
  5
205
100
AcDbEntity
  8
outline-stubby
 62
7
100
AcDbLine
 10
110.016919
 20
59.561232
 30
0.0
 11
110.236497
 21
59.545597
 31
0.0
  0
LINE
  5
206
100
AcDbEntity
  8
outline-stubby
 62
7
100
AcDbLine
 10
110.236497
 20
59.545597
 30
0.0
 11
110.470301
 21
59.530836
 31
0.0
  0
LINE
  5
207
100
AcDbEntity
  8
outline-stubby
 62
7
100
AcDbLine
 10
110.470301
 20
59.530836
 30
0.0
 11
110.718106
 21
59.511448
 31
0.0
  0
LINE
  5
208
100
AcDbEntity
  8
outline-stubby
 62
7
100
AcDbLine
 10
110.718106
 20
59.511448
 30
0.0
 11
110.979692
 21
59.481958
 31
0.0
  0
LINE
  5
209
100
AcDbEntity
  8
outline-stubby
 62
7
100
AcDbLine
 10
110.979692
 20
59.481958
 30
0.0
 11
111.254831
 21
59.436899
 31
0.0
  0
LINE
  5
20a
100
AcDbEntity
  8
outline-stubby
 62
7
100
AcDbLine
 10
111.254831
 20
59.436899
 30
0.0
 11
111.543296
 21
59.370791
 31
0.0
  0
LINE
  5
20b
100
AcDbEntity
  8
outline-stubby
 62
7
100
AcDbLine
 10
111.543296
 20
59.370791
 30
0.0
 11
111.844864
 21
59.278163
 31
0.0
  0
LINE
  5
20c
100
AcDbEntity
  8
outline-stubby
 62
7
100
AcDbLine
 10
111.844864
 20
59.278163
 30
0.0
 11
112.159313
 21
59.153536
 31
0.0
  0
LINE
  5
20d
100
AcDbEntity
  8
outline-stubby
 62
7
100
AcDbLine
 10
112.159313
 20
59.153536
 30
0.0
 11
112.486415
 21
58.991439
 31
0.0
  0
LINE
  5
20e
100
AcDbEntity
  8
outline-stubby
 62
7
100
AcDbLine
 10
112.486415
 20
58.991439
 30
0.0
 11
112.825945
 21
58.786394
 31
0.0
  0
LINE
  5
20f
100
AcDbEntity
  8
outline-stubby
 62
7
100
AcDbLine
 10
112.825945
 20
58.786394
 30
0.0
 11
113.177681
 21
58.532927
 31
0.0
  0
LINE
  5
210
100
AcDbEntity
  8
outline-stubby
 62
7
100
AcDbLine
 10
113.177681
 20
58.532927
 30
0.0
 11
113.541395
 21
58.225562
 31
0.0
  0
LINE
  5
211
100
AcDbEntity
  8
outline-stubby
 62
7
100
AcDbLine
 10
113.541395
 20
58.225562
 30
0.0
 11
113.916864
 21
57.858825
 31
0.0
  0
LINE
  5
212
100
AcDbEntity
  8
outline-stubby
 62
7
100
AcDbLine
 10
113.916864
 20
57.858825
 30
0.0
 11
114.303861
 21
57.427240
 31
0.0
  0
LINE
  5
213
100
AcDbEntity
  8
outline-stubby
 62
7
100
AcDbLine
 10
114.303861
 20
57.427240
 30
0.0
 11
114.702161
 21
56.925330
 31
0.0
  0
LINE
  5
214
100
AcDbEntity
  8
outline-stubby
 62
7
100
AcDbLine
 10
114.702161
 20
56.925330
 30
0.0
 11
115.111544
 21
56.347621
 31
0.0
  0
LINE
  5
215
100
AcDbEntity
  8
outline-stubby
 62
7
100
AcDbLine
 10
115.111544
 20
56.347621
 30
0.0
 11
115.531781
 21
55.688641
 31
0.0
  0
LINE
  5
216
100
AcDbEntity
  8
outline-stubby
 62
7
100
AcDbLine
 10
115.531781
 20
55.688641
 30
0.0
 11
115.962650
 21
54.942911
 31
0.0
  0
LINE
  5
217
100
AcDbEntity
  8
outline-stubby
 62
7
100
AcDbLine
 10
115.962650
 20
54.942911
 30
0.0
 11
116.403922
 21
54.104956
 31
0.0
  0
LINE
  5
218
100
AcDbEntity
  8
outline-stubby
 62
7
100
AcDbLine
 10
116.403922
 20
54.104956
 30
0.0
 11
116.403955
 21
54.054599
 31
0.0
  0
ENDSEC
  0
SECTION
  2
OBJECTS
  0
DICTIONARY
  5
C
330
0
100
AcDbDictionary
  3
ACAD_GROUP
350
D
  3
ACAD_MLINESTYLE
350
17
  0
DICTIONARY
  5
D
330
C
100
AcDbDictionary
  0
DICTIONARY
  5
1A
330
C
100
AcDbDictionary
  0
DICTIONARY
  5
17
330
C
100
AcDbDictionary
  3
STANDARD
350
18
  0
DICTIONARY
  5
19
330
C
100
AcDbDictionary
  0
ENDSEC
  0
EOF
